  0
SECTION
  2
HEADER
  9
$ACADVER
  1
AC1006
  9
$DWGCODEPAGE
  3
ansi_1252
  9
$INSBASE
 10
0.0
 20
0.0
 30
0.0
  9
$EXTMIN
 10
-93.5633
 20
-133.9772
  9
$EXTMAX
 10
54.2367
 20
126.2203
  9
$LIMMIN
 10
0.0
 20
0.0
  9
$LIMMAX
 10
12.0
 20
9.0
  9
$ORTHOMODE
 70
     0
  9
$REGENMODE
 70
     1
  9
$FILLMODE
 70
     1
  9
$QTEXTMODE
 70
     0
  9
$MIRRTEXT
 70
     1
  9
$DRAGMODE
 70
     2
  9
$LTSCALE
 40
1.0
  9
$OSMODE
 70
    37
  9
$ATTMODE
 70
     1
  9
$TEXTSIZE
 40
0.2
  9
$TRACEWID
 40
0.05
  9
$TEXTSTYLE
  7
STANDARD
  9
$CLAYER
  8
0
  9
$CELTYPE
  6
BYLAYER
  9
$CECOLOR
 62
   256
  9
$DIMSCALE
 40
1.0
  9
$DIMASZ
 40
0.18
  9
$DIMEXO
 40
0.0625
  9
$DIMDLI
 40
0.38
  9
$DIMRND
 40
0.0
  9
$DIMDLE
 40
0.0
  9
$DIMEXE
 40
0.18
  9
$DIMTP
 40
0.0
  9
$DIMTM
 40
0.0
  9
$DIMTXT
 40
0.18
  9
$DIMCEN
 40
0.09
  9
$DIMTSZ
 40
0.0
  9
$DIMTOL
 70
     0
  9
$DIMLIM
 70
     0
  9
$DIMTIH
 70
     1
  9
$DIMTOH
 70
     1
  9
$DIMSE1
 70
     0
  9
$DIMSE2
 70
     0
  9
$DIMTAD
 70
     0
  9
$DIMZIN
 70
     0
  9
$DIMBLK
  1

  9
$DIMASO
 70
     1
  9
$DIMSHO
 70
     1
  9
$DIMPOST
  1

  9
$DIMAPOST
  1

  9
$DIMALT
 70
     0
  9
$DIMALTD
 70
     2
  9
$DIMALTF
 40
25.4
  9
$DIMLFAC
 40
1.0
  9
$DIMTOFL
 70
     0
  9
$DIMTVP
 40
0.0
  9
$DIMTIX
 70
     0
  9
$DIMSOXD
 70
     0
  9
$DIMSAH
 70
     0
  9
$DIMBLK1
  1

  9
$DIMBLK2
  1

  9
$LUNITS
 70
     2
  9
$LUPREC
 70
     4
  9
$SKETCHINC
 40
0.1
  9
$FILLETRAD
 40
0.5
  9
$AUNITS
 70
     0
  9
$AUPREC
 70
     0
  9
$MENU
  1
.
  9
$ELEVATION
 40
0.0
  9
$THICKNESS
 40
0.0
  9
$LIMCHECK
 70
     0
  9
$CHAMFERA
 40
0.5
  9
$CHAMFERB
 40
0.5
  9
$SKPOLY
 70
     0
  9
$TDCREATE
 40
2456549.491661551
  9
$TDUPDATE
 40
2456549.491661563
  9
$TDINDWG
 40
0.0000000116
  9
$TDUSRTIMER
 40
0.0000000116
  9
$USRTIMER
 70
     1
  9
$ANGBASE
 50
0.0
  9
$ANGDIR
 70
     0
  9
$PDMODE
 70
     0
  9
$PDSIZE
 40
0.0
  9
$PLINEWID
 40
0.0
  9
$COORDS
 70
     1
  9
$SPLFRAME
 70
     0
  9
$SPLINETYPE
 70
     6
  9
$SPLINESEGS
 70
     8
  9
$ATTDIA
 70
     0
  9
$ATTREQ
 70
     1
  9
$HANDLING
 70
     1
  9
$HANDSEED
  5
8F3
  9
$SURFTAB1
 70
     6
  9
$SURFTAB2
 70
     6
  9
$SURFTYPE
 70
     6
  9
$SURFU
 70
     6
  9
$SURFV
 70
     6
  9
$UCSNAME
  2

  9
$UCSORG
 10
0.0
 20
0.0
 30
0.0
  9
$UCSXDIR
 10
1.0
 20
0.0
 30
0.0
  9
$UCSYDIR
 10
0.0
 20
1.0
 30
0.0
  9
$USERI1
 70
     0
  9
$USERI2
 70
     0
  9
$USERI3
 70
     0
  9
$USERI4
 70
     0
  9
$USERI5
 70
     0
  9
$USERR1
 40
0.0
  9
$USERR2
 40
0.0
  9
$USERR3
 40
0.0
  9
$USERR4
 40
0.0
  9
$USERR5
 40
0.0
  9
$WORLDVIEW
 70
     1
  0
ENDSEC
  0
SECTION
  2
TABLES
  0
TABLE
  2
VPORT
 70
     1
  0
VPORT
  2
*ACTIVE
 70
     0
 10
0.0
 20
0.0
 11
1.0
 21
1.0
 12
10.42990654205607
 22
4.5
 13
0.0
 23
0.0
 14
0.5
 24
0.5
 15
0.5
 25
0.5
 16
0.0
 26
0.0
 36
1.0
 17
0.0
 27
0.0
 37
0.0
 40
9.0
 41
1.972972972850329
 42
50.0
 43
0.0
 44
0.0
 50
0.0
 51
0.0
 71
     0
 72
   100
 73
     1
 74
     3
 75
     0
 76
     0
 77
     0
 78
     0
  0
ENDTAB
  0
TABLE
  2
LTYPE
 70
     1
  0
LTYPE
  2
CONTINUOUS
 70
     0
  3
Solid line
 72
    65
 73
     0
 40
0.0
  0
ENDTAB
  0
TABLE
  2
LAYER
 70
     2
  0
LAYER
  2
0
 70
     0
 62
     7
  6
CONTINUOUS
  0
LAYER
  2
LAYER_1
 70
     0
 62
     7
  6
CONTINUOUS
  0
ENDTAB
  0
TABLE
  2
STYLE
 70
     1
  0
STYLE
  2
STANDARD
 70
     0
 40
0.0
 41
1.0
 50
0.0
 71
     0
 42
0.2
  3
txt
  4

  0
ENDTAB
  0
TABLE
  2
VIEW
 70
     0
  0
ENDTAB
  0
TABLE
  2
UCS
 70
     0
  0
ENDTAB
  0
ENDSEC
  0
SECTION
  2
BLOCKS
  0
ENDSEC
  0
SECTION
  2
ENTITIES
  0
POLYLINE
  5
41
  8
LAYER_1
 66
     1
 10
0.0
 20
0.0
 30
0.0
  0
VERTEX
  5
135
  8
LAYER_1
 10
-92.0739
 20
-14.9735
 30
0.0
  0
VERTEX
  5
136
  8
LAYER_1
 10
-73.4084
 20
-14.9735
 30
0.0
  0
SEQEND
  5
137
  8
LAYER_1
  0
POLYLINE
  5
42
  8
LAYER_1
 66
     1
 10
0.0
 20
0.0
 30
0.0
  0
VERTEX
  5
138
  8
LAYER_1
 10
-73.4084
 20
-14.9735
 30
0.0
  0
VERTEX
  5
139
  8
LAYER_1
 10
-73.4084
 20
-17.9721
 30
0.0
  0
SEQEND
  5
13A
  8
LAYER_1
  0
POLYLINE
  5
43
  8
LAYER_1
 66
     1
 10
0.0
 20
0.0
 30
0.0
  0
VERTEX
  5
13B
  8
LAYER_1
 10
-73.4084
 20
-17.9721
 30
0.0
  0
VERTEX
  5
13C
  8
LAYER_1
 10
-51.7408
 20
-17.9721
 30
0.0
  0
SEQEND
  5
13D
  8
LAYER_1
  0
POLYLINE
  5
44
  8
LAYER_1
 66
     1
 10
0.0
 20
0.0
 30
0.0
  0
VERTEX
  5
13E
  8
LAYER_1
 10
-51.7408
 20
-14.9735
 30
0.0
  0
VERTEX
  5
13F
  8
LAYER_1
 10
-51.7408
 20
-17.9721
 30
0.0
  0
SEQEND
  5
140
  8
LAYER_1
  0
POLYLINE
  5
45
  8
LAYER_1
 66
     1
 10
0.0
 20
0.0
 30
0.0
  0
VERTEX
  5
141
  8
LAYER_1
 10
-51.7408
 20
-14.9735
 30
0.0
  0
VERTEX
  5
142
  8
LAYER_1
 10
-33.0753
 20
-14.9735
 30
0.0
  0
SEQEND
  5
143
  8
LAYER_1
  0
POLYLINE
  5
46
  8
LAYER_1
 66
     1
 10
0.0
 20
0.0
 30
0.0
  0
VERTEX
  5
144
  8
LAYER_1
 10
-92.0739
 20
9.026
 30
0.0
  0
VERTEX
  5
145
  8
LAYER_1
 10
-73.4084
 20
9.026
 30
0.0
  0
SEQEND
  5
146
  8
LAYER_1
  0
POLYLINE
  5
47
  8
LAYER_1
 66
     1
 10
0.0
 20
0.0
 30
0.0
  0
VERTEX
  5
147
  8
LAYER_1
 10
-73.4084
 20
12.0246
 30
0.0
  0
VERTEX
  5
148
  8
LAYER_1
 10
-73.4084
 20
9.026
 30
0.0
  0
SEQEND
  5
149
  8
LAYER_1
  0
POLYLINE
  5
48
  8
LAYER_1
 66
     1
 10
0.0
 20
0.0
 30
0.0
  0
VERTEX
  5
14A
  8
LAYER_1
 10
-73.4084
 20
12.0246
 30
0.0
  0
VERTEX
  5
14B
  8
LAYER_1
 10
-51.7408
 20
12.0246
 30
0.0
  0
SEQEND
  5
14C
  8
LAYER_1
  0
POLYLINE
  5
49
  8
LAYER_1
 66
     1
 10
0.0
 20
0.0
 30
0.0
  0
VERTEX
  5
14D
  8
LAYER_1
 10
-51.7408
 20
12.0246
 30
0.0
  0
VERTEX
  5
14E
  8
LAYER_1
 10
-51.7408
 20
9.026
 30
0.0
  0
SEQEND
  5
14F
  8
LAYER_1
  0
POLYLINE
  5
4A
  8
LAYER_1
 66
     1
 10
0.0
 20
0.0
 30
0.0
  0
VERTEX
  5
150
  8
LAYER_1
 10
-51.7408
 20
9.026
 30
0.0
  0
VERTEX
  5
151
  8
LAYER_1
 10
-33.0753
 20
9.026
 30
0.0
  0
SEQEND
  5
152
  8
LAYER_1
  0
POLYLINE
  5
4B
  8
LAYER_1
 66
     1
 10
0.0
 20
0.0
 30
0.0
  0
VERTEX
  5
153
  8
LAYER_1
 10
-92.0739
 20
-14.9735
 30
0.0
  0
VERTEX
  5
154
  8
LAYER_1
 10
-92.0739
 20
9.026
 30
0.0
  0
SEQEND
  5
155
  8
LAYER_1
  0
POLYLINE
  5
4C
  8
LAYER_1
 66
     1
 10
0.0
 20
0.0
 30
0.0
  0
VERTEX
  5
156
  8
LAYER_1
 10
-33.0753
 20
-14.9735
 30
0.0
  0
VERTEX
  5
157
  8
LAYER_1
 10
-33.0753
 20
9.026
 30
0.0
  0
SEQEND
  5
158
  8
LAYER_1
  0
POLYLINE
  5
4D
  8
LAYER_1
 66
     1
 10
0.0
 20
0.0
 30
0.0
  0
VERTEX
  5
159
  8
LAYER_1
 10
-28.6915
 20
-14.1903
 30
0.0
  0
VERTEX
  5
15A
  8
LAYER_1
 10
-1.6899
 20
-14.1903
 30
0.0
  0
SEQEND
  5
15B
  8
LAYER_1
  0
POLYLINE
  5
4E
  8
LAYER_1
 66
     1
 10
0.0
 20
0.0
 30
0.0
  0
VERTEX
  5
15C
  8
LAYER_1
 10
-28.6915
 20
91.8088
 30
0.0
  0
VERTEX
  5
15D
  8
LAYER_1
 10
-1.6899
 20
91.8088
 30
0.0
  0
SEQEND
  5
15E
  8
LAYER_1
  0
POLYLINE
  5
4F
  8
LAYER_1
 66
     1
 10
0.0
 20
0.0
 30
0.0
  0
VERTEX
  5
15F
  8
LAYER_1
 10
-28.6915
 20
-14.1903
 30
0.0
  0
VERTEX
  5
160
  8
LAYER_1
 10
-28.6915
 20
0.9509
 30
0.0
  0
SEQEND
  5
161
  8
LAYER_1
  0
POLYLINE
  5
50
  8
LAYER_1
 66
     1
 10
0.0
 20
0.0
 30
0.0
  0
VERTEX
  5
162
  8
LAYER_1
 10
-25.6929
 20
0.9509
 30
0.0
  0
VERTEX
  5
163
  8
LAYER_1
 10
-28.6915
 20
0.9509
 30
0.0
  0
SEQEND
  5
164
  8
LAYER_1
  0
POLYLINE
  5
51
  8
LAYER_1
 66
     1
 10
0.0
 20
0.0
 30
0.0
  0
VERTEX
  5
165
  8
LAYER_1
 10
-25.6929
 20
10.1679
 30
0.0
  0
VERTEX
  5
166
  8
LAYER_1
 10
-25.6929
 20
16.0921
 30
0.0
  0
SEQEND
  5
167
  8
LAYER_1
  0
POLYLINE
  5
52
  8
LAYER_1
 66
     1
 10
0.0
 20
0.0
 30
0.0
  0
VERTEX
  5
168
  8
LAYER_1
 10
-25.6929
 20
16.0921
 30
0.0
  0
VERTEX
  5
169
  8
LAYER_1
 10
-28.6915
 20
16.0921
 30
0.0
  0
SEQEND
  5
16A
  8
LAYER_1
  0
POLYLINE
  5
53
  8
LAYER_1
 66
     1
 10
0.0
 20
0.0
 30
0.0
  0
VERTEX
  5
16B
  8
LAYER_1
 10
-28.6915
 20
16.0921
 30
0.0
  0
VERTEX
  5
16C
  8
LAYER_1
 10
-28.6915
 20
31.2369
 30
0.0
  0
SEQEND
  5
16D
  8
LAYER_1
  0
POLYLINE
  5
54
  8
LAYER_1
 66
     1
 10
0.0
 20
0.0
 30
0.0
  0
VERTEX
  5
16E
  8
LAYER_1
 10
-25.6929
 20
31.2369
 30
0.0
  0
VERTEX
  5
16F
  8
LAYER_1
 10
-28.6915
 20
31.2369
 30
0.0
  0
SEQEND
  5
170
  8
LAYER_1
  0
POLYLINE
  5
55
  8
LAYER_1
 66
     1
 10
0.0
 20
0.0
 30
0.0
  0
VERTEX
  5
171
  8
LAYER_1
 10
-25.6929
 20
31.2369
 30
0.0
  0
VERTEX
  5
172
  8
LAYER_1
 10
-25.6929
 20
46.3781
 30
0.0
  0
SEQEND
  5
173
  8
LAYER_1
  0
POLYLINE
  5
56
  8
LAYER_1
 66
     1
 10
0.0
 20
0.0
 30
0.0
  0
VERTEX
  5
174
  8
LAYER_1
 10
-25.6929
 20
46.3781
 30
0.0
  0
VERTEX
  5
175
  8
LAYER_1
 10
-28.6915
 20
46.3781
 30
0.0
  0
SEQEND
  5
176
  8
LAYER_1
  0
POLYLINE
  5
57
  8
LAYER_1
 66
     1
 10
0.0
 20
0.0
 30
0.0
  0
VERTEX
  5
177
  8
LAYER_1
 10
-28.6915
 20
46.3781
 30
0.0
  0
VERTEX
  5
178
  8
LAYER_1
 10
-28.6915
 20
61.5229
 30
0.0
  0
SEQEND
  5
179
  8
LAYER_1
  0
POLYLINE
  5
58
  8
LAYER_1
 66
     1
 10
0.0
 20
0.0
 30
0.0
  0
VERTEX
  5
17A
  8
LAYER_1
 10
-25.6929
 20
61.5229
 30
0.0
  0
VERTEX
  5
17B
  8
LAYER_1
 10
-28.6915
 20
61.5229
 30
0.0
  0
SEQEND
  5
17C
  8
LAYER_1
  0
POLYLINE
  5
59
  8
LAYER_1
 66
     1
 10
0.0
 20
0.0
 30
0.0
  0
VERTEX
  5
17D
  8
LAYER_1
 10
-25.6929
 20
70.5935
 30
0.0
  0
VERTEX
  5
17E
  8
LAYER_1
 10
-25.6929
 20
76.6641
 30
0.0
  0
SEQEND
  5
17F
  8
LAYER_1
  0
POLYLINE
  5
5A
  8
LAYER_1
 66
     1
 10
0.0
 20
0.0
 30
0.0
  0
VERTEX
  5
180
  8
LAYER_1
 10
-25.6929
 20
76.6641
 30
0.0
  0
VERTEX
  5
181
  8
LAYER_1
 10
-28.6915
 20
76.6641
 30
0.0
  0
SEQEND
  5
182
  8
LAYER_1
  0
POLYLINE
  5
5B
  8
LAYER_1
 66
     1
 10
0.0
 20
0.0
 30
0.0
  0
VERTEX
  5
183
  8
LAYER_1
 10
-28.6915
 20
76.6641
 30
0.0
  0
VERTEX
  5
184
  8
LAYER_1
 10
-28.6915
 20
91.8088
 30
0.0
  0
SEQEND
  5
185
  8
LAYER_1
  0
POLYLINE
  5
5C
  8
LAYER_1
 66
     1
 10
0.0
 20
0.0
 30
0.0
  0
VERTEX
  5
186
  8
LAYER_1
 10
-1.6899
 20
-5.1197
 30
0.0
  0
VERTEX
  5
187
  8
LAYER_1
 10
-1.6899
 20
0.9509
 30
0.0
  0
SEQEND
  5
188
  8
LAYER_1
  0
POLYLINE
  5
5D
  8
LAYER_1
 66
     1
 10
0.0
 20
0.0
 30
0.0
  0
VERTEX
  5
189
  8
LAYER_1
 10
1.3087
 20
0.9509
 30
0.0
  0
VERTEX
  5
18A
  8
LAYER_1
 10
-1.6899
 20
0.9509
 30
0.0
  0
SEQEND
  5
18B
  8
LAYER_1
  0
POLYLINE
  5
5E
  8
LAYER_1
 66
     1
 10
0.0
 20
0.0
 30
0.0
  0
VERTEX
  5
18C
  8
LAYER_1
 10
1.3087
 20
0.9509
 30
0.0
  0
VERTEX
  5
18D
  8
LAYER_1
 10
1.3087
 20
16.0921
 30
0.0
  0
SEQEND
  5
18E
  8
LAYER_1
  0
POLYLINE
  5
5F
  8
LAYER_1
 66
     1
 10
0.0
 20
0.0
 30
0.0
  0
VERTEX
  5
18F
  8
LAYER_1
 10
1.3087
 20
16.0921
 30
0.0
  0
VERTEX
  5
190
  8
LAYER_1
 10
-1.6899
 20
16.0921
 30
0.0
  0
SEQEND
  5
191
  8
LAYER_1
  0
POLYLINE
  5
60
  8
LAYER_1
 66
     1
 10
0.0
 20
0.0
 30
0.0
  0
VERTEX
  5
192
  8
LAYER_1
 10
-1.6899
 20
16.0921
 30
0.0
  0
VERTEX
  5
193
  8
LAYER_1
 10
-1.6899
 20
31.2369
 30
0.0
  0
SEQEND
  5
194
  8
LAYER_1
  0
POLYLINE
  5
61
  8
LAYER_1
 66
     1
 10
0.0
 20
0.0
 30
0.0
  0
VERTEX
  5
195
  8
LAYER_1
 10
1.3087
 20
31.2369
 30
0.0
  0
VERTEX
  5
196
  8
LAYER_1
 10
-1.6899
 20
31.2369
 30
0.0
  0
SEQEND
  5
197
  8
LAYER_1
  0
POLYLINE
  5
62
  8
LAYER_1
 66
     1
 10
0.0
 20
0.0
 30
0.0
  0
VERTEX
  5
198
  8
LAYER_1
 10
1.3087
 20
31.2369
 30
0.0
  0
VERTEX
  5
199
  8
LAYER_1
 10
1.3087
 20
46.3781
 30
0.0
  0
SEQEND
  5
19A
  8
LAYER_1
  0
POLYLINE
  5
63
  8
LAYER_1
 66
     1
 10
0.0
 20
0.0
 30
0.0
  0
VERTEX
  5
19B
  8
LAYER_1
 10
1.3087
 20
46.3781
 30
0.0
  0
VERTEX
  5
19C
  8
LAYER_1
 10
-1.6899
 20
46.3781
 30
0.0
  0
SEQEND
  5
19D
  8
LAYER_1
  0
POLYLINE
  5
64
  8
LAYER_1
 66
     1
 10
0.0
 20
0.0
 30
0.0
  0
VERTEX
  5
19E
  8
LAYER_1
 10
-1.6899
 20
46.3781
 30
0.0
  0
VERTEX
  5
19F
  8
LAYER_1
 10
-1.6899
 20
61.5229
 30
0.0
  0
SEQEND
  5
1A0
  8
LAYER_1
  0
POLYLINE
  5
65
  8
LAYER_1
 66
     1
 10
0.0
 20
0.0
 30
0.0
  0
VERTEX
  5
1A1
  8
LAYER_1
 10
1.3087
 20
61.5229
 30
0.0
  0
VERTEX
  5
1A2
  8
LAYER_1
 10
-1.6899
 20
61.5229
 30
0.0
  0
SEQEND
  5
1A3
  8
LAYER_1
  0
POLYLINE
  5
66
  8
LAYER_1
 66
     1
 10
0.0
 20
0.0
 30
0.0
  0
VERTEX
  5
1A4
  8
LAYER_1
 10
1.3087
 20
61.5229
 30
0.0
  0
VERTEX
  5
1A5
  8
LAYER_1
 10
1.3087
 20
76.6641
 30
0.0
  0
SEQEND
  5
1A6
  8
LAYER_1
  0
POLYLINE
  5
67
  8
LAYER_1
 66
     1
 10
0.0
 20
0.0
 30
0.0
  0
VERTEX
  5
1A7
  8
LAYER_1
 10
1.3087
 20
76.6641
 30
0.0
  0
VERTEX
  5
1A8
  8
LAYER_1
 10
-1.6899
 20
76.6641
 30
0.0
  0
SEQEND
  5
1A9
  8
LAYER_1
  0
POLYLINE
  5
68
  8
LAYER_1
 66
     1
 10
0.0
 20
0.0
 30
0.0
  0
VERTEX
  5
1AA
  8
LAYER_1
 10
-1.6899
 20
85.7347
 30
0.0
  0
VERTEX
  5
1AB
  8
LAYER_1
 10
-1.6899
 20
91.8088
 30
0.0
  0
SEQEND
  5
1AC
  8
LAYER_1
  0
POLYLINE
  5
69
  8
LAYER_1
 66
     1
 10
0.0
 20
0.0
 30
0.0
  0
VERTEX
  5
1AD
  8
LAYER_1
 10
-25.6929
 20
67.5935
 30
0.0
  0
VERTEX
  5
1AE
  8
LAYER_1
 10
-21.7384
 20
67.5935
 30
0.0
  0
VERTEX
  5
1AF
  8
LAYER_1
 10
-21.7384
 20
66.5435
 30
0.0
  0
VERTEX
  5
1B0
  8
LAYER_1
 10
-19.6384
 20
66.5435
 30
0.0
  0
VERTEX
  5
1B1
  8
LAYER_1
 10
-19.6384
 20
67.5935
 30
0.0
  0
VERTEX
  5
1B2
  8
LAYER_1
 10
-15.6929
 20
67.5935
 30
0.0
  0
VERTEX
  5
1B3
  8
LAYER_1
 10
-15.6929
 20
70.5935
 30
0.0
  0
VERTEX
  5
1B4
  8
LAYER_1
 10
-19.6384
 20
70.5935
 30
0.0
  0
VERTEX
  5
1B5
  8
LAYER_1
 10
-19.6384
 20
71.6435
 30
0.0
  0
VERTEX
  5
1B6
  8
LAYER_1
 10
-21.7384
 20
71.6435
 30
0.0
  0
VERTEX
  5
1B7
  8
LAYER_1
 10
-21.7384
 20
70.5935
 30
0.0
  0
VERTEX
  5
1B8
  8
LAYER_1
 10
-25.6929
 20
70.5935
 30
0.0
  0
SEQEND
  5
1B9
  8
LAYER_1
  0
POLYLINE
  5
6A
  8
LAYER_1
 66
     1
 10
0.0
 20
0.0
 30
0.0
  0
VERTEX
  5
1BA
  8
LAYER_1
 10
-25.6929
 20
7.0215
 30
0.0
  0
VERTEX
  5
1BB
  8
LAYER_1
 10
-21.7384
 20
7.0215
 30
0.0
  0
VERTEX
  5
1BC
  8
LAYER_1
 10
-21.7384
 20
5.9715
 30
0.0
  0
VERTEX
  5
1BD
  8
LAYER_1
 10
-19.6384
 20
5.9715
 30
0.0
  0
VERTEX
  5
1BE
  8
LAYER_1
 10
-19.6384
 20
7.0215
 30
0.0
  0
VERTEX
  5
1BF
  8
LAYER_1
 10
-15.6929
 20
7.0215
 30
0.0
  0
VERTEX
  5
1C0
  8
LAYER_1
 10
-15.6929
 20
10.0215
 30
0.0
  0
VERTEX
  5
1C1
  8
LAYER_1
 10
-19.6384
 20
10.0215
 30
0.0
  0
VERTEX
  5
1C2
  8
LAYER_1
 10
-19.6384
 20
11.0715
 30
0.0
  0
VERTEX
  5
1C3
  8
LAYER_1
 10
-21.7384
 20
11.0715
 30
0.0
  0
VERTEX
  5
1C4
  8
LAYER_1
 10
-21.7384
 20
10.0215
 30
0.0
  0
VERTEX
  5
1C5
  8
LAYER_1
 10
-25.6929
 20
10.0215
 30
0.0
  0
SEQEND
  5
1C6
  8
LAYER_1
  0
POLYLINE
  5
6B
  8
LAYER_1
 66
     1
 10
0.0
 20
0.0
 30
0.0
  0
VERTEX
  5
1C7
  8
LAYER_1
 10
-1.6899
 20
-5.1197
 30
0.0
  0
VERTEX
  5
1C8
  8
LAYER_1
 10
-5.6444
 20
-5.1197
 30
0.0
  0
VERTEX
  5
1C9
  8
LAYER_1
 10
-5.6444
 20
-4.0697
 30
0.0
  0
VERTEX
  5
1CA
  8
LAYER_1
 10
-7.7444
 20
-4.0697
 30
0.0
  0
VERTEX
  5
1CB
  8
LAYER_1
 10
-7.7444
 20
-5.1197
 30
0.0
  0
VERTEX
  5
1CC
  8
LAYER_1
 10
-11.6899
 20
-5.1197
 30
0.0
  0
VERTEX
  5
1CD
  8
LAYER_1
 10
-11.6899
 20
-8.1197
 30
0.0
  0
VERTEX
  5
1CE
  8
LAYER_1
 10
-7.7444
 20
-8.1197
 30
0.0
  0
VERTEX
  5
1CF
  8
LAYER_1
 10
-7.7444
 20
-9.1697
 30
0.0
  0
VERTEX
  5
1D0
  8
LAYER_1
 10
-5.6444
 20
-9.1697
 30
0.0
  0
VERTEX
  5
1D1
  8
LAYER_1
 10
-5.6444
 20
-8.1197
 30
0.0
  0
VERTEX
  5
1D2
  8
LAYER_1
 10
-1.6899
 20
-8.1197
 30
0.0
  0
SEQEND
  5
1D3
  8
LAYER_1
  0
POLYLINE
  5
6C
  8
LAYER_1
 66
     1
 10
0.0
 20
0.0
 30
0.0
  0
VERTEX
  5
1D4
  8
LAYER_1
 10
-1.6899
 20
85.7347
 30
0.0
  0
VERTEX
  5
1D5
  8
LAYER_1
 10
-5.6444
 20
85.7347
 30
0.0
  0
VERTEX
  5
1D6
  8
LAYER_1
 10
-5.6444
 20
86.7847
 30
0.0
  0
VERTEX
  5
1D7
  8
LAYER_1
 10
-7.7444
 20
86.7847
 30
0.0
  0
VERTEX
  5
1D8
  8
LAYER_1
 10
-7.7444
 20
85.7347
 30
0.0
  0
VERTEX
  5
1D9
  8
LAYER_1
 10
-11.6899
 20
85.7347
 30
0.0
  0
VERTEX
  5
1DA
  8
LAYER_1
 10
-11.6899
 20
82.7347
 30
0.0
  0
VERTEX
  5
1DB
  8
LAYER_1
 10
-7.7444
 20
82.7347
 30
0.0
  0
VERTEX
  5
1DC
  8
LAYER_1
 10
-7.7444
 20
81.6847
 30
0.0
  0
VERTEX
  5
1DD
  8
LAYER_1
 10
-5.6444
 20
81.6847
 30
0.0
  0
VERTEX
  5
1DE
  8
LAYER_1
 10
-5.6444
 20
82.7347
 30
0.0
  0
VERTEX
  5
1DF
  8
LAYER_1
 10
-1.6899
 20
82.7347
 30
0.0
  0
SEQEND
  5
1E0
  8
LAYER_1
  0
POLYLINE
  5
6D
  8
LAYER_1
 62
   250
 66
     1
 10
0.0
 20
0.0
 30
0.0
  0
VERTEX
  5
1E1
  8
LAYER_1
 62
   250
 10
-1.6899
 20
82.7347
 30
0.0
  0
VERTEX
  5
1E2
  8
LAYER_1
 62
   250
 10
-1.6899
 20
76.6641
 30
0.0
  0
SEQEND
  5
1E3
  8
LAYER_1
 62
   250
  0
POLYLINE
  5
6E
  8
LAYER_1
 62
   250
 66
     1
 10
0.0
 20
0.0
 30
0.0
  0
VERTEX
  5
1E4
  8
LAYER_1
 62
   250
 10
-25.6929
 20
67.5935
 30
0.0
  0
VERTEX
  5
1E5
  8
LAYER_1
 62
   250
 10
-25.6929
 20
61.5229
 30
0.0
  0
SEQEND
  5
1E6
  8
LAYER_1
 62
   250
  0
POLYLINE
  5
6F
  8
LAYER_1
 62
   250
 66
     1
 10
0.0
 20
0.0
 30
0.0
  0
VERTEX
  5
1E7
  8
LAYER_1
 62
   250
 10
-25.6929
 20
7.0215
 30
0.0
  0
VERTEX
  5
1E8
  8
LAYER_1
 62
   250
 10
-25.6929
 20
0.9509
 30
0.0
  0
SEQEND
  5
1E9
  8
LAYER_1
 62
   250
  0
POLYLINE
  5
70
  8
LAYER_1
 62
   250
 66
     1
 10
0.0
 20
0.0
 30
0.0
  0
VERTEX
  5
1EA
  8
LAYER_1
 62
   250
 10
-1.6899
 20
-8.1197
 30
0.0
  0
VERTEX
  5
1EB
  8
LAYER_1
 62
   250
 10
-1.6899
 20
-14.1903
 30
0.0
  0
SEQEND
  5
1EC
  8
LAYER_1
 62
   250
  0
POLYLINE
  5
71
  8
LAYER_1
 66
     1
 10
0.0
 20
0.0
 30
0.0
  0
VERTEX
  5
1ED
  8
LAYER_1
 10
-92.0739
 20
50.3255
 30
0.0
  0
VERTEX
  5
1EE
  8
LAYER_1
 10
-73.4084
 20
50.3255
 30
0.0
  0
SEQEND
  5
1EF
  8
LAYER_1
  0
POLYLINE
  5
72
  8
LAYER_1
 66
     1
 10
0.0
 20
0.0
 30
0.0
  0
VERTEX
  5
1F0
  8
LAYER_1
 10
-73.4084
 20
50.3255
 30
0.0
  0
VERTEX
  5
1F1
  8
LAYER_1
 10
-73.4084
 20
47.3269
 30
0.0
  0
SEQEND
  5
1F2
  8
LAYER_1
  0
POLYLINE
  5
73
  8
LAYER_1
 66
     1
 10
0.0
 20
0.0
 30
0.0
  0
VERTEX
  5
1F3
  8
LAYER_1
 10
-73.4084
 20
47.3269
 30
0.0
  0
VERTEX
  5
1F4
  8
LAYER_1
 10
-51.7408
 20
47.3269
 30
0.0
  0
SEQEND
  5
1F5
  8
LAYER_1
  0
POLYLINE
  5
74
  8
LAYER_1
 66
     1
 10
0.0
 20
0.0
 30
0.0
  0
VERTEX
  5
1F6
  8
LAYER_1
 10
-51.7408
 20
50.3255
 30
0.0
  0
VERTEX
  5
1F7
  8
LAYER_1
 10
-51.7408
 20
47.3269
 30
0.0
  0
SEQEND
  5
1F8
  8
LAYER_1
  0
POLYLINE
  5
75
  8
LAYER_1
 66
     1
 10
0.0
 20
0.0
 30
0.0
  0
VERTEX
  5
1F9
  8
LAYER_1
 10
-51.7408
 20
50.3255
 30
0.0
  0
VERTEX
  5
1FA
  8
LAYER_1
 10
-33.0753
 20
50.3255
 30
0.0
  0
SEQEND
  5
1FB
  8
LAYER_1
  0
POLYLINE
  5
76
  8
LAYER_1
 66
     1
 10
0.0
 20
0.0
 30
0.0
  0
VERTEX
  5
1FC
  8
LAYER_1
 10
-92.0739
 20
74.3285
 30
0.0
  0
VERTEX
  5
1FD
  8
LAYER_1
 10
-73.4084
 20
74.3285
 30
0.0
  0
SEQEND
  5
1FE
  8
LAYER_1
  0
POLYLINE
  5
77
  8
LAYER_1
 66
     1
 10
0.0
 20
0.0
 30
0.0
  0
VERTEX
  5
1FF
  8
LAYER_1
 10
-73.4084
 20
77.3271
 30
0.0
  0
VERTEX
  5
200
  8
LAYER_1
 10
-73.4084
 20
74.3285
 30
0.0
  0
SEQEND
  5
201
  8
LAYER_1
  0
POLYLINE
  5
78
  8
LAYER_1
 66
     1
 10
0.0
 20
0.0
 30
0.0
  0
VERTEX
  5
202
  8
LAYER_1
 10
-73.4084
 20
77.3271
 30
0.0
  0
VERTEX
  5
203
  8
LAYER_1
 10
-51.7408
 20
77.3271
 30
0.0
  0
SEQEND
  5
204
  8
LAYER_1
  0
POLYLINE
  5
79
  8
LAYER_1
 66
     1
 10
0.0
 20
0.0
 30
0.0
  0
VERTEX
  5
205
  8
LAYER_1
 10
-51.7408
 20
77.3271
 30
0.0
  0
VERTEX
  5
206
  8
LAYER_1
 10
-51.7408
 20
74.3285
 30
0.0
  0
SEQEND
  5
207
  8
LAYER_1
  0
POLYLINE
  5
7A
  8
LAYER_1
 66
     1
 10
0.0
 20
0.0
 30
0.0
  0
VERTEX
  5
208
  8
LAYER_1
 10
-51.7408
 20
74.3285
 30
0.0
  0
VERTEX
  5
209
  8
LAYER_1
 10
-33.0753
 20
74.3285
 30
0.0
  0
SEQEND
  5
20A
  8
LAYER_1
  0
POLYLINE
  5
7B
  8
LAYER_1
 66
     1
 10
0.0
 20
0.0
 30
0.0
  0
VERTEX
  5
20B
  8
LAYER_1
 10
-92.0739
 20
50.3255
 30
0.0
  0
VERTEX
  5
20C
  8
LAYER_1
 10
-92.0739
 20
74.3285
 30
0.0
  0
SEQEND
  5
20D
  8
LAYER_1
  0
POLYLINE
  5
7C
  8
LAYER_1
 66
     1
 10
0.0
 20
0.0
 30
0.0
  0
VERTEX
  5
20E
  8
LAYER_1
 10
-33.0753
 20
50.3255
 30
0.0
  0
VERTEX
  5
20F
  8
LAYER_1
 10
-33.0753
 20
74.3285
 30
0.0
  0
SEQEND
  5
210
  8
LAYER_1
  0
POLYLINE
  5
7D
  8
LAYER_1
 62
   250
 66
     1
 10
0.0
 20
0.0
 30
0.0
 70
     1
  0
VERTEX
  5
211
  8
LAYER_1
 62
   250
 10
-47.4753
 20
70.427
 30
0.0
  0
VERTEX
  5
212
  8
LAYER_1
 62
   250
 10
-45.8429
 20
70.2624
 30
0.0
  0
VERTEX
  5
213
  8
LAYER_1
 62
   250
 10
-44.3224
 20
69.7905
 30
0.0
  0
VERTEX
  5
214
  8
LAYER_1
 62
   250
 10
-42.9465
 20
69.0436
 30
0.0
  0
VERTEX
  5
215
  8
LAYER_1
 62
   250
 10
-41.7477
 20
68.0546
 30
0.0
  0
VERTEX
  5
216
  8
LAYER_1
 62
   250
 10
-40.7587
 20
66.8558
 30
0.0
  0
VERTEX
  5
217
  8
LAYER_1
 62
   250
 10
-40.0118
 20
65.4799
 30
0.0
  0
VERTEX
  5
218
  8
LAYER_1
 62
   250
 10
-39.5399
 20
63.9594
 30
0.0
  0
VERTEX
  5
219
  8
LAYER_1
 62
   250
 10
-39.3753
 20
62.327
 30
0.0
  0
VERTEX
  5
21A
  8
LAYER_1
 62
   250
 10
-39.5399
 20
60.6946
 30
0.0
  0
VERTEX
  5
21B
  8
LAYER_1
 62
   250
 10
-40.0118
 20
59.1741
 30
0.0
  0
VERTEX
  5
21C
  8
LAYER_1
 62
   250
 10
-40.7587
 20
57.7982
 30
0.0
  0
VERTEX
  5
21D
  8
LAYER_1
 62
   250
 10
-41.7477
 20
56.5994
 30
0.0
  0
VERTEX
  5
21E
  8
LAYER_1
 62
   250
 10
-42.9465
 20
55.6104
 30
0.0
  0
VERTEX
  5
21F
  8
LAYER_1
 62
   250
 10
-44.3224
 20
54.8635
 30
0.0
  0
VERTEX
  5
220
  8
LAYER_1
 62
   250
 10
-45.8429
 20
54.3916
 30
0.0
  0
VERTEX
  5
221
  8
LAYER_1
 62
   250
 10
-47.4753
 20
54.227
 30
0.0
  0
VERTEX
  5
222
  8
LAYER_1
 62
   250
 10
-49.1077
 20
54.3916
 30
0.0
  0
VERTEX
  5
223
  8
LAYER_1
 62
   250
 10
-50.6282
 20
54.8635
 30
0.0
  0
VERTEX
  5
224
  8
LAYER_1
 62
   250
 10
-52.0041
 20
55.6104
 30
0.0
  0
VERTEX
  5
225
  8
LAYER_1
 62
   250
 10
-53.2029
 20
56.5994
 30
0.0
  0
VERTEX
  5
226
  8
LAYER_1
 62
   250
 10
-54.1919
 20
57.7982
 30
0.0
  0
VERTEX
  5
227
  8
LAYER_1
 62
   250
 10
-54.9388
 20
59.1741
 30
0.0
  0
VERTEX
  5
228
  8
LAYER_1
 62
   250
 10
-55.4107
 20
60.6946
 30
0.0
  0
VERTEX
  5
229
  8
LAYER_1
 62
   250
 10
-55.5753
 20
62.327
 30
0.0
  0
VERTEX
  5
22A
  8
LAYER_1
 62
   250
 10
-55.4107
 20
63.9594
 30
0.0
  0
VERTEX
  5
22B
  8
LAYER_1
 62
   250
 10
-54.9388
 20
65.4799
 30
0.0
  0
VERTEX
  5
22C
  8
LAYER_1
 62
   250
 10
-54.1919
 20
66.8558
 30
0.0
  0
VERTEX
  5
22D
  8
LAYER_1
 62
   250
 10
-53.2029
 20
68.0546
 30
0.0
  0
VERTEX
  5
22E
  8
LAYER_1
 62
   250
 10
-52.0041
 20
69.0436
 30
0.0
  0
VERTEX
  5
22F
  8
LAYER_1
 62
   250
 10
-50.6282
 20
69.7905
 30
0.0
  0
VERTEX
  5
230
  8
LAYER_1
 62
   250
 10
-49.1077
 20
70.2624
 30
0.0
  0
VERTEX
  5
231
  8
LAYER_1
 62
   250
 10
-47.4753
 20
70.427
 30
0.0
  0
SEQEND
  5
232
  8
LAYER_1
 62
   250
  0
POLYLINE
  5
7E
  8
LAYER_1
 66
     1
 10
0.0
 20
0.0
 30
0.0
  0
VERTEX
  5
233
  8
LAYER_1
 10
7.8045
 20
-127.8746
 30
0.0
  0
VERTEX
  5
234
  8
LAYER_1
 10
7.8045
 20
-130.8768
 30
0.0
  0
SEQEND
  5
235
  8
LAYER_1
  0
POLYLINE
  5
7F
  8
LAYER_1
 66
     1
 10
0.0
 20
0.0
 30
0.0
  0
VERTEX
  5
236
  8
LAYER_1
 10
7.8045
 20
-127.8746
 30
0.0
  0
VERTEX
  5
237
  8
LAYER_1
 10
29.4721
 20
-127.8746
 30
0.0
  0
SEQEND
  5
238
  8
LAYER_1
  0
POLYLINE
  5
80
  8
LAYER_1
 66
     1
 10
0.0
 20
0.0
 30
0.0
  0
VERTEX
  5
239
  8
LAYER_1
 10
29.4721
 20
-127.8746
 30
0.0
  0
VERTEX
  5
23A
  8
LAYER_1
 10
29.4721
 20
-130.8768
 30
0.0
  0
SEQEND
  5
23B
  8
LAYER_1
  0
POLYLINE
  5
81
  8
LAYER_1
 66
     1
 10
0.0
 20
0.0
 30
0.0
  0
VERTEX
  5
23C
  8
LAYER_1
 10
7.8045
 20
-24.8776
 30
0.0
  0
VERTEX
  5
23D
  8
LAYER_1
 10
7.8045
 20
-27.8762
 30
0.0
  0
SEQEND
  5
23E
  8
LAYER_1
  0
POLYLINE
  5
82
  8
LAYER_1
 66
     1
 10
0.0
 20
0.0
 30
0.0
  0
VERTEX
  5
23F
  8
LAYER_1
 10
7.8045
 20
-27.8762
 30
0.0
  0
VERTEX
  5
240
  8
LAYER_1
 10
29.4721
 20
-27.8762
 30
0.0
  0
SEQEND
  5
241
  8
LAYER_1
  0
POLYLINE
  5
83
  8
LAYER_1
 66
     1
 10
0.0
 20
0.0
 30
0.0
  0
VERTEX
  5
242
  8
LAYER_1
 10
29.4721
 20
-24.8776
 30
0.0
  0
VERTEX
  5
243
  8
LAYER_1
 10
29.4721
 20
-27.8762
 30
0.0
  0
SEQEND
  5
244
  8
LAYER_1
  0
POLYLINE
  5
84
  8
LAYER_1
 66
     1
 10
0.0
 20
0.0
 30
0.0
  0
VERTEX
  5
245
  8
LAYER_1
 10
-10.861
 20
-115.732
 30
0.0
  0
VERTEX
  5
246
  8
LAYER_1
 10
-13.8631
 20
-115.732
 30
0.0
  0
SEQEND
  5
247
  8
LAYER_1
  0
POLYLINE
  5
85
  8
LAYER_1
 66
     1
 10
0.0
 20
0.0
 30
0.0
  0
VERTEX
  5
248
  8
LAYER_1
 10
-10.861
 20
-100.5908
 30
0.0
  0
VERTEX
  5
249
  8
LAYER_1
 10
-13.8631
 20
-100.5908
 30
0.0
  0
SEQEND
  5
24A
  8
LAYER_1
  0
POLYLINE
  5
86
  8
LAYER_1
 66
     1
 10
0.0
 20
0.0
 30
0.0
  0
VERTEX
  5
24B
  8
LAYER_1
 10
-10.861
 20
-85.446
 30
0.0
  0
VERTEX
  5
24C
  8
LAYER_1
 10
-13.8631
 20
-85.446
 30
0.0
  0
SEQEND
  5
24D
  8
LAYER_1
  0
POLYLINE
  5
87
  8
LAYER_1
 66
     1
 10
0.0
 20
0.0
 30
0.0
  0
VERTEX
  5
24E
  8
LAYER_1
 10
-10.861
 20
-70.3048
 30
0.0
  0
VERTEX
  5
24F
  8
LAYER_1
 10
-13.8631
 20
-70.3048
 30
0.0
  0
SEQEND
  5
250
  8
LAYER_1
  0
POLYLINE
  5
88
  8
LAYER_1
 66
     1
 10
0.0
 20
0.0
 30
0.0
  0
VERTEX
  5
251
  8
LAYER_1
 10
-10.861
 20
-55.1636
 30
0.0
  0
VERTEX
  5
252
  8
LAYER_1
 10
-13.8631
 20
-55.1636
 30
0.0
  0
SEQEND
  5
253
  8
LAYER_1
  0
POLYLINE
  5
89
  8
LAYER_1
 66
     1
 10
0.0
 20
0.0
 30
0.0
  0
VERTEX
  5
254
  8
LAYER_1
 10
-10.861
 20
-40.0188
 30
0.0
  0
VERTEX
  5
255
  8
LAYER_1
 10
-13.8631
 20
-40.0188
 30
0.0
  0
SEQEND
  5
256
  8
LAYER_1
  0
POLYLINE
  5
8A
  8
LAYER_1
 66
     1
 10
0.0
 20
0.0
 30
0.0
  0
VERTEX
  5
257
  8
LAYER_1
 10
51.1362
 20
-100.5908
 30
0.0
  0
VERTEX
  5
258
  8
LAYER_1
 10
48.1376
 20
-100.5908
 30
0.0
  0
SEQEND
  5
259
  8
LAYER_1
  0
POLYLINE
  5
8B
  8
LAYER_1
 66
     1
 10
0.0
 20
0.0
 30
0.0
  0
VERTEX
  5
25A
  8
LAYER_1
 10
51.1362
 20
-85.446
 30
0.0
  0
VERTEX
  5
25B
  8
LAYER_1
 10
48.1376
 20
-85.446
 30
0.0
  0
SEQEND
  5
25C
  8
LAYER_1
  0
POLYLINE
  5
8C
  8
LAYER_1
 66
     1
 10
0.0
 20
0.0
 30
0.0
  0
VERTEX
  5
25D
  8
LAYER_1
 10
51.1362
 20
-70.3048
 30
0.0
  0
VERTEX
  5
25E
  8
LAYER_1
 10
48.1376
 20
-70.3048
 30
0.0
  0
SEQEND
  5
25F
  8
LAYER_1
  0
POLYLINE
  5
8D
  8
LAYER_1
 66
     1
 10
0.0
 20
0.0
 30
0.0
  0
VERTEX
  5
260
  8
LAYER_1
 10
51.1362
 20
-55.1636
 30
0.0
  0
VERTEX
  5
261
  8
LAYER_1
 10
48.1376
 20
-55.1636
 30
0.0
  0
SEQEND
  5
262
  8
LAYER_1
  0
POLYLINE
  5
8E
  8
LAYER_1
 62
   250
 66
     1
 10
0.0
 20
0.0
 30
0.0
 70
     1
  0
VERTEX
  5
263
  8
LAYER_1
 62
   250
 10
50.4108
 20
-21.8772
 30
0.0
  0
VERTEX
  5
264
  8
LAYER_1
 62
   250
 10
-13.1375
 20
-21.8772
 30
0.0
  0
VERTEX
  5
265
  8
LAYER_1
 62
   250
 10
-13.8859
 20
-21.9532
 30
0.0
  0
VERTEX
  5
266
  8
LAYER_1
 62
   250
 10
-14.5842
 20
-22.1712
 30
0.0
  0
VERTEX
  5
267
  8
LAYER_1
 62
   250
 10
-15.2169
 20
-22.5158
 30
0.0
  0
VERTEX
  5
268
  8
LAYER_1
 62
   250
 10
-15.7689
 20
-22.9717
 30
0.0
  0
VERTEX
  5
269
  8
LAYER_1
 62
   250
 10
-16.2248
 20
-23.5236
 30
0.0
  0
VERTEX
  5
26A
  8
LAYER_1
 62
   250
 10
-16.5693
 20
-24.1563
 30
0.0
  0
VERTEX
  5
26B
  8
LAYER_1
 62
   250
 10
-16.7873
 20
-24.8546
 30
0.0
  0
VERTEX
  5
26C
  8
LAYER_1
 62
   250
 10
-16.8633
 20
-25.603
 30
0.0
  0
VERTEX
  5
26D
  8
LAYER_1
 62
   250
 10
-16.8633
 20
-130.1514
 30
0.0
  0
VERTEX
  5
26E
  8
LAYER_1
 62
   250
 10
-16.7873
 20
-130.8998
 30
0.0
  0
VERTEX
  5
26F
  8
LAYER_1
 62
   250
 10
-16.5693
 20
-131.5981
 30
0.0
  0
VERTEX
  5
270
  8
LAYER_1
 62
   250
 10
-16.2248
 20
-132.2308
 30
0.0
  0
VERTEX
  5
271
  8
LAYER_1
 62
   250
 10
-15.7689
 20
-132.7828
 30
0.0
  0
VERTEX
  5
272
  8
LAYER_1
 62
   250
 10
-15.2169
 20
-133.2387
 30
0.0
  0
VERTEX
  5
273
  8
LAYER_1
 62
   250
 10
-14.5842
 20
-133.5832
 30
0.0
  0
VERTEX
  5
274
  8
LAYER_1
 62
   250
 10
-13.8859
 20
-133.8012
 30
0.0
  0
VERTEX
  5
275
  8
LAYER_1
 62
   250
 10
-13.1375
 20
-133.8772
 30
0.0
  0
VERTEX
  5
276
  8
LAYER_1
 62
   250
 10
50.4108
 20
-133.8772
 30
0.0
  0
VERTEX
  5
277
  8
LAYER_1
 62
   250
 10
51.1592
 20
-133.8012
 30
0.0
  0
VERTEX
  5
278
  8
LAYER_1
 62
   250
 10
51.8575
 20
-133.5832
 30
0.0
  0
VERTEX
  5
279
  8
LAYER_1
 62
   250
 10
52.4902
 20
-133.2387
 30
0.0
  0
VERTEX
  5
27A
  8
LAYER_1
 62
   250
 10
53.0422
 20
-132.7828
 30
0.0
  0
VERTEX
  5
27B
  8
LAYER_1
 62
   250
 10
53.4981
 20
-132.2308
 30
0.0
  0
VERTEX
  5
27C
  8
LAYER_1
 62
   250
 10
53.8427
 20
-131.5981
 30
0.0
  0
VERTEX
  5
27D
  8
LAYER_1
 62
   250
 10
54.0607
 20
-130.8998
 30
0.0
  0
VERTEX
  5
27E
  8
LAYER_1
 62
   250
 10
54.1367
 20
-130.1514
 30
0.0
  0
VERTEX
  5
27F
  8
LAYER_1
 62
   250
 10
54.1367
 20
-25.603
 30
0.0
  0
VERTEX
  5
280
  8
LAYER_1
 62
   250
 10
54.0607
 20
-24.8546
 30
0.0
  0
VERTEX
  5
281
  8
LAYER_1
 62
   250
 10
53.8427
 20
-24.1563
 30
0.0
  0
VERTEX
  5
282
  8
LAYER_1
 62
   250
 10
53.4981
 20
-23.5236
 30
0.0
  0
VERTEX
  5
283
  8
LAYER_1
 62
   250
 10
53.0422
 20
-22.9717
 30
0.0
  0
VERTEX
  5
284
  8
LAYER_1
 62
   250
 10
52.4902
 20
-22.5158
 30
0.0
  0
VERTEX
  5
285
  8
LAYER_1
 62
   250
 10
51.8575
 20
-22.1712
 30
0.0
  0
VERTEX
  5
286
  8
LAYER_1
 62
   250
 10
51.1592
 20
-21.9532
 30
0.0
  0
VERTEX
  5
287
  8
LAYER_1
 62
   250
 10
50.4108
 20
-21.8772
 30
0.0
  0
SEQEND
  5
288
  8
LAYER_1
 62
   250
  0
POLYLINE
  5
8F
  8
LAYER_1
 62
   250
 66
     1
 10
0.0
 20
0.0
 30
0.0
  0
VERTEX
  5
289
  8
LAYER_1
 62
   250
 10
7.8045
 20
-24.8776
 30
0.0
  0
VERTEX
  5
28A
  8
LAYER_1
 62
   250
 10
29.4721
 20
-24.8776
 30
0.0
  0
SEQEND
  5
28B
  8
LAYER_1
 62
   250
  0
POLYLINE
  5
90
  8
LAYER_1
 62
   250
 66
     1
 10
0.0
 20
0.0
 30
0.0
  0
VERTEX
  5
28C
  8
LAYER_1
 62
   250
 10
29.4721
 20
-130.8768
 30
0.0
  0
VERTEX
  5
28D
  8
LAYER_1
 62
   250
 10
7.8045
 20
-130.8768
 30
0.0
  0
SEQEND
  5
28E
  8
LAYER_1
 62
   250
  0
POLYLINE
  5
91
  8
LAYER_1
 62
   250
 66
     1
 10
0.0
 20
0.0
 30
0.0
 70
     1
  0
VERTEX
  5
28F
  8
LAYER_1
 62
   250
 10
19.939
 20
-110.4456
 30
0.0
  0
VERTEX
  5
290
  8
LAYER_1
 62
   250
 10
22.9376
 20
-110.4456
 30
0.0
  0
VERTEX
  5
291
  8
LAYER_1
 62
   250
 10
22.9376
 20
-95.3044
 30
0.0
  0
VERTEX
  5
292
  8
LAYER_1
 62
   250
 10
19.939
 20
-95.3044
 30
0.0
  0
VERTEX
  5
293
  8
LAYER_1
 62
   250
 10
19.939
 20
-110.4456
 30
0.0
  0
SEQEND
  5
294
  8
LAYER_1
 62
   250
  0
POLYLINE
  5
92
  8
LAYER_1
 62
   250
 66
     1
 10
0.0
 20
0.0
 30
0.0
 70
     1
  0
VERTEX
  5
295
  8
LAYER_1
 62
   250
 10
19.9391
 20
-60.4464
 30
0.0
  0
VERTEX
  5
296
  8
LAYER_1
 62
   250
 10
22.9377
 20
-60.4464
 30
0.0
  0
VERTEX
  5
297
  8
LAYER_1
 62
   250
 10
22.9377
 20
-45.3052
 30
0.0
  0
VERTEX
  5
298
  8
LAYER_1
 62
   250
 10
19.9391
 20
-45.3052
 30
0.0
  0
VERTEX
  5
299
  8
LAYER_1
 62
   250
 10
19.9391
 20
-60.4464
 30
0.0
  0
SEQEND
  5
29A
  8
LAYER_1
 62
   250
  0
POLYLINE
  5
93
  8
LAYER_1
 62
   250
 66
     1
 10
0.0
 20
0.0
 30
0.0
 70
     1
  0
VERTEX
  5
29B
  8
LAYER_1
 62
   250
 10
-1.1113
 20
-66.5123
 30
0.0
  0
VERTEX
  5
29C
  8
LAYER_1
 62
   250
 10
8.8887
 20
-66.5123
 30
0.0
  0
VERTEX
  5
29D
  8
LAYER_1
 62
   250
 10
8.8887
 20
-63.5137
 30
0.0
  0
VERTEX
  5
29E
  8
LAYER_1
 62
   250
 10
-1.1113
 20
-63.5137
 30
0.0
  0
VERTEX
  5
29F
  8
LAYER_1
 62
   250
 10
-1.1113
 20
-66.5123
 30
0.0
  0
SEQEND
  5
2A0
  8
LAYER_1
 62
   250
  0
POLYLINE
  5
94
  8
LAYER_1
 66
     1
 10
0.0
 20
0.0
 30
0.0
  0
VERTEX
  5
2A1
  8
LAYER_1
 10
51.1362
 20
-115.7356
 30
0.0
  0
VERTEX
  5
2A2
  8
LAYER_1
 10
48.1376
 20
-115.7356
 30
0.0
  0
SEQEND
  5
2A3
  8
LAYER_1
  0
POLYLINE
  5
95
  8
LAYER_1
 66
     1
 10
0.0
 20
0.0
 30
0.0
  0
VERTEX
  5
2A4
  8
LAYER_1
 10
-10.8645
 20
-40.0224
 30
0.0
  0
VERTEX
  5
2A5
  8
LAYER_1
 10
-13.8631
 20
-40.0224
 30
0.0
  0
SEQEND
  5
2A6
  8
LAYER_1
  0
POLYLINE
  5
96
  8
LAYER_1
 66
     1
 10
0.0
 20
0.0
 30
0.0
  0
VERTEX
  5
2A7
  8
LAYER_1
 10
-13.8631
 20
-100.5908
 30
0.0
  0
VERTEX
  5
2A8
  8
LAYER_1
 10
-13.8631
 20
-85.446
 30
0.0
  0
SEQEND
  5
2A9
  8
LAYER_1
  0
POLYLINE
  5
97
  8
LAYER_1
 66
     1
 10
0.0
 20
0.0
 30
0.0
  0
VERTEX
  5
2AA
  8
LAYER_1
 10
-13.8631
 20
-70.3048
 30
0.0
  0
VERTEX
  5
2AB
  8
LAYER_1
 10
-13.8631
 20
-55.1636
 30
0.0
  0
SEQEND
  5
2AC
  8
LAYER_1
  0
POLYLINE
  5
98
  8
LAYER_1
 62
   250
 66
     1
 10
0.0
 20
0.0
 30
0.0
  0
VERTEX
  5
2AD
  8
LAYER_1
 62
   250
 10
-10.8645
 20
-55.1636
 30
0.0
  0
VERTEX
  5
2AE
  8
LAYER_1
 62
   250
 10
-10.8645
 20
-70.3048
 30
0.0
  0
SEQEND
  5
2AF
  8
LAYER_1
 62
   250
  0
POLYLINE
  5
99
  8
LAYER_1
 62
   250
 66
     1
 10
0.0
 20
0.0
 30
0.0
  0
VERTEX
  5
2B0
  8
LAYER_1
 62
   250
 10
-10.8645
 20
-85.446
 30
0.0
  0
VERTEX
  5
2B1
  8
LAYER_1
 62
   250
 10
-10.8645
 20
-100.5908
 30
0.0
  0
SEQEND
  5
2B2
  8
LAYER_1
 62
   250
  0
POLYLINE
  5
9A
  8
LAYER_1
 62
   250
 66
     1
 10
0.0
 20
0.0
 30
0.0
 70
     1
  0
VERTEX
  5
2B3
  8
LAYER_1
 62
   250
 10
-13.8631
 20
-40.0188
 30
0.0
  0
VERTEX
  5
2B4
  8
LAYER_1
 62
   250
 10
-10.8645
 20
-40.0188
 30
0.0
  0
VERTEX
  5
2B5
  8
LAYER_1
 62
   250
 10
-10.8645
 20
-24.8776
 30
0.0
  0
VERTEX
  5
2B6
  8
LAYER_1
 62
   250
 10
-13.8631
 20
-24.8776
 30
0.0
  0
VERTEX
  5
2B7
  8
LAYER_1
 62
   250
 10
-13.8631
 20
-40.0188
 30
0.0
  0
SEQEND
  5
2B8
  8
LAYER_1
 62
   250
  0
POLYLINE
  5
9B
  8
LAYER_1
 62
   250
 66
     1
 10
0.0
 20
0.0
 30
0.0
 70
     1
  0
VERTEX
  5
2B9
  8
LAYER_1
 62
   250
 10
-13.8631
 20
-130.8732
 30
0.0
  0
VERTEX
  5
2BA
  8
LAYER_1
 62
   250
 10
-10.8645
 20
-130.8732
 30
0.0
  0
VERTEX
  5
2BB
  8
LAYER_1
 62
   250
 10
-10.8645
 20
-115.732
 30
0.0
  0
VERTEX
  5
2BC
  8
LAYER_1
 62
   250
 10
-13.8631
 20
-115.732
 30
0.0
  0
VERTEX
  5
2BD
  8
LAYER_1
 62
   250
 10
-13.8631
 20
-130.8732
 30
0.0
  0
SEQEND
  5
2BE
  8
LAYER_1
 62
   250
  0
POLYLINE
  5
9C
  8
LAYER_1
 62
   250
 66
     1
 10
0.0
 20
0.0
 30
0.0
 70
     1
  0
VERTEX
  5
2BF
  8
LAYER_1
 62
   250
 10
-12.3638
 20
-46.0912
 30
0.0
  0
VERTEX
  5
2C0
  8
LAYER_1
 62
   250
 10
-12.65643548302419
 20
-46.12002207939516
 30
0.0
  0
VERTEX
  5
2C1
  8
LAYER_1
 62
   250
 10
-12.93782514854763
 20
-46.20538070123307
 30
0.0
  0
VERTEX
  5
2C2
  8
LAYER_1
 62
   250
 10
-13.1971553495294
 20
-46.34399558154618
 30
0.0
  0
VERTEX
  5
2C3
  8
LAYER_1
 62
   250
 10
-13.42446017177982
 20
-46.53053982822018
 30
0.0
  0
VERTEX
  5
2C4
  8
LAYER_1
 62
   250
 10
-13.61100441845382
 20
-46.7578446504706
 30
0.0
  0
VERTEX
  5
2C5
  8
LAYER_1
 62
   250
 10
-13.74961929876693
 20
-47.01717485145237
 30
0.0
  0
VERTEX
  5
2C6
  8
LAYER_1
 62
   250
 10
-13.83497792060485
 20
-47.29856451697581
 30
0.0
  0
VERTEX
  5
2C7
  8
LAYER_1
 62
   250
 10
-13.8638
 20
-47.5912
 30
0.0
  0
VERTEX
  5
2C8
  8
LAYER_1
 62
   250
 10
-13.83497792060485
 20
-47.88383548302419
 30
0.0
  0
VERTEX
  5
2C9
  8
LAYER_1
 62
   250
 10
-13.74961929876693
 20
-48.16522514854763
 30
0.0
  0
VERTEX
  5
2CA
  8
LAYER_1
 62
   250
 10
-13.61100441845382
 20
-48.42455534952941
 30
0.0
  0
VERTEX
  5
2CB
  8
LAYER_1
 62
   250
 10
-13.42446017177982
 20
-48.65186017177982
 30
0.0
  0
VERTEX
  5
2CC
  8
LAYER_1
 62
   250
 10
-13.1971553495294
 20
-48.83840441845382
 30
0.0
  0
VERTEX
  5
2CD
  8
LAYER_1
 62
   250
 10
-12.93782514854763
 20
-48.97701929876693
 30
0.0
  0
VERTEX
  5
2CE
  8
LAYER_1
 62
   250
 10
-12.65643548302419
 20
-49.06237792060485
 30
0.0
  0
VERTEX
  5
2CF
  8
LAYER_1
 62
   250
 10
-12.3638
 20
-49.0912
 30
0.0
  0
VERTEX
  5
2D0
  8
LAYER_1
 62
   250
 10
-12.07116451697581
 20
-49.06237792060485
 30
0.0
  0
VERTEX
  5
2D1
  8
LAYER_1
 62
   250
 10
-11.78977485145236
 20
-48.97701929876693
 30
0.0
  0
VERTEX
  5
2D2
  8
LAYER_1
 62
   250
 10
-11.53044465047059
 20
-48.83840441845382
 30
0.0
  0
VERTEX
  5
2D3
  8
LAYER_1
 62
   250
 10
-11.30313982822018
 20
-48.65186017177982
 30
0.0
  0
VERTEX
  5
2D4
  8
LAYER_1
 62
   250
 10
-11.11659558154618
 20
-48.4245553495294
 30
0.0
  0
VERTEX
  5
2D5
  8
LAYER_1
 62
   250
 10
-10.97798070123307
 20
-48.16522514854763
 30
0.0
  0
VERTEX
  5
2D6
  8
LAYER_1
 62
   250
 10
-10.89262207939515
 20
-47.88383548302419
 30
0.0
  0
VERTEX
  5
2D7
  8
LAYER_1
 62
   250
 10
-10.8638
 20
-47.59119999999999
 30
0.0
  0
VERTEX
  5
2D8
  8
LAYER_1
 62
   250
 10
-10.89262207939515
 20
-47.2985645169758
 30
0.0
  0
VERTEX
  5
2D9
  8
LAYER_1
 62
   250
 10
-10.97798070123307
 20
-47.01717485145236
 30
0.0
  0
VERTEX
  5
2DA
  8
LAYER_1
 62
   250
 10
-11.11659558154618
 20
-46.7578446504706
 30
0.0
  0
VERTEX
  5
2DB
  8
LAYER_1
 62
   250
 10
-11.30313982822018
 20
-46.53053982822018
 30
0.0
  0
VERTEX
  5
2DC
  8
LAYER_1
 62
   250
 10
-11.5304446504706
 20
-46.34399558154618
 30
0.0
  0
VERTEX
  5
2DD
  8
LAYER_1
 62
   250
 10
-11.78977485145237
 20
-46.20538070123307
 30
0.0
  0
VERTEX
  5
2DE
  8
LAYER_1
 62
   250
 10
-12.07116451697581
 20
-46.12002207939516
 30
0.0
  0
SEQEND
  5
2DF
  8
LAYER_1
 62
   250
  0
POLYLINE
  5
9D
  8
LAYER_1
 62
   250
 66
     1
 10
0.0
 20
0.0
 30
0.0
 70
     1
  0
VERTEX
  5
2E0
  8
LAYER_1
 62
   250
 10
-12.3638
 20
-106.6632
 30
0.0
  0
VERTEX
  5
2E1
  8
LAYER_1
 62
   250
 10
-12.65643548302419
 20
-106.6920220793952
 30
0.0
  0
VERTEX
  5
2E2
  8
LAYER_1
 62
   250
 10
-12.93782514854763
 20
-106.7773807012331
 30
0.0
  0
VERTEX
  5
2E3
  8
LAYER_1
 62
   250
 10
-13.1971553495294
 20
-106.9159955815462
 30
0.0
  0
VERTEX
  5
2E4
  8
LAYER_1
 62
   250
 10
-13.42446017177982
 20
-107.1025398282202
 30
0.0
  0
VERTEX
  5
2E5
  8
LAYER_1
 62
   250
 10
-13.61100441845382
 20
-107.3298446504706
 30
0.0
  0
VERTEX
  5
2E6
  8
LAYER_1
 62
   250
 10
-13.74961929876693
 20
-107.5891748514524
 30
0.0
  0
VERTEX
  5
2E7
  8
LAYER_1
 62
   250
 10
-13.83497792060485
 20
-107.8705645169758
 30
0.0
  0
VERTEX
  5
2E8
  8
LAYER_1
 62
   250
 10
-13.8638
 20
-108.1632
 30
0.0
  0
VERTEX
  5
2E9
  8
LAYER_1
 62
   250
 10
-13.83497792060485
 20
-108.4558354830242
 30
0.0
  0
VERTEX
  5
2EA
  8
LAYER_1
 62
   250
 10
-13.74961929876693
 20
-108.7372251485476
 30
0.0
  0
VERTEX
  5
2EB
  8
LAYER_1
 62
   250
 10
-13.61100441845382
 20
-108.9965553495294
 30
0.0
  0
VERTEX
  5
2EC
  8
LAYER_1
 62
   250
 10
-13.42446017177982
 20
-109.2238601717798
 30
0.0
  0
VERTEX
  5
2ED
  8
LAYER_1
 62
   250
 10
-13.1971553495294
 20
-109.4104044184538
 30
0.0
  0
VERTEX
  5
2EE
  8
LAYER_1
 62
   250
 10
-12.93782514854763
 20
-109.5490192987669
 30
0.0
  0
VERTEX
  5
2EF
  8
LAYER_1
 62
   250
 10
-12.65643548302419
 20
-109.6343779206048
 30
0.0
  0
VERTEX
  5
2F0
  8
LAYER_1
 62
   250
 10
-12.3638
 20
-109.6632
 30
0.0
  0
VERTEX
  5
2F1
  8
LAYER_1
 62
   250
 10
-12.07116451697581
 20
-109.6343779206048
 30
0.0
  0
VERTEX
  5
2F2
  8
LAYER_1
 62
   250
 10
-11.78977485145236
 20
-109.5490192987669
 30
0.0
  0
VERTEX
  5
2F3
  8
LAYER_1
 62
   250
 10
-11.53044465047059
 20
-109.4104044184538
 30
0.0
  0
VERTEX
  5
2F4
  8
LAYER_1
 62
   250
 10
-11.30313982822018
 20
-109.2238601717798
 30
0.0
  0
VERTEX
  5
2F5
  8
LAYER_1
 62
   250
 10
-11.11659558154618
 20
-108.9965553495294
 30
0.0
  0
VERTEX
  5
2F6
  8
LAYER_1
 62
   250
 10
-10.97798070123307
 20
-108.7372251485476
 30
0.0
  0
VERTEX
  5
2F7
  8
LAYER_1
 62
   250
 10
-10.89262207939515
 20
-108.4558354830242
 30
0.0
  0
VERTEX
  5
2F8
  8
LAYER_1
 62
   250
 10
-10.8638
 20
-108.1632
 30
0.0
  0
VERTEX
  5
2F9
  8
LAYER_1
 62
   250
 10
-10.89262207939515
 20
-107.8705645169758
 30
0.0
  0
VERTEX
  5
2FA
  8
LAYER_1
 62
   250
 10
-10.97798070123307
 20
-107.5891748514524
 30
0.0
  0
VERTEX
  5
2FB
  8
LAYER_1
 62
   250
 10
-11.11659558154618
 20
-107.3298446504706
 30
0.0
  0
VERTEX
  5
2FC
  8
LAYER_1
 62
   250
 10
-11.30313982822018
 20
-107.1025398282202
 30
0.0
  0
VERTEX
  5
2FD
  8
LAYER_1
 62
   250
 10
-11.5304446504706
 20
-106.9159955815462
 30
0.0
  0
VERTEX
  5
2FE
  8
LAYER_1
 62
   250
 10
-11.78977485145237
 20
-106.7773807012331
 30
0.0
  0
VERTEX
  5
2FF
  8
LAYER_1
 62
   250
 10
-12.07116451697581
 20
-106.6920220793952
 30
0.0
  0
SEQEND
  5
300
  8
LAYER_1
 62
   250
  0
POLYLINE
  5
9E
  8
LAYER_1
 66
     1
 10
0.0
 20
0.0
 30
0.0
  0
VERTEX
  5
301
  8
LAYER_1
 10
51.1397
 20
-115.732
 30
0.0
  0
VERTEX
  5
302
  8
LAYER_1
 10
48.1376
 20
-115.732
 30
0.0
  0
SEQEND
  5
303
  8
LAYER_1
  0
POLYLINE
  5
9F
  8
LAYER_1
 66
     1
 10
0.0
 20
0.0
 30
0.0
  0
VERTEX
  5
304
  8
LAYER_1
 10
51.1397
 20
-115.732
 30
0.0
  0
VERTEX
  5
305
  8
LAYER_1
 10
51.1397
 20
-100.5908
 30
0.0
  0
SEQEND
  5
306
  8
LAYER_1
  0
POLYLINE
  5
A0
  8
LAYER_1
 66
     1
 10
0.0
 20
0.0
 30
0.0
  0
VERTEX
  5
307
  8
LAYER_1
 10
51.1397
 20
-85.446
 30
0.0
  0
VERTEX
  5
308
  8
LAYER_1
 10
51.1397
 20
-70.3048
 30
0.0
  0
SEQEND
  5
309
  8
LAYER_1
  0
POLYLINE
  5
A1
  8
LAYER_1
 66
     1
 10
0.0
 20
0.0
 30
0.0
  0
VERTEX
  5
30A
  8
LAYER_1
 10
51.1397
 20
-55.1636
 30
0.0
  0
VERTEX
  5
30B
  8
LAYER_1
 10
51.1397
 20
-40.0188
 30
0.0
  0
SEQEND
  5
30C
  8
LAYER_1
  0
POLYLINE
  5
A2
  8
LAYER_1
 66
     1
 10
0.0
 20
0.0
 30
0.0
  0
VERTEX
  5
30D
  8
LAYER_1
 10
51.1397
 20
-40.0188
 30
0.0
  0
VERTEX
  5
30E
  8
LAYER_1
 10
48.1376
 20
-40.0188
 30
0.0
  0
SEQEND
  5
30F
  8
LAYER_1
  0
POLYLINE
  5
A3
  8
LAYER_1
 62
   250
 66
     1
 10
0.0
 20
0.0
 30
0.0
  0
VERTEX
  5
310
  8
LAYER_1
 62
   250
 10
48.1376
 20
-100.5908
 30
0.0
  0
VERTEX
  5
311
  8
LAYER_1
 62
   250
 10
48.1376
 20
-115.732
 30
0.0
  0
SEQEND
  5
312
  8
LAYER_1
 62
   250
  0
POLYLINE
  5
A4
  8
LAYER_1
 62
   250
 66
     1
 10
0.0
 20
0.0
 30
0.0
  0
VERTEX
  5
313
  8
LAYER_1
 62
   250
 10
48.1376
 20
-85.446
 30
0.0
  0
VERTEX
  5
314
  8
LAYER_1
 62
   250
 10
48.1376
 20
-70.3048
 30
0.0
  0
SEQEND
  5
315
  8
LAYER_1
 62
   250
  0
POLYLINE
  5
A5
  8
LAYER_1
 62
   250
 66
     1
 10
0.0
 20
0.0
 30
0.0
  0
VERTEX
  5
316
  8
LAYER_1
 62
   250
 10
48.1376
 20
-55.1636
 30
0.0
  0
VERTEX
  5
317
  8
LAYER_1
 62
   250
 10
48.1376
 20
-40.0188
 30
0.0
  0
SEQEND
  5
318
  8
LAYER_1
 62
   250
  0
POLYLINE
  5
A6
  8
LAYER_1
 62
   250
 66
     1
 10
0.0
 20
0.0
 30
0.0
 70
     1
  0
VERTEX
  5
319
  8
LAYER_1
 62
   250
 10
49.6369
 20
-121.8044
 30
0.0
  0
VERTEX
  5
31A
  8
LAYER_1
 62
   250
 10
49.34426451697581
 20
-121.8332220793952
 30
0.0
  0
VERTEX
  5
31B
  8
LAYER_1
 62
   250
 10
49.06287485145236
 20
-121.9185807012331
 30
0.0
  0
VERTEX
  5
31C
  8
LAYER_1
 62
   250
 10
48.80354465047059
 20
-122.0571955815462
 30
0.0
  0
VERTEX
  5
31D
  8
LAYER_1
 62
   250
 10
48.57623982822017
 20
-122.2437398282202
 30
0.0
  0
VERTEX
  5
31E
  8
LAYER_1
 62
   250
 10
48.38969558154618
 20
-122.4710446504706
 30
0.0
  0
VERTEX
  5
31F
  8
LAYER_1
 62
   250
 10
48.25108070123306
 20
-122.7303748514524
 30
0.0
  0
VERTEX
  5
320
  8
LAYER_1
 62
   250
 10
48.16572207939515
 20
-123.0117645169758
 30
0.0
  0
VERTEX
  5
321
  8
LAYER_1
 62
   250
 10
48.1369
 20
-123.3044
 30
0.0
  0
VERTEX
  5
322
  8
LAYER_1
 62
   250
 10
48.16572207939515
 20
-123.5970354830242
 30
0.0
  0
VERTEX
  5
323
  8
LAYER_1
 62
   250
 10
48.25108070123306
 20
-123.8784251485476
 30
0.0
  0
VERTEX
  5
324
  8
LAYER_1
 62
   250
 10
48.38969558154618
 20
-124.1377553495294
 30
0.0
  0
VERTEX
  5
325
  8
LAYER_1
 62
   250
 10
48.57623982822017
 20
-124.3650601717798
 30
0.0
  0
VERTEX
  5
326
  8
LAYER_1
 62
   250
 10
48.80354465047059
 20
-124.5516044184538
 30
0.0
  0
VERTEX
  5
327
  8
LAYER_1
 62
   250
 10
49.06287485145236
 20
-124.6902192987669
 30
0.0
  0
VERTEX
  5
328
  8
LAYER_1
 62
   250
 10
49.34426451697581
 20
-124.7755779206048
 30
0.0
  0
VERTEX
  5
329
  8
LAYER_1
 62
   250
 10
49.6369
 20
-124.8044
 30
0.0
  0
VERTEX
  5
32A
  8
LAYER_1
 62
   250
 10
49.92953548302419
 20
-124.7755779206048
 30
0.0
  0
VERTEX
  5
32B
  8
LAYER_1
 62
   250
 10
50.21092514854763
 20
-124.6902192987669
 30
0.0
  0
VERTEX
  5
32C
  8
LAYER_1
 62
   250
 10
50.4702553495294
 20
-124.5516044184538
 30
0.0
  0
VERTEX
  5
32D
  8
LAYER_1
 62
   250
 10
50.69756017177982
 20
-124.3650601717798
 30
0.0
  0
VERTEX
  5
32E
  8
LAYER_1
 62
   250
 10
50.88410441845382
 20
-124.1377553495294
 30
0.0
  0
VERTEX
  5
32F
  8
LAYER_1
 62
   250
 10
51.02271929876693
 20
-123.8784251485476
 30
0.0
  0
VERTEX
  5
330
  8
LAYER_1
 62
   250
 10
51.10807792060484
 20
-123.5970354830242
 30
0.0
  0
VERTEX
  5
331
  8
LAYER_1
 62
   250
 10
51.1369
 20
-123.3044
 30
0.0
  0
VERTEX
  5
332
  8
LAYER_1
 62
   250
 10
51.10807792060484
 20
-123.0117645169758
 30
0.0
  0
VERTEX
  5
333
  8
LAYER_1
 62
   250
 10
51.02271929876692
 20
-122.7303748514524
 30
0.0
  0
VERTEX
  5
334
  8
LAYER_1
 62
   250
 10
50.88410441845381
 20
-122.4710446504706
 30
0.0
  0
VERTEX
  5
335
  8
LAYER_1
 62
   250
 10
50.69756017177981
 20
-122.2437398282202
 30
0.0
  0
VERTEX
  5
336
  8
LAYER_1
 62
   250
 10
50.4702553495294
 20
-122.0571955815462
 30
0.0
  0
VERTEX
  5
337
  8
LAYER_1
 62
   250
 10
50.21092514854762
 20
-121.9185807012331
 30
0.0
  0
VERTEX
  5
338
  8
LAYER_1
 62
   250
 10
49.92953548302418
 20
-121.8332220793952
 30
0.0
  0
SEQEND
  5
339
  8
LAYER_1
 62
   250
  0
POLYLINE
  5
A7
  8
LAYER_1
 66
     1
 10
0.0
 20
0.0
 30
0.0
  0
VERTEX
  5
33A
  8
LAYER_1
 10
51.1362
 20
-40.0224
 30
0.0
  0
VERTEX
  5
33B
  8
LAYER_1
 10
48.1376
 20
-40.0224
 30
0.0
  0
SEQEND
  5
33C
  8
LAYER_1
  0
POLYLINE
  5
A8
  8
LAYER_1
 62
   250
 66
     1
 10
0.0
 20
0.0
 30
0.0
 70
     1
  0
VERTEX
  5
33D
  8
LAYER_1
 62
   250
 10
49.6369
 20
-30.95
 30
0.0
  0
VERTEX
  5
33E
  8
LAYER_1
 62
   250
 10
49.34426451697581
 20
-30.97882207939516
 30
0.0
  0
VERTEX
  5
33F
  8
LAYER_1
 62
   250
 10
49.06287485145236
 20
-31.06418070123307
 30
0.0
  0
VERTEX
  5
340
  8
LAYER_1
 62
   250
 10
48.80354465047059
 20
-31.20279558154618
 30
0.0
  0
VERTEX
  5
341
  8
LAYER_1
 62
   250
 10
48.57623982822017
 20
-31.38933982822018
 30
0.0
  0
VERTEX
  5
342
  8
LAYER_1
 62
   250
 10
48.38969558154618
 20
-31.6166446504706
 30
0.0
  0
VERTEX
  5
343
  8
LAYER_1
 62
   250
 10
48.25108070123306
 20
-31.87597485145237
 30
0.0
  0
VERTEX
  5
344
  8
LAYER_1
 62
   250
 10
48.16572207939515
 20
-32.15736451697581
 30
0.0
  0
VERTEX
  5
345
  8
LAYER_1
 62
   250
 10
48.1369
 20
-32.45
 30
0.0
  0
VERTEX
  5
346
  8
LAYER_1
 62
   250
 10
48.16572207939515
 20
-32.74263548302419
 30
0.0
  0
VERTEX
  5
347
  8
LAYER_1
 62
   250
 10
48.25108070123306
 20
-33.02402514854764
 30
0.0
  0
VERTEX
  5
348
  8
LAYER_1
 62
   250
 10
48.38969558154618
 20
-33.28335534952941
 30
0.0
  0
VERTEX
  5
349
  8
LAYER_1
 62
   250
 10
48.57623982822017
 20
-33.51066017177983
 30
0.0
  0
VERTEX
  5
34A
  8
LAYER_1
 62
   250
 10
48.80354465047059
 20
-33.69720441845382
 30
0.0
  0
VERTEX
  5
34B
  8
LAYER_1
 62
   250
 10
49.06287485145236
 20
-33.83581929876694
 30
0.0
  0
VERTEX
  5
34C
  8
LAYER_1
 62
   250
 10
49.34426451697581
 20
-33.92117792060485
 30
0.0
  0
VERTEX
  5
34D
  8
LAYER_1
 62
   250
 10
49.6369
 20
-33.95
 30
0.0
  0
VERTEX
  5
34E
  8
LAYER_1
 62
   250
 10
49.92953548302419
 20
-33.92117792060485
 30
0.0
  0
VERTEX
  5
34F
  8
LAYER_1
 62
   250
 10
50.21092514854763
 20
-33.83581929876694
 30
0.0
  0
VERTEX
  5
350
  8
LAYER_1
 62
   250
 10
50.4702553495294
 20
-33.69720441845382
 30
0.0
  0
VERTEX
  5
351
  8
LAYER_1
 62
   250
 10
50.69756017177982
 20
-33.51066017177983
 30
0.0
  0
VERTEX
  5
352
  8
LAYER_1
 62
   250
 10
50.88410441845382
 20
-33.2833553495294
 30
0.0
  0
VERTEX
  5
353
  8
LAYER_1
 62
   250
 10
51.02271929876693
 20
-33.02402514854764
 30
0.0
  0
VERTEX
  5
354
  8
LAYER_1
 62
   250
 10
51.10807792060484
 20
-32.74263548302419
 30
0.0
  0
VERTEX
  5
355
  8
LAYER_1
 62
   250
 10
51.1369
 20
-32.45
 30
0.0
  0
VERTEX
  5
356
  8
LAYER_1
 62
   250
 10
51.10807792060484
 20
-32.1573645169758
 30
0.0
  0
VERTEX
  5
357
  8
LAYER_1
 62
   250
 10
51.02271929876692
 20
-31.87597485145237
 30
0.0
  0
VERTEX
  5
358
  8
LAYER_1
 62
   250
 10
50.88410441845381
 20
-31.6166446504706
 30
0.0
  0
VERTEX
  5
359
  8
LAYER_1
 62
   250
 10
50.69756017177981
 20
-31.38933982822018
 30
0.0
  0
VERTEX
  5
35A
  8
LAYER_1
 62
   250
 10
50.4702553495294
 20
-31.20279558154618
 30
0.0
  0
VERTEX
  5
35B
  8
LAYER_1
 62
   250
 10
50.21092514854762
 20
-31.06418070123307
 30
0.0
  0
VERTEX
  5
35C
  8
LAYER_1
 62
   250
 10
49.92953548302418
 20
-30.97882207939515
 30
0.0
  0
SEQEND
  5
35D
  8
LAYER_1
 62
   250
  0
POLYLINE
  5
A9
  8
LAYER_1
 66
     1
 10
0.0
 20
0.0
 30
0.0
  0
VERTEX
  5
35E
  8
LAYER_1
 10
51.1362
 20
-115.7356
 30
0.0
  0
VERTEX
  5
35F
  8
LAYER_1
 10
48.1376
 20
-115.7356
 30
0.0
  0
SEQEND
  5
360
  8
LAYER_1
  0
POLYLINE
  5
AA
  8
LAYER_1
 66
     1
 10
0.0
 20
0.0
 30
0.0
  0
VERTEX
  5
361
  8
LAYER_1
 10
-68.7955
 20
-127.8746
 30
0.0
  0
VERTEX
  5
362
  8
LAYER_1
 10
-68.7955
 20
-130.8768
 30
0.0
  0
SEQEND
  5
363
  8
LAYER_1
  0
POLYLINE
  5
AB
  8
LAYER_1
 66
     1
 10
0.0
 20
0.0
 30
0.0
  0
VERTEX
  5
364
  8
LAYER_1
 10
-68.7955
 20
-127.8746
 30
0.0
  0
VERTEX
  5
365
  8
LAYER_1
 10
-47.1279
 20
-127.8746
 30
0.0
  0
SEQEND
  5
366
  8
LAYER_1
  0
POLYLINE
  5
AC
  8
LAYER_1
 66
     1
 10
0.0
 20
0.0
 30
0.0
  0
VERTEX
  5
367
  8
LAYER_1
 10
-47.1279
 20
-127.8746
 30
0.0
  0
VERTEX
  5
368
  8
LAYER_1
 10
-47.1279
 20
-130.8768
 30
0.0
  0
SEQEND
  5
369
  8
LAYER_1
  0
POLYLINE
  5
AD
  8
LAYER_1
 66
     1
 10
0.0
 20
0.0
 30
0.0
  0
VERTEX
  5
36A
  8
LAYER_1
 10
-68.7955
 20
-24.8776
 30
0.0
  0
VERTEX
  5
36B
  8
LAYER_1
 10
-68.7955
 20
-27.8762
 30
0.0
  0
SEQEND
  5
36C
  8
LAYER_1
  0
POLYLINE
  5
AE
  8
LAYER_1
 66
     1
 10
0.0
 20
0.0
 30
0.0
  0
VERTEX
  5
36D
  8
LAYER_1
 10
-68.7955
 20
-27.8762
 30
0.0
  0
VERTEX
  5
36E
  8
LAYER_1
 10
-47.1279
 20
-27.8762
 30
0.0
  0
SEQEND
  5
36F
  8
LAYER_1
  0
POLYLINE
  5
AF
  8
LAYER_1
 66
     1
 10
0.0
 20
0.0
 30
0.0
  0
VERTEX
  5
370
  8
LAYER_1
 10
-47.1279
 20
-24.8776
 30
0.0
  0
VERTEX
  5
371
  8
LAYER_1
 10
-47.1279
 20
-27.8762
 30
0.0
  0
SEQEND
  5
372
  8
LAYER_1
  0
POLYLINE
  5
B0
  8
LAYER_1
 66
     1
 10
0.0
 20
0.0
 30
0.0
  0
VERTEX
  5
373
  8
LAYER_1
 10
-87.461
 20
-115.732
 30
0.0
  0
VERTEX
  5
374
  8
LAYER_1
 10
-90.4631
 20
-115.732
 30
0.0
  0
SEQEND
  5
375
  8
LAYER_1
  0
POLYLINE
  5
B1
  8
LAYER_1
 66
     1
 10
0.0
 20
0.0
 30
0.0
  0
VERTEX
  5
376
  8
LAYER_1
 10
-87.461
 20
-115.732
 30
0.0
  0
VERTEX
  5
377
  8
LAYER_1
 10
-87.461
 20
-100.5908
 30
0.0
  0
SEQEND
  5
378
  8
LAYER_1
  0
POLYLINE
  5
B2
  8
LAYER_1
 66
     1
 10
0.0
 20
0.0
 30
0.0
  0
VERTEX
  5
379
  8
LAYER_1
 10
-87.461
 20
-100.5908
 30
0.0
  0
VERTEX
  5
37A
  8
LAYER_1
 10
-90.4631
 20
-100.5908
 30
0.0
  0
SEQEND
  5
37B
  8
LAYER_1
  0
POLYLINE
  5
B3
  8
LAYER_1
 66
     1
 10
0.0
 20
0.0
 30
0.0
  0
VERTEX
  5
37C
  8
LAYER_1
 10
-87.461
 20
-85.446
 30
0.0
  0
VERTEX
  5
37D
  8
LAYER_1
 10
-90.4631
 20
-85.446
 30
0.0
  0
SEQEND
  5
37E
  8
LAYER_1
  0
POLYLINE
  5
B4
  8
LAYER_1
 66
     1
 10
0.0
 20
0.0
 30
0.0
  0
VERTEX
  5
37F
  8
LAYER_1
 10
-87.461
 20
-85.446
 30
0.0
  0
VERTEX
  5
380
  8
LAYER_1
 10
-87.461
 20
-70.3048
 30
0.0
  0
SEQEND
  5
381
  8
LAYER_1
  0
POLYLINE
  5
B5
  8
LAYER_1
 66
     1
 10
0.0
 20
0.0
 30
0.0
  0
VERTEX
  5
382
  8
LAYER_1
 10
-87.461
 20
-70.3048
 30
0.0
  0
VERTEX
  5
383
  8
LAYER_1
 10
-90.4631
 20
-70.3048
 30
0.0
  0
SEQEND
  5
384
  8
LAYER_1
  0
POLYLINE
  5
B6
  8
LAYER_1
 66
     1
 10
0.0
 20
0.0
 30
0.0
  0
VERTEX
  5
385
  8
LAYER_1
 10
-87.461
 20
-55.1636
 30
0.0
  0
VERTEX
  5
386
  8
LAYER_1
 10
-90.4631
 20
-55.1636
 30
0.0
  0
SEQEND
  5
387
  8
LAYER_1
  0
POLYLINE
  5
B7
  8
LAYER_1
 66
     1
 10
0.0
 20
0.0
 30
0.0
  0
VERTEX
  5
388
  8
LAYER_1
 10
-87.461
 20
-55.1636
 30
0.0
  0
VERTEX
  5
389
  8
LAYER_1
 10
-87.461
 20
-40.0188
 30
0.0
  0
SEQEND
  5
38A
  8
LAYER_1
  0
POLYLINE
  5
B8
  8
LAYER_1
 66
     1
 10
0.0
 20
0.0
 30
0.0
  0
VERTEX
  5
38B
  8
LAYER_1
 10
-87.461
 20
-40.0188
 30
0.0
  0
VERTEX
  5
38C
  8
LAYER_1
 10
-90.4631
 20
-40.0188
 30
0.0
  0
SEQEND
  5
38D
  8
LAYER_1
  0
POLYLINE
  5
B9
  8
LAYER_1
 66
     1
 10
0.0
 20
0.0
 30
0.0
  0
VERTEX
  5
38E
  8
LAYER_1
 10
-25.4638
 20
-100.5908
 30
0.0
  0
VERTEX
  5
38F
  8
LAYER_1
 10
-28.4624
 20
-100.5908
 30
0.0
  0
SEQEND
  5
390
  8
LAYER_1
  0
POLYLINE
  5
BA
  8
LAYER_1
 66
     1
 10
0.0
 20
0.0
 30
0.0
  0
VERTEX
  5
391
  8
LAYER_1
 10
-28.4624
 20
-100.5908
 30
0.0
  0
VERTEX
  5
392
  8
LAYER_1
 10
-28.4624
 20
-85.446
 30
0.0
  0
SEQEND
  5
393
  8
LAYER_1
  0
POLYLINE
  5
BB
  8
LAYER_1
 66
     1
 10
0.0
 20
0.0
 30
0.0
  0
VERTEX
  5
394
  8
LAYER_1
 10
-25.4638
 20
-85.446
 30
0.0
  0
VERTEX
  5
395
  8
LAYER_1
 10
-28.4624
 20
-85.446
 30
0.0
  0
SEQEND
  5
396
  8
LAYER_1
  0
POLYLINE
  5
BC
  8
LAYER_1
 66
     1
 10
0.0
 20
0.0
 30
0.0
  0
VERTEX
  5
397
  8
LAYER_1
 10
-25.4638
 20
-70.3048
 30
0.0
  0
VERTEX
  5
398
  8
LAYER_1
 10
-28.4624
 20
-70.3048
 30
0.0
  0
SEQEND
  5
399
  8
LAYER_1
  0
POLYLINE
  5
BD
  8
LAYER_1
 66
     1
 10
0.0
 20
0.0
 30
0.0
  0
VERTEX
  5
39A
  8
LAYER_1
 10
-28.4624
 20
-70.3048
 30
0.0
  0
VERTEX
  5
39B
  8
LAYER_1
 10
-28.4624
 20
-55.1636
 30
0.0
  0
SEQEND
  5
39C
  8
LAYER_1
  0
POLYLINE
  5
BE
  8
LAYER_1
 66
     1
 10
0.0
 20
0.0
 30
0.0
  0
VERTEX
  5
39D
  8
LAYER_1
 10
-25.4638
 20
-55.1636
 30
0.0
  0
VERTEX
  5
39E
  8
LAYER_1
 10
-28.4624
 20
-55.1636
 30
0.0
  0
SEQEND
  5
39F
  8
LAYER_1
  0
POLYLINE
  5
BF
  8
LAYER_1
 62
   250
 66
     1
 10
0.0
 20
0.0
 30
0.0
 70
     1
  0
VERTEX
  5
3A0
  8
LAYER_1
 62
   250
 10
-26.1892
 20
-21.8772
 30
0.0
  0
VERTEX
  5
3A1
  8
LAYER_1
 62
   250
 10
-89.7375
 20
-21.8772
 30
0.0
  0
VERTEX
  5
3A2
  8
LAYER_1
 62
   250
 10
-90.4859
 20
-21.9532
 30
0.0
  0
VERTEX
  5
3A3
  8
LAYER_1
 62
   250
 10
-91.1842
 20
-22.1712
 30
0.0
  0
VERTEX
  5
3A4
  8
LAYER_1
 62
   250
 10
-91.8169
 20
-22.5158
 30
0.0
  0
VERTEX
  5
3A5
  8
LAYER_1
 62
   250
 10
-92.3689
 20
-22.9717
 30
0.0
  0
VERTEX
  5
3A6
  8
LAYER_1
 62
   250
 10
-92.8248
 20
-23.5236
 30
0.0
  0
VERTEX
  5
3A7
  8
LAYER_1
 62
   250
 10
-93.1693
 20
-24.1563
 30
0.0
  0
VERTEX
  5
3A8
  8
LAYER_1
 62
   250
 10
-93.3873
 20
-24.8546
 30
0.0
  0
VERTEX
  5
3A9
  8
LAYER_1
 62
   250
 10
-93.4633
 20
-25.603
 30
0.0
  0
VERTEX
  5
3AA
  8
LAYER_1
 62
   250
 10
-93.4633
 20
-130.1514
 30
0.0
  0
VERTEX
  5
3AB
  8
LAYER_1
 62
   250
 10
-93.3873
 20
-130.8998
 30
0.0
  0
VERTEX
  5
3AC
  8
LAYER_1
 62
   250
 10
-93.1693
 20
-131.5981
 30
0.0
  0
VERTEX
  5
3AD
  8
LAYER_1
 62
   250
 10
-92.8248
 20
-132.2308
 30
0.0
  0
VERTEX
  5
3AE
  8
LAYER_1
 62
   250
 10
-92.3689
 20
-132.7828
 30
0.0
  0
VERTEX
  5
3AF
  8
LAYER_1
 62
   250
 10
-91.8169
 20
-133.2387
 30
0.0
  0
VERTEX
  5
3B0
  8
LAYER_1
 62
   250
 10
-91.1842
 20
-133.5832
 30
0.0
  0
VERTEX
  5
3B1
  8
LAYER_1
 62
   250
 10
-90.4859
 20
-133.8012
 30
0.0
  0
VERTEX
  5
3B2
  8
LAYER_1
 62
   250
 10
-89.7375
 20
-133.8772
 30
0.0
  0
VERTEX
  5
3B3
  8
LAYER_1
 62
   250
 10
-26.1892
 20
-133.8772
 30
0.0
  0
VERTEX
  5
3B4
  8
LAYER_1
 62
   250
 10
-25.4408
 20
-133.8012
 30
0.0
  0
VERTEX
  5
3B5
  8
LAYER_1
 62
   250
 10
-24.7425
 20
-133.5832
 30
0.0
  0
VERTEX
  5
3B6
  8
LAYER_1
 62
   250
 10
-24.1098
 20
-133.2387
 30
0.0
  0
VERTEX
  5
3B7
  8
LAYER_1
 62
   250
 10
-23.5578
 20
-132.7828
 30
0.0
  0
VERTEX
  5
3B8
  8
LAYER_1
 62
   250
 10
-23.1019
 20
-132.2308
 30
0.0
  0
VERTEX
  5
3B9
  8
LAYER_1
 62
   250
 10
-22.7573
 20
-131.5981
 30
0.0
  0
VERTEX
  5
3BA
  8
LAYER_1
 62
   250
 10
-22.5393
 20
-130.8998
 30
0.0
  0
VERTEX
  5
3BB
  8
LAYER_1
 62
   250
 10
-22.4633
 20
-130.1514
 30
0.0
  0
VERTEX
  5
3BC
  8
LAYER_1
 62
   250
 10
-22.4633
 20
-25.603
 30
0.0
  0
VERTEX
  5
3BD
  8
LAYER_1
 62
   250
 10
-22.5393
 20
-24.8546
 30
0.0
  0
VERTEX
  5
3BE
  8
LAYER_1
 62
   250
 10
-22.7573
 20
-24.1563
 30
0.0
  0
VERTEX
  5
3BF
  8
LAYER_1
 62
   250
 10
-23.1019
 20
-23.5236
 30
0.0
  0
VERTEX
  5
3C0
  8
LAYER_1
 62
   250
 10
-23.5578
 20
-22.9717
 30
0.0
  0
VERTEX
  5
3C1
  8
LAYER_1
 62
   250
 10
-24.1098
 20
-22.5158
 30
0.0
  0
VERTEX
  5
3C2
  8
LAYER_1
 62
   250
 10
-24.7425
 20
-22.1712
 30
0.0
  0
VERTEX
  5
3C3
  8
LAYER_1
 62
   250
 10
-25.4408
 20
-21.9532
 30
0.0
  0
VERTEX
  5
3C4
  8
LAYER_1
 62
   250
 10
-26.1892
 20
-21.8772
 30
0.0
  0
SEQEND
  5
3C5
  8
LAYER_1
 62
   250
  0
POLYLINE
  5
C0
  8
LAYER_1
 62
   250
 66
     1
 10
0.0
 20
0.0
 30
0.0
  0
VERTEX
  5
3C6
  8
LAYER_1
 62
   250
 10
-90.4631
 20
-100.5908
 30
0.0
  0
VERTEX
  5
3C7
  8
LAYER_1
 62
   250
 10
-90.4631
 20
-115.732
 30
0.0
  0
SEQEND
  5
3C8
  8
LAYER_1
 62
   250
  0
POLYLINE
  5
C1
  8
LAYER_1
 62
   250
 66
     1
 10
0.0
 20
0.0
 30
0.0
  0
VERTEX
  5
3C9
  8
LAYER_1
 62
   250
 10
-90.4631
 20
-85.446
 30
0.0
  0
VERTEX
  5
3CA
  8
LAYER_1
 62
   250
 10
-90.4631
 20
-70.3048
 30
0.0
  0
SEQEND
  5
3CB
  8
LAYER_1
 62
   250
  0
POLYLINE
  5
C2
  8
LAYER_1
 62
   250
 66
     1
 10
0.0
 20
0.0
 30
0.0
  0
VERTEX
  5
3CC
  8
LAYER_1
 62
   250
 10
-90.4631
 20
-55.1636
 30
0.0
  0
VERTEX
  5
3CD
  8
LAYER_1
 62
   250
 10
-90.4631
 20
-40.0188
 30
0.0
  0
SEQEND
  5
3CE
  8
LAYER_1
 62
   250
  0
POLYLINE
  5
C3
  8
LAYER_1
 62
   250
 66
     1
 10
0.0
 20
0.0
 30
0.0
  0
VERTEX
  5
3CF
  8
LAYER_1
 62
   250
 10
-68.7955
 20
-24.8776
 30
0.0
  0
VERTEX
  5
3D0
  8
LAYER_1
 62
   250
 10
-47.1279
 20
-24.8776
 30
0.0
  0
SEQEND
  5
3D1
  8
LAYER_1
 62
   250
  0
POLYLINE
  5
C4
  8
LAYER_1
 62
   250
 66
     1
 10
0.0
 20
0.0
 30
0.0
  0
VERTEX
  5
3D2
  8
LAYER_1
 62
   250
 10
-25.4638
 20
-55.1636
 30
0.0
  0
VERTEX
  5
3D3
  8
LAYER_1
 62
   250
 10
-25.4638
 20
-70.3048
 30
0.0
  0
SEQEND
  5
3D4
  8
LAYER_1
 62
   250
  0
POLYLINE
  5
C5
  8
LAYER_1
 62
   250
 66
     1
 10
0.0
 20
0.0
 30
0.0
  0
VERTEX
  5
3D5
  8
LAYER_1
 62
   250
 10
-25.4638
 20
-85.446
 30
0.0
  0
VERTEX
  5
3D6
  8
LAYER_1
 62
   250
 10
-25.4638
 20
-100.5908
 30
0.0
  0
SEQEND
  5
3D7
  8
LAYER_1
 62
   250
  0
POLYLINE
  5
C6
  8
LAYER_1
 62
   250
 66
     1
 10
0.0
 20
0.0
 30
0.0
  0
VERTEX
  5
3D8
  8
LAYER_1
 62
   250
 10
-47.1279
 20
-130.8768
 30
0.0
  0
VERTEX
  5
3D9
  8
LAYER_1
 62
   250
 10
-68.7955
 20
-130.8768
 30
0.0
  0
SEQEND
  5
3DA
  8
LAYER_1
 62
   250
  0
POLYLINE
  5
C7
  8
LAYER_1
 62
   250
 66
     1
 10
0.0
 20
0.0
 30
0.0
 70
     1
  0
VERTEX
  5
3DB
  8
LAYER_1
 62
   250
 10
-28.4624
 20
-40.0188
 30
0.0
  0
VERTEX
  5
3DC
  8
LAYER_1
 62
   250
 10
-25.4638
 20
-40.0188
 30
0.0
  0
VERTEX
  5
3DD
  8
LAYER_1
 62
   250
 10
-25.4638
 20
-24.8776
 30
0.0
  0
VERTEX
  5
3DE
  8
LAYER_1
 62
   250
 10
-28.4624
 20
-24.8776
 30
0.0
  0
VERTEX
  5
3DF
  8
LAYER_1
 62
   250
 10
-28.4624
 20
-40.0188
 30
0.0
  0
SEQEND
  5
3E0
  8
LAYER_1
 62
   250
  0
POLYLINE
  5
C8
  8
LAYER_1
 62
   250
 66
     1
 10
0.0
 20
0.0
 30
0.0
 70
     1
  0
VERTEX
  5
3E1
  8
LAYER_1
 62
   250
 10
-28.4624
 20
-130.8732
 30
0.0
  0
VERTEX
  5
3E2
  8
LAYER_1
 62
   250
 10
-25.4638
 20
-130.8732
 30
0.0
  0
VERTEX
  5
3E3
  8
LAYER_1
 62
   250
 10
-25.4638
 20
-115.732
 30
0.0
  0
VERTEX
  5
3E4
  8
LAYER_1
 62
   250
 10
-28.4624
 20
-115.732
 30
0.0
  0
VERTEX
  5
3E5
  8
LAYER_1
 62
   250
 10
-28.4624
 20
-130.8732
 30
0.0
  0
SEQEND
  5
3E6
  8
LAYER_1
 62
   250
  0
POLYLINE
  5
C9
  8
LAYER_1
 62
   250
 66
     1
 10
0.0
 20
0.0
 30
0.0
 70
     1
  0
VERTEX
  5
3E7
  8
LAYER_1
 62
   250
 10
-56.661
 20
-110.4456
 30
0.0
  0
VERTEX
  5
3E8
  8
LAYER_1
 62
   250
 10
-53.6624
 20
-110.4456
 30
0.0
  0
VERTEX
  5
3E9
  8
LAYER_1
 62
   250
 10
-53.6624
 20
-95.3044
 30
0.0
  0
VERTEX
  5
3EA
  8
LAYER_1
 62
   250
 10
-56.661
 20
-95.3044
 30
0.0
  0
VERTEX
  5
3EB
  8
LAYER_1
 62
   250
 10
-56.661
 20
-110.4456
 30
0.0
  0
SEQEND
  5
3EC
  8
LAYER_1
 62
   250
  0
POLYLINE
  5
CA
  8
LAYER_1
 62
   250
 66
     1
 10
0.0
 20
0.0
 30
0.0
 70
     1
  0
VERTEX
  5
3ED
  8
LAYER_1
 62
   250
 10
-26.9631
 20
-46.0912
 30
0.0
  0
VERTEX
  5
3EE
  8
LAYER_1
 62
   250
 10
-27.25573548302419
 20
-46.12002207939516
 30
0.0
  0
VERTEX
  5
3EF
  8
LAYER_1
 62
   250
 10
-27.53712514854763
 20
-46.20538070123307
 30
0.0
  0
VERTEX
  5
3F0
  8
LAYER_1
 62
   250
 10
-27.7964553495294
 20
-46.34399558154618
 30
0.0
  0
VERTEX
  5
3F1
  8
LAYER_1
 62
   250
 10
-28.02376017177982
 20
-46.53053982822018
 30
0.0
  0
VERTEX
  5
3F2
  8
LAYER_1
 62
   250
 10
-28.21030441845382
 20
-46.7578446504706
 30
0.0
  0
VERTEX
  5
3F3
  8
LAYER_1
 62
   250
 10
-28.34891929876693
 20
-47.01717485145237
 30
0.0
  0
VERTEX
  5
3F4
  8
LAYER_1
 62
   250
 10
-28.43427792060485
 20
-47.29856451697581
 30
0.0
  0
VERTEX
  5
3F5
  8
LAYER_1
 62
   250
 10
-28.4631
 20
-47.5912
 30
0.0
  0
VERTEX
  5
3F6
  8
LAYER_1
 62
   250
 10
-28.43427792060485
 20
-47.88383548302419
 30
0.0
  0
VERTEX
  5
3F7
  8
LAYER_1
 62
   250
 10
-28.34891929876693
 20
-48.16522514854763
 30
0.0
  0
VERTEX
  5
3F8
  8
LAYER_1
 62
   250
 10
-28.21030441845382
 20
-48.42455534952941
 30
0.0
  0
VERTEX
  5
3F9
  8
LAYER_1
 62
   250
 10
-28.02376017177982
 20
-48.65186017177982
 30
0.0
  0
VERTEX
  5
3FA
  8
LAYER_1
 62
   250
 10
-27.7964553495294
 20
-48.83840441845382
 30
0.0
  0
VERTEX
  5
3FB
  8
LAYER_1
 62
   250
 10
-27.53712514854763
 20
-48.97701929876693
 30
0.0
  0
VERTEX
  5
3FC
  8
LAYER_1
 62
   250
 10
-27.25573548302419
 20
-49.06237792060485
 30
0.0
  0
VERTEX
  5
3FD
  8
LAYER_1
 62
   250
 10
-26.9631
 20
-49.0912
 30
0.0
  0
VERTEX
  5
3FE
  8
LAYER_1
 62
   250
 10
-26.67046451697581
 20
-49.06237792060485
 30
0.0
  0
VERTEX
  5
3FF
  8
LAYER_1
 62
   250
 10
-26.38907485145236
 20
-48.97701929876693
 30
0.0
  0
VERTEX
  5
400
  8
LAYER_1
 62
   250
 10
-26.1297446504706
 20
-48.83840441845382
 30
0.0
  0
VERTEX
  5
401
  8
LAYER_1
 62
   250
 10
-25.90243982822018
 20
-48.65186017177982
 30
0.0
  0
VERTEX
  5
402
  8
LAYER_1
 62
   250
 10
-25.71589558154618
 20
-48.4245553495294
 30
0.0
  0
VERTEX
  5
403
  8
LAYER_1
 62
   250
 10
-25.57728070123307
 20
-48.16522514854763
 30
0.0
  0
VERTEX
  5
404
  8
LAYER_1
 62
   250
 10
-25.49192207939516
 20
-47.88383548302419
 30
0.0
  0
VERTEX
  5
405
  8
LAYER_1
 62
   250
 10
-25.4631
 20
-47.59119999999999
 30
0.0
  0
VERTEX
  5
406
  8
LAYER_1
 62
   250
 10
-25.49192207939516
 20
-47.2985645169758
 30
0.0
  0
VERTEX
  5
407
  8
LAYER_1
 62
   250
 10
-25.57728070123307
 20
-47.01717485145236
 30
0.0
  0
VERTEX
  5
408
  8
LAYER_1
 62
   250
 10
-25.71589558154619
 20
-46.7578446504706
 30
0.0
  0
VERTEX
  5
409
  8
LAYER_1
 62
   250
 10
-25.90243982822018
 20
-46.53053982822018
 30
0.0
  0
VERTEX
  5
40A
  8
LAYER_1
 62
   250
 10
-26.1297446504706
 20
-46.34399558154618
 30
0.0
  0
VERTEX
  5
40B
  8
LAYER_1
 62
   250
 10
-26.38907485145237
 20
-46.20538070123307
 30
0.0
  0
VERTEX
  5
40C
  8
LAYER_1
 62
   250
 10
-26.67046451697582
 20
-46.12002207939516
 30
0.0
  0
SEQEND
  5
40D
  8
LAYER_1
 62
   250
  0
POLYLINE
  5
CB
  8
LAYER_1
 66
     1
 10
0.0
 20
0.0
 30
0.0
  0
VERTEX
  5
40E
  8
LAYER_1
 10
-25.4638
 20
-115.7356
 30
0.0
  0
VERTEX
  5
40F
  8
LAYER_1
 10
-28.4624
 20
-115.7356
 30
0.0
  0
SEQEND
  5
410
  8
LAYER_1
  0
POLYLINE
  5
CC
  8
LAYER_1
 62
   250
 66
     1
 10
0.0
 20
0.0
 30
0.0
 70
     1
  0
VERTEX
  5
411
  8
LAYER_1
 62
   250
 10
-26.9631
 20
-106.6632
 30
0.0
  0
VERTEX
  5
412
  8
LAYER_1
 62
   250
 10
-27.25573548302419
 20
-106.6920220793952
 30
0.0
  0
VERTEX
  5
413
  8
LAYER_1
 62
   250
 10
-27.53712514854763
 20
-106.7773807012331
 30
0.0
  0
VERTEX
  5
414
  8
LAYER_1
 62
   250
 10
-27.7964553495294
 20
-106.9159955815462
 30
0.0
  0
VERTEX
  5
415
  8
LAYER_1
 62
   250
 10
-28.02376017177982
 20
-107.1025398282202
 30
0.0
  0
VERTEX
  5
416
  8
LAYER_1
 62
   250
 10
-28.21030441845382
 20
-107.3298446504706
 30
0.0
  0
VERTEX
  5
417
  8
LAYER_1
 62
   250
 10
-28.34891929876693
 20
-107.5891748514524
 30
0.0
  0
VERTEX
  5
418
  8
LAYER_1
 62
   250
 10
-28.43427792060485
 20
-107.8705645169758
 30
0.0
  0
VERTEX
  5
419
  8
LAYER_1
 62
   250
 10
-28.4631
 20
-108.1632
 30
0.0
  0
VERTEX
  5
41A
  8
LAYER_1
 62
   250
 10
-28.43427792060485
 20
-108.4558354830242
 30
0.0
  0
VERTEX
  5
41B
  8
LAYER_1
 62
   250
 10
-28.34891929876693
 20
-108.7372251485476
 30
0.0
  0
VERTEX
  5
41C
  8
LAYER_1
 62
   250
 10
-28.21030441845382
 20
-108.9965553495294
 30
0.0
  0
VERTEX
  5
41D
  8
LAYER_1
 62
   250
 10
-28.02376017177982
 20
-109.2238601717798
 30
0.0
  0
VERTEX
  5
41E
  8
LAYER_1
 62
   250
 10
-27.7964553495294
 20
-109.4104044184538
 30
0.0
  0
VERTEX
  5
41F
  8
LAYER_1
 62
   250
 10
-27.53712514854763
 20
-109.5490192987669
 30
0.0
  0
VERTEX
  5
420
  8
LAYER_1
 62
   250
 10
-27.25573548302419
 20
-109.6343779206048
 30
0.0
  0
VERTEX
  5
421
  8
LAYER_1
 62
   250
 10
-26.9631
 20
-109.6632
 30
0.0
  0
VERTEX
  5
422
  8
LAYER_1
 62
   250
 10
-26.67046451697581
 20
-109.6343779206048
 30
0.0
  0
VERTEX
  5
423
  8
LAYER_1
 62
   250
 10
-26.38907485145236
 20
-109.5490192987669
 30
0.0
  0
VERTEX
  5
424
  8
LAYER_1
 62
   250
 10
-26.1297446504706
 20
-109.4104044184538
 30
0.0
  0
VERTEX
  5
425
  8
LAYER_1
 62
   250
 10
-25.90243982822018
 20
-109.2238601717798
 30
0.0
  0
VERTEX
  5
426
  8
LAYER_1
 62
   250
 10
-25.71589558154618
 20
-108.9965553495294
 30
0.0
  0
VERTEX
  5
427
  8
LAYER_1
 62
   250
 10
-25.57728070123307
 20
-108.7372251485476
 30
0.0
  0
VERTEX
  5
428
  8
LAYER_1
 62
   250
 10
-25.49192207939516
 20
-108.4558354830242
 30
0.0
  0
VERTEX
  5
429
  8
LAYER_1
 62
   250
 10
-25.4631
 20
-108.1632
 30
0.0
  0
VERTEX
  5
42A
  8
LAYER_1
 62
   250
 10
-25.49192207939516
 20
-107.8705645169758
 30
0.0
  0
VERTEX
  5
42B
  8
LAYER_1
 62
   250
 10
-25.57728070123307
 20
-107.5891748514524
 30
0.0
  0
VERTEX
  5
42C
  8
LAYER_1
 62
   250
 10
-25.71589558154619
 20
-107.3298446504706
 30
0.0
  0
VERTEX
  5
42D
  8
LAYER_1
 62
   250
 10
-25.90243982822018
 20
-107.1025398282202
 30
0.0
  0
VERTEX
  5
42E
  8
LAYER_1
 62
   250
 10
-26.1297446504706
 20
-106.9159955815462
 30
0.0
  0
VERTEX
  5
42F
  8
LAYER_1
 62
   250
 10
-26.38907485145237
 20
-106.7773807012331
 30
0.0
  0
VERTEX
  5
430
  8
LAYER_1
 62
   250
 10
-26.67046451697582
 20
-106.6920220793952
 30
0.0
  0
SEQEND
  5
431
  8
LAYER_1
 62
   250
  0
POLYLINE
  5
CD
  8
LAYER_1
 62
   250
 66
     1
 10
0.0
 20
0.0
 30
0.0
 70
     1
  0
VERTEX
  5
432
  8
LAYER_1
 62
   250
 10
-88.9638
 20
-121.8044
 30
0.0
  0
VERTEX
  5
433
  8
LAYER_1
 62
   250
 10
-89.2564354830242
 20
-121.8332220793952
 30
0.0
  0
VERTEX
  5
434
  8
LAYER_1
 62
   250
 10
-89.53782514854764
 20
-121.9185807012331
 30
0.0
  0
VERTEX
  5
435
  8
LAYER_1
 62
   250
 10
-89.7971553495294
 20
-122.0571955815462
 30
0.0
  0
VERTEX
  5
436
  8
LAYER_1
 62
   250
 10
-90.02446017177982
 20
-122.2437398282202
 30
0.0
  0
VERTEX
  5
437
  8
LAYER_1
 62
   250
 10
-90.21100441845383
 20
-122.4710446504706
 30
0.0
  0
VERTEX
  5
438
  8
LAYER_1
 62
   250
 10
-90.34961929876694
 20
-122.7303748514524
 30
0.0
  0
VERTEX
  5
439
  8
LAYER_1
 62
   250
 10
-90.43497792060485
 20
-123.0117645169758
 30
0.0
  0
VERTEX
  5
43A
  8
LAYER_1
 62
   250
 10
-90.4638
 20
-123.3044
 30
0.0
  0
VERTEX
  5
43B
  8
LAYER_1
 62
   250
 10
-90.43497792060485
 20
-123.5970354830242
 30
0.0
  0
VERTEX
  5
43C
  8
LAYER_1
 62
   250
 10
-90.34961929876694
 20
-123.8784251485476
 30
0.0
  0
VERTEX
  5
43D
  8
LAYER_1
 62
   250
 10
-90.21100441845383
 20
-124.1377553495294
 30
0.0
  0
VERTEX
  5
43E
  8
LAYER_1
 62
   250
 10
-90.02446017177982
 20
-124.3650601717798
 30
0.0
  0
VERTEX
  5
43F
  8
LAYER_1
 62
   250
 10
-89.7971553495294
 20
-124.5516044184538
 30
0.0
  0
VERTEX
  5
440
  8
LAYER_1
 62
   250
 10
-89.53782514854764
 20
-124.6902192987669
 30
0.0
  0
VERTEX
  5
441
  8
LAYER_1
 62
   250
 10
-89.25643548302419
 20
-124.7755779206048
 30
0.0
  0
VERTEX
  5
442
  8
LAYER_1
 62
   250
 10
-88.9638
 20
-124.8044
 30
0.0
  0
VERTEX
  5
443
  8
LAYER_1
 62
   250
 10
-88.67116451697581
 20
-124.7755779206048
 30
0.0
  0
VERTEX
  5
444
  8
LAYER_1
 62
   250
 10
-88.38977485145237
 20
-124.6902192987669
 30
0.0
  0
VERTEX
  5
445
  8
LAYER_1
 62
   250
 10
-88.13044465047061
 20
-124.5516044184538
 30
0.0
  0
VERTEX
  5
446
  8
LAYER_1
 62
   250
 10
-87.90313982822018
 20
-124.3650601717798
 30
0.0
  0
VERTEX
  5
447
  8
LAYER_1
 62
   250
 10
-87.71659558154619
 20
-124.1377553495294
 30
0.0
  0
VERTEX
  5
448
  8
LAYER_1
 62
   250
 10
-87.57798070123307
 20
-123.8784251485476
 30
0.0
  0
VERTEX
  5
449
  8
LAYER_1
 62
   250
 10
-87.49262207939516
 20
-123.5970354830242
 30
0.0
  0
VERTEX
  5
44A
  8
LAYER_1
 62
   250
 10
-87.4638
 20
-123.3044
 30
0.0
  0
VERTEX
  5
44B
  8
LAYER_1
 62
   250
 10
-87.49262207939516
 20
-123.0117645169758
 30
0.0
  0
VERTEX
  5
44C
  8
LAYER_1
 62
   250
 10
-87.57798070123307
 20
-122.7303748514524
 30
0.0
  0
VERTEX
  5
44D
  8
LAYER_1
 62
   250
 10
-87.71659558154619
 20
-122.4710446504706
 30
0.0
  0
VERTEX
  5
44E
  8
LAYER_1
 62
   250
 10
-87.90313982822019
 20
-122.2437398282202
 30
0.0
  0
VERTEX
  5
44F
  8
LAYER_1
 62
   250
 10
-88.13044465047061
 20
-122.0571955815462
 30
0.0
  0
VERTEX
  5
450
  8
LAYER_1
 62
   250
 10
-88.38977485145237
 20
-121.9185807012331
 30
0.0
  0
VERTEX
  5
451
  8
LAYER_1
 62
   250
 10
-88.67116451697582
 20
-121.8332220793952
 30
0.0
  0
SEQEND
  5
452
  8
LAYER_1
 62
   250
  0
POLYLINE
  5
CE
  8
LAYER_1
 66
     1
 10
0.0
 20
0.0
 30
0.0
  0
VERTEX
  5
453
  8
LAYER_1
 10
-87.4645
 20
-40.0224
 30
0.0
  0
VERTEX
  5
454
  8
LAYER_1
 10
-90.4631
 20
-40.0224
 30
0.0
  0
SEQEND
  5
455
  8
LAYER_1
  0
POLYLINE
  5
CF
  8
LAYER_1
 62
   250
 66
     1
 10
0.0
 20
0.0
 30
0.0
 70
     1
  0
VERTEX
  5
456
  8
LAYER_1
 62
   250
 10
-88.9638
 20
-30.95
 30
0.0
  0
VERTEX
  5
457
  8
LAYER_1
 62
   250
 10
-89.2564354830242
 20
-30.97882207939516
 30
0.0
  0
VERTEX
  5
458
  8
LAYER_1
 62
   250
 10
-89.53782514854764
 20
-31.06418070123307
 30
0.0
  0
VERTEX
  5
459
  8
LAYER_1
 62
   250
 10
-89.7971553495294
 20
-31.20279558154618
 30
0.0
  0
VERTEX
  5
45A
  8
LAYER_1
 62
   250
 10
-90.02446017177982
 20
-31.38933982822018
 30
0.0
  0
VERTEX
  5
45B
  8
LAYER_1
 62
   250
 10
-90.21100441845383
 20
-31.6166446504706
 30
0.0
  0
VERTEX
  5
45C
  8
LAYER_1
 62
   250
 10
-90.34961929876694
 20
-31.87597485145237
 30
0.0
  0
VERTEX
  5
45D
  8
LAYER_1
 62
   250
 10
-90.43497792060485
 20
-32.15736451697581
 30
0.0
  0
VERTEX
  5
45E
  8
LAYER_1
 62
   250
 10
-90.4638
 20
-32.45
 30
0.0
  0
VERTEX
  5
45F
  8
LAYER_1
 62
   250
 10
-90.43497792060485
 20
-32.74263548302419
 30
0.0
  0
VERTEX
  5
460
  8
LAYER_1
 62
   250
 10
-90.34961929876694
 20
-33.02402514854764
 30
0.0
  0
VERTEX
  5
461
  8
LAYER_1
 62
   250
 10
-90.21100441845383
 20
-33.28335534952941
 30
0.0
  0
VERTEX
  5
462
  8
LAYER_1
 62
   250
 10
-90.02446017177982
 20
-33.51066017177983
 30
0.0
  0
VERTEX
  5
463
  8
LAYER_1
 62
   250
 10
-89.7971553495294
 20
-33.69720441845382
 30
0.0
  0
VERTEX
  5
464
  8
LAYER_1
 62
   250
 10
-89.53782514854764
 20
-33.83581929876694
 30
0.0
  0
VERTEX
  5
465
  8
LAYER_1
 62
   250
 10
-89.25643548302419
 20
-33.92117792060485
 30
0.0
  0
VERTEX
  5
466
  8
LAYER_1
 62
   250
 10
-88.9638
 20
-33.95
 30
0.0
  0
VERTEX
  5
467
  8
LAYER_1
 62
   250
 10
-88.67116451697581
 20
-33.92117792060485
 30
0.0
  0
VERTEX
  5
468
  8
LAYER_1
 62
   250
 10
-88.38977485145237
 20
-33.83581929876694
 30
0.0
  0
VERTEX
  5
469
  8
LAYER_1
 62
   250
 10
-88.13044465047061
 20
-33.69720441845382
 30
0.0
  0
VERTEX
  5
46A
  8
LAYER_1
 62
   250
 10
-87.90313982822018
 20
-33.51066017177983
 30
0.0
  0
VERTEX
  5
46B
  8
LAYER_1
 62
   250
 10
-87.71659558154619
 20
-33.2833553495294
 30
0.0
  0
VERTEX
  5
46C
  8
LAYER_1
 62
   250
 10
-87.57798070123307
 20
-33.02402514854764
 30
0.0
  0
VERTEX
  5
46D
  8
LAYER_1
 62
   250
 10
-87.49262207939516
 20
-32.74263548302419
 30
0.0
  0
VERTEX
  5
46E
  8
LAYER_1
 62
   250
 10
-87.4638
 20
-32.45
 30
0.0
  0
VERTEX
  5
46F
  8
LAYER_1
 62
   250
 10
-87.49262207939516
 20
-32.1573645169758
 30
0.0
  0
VERTEX
  5
470
  8
LAYER_1
 62
   250
 10
-87.57798070123307
 20
-31.87597485145237
 30
0.0
  0
VERTEX
  5
471
  8
LAYER_1
 62
   250
 10
-87.71659558154619
 20
-31.6166446504706
 30
0.0
  0
VERTEX
  5
472
  8
LAYER_1
 62
   250
 10
-87.90313982822019
 20
-31.38933982822018
 30
0.0
  0
VERTEX
  5
473
  8
LAYER_1
 62
   250
 10
-88.13044465047061
 20
-31.20279558154618
 30
0.0
  0
VERTEX
  5
474
  8
LAYER_1
 62
   250
 10
-88.38977485145237
 20
-31.06418070123307
 30
0.0
  0
VERTEX
  5
475
  8
LAYER_1
 62
   250
 10
-88.67116451697582
 20
-30.97882207939515
 30
0.0
  0
SEQEND
  5
476
  8
LAYER_1
 62
   250
  0
POLYLINE
  5
D0
  8
LAYER_1
 62
   250
 66
     1
 10
0.0
 20
0.0
 30
0.0
 70
     1
  0
VERTEX
  5
477
  8
LAYER_1
 62
   250
 10
-48.2121
 20
-66.5123
 30
0.0
  0
VERTEX
  5
478
  8
LAYER_1
 62
   250
 10
-38.2121
 20
-66.5123
 30
0.0
  0
VERTEX
  5
479
  8
LAYER_1
 62
   250
 10
-38.2121
 20
-63.5137
 30
0.0
  0
VERTEX
  5
47A
  8
LAYER_1
 62
   250
 10
-48.2121
 20
-63.5137
 30
0.0
  0
VERTEX
  5
47B
  8
LAYER_1
 62
   250
 10
-48.2121
 20
-66.5123
 30
0.0
  0
SEQEND
  5
47C
  8
LAYER_1
 62
   250
  0
POLYLINE
  5
D1
  8
LAYER_1
 62
   250
 66
     1
 10
0.0
 20
0.0
 30
0.0
 70
     1
  0
VERTEX
  5
47D
  8
LAYER_1
 62
   250
 10
-69.7678
 20
-39.1273
 30
0.0
  0
VERTEX
  5
47E
  8
LAYER_1
 62
   250
 10
-70.0604354830242
 20
-39.15612207939515
 30
0.0
  0
VERTEX
  5
47F
  8
LAYER_1
 62
   250
 10
-70.34182514854763
 20
-39.24148070123307
 30
0.0
  0
VERTEX
  5
480
  8
LAYER_1
 62
   250
 10
-70.60115534952939
 20
-39.38009558154618
 30
0.0
  0
VERTEX
  5
481
  8
LAYER_1
 62
   250
 10
-70.82846017177981
 20
-39.56663982822018
 30
0.0
  0
VERTEX
  5
482
  8
LAYER_1
 62
   250
 10
-71.01500441845381
 20
-39.79394465047059
 30
0.0
  0
VERTEX
  5
483
  8
LAYER_1
 62
   250
 10
-71.15361929876693
 20
-40.05327485145236
 30
0.0
  0
VERTEX
  5
484
  8
LAYER_1
 62
   250
 10
-71.23897792060484
 20
-40.33466451697581
 30
0.0
  0
VERTEX
  5
485
  8
LAYER_1
 62
   250
 10
-71.2678
 20
-40.6273
 30
0.0
  0
VERTEX
  5
486
  8
LAYER_1
 62
   250
 10
-71.23897792060484
 20
-40.91993548302419
 30
0.0
  0
VERTEX
  5
487
  8
LAYER_1
 62
   250
 10
-71.15361929876693
 20
-41.20132514854763
 30
0.0
  0
VERTEX
  5
488
  8
LAYER_1
 62
   250
 10
-71.01500441845381
 20
-41.4606553495294
 30
0.0
  0
VERTEX
  5
489
  8
LAYER_1
 62
   250
 10
-70.82846017177981
 20
-41.68796017177982
 30
0.0
  0
VERTEX
  5
48A
  8
LAYER_1
 62
   250
 10
-70.60115534952939
 20
-41.87450441845382
 30
0.0
  0
VERTEX
  5
48B
  8
LAYER_1
 62
   250
 10
-70.34182514854763
 20
-42.01311929876693
 30
0.0
  0
VERTEX
  5
48C
  8
LAYER_1
 62
   250
 10
-70.06043548302418
 20
-42.09847792060484
 30
0.0
  0
VERTEX
  5
48D
  8
LAYER_1
 62
   250
 10
-69.7678
 20
-42.1273
 30
0.0
  0
VERTEX
  5
48E
  8
LAYER_1
 62
   250
 10
-69.4751645169758
 20
-42.09847792060484
 30
0.0
  0
VERTEX
  5
48F
  8
LAYER_1
 62
   250
 10
-69.19377485145236
 20
-42.01311929876693
 30
0.0
  0
VERTEX
  5
490
  8
LAYER_1
 62
   250
 10
-68.9344446504706
 20
-41.87450441845382
 30
0.0
  0
VERTEX
  5
491
  8
LAYER_1
 62
   250
 10
-68.70713982822016
 20
-41.68796017177982
 30
0.0
  0
VERTEX
  5
492
  8
LAYER_1
 62
   250
 10
-68.52059558154617
 20
-41.4606553495294
 30
0.0
  0
VERTEX
  5
493
  8
LAYER_1
 62
   250
 10
-68.38198070123306
 20
-41.20132514854763
 30
0.0
  0
VERTEX
  5
494
  8
LAYER_1
 62
   250
 10
-68.29662207939515
 20
-40.91993548302419
 30
0.0
  0
VERTEX
  5
495
  8
LAYER_1
 62
   250
 10
-68.2678
 20
-40.62729999999999
 30
0.0
  0
VERTEX
  5
496
  8
LAYER_1
 62
   250
 10
-68.29662207939515
 20
-40.3346645169758
 30
0.0
  0
VERTEX
  5
497
  8
LAYER_1
 62
   250
 10
-68.38198070123306
 20
-40.05327485145236
 30
0.0
  0
VERTEX
  5
498
  8
LAYER_1
 62
   250
 10
-68.52059558154617
 20
-39.79394465047059
 30
0.0
  0
VERTEX
  5
499
  8
LAYER_1
 62
   250
 10
-68.70713982822018
 20
-39.56663982822018
 30
0.0
  0
VERTEX
  5
49A
  8
LAYER_1
 62
   250
 10
-68.9344446504706
 20
-39.38009558154618
 30
0.0
  0
VERTEX
  5
49B
  8
LAYER_1
 62
   250
 10
-69.19377485145236
 20
-39.24148070123307
 30
0.0
  0
VERTEX
  5
49C
  8
LAYER_1
 62
   250
 10
-69.47516451697581
 20
-39.15612207939515
 30
0.0
  0
SEQEND
  5
49D
  8
LAYER_1
 62
   250
  0
POLYLINE
  5
D2
  8
LAYER_1
 62
   250
 66
     1
 10
0.0
 20
0.0
 30
0.0
 70
     1
  0
VERTEX
  5
49E
  8
LAYER_1
 62
   250
 10
-73.7678
 20
-43.1273
 30
0.0
  0
VERTEX
  5
49F
  8
LAYER_1
 62
   250
 10
-74.0604354830242
 20
-43.15612207939515
 30
0.0
  0
VERTEX
  5
4A0
  8
LAYER_1
 62
   250
 10
-74.34182514854763
 20
-43.24148070123307
 30
0.0
  0
VERTEX
  5
4A1
  8
LAYER_1
 62
   250
 10
-74.60115534952939
 20
-43.38009558154618
 30
0.0
  0
VERTEX
  5
4A2
  8
LAYER_1
 62
   250
 10
-74.82846017177981
 20
-43.56663982822018
 30
0.0
  0
VERTEX
  5
4A3
  8
LAYER_1
 62
   250
 10
-75.01500441845381
 20
-43.79394465047059
 30
0.0
  0
VERTEX
  5
4A4
  8
LAYER_1
 62
   250
 10
-75.15361929876693
 20
-44.05327485145236
 30
0.0
  0
VERTEX
  5
4A5
  8
LAYER_1
 62
   250
 10
-75.23897792060484
 20
-44.33466451697581
 30
0.0
  0
VERTEX
  5
4A6
  8
LAYER_1
 62
   250
 10
-75.2678
 20
-44.6273
 30
0.0
  0
VERTEX
  5
4A7
  8
LAYER_1
 62
   250
 10
-75.23897792060484
 20
-44.91993548302419
 30
0.0
  0
VERTEX
  5
4A8
  8
LAYER_1
 62
   250
 10
-75.15361929876693
 20
-45.20132514854763
 30
0.0
  0
VERTEX
  5
4A9
  8
LAYER_1
 62
   250
 10
-75.01500441845381
 20
-45.4606553495294
 30
0.0
  0
VERTEX
  5
4AA
  8
LAYER_1
 62
   250
 10
-74.82846017177981
 20
-45.68796017177982
 30
0.0
  0
VERTEX
  5
4AB
  8
LAYER_1
 62
   250
 10
-74.60115534952939
 20
-45.87450441845382
 30
0.0
  0
VERTEX
  5
4AC
  8
LAYER_1
 62
   250
 10
-74.34182514854763
 20
-46.01311929876693
 30
0.0
  0
VERTEX
  5
4AD
  8
LAYER_1
 62
   250
 10
-74.06043548302418
 20
-46.09847792060484
 30
0.0
  0
VERTEX
  5
4AE
  8
LAYER_1
 62
   250
 10
-73.7678
 20
-46.1273
 30
0.0
  0
VERTEX
  5
4AF
  8
LAYER_1
 62
   250
 10
-73.4751645169758
 20
-46.09847792060484
 30
0.0
  0
VERTEX
  5
4B0
  8
LAYER_1
 62
   250
 10
-73.19377485145236
 20
-46.01311929876693
 30
0.0
  0
VERTEX
  5
4B1
  8
LAYER_1
 62
   250
 10
-72.9344446504706
 20
-45.87450441845382
 30
0.0
  0
VERTEX
  5
4B2
  8
LAYER_1
 62
   250
 10
-72.70713982822016
 20
-45.68796017177982
 30
0.0
  0
VERTEX
  5
4B3
  8
LAYER_1
 62
   250
 10
-72.52059558154617
 20
-45.4606553495294
 30
0.0
  0
VERTEX
  5
4B4
  8
LAYER_1
 62
   250
 10
-72.38198070123306
 20
-45.20132514854763
 30
0.0
  0
VERTEX
  5
4B5
  8
LAYER_1
 62
   250
 10
-72.29662207939515
 20
-44.91993548302419
 30
0.0
  0
VERTEX
  5
4B6
  8
LAYER_1
 62
   250
 10
-72.2678
 20
-44.62729999999999
 30
0.0
  0
VERTEX
  5
4B7
  8
LAYER_1
 62
   250
 10
-72.29662207939515
 20
-44.3346645169758
 30
0.0
  0
VERTEX
  5
4B8
  8
LAYER_1
 62
   250
 10
-72.38198070123306
 20
-44.05327485145236
 30
0.0
  0
VERTEX
  5
4B9
  8
LAYER_1
 62
   250
 10
-72.52059558154617
 20
-43.79394465047059
 30
0.0
  0
VERTEX
  5
4BA
  8
LAYER_1
 62
   250
 10
-72.70713982822018
 20
-43.56663982822018
 30
0.0
  0
VERTEX
  5
4BB
  8
LAYER_1
 62
   250
 10
-72.9344446504706
 20
-43.38009558154618
 30
0.0
  0
VERTEX
  5
4BC
  8
LAYER_1
 62
   250
 10
-73.19377485145236
 20
-43.24148070123307
 30
0.0
  0
VERTEX
  5
4BD
  8
LAYER_1
 62
   250
 10
-73.47516451697581
 20
-43.15612207939515
 30
0.0
  0
SEQEND
  5
4BE
  8
LAYER_1
 62
   250
  0
POLYLINE
  5
D3
  8
LAYER_1
 62
   250
 66
     1
 10
0.0
 20
0.0
 30
0.0
 70
     1
  0
VERTEX
  5
4BF
  8
LAYER_1
 62
   250
 10
-69.7678
 20
-47.1273
 30
0.0
  0
VERTEX
  5
4C0
  8
LAYER_1
 62
   250
 10
-70.0604354830242
 20
-47.15612207939515
 30
0.0
  0
VERTEX
  5
4C1
  8
LAYER_1
 62
   250
 10
-70.34182514854763
 20
-47.24148070123307
 30
0.0
  0
VERTEX
  5
4C2
  8
LAYER_1
 62
   250
 10
-70.60115534952939
 20
-47.38009558154618
 30
0.0
  0
VERTEX
  5
4C3
  8
LAYER_1
 62
   250
 10
-70.82846017177981
 20
-47.56663982822018
 30
0.0
  0
VERTEX
  5
4C4
  8
LAYER_1
 62
   250
 10
-71.01500441845381
 20
-47.79394465047059
 30
0.0
  0
VERTEX
  5
4C5
  8
LAYER_1
 62
   250
 10
-71.15361929876693
 20
-48.05327485145236
 30
0.0
  0
VERTEX
  5
4C6
  8
LAYER_1
 62
   250
 10
-71.23897792060484
 20
-48.33466451697581
 30
0.0
  0
VERTEX
  5
4C7
  8
LAYER_1
 62
   250
 10
-71.2678
 20
-48.6273
 30
0.0
  0
VERTEX
  5
4C8
  8
LAYER_1
 62
   250
 10
-71.23897792060484
 20
-48.91993548302419
 30
0.0
  0
VERTEX
  5
4C9
  8
LAYER_1
 62
   250
 10
-71.15361929876693
 20
-49.20132514854763
 30
0.0
  0
VERTEX
  5
4CA
  8
LAYER_1
 62
   250
 10
-71.01500441845381
 20
-49.4606553495294
 30
0.0
  0
VERTEX
  5
4CB
  8
LAYER_1
 62
   250
 10
-70.82846017177981
 20
-49.68796017177982
 30
0.0
  0
VERTEX
  5
4CC
  8
LAYER_1
 62
   250
 10
-70.60115534952939
 20
-49.87450441845382
 30
0.0
  0
VERTEX
  5
4CD
  8
LAYER_1
 62
   250
 10
-70.34182514854763
 20
-50.01311929876693
 30
0.0
  0
VERTEX
  5
4CE
  8
LAYER_1
 62
   250
 10
-70.06043548302418
 20
-50.09847792060484
 30
0.0
  0
VERTEX
  5
4CF
  8
LAYER_1
 62
   250
 10
-69.7678
 20
-50.1273
 30
0.0
  0
VERTEX
  5
4D0
  8
LAYER_1
 62
   250
 10
-69.4751645169758
 20
-50.09847792060484
 30
0.0
  0
VERTEX
  5
4D1
  8
LAYER_1
 62
   250
 10
-69.19377485145236
 20
-50.01311929876693
 30
0.0
  0
VERTEX
  5
4D2
  8
LAYER_1
 62
   250
 10
-68.9344446504706
 20
-49.87450441845382
 30
0.0
  0
VERTEX
  5
4D3
  8
LAYER_1
 62
   250
 10
-68.70713982822016
 20
-49.68796017177982
 30
0.0
  0
VERTEX
  5
4D4
  8
LAYER_1
 62
   250
 10
-68.52059558154617
 20
-49.4606553495294
 30
0.0
  0
VERTEX
  5
4D5
  8
LAYER_1
 62
   250
 10
-68.38198070123306
 20
-49.20132514854763
 30
0.0
  0
VERTEX
  5
4D6
  8
LAYER_1
 62
   250
 10
-68.29662207939515
 20
-48.91993548302419
 30
0.0
  0
VERTEX
  5
4D7
  8
LAYER_1
 62
   250
 10
-68.2678
 20
-48.62729999999999
 30
0.0
  0
VERTEX
  5
4D8
  8
LAYER_1
 62
   250
 10
-68.29662207939515
 20
-48.3346645169758
 30
0.0
  0
VERTEX
  5
4D9
  8
LAYER_1
 62
   250
 10
-68.38198070123306
 20
-48.05327485145236
 30
0.0
  0
VERTEX
  5
4DA
  8
LAYER_1
 62
   250
 10
-68.52059558154617
 20
-47.79394465047059
 30
0.0
  0
VERTEX
  5
4DB
  8
LAYER_1
 62
   250
 10
-68.70713982822018
 20
-47.56663982822018
 30
0.0
  0
VERTEX
  5
4DC
  8
LAYER_1
 62
   250
 10
-68.9344446504706
 20
-47.38009558154618
 30
0.0
  0
VERTEX
  5
4DD
  8
LAYER_1
 62
   250
 10
-69.19377485145236
 20
-47.24148070123307
 30
0.0
  0
VERTEX
  5
4DE
  8
LAYER_1
 62
   250
 10
-69.47516451697581
 20
-47.15612207939515
 30
0.0
  0
SEQEND
  5
4DF
  8
LAYER_1
 62
   250
  0
POLYLINE
  5
D4
  8
LAYER_1
 62
   250
 66
     1
 10
0.0
 20
0.0
 30
0.0
 70
     1
  0
VERTEX
  5
4E0
  8
LAYER_1
 62
   250
 10
-77.7678
 20
-39.1273
 30
0.0
  0
VERTEX
  5
4E1
  8
LAYER_1
 62
   250
 10
-78.0604354830242
 20
-39.15612207939515
 30
0.0
  0
VERTEX
  5
4E2
  8
LAYER_1
 62
   250
 10
-78.34182514854763
 20
-39.24148070123307
 30
0.0
  0
VERTEX
  5
4E3
  8
LAYER_1
 62
   250
 10
-78.60115534952939
 20
-39.38009558154618
 30
0.0
  0
VERTEX
  5
4E4
  8
LAYER_1
 62
   250
 10
-78.82846017177981
 20
-39.56663982822018
 30
0.0
  0
VERTEX
  5
4E5
  8
LAYER_1
 62
   250
 10
-79.01500441845381
 20
-39.79394465047059
 30
0.0
  0
VERTEX
  5
4E6
  8
LAYER_1
 62
   250
 10
-79.15361929876693
 20
-40.05327485145236
 30
0.0
  0
VERTEX
  5
4E7
  8
LAYER_1
 62
   250
 10
-79.23897792060484
 20
-40.33466451697581
 30
0.0
  0
VERTEX
  5
4E8
  8
LAYER_1
 62
   250
 10
-79.2678
 20
-40.6273
 30
0.0
  0
VERTEX
  5
4E9
  8
LAYER_1
 62
   250
 10
-79.23897792060484
 20
-40.91993548302419
 30
0.0
  0
VERTEX
  5
4EA
  8
LAYER_1
 62
   250
 10
-79.15361929876693
 20
-41.20132514854763
 30
0.0
  0
VERTEX
  5
4EB
  8
LAYER_1
 62
   250
 10
-79.01500441845381
 20
-41.4606553495294
 30
0.0
  0
VERTEX
  5
4EC
  8
LAYER_1
 62
   250
 10
-78.82846017177981
 20
-41.68796017177982
 30
0.0
  0
VERTEX
  5
4ED
  8
LAYER_1
 62
   250
 10
-78.60115534952939
 20
-41.87450441845382
 30
0.0
  0
VERTEX
  5
4EE
  8
LAYER_1
 62
   250
 10
-78.34182514854763
 20
-42.01311929876693
 30
0.0
  0
VERTEX
  5
4EF
  8
LAYER_1
 62
   250
 10
-78.06043548302418
 20
-42.09847792060484
 30
0.0
  0
VERTEX
  5
4F0
  8
LAYER_1
 62
   250
 10
-77.7678
 20
-42.1273
 30
0.0
  0
VERTEX
  5
4F1
  8
LAYER_1
 62
   250
 10
-77.4751645169758
 20
-42.09847792060484
 30
0.0
  0
VERTEX
  5
4F2
  8
LAYER_1
 62
   250
 10
-77.19377485145236
 20
-42.01311929876693
 30
0.0
  0
VERTEX
  5
4F3
  8
LAYER_1
 62
   250
 10
-76.9344446504706
 20
-41.87450441845382
 30
0.0
  0
VERTEX
  5
4F4
  8
LAYER_1
 62
   250
 10
-76.70713982822016
 20
-41.68796017177982
 30
0.0
  0
VERTEX
  5
4F5
  8
LAYER_1
 62
   250
 10
-76.52059558154617
 20
-41.4606553495294
 30
0.0
  0
VERTEX
  5
4F6
  8
LAYER_1
 62
   250
 10
-76.38198070123306
 20
-41.20132514854763
 30
0.0
  0
VERTEX
  5
4F7
  8
LAYER_1
 62
   250
 10
-76.29662207939515
 20
-40.91993548302419
 30
0.0
  0
VERTEX
  5
4F8
  8
LAYER_1
 62
   250
 10
-76.2678
 20
-40.62729999999999
 30
0.0
  0
VERTEX
  5
4F9
  8
LAYER_1
 62
   250
 10
-76.29662207939515
 20
-40.3346645169758
 30
0.0
  0
VERTEX
  5
4FA
  8
LAYER_1
 62
   250
 10
-76.38198070123306
 20
-40.05327485145236
 30
0.0
  0
VERTEX
  5
4FB
  8
LAYER_1
 62
   250
 10
-76.52059558154617
 20
-39.79394465047059
 30
0.0
  0
VERTEX
  5
4FC
  8
LAYER_1
 62
   250
 10
-76.70713982822018
 20
-39.56663982822018
 30
0.0
  0
VERTEX
  5
4FD
  8
LAYER_1
 62
   250
 10
-76.9344446504706
 20
-39.38009558154618
 30
0.0
  0
VERTEX
  5
4FE
  8
LAYER_1
 62
   250
 10
-77.19377485145236
 20
-39.24148070123307
 30
0.0
  0
VERTEX
  5
4FF
  8
LAYER_1
 62
   250
 10
-77.47516451697581
 20
-39.15612207939515
 30
0.0
  0
SEQEND
  5
500
  8
LAYER_1
 62
   250
  0
POLYLINE
  5
D5
  8
LAYER_1
 62
   250
 66
     1
 10
0.0
 20
0.0
 30
0.0
 70
     1
  0
VERTEX
  5
501
  8
LAYER_1
 62
   250
 10
-77.7678
 20
-47.1273
 30
0.0
  0
VERTEX
  5
502
  8
LAYER_1
 62
   250
 10
-78.0604354830242
 20
-47.15612207939515
 30
0.0
  0
VERTEX
  5
503
  8
LAYER_1
 62
   250
 10
-78.34182514854763
 20
-47.24148070123307
 30
0.0
  0
VERTEX
  5
504
  8
LAYER_1
 62
   250
 10
-78.60115534952939
 20
-47.38009558154618
 30
0.0
  0
VERTEX
  5
505
  8
LAYER_1
 62
   250
 10
-78.82846017177981
 20
-47.56663982822018
 30
0.0
  0
VERTEX
  5
506
  8
LAYER_1
 62
   250
 10
-79.01500441845381
 20
-47.79394465047059
 30
0.0
  0
VERTEX
  5
507
  8
LAYER_1
 62
   250
 10
-79.15361929876693
 20
-48.05327485145236
 30
0.0
  0
VERTEX
  5
508
  8
LAYER_1
 62
   250
 10
-79.23897792060484
 20
-48.33466451697581
 30
0.0
  0
VERTEX
  5
509
  8
LAYER_1
 62
   250
 10
-79.2678
 20
-48.6273
 30
0.0
  0
VERTEX
  5
50A
  8
LAYER_1
 62
   250
 10
-79.23897792060484
 20
-48.91993548302419
 30
0.0
  0
VERTEX
  5
50B
  8
LAYER_1
 62
   250
 10
-79.15361929876693
 20
-49.20132514854763
 30
0.0
  0
VERTEX
  5
50C
  8
LAYER_1
 62
   250
 10
-79.01500441845381
 20
-49.4606553495294
 30
0.0
  0
VERTEX
  5
50D
  8
LAYER_1
 62
   250
 10
-78.82846017177981
 20
-49.68796017177982
 30
0.0
  0
VERTEX
  5
50E
  8
LAYER_1
 62
   250
 10
-78.60115534952939
 20
-49.87450441845382
 30
0.0
  0
VERTEX
  5
50F
  8
LAYER_1
 62
   250
 10
-78.34182514854763
 20
-50.01311929876693
 30
0.0
  0
VERTEX
  5
510
  8
LAYER_1
 62
   250
 10
-78.06043548302418
 20
-50.09847792060484
 30
0.0
  0
VERTEX
  5
511
  8
LAYER_1
 62
   250
 10
-77.7678
 20
-50.1273
 30
0.0
  0
VERTEX
  5
512
  8
LAYER_1
 62
   250
 10
-77.4751645169758
 20
-50.09847792060484
 30
0.0
  0
VERTEX
  5
513
  8
LAYER_1
 62
   250
 10
-77.19377485145236
 20
-50.01311929876693
 30
0.0
  0
VERTEX
  5
514
  8
LAYER_1
 62
   250
 10
-76.9344446504706
 20
-49.87450441845382
 30
0.0
  0
VERTEX
  5
515
  8
LAYER_1
 62
   250
 10
-76.70713982822016
 20
-49.68796017177982
 30
0.0
  0
VERTEX
  5
516
  8
LAYER_1
 62
   250
 10
-76.52059558154617
 20
-49.4606553495294
 30
0.0
  0
VERTEX
  5
517
  8
LAYER_1
 62
   250
 10
-76.38198070123306
 20
-49.20132514854763
 30
0.0
  0
VERTEX
  5
518
  8
LAYER_1
 62
   250
 10
-76.29662207939515
 20
-48.91993548302419
 30
0.0
  0
VERTEX
  5
519
  8
LAYER_1
 62
   250
 10
-76.2678
 20
-48.62729999999999
 30
0.0
  0
VERTEX
  5
51A
  8
LAYER_1
 62
   250
 10
-76.29662207939515
 20
-48.3346645169758
 30
0.0
  0
VERTEX
  5
51B
  8
LAYER_1
 62
   250
 10
-76.38198070123306
 20
-48.05327485145236
 30
0.0
  0
VERTEX
  5
51C
  8
LAYER_1
 62
   250
 10
-76.52059558154617
 20
-47.79394465047059
 30
0.0
  0
VERTEX
  5
51D
  8
LAYER_1
 62
   250
 10
-76.70713982822018
 20
-47.56663982822018
 30
0.0
  0
VERTEX
  5
51E
  8
LAYER_1
 62
   250
 10
-76.9344446504706
 20
-47.38009558154618
 30
0.0
  0
VERTEX
  5
51F
  8
LAYER_1
 62
   250
 10
-77.19377485145236
 20
-47.24148070123307
 30
0.0
  0
VERTEX
  5
520
  8
LAYER_1
 62
   250
 10
-77.47516451697581
 20
-47.15612207939515
 30
0.0
  0
SEQEND
  5
521
  8
LAYER_1
 62
   250
  0
POLYLINE
  5
D6
  8
LAYER_1
 62
   250
 66
     1
 10
0.0
 20
0.0
 30
0.0
 70
     1
  0
VERTEX
  5
522
  8
LAYER_1
 62
   250
 10
-41.0624
 20
-89.3746
 30
0.0
  0
VERTEX
  5
523
  8
LAYER_1
 62
   250
 10
-41.74521612705644
 20
-89.44185151858869
 30
0.0
  0
VERTEX
  5
524
  8
LAYER_1
 62
   250
 10
-42.40179201327781
 20
-89.6410216362105
 30
0.0
  0
VERTEX
  5
525
  8
LAYER_1
 62
   250
 10
-43.0068958155686
 20
-89.9644563569411
 30
0.0
  0
VERTEX
  5
526
  8
LAYER_1
 62
   250
 10
-43.53727373415291
 20
-90.39972626584708
 30
0.0
  0
VERTEX
  5
527
  8
LAYER_1
 62
   250
 10
-43.97254364305891
 20
-90.9301041844314
 30
0.0
  0
VERTEX
  5
528
  8
LAYER_1
 62
   250
 10
-44.2959783637895
 20
-91.53520798672218
 30
0.0
  0
VERTEX
  5
529
  8
LAYER_1
 62
   250
 10
-44.49514848141131
 20
-92.19178387294355
 30
0.0
  0
VERTEX
  5
52A
  8
LAYER_1
 62
   250
 10
-44.5624
 20
-92.8746
 30
0.0
  0
VERTEX
  5
52B
  8
LAYER_1
 62
   250
 10
-44.49514848141131
 20
-93.55741612705646
 30
0.0
  0
VERTEX
  5
52C
  8
LAYER_1
 62
   250
 10
-44.2959783637895
 20
-94.21399201327782
 30
0.0
  0
VERTEX
  5
52D
  8
LAYER_1
 62
   250
 10
-43.97254364305891
 20
-94.8190958155686
 30
0.0
  0
VERTEX
  5
52E
  8
LAYER_1
 62
   250
 10
-43.53727373415291
 20
-95.34947373415292
 30
0.0
  0
VERTEX
  5
52F
  8
LAYER_1
 62
   250
 10
-43.0068958155686
 20
-95.7847436430589
 30
0.0
  0
VERTEX
  5
530
  8
LAYER_1
 62
   250
 10
-42.40179201327781
 20
-96.1081783637895
 30
0.0
  0
VERTEX
  5
531
  8
LAYER_1
 62
   250
 10
-41.74521612705644
 20
-96.30734848141131
 30
0.0
  0
VERTEX
  5
532
  8
LAYER_1
 62
   250
 10
-41.0624
 20
-96.3746
 30
0.0
  0
VERTEX
  5
533
  8
LAYER_1
 62
   250
 10
-40.37958387294354
 20
-96.30734848141131
 30
0.0
  0
VERTEX
  5
534
  8
LAYER_1
 62
   250
 10
-39.72300798672218
 20
-96.1081783637895
 30
0.0
  0
VERTEX
  5
535
  8
LAYER_1
 62
   250
 10
-39.11790418443138
 20
-95.7847436430589
 30
0.0
  0
VERTEX
  5
536
  8
LAYER_1
 62
   250
 10
-38.58752626584707
 20
-95.34947373415291
 30
0.0
  0
VERTEX
  5
537
  8
LAYER_1
 62
   250
 10
-38.15225635694109
 20
-94.8190958155686
 30
0.0
  0
VERTEX
  5
538
  8
LAYER_1
 62
   250
 10
-37.82882163621049
 20
-94.2139920132778
 30
0.0
  0
VERTEX
  5
539
  8
LAYER_1
 62
   250
 10
-37.62965151858869
 20
-93.55741612705644
 30
0.0
  0
VERTEX
  5
53A
  8
LAYER_1
 62
   250
 10
-37.5624
 20
-92.87459999999999
 30
0.0
  0
VERTEX
  5
53B
  8
LAYER_1
 62
   250
 10
-37.62965151858869
 20
-92.19178387294355
 30
0.0
  0
VERTEX
  5
53C
  8
LAYER_1
 62
   250
 10
-37.8288216362105
 20
-91.53520798672217
 30
0.0
  0
VERTEX
  5
53D
  8
LAYER_1
 62
   250
 10
-38.15225635694109
 20
-90.93010418443139
 30
0.0
  0
VERTEX
  5
53E
  8
LAYER_1
 62
   250
 10
-38.58752626584709
 20
-90.39972626584708
 30
0.0
  0
VERTEX
  5
53F
  8
LAYER_1
 62
   250
 10
-39.1179041844314
 20
-89.96445635694108
 30
0.0
  0
VERTEX
  5
540
  8
LAYER_1
 62
   250
 10
-39.72300798672219
 20
-89.6410216362105
 30
0.0
  0
VERTEX
  5
541
  8
LAYER_1
 62
   250
 10
-40.37958387294356
 20
-89.44185151858869
 30
0.0
  0
SEQEND
  5
542
  8
LAYER_1
 62
   250
  0
POLYLINE
  5
D7
  8
LAYER_1
 62
   250
 66
     1
 10
0.0
 20
0.0
 30
0.0
 70
     1
  0
VERTEX
  5
543
  8
LAYER_1
 62
   250
 10
-45.0624
 20
-121.9746
 30
0.0
  0
VERTEX
  5
544
  8
LAYER_1
 62
   250
 10
-45.0624
 20
-117.9746
 30
0.0
  0
VERTEX
  5
545
  8
LAYER_1
 62
   250
 10
-37.0624
 20
-117.9746
 30
0.0
  0
VERTEX
  5
546
  8
LAYER_1
 62
   250
 10
-37.0624
 20
-121.9746
 30
0.0
  0
VERTEX
  5
547
  8
LAYER_1
 62
   250
 10
-45.0624
 20
-121.9746
 30
0.0
  0
SEQEND
  5
548
  8
LAYER_1
 62
   250
  0
POLYLINE
  5
D8
  8
LAYER_1
 66
     1
 10
0.0
 20
0.0
 30
0.0
 70
     1
  0
VERTEX
  5
549
  8
LAYER_1
 10
-64.8638
 20
-81.2213
 30
0.0
  0
VERTEX
  5
54A
  8
LAYER_1
 10
-64.658
 20
-81.0641
 30
0.0
  0
VERTEX
  5
54B
  8
LAYER_1
 10
-64.4322
 20
-80.9642
 30
0.0
  0
VERTEX
  5
54C
  8
LAYER_1
 10
-64.195
 20
-80.9164
 30
0.0
  0
VERTEX
  5
54D
  8
LAYER_1
 10
-63.9554
 20
-80.9161
 30
0.0
  0
VERTEX
  5
54E
  8
LAYER_1
 10
-63.7222
 20
-80.9583
 30
0.0
  0
VERTEX
  5
54F
  8
LAYER_1
 10
-63.5042
 20
-81.038
 30
0.0
  0
VERTEX
  5
550
  8
LAYER_1
 10
-63.3102
 20
-81.1503
 30
0.0
  0
VERTEX
  5
551
  8
LAYER_1
 10
-63.1491
 20
-81.2905
 30
0.0
  0
VERTEX
  5
552
  8
LAYER_1
 10
-62.988
 20
-81.5069
 30
0.0
  0
VERTEX
  5
553
  8
LAYER_1
 10
-62.8845
 20
-81.7392
 30
0.0
  0
VERTEX
  5
554
  8
LAYER_1
 10
-62.8338
 20
-81.9795
 30
0.0
  0
VERTEX
  5
555
  8
LAYER_1
 10
-62.8312
 20
-82.2201
 30
0.0
  0
VERTEX
  5
556
  8
LAYER_1
 10
-62.8719
 20
-82.4529
 30
0.0
  0
VERTEX
  5
557
  8
LAYER_1
 10
-62.9512
 20
-82.6702
 30
0.0
  0
VERTEX
  5
558
  8
LAYER_1
 10
-63.0642
 20
-82.8642
 30
0.0
  0
VERTEX
  5
559
  8
LAYER_1
 10
-63.2063
 20
-83.0269
 30
0.0
  0
VERTEX
  5
55A
  8
LAYER_1
 10
-63.6569
 20
-83.305
 30
0.0
  0
VERTEX
  5
55B
  8
LAYER_1
 10
-64.1203
 20
-83.3622
 30
0.0
  0
VERTEX
  5
55C
  8
LAYER_1
 10
-64.5553
 20
-83.2371
 30
0.0
  0
VERTEX
  5
55D
  8
LAYER_1
 10
-64.9208
 20
-82.968
 30
0.0
  0
VERTEX
  5
55E
  8
LAYER_1
 10
-65.1756
 20
-82.5934
 30
0.0
  0
VERTEX
  5
55F
  8
LAYER_1
 10
-65.2784
 20
-82.1518
 30
0.0
  0
VERTEX
  5
560
  8
LAYER_1
 10
-65.1882
 20
-81.6817
 30
0.0
  0
VERTEX
  5
561
  8
LAYER_1
 10
-64.8638
 20
-81.2213
 30
0.0
  0
SEQEND
  5
562
  8
LAYER_1
  0
POLYLINE
  5
D9
  8
LAYER_1
 66
     1
 10
0.0
 20
0.0
 30
0.0
 70
     1
  0
VERTEX
  5
563
  8
LAYER_1
 10
-67.7365
 20
-82.8863
 30
0.0
  0
VERTEX
  5
564
  8
LAYER_1
 10
-67.2962
 20
-82.607
 30
0.0
  0
VERTEX
  5
565
  8
LAYER_1
 10
-66.8397
 20
-82.555
 30
0.0
  0
VERTEX
  5
566
  8
LAYER_1
 10
-66.4085
 20
-82.6889
 30
0.0
  0
VERTEX
  5
567
  8
LAYER_1
 10
-66.044
 20
-82.9671
 30
0.0
  0
VERTEX
  5
568
  8
LAYER_1
 10
-65.7874
 20
-83.348
 30
0.0
  0
VERTEX
  5
569
  8
LAYER_1
 10
-65.6801
 20
-83.7901
 30
0.0
  0
VERTEX
  5
56A
  8
LAYER_1
 10
-65.7635
 20
-84.2519
 30
0.0
  0
VERTEX
  5
56B
  8
LAYER_1
 10
-66.079
 20
-84.6918
 30
0.0
  0
VERTEX
  5
56C
  8
LAYER_1
 10
-66.5296
 20
-84.9699
 30
0.0
  0
VERTEX
  5
56D
  8
LAYER_1
 10
-66.993
 20
-85.0271
 30
0.0
  0
VERTEX
  5
56E
  8
LAYER_1
 10
-67.4281
 20
-84.902
 30
0.0
  0
VERTEX
  5
56F
  8
LAYER_1
 10
-67.7935
 20
-84.633
 30
0.0
  0
VERTEX
  5
570
  8
LAYER_1
 10
-68.0483
 20
-84.2584
 30
0.0
  0
VERTEX
  5
571
  8
LAYER_1
 10
-68.1512
 20
-83.8168
 30
0.0
  0
VERTEX
  5
572
  8
LAYER_1
 10
-68.0609
 20
-83.3466
 30
0.0
  0
VERTEX
  5
573
  8
LAYER_1
 10
-67.7365
 20
-82.8863
 30
0.0
  0
SEQEND
  5
574
  8
LAYER_1
  0
POLYLINE
  5
DA
  8
LAYER_1
 66
     1
 10
0.0
 20
0.0
 30
0.0
 70
     1
  0
VERTEX
  5
575
  8
LAYER_1
 10
-85.302
 20
-94.3784
 30
0.0
  0
VERTEX
  5
576
  8
LAYER_1
 10
-80.9434
 20
-90.0045
 30
0.0
  0
VERTEX
  5
577
  8
LAYER_1
 10
-80.6957
 20
-90.2453
 30
0.0
  0
VERTEX
  5
578
  8
LAYER_1
 10
-80.4317
 20
-90.4714
 30
0.0
  0
VERTEX
  5
579
  8
LAYER_1
 10
-80.1587
 20
-90.6947
 30
0.0
  0
VERTEX
  5
57A
  8
LAYER_1
 10
-79.8843
 20
-90.9273
 30
0.0
  0
VERTEX
  5
57B
  8
LAYER_1
 10
-79.6396
 20
-91.1449
 30
0.0
  0
VERTEX
  5
57C
  8
LAYER_1
 10
-79.3464
 20
-91.4028
 30
0.0
  0
VERTEX
  5
57D
  8
LAYER_1
 10
-79.056
 20
-91.6486
 30
0.0
  0
VERTEX
  5
57E
  8
LAYER_1
 10
-78.8196
 20
-91.8295
 30
0.0
  0
VERTEX
  5
57F
  8
LAYER_1
 10
-75.5341
 20
-88.6625
 30
0.0
  0
VERTEX
  5
580
  8
LAYER_1
 10
-73.7173
 20
-90.5781
 30
0.0
  0
VERTEX
  5
581
  8
LAYER_1
 10
-73.3167
 20
-90.2782
 30
0.0
  0
VERTEX
  5
582
  8
LAYER_1
 10
-72.6386
 20
-89.7361
 30
0.0
  0
VERTEX
  5
583
  8
LAYER_1
 10
-71.9554
 20
-89.175
 30
0.0
  0
VERTEX
  5
584
  8
LAYER_1
 10
-71.5392
 20
-88.8182
 30
0.0
  0
VERTEX
  5
585
  8
LAYER_1
 10
-68.8212
 20
-91.7913
 30
0.0
  0
VERTEX
  5
586
  8
LAYER_1
 10
-68.3352
 20
-91.3412
 30
0.0
  0
VERTEX
  5
587
  8
LAYER_1
 10
-67.8866
 20
-90.9645
 30
0.0
  0
VERTEX
  5
588
  8
LAYER_1
 10
-67.4558
 20
-90.6809
 30
0.0
  0
VERTEX
  5
589
  8
LAYER_1
 10
-67.023
 20
-90.5099
 30
0.0
  0
VERTEX
  5
58A
  8
LAYER_1
 10
-66.5684
 20
-90.4711
 30
0.0
  0
VERTEX
  5
58B
  8
LAYER_1
 10
-66.0725
 20
-90.584
 30
0.0
  0
VERTEX
  5
58C
  8
LAYER_1
 10
-65.5155
 20
-90.8684
 30
0.0
  0
VERTEX
  5
58D
  8
LAYER_1
 10
-64.8777
 20
-91.3436
 30
0.0
  0
VERTEX
  5
58E
  8
LAYER_1
 10
-64.568
 20
-91.6177
 30
0.0
  0
VERTEX
  5
58F
  8
LAYER_1
 10
-64.2404
 20
-91.9311
 30
0.0
  0
VERTEX
  5
590
  8
LAYER_1
 10
-63.9034
 20
-92.2743
 30
0.0
  0
VERTEX
  5
591
  8
LAYER_1
 10
-63.5654
 20
-92.6377
 30
0.0
  0
VERTEX
  5
592
  8
LAYER_1
 10
-63.2349
 20
-93.0116
 30
0.0
  0
VERTEX
  5
593
  8
LAYER_1
 10
-62.9202
 20
-93.3865
 30
0.0
  0
VERTEX
  5
594
  8
LAYER_1
 10
-62.6298
 20
-93.7527
 30
0.0
  0
VERTEX
  5
595
  8
LAYER_1
 10
-62.3721
 20
-94.1007
 30
0.0
  0
VERTEX
  5
596
  8
LAYER_1
 10
-61.5854
 20
-95.202
 30
0.0
  0
VERTEX
  5
597
  8
LAYER_1
 10
-61.5713
 20
-95.0707
 30
0.0
  0
VERTEX
  5
598
  8
LAYER_1
 10
-61.4765
 20
-92.6214
 30
0.0
  0
VERTEX
  5
599
  8
LAYER_1
 10
-61.455
 20
-92.1124
 30
0.0
  0
VERTEX
  5
59A
  8
LAYER_1
 10
-61.4192
 20
-91.2707
 30
0.0
  0
VERTEX
  5
59B
  8
LAYER_1
 10
-61.3958
 20
-90.4451
 30
0.0
  0
VERTEX
  5
59C
  8
LAYER_1
 10
-61.4114
 20
-89.9842
 30
0.0
  0
VERTEX
  5
59D
  8
LAYER_1
 10
-61.305
 20
-89.9225
 30
0.0
  0
VERTEX
  5
59E
  8
LAYER_1
 10
-61.048
 20
-90.0949
 30
0.0
  0
VERTEX
  5
59F
  8
LAYER_1
 10
-60.7604
 20
-90.2432
 30
0.0
  0
VERTEX
  5
5A0
  8
LAYER_1
 10
-57.8773
 20
-91.751
 30
0.0
  0
VERTEX
  5
5A1
  8
LAYER_1
 10
-57.2867
 20
-92.0676
 30
0.0
  0
VERTEX
  5
5A2
  8
LAYER_1
 10
-56.6911
 20
-92.3654
 30
0.0
  0
VERTEX
  5
5A3
  8
LAYER_1
 10
-56.8293
 20
-92.0971
 30
0.0
  0
VERTEX
  5
5A4
  8
LAYER_1
 10
-56.9676
 20
-91.7881
 30
0.0
  0
VERTEX
  5
5A5
  8
LAYER_1
 10
-57.1024
 20
-91.4732
 30
0.0
  0
VERTEX
  5
5A6
  8
LAYER_1
 10
-57.23
 20
-91.1871
 30
0.0
  0
VERTEX
  5
5A7
  8
LAYER_1
 10
-57.4615
 20
-90.6666
 30
0.0
  0
VERTEX
  5
5A8
  8
LAYER_1
 10
-57.7282
 20
-89.9971
 30
0.0
  0
VERTEX
  5
5A9
  8
LAYER_1
 10
-57.997
 20
-89.2265
 30
0.0
  0
VERTEX
  5
5AA
  8
LAYER_1
 10
-58.2349
 20
-88.4023
 30
0.0
  0
VERTEX
  5
5AB
  8
LAYER_1
 10
-58.4089
 20
-87.5724
 30
0.0
  0
VERTEX
  5
5AC
  8
LAYER_1
 10
-58.486
 20
-86.7844
 30
0.0
  0
VERTEX
  5
5AD
  8
LAYER_1
 10
-58.4332
 20
-86.0861
 30
0.0
  0
VERTEX
  5
5AE
  8
LAYER_1
 10
-58.2175
 20
-85.5252
 30
0.0
  0
VERTEX
  5
5AF
  8
LAYER_1
 10
-58.0187
 20
-85.2763
 30
0.0
  0
VERTEX
  5
5B0
  8
LAYER_1
 10
-57.7818
 20
-85.0716
 30
0.0
  0
VERTEX
  5
5B1
  8
LAYER_1
 10
-57.5156
 20
-84.9043
 30
0.0
  0
VERTEX
  5
5B2
  8
LAYER_1
 10
-57.2289
 20
-84.7676
 30
0.0
  0
VERTEX
  5
5B3
  8
LAYER_1
 10
-56.6292
 20
-84.559
 30
0.0
  0
VERTEX
  5
5B4
  8
LAYER_1
 10
-56.0534
 20
-84.3915
 30
0.0
  0
VERTEX
  5
5B5
  8
LAYER_1
 10
-56.0933
 20
-84.2112
 30
0.0
  0
VERTEX
  5
5B6
  8
LAYER_1
 10
-56.1745
 20
-83.95
 30
0.0
  0
VERTEX
  5
5B7
  8
LAYER_1
 10
-56.2665
 20
-83.6769
 30
0.0
  0
VERTEX
  5
5B8
  8
LAYER_1
 10
-56.3389
 20
-83.4607
 30
0.0
  0
VERTEX
  5
5B9
  8
LAYER_1
 10
-56.9531
 20
-81.5425
 30
0.0
  0
VERTEX
  5
5BA
  8
LAYER_1
 10
-57.0294
 20
-81.2908
 30
0.0
  0
VERTEX
  5
5BB
  8
LAYER_1
 10
-57.1065
 20
-81.0323
 30
0.0
  0
VERTEX
  5
5BC
  8
LAYER_1
 10
-57.1891
 20
-80.7821
 30
0.0
  0
VERTEX
  5
5BD
  8
LAYER_1
 10
-57.2819
 20
-80.5551
 30
0.0
  0
VERTEX
  5
5BE
  8
LAYER_1
 10
-56.7655
 20
-80.3714
 30
0.0
  0
VERTEX
  5
5BF
  8
LAYER_1
 10
-55.939
 20
-80.0574
 30
0.0
  0
VERTEX
  5
5C0
  8
LAYER_1
 10
-55.1315
 20
-79.7386
 30
0.0
  0
VERTEX
  5
5C1
  8
LAYER_1
 10
-54.6722
 20
-79.5401
 30
0.0
  0
VERTEX
  5
5C2
  8
LAYER_1
 10
-55.4351
 20
-76.9974
 30
0.0
  0
VERTEX
  5
5C3
  8
LAYER_1
 10
-51.0457
 20
-75.7493
 30
0.0
  0
VERTEX
  5
5C4
  8
LAYER_1
 10
-51.1345
 20
-75.2026
 30
0.0
  0
VERTEX
  5
5C5
  8
LAYER_1
 10
-51.3038
 20
-74.3075
 30
0.0
  0
VERTEX
  5
5C6
  8
LAYER_1
 10
-51.477
 20
-73.4423
 30
0.0
  0
VERTEX
  5
5C7
  8
LAYER_1
 10
-51.5776
 20
-72.985
 30
0.0
  0
VERTEX
  5
5C8
  8
LAYER_1
 10
-51.3112
 20
-72.9288
 30
0.0
  0
VERTEX
  5
5C9
  8
LAYER_1
 10
-50.8792
 20
-72.8133
 30
0.0
  0
VERTEX
  5
5CA
  8
LAYER_1
 10
-50.4331
 20
-72.6867
 30
0.0
  0
VERTEX
  5
5CB
  8
LAYER_1
 10
-50.1247
 20
-72.5973
 30
0.0
  0
VERTEX
  5
5CC
  8
LAYER_1
 10
-48.6234
 20
-72.1972
 30
0.0
  0
VERTEX
  5
5CD
  8
LAYER_1
 10
-45.6157
 20
-71.3774
 30
0.0
  0
VERTEX
  5
5CE
  8
LAYER_1
 10
-45.8544
 20
-71.3234
 30
0.0
  0
VERTEX
  5
5CF
  8
LAYER_1
 10
-46.3249
 20
-71.2609
 30
0.0
  0
VERTEX
  5
5D0
  8
LAYER_1
 10
-46.9554
 20
-71.1935
 30
0.0
  0
VERTEX
  5
5D1
  8
LAYER_1
 10
-47.6741
 20
-71.1252
 30
0.0
  0
VERTEX
  5
5D2
  8
LAYER_1
 10
-48.409
 20
-71.0597
 30
0.0
  0
VERTEX
  5
5D3
  8
LAYER_1
 10
-49.0884
 20
-71.0009
 30
0.0
  0
VERTEX
  5
5D4
  8
LAYER_1
 10
-49.6402
 20
-70.9526
 30
0.0
  0
VERTEX
  5
5D5
  8
LAYER_1
 10
-49.9928
 20
-70.9186
 30
0.0
  0
VERTEX
  5
5D6
  8
LAYER_1
 10
-51.4855
 20
-70.7796
 30
0.0
  0
VERTEX
  5
5D7
  8
LAYER_1
 10
-52.9341
 20
-70.6436
 30
0.0
  0
VERTEX
  5
5D8
  8
LAYER_1
 10
-54.4255
 20
-70.4995
 30
0.0
  0
VERTEX
  5
5D9
  8
LAYER_1
 10
-55.1659
 20
-70.4355
 30
0.0
  0
VERTEX
  5
5DA
  8
LAYER_1
 10
-55.8989
 20
-70.361
 30
0.0
  0
VERTEX
  5
5DB
  8
LAYER_1
 10
-56.6308
 20
-70.2881
 30
0.0
  0
VERTEX
  5
5DC
  8
LAYER_1
 10
-57.368
 20
-70.229
 30
0.0
  0
VERTEX
  5
5DD
  8
LAYER_1
 10
-57.5585
 20
-70.6692
 30
0.0
  0
VERTEX
  5
5DE
  8
LAYER_1
 10
-57.8637
 20
-71.4294
 30
0.0
  0
VERTEX
  5
5DF
  8
LAYER_1
 10
-58.246
 20
-72.4069
 30
0.0
  0
VERTEX
  5
5E0
  8
LAYER_1
 10
-58.6673
 20
-73.499
 30
0.0
  0
VERTEX
  5
5E1
  8
LAYER_1
 10
-59.0897
 20
-74.6027
 30
0.0
  0
VERTEX
  5
5E2
  8
LAYER_1
 10
-59.4754
 20
-75.6153
 30
0.0
  0
VERTEX
  5
5E3
  8
LAYER_1
 10
-59.7865
 20
-76.434
 30
0.0
  0
VERTEX
  5
5E4
  8
LAYER_1
 10
-59.9851
 20
-76.9561
 30
0.0
  0
VERTEX
  5
5E5
  8
LAYER_1
 10
-60.4956
 20
-78.305
 30
0.0
  0
VERTEX
  5
5E6
  8
LAYER_1
 10
-61.2914
 20
-80.3428
 30
0.0
  0
VERTEX
  5
5E7
  8
LAYER_1
 10
-61.3825
 20
-80.6038
 30
0.0
  0
VERTEX
  5
5E8
  8
LAYER_1
 10
-61.4429
 20
-80.781
 30
0.0
  0
VERTEX
  5
5E9
  8
LAYER_1
 10
-61.4743
 20
-80.8486
 30
0.0
  0
VERTEX
  5
5EA
  8
LAYER_1
 10
-61.5133
 20
-80.9076
 30
0.0
  0
VERTEX
  5
5EB
  8
LAYER_1
 10
-61.5648
 20
-80.9622
 30
0.0
  0
VERTEX
  5
5EC
  8
LAYER_1
 10
-61.634
 20
-81.0165
 30
0.0
  0
VERTEX
  5
5ED
  8
LAYER_1
 10
-61.7877
 20
-80.8809
 30
0.0
  0
VERTEX
  5
5EE
  8
LAYER_1
 10
-61.946
 20
-80.7836
 30
0.0
  0
VERTEX
  5
5EF
  8
LAYER_1
 10
-62.1035
 20
-80.7102
 30
0.0
  0
VERTEX
  5
5F0
  8
LAYER_1
 10
-62.2551
 20
-80.6462
 30
0.0
  0
VERTEX
  5
5F1
  8
LAYER_1
 10
-62.3955
 20
-80.5774
 30
0.0
  0
VERTEX
  5
5F2
  8
LAYER_1
 10
-62.5194
 20
-80.4895
 30
0.0
  0
VERTEX
  5
5F3
  8
LAYER_1
 10
-62.6218
 20
-80.368
 30
0.0
  0
VERTEX
  5
5F4
  8
LAYER_1
 10
-62.6972
 20
-80.1986
 30
0.0
  0
VERTEX
  5
5F5
  8
LAYER_1
 10
-64.1992
 20
-75.6095
 30
0.0
  0
VERTEX
  5
5F6
  8
LAYER_1
 10
-64.3057
 20
-75.9217
 30
0.0
  0
VERTEX
  5
5F7
  8
LAYER_1
 10
-64.4462
 20
-76.429
 30
0.0
  0
VERTEX
  5
5F8
  8
LAYER_1
 10
-64.6067
 20
-77.0057
 30
0.0
  0
VERTEX
  5
5F9
  8
LAYER_1
 10
-64.7728
 20
-77.5265
 30
0.0
  0
VERTEX
  5
5FA
  8
LAYER_1
 10
-64.9101
 20
-77.9963
 30
0.0
  0
VERTEX
  5
5FB
  8
LAYER_1
 10
-65.0308
 20
-78.5197
 30
0.0
  0
VERTEX
  5
5FC
  8
LAYER_1
 10
-65.0919
 20
-78.78
 30
0.0
  0
VERTEX
  5
5FD
  8
LAYER_1
 10
-65.1573
 20
-79.028
 30
0.0
  0
VERTEX
  5
5FE
  8
LAYER_1
 10
-65.2297
 20
-79.2551
 30
0.0
  0
VERTEX
  5
5FF
  8
LAYER_1
 10
-65.312
 20
-79.4526
 30
0.0
  0
VERTEX
  5
600
  8
LAYER_1
 10
-65.4454
 20
-79.4763
 30
0.0
  0
VERTEX
  5
601
  8
LAYER_1
 10
-65.5633
 20
-79.4758
 30
0.0
  0
VERTEX
  5
602
  8
LAYER_1
 10
-65.6787
 20
-79.4612
 30
0.0
  0
VERTEX
  5
603
  8
LAYER_1
 10
-65.8044
 20
-79.4431
 30
0.0
  0
VERTEX
  5
604
  8
LAYER_1
 10
-66.2902
 20
-79.4086
 30
0.0
  0
VERTEX
  5
605
  8
LAYER_1
 10
-66.8932
 20
-79.4596
 30
0.0
  0
VERTEX
  5
606
  8
LAYER_1
 10
-67.3446
 20
-79.622
 30
0.0
  0
VERTEX
  5
607
  8
LAYER_1
 10
-67.6735
 20
-79.8666
 30
0.0
  0
VERTEX
  5
608
  8
LAYER_1
 10
-67.9092
 20
-80.1644
 30
0.0
  0
VERTEX
  5
609
  8
LAYER_1
 10
-68.0809
 20
-80.486
 30
0.0
  0
VERTEX
  5
60A
  8
LAYER_1
 10
-68.2178
 20
-80.8024
 30
0.0
  0
VERTEX
  5
60B
  8
LAYER_1
 10
-68.3491
 20
-81.0843
 30
0.0
  0
VERTEX
  5
60C
  8
LAYER_1
 10
-68.504
 20
-81.3025
 30
0.0
  0
VERTEX
  5
60D
  8
LAYER_1
 10
-68.7163
 20
-81.2757
 30
0.0
  0
VERTEX
  5
60E
  8
LAYER_1
 10
-68.9493
 20
-81.2257
 30
0.0
  0
VERTEX
  5
60F
  8
LAYER_1
 10
-69.197
 20
-81.1591
 30
0.0
  0
VERTEX
  5
610
  8
LAYER_1
 10
-69.4533
 20
-81.0828
 30
0.0
  0
VERTEX
  5
611
  8
LAYER_1
 10
-69.9674
 20
-80.9273
 30
0.0
  0
VERTEX
  5
612
  8
LAYER_1
 10
-70.4433
 20
-80.8129
 30
0.0
  0
VERTEX
  5
613
  8
LAYER_1
 10
-71.4198
 20
-80.5939
 30
0.0
  0
VERTEX
  5
614
  8
LAYER_1
 10
-71.6636
 20
-80.5234
 30
0.0
  0
VERTEX
  5
615
  8
LAYER_1
 10
-71.9073
 20
-80.4512
 30
0.0
  0
VERTEX
  5
616
  8
LAYER_1
 10
-72.1502
 20
-80.3912
 30
0.0
  0
VERTEX
  5
617
  8
LAYER_1
 10
-72.3918
 20
-80.3577
 30
0.0
  0
VERTEX
  5
618
  8
LAYER_1
 10
-69.1933
 20
-83.9065
 30
0.0
  0
VERTEX
  5
619
  8
LAYER_1
 10
-69.0623
 20
-84.073
 30
0.0
  0
VERTEX
  5
61A
  8
LAYER_1
 10
-68.9955
 20
-84.2293
 30
0.0
  0
VERTEX
  5
61B
  8
LAYER_1
 10
-68.9755
 20
-84.381
 30
0.0
  0
VERTEX
  5
61C
  8
LAYER_1
 10
-68.9853
 20
-84.5339
 30
0.0
  0
VERTEX
  5
61D
  8
LAYER_1
 10
-69.0074
 20
-84.6937
 30
0.0
  0
VERTEX
  5
61E
  8
LAYER_1
 10
-69.0246
 20
-84.866
 30
0.0
  0
VERTEX
  5
61F
  8
LAYER_1
 10
-69.0197
 20
-85.0567
 30
0.0
  0
VERTEX
  5
620
  8
LAYER_1
 10
-68.9754
 20
-85.2713
 30
0.0
  0
VERTEX
  5
621
  8
LAYER_1
 10
-69.1002
 20
-85.3025
 30
0.0
  0
VERTEX
  5
622
  8
LAYER_1
 10
-69.2705
 20
-85.3078
 30
0.0
  0
VERTEX
  5
623
  8
LAYER_1
 10
-69.4714
 20
-85.2934
 30
0.0
  0
VERTEX
  5
624
  8
LAYER_1
 10
-69.6884
 20
-85.265
 30
0.0
  0
VERTEX
  5
625
  8
LAYER_1
 10
-70.1117
 20
-85.1904
 30
0.0
  0
VERTEX
  5
626
  8
LAYER_1
 10
-70.423
 20
-85.1317
 30
0.0
  0
VERTEX
  5
627
  8
LAYER_1
 10
-77.5578
 20
-84.0461
 30
0.0
  0
VERTEX
  5
628
  8
LAYER_1
 10
-78.1323
 20
-83.9533
 30
0.0
  0
VERTEX
  5
629
  8
LAYER_1
 10
-79.0193
 20
-83.8125
 30
0.0
  0
VERTEX
  5
62A
  8
LAYER_1
 10
-79.9001
 20
-83.6795
 30
0.0
  0
VERTEX
  5
62B
  8
LAYER_1
 10
-80.4563
 20
-83.6103
 30
0.0
  0
VERTEX
  5
62C
  8
LAYER_1
 10
-80.7926
 20
-84.3104
 30
0.0
  0
VERTEX
  5
62D
  8
LAYER_1
 10
-81.167
 20
-85.1115
 30
0.0
  0
VERTEX
  5
62E
  8
LAYER_1
 10
-81.5667
 20
-85.9826
 30
0.0
  0
VERTEX
  5
62F
  8
LAYER_1
 10
-81.9793
 20
-86.8931
 30
0.0
  0
VERTEX
  5
630
  8
LAYER_1
 10
-82.3921
 20
-87.8121
 30
0.0
  0
VERTEX
  5
631
  8
LAYER_1
 10
-82.7927
 20
-88.7088
 30
0.0
  0
VERTEX
  5
632
  8
LAYER_1
 10
-83.1684
 20
-89.5524
 30
0.0
  0
VERTEX
  5
633
  8
LAYER_1
 10
-83.5067
 20
-90.312
 30
0.0
  0
VERTEX
  5
634
  8
LAYER_1
 10
-84.1262
 20
-91.6769
 30
0.0
  0
VERTEX
  5
635
  8
LAYER_1
 10
-85.0362
 20
-93.6843
 30
0.0
  0
VERTEX
  5
636
  8
LAYER_1
 10
-85.1193
 20
-93.8552
 30
0.0
  0
VERTEX
  5
637
  8
LAYER_1
 10
-85.2026
 20
-94.0344
 30
0.0
  0
VERTEX
  5
638
  8
LAYER_1
 10
-85.2692
 20
-94.2121
 30
0.0
  0
VERTEX
  5
639
  8
LAYER_1
 10
-85.302
 20
-94.3784
 30
0.0
  0
SEQEND
  5
63A
  8
LAYER_1
  0
POLYLINE
  5
DB
  8
LAYER_1
 66
     1
 10
0.0
 20
0.0
 30
0.0
 70
     1
  0
VERTEX
  5
63B
  8
LAYER_1
 10
-45.6969
 20
-112.2494
 30
0.0
  0
VERTEX
  5
63C
  8
LAYER_1
 10
-45.98953548302419
 20
-112.2782220793951
 30
0.0
  0
VERTEX
  5
63D
  8
LAYER_1
 10
-46.27092514854763
 20
-112.3635807012331
 30
0.0
  0
VERTEX
  5
63E
  8
LAYER_1
 10
-46.5302553495294
 20
-112.5021955815462
 30
0.0
  0
VERTEX
  5
63F
  8
LAYER_1
 10
-46.75756017177982
 20
-112.6887398282202
 30
0.0
  0
VERTEX
  5
640
  8
LAYER_1
 10
-46.94410441845382
 20
-112.9160446504706
 30
0.0
  0
VERTEX
  5
641
  8
LAYER_1
 10
-47.08271929876693
 20
-113.1753748514524
 30
0.0
  0
VERTEX
  5
642
  8
LAYER_1
 10
-47.16807792060484
 20
-113.4567645169758
 30
0.0
  0
VERTEX
  5
643
  8
LAYER_1
 10
-47.1969
 20
-113.7494
 30
0.0
  0
VERTEX
  5
644
  8
LAYER_1
 10
-47.16807792060484
 20
-114.0420354830242
 30
0.0
  0
VERTEX
  5
645
  8
LAYER_1
 10
-47.08271929876693
 20
-114.3234251485476
 30
0.0
  0
VERTEX
  5
646
  8
LAYER_1
 10
-46.94410441845382
 20
-114.5827553495294
 30
0.0
  0
VERTEX
  5
647
  8
LAYER_1
 10
-46.75756017177982
 20
-114.8100601717798
 30
0.0
  0
VERTEX
  5
648
  8
LAYER_1
 10
-46.5302553495294
 20
-114.9966044184538
 30
0.0
  0
VERTEX
  5
649
  8
LAYER_1
 10
-46.27092514854763
 20
-115.1352192987669
 30
0.0
  0
VERTEX
  5
64A
  8
LAYER_1
 10
-45.98953548302419
 20
-115.2205779206048
 30
0.0
  0
VERTEX
  5
64B
  8
LAYER_1
 10
-45.6969
 20
-115.2494
 30
0.0
  0
VERTEX
  5
64C
  8
LAYER_1
 10
-45.40426451697581
 20
-115.2205779206048
 30
0.0
  0
VERTEX
  5
64D
  8
LAYER_1
 10
-45.12287485145237
 20
-115.1352192987669
 30
0.0
  0
VERTEX
  5
64E
  8
LAYER_1
 10
-44.86354465047059
 20
-114.9966044184538
 30
0.0
  0
VERTEX
  5
64F
  8
LAYER_1
 10
-44.63623982822018
 20
-114.8100601717798
 30
0.0
  0
VERTEX
  5
650
  8
LAYER_1
 10
-44.44969558154618
 20
-114.5827553495294
 30
0.0
  0
VERTEX
  5
651
  8
LAYER_1
 10
-44.31108070123307
 20
-114.3234251485476
 30
0.0
  0
VERTEX
  5
652
  8
LAYER_1
 10
-44.22572207939515
 20
-114.0420354830242
 30
0.0
  0
VERTEX
  5
653
  8
LAYER_1
 10
-44.1969
 20
-113.7494
 30
0.0
  0
VERTEX
  5
654
  8
LAYER_1
 10
-44.22572207939515
 20
-113.4567645169758
 30
0.0
  0
VERTEX
  5
655
  8
LAYER_1
 10
-44.31108070123307
 20
-113.1753748514524
 30
0.0
  0
VERTEX
  5
656
  8
LAYER_1
 10
-44.44969558154619
 20
-112.9160446504706
 30
0.0
  0
VERTEX
  5
657
  8
LAYER_1
 10
-44.63623982822018
 20
-112.6887398282202
 30
0.0
  0
VERTEX
  5
658
  8
LAYER_1
 10
-44.8635446504706
 20
-112.5021955815462
 30
0.0
  0
VERTEX
  5
659
  8
LAYER_1
 10
-45.12287485145237
 20
-112.3635807012331
 30
0.0
  0
VERTEX
  5
65A
  8
LAYER_1
 10
-45.40426451697581
 20
-112.2782220793951
 30
0.0
  0
SEQEND
  5
65B
  8
LAYER_1
  0
POLYLINE
  5
DC
  8
LAYER_1
 66
     1
 10
0.0
 20
0.0
 30
0.0
  0
VERTEX
  5
65C
  8
LAYER_1
 10
-92.0739
 20
41.8255
 30
0.0
  0
VERTEX
  5
65D
  8
LAYER_1
 10
-84.7512
 20
41.8255
 30
0.0
  0
SEQEND
  5
65E
  8
LAYER_1
  0
POLYLINE
  5
DD
  8
LAYER_1
 66
     1
 10
0.0
 20
0.0
 30
0.0
  0
VERTEX
  5
65F
  8
LAYER_1
 10
-52.8239
 20
44.8241
 30
0.0
  0
VERTEX
  5
660
  8
LAYER_1
 10
-52.8239
 20
41.8255
 30
0.0
  0
SEQEND
  5
661
  8
LAYER_1
  0
POLYLINE
  5
DE
  8
LAYER_1
 66
     1
 10
0.0
 20
0.0
 30
0.0
  0
VERTEX
  5
662
  8
LAYER_1
 10
-52.8239
 20
44.8241
 30
0.0
  0
VERTEX
  5
663
  8
LAYER_1
 10
-42.8239
 20
44.8241
 30
0.0
  0
SEQEND
  5
664
  8
LAYER_1
  0
POLYLINE
  5
DF
  8
LAYER_1
 66
     1
 10
0.0
 20
0.0
 30
0.0
  0
VERTEX
  5
665
  8
LAYER_1
 10
-42.8239
 20
44.8241
 30
0.0
  0
VERTEX
  5
666
  8
LAYER_1
 10
-42.8239
 20
41.8255
 30
0.0
  0
SEQEND
  5
667
  8
LAYER_1
  0
POLYLINE
  5
E0
  8
LAYER_1
 66
     1
 10
0.0
 20
0.0
 30
0.0
  0
VERTEX
  5
668
  8
LAYER_1
 10
-42.8239
 20
41.8255
 30
0.0
  0
VERTEX
  5
669
  8
LAYER_1
 10
-33.0739
 20
41.8255
 30
0.0
  0
SEQEND
  5
66A
  8
LAYER_1
  0
POLYLINE
  5
E1
  8
LAYER_1
 66
     1
 10
0.0
 20
0.0
 30
0.0
  0
VERTEX
  5
66B
  8
LAYER_1
 10
-92.0739
 20
17.826
 30
0.0
  0
VERTEX
  5
66C
  8
LAYER_1
 10
-92.0739
 20
41.8255
 30
0.0
  0
SEQEND
  5
66D
  8
LAYER_1
  0
POLYLINE
  5
E2
  8
LAYER_1
 66
     1
 10
0.0
 20
0.0
 30
0.0
  0
VERTEX
  5
66E
  8
LAYER_1
 10
-33.0739
 20
33.627
 30
0.0
  0
VERTEX
  5
66F
  8
LAYER_1
 10
-33.0739
 20
41.8255
 30
0.0
  0
SEQEND
  5
670
  8
LAYER_1
  0
POLYLINE
  5
E3
  8
LAYER_1
 66
     1
 10
0.0
 20
0.0
 30
0.0
  0
VERTEX
  5
671
  8
LAYER_1
 10
-61.2739
 20
17.826
 30
0.0
  0
VERTEX
  5
672
  8
LAYER_1
 10
-72.3239
 20
17.826
 30
0.0
  0
SEQEND
  5
673
  8
LAYER_1
  0
POLYLINE
  5
E4
  8
LAYER_1
 66
     1
 10
0.0
 20
0.0
 30
0.0
  0
VERTEX
  5
674
  8
LAYER_1
 10
-72.3239
 20
14.8274
 30
0.0
  0
VERTEX
  5
675
  8
LAYER_1
 10
-72.3239
 20
17.826
 30
0.0
  0
SEQEND
  5
676
  8
LAYER_1
  0
POLYLINE
  5
E5
  8
LAYER_1
 66
     1
 10
0.0
 20
0.0
 30
0.0
  0
VERTEX
  5
677
  8
LAYER_1
 10
-72.3239
 20
14.8274
 30
0.0
  0
VERTEX
  5
678
  8
LAYER_1
 10
-82.3239
 20
14.8274
 30
0.0
  0
SEQEND
  5
679
  8
LAYER_1
  0
POLYLINE
  5
E6
  8
LAYER_1
 66
     1
 10
0.0
 20
0.0
 30
0.0
  0
VERTEX
  5
67A
  8
LAYER_1
 10
-82.3239
 20
14.8274
 30
0.0
  0
VERTEX
  5
67B
  8
LAYER_1
 10
-82.3239
 20
17.826
 30
0.0
  0
SEQEND
  5
67C
  8
LAYER_1
  0
POLYLINE
  5
E7
  8
LAYER_1
 66
     1
 10
0.0
 20
0.0
 30
0.0
  0
VERTEX
  5
67D
  8
LAYER_1
 10
-82.3239
 20
17.826
 30
0.0
  0
VERTEX
  5
67E
  8
LAYER_1
 10
-92.0739
 20
17.826
 30
0.0
  0
SEQEND
  5
67F
  8
LAYER_1
  0
POLYLINE
  5
E8
  8
LAYER_1
 62
   250
 66
     1
 10
0.0
 20
0.0
 30
0.0
  0
VERTEX
  5
680
  8
LAYER_1
 62
   250
 10
-61.2739
 20
17.826
 30
0.0
  0
VERTEX
  5
681
  8
LAYER_1
 62
   250
 10
-61.2739
 20
29.826
 30
0.0
  0
VERTEX
  5
682
  8
LAYER_1
 62
   250
 10
-58.2739
 20
29.826
 30
0.0
  0
VERTEX
  5
683
  8
LAYER_1
 62
   250
 10
-58.2739
 20
23.826
 30
0.0
  0
SEQEND
  5
684
  8
LAYER_1
 62
   250
  0
POLYLINE
  5
E9
  8
LAYER_1
 62
   250
 66
     1
 10
0.0
 20
0.0
 30
0.0
  0
VERTEX
  5
685
  8
LAYER_1
 62
   250
 10
-84.7512
 20
41.8255
 30
0.0
  0
VERTEX
  5
686
  8
LAYER_1
 62
   250
 10
-84.7512
 20
38.627
 30
0.0
  0
VERTEX
  5
687
  8
LAYER_1
 62
   250
 10
-55.393
 20
38.627
 30
0.0
  0
VERTEX
  5
688
  8
LAYER_1
 62
   250
 10
-55.393
 20
41.8255
 30
0.0
  0
VERTEX
  5
689
  8
LAYER_1
 62
   250
 10
-52.8239
 20
41.8255
 30
0.0
  0
SEQEND
  5
68A
  8
LAYER_1
 62
   250
  0
POLYLINE
  5
EA
  8
LAYER_1
 62
   250
 66
     1
 10
0.0
 20
0.0
 30
0.0
  0
VERTEX
  5
68B
  8
LAYER_1
 62
   250
 10
-58.2739
 20
23.826
 30
0.0
  0
VERTEX
  5
68C
  8
LAYER_1
 62
   250
 10
-52.2739
 20
23.826
 30
0.0
  0
VERTEX
  5
68D
  8
LAYER_1
 62
   250
 10
-52.2739
 20
33.627
 30
0.0
  0
VERTEX
  5
68E
  8
LAYER_1
 62
   250
 10
-33.0739
 20
33.627
 30
0.0
  0
SEQEND
  5
68F
  8
LAYER_1
 62
   250
  0
POLYLINE
  5
EB
  8
LAYER_1
 62
   250
 66
     1
 10
0.0
 20
0.0
 30
0.0
 70
     1
  0
VERTEX
  5
690
  8
LAYER_1
 62
   250
 10
-61.7678
 20
-39.1273
 30
0.0
  0
VERTEX
  5
691
  8
LAYER_1
 62
   250
 10
-62.06043548302419
 20
-39.15612207939515
 30
0.0
  0
VERTEX
  5
692
  8
LAYER_1
 62
   250
 10
-62.34182514854763
 20
-39.24148070123307
 30
0.0
  0
VERTEX
  5
693
  8
LAYER_1
 62
   250
 10
-62.60115534952941
 20
-39.38009558154618
 30
0.0
  0
VERTEX
  5
694
  8
LAYER_1
 62
   250
 10
-62.82846017177982
 20
-39.56663982822018
 30
0.0
  0
VERTEX
  5
695
  8
LAYER_1
 62
   250
 10
-63.01500441845382
 20
-39.79394465047059
 30
0.0
  0
VERTEX
  5
696
  8
LAYER_1
 62
   250
 10
-63.15361929876693
 20
-40.05327485145236
 30
0.0
  0
VERTEX
  5
697
  8
LAYER_1
 62
   250
 10
-63.23897792060485
 20
-40.33466451697581
 30
0.0
  0
VERTEX
  5
698
  8
LAYER_1
 62
   250
 10
-63.2678
 20
-40.6273
 30
0.0
  0
VERTEX
  5
699
  8
LAYER_1
 62
   250
 10
-63.23897792060485
 20
-40.91993548302419
 30
0.0
  0
VERTEX
  5
69A
  8
LAYER_1
 62
   250
 10
-63.15361929876693
 20
-41.20132514854763
 30
0.0
  0
VERTEX
  5
69B
  8
LAYER_1
 62
   250
 10
-63.01500441845382
 20
-41.4606553495294
 30
0.0
  0
VERTEX
  5
69C
  8
LAYER_1
 62
   250
 10
-62.82846017177982
 20
-41.68796017177982
 30
0.0
  0
VERTEX
  5
69D
  8
LAYER_1
 62
   250
 10
-62.60115534952941
 20
-41.87450441845382
 30
0.0
  0
VERTEX
  5
69E
  8
LAYER_1
 62
   250
 10
-62.34182514854763
 20
-42.01311929876693
 30
0.0
  0
VERTEX
  5
69F
  8
LAYER_1
 62
   250
 10
-62.06043548302419
 20
-42.09847792060484
 30
0.0
  0
VERTEX
  5
6A0
  8
LAYER_1
 62
   250
 10
-61.7678
 20
-42.1273
 30
0.0
  0
VERTEX
  5
6A1
  8
LAYER_1
 62
   250
 10
-61.47516451697581
 20
-42.09847792060484
 30
0.0
  0
VERTEX
  5
6A2
  8
LAYER_1
 62
   250
 10
-61.19377485145237
 20
-42.01311929876693
 30
0.0
  0
VERTEX
  5
6A3
  8
LAYER_1
 62
   250
 10
-60.9344446504706
 20
-41.87450441845382
 30
0.0
  0
VERTEX
  5
6A4
  8
LAYER_1
 62
   250
 10
-60.70713982822018
 20
-41.68796017177982
 30
0.0
  0
VERTEX
  5
6A5
  8
LAYER_1
 62
   250
 10
-60.52059558154618
 20
-41.4606553495294
 30
0.0
  0
VERTEX
  5
6A6
  8
LAYER_1
 62
   250
 10
-60.38198070123307
 20
-41.20132514854763
 30
0.0
  0
VERTEX
  5
6A7
  8
LAYER_1
 62
   250
 10
-60.29662207939516
 20
-40.91993548302419
 30
0.0
  0
VERTEX
  5
6A8
  8
LAYER_1
 62
   250
 10
-60.2678
 20
-40.62729999999999
 30
0.0
  0
VERTEX
  5
6A9
  8
LAYER_1
 62
   250
 10
-60.29662207939516
 20
-40.3346645169758
 30
0.0
  0
VERTEX
  5
6AA
  8
LAYER_1
 62
   250
 10
-60.38198070123308
 20
-40.05327485145236
 30
0.0
  0
VERTEX
  5
6AB
  8
LAYER_1
 62
   250
 10
-60.52059558154619
 20
-39.79394465047059
 30
0.0
  0
VERTEX
  5
6AC
  8
LAYER_1
 62
   250
 10
-60.70713982822019
 20
-39.56663982822018
 30
0.0
  0
VERTEX
  5
6AD
  8
LAYER_1
 62
   250
 10
-60.9344446504706
 20
-39.38009558154618
 30
0.0
  0
VERTEX
  5
6AE
  8
LAYER_1
 62
   250
 10
-61.19377485145237
 20
-39.24148070123307
 30
0.0
  0
VERTEX
  5
6AF
  8
LAYER_1
 62
   250
 10
-61.47516451697582
 20
-39.15612207939515
 30
0.0
  0
SEQEND
  5
6B0
  8
LAYER_1
 62
   250
  0
POLYLINE
  5
EC
  8
LAYER_1
 62
   250
 66
     1
 10
0.0
 20
0.0
 30
0.0
 70
     1
  0
VERTEX
  5
6B1
  8
LAYER_1
 62
   250
 10
-65.7678
 20
-43.1273
 30
0.0
  0
VERTEX
  5
6B2
  8
LAYER_1
 62
   250
 10
-66.0604354830242
 20
-43.15612207939515
 30
0.0
  0
VERTEX
  5
6B3
  8
LAYER_1
 62
   250
 10
-66.34182514854763
 20
-43.24148070123307
 30
0.0
  0
VERTEX
  5
6B4
  8
LAYER_1
 62
   250
 10
-66.60115534952939
 20
-43.38009558154618
 30
0.0
  0
VERTEX
  5
6B5
  8
LAYER_1
 62
   250
 10
-66.82846017177981
 20
-43.56663982822018
 30
0.0
  0
VERTEX
  5
6B6
  8
LAYER_1
 62
   250
 10
-67.01500441845381
 20
-43.79394465047059
 30
0.0
  0
VERTEX
  5
6B7
  8
LAYER_1
 62
   250
 10
-67.15361929876693
 20
-44.05327485145236
 30
0.0
  0
VERTEX
  5
6B8
  8
LAYER_1
 62
   250
 10
-67.23897792060484
 20
-44.33466451697581
 30
0.0
  0
VERTEX
  5
6B9
  8
LAYER_1
 62
   250
 10
-67.2678
 20
-44.6273
 30
0.0
  0
VERTEX
  5
6BA
  8
LAYER_1
 62
   250
 10
-67.23897792060484
 20
-44.91993548302419
 30
0.0
  0
VERTEX
  5
6BB
  8
LAYER_1
 62
   250
 10
-67.15361929876693
 20
-45.20132514854763
 30
0.0
  0
VERTEX
  5
6BC
  8
LAYER_1
 62
   250
 10
-67.01500441845381
 20
-45.4606553495294
 30
0.0
  0
VERTEX
  5
6BD
  8
LAYER_1
 62
   250
 10
-66.82846017177981
 20
-45.68796017177982
 30
0.0
  0
VERTEX
  5
6BE
  8
LAYER_1
 62
   250
 10
-66.60115534952939
 20
-45.87450441845382
 30
0.0
  0
VERTEX
  5
6BF
  8
LAYER_1
 62
   250
 10
-66.34182514854763
 20
-46.01311929876693
 30
0.0
  0
VERTEX
  5
6C0
  8
LAYER_1
 62
   250
 10
-66.06043548302418
 20
-46.09847792060484
 30
0.0
  0
VERTEX
  5
6C1
  8
LAYER_1
 62
   250
 10
-65.7678
 20
-46.1273
 30
0.0
  0
VERTEX
  5
6C2
  8
LAYER_1
 62
   250
 10
-65.4751645169758
 20
-46.09847792060484
 30
0.0
  0
VERTEX
  5
6C3
  8
LAYER_1
 62
   250
 10
-65.19377485145236
 20
-46.01311929876693
 30
0.0
  0
VERTEX
  5
6C4
  8
LAYER_1
 62
   250
 10
-64.9344446504706
 20
-45.87450441845382
 30
0.0
  0
VERTEX
  5
6C5
  8
LAYER_1
 62
   250
 10
-64.70713982822016
 20
-45.68796017177982
 30
0.0
  0
VERTEX
  5
6C6
  8
LAYER_1
 62
   250
 10
-64.52059558154617
 20
-45.4606553495294
 30
0.0
  0
VERTEX
  5
6C7
  8
LAYER_1
 62
   250
 10
-64.38198070123306
 20
-45.20132514854763
 30
0.0
  0
VERTEX
  5
6C8
  8
LAYER_1
 62
   250
 10
-64.29662207939515
 20
-44.91993548302419
 30
0.0
  0
VERTEX
  5
6C9
  8
LAYER_1
 62
   250
 10
-64.2678
 20
-44.62729999999999
 30
0.0
  0
VERTEX
  5
6CA
  8
LAYER_1
 62
   250
 10
-64.29662207939515
 20
-44.3346645169758
 30
0.0
  0
VERTEX
  5
6CB
  8
LAYER_1
 62
   250
 10
-64.38198070123306
 20
-44.05327485145236
 30
0.0
  0
VERTEX
  5
6CC
  8
LAYER_1
 62
   250
 10
-64.52059558154617
 20
-43.79394465047059
 30
0.0
  0
VERTEX
  5
6CD
  8
LAYER_1
 62
   250
 10
-64.70713982822018
 20
-43.56663982822018
 30
0.0
  0
VERTEX
  5
6CE
  8
LAYER_1
 62
   250
 10
-64.9344446504706
 20
-43.38009558154618
 30
0.0
  0
VERTEX
  5
6CF
  8
LAYER_1
 62
   250
 10
-65.19377485145236
 20
-43.24148070123307
 30
0.0
  0
VERTEX
  5
6D0
  8
LAYER_1
 62
   250
 10
-65.47516451697581
 20
-43.15612207939515
 30
0.0
  0
SEQEND
  5
6D1
  8
LAYER_1
 62
   250
  0
POLYLINE
  5
ED
  8
LAYER_1
 62
   250
 66
     1
 10
0.0
 20
0.0
 30
0.0
 70
     1
  0
VERTEX
  5
6D2
  8
LAYER_1
 62
   250
 10
-61.7678
 20
-47.1273
 30
0.0
  0
VERTEX
  5
6D3
  8
LAYER_1
 62
   250
 10
-62.06043548302419
 20
-47.15612207939515
 30
0.0
  0
VERTEX
  5
6D4
  8
LAYER_1
 62
   250
 10
-62.34182514854763
 20
-47.24148070123307
 30
0.0
  0
VERTEX
  5
6D5
  8
LAYER_1
 62
   250
 10
-62.60115534952941
 20
-47.38009558154618
 30
0.0
  0
VERTEX
  5
6D6
  8
LAYER_1
 62
   250
 10
-62.82846017177982
 20
-47.56663982822018
 30
0.0
  0
VERTEX
  5
6D7
  8
LAYER_1
 62
   250
 10
-63.01500441845382
 20
-47.79394465047059
 30
0.0
  0
VERTEX
  5
6D8
  8
LAYER_1
 62
   250
 10
-63.15361929876693
 20
-48.05327485145236
 30
0.0
  0
VERTEX
  5
6D9
  8
LAYER_1
 62
   250
 10
-63.23897792060485
 20
-48.33466451697581
 30
0.0
  0
VERTEX
  5
6DA
  8
LAYER_1
 62
   250
 10
-63.2678
 20
-48.6273
 30
0.0
  0
VERTEX
  5
6DB
  8
LAYER_1
 62
   250
 10
-63.23897792060485
 20
-48.91993548302419
 30
0.0
  0
VERTEX
  5
6DC
  8
LAYER_1
 62
   250
 10
-63.15361929876693
 20
-49.20132514854763
 30
0.0
  0
VERTEX
  5
6DD
  8
LAYER_1
 62
   250
 10
-63.01500441845382
 20
-49.4606553495294
 30
0.0
  0
VERTEX
  5
6DE
  8
LAYER_1
 62
   250
 10
-62.82846017177982
 20
-49.68796017177982
 30
0.0
  0
VERTEX
  5
6DF
  8
LAYER_1
 62
   250
 10
-62.60115534952941
 20
-49.87450441845382
 30
0.0
  0
VERTEX
  5
6E0
  8
LAYER_1
 62
   250
 10
-62.34182514854763
 20
-50.01311929876693
 30
0.0
  0
VERTEX
  5
6E1
  8
LAYER_1
 62
   250
 10
-62.06043548302419
 20
-50.09847792060484
 30
0.0
  0
VERTEX
  5
6E2
  8
LAYER_1
 62
   250
 10
-61.7678
 20
-50.1273
 30
0.0
  0
VERTEX
  5
6E3
  8
LAYER_1
 62
   250
 10
-61.47516451697581
 20
-50.09847792060484
 30
0.0
  0
VERTEX
  5
6E4
  8
LAYER_1
 62
   250
 10
-61.19377485145237
 20
-50.01311929876693
 30
0.0
  0
VERTEX
  5
6E5
  8
LAYER_1
 62
   250
 10
-60.9344446504706
 20
-49.87450441845382
 30
0.0
  0
VERTEX
  5
6E6
  8
LAYER_1
 62
   250
 10
-60.70713982822018
 20
-49.68796017177982
 30
0.0
  0
VERTEX
  5
6E7
  8
LAYER_1
 62
   250
 10
-60.52059558154618
 20
-49.4606553495294
 30
0.0
  0
VERTEX
  5
6E8
  8
LAYER_1
 62
   250
 10
-60.38198070123307
 20
-49.20132514854763
 30
0.0
  0
VERTEX
  5
6E9
  8
LAYER_1
 62
   250
 10
-60.29662207939516
 20
-48.91993548302419
 30
0.0
  0
VERTEX
  5
6EA
  8
LAYER_1
 62
   250
 10
-60.2678
 20
-48.62729999999999
 30
0.0
  0
VERTEX
  5
6EB
  8
LAYER_1
 62
   250
 10
-60.29662207939516
 20
-48.3346645169758
 30
0.0
  0
VERTEX
  5
6EC
  8
LAYER_1
 62
   250
 10
-60.38198070123308
 20
-48.05327485145236
 30
0.0
  0
VERTEX
  5
6ED
  8
LAYER_1
 62
   250
 10
-60.52059558154619
 20
-47.79394465047059
 30
0.0
  0
VERTEX
  5
6EE
  8
LAYER_1
 62
   250
 10
-60.70713982822019
 20
-47.56663982822018
 30
0.0
  0
VERTEX
  5
6EF
  8
LAYER_1
 62
   250
 10
-60.9344446504706
 20
-47.38009558154618
 30
0.0
  0
VERTEX
  5
6F0
  8
LAYER_1
 62
   250
 10
-61.19377485145237
 20
-47.24148070123307
 30
0.0
  0
VERTEX
  5
6F1
  8
LAYER_1
 62
   250
 10
-61.47516451697582
 20
-47.15612207939515
 30
0.0
  0
SEQEND
  5
6F2
  8
LAYER_1
 62
   250
  0
POLYLINE
  5
EE
  8
LAYER_1
 62
   250
 66
     1
 10
0.0
 20
0.0
 30
0.0
 70
     1
  0
VERTEX
  5
6F3
  8
LAYER_1
 62
   250
 10
-73.7678
 20
-51.1273
 30
0.0
  0
VERTEX
  5
6F4
  8
LAYER_1
 62
   250
 10
-74.0604354830242
 20
-51.15612207939515
 30
0.0
  0
VERTEX
  5
6F5
  8
LAYER_1
 62
   250
 10
-74.34182514854763
 20
-51.24148070123307
 30
0.0
  0
VERTEX
  5
6F6
  8
LAYER_1
 62
   250
 10
-74.60115534952939
 20
-51.38009558154618
 30
0.0
  0
VERTEX
  5
6F7
  8
LAYER_1
 62
   250
 10
-74.82846017177981
 20
-51.56663982822018
 30
0.0
  0
VERTEX
  5
6F8
  8
LAYER_1
 62
   250
 10
-75.01500441845381
 20
-51.79394465047059
 30
0.0
  0
VERTEX
  5
6F9
  8
LAYER_1
 62
   250
 10
-75.15361929876693
 20
-52.05327485145236
 30
0.0
  0
VERTEX
  5
6FA
  8
LAYER_1
 62
   250
 10
-75.23897792060484
 20
-52.33466451697581
 30
0.0
  0
VERTEX
  5
6FB
  8
LAYER_1
 62
   250
 10
-75.2678
 20
-52.6273
 30
0.0
  0
VERTEX
  5
6FC
  8
LAYER_1
 62
   250
 10
-75.23897792060484
 20
-52.91993548302419
 30
0.0
  0
VERTEX
  5
6FD
  8
LAYER_1
 62
   250
 10
-75.15361929876693
 20
-53.20132514854763
 30
0.0
  0
VERTEX
  5
6FE
  8
LAYER_1
 62
   250
 10
-75.01500441845381
 20
-53.4606553495294
 30
0.0
  0
VERTEX
  5
6FF
  8
LAYER_1
 62
   250
 10
-74.82846017177981
 20
-53.68796017177982
 30
0.0
  0
VERTEX
  5
700
  8
LAYER_1
 62
   250
 10
-74.60115534952939
 20
-53.87450441845382
 30
0.0
  0
VERTEX
  5
701
  8
LAYER_1
 62
   250
 10
-74.34182514854763
 20
-54.01311929876693
 30
0.0
  0
VERTEX
  5
702
  8
LAYER_1
 62
   250
 10
-74.06043548302418
 20
-54.09847792060484
 30
0.0
  0
VERTEX
  5
703
  8
LAYER_1
 62
   250
 10
-73.7678
 20
-54.1273
 30
0.0
  0
VERTEX
  5
704
  8
LAYER_1
 62
   250
 10
-73.4751645169758
 20
-54.09847792060484
 30
0.0
  0
VERTEX
  5
705
  8
LAYER_1
 62
   250
 10
-73.19377485145236
 20
-54.01311929876693
 30
0.0
  0
VERTEX
  5
706
  8
LAYER_1
 62
   250
 10
-72.9344446504706
 20
-53.87450441845382
 30
0.0
  0
VERTEX
  5
707
  8
LAYER_1
 62
   250
 10
-72.70713982822016
 20
-53.68796017177982
 30
0.0
  0
VERTEX
  5
708
  8
LAYER_1
 62
   250
 10
-72.52059558154617
 20
-53.4606553495294
 30
0.0
  0
VERTEX
  5
709
  8
LAYER_1
 62
   250
 10
-72.38198070123306
 20
-53.20132514854763
 30
0.0
  0
VERTEX
  5
70A
  8
LAYER_1
 62
   250
 10
-72.29662207939515
 20
-52.91993548302419
 30
0.0
  0
VERTEX
  5
70B
  8
LAYER_1
 62
   250
 10
-72.2678
 20
-52.62729999999999
 30
0.0
  0
VERTEX
  5
70C
  8
LAYER_1
 62
   250
 10
-72.29662207939515
 20
-52.3346645169758
 30
0.0
  0
VERTEX
  5
70D
  8
LAYER_1
 62
   250
 10
-72.38198070123306
 20
-52.05327485145236
 30
0.0
  0
VERTEX
  5
70E
  8
LAYER_1
 62
   250
 10
-72.52059558154617
 20
-51.79394465047059
 30
0.0
  0
VERTEX
  5
70F
  8
LAYER_1
 62
   250
 10
-72.70713982822018
 20
-51.56663982822018
 30
0.0
  0
VERTEX
  5
710
  8
LAYER_1
 62
   250
 10
-72.9344446504706
 20
-51.38009558154618
 30
0.0
  0
VERTEX
  5
711
  8
LAYER_1
 62
   250
 10
-73.19377485145236
 20
-51.24148070123307
 30
0.0
  0
VERTEX
  5
712
  8
LAYER_1
 62
   250
 10
-73.47516451697581
 20
-51.15612207939515
 30
0.0
  0
SEQEND
  5
713
  8
LAYER_1
 62
   250
  0
POLYLINE
  5
EF
  8
LAYER_1
 62
   250
 66
     1
 10
0.0
 20
0.0
 30
0.0
 70
     1
  0
VERTEX
  5
714
  8
LAYER_1
 62
   250
 10
-69.7678
 20
-55.1273
 30
0.0
  0
VERTEX
  5
715
  8
LAYER_1
 62
   250
 10
-70.0604354830242
 20
-55.15612207939515
 30
0.0
  0
VERTEX
  5
716
  8
LAYER_1
 62
   250
 10
-70.34182514854763
 20
-55.24148070123307
 30
0.0
  0
VERTEX
  5
717
  8
LAYER_1
 62
   250
 10
-70.60115534952939
 20
-55.38009558154618
 30
0.0
  0
VERTEX
  5
718
  8
LAYER_1
 62
   250
 10
-70.82846017177981
 20
-55.56663982822018
 30
0.0
  0
VERTEX
  5
719
  8
LAYER_1
 62
   250
 10
-71.01500441845381
 20
-55.79394465047059
 30
0.0
  0
VERTEX
  5
71A
  8
LAYER_1
 62
   250
 10
-71.15361929876693
 20
-56.05327485145236
 30
0.0
  0
VERTEX
  5
71B
  8
LAYER_1
 62
   250
 10
-71.23897792060484
 20
-56.33466451697581
 30
0.0
  0
VERTEX
  5
71C
  8
LAYER_1
 62
   250
 10
-71.2678
 20
-56.6273
 30
0.0
  0
VERTEX
  5
71D
  8
LAYER_1
 62
   250
 10
-71.23897792060484
 20
-56.91993548302419
 30
0.0
  0
VERTEX
  5
71E
  8
LAYER_1
 62
   250
 10
-71.15361929876693
 20
-57.20132514854763
 30
0.0
  0
VERTEX
  5
71F
  8
LAYER_1
 62
   250
 10
-71.01500441845381
 20
-57.4606553495294
 30
0.0
  0
VERTEX
  5
720
  8
LAYER_1
 62
   250
 10
-70.82846017177981
 20
-57.68796017177982
 30
0.0
  0
VERTEX
  5
721
  8
LAYER_1
 62
   250
 10
-70.60115534952939
 20
-57.87450441845382
 30
0.0
  0
VERTEX
  5
722
  8
LAYER_1
 62
   250
 10
-70.34182514854763
 20
-58.01311929876693
 30
0.0
  0
VERTEX
  5
723
  8
LAYER_1
 62
   250
 10
-70.06043548302418
 20
-58.09847792060484
 30
0.0
  0
VERTEX
  5
724
  8
LAYER_1
 62
   250
 10
-69.7678
 20
-58.1273
 30
0.0
  0
VERTEX
  5
725
  8
LAYER_1
 62
   250
 10
-69.4751645169758
 20
-58.09847792060484
 30
0.0
  0
VERTEX
  5
726
  8
LAYER_1
 62
   250
 10
-69.19377485145236
 20
-58.01311929876693
 30
0.0
  0
VERTEX
  5
727
  8
LAYER_1
 62
   250
 10
-68.9344446504706
 20
-57.87450441845382
 30
0.0
  0
VERTEX
  5
728
  8
LAYER_1
 62
   250
 10
-68.70713982822016
 20
-57.68796017177982
 30
0.0
  0
VERTEX
  5
729
  8
LAYER_1
 62
   250
 10
-68.52059558154617
 20
-57.4606553495294
 30
0.0
  0
VERTEX
  5
72A
  8
LAYER_1
 62
   250
 10
-68.38198070123306
 20
-57.20132514854763
 30
0.0
  0
VERTEX
  5
72B
  8
LAYER_1
 62
   250
 10
-68.29662207939515
 20
-56.91993548302419
 30
0.0
  0
VERTEX
  5
72C
  8
LAYER_1
 62
   250
 10
-68.2678
 20
-56.62729999999999
 30
0.0
  0
VERTEX
  5
72D
  8
LAYER_1
 62
   250
 10
-68.29662207939515
 20
-56.3346645169758
 30
0.0
  0
VERTEX
  5
72E
  8
LAYER_1
 62
   250
 10
-68.38198070123306
 20
-56.05327485145236
 30
0.0
  0
VERTEX
  5
72F
  8
LAYER_1
 62
   250
 10
-68.52059558154617
 20
-55.79394465047059
 30
0.0
  0
VERTEX
  5
730
  8
LAYER_1
 62
   250
 10
-68.70713982822018
 20
-55.56663982822018
 30
0.0
  0
VERTEX
  5
731
  8
LAYER_1
 62
   250
 10
-68.9344446504706
 20
-55.38009558154618
 30
0.0
  0
VERTEX
  5
732
  8
LAYER_1
 62
   250
 10
-69.19377485145236
 20
-55.24148070123307
 30
0.0
  0
VERTEX
  5
733
  8
LAYER_1
 62
   250
 10
-69.47516451697581
 20
-55.15612207939515
 30
0.0
  0
SEQEND
  5
734
  8
LAYER_1
 62
   250
  0
POLYLINE
  5
F0
  8
LAYER_1
 62
   250
 66
     1
 10
0.0
 20
0.0
 30
0.0
 70
     1
  0
VERTEX
  5
735
  8
LAYER_1
 62
   250
 10
-77.7678
 20
-47.1273
 30
0.0
  0
VERTEX
  5
736
  8
LAYER_1
 62
   250
 10
-78.0604354830242
 20
-47.15612207939515
 30
0.0
  0
VERTEX
  5
737
  8
LAYER_1
 62
   250
 10
-78.34182514854763
 20
-47.24148070123307
 30
0.0
  0
VERTEX
  5
738
  8
LAYER_1
 62
   250
 10
-78.60115534952939
 20
-47.38009558154618
 30
0.0
  0
VERTEX
  5
739
  8
LAYER_1
 62
   250
 10
-78.82846017177981
 20
-47.56663982822018
 30
0.0
  0
VERTEX
  5
73A
  8
LAYER_1
 62
   250
 10
-79.01500441845381
 20
-47.79394465047059
 30
0.0
  0
VERTEX
  5
73B
  8
LAYER_1
 62
   250
 10
-79.15361929876693
 20
-48.05327485145236
 30
0.0
  0
VERTEX
  5
73C
  8
LAYER_1
 62
   250
 10
-79.23897792060484
 20
-48.33466451697581
 30
0.0
  0
VERTEX
  5
73D
  8
LAYER_1
 62
   250
 10
-79.2678
 20
-48.6273
 30
0.0
  0
VERTEX
  5
73E
  8
LAYER_1
 62
   250
 10
-79.23897792060484
 20
-48.91993548302419
 30
0.0
  0
VERTEX
  5
73F
  8
LAYER_1
 62
   250
 10
-79.15361929876693
 20
-49.20132514854763
 30
0.0
  0
VERTEX
  5
740
  8
LAYER_1
 62
   250
 10
-79.01500441845381
 20
-49.4606553495294
 30
0.0
  0
VERTEX
  5
741
  8
LAYER_1
 62
   250
 10
-78.82846017177981
 20
-49.68796017177982
 30
0.0
  0
VERTEX
  5
742
  8
LAYER_1
 62
   250
 10
-78.60115534952939
 20
-49.87450441845382
 30
0.0
  0
VERTEX
  5
743
  8
LAYER_1
 62
   250
 10
-78.34182514854763
 20
-50.01311929876693
 30
0.0
  0
VERTEX
  5
744
  8
LAYER_1
 62
   250
 10
-78.06043548302418
 20
-50.09847792060484
 30
0.0
  0
VERTEX
  5
745
  8
LAYER_1
 62
   250
 10
-77.7678
 20
-50.1273
 30
0.0
  0
VERTEX
  5
746
  8
LAYER_1
 62
   250
 10
-77.4751645169758
 20
-50.09847792060484
 30
0.0
  0
VERTEX
  5
747
  8
LAYER_1
 62
   250
 10
-77.19377485145236
 20
-50.01311929876693
 30
0.0
  0
VERTEX
  5
748
  8
LAYER_1
 62
   250
 10
-76.9344446504706
 20
-49.87450441845382
 30
0.0
  0
VERTEX
  5
749
  8
LAYER_1
 62
   250
 10
-76.70713982822016
 20
-49.68796017177982
 30
0.0
  0
VERTEX
  5
74A
  8
LAYER_1
 62
   250
 10
-76.52059558154617
 20
-49.4606553495294
 30
0.0
  0
VERTEX
  5
74B
  8
LAYER_1
 62
   250
 10
-76.38198070123306
 20
-49.20132514854763
 30
0.0
  0
VERTEX
  5
74C
  8
LAYER_1
 62
   250
 10
-76.29662207939515
 20
-48.91993548302419
 30
0.0
  0
VERTEX
  5
74D
  8
LAYER_1
 62
   250
 10
-76.2678
 20
-48.62729999999999
 30
0.0
  0
VERTEX
  5
74E
  8
LAYER_1
 62
   250
 10
-76.29662207939515
 20
-48.3346645169758
 30
0.0
  0
VERTEX
  5
74F
  8
LAYER_1
 62
   250
 10
-76.38198070123306
 20
-48.05327485145236
 30
0.0
  0
VERTEX
  5
750
  8
LAYER_1
 62
   250
 10
-76.52059558154617
 20
-47.79394465047059
 30
0.0
  0
VERTEX
  5
751
  8
LAYER_1
 62
   250
 10
-76.70713982822018
 20
-47.56663982822018
 30
0.0
  0
VERTEX
  5
752
  8
LAYER_1
 62
   250
 10
-76.9344446504706
 20
-47.38009558154618
 30
0.0
  0
VERTEX
  5
753
  8
LAYER_1
 62
   250
 10
-77.19377485145236
 20
-47.24148070123307
 30
0.0
  0
VERTEX
  5
754
  8
LAYER_1
 62
   250
 10
-77.47516451697581
 20
-47.15612207939515
 30
0.0
  0
SEQEND
  5
755
  8
LAYER_1
 62
   250
  0
POLYLINE
  5
F1
  8
LAYER_1
 62
   250
 66
     1
 10
0.0
 20
0.0
 30
0.0
 70
     1
  0
VERTEX
  5
756
  8
LAYER_1
 62
   250
 10
-77.7678
 20
-55.1273
 30
0.0
  0
VERTEX
  5
757
  8
LAYER_1
 62
   250
 10
-78.0604354830242
 20
-55.15612207939515
 30
0.0
  0
VERTEX
  5
758
  8
LAYER_1
 62
   250
 10
-78.34182514854763
 20
-55.24148070123307
 30
0.0
  0
VERTEX
  5
759
  8
LAYER_1
 62
   250
 10
-78.60115534952939
 20
-55.38009558154618
 30
0.0
  0
VERTEX
  5
75A
  8
LAYER_1
 62
   250
 10
-78.82846017177981
 20
-55.56663982822018
 30
0.0
  0
VERTEX
  5
75B
  8
LAYER_1
 62
   250
 10
-79.01500441845381
 20
-55.79394465047059
 30
0.0
  0
VERTEX
  5
75C
  8
LAYER_1
 62
   250
 10
-79.15361929876693
 20
-56.05327485145236
 30
0.0
  0
VERTEX
  5
75D
  8
LAYER_1
 62
   250
 10
-79.23897792060484
 20
-56.33466451697581
 30
0.0
  0
VERTEX
  5
75E
  8
LAYER_1
 62
   250
 10
-79.2678
 20
-56.6273
 30
0.0
  0
VERTEX
  5
75F
  8
LAYER_1
 62
   250
 10
-79.23897792060484
 20
-56.91993548302419
 30
0.0
  0
VERTEX
  5
760
  8
LAYER_1
 62
   250
 10
-79.15361929876693
 20
-57.20132514854763
 30
0.0
  0
VERTEX
  5
761
  8
LAYER_1
 62
   250
 10
-79.01500441845381
 20
-57.4606553495294
 30
0.0
  0
VERTEX
  5
762
  8
LAYER_1
 62
   250
 10
-78.82846017177981
 20
-57.68796017177982
 30
0.0
  0
VERTEX
  5
763
  8
LAYER_1
 62
   250
 10
-78.60115534952939
 20
-57.87450441845382
 30
0.0
  0
VERTEX
  5
764
  8
LAYER_1
 62
   250
 10
-78.34182514854763
 20
-58.01311929876693
 30
0.0
  0
VERTEX
  5
765
  8
LAYER_1
 62
   250
 10
-78.06043548302418
 20
-58.09847792060484
 30
0.0
  0
VERTEX
  5
766
  8
LAYER_1
 62
   250
 10
-77.7678
 20
-58.1273
 30
0.0
  0
VERTEX
  5
767
  8
LAYER_1
 62
   250
 10
-77.4751645169758
 20
-58.09847792060484
 30
0.0
  0
VERTEX
  5
768
  8
LAYER_1
 62
   250
 10
-77.19377485145236
 20
-58.01311929876693
 30
0.0
  0
VERTEX
  5
769
  8
LAYER_1
 62
   250
 10
-76.9344446504706
 20
-57.87450441845382
 30
0.0
  0
VERTEX
  5
76A
  8
LAYER_1
 62
   250
 10
-76.70713982822016
 20
-57.68796017177982
 30
0.0
  0
VERTEX
  5
76B
  8
LAYER_1
 62
   250
 10
-76.52059558154617
 20
-57.4606553495294
 30
0.0
  0
VERTEX
  5
76C
  8
LAYER_1
 62
   250
 10
-76.38198070123306
 20
-57.20132514854763
 30
0.0
  0
VERTEX
  5
76D
  8
LAYER_1
 62
   250
 10
-76.29662207939515
 20
-56.91993548302419
 30
0.0
  0
VERTEX
  5
76E
  8
LAYER_1
 62
   250
 10
-76.2678
 20
-56.62729999999999
 30
0.0
  0
VERTEX
  5
76F
  8
LAYER_1
 62
   250
 10
-76.29662207939515
 20
-56.3346645169758
 30
0.0
  0
VERTEX
  5
770
  8
LAYER_1
 62
   250
 10
-76.38198070123306
 20
-56.05327485145236
 30
0.0
  0
VERTEX
  5
771
  8
LAYER_1
 62
   250
 10
-76.52059558154617
 20
-55.79394465047059
 30
0.0
  0
VERTEX
  5
772
  8
LAYER_1
 62
   250
 10
-76.70713982822018
 20
-55.56663982822018
 30
0.0
  0
VERTEX
  5
773
  8
LAYER_1
 62
   250
 10
-76.9344446504706
 20
-55.38009558154618
 30
0.0
  0
VERTEX
  5
774
  8
LAYER_1
 62
   250
 10
-77.19377485145236
 20
-55.24148070123307
 30
0.0
  0
VERTEX
  5
775
  8
LAYER_1
 62
   250
 10
-77.47516451697581
 20
-55.15612207939515
 30
0.0
  0
SEQEND
  5
776
  8
LAYER_1
 62
   250
  0
POLYLINE
  5
F2
  8
LAYER_1
 62
   250
 66
     1
 10
0.0
 20
0.0
 30
0.0
 70
     1
  0
VERTEX
  5
777
  8
LAYER_1
 62
   250
 10
-65.7678
 20
-51.1273
 30
0.0
  0
VERTEX
  5
778
  8
LAYER_1
 62
   250
 10
-66.0604354830242
 20
-51.15612207939515
 30
0.0
  0
VERTEX
  5
779
  8
LAYER_1
 62
   250
 10
-66.34182514854763
 20
-51.24148070123307
 30
0.0
  0
VERTEX
  5
77A
  8
LAYER_1
 62
   250
 10
-66.60115534952939
 20
-51.38009558154618
 30
0.0
  0
VERTEX
  5
77B
  8
LAYER_1
 62
   250
 10
-66.82846017177981
 20
-51.56663982822018
 30
0.0
  0
VERTEX
  5
77C
  8
LAYER_1
 62
   250
 10
-67.01500441845381
 20
-51.79394465047059
 30
0.0
  0
VERTEX
  5
77D
  8
LAYER_1
 62
   250
 10
-67.15361929876693
 20
-52.05327485145236
 30
0.0
  0
VERTEX
  5
77E
  8
LAYER_1
 62
   250
 10
-67.23897792060484
 20
-52.33466451697581
 30
0.0
  0
VERTEX
  5
77F
  8
LAYER_1
 62
   250
 10
-67.2678
 20
-52.6273
 30
0.0
  0
VERTEX
  5
780
  8
LAYER_1
 62
   250
 10
-67.23897792060484
 20
-52.91993548302419
 30
0.0
  0
VERTEX
  5
781
  8
LAYER_1
 62
   250
 10
-67.15361929876693
 20
-53.20132514854763
 30
0.0
  0
VERTEX
  5
782
  8
LAYER_1
 62
   250
 10
-67.01500441845381
 20
-53.4606553495294
 30
0.0
  0
VERTEX
  5
783
  8
LAYER_1
 62
   250
 10
-66.82846017177981
 20
-53.68796017177982
 30
0.0
  0
VERTEX
  5
784
  8
LAYER_1
 62
   250
 10
-66.60115534952939
 20
-53.87450441845382
 30
0.0
  0
VERTEX
  5
785
  8
LAYER_1
 62
   250
 10
-66.34182514854763
 20
-54.01311929876693
 30
0.0
  0
VERTEX
  5
786
  8
LAYER_1
 62
   250
 10
-66.06043548302418
 20
-54.09847792060484
 30
0.0
  0
VERTEX
  5
787
  8
LAYER_1
 62
   250
 10
-65.7678
 20
-54.1273
 30
0.0
  0
VERTEX
  5
788
  8
LAYER_1
 62
   250
 10
-65.4751645169758
 20
-54.09847792060484
 30
0.0
  0
VERTEX
  5
789
  8
LAYER_1
 62
   250
 10
-65.19377485145236
 20
-54.01311929876693
 30
0.0
  0
VERTEX
  5
78A
  8
LAYER_1
 62
   250
 10
-64.9344446504706
 20
-53.87450441845382
 30
0.0
  0
VERTEX
  5
78B
  8
LAYER_1
 62
   250
 10
-64.70713982822016
 20
-53.68796017177982
 30
0.0
  0
VERTEX
  5
78C
  8
LAYER_1
 62
   250
 10
-64.52059558154617
 20
-53.4606553495294
 30
0.0
  0
VERTEX
  5
78D
  8
LAYER_1
 62
   250
 10
-64.38198070123306
 20
-53.20132514854763
 30
0.0
  0
VERTEX
  5
78E
  8
LAYER_1
 62
   250
 10
-64.29662207939515
 20
-52.91993548302419
 30
0.0
  0
VERTEX
  5
78F
  8
LAYER_1
 62
   250
 10
-64.2678
 20
-52.62729999999999
 30
0.0
  0
VERTEX
  5
790
  8
LAYER_1
 62
   250
 10
-64.29662207939515
 20
-52.3346645169758
 30
0.0
  0
VERTEX
  5
791
  8
LAYER_1
 62
   250
 10
-64.38198070123306
 20
-52.05327485145236
 30
0.0
  0
VERTEX
  5
792
  8
LAYER_1
 62
   250
 10
-64.52059558154617
 20
-51.79394465047059
 30
0.0
  0
VERTEX
  5
793
  8
LAYER_1
 62
   250
 10
-64.70713982822018
 20
-51.56663982822018
 30
0.0
  0
VERTEX
  5
794
  8
LAYER_1
 62
   250
 10
-64.9344446504706
 20
-51.38009558154618
 30
0.0
  0
VERTEX
  5
795
  8
LAYER_1
 62
   250
 10
-65.19377485145236
 20
-51.24148070123307
 30
0.0
  0
VERTEX
  5
796
  8
LAYER_1
 62
   250
 10
-65.47516451697581
 20
-51.15612207939515
 30
0.0
  0
SEQEND
  5
797
  8
LAYER_1
 62
   250
  0
POLYLINE
  5
F3
  8
LAYER_1
 62
   250
 66
     1
 10
0.0
 20
0.0
 30
0.0
 70
     1
  0
VERTEX
  5
798
  8
LAYER_1
 62
   250
 10
-61.7678
 20
-55.1273
 30
0.0
  0
VERTEX
  5
799
  8
LAYER_1
 62
   250
 10
-62.06043548302419
 20
-55.15612207939515
 30
0.0
  0
VERTEX
  5
79A
  8
LAYER_1
 62
   250
 10
-62.34182514854763
 20
-55.24148070123307
 30
0.0
  0
VERTEX
  5
79B
  8
LAYER_1
 62
   250
 10
-62.60115534952941
 20
-55.38009558154618
 30
0.0
  0
VERTEX
  5
79C
  8
LAYER_1
 62
   250
 10
-62.82846017177982
 20
-55.56663982822018
 30
0.0
  0
VERTEX
  5
79D
  8
LAYER_1
 62
   250
 10
-63.01500441845382
 20
-55.79394465047059
 30
0.0
  0
VERTEX
  5
79E
  8
LAYER_1
 62
   250
 10
-63.15361929876693
 20
-56.05327485145236
 30
0.0
  0
VERTEX
  5
79F
  8
LAYER_1
 62
   250
 10
-63.23897792060485
 20
-56.33466451697581
 30
0.0
  0
VERTEX
  5
7A0
  8
LAYER_1
 62
   250
 10
-63.2678
 20
-56.6273
 30
0.0
  0
VERTEX
  5
7A1
  8
LAYER_1
 62
   250
 10
-63.23897792060485
 20
-56.91993548302419
 30
0.0
  0
VERTEX
  5
7A2
  8
LAYER_1
 62
   250
 10
-63.15361929876693
 20
-57.20132514854763
 30
0.0
  0
VERTEX
  5
7A3
  8
LAYER_1
 62
   250
 10
-63.01500441845382
 20
-57.4606553495294
 30
0.0
  0
VERTEX
  5
7A4
  8
LAYER_1
 62
   250
 10
-62.82846017177982
 20
-57.68796017177982
 30
0.0
  0
VERTEX
  5
7A5
  8
LAYER_1
 62
   250
 10
-62.60115534952941
 20
-57.87450441845382
 30
0.0
  0
VERTEX
  5
7A6
  8
LAYER_1
 62
   250
 10
-62.34182514854763
 20
-58.01311929876693
 30
0.0
  0
VERTEX
  5
7A7
  8
LAYER_1
 62
   250
 10
-62.06043548302419
 20
-58.09847792060484
 30
0.0
  0
VERTEX
  5
7A8
  8
LAYER_1
 62
   250
 10
-61.7678
 20
-58.1273
 30
0.0
  0
VERTEX
  5
7A9
  8
LAYER_1
 62
   250
 10
-61.47516451697581
 20
-58.09847792060484
 30
0.0
  0
VERTEX
  5
7AA
  8
LAYER_1
 62
   250
 10
-61.19377485145237
 20
-58.01311929876693
 30
0.0
  0
VERTEX
  5
7AB
  8
LAYER_1
 62
   250
 10
-60.9344446504706
 20
-57.87450441845382
 30
0.0
  0
VERTEX
  5
7AC
  8
LAYER_1
 62
   250
 10
-60.70713982822018
 20
-57.68796017177982
 30
0.0
  0
VERTEX
  5
7AD
  8
LAYER_1
 62
   250
 10
-60.52059558154618
 20
-57.4606553495294
 30
0.0
  0
VERTEX
  5
7AE
  8
LAYER_1
 62
   250
 10
-60.38198070123307
 20
-57.20132514854763
 30
0.0
  0
VERTEX
  5
7AF
  8
LAYER_1
 62
   250
 10
-60.29662207939516
 20
-56.91993548302419
 30
0.0
  0
VERTEX
  5
7B0
  8
LAYER_1
 62
   250
 10
-60.2678
 20
-56.62729999999999
 30
0.0
  0
VERTEX
  5
7B1
  8
LAYER_1
 62
   250
 10
-60.29662207939516
 20
-56.3346645169758
 30
0.0
  0
VERTEX
  5
7B2
  8
LAYER_1
 62
   250
 10
-60.38198070123308
 20
-56.05327485145236
 30
0.0
  0
VERTEX
  5
7B3
  8
LAYER_1
 62
   250
 10
-60.52059558154619
 20
-55.79394465047059
 30
0.0
  0
VERTEX
  5
7B4
  8
LAYER_1
 62
   250
 10
-60.70713982822019
 20
-55.56663982822018
 30
0.0
  0
VERTEX
  5
7B5
  8
LAYER_1
 62
   250
 10
-60.9344446504706
 20
-55.38009558154618
 30
0.0
  0
VERTEX
  5
7B6
  8
LAYER_1
 62
   250
 10
-61.19377485145237
 20
-55.24148070123307
 30
0.0
  0
VERTEX
  5
7B7
  8
LAYER_1
 62
   250
 10
-61.47516451697582
 20
-55.15612207939515
 30
0.0
  0
SEQEND
  5
7B8
  8
LAYER_1
 62
   250
  0
POLYLINE
  5
F4
  8
LAYER_1
 66
     1
 10
0.0
 20
0.0
 30
0.0
  0
VERTEX
  5
7B9
  8
LAYER_1
 10
-1.708
 20
126.1822
 30
0.0
  0
VERTEX
  5
7BA
  8
LAYER_1
 10
-1.708
 20
123.1836
 30
0.0
  0
SEQEND
  5
7BB
  8
LAYER_1
  0
POLYLINE
  5
F5
  8
LAYER_1
 66
     1
 10
0.0
 20
0.0
 30
0.0
  0
VERTEX
  5
7BC
  8
LAYER_1
 10
-1.708
 20
126.1822
 30
0.0
  0
VERTEX
  5
7BD
  8
LAYER_1
 10
-16.8492
 20
126.1822
 30
0.0
  0
SEQEND
  5
7BE
  8
LAYER_1
  0
POLYLINE
  5
F6
  8
LAYER_1
 66
     1
 10
0.0
 20
0.0
 30
0.0
  0
VERTEX
  5
7BF
  8
LAYER_1
 10
-16.8492
 20
126.1822
 30
0.0
  0
VERTEX
  5
7C0
  8
LAYER_1
 10
-16.8492
 20
123.1836
 30
0.0
  0
SEQEND
  5
7C1
  8
LAYER_1
  0
POLYLINE
  5
F7
  8
LAYER_1
 62
   250
 66
     1
 10
0.0
 20
0.0
 30
0.0
  0
VERTEX
  5
7C2
  8
LAYER_1
 62
   250
 10
-43.4671
 20
123.1836
 30
0.0
  0
VERTEX
  5
7C3
  8
LAYER_1
 62
   250
 10
-16.8492
 20
123.1836
 30
0.0
  0
SEQEND
  5
7C4
  8
LAYER_1
 62
   250
  0
POLYLINE
  5
F8
  8
LAYER_1
 62
   250
 66
     1
 10
0.0
 20
0.0
 30
0.0
  0
VERTEX
  5
7C5
  8
LAYER_1
 62
   250
 10
-1.708
 20
123.1836
 30
0.0
  0
VERTEX
  5
7C6
  8
LAYER_1
 62
   250
 10
5.5066
 20
123.1836
 30
0.0
  0
SEQEND
  5
7C7
  8
LAYER_1
 62
   250
  0
POLYLINE
  5
F9
  8
LAYER_1
 66
     1
 10
0.0
 20
0.0
 30
0.0
  0
VERTEX
  5
7C8
  8
LAYER_1
 10
-1.708
 20
96.182
 30
0.0
  0
VERTEX
  5
7C9
  8
LAYER_1
 10
-1.708
 20
99.1806
 30
0.0
  0
SEQEND
  5
7CA
  8
LAYER_1
  0
POLYLINE
  5
FA
  8
LAYER_1
 66
     1
 10
0.0
 20
0.0
 30
0.0
  0
VERTEX
  5
7CB
  8
LAYER_1
 10
-1.708
 20
96.182
 30
0.0
  0
VERTEX
  5
7CC
  8
LAYER_1
 10
-16.8492
 20
96.182
 30
0.0
  0
SEQEND
  5
7CD
  8
LAYER_1
  0
POLYLINE
  5
FB
  8
LAYER_1
 66
     1
 10
0.0
 20
0.0
 30
0.0
  0
VERTEX
  5
7CE
  8
LAYER_1
 10
-16.8492
 20
96.182
 30
0.0
  0
VERTEX
  5
7CF
  8
LAYER_1
 10
-16.8492
 20
99.1806
 30
0.0
  0
SEQEND
  5
7D0
  8
LAYER_1
  0
POLYLINE
  5
FC
  8
LAYER_1
 66
     1
 10
0.0
 20
0.0
 30
0.0
  0
VERTEX
  5
7D1
  8
LAYER_1
 10
-51.7077
 20
96.182
 30
0.0
  0
VERTEX
  5
7D2
  8
LAYER_1
 10
-51.7077
 20
99.1806
 30
0.0
  0
SEQEND
  5
7D3
  8
LAYER_1
  0
POLYLINE
  5
FD
  8
LAYER_1
 66
     1
 10
0.0
 20
0.0
 30
0.0
  0
VERTEX
  5
7D4
  8
LAYER_1
 10
-51.7077
 20
96.182
 30
0.0
  0
VERTEX
  5
7D5
  8
LAYER_1
 10
-66.8489
 20
96.182
 30
0.0
  0
SEQEND
  5
7D6
  8
LAYER_1
  0
POLYLINE
  5
FE
  8
LAYER_1
 66
     1
 10
0.0
 20
0.0
 30
0.0
  0
VERTEX
  5
7D7
  8
LAYER_1
 10
-66.8489
 20
96.182
 30
0.0
  0
VERTEX
  5
7D8
  8
LAYER_1
 10
-66.8489
 20
99.1806
 30
0.0
  0
SEQEND
  5
7D9
  8
LAYER_1
  0
POLYLINE
  5
FF
  8
LAYER_1
 62
   250
 66
     1
 10
0.0
 20
0.0
 30
0.0
  0
VERTEX
  5
7DA
  8
LAYER_1
 62
   250
 10
-51.7077
 20
99.1806
 30
0.0
  0
VERTEX
  5
7DB
  8
LAYER_1
 62
   250
 10
-16.8492
 20
99.1806
 30
0.0
  0
SEQEND
  5
7DC
  8
LAYER_1
 62
   250
  0
POLYLINE
  5
100
  8
LAYER_1
 62
   250
 66
     1
 10
0.0
 20
0.0
 30
0.0
  0
VERTEX
  5
7DD
  8
LAYER_1
 62
   250
 10
-1.708
 20
99.1806
 30
0.0
  0
VERTEX
  5
7DE
  8
LAYER_1
 62
   250
 10
15.7214
 20
99.1806
 30
0.0
  0
SEQEND
  5
7DF
  8
LAYER_1
 62
   250
  0
POLYLINE
  5
101
  8
LAYER_1
 62
   250
 66
     1
 10
0.0
 20
0.0
 30
0.0
  0
VERTEX
  5
7E0
  8
LAYER_1
 62
   250
 10
-66.8489
 20
99.1806
 30
0.0
  0
VERTEX
  5
7E1
  8
LAYER_1
 62
   250
 10
-84.278
 20
99.1806
 30
0.0
  0
SEQEND
  5
7E2
  8
LAYER_1
 62
   250
  0
POLYLINE
  5
102
  8
LAYER_1
 62
   250
 66
     1
 10
0.0
 20
0.0
 30
0.0
  0
VERTEX
  5
7E3
  8
LAYER_1
 62
   250
 10
-84.278
 20
99.1806
 30
0.0
  0
VERTEX
  5
7E4
  8
LAYER_1
 62
   250
 10
-84.278
 20
123.1836
 30
0.0
  0
SEQEND
  5
7E5
  8
LAYER_1
 62
   250
  0
POLYLINE
  5
103
  8
LAYER_1
 62
   250
 66
     1
 10
0.0
 20
0.0
 30
0.0
  0
VERTEX
  5
7E6
  8
LAYER_1
 62
   250
 10
15.7214
 20
99.1806
 30
0.0
  0
VERTEX
  5
7E7
  8
LAYER_1
 62
   250
 10
15.7214
 20
123.1836
 30
0.0
  0
SEQEND
  5
7E8
  8
LAYER_1
 62
   250
  0
POLYLINE
  5
104
  8
LAYER_1
 62
   250
 66
     1
 10
0.0
 20
0.0
 30
0.0
  0
VERTEX
  5
7E9
  8
LAYER_1
 62
   250
 10
-45.6425
 20
119.9851
 30
0.0
  0
VERTEX
  5
7EA
  8
LAYER_1
 62
   250
 10
-45.6425
 20
111.1836
 30
0.0
  0
VERTEX
  5
7EB
  8
LAYER_1
 62
   250
 10
-48.6425
 20
111.1836
 30
0.0
  0
VERTEX
  5
7EC
  8
LAYER_1
 62
   250
 10
-48.6425
 20
119.9851
 30
0.0
  0
SEQEND
  5
7ED
  8
LAYER_1
 62
   250
  0
POLYLINE
  5
105
  8
LAYER_1
 62
   250
 66
     1
 10
0.0
 20
0.0
 30
0.0
  0
VERTEX
  5
7EE
  8
LAYER_1
 62
   250
 10
-80.9656
 20
123.1836
 30
0.0
  0
VERTEX
  5
7EF
  8
LAYER_1
 62
   250
 10
-84.278
 20
123.1836
 30
0.0
  0
SEQEND
  5
7F0
  8
LAYER_1
 62
   250
  0
POLYLINE
  5
106
  8
LAYER_1
 62
   250
 66
     1
 10
0.0
 20
0.0
 30
0.0
  0
VERTEX
  5
7F1
  8
LAYER_1
 62
   250
 10
-80.9656
 20
123.1836
 30
0.0
  0
VERTEX
  5
7F2
  8
LAYER_1
 62
   250
 10
-80.9656
 20
119.9851
 30
0.0
  0
VERTEX
  5
7F3
  8
LAYER_1
 62
   250
 10
-48.6425
 20
119.9851
 30
0.0
  0
SEQEND
  5
7F4
  8
LAYER_1
 62
   250
  0
POLYLINE
  5
107
  8
LAYER_1
 62
   250
 66
     1
 10
0.0
 20
0.0
 30
0.0
  0
VERTEX
  5
7F5
  8
LAYER_1
 62
   250
 10
-45.6425
 20
119.9851
 30
0.0
  0
VERTEX
  5
7F6
  8
LAYER_1
 62
   250
 10
-43.4671
 20
119.9851
 30
0.0
  0
VERTEX
  5
7F7
  8
LAYER_1
 62
   250
 10
-43.4671
 20
123.1836
 30
0.0
  0
SEQEND
  5
7F8
  8
LAYER_1
 62
   250
  0
POLYLINE
  5
108
  8
LAYER_1
 62
   250
 66
     1
 10
0.0
 20
0.0
 30
0.0
  0
VERTEX
  5
7F9
  8
LAYER_1
 62
   250
 10
5.5066
 20
123.1836
 30
0.0
  0
VERTEX
  5
7FA
  8
LAYER_1
 62
   250
 10
15.7214
 20
123.1836
 30
0.0
  0
SEQEND
  5
7FB
  8
LAYER_1
 62
   250
  0
POLYLINE
  5
109
  8
LAYER_1
 66
     1
 10
0.0
 20
0.0
 30
0.0
  0
VERTEX
  5
7FC
  8
LAYER_1
 10
4.1169
 20
-13.132
 30
0.0
  0
VERTEX
  5
7FD
  8
LAYER_1
 10
31.1185
 20
-13.132
 30
0.0
  0
SEQEND
  5
7FE
  8
LAYER_1
  0
POLYLINE
  5
10A
  8
LAYER_1
 66
     1
 10
0.0
 20
0.0
 30
0.0
  0
VERTEX
  5
7FF
  8
LAYER_1
 10
4.1169
 20
92.8671
 30
0.0
  0
VERTEX
  5
800
  8
LAYER_1
 10
31.1185
 20
92.8671
 30
0.0
  0
SEQEND
  5
801
  8
LAYER_1
  0
POLYLINE
  5
10B
  8
LAYER_1
 66
     1
 10
0.0
 20
0.0
 30
0.0
  0
VERTEX
  5
802
  8
LAYER_1
 10
4.1169
 20
-13.132
 30
0.0
  0
VERTEX
  5
803
  8
LAYER_1
 10
4.1169
 20
2.0092
 30
0.0
  0
SEQEND
  5
804
  8
LAYER_1
  0
POLYLINE
  5
10C
  8
LAYER_1
 66
     1
 10
0.0
 20
0.0
 30
0.0
  0
VERTEX
  5
805
  8
LAYER_1
 10
7.1155
 20
2.0092
 30
0.0
  0
VERTEX
  5
806
  8
LAYER_1
 10
4.1169
 20
2.0092
 30
0.0
  0
SEQEND
  5
807
  8
LAYER_1
  0
POLYLINE
  5
10D
  8
LAYER_1
 66
     1
 10
0.0
 20
0.0
 30
0.0
  0
VERTEX
  5
808
  8
LAYER_1
 10
7.1155
 20
11.2262
 30
0.0
  0
VERTEX
  5
809
  8
LAYER_1
 10
7.1155
 20
17.1504
 30
0.0
  0
SEQEND
  5
80A
  8
LAYER_1
  0
POLYLINE
  5
10E
  8
LAYER_1
 66
     1
 10
0.0
 20
0.0
 30
0.0
  0
VERTEX
  5
80B
  8
LAYER_1
 10
7.1155
 20
17.1504
 30
0.0
  0
VERTEX
  5
80C
  8
LAYER_1
 10
4.1169
 20
17.1504
 30
0.0
  0
SEQEND
  5
80D
  8
LAYER_1
  0
POLYLINE
  5
10F
  8
LAYER_1
 66
     1
 10
0.0
 20
0.0
 30
0.0
  0
VERTEX
  5
80E
  8
LAYER_1
 10
4.1169
 20
17.1504
 30
0.0
  0
VERTEX
  5
80F
  8
LAYER_1
 10
4.1169
 20
32.2952
 30
0.0
  0
SEQEND
  5
810
  8
LAYER_1
  0
POLYLINE
  5
110
  8
LAYER_1
 66
     1
 10
0.0
 20
0.0
 30
0.0
  0
VERTEX
  5
811
  8
LAYER_1
 10
7.1155
 20
32.2952
 30
0.0
  0
VERTEX
  5
812
  8
LAYER_1
 10
4.1169
 20
32.2952
 30
0.0
  0
SEQEND
  5
813
  8
LAYER_1
  0
POLYLINE
  5
111
  8
LAYER_1
 66
     1
 10
0.0
 20
0.0
 30
0.0
  0
VERTEX
  5
814
  8
LAYER_1
 10
7.1155
 20
32.2952
 30
0.0
  0
VERTEX
  5
815
  8
LAYER_1
 10
7.1155
 20
47.4364
 30
0.0
  0
SEQEND
  5
816
  8
LAYER_1
  0
POLYLINE
  5
112
  8
LAYER_1
 66
     1
 10
0.0
 20
0.0
 30
0.0
  0
VERTEX
  5
817
  8
LAYER_1
 10
7.1155
 20
47.4364
 30
0.0
  0
VERTEX
  5
818
  8
LAYER_1
 10
4.1169
 20
47.4364
 30
0.0
  0
SEQEND
  5
819
  8
LAYER_1
  0
POLYLINE
  5
113
  8
LAYER_1
 66
     1
 10
0.0
 20
0.0
 30
0.0
  0
VERTEX
  5
81A
  8
LAYER_1
 10
4.1169
 20
47.4364
 30
0.0
  0
VERTEX
  5
81B
  8
LAYER_1
 10
4.1169
 20
62.5812
 30
0.0
  0
SEQEND
  5
81C
  8
LAYER_1
  0
POLYLINE
  5
114
  8
LAYER_1
 66
     1
 10
0.0
 20
0.0
 30
0.0
  0
VERTEX
  5
81D
  8
LAYER_1
 10
7.1155
 20
62.5812
 30
0.0
  0
VERTEX
  5
81E
  8
LAYER_1
 10
4.1169
 20
62.5812
 30
0.0
  0
SEQEND
  5
81F
  8
LAYER_1
  0
POLYLINE
  5
115
  8
LAYER_1
 66
     1
 10
0.0
 20
0.0
 30
0.0
  0
VERTEX
  5
820
  8
LAYER_1
 10
7.1155
 20
71.6518
 30
0.0
  0
VERTEX
  5
821
  8
LAYER_1
 10
7.1155
 20
77.7224
 30
0.0
  0
SEQEND
  5
822
  8
LAYER_1
  0
POLYLINE
  5
116
  8
LAYER_1
 66
     1
 10
0.0
 20
0.0
 30
0.0
  0
VERTEX
  5
823
  8
LAYER_1
 10
7.1155
 20
77.7224
 30
0.0
  0
VERTEX
  5
824
  8
LAYER_1
 10
4.1169
 20
77.7224
 30
0.0
  0
SEQEND
  5
825
  8
LAYER_1
  0
POLYLINE
  5
117
  8
LAYER_1
 66
     1
 10
0.0
 20
0.0
 30
0.0
  0
VERTEX
  5
826
  8
LAYER_1
 10
4.1169
 20
77.7224
 30
0.0
  0
VERTEX
  5
827
  8
LAYER_1
 10
4.1169
 20
92.8671
 30
0.0
  0
SEQEND
  5
828
  8
LAYER_1
  0
POLYLINE
  5
118
  8
LAYER_1
 66
     1
 10
0.0
 20
0.0
 30
0.0
  0
VERTEX
  5
829
  8
LAYER_1
 10
31.1185
 20
-4.0614
 30
0.0
  0
VERTEX
  5
82A
  8
LAYER_1
 10
31.1185
 20
2.0092
 30
0.0
  0
SEQEND
  5
82B
  8
LAYER_1
  0
POLYLINE
  5
119
  8
LAYER_1
 66
     1
 10
0.0
 20
0.0
 30
0.0
  0
VERTEX
  5
82C
  8
LAYER_1
 10
34.1171
 20
2.0092
 30
0.0
  0
VERTEX
  5
82D
  8
LAYER_1
 10
31.1185
 20
2.0092
 30
0.0
  0
SEQEND
  5
82E
  8
LAYER_1
  0
POLYLINE
  5
11A
  8
LAYER_1
 66
     1
 10
0.0
 20
0.0
 30
0.0
  0
VERTEX
  5
82F
  8
LAYER_1
 10
34.1171
 20
2.0092
 30
0.0
  0
VERTEX
  5
830
  8
LAYER_1
 10
34.1171
 20
17.1504
 30
0.0
  0
SEQEND
  5
831
  8
LAYER_1
  0
POLYLINE
  5
11B
  8
LAYER_1
 66
     1
 10
0.0
 20
0.0
 30
0.0
  0
VERTEX
  5
832
  8
LAYER_1
 10
34.1171
 20
17.1504
 30
0.0
  0
VERTEX
  5
833
  8
LAYER_1
 10
31.1185
 20
17.1504
 30
0.0
  0
SEQEND
  5
834
  8
LAYER_1
  0
POLYLINE
  5
11C
  8
LAYER_1
 66
     1
 10
0.0
 20
0.0
 30
0.0
  0
VERTEX
  5
835
  8
LAYER_1
 10
31.1185
 20
17.1504
 30
0.0
  0
VERTEX
  5
836
  8
LAYER_1
 10
31.1185
 20
32.2952
 30
0.0
  0
SEQEND
  5
837
  8
LAYER_1
  0
POLYLINE
  5
11D
  8
LAYER_1
 66
     1
 10
0.0
 20
0.0
 30
0.0
  0
VERTEX
  5
838
  8
LAYER_1
 10
34.1171
 20
32.2952
 30
0.0
  0
VERTEX
  5
839
  8
LAYER_1
 10
31.1185
 20
32.2952
 30
0.0
  0
SEQEND
  5
83A
  8
LAYER_1
  0
POLYLINE
  5
11E
  8
LAYER_1
 66
     1
 10
0.0
 20
0.0
 30
0.0
  0
VERTEX
  5
83B
  8
LAYER_1
 10
34.1171
 20
32.2952
 30
0.0
  0
VERTEX
  5
83C
  8
LAYER_1
 10
34.1171
 20
47.4364
 30
0.0
  0
SEQEND
  5
83D
  8
LAYER_1
  0
POLYLINE
  5
11F
  8
LAYER_1
 66
     1
 10
0.0
 20
0.0
 30
0.0
  0
VERTEX
  5
83E
  8
LAYER_1
 10
34.1171
 20
47.4364
 30
0.0
  0
VERTEX
  5
83F
  8
LAYER_1
 10
31.1185
 20
47.4364
 30
0.0
  0
SEQEND
  5
840
  8
LAYER_1
  0
POLYLINE
  5
120
  8
LAYER_1
 66
     1
 10
0.0
 20
0.0
 30
0.0
  0
VERTEX
  5
841
  8
LAYER_1
 10
31.1185
 20
47.4364
 30
0.0
  0
VERTEX
  5
842
  8
LAYER_1
 10
31.1185
 20
62.5812
 30
0.0
  0
SEQEND
  5
843
  8
LAYER_1
  0
POLYLINE
  5
121
  8
LAYER_1
 66
     1
 10
0.0
 20
0.0
 30
0.0
  0
VERTEX
  5
844
  8
LAYER_1
 10
34.1171
 20
62.5812
 30
0.0
  0
VERTEX
  5
845
  8
LAYER_1
 10
31.1185
 20
62.5812
 30
0.0
  0
SEQEND
  5
846
  8
LAYER_1
  0
POLYLINE
  5
122
  8
LAYER_1
 66
     1
 10
0.0
 20
0.0
 30
0.0
  0
VERTEX
  5
847
  8
LAYER_1
 10
34.1171
 20
62.5812
 30
0.0
  0
VERTEX
  5
848
  8
LAYER_1
 10
34.1171
 20
77.7224
 30
0.0
  0
SEQEND
  5
849
  8
LAYER_1
  0
POLYLINE
  5
123
  8
LAYER_1
 66
     1
 10
0.0
 20
0.0
 30
0.0
  0
VERTEX
  5
84A
  8
LAYER_1
 10
34.1171
 20
77.7224
 30
0.0
  0
VERTEX
  5
84B
  8
LAYER_1
 10
31.1185
 20
77.7224
 30
0.0
  0
SEQEND
  5
84C
  8
LAYER_1
  0
POLYLINE
  5
124
  8
LAYER_1
 66
     1
 10
0.0
 20
0.0
 30
0.0
  0
VERTEX
  5
84D
  8
LAYER_1
 10
31.1185
 20
86.793
 30
0.0
  0
VERTEX
  5
84E
  8
LAYER_1
 10
31.1185
 20
92.8671
 30
0.0
  0
SEQEND
  5
84F
  8
LAYER_1
  0
POLYLINE
  5
125
  8
LAYER_1
 66
     1
 10
0.0
 20
0.0
 30
0.0
  0
VERTEX
  5
850
  8
LAYER_1
 10
7.1155
 20
68.6518
 30
0.0
  0
VERTEX
  5
851
  8
LAYER_1
 10
11.07
 20
68.6518
 30
0.0
  0
VERTEX
  5
852
  8
LAYER_1
 10
11.07
 20
67.6018
 30
0.0
  0
VERTEX
  5
853
  8
LAYER_1
 10
13.17
 20
67.6018
 30
0.0
  0
VERTEX
  5
854
  8
LAYER_1
 10
13.17
 20
68.6518
 30
0.0
  0
VERTEX
  5
855
  8
LAYER_1
 10
17.1155
 20
68.6518
 30
0.0
  0
VERTEX
  5
856
  8
LAYER_1
 10
17.1155
 20
71.6518
 30
0.0
  0
VERTEX
  5
857
  8
LAYER_1
 10
13.17
 20
71.6518
 30
0.0
  0
VERTEX
  5
858
  8
LAYER_1
 10
13.17
 20
72.7018
 30
0.0
  0
VERTEX
  5
859
  8
LAYER_1
 10
11.07
 20
72.7018
 30
0.0
  0
VERTEX
  5
85A
  8
LAYER_1
 10
11.07
 20
71.6518
 30
0.0
  0
VERTEX
  5
85B
  8
LAYER_1
 10
7.1155
 20
71.6518
 30
0.0
  0
SEQEND
  5
85C
  8
LAYER_1
  0
POLYLINE
  5
126
  8
LAYER_1
 66
     1
 10
0.0
 20
0.0
 30
0.0
  0
VERTEX
  5
85D
  8
LAYER_1
 10
7.1155
 20
8.0798
 30
0.0
  0
VERTEX
  5
85E
  8
LAYER_1
 10
11.07
 20
8.0798
 30
0.0
  0
VERTEX
  5
85F
  8
LAYER_1
 10
11.07
 20
7.0298
 30
0.0
  0
VERTEX
  5
860
  8
LAYER_1
 10
13.17
 20
7.0298
 30
0.0
  0
VERTEX
  5
861
  8
LAYER_1
 10
13.17
 20
8.0798
 30
0.0
  0
VERTEX
  5
862
  8
LAYER_1
 10
17.1155
 20
8.0798
 30
0.0
  0
VERTEX
  5
863
  8
LAYER_1
 10
17.1155
 20
11.0798
 30
0.0
  0
VERTEX
  5
864
  8
LAYER_1
 10
13.17
 20
11.0798
 30
0.0
  0
VERTEX
  5
865
  8
LAYER_1
 10
13.17
 20
12.1298
 30
0.0
  0
VERTEX
  5
866
  8
LAYER_1
 10
11.07
 20
12.1298
 30
0.0
  0
VERTEX
  5
867
  8
LAYER_1
 10
11.07
 20
11.0798
 30
0.0
  0
VERTEX
  5
868
  8
LAYER_1
 10
7.1155
 20
11.0798
 30
0.0
  0
SEQEND
  5
869
  8
LAYER_1
  0
POLYLINE
  5
127
  8
LAYER_1
 66
     1
 10
0.0
 20
0.0
 30
0.0
  0
VERTEX
  5
86A
  8
LAYER_1
 10
31.1185
 20
-4.0614
 30
0.0
  0
VERTEX
  5
86B
  8
LAYER_1
 10
27.164
 20
-4.0614
 30
0.0
  0
VERTEX
  5
86C
  8
LAYER_1
 10
27.164
 20
-3.0114
 30
0.0
  0
VERTEX
  5
86D
  8
LAYER_1
 10
25.064
 20
-3.0114
 30
0.0
  0
VERTEX
  5
86E
  8
LAYER_1
 10
25.064
 20
-4.0614
 30
0.0
  0
VERTEX
  5
86F
  8
LAYER_1
 10
21.1185
 20
-4.0614
 30
0.0
  0
VERTEX
  5
870
  8
LAYER_1
 10
21.1185
 20
-7.0614
 30
0.0
  0
VERTEX
  5
871
  8
LAYER_1
 10
25.064
 20
-7.0614
 30
0.0
  0
VERTEX
  5
872
  8
LAYER_1
 10
25.064
 20
-8.1114
 30
0.0
  0
VERTEX
  5
873
  8
LAYER_1
 10
27.164
 20
-8.1114
 30
0.0
  0
VERTEX
  5
874
  8
LAYER_1
 10
27.164
 20
-7.0614
 30
0.0
  0
VERTEX
  5
875
  8
LAYER_1
 10
31.1185
 20
-7.0614
 30
0.0
  0
SEQEND
  5
876
  8
LAYER_1
  0
POLYLINE
  5
128
  8
LAYER_1
 66
     1
 10
0.0
 20
0.0
 30
0.0
  0
VERTEX
  5
877
  8
LAYER_1
 10
31.1185
 20
86.793
 30
0.0
  0
VERTEX
  5
878
  8
LAYER_1
 10
27.164
 20
86.793
 30
0.0
  0
VERTEX
  5
879
  8
LAYER_1
 10
27.164
 20
87.843
 30
0.0
  0
VERTEX
  5
87A
  8
LAYER_1
 10
25.064
 20
87.843
 30
0.0
  0
VERTEX
  5
87B
  8
LAYER_1
 10
25.064
 20
86.793
 30
0.0
  0
VERTEX
  5
87C
  8
LAYER_1
 10
21.1185
 20
86.793
 30
0.0
  0
VERTEX
  5
87D
  8
LAYER_1
 10
21.1185
 20
83.793
 30
0.0
  0
VERTEX
  5
87E
  8
LAYER_1
 10
25.064
 20
83.793
 30
0.0
  0
VERTEX
  5
87F
  8
LAYER_1
 10
25.064
 20
82.743
 30
0.0
  0
VERTEX
  5
880
  8
LAYER_1
 10
27.164
 20
82.743
 30
0.0
  0
VERTEX
  5
881
  8
LAYER_1
 10
27.164
 20
83.793
 30
0.0
  0
VERTEX
  5
882
  8
LAYER_1
 10
31.1185
 20
83.793
 30
0.0
  0
SEQEND
  5
883
  8
LAYER_1
  0
POLYLINE
  5
129
  8
LAYER_1
 62
   250
 66
     1
 10
0.0
 20
0.0
 30
0.0
  0
VERTEX
  5
884
  8
LAYER_1
 62
   250
 10
31.1185
 20
83.793
 30
0.0
  0
VERTEX
  5
885
  8
LAYER_1
 62
   250
 10
31.1185
 20
77.7224
 30
0.0
  0
SEQEND
  5
886
  8
LAYER_1
 62
   250
  0
POLYLINE
  5
12A
  8
LAYER_1
 62
   250
 66
     1
 10
0.0
 20
0.0
 30
0.0
  0
VERTEX
  5
887
  8
LAYER_1
 62
   250
 10
7.1155
 20
68.6518
 30
0.0
  0
VERTEX
  5
888
  8
LAYER_1
 62
   250
 10
7.1155
 20
62.5812
 30
0.0
  0
SEQEND
  5
889
  8
LAYER_1
 62
   250
  0
POLYLINE
  5
12B
  8
LAYER_1
 62
   250
 66
     1
 10
0.0
 20
0.0
 30
0.0
  0
VERTEX
  5
88A
  8
LAYER_1
 62
   250
 10
7.1155
 20
8.0798
 30
0.0
  0
VERTEX
  5
88B
  8
LAYER_1
 62
   250
 10
7.1155
 20
2.0092
 30
0.0
  0
SEQEND
  5
88C
  8
LAYER_1
 62
   250
  0
POLYLINE
  5
12C
  8
LAYER_1
 62
   250
 66
     1
 10
0.0
 20
0.0
 30
0.0
  0
VERTEX
  5
88D
  8
LAYER_1
 62
   250
 10
31.1185
 20
-7.0614
 30
0.0
  0
VERTEX
  5
88E
  8
LAYER_1
 62
   250
 10
31.1185
 20
-13.132
 30
0.0
  0
SEQEND
  5
88F
  8
LAYER_1
 62
   250
  0
POLYLINE
  5
12D
  8
LAYER_1
 62
   250
 66
     1
 10
0.0
 20
0.0
 30
0.0
 70
     1
  0
VERTEX
  5
890
  8
LAYER_1
 62
   250
 10
7.2563
 20
118.7581
 30
0.0
  0
VERTEX
  5
891
  8
LAYER_1
 62
   250
 10
6.963664516975808
 20
118.7292779206048
 30
0.0
  0
VERTEX
  5
892
  8
LAYER_1
 62
   250
 10
6.682274851452366
 20
118.6439192987669
 30
0.0
  0
VERTEX
  5
893
  8
LAYER_1
 62
   250
 10
6.422944650470598
 20
118.5053044184538
 30
0.0
  0
VERTEX
  5
894
  8
LAYER_1
 62
   250
 10
6.195639828220179
 20
118.3187601717798
 30
0.0
  0
VERTEX
  5
895
  8
LAYER_1
 62
   250
 10
6.009095581546182
 20
118.0914553495294
 30
0.0
  0
VERTEX
  5
896
  8
LAYER_1
 62
   250
 10
5.87048070123307
 20
117.8321251485476
 30
0.0
  0
VERTEX
  5
897
  8
LAYER_1
 62
   250
 10
5.785122079395155
 20
117.5507354830242
 30
0.0
  0
VERTEX
  5
898
  8
LAYER_1
 62
   250
 10
5.7563
 20
117.2581
 30
0.0
  0
VERTEX
  5
899
  8
LAYER_1
 62
   250
 10
5.785122079395155
 20
116.9654645169758
 30
0.0
  0
VERTEX
  5
89A
  8
LAYER_1
 62
   250
 10
5.87048070123307
 20
116.6840748514524
 30
0.0
  0
VERTEX
  5
89B
  8
LAYER_1
 62
   250
 10
6.009095581546182
 20
116.4247446504706
 30
0.0
  0
VERTEX
  5
89C
  8
LAYER_1
 62
   250
 10
6.195639828220179
 20
116.1974398282202
 30
0.0
  0
VERTEX
  5
89D
  8
LAYER_1
 62
   250
 10
6.422944650470598
 20
116.0108955815462
 30
0.0
  0
VERTEX
  5
89E
  8
LAYER_1
 62
   250
 10
6.682274851452366
 20
115.8722807012331
 30
0.0
  0
VERTEX
  5
89F
  8
LAYER_1
 62
   250
 10
6.963664516975808
 20
115.7869220793952
 30
0.0
  0
VERTEX
  5
8A0
  8
LAYER_1
 62
   250
 10
7.256300000000001
 20
115.7581
 30
0.0
  0
VERTEX
  5
8A1
  8
LAYER_1
 62
   250
 10
7.548935483024194
 20
115.7869220793952
 30
0.0
  0
VERTEX
  5
8A2
  8
LAYER_1
 62
   250
 10
7.830325148547637
 20
115.8722807012331
 30
0.0
  0
VERTEX
  5
8A3
  8
LAYER_1
 62
   250
 10
8.089655349529405
 20
116.0108955815462
 30
0.0
  0
VERTEX
  5
8A4
  8
LAYER_1
 62
   250
 10
8.316960171779824
 20
116.1974398282202
 30
0.0
  0
VERTEX
  5
8A5
  8
LAYER_1
 62
   250
 10
8.50350441845382
 20
116.4247446504706
 30
0.0
  0
VERTEX
  5
8A6
  8
LAYER_1
 62
   250
 10
8.642119298766932
 20
116.6840748514524
 30
0.0
  0
VERTEX
  5
8A7
  8
LAYER_1
 62
   250
 10
8.727477920604846
 20
116.9654645169758
 30
0.0
  0
VERTEX
  5
8A8
  8
LAYER_1
 62
   250
 10
8.7563
 20
117.2581
 30
0.0
  0
VERTEX
  5
8A9
  8
LAYER_1
 62
   250
 10
8.727477920604844
 20
117.5507354830242
 30
0.0
  0
VERTEX
  5
8AA
  8
LAYER_1
 62
   250
 10
8.642119298766929
 20
117.8321251485476
 30
0.0
  0
VERTEX
  5
8AB
  8
LAYER_1
 62
   250
 10
8.503504418453815
 20
118.0914553495294
 30
0.0
  0
VERTEX
  5
8AC
  8
LAYER_1
 62
   250
 10
8.316960171779819
 20
118.3187601717798
 30
0.0
  0
VERTEX
  5
8AD
  8
LAYER_1
 62
   250
 10
8.0896553495294
 20
118.5053044184538
 30
0.0
  0
VERTEX
  5
8AE
  8
LAYER_1
 62
   250
 10
7.83032514854763
 20
118.6439192987669
 30
0.0
  0
VERTEX
  5
8AF
  8
LAYER_1
 62
   250
 10
7.548935483024187
 20
118.7292779206048
 30
0.0
  0
SEQEND
  5
8B0
  8
LAYER_1
 62
   250
  0
POLYLINE
  5
12E
  8
LAYER_1
 62
   250
 66
     1
 10
0.0
 20
0.0
 30
0.0
 70
     1
  0
VERTEX
  5
8B1
  8
LAYER_1
 62
   250
 10
-48.5624
 20
-118.7246
 30
0.0
  0
VERTEX
  5
8B2
  8
LAYER_1
 62
   250
 10
-48.80626290252016
 20
-118.748618399496
 30
0.0
  0
VERTEX
  5
8B3
  8
LAYER_1
 62
   250
 10
-49.04075429045636
 20
-118.8197505843609
 30
0.0
  0
VERTEX
  5
8B4
  8
LAYER_1
 62
   250
 10
-49.2568627912745
 20
-118.9352629846218
 30
0.0
  0
VERTEX
  5
8B5
  8
LAYER_1
 62
   250
 10
-49.44628347648318
 20
-119.0907165235168
 30
0.0
  0
VERTEX
  5
8B6
  8
LAYER_1
 62
   250
 10
-49.60173701537818
 20
-119.2801372087255
 30
0.0
  0
VERTEX
  5
8B7
  8
LAYER_1
 62
   250
 10
-49.7172494156391
 20
-119.4962457095436
 30
0.0
  0
VERTEX
  5
8B8
  8
LAYER_1
 62
   250
 10
-49.78838160050403
 20
-119.7307370974798
 30
0.0
  0
VERTEX
  5
8B9
  8
LAYER_1
 62
   250
 10
-49.8124
 20
-119.9746
 30
0.0
  0
VERTEX
  5
8BA
  8
LAYER_1
 62
   250
 10
-49.78838160050403
 20
-120.2184629025202
 30
0.0
  0
VERTEX
  5
8BB
  8
LAYER_1
 62
   250
 10
-49.7172494156391
 20
-120.4529542904564
 30
0.0
  0
VERTEX
  5
8BC
  8
LAYER_1
 62
   250
 10
-49.60173701537818
 20
-120.6690627912745
 30
0.0
  0
VERTEX
  5
8BD
  8
LAYER_1
 62
   250
 10
-49.44628347648318
 20
-120.8584834764832
 30
0.0
  0
VERTEX
  5
8BE
  8
LAYER_1
 62
   250
 10
-49.2568627912745
 20
-121.0139370153782
 30
0.0
  0
VERTEX
  5
8BF
  8
LAYER_1
 62
   250
 10
-49.04075429045636
 20
-121.1294494156391
 30
0.0
  0
VERTEX
  5
8C0
  8
LAYER_1
 62
   250
 10
-48.80626290252015
 20
-121.200581600504
 30
0.0
  0
VERTEX
  5
8C1
  8
LAYER_1
 62
   250
 10
-48.5624
 20
-121.2246
 30
0.0
  0
VERTEX
  5
8C2
  8
LAYER_1
 62
   250
 10
-48.31853709747983
 20
-121.200581600504
 30
0.0
  0
VERTEX
  5
8C3
  8
LAYER_1
 62
   250
 10
-48.08404570954363
 20
-121.1294494156391
 30
0.0
  0
VERTEX
  5
8C4
  8
LAYER_1
 62
   250
 10
-47.86793720872549
 20
-121.0139370153782
 30
0.0
  0
VERTEX
  5
8C5
  8
LAYER_1
 62
   250
 10
-47.67851652351681
 20
-120.8584834764832
 30
0.0
  0
VERTEX
  5
8C6
  8
LAYER_1
 62
   250
 10
-47.52306298462182
 20
-120.6690627912745
 30
0.0
  0
VERTEX
  5
8C7
  8
LAYER_1
 62
   250
 10
-47.40755058436089
 20
-120.4529542904564
 30
0.0
  0
VERTEX
  5
8C8
  8
LAYER_1
 62
   250
 10
-47.33641839949595
 20
-120.2184629025202
 30
0.0
  0
VERTEX
  5
8C9
  8
LAYER_1
 62
   250
 10
-47.3124
 20
-119.9746
 30
0.0
  0
VERTEX
  5
8CA
  8
LAYER_1
 62
   250
 10
-47.33641839949596
 20
-119.7307370974798
 30
0.0
  0
VERTEX
  5
8CB
  8
LAYER_1
 62
   250
 10
-47.40755058436089
 20
-119.4962457095436
 30
0.0
  0
VERTEX
  5
8CC
  8
LAYER_1
 62
   250
 10
-47.52306298462182
 20
-119.2801372087255
 30
0.0
  0
VERTEX
  5
8CD
  8
LAYER_1
 62
   250
 10
-47.67851652351681
 20
-119.0907165235168
 30
0.0
  0
VERTEX
  5
8CE
  8
LAYER_1
 62
   250
 10
-47.8679372087255
 20
-118.9352629846218
 30
0.0
  0
VERTEX
  5
8CF
  8
LAYER_1
 62
   250
 10
-48.08404570954364
 20
-118.8197505843609
 30
0.0
  0
VERTEX
  5
8D0
  8
LAYER_1
 62
   250
 10
-48.31853709747984
 20
-118.748618399496
 30
0.0
  0
SEQEND
  5
8D1
  8
LAYER_1
 62
   250
  0
POLYLINE
  5
12F
  8
LAYER_1
 62
   250
 66
     1
 10
0.0
 20
0.0
 30
0.0
 70
     1
  0
VERTEX
  5
8D2
  8
LAYER_1
 62
   250
 10
-33.5624
 20
-118.7246
 30
0.0
  0
VERTEX
  5
8D3
  8
LAYER_1
 62
   250
 10
-33.80626290252016
 20
-118.748618399496
 30
0.0
  0
VERTEX
  5
8D4
  8
LAYER_1
 62
   250
 10
-34.04075429045636
 20
-118.8197505843609
 30
0.0
  0
VERTEX
  5
8D5
  8
LAYER_1
 62
   250
 10
-34.2568627912745
 20
-118.9352629846218
 30
0.0
  0
VERTEX
  5
8D6
  8
LAYER_1
 62
   250
 10
-34.44628347648318
 20
-119.0907165235168
 30
0.0
  0
VERTEX
  5
8D7
  8
LAYER_1
 62
   250
 10
-34.60173701537818
 20
-119.2801372087255
 30
0.0
  0
VERTEX
  5
8D8
  8
LAYER_1
 62
   250
 10
-34.7172494156391
 20
-119.4962457095436
 30
0.0
  0
VERTEX
  5
8D9
  8
LAYER_1
 62
   250
 10
-34.78838160050403
 20
-119.7307370974798
 30
0.0
  0
VERTEX
  5
8DA
  8
LAYER_1
 62
   250
 10
-34.8124
 20
-119.9746
 30
0.0
  0
VERTEX
  5
8DB
  8
LAYER_1
 62
   250
 10
-34.78838160050403
 20
-120.2184629025202
 30
0.0
  0
VERTEX
  5
8DC
  8
LAYER_1
 62
   250
 10
-34.7172494156391
 20
-120.4529542904564
 30
0.0
  0
VERTEX
  5
8DD
  8
LAYER_1
 62
   250
 10
-34.60173701537818
 20
-120.6690627912745
 30
0.0
  0
VERTEX
  5
8DE
  8
LAYER_1
 62
   250
 10
-34.44628347648318
 20
-120.8584834764832
 30
0.0
  0
VERTEX
  5
8DF
  8
LAYER_1
 62
   250
 10
-34.2568627912745
 20
-121.0139370153782
 30
0.0
  0
VERTEX
  5
8E0
  8
LAYER_1
 62
   250
 10
-34.04075429045636
 20
-121.1294494156391
 30
0.0
  0
VERTEX
  5
8E1
  8
LAYER_1
 62
   250
 10
-33.80626290252015
 20
-121.200581600504
 30
0.0
  0
VERTEX
  5
8E2
  8
LAYER_1
 62
   250
 10
-33.5624
 20
-121.2246
 30
0.0
  0
VERTEX
  5
8E3
  8
LAYER_1
 62
   250
 10
-33.31853709747983
 20
-121.200581600504
 30
0.0
  0
VERTEX
  5
8E4
  8
LAYER_1
 62
   250
 10
-33.08404570954363
 20
-121.1294494156391
 30
0.0
  0
VERTEX
  5
8E5
  8
LAYER_1
 62
   250
 10
-32.86793720872549
 20
-121.0139370153782
 30
0.0
  0
VERTEX
  5
8E6
  8
LAYER_1
 62
   250
 10
-32.67851652351681
 20
-120.8584834764832
 30
0.0
  0
VERTEX
  5
8E7
  8
LAYER_1
 62
   250
 10
-32.52306298462182
 20
-120.6690627912745
 30
0.0
  0
VERTEX
  5
8E8
  8
LAYER_1
 62
   250
 10
-32.40755058436089
 20
-120.4529542904564
 30
0.0
  0
VERTEX
  5
8E9
  8
LAYER_1
 62
   250
 10
-32.33641839949595
 20
-120.2184629025202
 30
0.0
  0
VERTEX
  5
8EA
  8
LAYER_1
 62
   250
 10
-32.3124
 20
-119.9746
 30
0.0
  0
VERTEX
  5
8EB
  8
LAYER_1
 62
   250
 10
-32.33641839949596
 20
-119.7307370974798
 30
0.0
  0
VERTEX
  5
8EC
  8
LAYER_1
 62
   250
 10
-32.40755058436089
 20
-119.4962457095436
 30
0.0
  0
VERTEX
  5
8ED
  8
LAYER_1
 62
   250
 10
-32.52306298462182
 20
-119.2801372087255
 30
0.0
  0
VERTEX
  5
8EE
  8
LAYER_1
 62
   250
 10
-32.67851652351681
 20
-119.0907165235168
 30
0.0
  0
VERTEX
  5
8EF
  8
LAYER_1
 62
   250
 10
-32.8679372087255
 20
-118.9352629846218
 30
0.0
  0
VERTEX
  5
8F0
  8
LAYER_1
 62
   250
 10
-33.08404570954364
 20
-118.8197505843609
 30
0.0
  0
VERTEX
  5
8F1
  8
LAYER_1
 62
   250
 10
-33.31853709747984
 20
-118.748618399496
 30
0.0
  0
SEQEND
  5
8F2
  8
LAYER_1
 62
   250
  0
ENDSEC
  0
EOF
