<?xml version="1.0" encoding="UTF-8"?>
<!DOCTYPE svg PUBLIC "-//W3C//DTD SVG 1.1//EN" "http://www.w3.org/Graphics/SVG/1.1/DTD/svg11.dtd">
<!-- Creator: CorelDRAW X5 -->
<svg xmlns="http://www.w3.org/2000/svg" xml:space="preserve" width="210mm" height="297mm" style="shape-rendering:geometricPrecision; text-rendering:geometricPrecision; image-rendering:optimizeQuality; fill-rule:evenodd; clip-rule:evenodd"
viewBox="0 0 21000 29700"
 xmlns:xlink="http://www.w3.org/1999/xlink">
 <defs>
  <style type="text/css">
   <![CDATA[
    .str0 {stroke:black;stroke-width:7.62}
    .str1 {stroke:#2B2A29;stroke-width:20}
    .str2 {stroke:black;stroke-width:35.28}
    .fil1 {fill:none}
    .fil0 {fill:none;fill-rule:nonzero}
    .fil2 {fill:black}
   ]]>
  </style>
 </defs>
 <g id="Layer_x0020_1">
  <metadata id="CorelCorpID_0Corel-Layer"/>
  <g id="_214098440">
   <line class="fil0 str0" x1="1293" y1="16347" x2="3159" y2= "16347" />
   <line class="fil0 str0" x1="3159" y1="16347" x2="3159" y2= "16647" />
   <line class="fil0 str0" x1="3159" y1="16647" x2="5326" y2= "16647" />
   <line class="fil0 str0" x1="5326" y1="16347" x2="5326" y2= "16647" />
   <line class="fil0 str0" x1="5326" y1="16347" x2="7192" y2= "16347" />
   <line class="fil0 str0" x1="1293" y1="13947" x2="3159" y2= "13947" />
   <line class="fil0 str0" x1="3159" y1="13648" x2="3159" y2= "13947" />
   <line class="fil0 str0" x1="3159" y1="13648" x2="5326" y2= "13648" />
   <line class="fil0 str0" x1="5326" y1="13648" x2="5326" y2= "13947" />
   <line class="fil0 str0" x1="5326" y1="13947" x2="7192" y2= "13947" />
   <line class="fil0 str0" x1="1293" y1="16347" x2="1293" y2= "13947" />
   <line class="fil0 str0" x1="7192" y1="16347" x2="7192" y2= "13947" />
  </g>
  <g id="_213649816">
   <line class="fil0 str0" x1="7631" y1="16269" x2="10331" y2= "16269" />
   <line class="fil0 str0" x1="7631" y1="5669" x2="10331" y2= "5669" />
   <line class="fil0 str0" x1="7631" y1="16269" x2="7631" y2= "14755" />
   <line class="fil0 str0" x1="7931" y1="14755" x2="7631" y2= "14755" />
   <line class="fil0 str0" x1="7931" y1="13833" x2="7931" y2= "13241" />
   <line class="fil0 str0" x1="7931" y1="13241" x2="7631" y2= "13241" />
   <line class="fil0 str0" x1="7631" y1="13241" x2="7631" y2= "11726" />
   <line class="fil0 str0" x1="7931" y1="11726" x2="7631" y2= "11726" />
   <line class="fil0 str0" x1="7931" y1="11726" x2="7931" y2= "10212" />
   <line class="fil0 str0" x1="7931" y1="10212" x2="7631" y2= "10212" />
   <line class="fil0 str0" x1="7631" y1="10212" x2="7631" y2= "8698" />
   <line class="fil0 str0" x1="7931" y1="8698" x2="7631" y2= "8698" />
   <line class="fil0 str0" x1="7931" y1="7791" x2="7931" y2= "7184" />
   <line class="fil0 str0" x1="7931" y1="7184" x2="7631" y2= "7184" />
   <line class="fil0 str0" x1="7631" y1="7184" x2="7631" y2= "5669" />
   <line class="fil0 str0" x1="10331" y1="15362" x2="10331" y2= "14755" />
   <line class="fil0 str0" x1="10631" y1="14755" x2="10331" y2= "14755" />
   <line class="fil0 str0" x1="10631" y1="14755" x2="10631" y2= "13241" />
   <line class="fil0 str0" x1="10631" y1="13241" x2="10331" y2= "13241" />
   <line class="fil0 str0" x1="10331" y1="13241" x2="10331" y2= "11726" />
   <line class="fil0 str0" x1="10631" y1="11726" x2="10331" y2= "11726" />
   <line class="fil0 str0" x1="10631" y1="11726" x2="10631" y2= "10212" />
   <line class="fil0 str0" x1="10631" y1="10212" x2="10331" y2= "10212" />
   <line class="fil0 str0" x1="10331" y1="10212" x2="10331" y2= "8698" />
   <line class="fil0 str0" x1="10631" y1="8698" x2="10331" y2= "8698" />
   <line class="fil0 str0" x1="10631" y1="8698" x2="10631" y2= "7184" />
   <line class="fil0 str0" x1="10631" y1="7184" x2="10331" y2= "7184" />
   <line class="fil0 str0" x1="10331" y1="6277" x2="10331" y2= "5669" />
   <polyline class="fil0 str0" points="7931,8091 8326,8091 8326,8196 8536,8196 8536,8091 8931,8091 8931,7791 8536,7791 8536,7686 8326,7686 8326,7791 7931,7791 "/>
   <polyline class="fil0 str0" points="7931,14148 8326,14148 8326,14253 8536,14253 8536,14148 8931,14148 8931,13848 8536,13848 8536,13743 8326,13743 8326,13848 7931,13848 "/>
   <polyline class="fil0 str0" points="10331,15362 9936,15362 9936,15257 9726,15257 9726,15362 9331,15362 9331,15662 9726,15662 9726,15767 9936,15767 9936,15662 10331,15662 "/>
   <polyline class="fil0 str0" points="10331,6277 9936,6277 9936,6172 9726,6172 9726,6277 9331,6277 9331,6577 9726,6577 9726,6682 9936,6682 9936,6577 10331,6577 "/>
   <line class="fil1 str1" x1="10331" y1="6577" x2="10331" y2= "7184" />
   <line class="fil1 str1" x1="7931" y1="8091" x2="7931" y2= "8698" />
   <line class="fil1 str1" x1="7931" y1="14148" x2="7931" y2= "14755" />
   <line class="fil1 str1" x1="10331" y1="15662" x2="10331" y2= "16269" />
  </g>
  <g id="_213648832">
   <line class="fil0 str0" x1="1293" y1="9817" x2="3159" y2= "9817" />
   <line class="fil0 str0" x1="3159" y1="9817" x2="3159" y2= "10117" />
   <line class="fil0 str0" x1="3159" y1="10117" x2="5326" y2= "10117" />
   <line class="fil0 str0" x1="5326" y1="9817" x2="5326" y2= "10117" />
   <line class="fil0 str0" x1="5326" y1="9817" x2="7192" y2= "9817" />
   <line class="fil0 str0" x1="1293" y1="7417" x2="3159" y2= "7417" />
   <line class="fil0 str0" x1="3159" y1="7117" x2="3159" y2= "7417" />
   <line class="fil0 str0" x1="3159" y1="7117" x2="5326" y2= "7117" />
   <line class="fil0 str0" x1="5326" y1="7117" x2="5326" y2= "7417" />
   <line class="fil0 str0" x1="5326" y1="7417" x2="7192" y2= "7417" />
   <line class="fil0 str0" x1="1293" y1="9817" x2="1293" y2= "7417" />
   <line class="fil0 str0" x1="7192" y1="9817" x2="7192" y2= "7417" />
   <circle class="fil1 str1" cx="5752" cy="8617" r="810"/>
  </g>
  <g id="_213645472">
   <line class="fil0 str0" x1="11280" y1="27637" x2="11280" y2= "27938" />
   <line class="fil0 str0" x1="11280" y1="27637" x2="13447" y2= "27637" />
   <line class="fil0 str0" x1="13447" y1="27637" x2="13447" y2= "27938" />
   <line class="fil0 str0" x1="11280" y1="17338" x2="11280" y2= "17638" />
   <line class="fil0 str0" x1="11280" y1="17638" x2="13447" y2= "17638" />
   <line class="fil0 str0" x1="13447" y1="17338" x2="13447" y2= "17638" />
   <line class="fil0 str0" x1="9414" y1="26423" x2="9114" y2= "26423" />
   <line class="fil0 str0" x1="9414" y1="24909" x2="9114" y2= "24909" />
   <line class="fil0 str0" x1="9414" y1="23395" x2="9114" y2= "23395" />
   <line class="fil0 str0" x1="9414" y1="21880" x2="9114" y2= "21880" />
   <line class="fil0 str0" x1="9414" y1="20366" x2="9114" y2= "20366" />
   <line class="fil0 str0" x1="9414" y1="18852" x2="9114" y2= "18852" />
   <line class="fil0 str0" x1="15614" y1="24909" x2="15314" y2= "24909" />
   <line class="fil0 str0" x1="15614" y1="23395" x2="15314" y2= "23395" />
   <line class="fil0 str0" x1="15614" y1="21880" x2="15314" y2= "21880" />
   <line class="fil0 str0" x1="15614" y1="20366" x2="15314" y2= "20366" />
   <rect class="fil1 str1" x="8814" y="17038" width="7100" height="11200" rx="373" ry="373"/>
   <line class="fil1 str1" x1="11280" y1="17338" x2="13447" y2= "17338" />
   <line class="fil1 str1" x1="13447" y1="27938" x2="11280" y2= "27938" />
   <rect class="fil1 str1" x="12494" y="24380" width="300" height="1514"/>
   <rect class="fil1 str1" x="12494" y="19381" width="300" height="1514"/>
   <rect class="fil1 str1" x="10389" y="21201" width="1000" height="300"/>
   <line class="fil0 str0" x1="15614" y1="26424" x2="15314" y2= "26424" />
   <line class="fil0 str0" x1="9414" y1="18852" x2="9114" y2= "18852" />
   <line class="fil0 str0" x1="9114" y1="24909" x2="9114" y2= "23395" />
   <line class="fil0 str0" x1="9114" y1="21880" x2="9114" y2= "20366" />
   <line class="fil1 str1" x1="9414" y1="20366" x2="9414" y2= "21880" />
   <line class="fil1 str1" x1="9414" y1="23395" x2="9414" y2= "24909" />
   <rect class="fil1 str1" x="9114" y="17338" width="300" height="1514"/>
   <rect class="fil1 str1" x="9114" y="26423" width="300" height="1514"/>
   <circle class="fil1 str1" cx="9264" cy="19609" r="150"/>
   <circle class="fil1 str1" cx="9264" cy="25666" r="150"/>
   <line class="fil0 str0" x1="15614" y1="26423" x2="15314" y2= "26423" />
   <line class="fil0 str0" x1="15614" y1="26423" x2="15614" y2= "24909" />
   <line class="fil0 str0" x1="15614" y1="23395" x2="15614" y2= "21880" />
   <line class="fil0 str0" x1="15614" y1="20366" x2="15614" y2= "18852" />
   <line class="fil0 str0" x1="15614" y1="18852" x2="15314" y2= "18852" />
   <line class="fil1 str1" x1="15314" y1="24909" x2="15314" y2= "26423" />
   <line class="fil1 str1" x1="15314" y1="23395" x2="15314" y2= "21880" />
   <line class="fil1 str1" x1="15314" y1="20366" x2="15314" y2= "18852" />
   <circle class="fil1 str1" cx="15464" cy="27180" r="150"/>
   <line class="fil0 str0" x1="15614" y1="18852" x2="15314" y2= "18852" />
   <circle class="fil1 str1" cx="15464" cy="18095" r="150"/>
   <line class="fil0 str0" x1="15614" y1="26424" x2="15314" y2= "26424" />
  </g>
  <line class="fil0 str0" x1="3620" y1="27637" x2="3620" y2= "27938" />
  <line class="fil0 str0" x1="3620" y1="27637" x2="5787" y2= "27637" />
  <line class="fil0 str0" x1="5787" y1="27637" x2="5787" y2= "27938" />
  <line class="fil0 str0" x1="3620" y1="17338" x2="3620" y2= "17638" />
  <line class="fil0 str0" x1="3620" y1="17638" x2="5787" y2= "17638" />
  <line class="fil0 str0" x1="5787" y1="17338" x2="5787" y2= "17638" />
  <line class="fil0 str0" x1="1754" y1="26423" x2="1454" y2= "26423" />
  <line class="fil0 str0" x1="1754" y1="26423" x2="1754" y2= "24909" />
  <line class="fil0 str0" x1="1754" y1="24909" x2="1454" y2= "24909" />
  <line class="fil0 str0" x1="1754" y1="23395" x2="1454" y2= "23395" />
  <line class="fil0 str0" x1="1754" y1="23395" x2="1754" y2= "21880" />
  <line class="fil0 str0" x1="1754" y1="21880" x2="1454" y2= "21880" />
  <line class="fil0 str0" x1="1754" y1="20366" x2="1454" y2= "20366" />
  <line class="fil0 str0" x1="1754" y1="20366" x2="1754" y2= "18852" />
  <line class="fil0 str0" x1="1754" y1="18852" x2="1454" y2= "18852" />
  <line class="fil0 str0" x1="7954" y1="24909" x2="7654" y2= "24909" />
  <line class="fil0 str0" x1="7654" y1="24909" x2="7654" y2= "23395" />
  <line class="fil0 str0" x1="7954" y1="23395" x2="7654" y2= "23395" />
  <line class="fil0 str0" x1="7954" y1="21880" x2="7654" y2= "21880" />
  <line class="fil0 str0" x1="7654" y1="21880" x2="7654" y2= "20366" />
  <line class="fil0 str0" x1="7954" y1="20366" x2="7654" y2= "20366" />
  <rect class="fil1 str1" x="1154" y="17038" width="7100" height="11200" rx="373" ry="373"/>
  <line class="fil1 str1" x1="1454" y1="24909" x2="1454" y2= "26423" />
  <line class="fil1 str1" x1="1454" y1="23395" x2="1454" y2= "21880" />
  <line class="fil1 str1" x1="1454" y1="20366" x2="1454" y2= "18852" />
  <line class="fil1 str1" x1="3620" y1="17338" x2="5787" y2= "17338" />
  <line class="fil1 str1" x1="7954" y1="20366" x2="7954" y2= "21880" />
  <line class="fil1 str1" x1="7954" y1="23395" x2="7954" y2= "24909" />
  <line class="fil1 str1" x1="5787" y1="27938" x2="3620" y2= "27938" />
  <rect class="fil1 str1" x="7654" y="17338" width="300" height="1514"/>
  <rect class="fil1 str1" x="7654" y="26423" width="300" height="1514"/>
  <rect class="fil1 str1" x="4834" y="24380" width="300" height="1514"/>
  <circle class="fil1 str1" cx="7804" cy="19609" r="150"/>
  <line class="fil0 str0" x1="7954" y1="26424" x2="7654" y2= "26424" />
  <circle class="fil1 str1" cx="7804" cy="25666" r="150"/>
  <circle class="fil1 str1" cx="1604" cy="27180" r="150"/>
  <line class="fil0 str0" x1="1754" y1="18852" x2="1454" y2= "18852" />
  <circle class="fil1 str1" cx="1604" cy="18095" r="150"/>
  <rect class="fil1 str1" x="5679" y="21201" width="1000" height="300"/>
  <circle class="fil1 str1" cx="3523" cy="18913" r="150"/>
  <circle class="fil1 str1" cx="3123" cy="19313" r="150"/>
  <circle class="fil1 str1" cx="3523" cy="19713" r="150"/>
  <circle class="fil1 str1" cx="2723" cy="18913" r="150"/>
  <circle class="fil1 str1" cx="2723" cy="19713" r="150"/>
  <circle class="fil1 str1" cx="6394" cy="24137" r="350"/>
  <rect class="fil1 str1" transform="matrix(2.81354E-014 -1.11545 0.743633 2.06795E-014 5993.76 27047.5)" width="359" height="1076"/>
  <path class="fil1 str2" d="M4014 22972c51,-50 134,-34 171,7 51,55 36,135 -6,174 -115,107 -287,-63 -166,-181zm-287 167c112,-109 284,70 166,181 -115,107 -287,-63 -166,-181zm-1757 1149l436 -437c32,34 70,60 106,92 27,24 81,73 106,90l329 -317 182 192c23,-14 192,-152 218,-176l272 297c136,-128 212,-199 394,-45 79,67 187,186 251,276l79 110c2,-8 1,-1 1,-13l9 -245c1,-30 12,-242 7,-264l11 -6c12,12 38,23 54,32l288 151c22,12 38,20 59,32l60 30c-18,-32 -38,-83 -54,-118 -54,-115 -181,-439 -99,-566 47,-73 144,-91 216,-113 -1,-16 -22,-71 -29,-93l-61 -192c-10,-32 -20,-71 -33,-99 34,-10 238,-89 261,-102l-76 -254 439 -125c-3,-33 -48,-259 -53,-276 18,-1 120,-31 145,-39 52,-15 101,-27 150,-40l301 -82c-26,-13 -377,-39 -438,-46 -51,-6 -98,-8 -149,-14 -50,-6 -96,-9 -145,-14 -50,-4 -98,-11 -149,-14 -100,-7 -195,-21 -294,-27 -32,66 -227,582 -262,673 -18,47 -33,89 -51,135l-80 204c-16,42 -13,53 -34,67 -40,-43 -90,-29 -106,-82l-150 -459c-11,23 -35,132 -57,192 -20,56 -30,145 -54,193 -19,5 -31,1 -49,-1 -16,-2 -32,-3 -49,-3 -184,-4 -174,142 -221,189 -53,-3 -135,-39 -194,-49l-98 -22c-33,-9 -65,-22 -97,-24l320 355c45,46 3,76 22,136 -26,12 -116,-9 -145,-14l-713 -109c-42,-7 -252,-41 -290,-44 -84,171 -221,482 -305,670 -21,48 -41,88 -62,136l-91 201c-10,22 -25,48 -27,69z"/>
  <circle class="fil2 str1" cx="5930" cy="26225" r="150"/>
  <g id="_212761520">
   <line class="fil0 str0" x1="1293" y1="10667" x2="2025" y2= "10667" />
   <line class="fil0 str0" x1="5218" y1="10368" x2="5218" y2= "10667" />
   <line class="fil0 str0" x1="5218" y1="10368" x2="6218" y2= "10368" />
   <line class="fil0 str0" x1="6218" y1="10368" x2="6218" y2= "10667" />
   <line class="fil0 str0" x1="6218" y1="10667" x2="7193" y2= "10667" />
   <line class="fil0 str0" x1="1293" y1="13067" x2="1293" y2= "10667" />
   <line class="fil0 str0" x1="7193" y1="11487" x2="7193" y2= "10667" />
   <line class="fil0 str0" x1="4373" y1="13067" x2="3268" y2= "13067" />
   <line class="fil0 str0" x1="3268" y1="13367" x2="3268" y2= "13067" />
   <line class="fil0 str0" x1="3268" y1="13367" x2="2268" y2= "13367" />
   <line class="fil0 str0" x1="2268" y1="13367" x2="2268" y2= "13067" />
   <line class="fil0 str0" x1="2268" y1="13067" x2="1293" y2= "13067" />
   <polyline class="fil1 str1" points="4373,13067 4373,11867 4673,11867 4673,12467 "/>
   <polyline class="fil1 str1" points="2025,10667 2025,10987 4961,10987 4961,10667 5218,10667 "/>
   <polyline class="fil1 str1" points="4673,12467 5273,12467 5273,11487 7193,11487 "/>
  </g>
  <circle class="fil1 str1" cx="4323" cy="18913" r="150"/>
  <circle class="fil1 str1" cx="3923" cy="19313" r="150"/>
  <circle class="fil1 str1" cx="4323" cy="19713" r="150"/>
  <circle class="fil1 str1" cx="3123" cy="20113" r="150"/>
  <circle class="fil1 str1" cx="3523" cy="20513" r="150"/>
  <circle class="fil1 str1" cx="2723" cy="19713" r="150"/>
  <circle class="fil1 str1" cx="2723" cy="20513" r="150"/>
  <circle class="fil1 str1" cx="3923" cy="20113" r="150"/>
  <circle class="fil1 str1" cx="4323" cy="20513" r="150"/>
  <line class="fil0 str0" x1="10329" y1="2232" x2="10329" y2= "2532" />
  <line class="fil0 str0" x1="10329" y1="2232" x2="8815" y2= "2232" />
  <line class="fil0 str0" x1="8815" y1="2232" x2="8815" y2= "2532" />
  <line class="fil1 str1" x1="6153" y1="2532" x2="8815" y2= "2532" />
  <line class="fil1 str1" x1="10329" y1="2532" x2="11051" y2= "2532" />
  <line class="fil0 str0" x1="10329" y1="5232" x2="10329" y2= "4932" />
  <line class="fil0 str0" x1="10329" y1="5232" x2="8815" y2= "5232" />
  <line class="fil0 str0" x1="8815" y1="5232" x2="8815" y2= "4932" />
  <line class="fil0 str0" x1="5329" y1="5232" x2="5329" y2= "4932" />
  <line class="fil0 str0" x1="5329" y1="5232" x2="3815" y2= "5232" />
  <line class="fil0 str0" x1="3815" y1="5232" x2="3815" y2= "4932" />
  <line class="fil1 str1" x1="5329" y1="4932" x2="8815" y2= "4932" />
  <line class="fil1 str1" x1="10329" y1="4932" x2="12072" y2= "4932" />
  <line class="fil1 str1" x1="3815" y1="4932" x2="2072" y2= "4932" />
  <line class="fil1 str1" x1="2072" y1="4932" x2="2072" y2= "2532" />
  <line class="fil1 str1" x1="12072" y1="4932" x2="12072" y2= "2532" />
  <polyline class="fil1 str1" points="5936,2851 5936,3732 5636,3732 5636,2851 "/>
  <line class="fil1 str1" x1="2403" y1="2532" x2="2072" y2= "2532" />
  <polyline class="fil1 str1" points="2403,2532 2403,2851 5636,2851 "/>
  <polyline class="fil1 str1" points="5936,2851 6153,2851 6153,2532 "/>
  <line class="fil1 str1" x1="11051" y1="2532" x2="12072" y2= "2532" />
  <g id="_207254856">
   <line class="fil0 str0" x1="10912" y1="16163" x2="13612" y2= "16163" />
   <line class="fil0 str0" x1="10912" y1="5563" x2="13612" y2= "5563" />
   <line class="fil0 str0" x1="10912" y1="16163" x2="10912" y2= "14649" />
   <line class="fil0 str0" x1="11212" y1="14649" x2="10912" y2= "14649" />
   <line class="fil0 str0" x1="11212" y1="13727" x2="11212" y2= "13135" />
   <line class="fil0 str0" x1="11212" y1="13135" x2="10912" y2= "13135" />
   <line class="fil0 str0" x1="10912" y1="13135" x2="10912" y2= "11620" />
   <line class="fil0 str0" x1="11212" y1="11620" x2="10912" y2= "11620" />
   <line class="fil0 str0" x1="11212" y1="11620" x2="11212" y2= "10106" />
   <line class="fil0 str0" x1="11212" y1="10106" x2="10912" y2= "10106" />
   <line class="fil0 str0" x1="10912" y1="10106" x2="10912" y2= "8592" />
   <line class="fil0 str0" x1="11212" y1="8592" x2="10912" y2= "8592" />
   <line class="fil0 str0" x1="11212" y1="7685" x2="11212" y2= "7078" />
   <line class="fil0 str0" x1="11212" y1="7078" x2="10912" y2= "7078" />
   <line class="fil0 str0" x1="10912" y1="7078" x2="10912" y2= "5563" />
   <line class="fil0 str0" x1="13612" y1="15256" x2="13612" y2= "14649" />
   <line class="fil0 str0" x1="13912" y1="14649" x2="13612" y2= "14649" />
   <line class="fil0 str0" x1="13912" y1="14649" x2="13912" y2= "13135" />
   <line class="fil0 str0" x1="13912" y1="13135" x2="13612" y2= "13135" />
   <line class="fil0 str0" x1="13612" y1="13135" x2="13612" y2= "11620" />
   <line class="fil0 str0" x1="13912" y1="11620" x2="13612" y2= "11620" />
   <line class="fil0 str0" x1="13912" y1="11620" x2="13912" y2= "10106" />
   <line class="fil0 str0" x1="13912" y1="10106" x2="13612" y2= "10106" />
   <line class="fil0 str0" x1="13612" y1="10106" x2="13612" y2= "8592" />
   <line class="fil0 str0" x1="13912" y1="8592" x2="13612" y2= "8592" />
   <line class="fil0 str0" x1="13912" y1="8592" x2="13912" y2= "7078" />
   <line class="fil0 str0" x1="13912" y1="7078" x2="13612" y2= "7078" />
   <line class="fil0 str0" x1="13612" y1="6171" x2="13612" y2= "5563" />
   <polyline class="fil0 str0" points="11212,7985 11607,7985 11607,8090 11817,8090 11817,7985 12212,7985 12212,7685 11817,7685 11817,7580 11607,7580 11607,7685 11212,7685 "/>
   <polyline class="fil0 str0" points="11212,14042 11607,14042 11607,14147 11817,14147 11817,14042 12212,14042 12212,13742 11817,13742 11817,13637 11607,13637 11607,13742 11212,13742 "/>
   <polyline class="fil0 str0" points="13612,15256 13216,15256 13216,15151 13006,15151 13006,15256 12612,15256 12612,15556 13006,15556 13006,15661 13216,15661 13216,15556 13612,15556 "/>
   <polyline class="fil0 str0" points="13612,6171 13216,6171 13216,6066 13006,6066 13006,6171 12612,6171 12612,6471 13006,6471 13006,6576 13216,6576 13216,6471 13612,6471 "/>
   <line class="fil1 str1" x1="13612" y1="6471" x2="13612" y2= "7078" />
   <line class="fil1 str1" x1="11212" y1="7985" x2="11212" y2= "8592" />
   <line class="fil1 str1" x1="11212" y1="14042" x2="11212" y2= "14649" />
   <line class="fil1 str1" x1="13612" y1="15556" x2="13612" y2= "16163" />
  </g>
  <circle class="fil1 str1" cx="11226" cy="3124" r="150"/>
  <circle class="fil1 str1" cx="5644" cy="26847" r="125"/>
  <circle class="fil1 str1" cx="7144" cy="26847" r="125"/>
 </g>
</svg>
