<?xml version="1.0" encoding="UTF-8" standalone="no"?>
<!-- Created with Inkscape (http://www.inkscape.org/) -->

<svg
   xmlns:dc="http://purl.org/dc/elements/1.1/"
   xmlns:cc="http://creativecommons.org/ns#"
   xmlns:rdf="http://www.w3.org/1999/02/22-rdf-syntax-ns#"
   xmlns:svg="http://www.w3.org/2000/svg"
   xmlns="http://www.w3.org/2000/svg"
   xmlns:sodipodi="http://sodipodi.sourceforge.net/DTD/sodipodi-0.dtd"
   xmlns:inkscape="http://www.inkscape.org/namespaces/inkscape"
   width="600mm"
   height="400mm"
   viewBox="0 0 600 400"
   version="1.1"
   id="svg8"
   inkscape:version="0.92.3 (2405546, 2018-03-11)"
   sodipodi:docname="Bat_Listener_2020_Headphones_Version_Enclosure.svg">
  <defs
     id="defs2" />
  <sodipodi:namedview
     id="base"
     pagecolor="#ffffff"
     bordercolor="#666666"
     borderopacity="1.0"
     inkscape:pageopacity="0.0"
     inkscape:pageshadow="2"
     inkscape:zoom="0.98994949"
     inkscape:cx="389.26041"
     inkscape:cy="1070.0828"
     inkscape:document-units="mm"
     inkscape:current-layer="layer1"
     showgrid="false"
     inkscape:window-width="1920"
     inkscape:window-height="1017"
     inkscape:window-x="-8"
     inkscape:window-y="-8"
     inkscape:window-maximized="1" />
  <metadata
     id="metadata5">
    <rdf:RDF>
      <cc:Work
         rdf:about="">
        <dc:format>image/svg+xml</dc:format>
        <dc:type
           rdf:resource="http://purl.org/dc/dcmitype/StillImage" />
        <dc:title></dc:title>
      </cc:Work>
    </rdf:RDF>
  </metadata>
  <g
     inkscape:label="Layer 1"
     inkscape:groupmode="layer"
     id="layer1"
     transform="translate(0,103)">
    <g
       id="Layer1000"
       transform="matrix(0.26458333,0,0,0.26458333,-443.27227,-85.341933)" />
    <g
       id="Layer1001"
       transform="matrix(0.26458333,0,0,0.26458333,-443.27227,-85.341933)" />
    <g
       id="Layer1002"
       transform="matrix(0.26458333,0,0,0.26458333,-443.27227,-85.341933)" />
    <g
       id="Layer1003"
       transform="matrix(0.26458333,0,0,0.26458333,-443.27227,-85.341933)" />
    <g
       id="Layer1004"
       transform="matrix(0.26458333,0,0,0.26458333,-443.27227,-85.341933)" />
    <g
       id="Layer1005"
       transform="matrix(0.26458333,0,0,0.26458333,-443.27227,-85.341933)" />
    <g
       id="Layer1006"
       transform="matrix(0.26458333,0,0,0.26458333,-443.27227,-85.341933)" />
    <g
       id="Layer1007"
       transform="matrix(0.26458333,0,0,0.26458333,-443.27227,-85.341933)" />
    <g
       id="Layer1008"
       transform="matrix(0.26458333,0,0,0.26458333,-443.27227,-85.341933)" />
    <g
       id="Layer1009"
       transform="matrix(0.26458333,0,0,0.26458333,-443.27227,-85.341933)" />
    <g
       id="Layer1010"
       transform="matrix(0.26458333,0,0,0.26458333,-443.27227,-85.341933)" />
    <g
       id="Layer1011"
       transform="matrix(0.26458333,0,0,0.26458333,-443.27227,-85.341933)" />
    <g
       id="Layer1012"
       transform="matrix(0.26458333,0,0,0.26458333,-443.27227,-85.341933)" />
    <g
       id="Layer1013"
       transform="matrix(0.26458333,0,0,0.26458333,-443.27227,-85.341933)" />
    <g
       id="Layer1014"
       transform="matrix(0.26458333,0,0,0.26458333,-443.27227,-85.341933)" />
    <g
       id="Layer1015"
       transform="matrix(0.26458333,0,0,0.26458333,-443.27227,-85.341933)" />
    <g
       id="Layer1016"
       transform="matrix(0.26458333,0,0,0.26458333,-443.27227,-85.341933)" />
    <g
       id="Layer1017"
       transform="matrix(0.26458333,0,0,0.26458333,-443.27227,-85.341933)" />
    <g
       id="Layer1018"
       transform="matrix(0.26458333,0,0,0.26458333,-443.27227,-85.341933)" />
    <g
       id="Layer1019"
       transform="matrix(0.26458333,0,0,0.26458333,-443.27227,-85.341933)" />
    <g
       id="Layer1020"
       transform="matrix(0.26458333,0,0,0.26458333,-443.27227,-85.341933)" />
    <text
       x="-364.92151"
       y="-88.935204"
       id="text959"
       style="font-size:4.22240591px;fill:none;stroke-width:0.26458332"
       transform="scale(0.99985101,1.000149)">
      <tspan
         font-size="12.0000"
         id="tspan957"
         style="font-style:normal;font-variant:normal;font-weight:normal;font-stretch:normal;font-size:4.22240591px;font-family:'Microgramma D Extended';-inkscape-font-specification:'Microgramma D Extended';fill:none;stroke-width:0.26458332">curiouselectric.co.uk</tspan>
    </text>
    <g
       id="Layer1030"
       transform="matrix(0.26458333,0,0,0.26458333,-443.27227,-85.341933)" />
    <g
       id="Layer1031"
       transform="matrix(0.26458333,0,0,0.26458333,-443.27227,-85.341933)" />
    <g
       id="Layer1032"
       transform="matrix(0.26458333,0,0,0.26458333,-443.27227,-85.341933)" />
    <g
       id="Layer1033"
       transform="matrix(0.26458333,0,0,0.26458333,-443.27227,-85.341933)" />
    <g
       id="Layer1034"
       transform="matrix(0.26458333,0,0,0.26458333,-443.27227,-85.341933)" />
    <g
       id="Layer1035"
       transform="matrix(0.26458333,0,0,0.26458333,-443.27227,-85.341933)" />
    <g
       id="Layer1036"
       transform="matrix(0.26458333,0,0,0.26458333,-443.27227,-85.341933)" />
    <g
       id="Layer1037"
       transform="matrix(0.26458333,0,0,0.26458333,-443.27227,-85.341933)" />
    <g
       id="Layer1038"
       transform="matrix(0.26458333,0,0,0.26458333,-443.27227,-85.341933)" />
    <g
       id="Layer1039"
       transform="matrix(0.26458333,0,0,0.26458333,-443.27227,-85.341933)" />
    <g
       id="Layer1040"
       transform="matrix(0.26458333,0,0,0.26458333,-443.27227,-85.341933)" />
    <g
       id="Layer1041"
       transform="matrix(0.26458333,0,0,0.26458333,-443.27227,-85.341933)" />
    <g
       id="Layer1042"
       transform="matrix(0.26458333,0,0,0.26458333,-443.27227,-85.341933)" />
    <g
       id="Layer1043"
       transform="matrix(0.26458333,0,0,0.26458333,-443.27227,-85.341933)" />
    <g
       id="Layer1044"
       transform="matrix(0.26458333,0,0,0.26458333,-443.27227,-85.341933)" />
    <g
       id="Layer1045"
       transform="matrix(0.26458333,0,0,0.26458333,-443.27227,-85.341933)" />
    <g
       id="Layer1046"
       transform="matrix(0.26458333,0,0,0.26458333,-443.27227,-85.341933)" />
    <g
       id="Layer1047"
       transform="matrix(0.26458333,0,0,0.26458333,-443.27227,-85.341933)" />
    <g
       id="Layer1048"
       transform="matrix(0.26458333,0,0,0.26458333,-443.27227,-85.341933)" />
    <g
       id="Layer1049"
       transform="matrix(0.26458333,0,0,0.26458333,-443.27227,-85.341933)" />
    <g
       id="Layer1050"
       transform="matrix(0.26458333,0,0,0.26458333,-443.27227,-85.341933)" />
    <g
       id="Layer1100"
       transform="matrix(0.26458333,0,0,0.26458333,-443.27227,-85.341933)" />
    <g
       id="Layer1101"
       transform="matrix(0.26458333,0,0,0.26458333,-443.27227,-85.341933)" />
    <g
       id="Layer1102"
       transform="matrix(0.26458333,0,0,0.26458333,-443.27227,-85.341933)" />
    <g
       id="Layer1103"
       transform="matrix(0.26458333,0,0,0.26458333,-443.27227,-85.341933)" />
    <g
       id="Layer1104"
       transform="matrix(0.26458333,0,0,0.26458333,-443.27227,-85.341933)" />
    <g
       id="Layer1105"
       transform="matrix(0.26458333,0,0,0.26458333,-443.27227,-85.341933)" />
    <g
       id="Layer1106"
       transform="matrix(0.26458333,0,0,0.26458333,-443.27227,-85.341933)" />
    <g
       id="Layer1107"
       transform="matrix(0.26458333,0,0,0.26458333,-443.27227,-85.341933)" />
    <g
       id="Layer1108"
       transform="matrix(0.26458333,0,0,0.26458333,-443.27227,-85.341933)" />
    <g
       id="Layer1109"
       transform="matrix(0.26458333,0,0,0.26458333,-443.27227,-85.341933)" />
    <g
       id="Layer1110"
       transform="matrix(0.26458333,0,0,0.26458333,-443.27227,-85.341933)" />
    <g
       id="Layer1111"
       transform="matrix(0.26458333,0,0,0.26458333,-443.27227,-85.341933)" />
    <g
       id="Layer1112"
       transform="matrix(0.26458333,0,0,0.26458333,-443.27227,-85.341933)" />
    <g
       id="Layer1113"
       transform="matrix(0.26458333,0,0,0.26458333,-443.27227,-85.341933)" />
    <g
       id="Layer1114"
       transform="matrix(0.26458333,0,0,0.26458333,-443.27227,-85.341933)" />
    <g
       id="Layer1115"
       transform="matrix(0.26458333,0,0,0.26458333,-443.27227,-85.341933)" />
    <g
       id="Layer1116"
       transform="matrix(0.26458333,0,0,0.26458333,-443.27227,-85.341933)" />
    <g
       id="Layer1117"
       transform="matrix(0.26458333,0,0,0.26458333,-443.27227,-85.341933)" />
    <g
       id="Layer1118"
       transform="matrix(0.26458333,0,0,0.26458333,-443.27227,-85.341933)" />
    <g
       id="Layer1119"
       transform="matrix(0.26458333,0,0,0.26458333,-443.27227,-85.341933)" />
    <g
       id="Layer1120"
       transform="matrix(0.26458333,0,0,0.26458333,-443.27227,-85.341933)" />
    <g
       id="Layer1130"
       transform="matrix(0.26458333,0,0,0.26458333,-443.27227,-85.341933)" />
    <g
       id="Layer1131"
       transform="matrix(0.26458333,0,0,0.26458333,-443.27227,-85.341933)" />
    <g
       id="Layer1132"
       transform="matrix(0.26458333,0,0,0.26458333,-443.27227,-85.341933)" />
    <g
       id="Layer1133"
       transform="matrix(0.26458333,0,0,0.26458333,-443.27227,-85.341933)" />
    <g
       id="Layer1134"
       transform="matrix(0.26458333,0,0,0.26458333,-443.27227,-85.341933)" />
    <g
       id="Layer1135"
       transform="matrix(0.26458333,0,0,0.26458333,-443.27227,-85.341933)" />
    <g
       id="Layer1136"
       transform="matrix(0.26458333,0,0,0.26458333,-443.27227,-85.341933)" />
    <g
       id="Layer1137"
       transform="matrix(0.26458333,0,0,0.26458333,-443.27227,-85.341933)" />
    <g
       id="Layer1138"
       transform="matrix(0.26458333,0,0,0.26458333,-443.27227,-85.341933)" />
    <g
       id="Layer1139"
       transform="matrix(0.26458333,0,0,0.26458333,-443.27227,-85.341933)" />
    <g
       id="Layer1140"
       transform="matrix(0.26458333,0,0,0.26458333,-443.27227,-85.341933)" />
    <g
       id="Layer1141"
       transform="matrix(0.26458333,0,0,0.26458333,-443.27227,-85.341933)" />
    <g
       id="Layer1142"
       transform="matrix(0.26458333,0,0,0.26458333,-443.27227,-85.341933)" />
    <g
       id="Layer1143"
       transform="matrix(0.26458333,0,0,0.26458333,-443.27227,-85.341933)" />
    <g
       id="Layer1144"
       transform="matrix(0.26458333,0,0,0.26458333,-443.27227,-85.341933)" />
    <g
       id="Layer1145"
       transform="matrix(0.26458333,0,0,0.26458333,-443.27227,-85.341933)" />
    <g
       id="Layer1146"
       transform="matrix(0.26458333,0,0,0.26458333,-443.27227,-85.341933)" />
    <g
       id="Layer1147"
       transform="matrix(0.26458333,0,0,0.26458333,-443.27227,-85.341933)" />
    <g
       id="Layer1148"
       transform="matrix(0.26458333,0,0,0.26458333,-443.27227,-85.341933)" />
    <g
       id="Layer1149"
       transform="matrix(0.26458333,0,0,0.26458333,-443.27227,-85.341933)" />
    <g
       id="Layer1150"
       transform="matrix(0.26458333,0,0,0.26458333,-443.27227,-85.341933)" />
    <g
       id="g6019">
      <path
         inkscape:connector-curvature="0"
         id="path815"
         style="fill:none;stroke:#1b1918;stroke-width:0.14999229;stroke-linecap:butt;stroke-linejoin:miter;stroke-dasharray:none"
         d="m 252.20016,-49.781309 h -9.64661 v 7.480578 1.06e-4 h 14.63415 c 2.74278,0 4.98666,-2.244755 4.98666,-4.988039 V -87.19096 c 0,-2.743212 -2.24406,-4.988042 -4.98666,-4.988042 h -14.63415 v 11.47311 h 9.64661 c 0,0 0,0 0,0 1.10157,0 1.99455,0.893243 1.99455,1.995033 v 24.93931 1.995208 c 0,1.101825 -0.89298,1.995032 -1.99455,1.995032 0,0 0,0 0,0 z" />
      <text
         transform="scale(0.99985101,1.000149)"
         style="font-size:4.22240591px;stroke-width:0.26458332"
         id="text819"
         y="-60.95285"
         x="256.80499">
        <tspan
           style="font-style:normal;font-variant:normal;font-weight:normal;font-stretch:normal;font-size:4.92613983px;font-family:'Microgramma D Extended';-inkscape-font-specification:'Microgramma D Extended';fill:#1b1918;stroke-width:0.26458332"
           id="tspan817"
           font-size="14.0000">5</tspan>
      </text>
      <path
         inkscape:connector-curvature="0"
         id="path821"
         style="fill:none;stroke:#1b1918;stroke-width:0.14999229;stroke-linecap:butt;stroke-linejoin:miter;stroke-dasharray:none"
         d="m 253.67848,-47.288593 0.8774,-1.520081 0.87736,-1.520117 h 1.75477 1.75476 l 0.87734,1.520117 0.8774,1.520081 -0.8774,1.520117 -0.87734,1.520117 h -1.75476 -1.75477 l -0.87736,-1.520117 z" />
      <path
         inkscape:connector-curvature="0"
         id="path823"
         style="fill:none;stroke:#1b1918;stroke-width:0.14999229;stroke-linecap:butt;stroke-linejoin:miter;stroke-dasharray:none"
         d="m 253.67848,-87.191172 0.8774,-1.520115 0.87736,-1.520115 h 1.75477 1.75476 l 0.87734,1.520115 0.8774,1.520115 -0.8774,1.520118 -0.87734,1.520117 h -1.75476 -1.75477 l -0.87736,-1.520117 z" />
      <path
         d="m 157.26135,-37.405881 a 1.4959161,1.4963621 0 0 1 -1.49592,1.496362 1.4959161,1.4963621 0 1 1 1.49592,-1.496362 z"
         style="fill:none;stroke:#1b1918;stroke-width:0.14999229;stroke-linecap:butt;stroke-linejoin:miter;stroke-dasharray:none"
         id="path846"
         inkscape:connector-curvature="0" />
      <path
         d="m 157.26135,2.496732 a 1.4959161,1.4963621 0 0 1 -1.49592,1.496327 1.4959161,1.4963621 0 1 1 1.49592,-1.496327 z"
         style="fill:none;stroke:#1b1918;stroke-width:0.14999229;stroke-linecap:butt;stroke-linejoin:miter;stroke-dasharray:none"
         id="path848"
         inkscape:connector-curvature="0" />
      <path
         d="m 67.50694,-37.405881 a 1.4959161,1.4963621 0 0 1 -1.49592,1.496362 1.4959161,1.4963621 0 1 1 1.49592,-1.496362 z"
         style="fill:none;stroke:#1b1918;stroke-width:0.14999229;stroke-linecap:butt;stroke-linejoin:miter;stroke-dasharray:none"
         id="path850"
         inkscape:connector-curvature="0" />
      <path
         d="M 67.50694,2.496732 A 1.4959161,1.4963621 0 0 1 66.01102,3.993059 1.4959161,1.4963621 0 1 1 67.50694,2.496732 Z"
         style="fill:none;stroke:#1b1918;stroke-width:0.14999229;stroke-linecap:butt;stroke-linejoin:miter;stroke-dasharray:none"
         id="path852"
         inkscape:connector-curvature="0" />
      <path
         d="m 14.65175,-37.405987 a 1.4959161,1.4963621 0 0 0 1.4959,1.496363 1.4959161,1.4963621 0 1 0 -1.4959,-1.496363 z"
         style="fill:none;stroke:#1b1918;stroke-width:0.14999229;stroke-linecap:butt;stroke-linejoin:miter;stroke-dasharray:none"
         id="path854"
         inkscape:connector-curvature="0" />
      <path
         d="m 14.65175,2.496627 a 1.4959161,1.4963621 0 0 0 1.4959,1.496327 1.4959161,1.4963621 0 1 0 -1.4959,-1.496327 z"
         style="fill:none;stroke:#1b1918;stroke-width:0.14999229;stroke-linecap:butt;stroke-linejoin:miter;stroke-dasharray:none"
         id="path856"
         inkscape:connector-curvature="0" />
      <path
         d="m 125.34999,-17.454539 a 1.4959161,1.4963621 0 0 0 -1.49591,-1.496327 1.4959161,1.4963621 0 1 0 1.49591,1.496327 z"
         style="fill:none;stroke:#1b1918;stroke-width:0.14999229;stroke-linecap:butt;stroke-linejoin:miter;stroke-dasharray:none"
         id="path858"
         inkscape:connector-curvature="0" />
      <path
         d="m 121.36091,-21.444814 a 1.4959161,1.4963621 0 0 0 -1.49588,-1.496327 1.4959161,1.4963621 0 1 0 1.49588,1.496327 z"
         style="fill:none;stroke:#1b1918;stroke-width:0.14999229;stroke-linecap:butt;stroke-linejoin:miter;stroke-dasharray:none"
         id="path860"
         inkscape:connector-curvature="0" />
      <path
         d="m 117.37185,-17.454539 a 1.4959161,1.4963621 0 0 0 -1.49592,-1.496327 1.4959161,1.4963621 0 1 0 1.49592,1.496327 z"
         style="fill:none;stroke:#1b1918;stroke-width:0.14999229;stroke-linecap:butt;stroke-linejoin:miter;stroke-dasharray:none"
         id="path862"
         inkscape:connector-curvature="0" />
      <path
         d="m 125.34999,-25.435056 a 1.4959161,1.4963621 0 0 0 -1.49591,-1.496361 1.4959161,1.4963621 0 1 0 1.49591,1.496361 z"
         style="fill:none;stroke:#1b1918;stroke-width:0.14999229;stroke-linecap:butt;stroke-linejoin:miter;stroke-dasharray:none"
         id="path864"
         inkscape:connector-curvature="0" />
      <path
         d="m 117.37185,-25.435056 a 1.4959161,1.4963621 0 0 0 -1.49592,-1.496361 1.4959161,1.4963621 0 1 0 1.49592,1.496361 z"
         style="fill:none;stroke:#1b1918;stroke-width:0.14999229;stroke-linecap:butt;stroke-linejoin:miter;stroke-dasharray:none"
         id="path866"
         inkscape:connector-curvature="0" />
      <path
         d="m 125.34999,-9.473989 a 1.4959161,1.4963621 0 0 0 -1.49591,-1.496361 1.4959161,1.4963621 0 1 0 1.49591,1.496361 z"
         style="fill:none;stroke:#1b1918;stroke-width:0.14999229;stroke-linecap:butt;stroke-linejoin:miter;stroke-dasharray:none"
         id="path868"
         inkscape:connector-curvature="0" />
      <path
         d="m 121.36091,-13.464263 a 1.4959161,1.4963621 0 0 0 -1.49588,-1.496363 1.4959161,1.4963621 0 1 0 1.49588,1.496363 z"
         style="fill:none;stroke:#1b1918;stroke-width:0.14999229;stroke-linecap:butt;stroke-linejoin:miter;stroke-dasharray:none"
         id="path870"
         inkscape:connector-curvature="0" />
      <path
         d="m 117.37185,-9.473989 a 1.4959161,1.4963621 0 0 0 -1.49592,-1.496361 1.4959161,1.4963621 0 1 0 1.49592,1.496361 z"
         style="fill:none;stroke:#1b1918;stroke-width:0.14999229;stroke-linecap:butt;stroke-linejoin:miter;stroke-dasharray:none"
         id="path872"
         inkscape:connector-curvature="0" />
      <path
         d="m 113.38277,-21.444814 a 1.4959161,1.4963621 0 0 0 -1.49592,-1.496327 1.4959161,1.4963621 0 1 0 1.49592,1.496327 z"
         style="fill:none;stroke:#1b1918;stroke-width:0.14999229;stroke-linecap:butt;stroke-linejoin:miter;stroke-dasharray:none"
         id="path874"
         inkscape:connector-curvature="0" />
      <path
         d="m 109.39368,-17.454539 a 1.4959161,1.4963621 0 0 0 -1.49592,-1.496327 1.4959161,1.4963621 0 1 0 1.49592,1.496327 z"
         style="fill:none;stroke:#1b1918;stroke-width:0.14999229;stroke-linecap:butt;stroke-linejoin:miter;stroke-dasharray:none"
         id="path876"
         inkscape:connector-curvature="0" />
      <path
         d="m 109.39368,-25.435056 a 1.4959161,1.4963621 0 0 0 -1.49592,-1.496361 1.4959161,1.4963621 0 1 0 1.49592,1.496361 z"
         style="fill:none;stroke:#1b1918;stroke-width:0.14999229;stroke-linecap:butt;stroke-linejoin:miter;stroke-dasharray:none"
         id="path878"
         inkscape:connector-curvature="0" />
      <path
         d="m 113.38277,-13.464263 a 1.4959161,1.4963621 0 0 0 -1.49592,-1.496363 1.4959161,1.4963621 0 1 0 1.49592,1.496363 z"
         style="fill:none;stroke:#1b1918;stroke-width:0.14999229;stroke-linecap:butt;stroke-linejoin:miter;stroke-dasharray:none"
         id="path880"
         inkscape:connector-curvature="0" />
      <path
         d="m 109.39368,-9.473989 a 1.4959161,1.4963621 0 0 0 -1.49592,-1.496361 1.4959161,1.4963621 0 1 0 1.49592,1.496361 z"
         style="fill:none;stroke:#1b1918;stroke-width:0.14999229;stroke-linecap:butt;stroke-linejoin:miter;stroke-dasharray:none"
         id="path882"
         inkscape:connector-curvature="0" />
      <path
         d="m 144.45543,-16.036549 c 0.33792,0.347661 0.22801,0.904221 -0.0468,1.159855 -0.37124,0.345375 -0.91355,0.240925 -1.17419,-0.03871 -0.72358,-0.77644 0.42284,-1.942385 1.22098,-1.121145 z m -1.12587,-1.943124 c 0.73367,0.754867 -0.47242,1.924331 -1.2209,1.121144 -0.72362,-0.77651 0.42276,-1.942384 1.2209,-1.121144 z m -7.77107,-11.88151 2.95768,2.948206 c -0.22742,0.213756 -0.40657,0.470517 -0.62402,0.716404 -0.16215,0.183385 -0.49194,0.546741 -0.61008,0.720168 l 2.14156,2.222336 -1.29534,1.228903 c 0.094,0.154318 1.02754,1.300274 1.19005,1.473312 l -2.01041,1.838463 c 0.86606,0.92224 1.34362,1.432242 0.30273,2.667445 -0.45292,0.537522 -1.25911,1.264553 -1.8644,1.694809 l -0.74469,0.532139 c 0.057,0.01104 0.009,0.0043 0.0888,0.0096 l 1.65624,0.06412 c 0.20408,0.0049 1.63706,0.08369 1.7833,0.04403 l 0.0418,0.07197 c -0.083,0.08309 -0.15575,0.25771 -0.21686,0.368388 l -1.01959,1.950164 c -0.0842,0.149741 -0.13489,0.256549 -0.21408,0.399499 l -0.20138,0.402841 c 0.21306,-0.123485 0.56228,-0.253769 0.79675,-0.364517 0.77561,-0.366068 2.96981,-1.2238 3.82867,-0.667944 0.49274,0.318909 0.61786,0.976401 0.76659,1.463809 0.10545,-0.0082 0.4808,-0.145764 0.62944,-0.193098 l 1.2971,-0.415476 c 0.2193,-0.06992 0.47808,-0.132637 0.66768,-0.222378 0.0693,0.226988 0.59931,1.606935 0.68635,1.765229 l 1.71939,-0.516055 0.84401,2.96904 c 0.22216,-0.02083 1.75453,-0.324822 1.86923,-0.359767 0.009,0.119934 0.2128,0.81223 0.26217,0.982735 0.10079,0.348436 0.17939,0.681562 0.27054,1.015499 l 0.55435,2.034448 c 0.0872,-0.178178 0.26418,-2.547758 0.31027,-2.9607 0.0384,-0.344916 0.0531,-0.661081 0.094,-1.009693 0.0396,-0.336294 0.0626,-0.652177 0.092,-0.979849 0.0299,-0.335696 0.0722,-0.663087 0.0975,-1.008813 0.0493,-0.673011 0.1395,-1.321212 0.18292,-1.990316 -0.4434,-0.217205 -3.93677,-1.536271 -4.54894,-1.770227 -0.31821,-0.121623 -0.60161,-0.223785 -0.91214,-0.345303 l -1.37796,-0.538296 c -0.28292,-0.108109 -0.35543,-0.08795 -0.45557,-0.231739 0.28751,-0.270098 0.19582,-0.610475 0.55306,-0.719183 l 3.10318,-1.015957 c -0.15593,-0.07636 -0.8896,-0.239869 -1.29626,-0.387991 -0.37876,-0.137988 -0.97802,-0.205768 -1.30245,-0.36473 -0.0355,-0.13116 -0.008,-0.211151 0.007,-0.333057 0.0133,-0.106527 0.0209,-0.213474 0.0233,-0.328587 0.0262,-1.242029 -0.96203,-1.179212 -1.28064,-1.497452 0.0234,-0.360578 0.26249,-0.914429 0.33107,-1.311745 l 0.14807,-0.660519 c 0.0585,-0.219844 0.14568,-0.440286 0.15972,-0.657491 l -2.39972,2.163496 c -0.31294,0.304587 -0.5108,0.02153 -0.92289,0.147385 -0.083,-0.175362 0.0629,-0.784219 0.0944,-0.979147 l 0.7341,-4.826049 c 0.0452,-0.281536 0.27793,-1.701179 0.29467,-1.960579 -1.15292,-0.564866 -3.25614,-1.494462 -4.53175,-2.06334 -0.32518,-0.145027 -0.59749,-0.273935 -0.92296,-0.41903 l -1.3574,-0.615543 c -0.14734,-0.06968 -0.32757,-0.170575 -0.46936,-0.179797 z"
         style="fill:none;stroke:#000000;stroke-width:0.26460978;stroke-linecap:butt;stroke-linejoin:miter;stroke-dasharray:none"
         id="path884"
         inkscape:connector-curvature="0" />
      <path
         d="m 98.42241,-27.430334 a 2.4931701,2.4939837 0 0 1 -2.49317,2.493984 2.4931701,2.4939837 0 1 1 2.49317,-2.493984 z"
         style="fill:none;stroke:#1b1918;stroke-width:0.14999229;stroke-linecap:butt;stroke-linejoin:miter;stroke-dasharray:none"
         id="path886"
         inkscape:connector-curvature="0" />
      <path
         d="M 104.43921,3.689423 95.47449,4.08396 86.50979,4.478497 V 3.689423 2.900314 l 8.9647,0.394537 z"
         style="fill:#1b1918;fill-rule:evenodd;stroke:#1b1918;stroke-width:0.14999229;stroke-linecap:butt;stroke-linejoin:miter;stroke-dasharray:none"
         id="path888"
         inkscape:connector-curvature="0" />
      <text
         transform="matrix(0,1.000149,-0.99985101,0,0,0)"
         style="font-size:2.81493711px;stroke-width:0.26458332"
         x="-1.314375"
         y="-80.882156"
         id="text892">
        <tspan
           font-size="12.0000"
           id="tspan890"
           style="font-style:normal;font-variant:normal;font-weight:normal;font-stretch:normal;font-size:2.81493711px;font-family:'Microgramma D Extended';-inkscape-font-specification:'Microgramma D Extended';fill:#1b1918;stroke-width:0.26458332">ON</tspan>
      </text>
      <text
         transform="scale(0.99985101,1.000149)"
         style="font-size:4.22240591px;stroke-width:0.26458332"
         x="84.156845"
         y="1.1433657"
         id="text896">
        <tspan
           font-size="10.0000"
           id="tspan894"
           style="font-style:normal;font-variant:normal;font-weight:normal;font-stretch:normal;font-size:2.81493711px;font-family:'Microgramma D Extended';-inkscape-font-specification:'Microgramma D Extended';fill:#1b1918;stroke-width:0.26458332">SENSITIVITY</tspan>
      </text>
      <path
         d="m 164.74085,-7.479061 c 0,0 0,0 0,0 -2.16316,0 -3.93212,1.724617 -3.98778,3.887514 l -0.001,6.087963 c -3.4e-4,2.743424 -2.24397,4.988037 -4.98665,4.988037 H 16.14835 c -2.74278,0 -4.98666,-2.244613 -4.98666,-4.988037 v -39.902297 c 0,-2.74339 2.24388,-4.988038 4.98666,-4.988038 h 139.61721 c 2.74278,0 4.98606,2.244648 4.98666,4.988038 l 0.001,6.087962 c 0.0557,2.162933 1.82462,3.887515 3.98779,3.887515 0,0 0,0 0,0 h 8.14771 c 1.55274,0 2.82297,1.110412 2.82297,2.46759 v 15.016268 c 0,1.357213 -1.27041,2.467485 -2.82297,2.467485 z"
         style="fill:none;stroke:#1b1918;stroke-width:0.14999229;stroke-linecap:butt;stroke-linejoin:miter;stroke-dasharray:none"
         id="path898"
         inkscape:connector-curvature="0" />
      <g
         style="stroke-width:0.75194097"
         transform="matrix(0.3518147,0,0,0.3519196,2.61099,-101.68942)"
         id="Layer1022">
        <path
           inkscape:connector-curvature="0"
           id="path901"
           style="fill:none;stroke:#1b1918;stroke-width:0.42627534;stroke-linecap:butt;stroke-linejoin:miter;stroke-dasharray:none"
           d="m 634.6653,124.331 a 9.9213,9.9213 0 0 1 9.9212,-9.9213 9.9213,9.9213 0 1 1 -9.9212,9.9213 z" />
        <path
           inkscape:connector-curvature="0"
           id="path903"
           style="fill:none;stroke:#1b1918;stroke-width:0.42627534;stroke-linecap:butt;stroke-linejoin:miter;stroke-dasharray:none"
           d="m 640.3346,124.331 a 4.252,4.252 0 0 1 4.252,-4.252 4.252,4.252 0 1 1 -4.252,4.252 z" />
      </g>
      <g
         style="stroke-width:0.75194097"
         transform="matrix(0.3518147,0,0,0.3519196,2.61099,-101.68942)"
         id="Layer1023">
        <path
           inkscape:connector-curvature="0"
           id="path906"
           style="fill:none;stroke:#1b1918;stroke-width:0.42627534;stroke-linecap:butt;stroke-linejoin:miter;stroke-dasharray:none"
           d="m 634.6653,104.4884 a 9.9213,9.9213 0 0 1 9.9212,-9.9212 9.9213,9.9213 0 1 1 -9.9212,9.9212 z" />
        <path
           inkscape:connector-curvature="0"
           id="path908"
           style="fill:none;stroke:#1b1918;stroke-width:0.42627534;stroke-linecap:butt;stroke-linejoin:miter;stroke-dasharray:none"
           d="m 640.3346,104.4884 a 4.252,4.252 0 0 1 4.252,-4.2519 4.252,4.252 0 1 1 -4.252,4.2519 z" />
      </g>
      <g
         style="stroke-width:0.75194097"
         transform="matrix(0.3518147,0,0,0.3519196,2.61099,-101.68942)"
         id="Layer1024">
        <path
           inkscape:connector-curvature="0"
           id="path911"
           style="fill:none;stroke:#1b1918;stroke-width:0.42627534;stroke-linecap:butt;stroke-linejoin:miter;stroke-dasharray:none"
           d="m 634.6653,84.6459 a 9.9213,9.9213 0 0 1 9.9212,-9.9212 9.9213,9.9213 0 1 1 -9.9212,9.9212 z" />
        <path
           inkscape:connector-curvature="0"
           id="path913"
           style="fill:none;stroke:#1b1918;stroke-width:0.42627534;stroke-linecap:butt;stroke-linejoin:miter;stroke-dasharray:none"
           d="m 640.3346,84.6459 a 4.252,4.252 0 0 1 4.252,-4.2519 4.252,4.252 0 1 1 -4.252,4.2519 z" />
      </g>
      <g
         style="stroke-width:0.75194097"
         transform="matrix(0.3518147,0,0,0.3519196,2.61099,-101.68942)"
         id="Layer1025">
        <path
           inkscape:connector-curvature="0"
           id="path916"
           style="fill:none;stroke:#1b1918;stroke-width:0.42627534;stroke-linecap:butt;stroke-linejoin:miter;stroke-dasharray:none"
           d="m 686.8653,120.731 a 9.9213,9.9213 0 0 1 9.9212,-9.9213 9.9213,9.9213 0 1 1 -9.9212,9.9213 z" />
        <path
           inkscape:connector-curvature="0"
           id="path918"
           style="fill:none;stroke:#1b1918;stroke-width:0.42627534;stroke-linecap:butt;stroke-linejoin:miter;stroke-dasharray:none"
           d="m 692.5346,120.731 a 4.252,4.252 0 0 1 4.252,-4.252 4.252,4.252 0 1 1 -4.252,4.252 z" />
      </g>
      <g
         style="stroke-width:0.75194097"
         transform="matrix(0.3518147,0,0,0.3519196,2.61099,-101.68942)"
         id="Layer1026">
        <path
           inkscape:connector-curvature="0"
           id="path921"
           style="fill:none;stroke:#1b1918;stroke-width:0.42627534;stroke-linecap:butt;stroke-linejoin:miter;stroke-dasharray:none"
           d="m 686.8653,100.8884 a 9.9213,9.9213 0 0 1 9.9212,-9.9212 9.9213,9.9213 0 1 1 -9.9212,9.9212 z" />
        <path
           inkscape:connector-curvature="0"
           id="path923"
           style="fill:none;stroke:#1b1918;stroke-width:0.42627534;stroke-linecap:butt;stroke-linejoin:miter;stroke-dasharray:none"
           d="m 692.5346,100.8884 a 4.252,4.252 0 0 1 4.252,-4.2519 4.252,4.252 0 1 1 -4.252,4.2519 z" />
      </g>
      <g
         style="stroke-width:0.75194097"
         transform="matrix(0.3518147,0,0,0.3519196,2.61099,-101.68942)"
         id="Layer1027">
        <path
           inkscape:connector-curvature="0"
           id="path926"
           style="fill:none;stroke:#1b1918;stroke-width:0.42627534;stroke-linecap:butt;stroke-linejoin:miter;stroke-dasharray:none"
           d="m 686.8653,81.0459 a 9.9213,9.9213 0 0 1 9.9212,-9.9212 9.9213,9.9213 0 1 1 -9.9212,9.9212 z" />
        <path
           inkscape:connector-curvature="0"
           id="path928"
           style="fill:none;stroke:#1b1918;stroke-width:0.42627534;stroke-linecap:butt;stroke-linejoin:miter;stroke-dasharray:none"
           d="m 692.5346,81.0459 a 4.252,4.252 0 0 1 4.252,-4.2519 4.252,4.252 0 1 1 -4.252,4.2519 z" />
      </g>
      <path
         d="m 175.19534,-47.288599 0.87736,-1.520082 0.87739,-1.520116 h 1.75475 1.75474 l 0.87739,1.520116 0.87736,1.520082 -0.87736,1.520116 -0.87739,1.520117 h -1.75474 -1.75475 l -0.87739,-1.520117 z"
         style="fill:none;stroke:#1b1918;stroke-width:0.14999229;stroke-linecap:butt;stroke-linejoin:miter;stroke-dasharray:none"
         id="path1068"
         inkscape:connector-curvature="0" />
      <path
         d="m 175.19534,-87.191179 0.87736,-1.520117 0.87739,-1.520117 h 1.75475 1.75474 l 0.87739,1.520117 0.87736,1.520117 -0.87736,1.520117 -0.87739,1.520116 h -1.75474 -1.75475 l -0.87739,-1.520116 z"
         style="fill:none;stroke:#1b1918;stroke-width:0.14999229;stroke-linecap:butt;stroke-linejoin:miter;stroke-dasharray:none"
         id="path1070"
         inkscape:connector-curvature="0" />
      <path
         d="m 173.71698,-53.771557 h -9.64658 v 11.47082 1.05e-4 h 14.63416 c 2.74278,0 4.98662,-2.244754 4.98662,-4.988038 v -39.902298 c 0,-2.743213 -2.24405,-4.988038 -4.98662,-4.988038 H 164.0704 v 11.473107 h 9.64658 c 0,0 0,0 0,0 1.10161,0 1.99455,0.893242 1.99455,1.995032 v 20.949035 1.995208 c 0,1.101825 -0.89294,1.995067 -1.99455,1.995067 0,0 0,0 0,0 z"
         style="fill:none;stroke:#1b1918;stroke-width:0.14999229;stroke-linecap:butt;stroke-linejoin:miter;stroke-dasharray:none"
         id="path1072"
         inkscape:connector-curvature="0" />
      <g
         style="stroke-width:0.75194097"
         transform="matrix(0.3518147,0,0,0.3519196,2.61099,-101.68942)"
         id="Layer1056">
        <path
           inkscape:connector-curvature="0"
           id="path1075"
           style="fill:none;stroke:#1b1918;stroke-width:0.42627534;stroke-linecap:butt;stroke-linejoin:miter;stroke-dasharray:none"
           d="m 653.6633,147.4999 h -27.4195 v 21.2565 3e-4 H 667.84 c 7.7961,0 14.174,-6.3786 14.174,-14.1738 V 41.1982 c 0,-7.795 -6.3785,-14.1738 -14.174,-14.1738 h -41.5962 v 32.6015 h 27.4195 c 0,0 0,0 0,0 3.1312,0 5.6693,2.5382 5.6693,5.669 v 70.8665 5.6695 c 0,3.1309 -2.5381,5.669 -5.6693,5.669 0,0 0,0 0,0 z" />
        <text
           style="stroke-width:0.75194097"
           id="text1079"
           y="116.1493"
           x="666.51727">
          <tspan
             style="font-style:normal;font-variant:normal;font-weight:bold;font-stretch:normal;font-size:14px;font-family:'Microgramma D Extended';-inkscape-font-specification:'Microgramma D Extended Bold';fill:#1b1918;stroke-width:0.75194097"
             id="tspan1077"
             font-size="14.0000">4</tspan>
        </text>
        <path
           inkscape:connector-curvature="0"
           id="path1081"
           style="fill:none;stroke:#1b1918;stroke-width:0.42627534;stroke-linecap:butt;stroke-linejoin:miter;stroke-dasharray:none"
           d="m 657.8654,154.5831 2.4939,-4.3194 2.4938,-4.3195 h 4.9877 4.9877 l 2.4939,4.3195 2.4938,4.3194 -2.4938,4.3195 -2.4939,4.3195 h -4.9877 -4.9877 l -2.4938,-4.3195 z" />
        <path
           inkscape:connector-curvature="0"
           id="path1083"
           style="fill:none;stroke:#1b1918;stroke-width:0.42627534;stroke-linecap:butt;stroke-linejoin:miter;stroke-dasharray:none"
           d="m 657.8654,41.1976 2.4939,-4.3195 2.4938,-4.3195 h 4.9877 4.9877 l 2.4939,4.3195 2.4938,4.3195 -2.4938,4.3195 -2.4939,4.3195 h -4.9877 -4.9877 l -2.4938,-4.3195 z" />
      </g>
      <g
         style="stroke-width:0.75194097"
         transform="matrix(0.3518147,0,0,0.3519196,2.61099,-101.68942)"
         id="Layer1057">
        <path
           inkscape:connector-curvature="0"
           id="path1086"
           style="fill:none;stroke:#1b1918;stroke-width:0.42627534;stroke-linecap:butt;stroke-linejoin:miter;stroke-dasharray:none"
           d="m 597.8931,147.4999 h -27.4195 v 21.2565 3e-4 h 41.5961 c 7.7962,0 14.1741,-6.3786 14.1741,-14.1738 V 41.1982 c 0,-7.795 -6.3785,-14.1738 -14.1741,-14.1738 h -41.5961 v 32.6015 h 27.4195 c 0,0 0,0 0,0 3.1312,0 5.6693,2.5382 5.6693,5.669 v 70.8665 5.6695 c 0,3.1309 -2.5381,5.669 -5.6693,5.669 0,0 0,0 0,0 z" />
        <text
           style="stroke-width:0.75194097"
           id="text1090"
           y="115.7295"
           x="610.70508">
          <tspan
             style="font-style:normal;font-variant:normal;font-weight:bold;font-stretch:normal;font-size:14px;font-family:'Microgramma D Extended';-inkscape-font-specification:'Microgramma D Extended Bold';fill:#1b1918;stroke-width:0.75194097"
             id="tspan1088"
             font-size="14.0000">3</tspan>
        </text>
        <path
           inkscape:connector-curvature="0"
           id="path1092"
           style="fill:none;stroke:#1b1918;stroke-width:0.42627534;stroke-linecap:butt;stroke-linejoin:miter;stroke-dasharray:none"
           d="m 602.0952,154.5831 2.4938,-4.3194 2.4939,-4.3195 h 4.9877 4.9877 l 2.4938,4.3195 2.4939,4.3194 -2.4939,4.3195 -2.4938,4.3195 h -4.9877 -4.9877 l -2.4939,-4.3195 z" />
        <path
           inkscape:connector-curvature="0"
           id="path1094"
           style="fill:none;stroke:#1b1918;stroke-width:0.42627534;stroke-linecap:butt;stroke-linejoin:miter;stroke-dasharray:none"
           d="m 602.0952,41.1976 2.4938,-4.3195 2.4939,-4.3195 h 4.9877 4.9877 l 2.4938,4.3195 2.4939,4.3195 -2.4939,4.3195 -2.4938,4.3195 h -4.9877 -4.9877 l -2.4939,-4.3195 z" />
      </g>
      <g
         style="stroke-width:0.75194097"
         transform="matrix(0.3518147,0,0,0.3519196,2.61099,-101.68942)"
         id="Layer1058">
        <path
           inkscape:connector-curvature="0"
           id="path1097"
           style="fill:none;stroke:#1b1918;stroke-width:0.42627534;stroke-linecap:butt;stroke-linejoin:miter;stroke-dasharray:none"
           d="m 542.1229,147.4999 h -27.4196 v 21.2565 3e-4 h 41.5962 c 7.7961,0 14.1741,-6.3786 14.1741,-14.1738 V 41.1982 c 0,-7.795 -6.3785,-14.1738 -14.1741,-14.1738 h -41.5962 v 32.6015 h 27.4196 c 0,0 0,0 0,0 3.1311,0 5.6693,2.5382 5.6693,5.669 v 70.8665 5.6695 c 0,3.1309 -2.5382,5.669 -5.6693,5.669 0,0 0,0 0,0 z" />
        <text
           style="stroke-width:0.75194097"
           id="text1101"
           y="115.9736"
           x="554.18311">
          <tspan
             style="font-style:normal;font-variant:normal;font-weight:bold;font-stretch:normal;font-size:14px;font-family:'Microgramma D Extended';-inkscape-font-specification:'Microgramma D Extended Bold';fill:#1b1918;stroke-width:0.75194097"
             id="tspan1099"
             font-size="14.0000">2</tspan>
        </text>
        <path
           inkscape:connector-curvature="0"
           id="path1103"
           style="fill:none;stroke:#1b1918;stroke-width:0.42627534;stroke-linecap:butt;stroke-linejoin:miter;stroke-dasharray:none"
           d="m 546.3249,154.5831 2.4939,-4.3194 2.4938,-4.3195 h 4.9877 4.9878 l 2.4938,4.3195 2.4939,4.3194 -2.4939,4.3195 -2.4938,4.3195 h -4.9878 -4.9877 l -2.4938,-4.3195 z" />
        <path
           inkscape:connector-curvature="0"
           id="path1105"
           style="fill:none;stroke:#1b1918;stroke-width:0.42627534;stroke-linecap:butt;stroke-linejoin:miter;stroke-dasharray:none"
           d="m 546.3249,41.1976 2.4939,-4.3195 2.4938,-4.3195 h 4.9877 4.9878 l 2.4938,4.3195 2.4939,4.3195 -2.4939,4.3195 -2.4938,4.3195 h -4.9878 -4.9877 l -2.4938,-4.3195 z" />
      </g>
      <g
         style="stroke-width:1.1543982"
         transform="matrix(0,0.22923007,-0.22916174,0,133.41632,-65.525262)"
         id="Layer1059">
        <text
           style="stroke-width:1.1543982"
           id="text1110"
           y="265.54031"
           x="163.2348">
          <tspan
             style="font-style:normal;font-variant:normal;font-weight:normal;font-stretch:normal;font-size:30.5px;font-family:'Microgramma D Extended';-inkscape-font-specification:'Microgramma D Extended';fill:#1b1918;stroke-width:1.1543982"
             id="tspan1108"
             font-size="30.5000">BAT</tspan>
        </text>
        <text
           style="stroke-width:1.1543982"
           id="text1114"
           y="285.1727"
           x="146.8672">
          <tspan
             style="font-style:normal;font-variant:normal;font-weight:normal;font-stretch:normal;font-size:18px;font-family:'Microgramma D Extended';-inkscape-font-specification:'Microgramma D Extended';fill:#1b1918;stroke-width:1.1543982"
             id="tspan1112"
             font-size="18.0000">DETECTOR</tspan>
        </text>
      </g>
      <text
         transform="scale(0.99985101,1.000149)"
         style="font-style:normal;font-variant:normal;font-weight:bold;font-stretch:normal;font-size:4.22240591px;font-family:'Microgramma D Extended';-inkscape-font-specification:'Microgramma D Extended Bold';stroke-width:0.26458332"
         id="text1128"
         y="-61.303452"
         x="178.13542">
        <tspan
           style="font-style:normal;font-variant:normal;font-weight:bold;font-stretch:normal;font-size:4.92613983px;font-family:'Microgramma D Extended';-inkscape-font-specification:'Microgramma D Extended Bold';fill:#1b1918;stroke-width:0.26458332"
           id="tspan1126"
           font-size="14.0000">1</tspan>
      </text>
      <path
         inkscape:connector-curvature="0"
         id="path1130"
         style="fill:none;stroke:#1b1918;stroke-width:0.14999229;stroke-linecap:butt;stroke-linejoin:miter;stroke-dasharray:none"
         d="m 252.20016,0.097063 h -9.64661 v 7.480579 7e-5 h 14.63415 c 2.74278,0 4.98666,-2.244719 4.98666,-4.988038 v -39.902261 c 0,-2.743213 -2.24406,-4.988038 -4.98666,-4.988038 h -14.63415 v 11.473106 h 9.64661 c 0,0 0,0 0,0 1.10157,0 1.99455,0.893207 1.99455,1.995032 v 24.939275 1.995243 c 0,1.101825 -0.89298,1.995032 -1.99455,1.995032 0,0 0,0 0,0 z" />
      <text
         transform="scale(0.99985101,1.000149)"
         style="font-size:4.22240591px;stroke-width:0.26458332"
         id="text1134"
         y="-11.081911"
         x="256.80499">
        <tspan
           style="font-style:normal;font-variant:normal;font-weight:normal;font-stretch:normal;font-size:4.92613983px;font-family:'Microgramma D Extended';-inkscape-font-specification:'Microgramma D Extended';fill:#1b1918;stroke-width:0.26458332"
           id="tspan1132"
           font-size="14.0000">5</tspan>
      </text>
      <path
         inkscape:connector-curvature="0"
         id="path1136"
         style="fill:none;stroke:#1b1918;stroke-width:0.14999229;stroke-linecap:butt;stroke-linejoin:miter;stroke-dasharray:none"
         d="m 253.67848,2.58978 0.8774,-1.520117 0.87736,-1.520081 h 1.75477 1.75476 l 0.87734,1.520081 0.8774,1.520117 -0.8774,1.520117 -0.87734,1.520116 h -1.75476 -1.75477 l -0.87736,-1.520116 z" />
      <path
         inkscape:connector-curvature="0"
         id="path1138"
         style="fill:none;stroke:#1b1918;stroke-width:0.14999229;stroke-linecap:butt;stroke-linejoin:miter;stroke-dasharray:none"
         d="m 253.67848,-37.312799 0.8774,-1.520117 0.87736,-1.520116 h 1.75477 1.75476 l 0.87734,1.520116 0.8774,1.520117 -0.8774,1.520117 -0.87734,1.520116 h -1.75476 -1.75477 l -0.87736,-1.520116 z" />
      <g
         style="stroke-width:0.75194097"
         transform="matrix(0.3518147,0,0,0.3519196,2.61099,-101.68942)"
         id="Layer1061">
        <path
           inkscape:connector-curvature="0"
           id="path1140"
           style="fill:none;stroke:#1b1918;stroke-width:0.42627534;stroke-linecap:butt;stroke-linejoin:miter;stroke-dasharray:none"
           d="m 634.6653,266.0632 a 9.9213,9.9213 0 0 1 9.9212,-9.9212 9.9213,9.9213 0 1 1 -9.9212,9.9212 z" />
        <path
           inkscape:connector-curvature="0"
           id="path1142"
           style="fill:none;stroke:#1b1918;stroke-width:0.42627534;stroke-linecap:butt;stroke-linejoin:miter;stroke-dasharray:none"
           d="m 640.3346,266.0632 a 4.252,4.252 0 0 1 4.252,-4.2519 4.252,4.252 0 1 1 -4.252,4.2519 z" />
      </g>
      <g
         style="stroke-width:0.75194097"
         transform="matrix(0.3518147,0,0,0.3519196,2.61099,-101.68942)"
         id="Layer1062">
        <path
           inkscape:connector-curvature="0"
           id="path1145"
           style="fill:none;stroke:#1b1918;stroke-width:0.42627534;stroke-linecap:butt;stroke-linejoin:miter;stroke-dasharray:none"
           d="m 634.6653,246.2207 a 9.9213,9.9213 0 0 1 9.9212,-9.9212 9.9213,9.9213 0 1 1 -9.9212,9.9212 z" />
        <path
           inkscape:connector-curvature="0"
           id="path1147"
           style="fill:none;stroke:#1b1918;stroke-width:0.42627534;stroke-linecap:butt;stroke-linejoin:miter;stroke-dasharray:none"
           d="m 640.3346,246.2207 a 4.252,4.252 0 0 1 4.252,-4.2519 4.252,4.252 0 1 1 -4.252,4.2519 z" />
      </g>
      <g
         style="stroke-width:0.75194097"
         transform="matrix(0.3518147,0,0,0.3519196,2.61099,-101.68942)"
         id="Layer1063">
        <path
           inkscape:connector-curvature="0"
           id="path1150"
           style="fill:none;stroke:#1b1918;stroke-width:0.42627534;stroke-linecap:butt;stroke-linejoin:miter;stroke-dasharray:none"
           d="m 634.6653,226.3782 a 9.9213,9.9213 0 0 1 9.9212,-9.9213 9.9213,9.9213 0 1 1 -9.9212,9.9213 z" />
        <path
           inkscape:connector-curvature="0"
           id="path1152"
           style="fill:none;stroke:#1b1918;stroke-width:0.42627534;stroke-linecap:butt;stroke-linejoin:miter;stroke-dasharray:none"
           d="m 640.3346,226.3782 a 4.252,4.252 0 0 1 4.252,-4.252 4.252,4.252 0 1 1 -4.252,4.252 z" />
      </g>
      <g
         style="stroke-width:0.75194097"
         transform="matrix(0.3518147,0,0,0.3519196,2.61099,-101.68942)"
         id="Layer1064">
        <path
           inkscape:connector-curvature="0"
           id="path1155"
           style="fill:none;stroke:#1b1918;stroke-width:0.42627534;stroke-linecap:butt;stroke-linejoin:miter;stroke-dasharray:none"
           d="m 686.8653,262.4632 a 9.9213,9.9213 0 0 1 9.9212,-9.9212 9.9213,9.9213 0 1 1 -9.9212,9.9212 z" />
        <path
           inkscape:connector-curvature="0"
           id="path1157"
           style="fill:none;stroke:#1b1918;stroke-width:0.42627534;stroke-linecap:butt;stroke-linejoin:miter;stroke-dasharray:none"
           d="m 692.5346,262.4632 a 4.252,4.252 0 0 1 4.252,-4.2519 4.252,4.252 0 1 1 -4.252,4.2519 z" />
      </g>
      <g
         style="stroke-width:0.75194097"
         transform="matrix(0.3518147,0,0,0.3519196,2.61099,-101.68942)"
         id="Layer1065">
        <path
           inkscape:connector-curvature="0"
           id="path1160"
           style="fill:none;stroke:#1b1918;stroke-width:0.42627534;stroke-linecap:butt;stroke-linejoin:miter;stroke-dasharray:none"
           d="m 686.8653,242.6207 a 9.9213,9.9213 0 0 1 9.9212,-9.9212 9.9213,9.9213 0 1 1 -9.9212,9.9212 z" />
        <path
           inkscape:connector-curvature="0"
           id="path1162"
           style="fill:none;stroke:#1b1918;stroke-width:0.42627534;stroke-linecap:butt;stroke-linejoin:miter;stroke-dasharray:none"
           d="m 692.5346,242.6207 a 4.252,4.252 0 0 1 4.252,-4.2519 4.252,4.252 0 1 1 -4.252,4.2519 z" />
      </g>
      <g
         style="stroke-width:0.75194097"
         transform="matrix(0.3518147,0,0,0.3519196,2.61099,-101.68942)"
         id="Layer1066">
        <path
           inkscape:connector-curvature="0"
           id="path1165"
           style="fill:none;stroke:#1b1918;stroke-width:0.42627534;stroke-linecap:butt;stroke-linejoin:miter;stroke-dasharray:none"
           d="m 686.8653,222.7782 a 9.9213,9.9213 0 0 1 9.9212,-9.9213 9.9213,9.9213 0 1 1 -9.9212,9.9213 z" />
        <path
           inkscape:connector-curvature="0"
           id="path1167"
           style="fill:none;stroke:#1b1918;stroke-width:0.42627534;stroke-linecap:butt;stroke-linejoin:miter;stroke-dasharray:none"
           d="m 692.5346,222.7782 a 4.252,4.252 0 0 1 4.252,-4.252 4.252,4.252 0 1 1 -4.252,4.252 z" />
      </g>
      <g
         style="stroke-width:0.75194097"
         transform="matrix(0.3518147,0,0,0.3519196,2.61099,-101.68942)"
         id="Layer1068">
        <path
           inkscape:connector-curvature="0"
           id="path1177"
           style="fill:none;stroke:#1b1918;stroke-width:0.42627534;stroke-linecap:butt;stroke-linejoin:miter;stroke-dasharray:none"
           d="m 653.6633,289.2322 h -27.4195 v 21.2565 2e-4 H 667.84 c 7.7961,0 14.174,-6.3785 14.174,-14.1738 V 182.9305 c 0,-7.795 -6.3785,-14.1738 -14.174,-14.1738 h -41.5962 v 32.6015 h 27.4195 c 0,0 0,0 0,0 3.1312,0 5.6693,2.5381 5.6693,5.669 v 70.8664 5.6696 c 0,3.1309 -2.5381,5.669 -5.6693,5.669 0,0 0,0 0,0 z" />
        <text
           style="stroke-width:0.75194097"
           id="text1181"
           y="257.88159"
           x="666.51727">
          <tspan
             style="font-style:normal;font-variant:normal;font-weight:normal;font-stretch:normal;font-size:14px;font-family:'Microgramma D Extended';-inkscape-font-specification:'Microgramma D Extended';fill:#1b1918;stroke-width:0.75194097"
             id="tspan1179"
             font-size="14.0000">4</tspan>
        </text>
        <path
           inkscape:connector-curvature="0"
           id="path1183"
           style="fill:none;stroke:#1b1918;stroke-width:0.42627534;stroke-linecap:butt;stroke-linejoin:miter;stroke-dasharray:none"
           d="m 657.8654,296.3154 2.4939,-4.3195 2.4938,-4.3194 h 4.9877 4.9877 l 2.4939,4.3194 2.4938,4.3195 -2.4938,4.3195 -2.4939,4.3195 h -4.9877 -4.9877 l -2.4938,-4.3195 z" />
        <path
           inkscape:connector-curvature="0"
           id="path1185"
           style="fill:none;stroke:#1b1918;stroke-width:0.42627534;stroke-linecap:butt;stroke-linejoin:miter;stroke-dasharray:none"
           d="m 657.8654,182.9299 2.4939,-4.3195 2.4938,-4.3195 h 4.9877 4.9877 l 2.4939,4.3195 2.4938,4.3195 -2.4938,4.3195 -2.4939,4.3195 h -4.9877 -4.9877 l -2.4938,-4.3195 z" />
      </g>
      <g
         style="stroke-width:0.75194097"
         transform="matrix(0.3518147,0,0,0.3519196,2.61099,-101.68942)"
         id="Layer1069">
        <path
           inkscape:connector-curvature="0"
           id="path1188"
           style="fill:none;stroke:#1b1918;stroke-width:0.42627534;stroke-linecap:butt;stroke-linejoin:miter;stroke-dasharray:none"
           d="m 597.8931,289.2322 h -27.4195 v 21.2565 2e-4 h 41.5961 c 7.7962,0 14.1741,-6.3785 14.1741,-14.1738 V 182.9305 c 0,-7.795 -6.3785,-14.1738 -14.1741,-14.1738 h -41.5961 v 32.6015 h 27.4195 c 0,0 0,0 0,0 3.1312,0 5.6693,2.5381 5.6693,5.669 v 70.8664 5.6696 c 0,3.1309 -2.5381,5.669 -5.6693,5.669 0,0 0,0 0,0 z" />
        <text
           style="stroke-width:0.75194097"
           id="text1192"
           y="257.46179"
           x="610.70508">
          <tspan
             style="font-style:normal;font-variant:normal;font-weight:normal;font-stretch:normal;font-size:14px;font-family:'Microgramma D Extended';-inkscape-font-specification:'Microgramma D Extended';fill:#1b1918;stroke-width:0.75194097"
             id="tspan1190"
             font-size="14.0000">3</tspan>
        </text>
        <path
           inkscape:connector-curvature="0"
           id="path1194"
           style="fill:none;stroke:#1b1918;stroke-width:0.42627534;stroke-linecap:butt;stroke-linejoin:miter;stroke-dasharray:none"
           d="m 602.0952,296.3154 2.4938,-4.3195 2.4939,-4.3194 h 4.9877 4.9877 l 2.4938,4.3194 2.4939,4.3195 -2.4939,4.3195 -2.4938,4.3195 h -4.9877 -4.9877 l -2.4939,-4.3195 z" />
        <path
           inkscape:connector-curvature="0"
           id="path1196"
           style="fill:none;stroke:#1b1918;stroke-width:0.42627534;stroke-linecap:butt;stroke-linejoin:miter;stroke-dasharray:none"
           d="m 602.0952,182.9299 2.4938,-4.3195 2.4939,-4.3195 h 4.9877 4.9877 l 2.4938,4.3195 2.4939,4.3195 -2.4939,4.3195 -2.4938,4.3195 h -4.9877 -4.9877 l -2.4939,-4.3195 z" />
      </g>
      <g
         style="stroke-width:0.75194097"
         transform="matrix(0.3518147,0,0,0.3519196,2.61099,-101.68942)"
         id="Layer1070">
        <path
           inkscape:connector-curvature="0"
           id="path1199"
           style="fill:none;stroke:#1b1918;stroke-width:0.42627534;stroke-linecap:butt;stroke-linejoin:miter;stroke-dasharray:none"
           d="m 542.1229,289.2322 h -27.4196 v 21.2565 2e-4 h 41.5962 c 7.7961,0 14.1741,-6.3785 14.1741,-14.1738 V 182.9305 c 0,-7.795 -6.3785,-14.1738 -14.1741,-14.1738 h -41.5962 v 32.6015 h 27.4196 c 0,0 0,0 0,0 3.1311,0 5.6693,2.5381 5.6693,5.669 v 70.8664 5.6696 c 0,3.1309 -2.5382,5.669 -5.6693,5.669 0,0 0,0 0,0 z" />
        <text
           style="stroke-width:0.75194097"
           id="text1203"
           y="257.7059"
           x="554.18311">
          <tspan
             style="font-style:normal;font-variant:normal;font-weight:normal;font-stretch:normal;font-size:14px;font-family:'Microgramma D Extended';-inkscape-font-specification:'Microgramma D Extended';fill:#1b1918;stroke-width:0.75194097"
             id="tspan1201"
             font-size="14.0000">2</tspan>
        </text>
        <path
           inkscape:connector-curvature="0"
           id="path1205"
           style="fill:none;stroke:#1b1918;stroke-width:0.42627534;stroke-linecap:butt;stroke-linejoin:miter;stroke-dasharray:none"
           d="m 546.3249,296.3154 2.4939,-4.3195 2.4938,-4.3194 h 4.9877 4.9878 l 2.4938,4.3194 2.4939,4.3195 -2.4939,4.3195 -2.4938,4.3195 h -4.9878 -4.9877 l -2.4938,-4.3195 z" />
        <path
           inkscape:connector-curvature="0"
           id="path1207"
           style="fill:none;stroke:#1b1918;stroke-width:0.42627534;stroke-linecap:butt;stroke-linejoin:miter;stroke-dasharray:none"
           d="m 546.3249,182.9299 2.4939,-4.3195 2.4938,-4.3195 h 4.9877 4.9878 l 2.4938,4.3195 2.4939,4.3195 -2.4939,4.3195 -2.4938,4.3195 h -4.9878 -4.9877 l -2.4938,-4.3195 z" />
      </g>
      <g
         transform="translate(479.27381,-45.357143)"
         id="g5557">
        <path
           inkscape:connector-curvature="0"
           id="path1170"
           style="fill:none;stroke:#1b1918;stroke-width:0.14999229;stroke-linecap:butt;stroke-linejoin:miter;stroke-dasharray:none"
           d="m -304.07847,47.946918 0.87736,-1.520117 0.87739,-1.520081 h 1.75475 1.75474 l 0.87739,1.520081 0.87736,1.520117 -0.87736,1.520117 -0.87739,1.520116 h -1.75474 -1.75475 l -0.87739,-1.520116 z" />
        <path
           inkscape:connector-curvature="0"
           id="path1172"
           style="fill:none;stroke:#1b1918;stroke-width:0.14999229;stroke-linecap:butt;stroke-linejoin:miter;stroke-dasharray:none"
           d="m -304.07847,8.0443382 0.87736,-1.5201167 0.87739,-1.5201167 h 1.75475 1.75474 l 0.87739,1.5201167 0.87736,1.5201167 -0.87736,1.5201167 -0.87739,1.5201171 h -1.75474 -1.75475 l -0.87739,-1.5201171 z" />
        <path
           inkscape:connector-curvature="0"
           id="path1174"
           style="fill:none;stroke:#1b1918;stroke-width:0.14999229;stroke-linecap:butt;stroke-linejoin:miter;stroke-dasharray:none"
           d="m -305.55683,41.463926 h -9.64658 v 11.470854 7e-5 h 14.63416 c 2.74278,0 4.98662,-2.244719 4.98662,-4.988038 V 8.0445494 c 0,-2.7432133 -2.24405,-4.988038 -4.98662,-4.988038 h -14.63416 V 14.529618 h 9.64658 c 0,0 0,0 0,0 1.10161,0 1.99455,0.893207 1.99455,1.995032 v 20.949035 1.995208 c 0,1.101825 -0.89294,1.995033 -1.99455,1.995033 0,0 0,0 0,0 z" />
        <text
           x="-301.20981"
           y="33.91787"
           id="text1212"
           style="font-size:4.22240591px;stroke-width:0.26458332"
           transform="scale(0.999851,1.000149)">
          <tspan
             font-size="14.0000"
             id="tspan1210"
             style="font-style:normal;font-variant:normal;font-weight:normal;font-stretch:normal;font-size:4.92613983px;font-family:'Microgramma D Extended';-inkscape-font-specification:'Microgramma D Extended';fill:#1b1918;stroke-width:0.26458332">1</tspan>
        </text>
      </g>
      <g
         id="g5871">
        <path
           inkscape:connector-curvature="0"
           id="path931"
           style="fill:none;stroke:#1b1918;stroke-width:0.14999229;stroke-linecap:butt;stroke-linejoin:miter;stroke-dasharray:none"
           d="m 157.26134,-87.284262 a 1.4959161,1.4963621 0 0 1 -1.49591,1.496362 1.4959161,1.4963621 0 1 1 1.49591,-1.496362 z" />
        <path
           inkscape:connector-curvature="0"
           id="path933"
           style="fill:none;stroke:#1b1918;stroke-width:0.14999229;stroke-linecap:butt;stroke-linejoin:miter;stroke-dasharray:none"
           d="m 157.26134,-47.381647 a 1.4959161,1.4963621 0 0 1 -1.49591,1.496327 1.4959161,1.4963621 0 1 1 1.49591,-1.496327 z" />
        <path
           inkscape:connector-curvature="0"
           id="path935"
           style="fill:none;stroke:#1b1918;stroke-width:0.14999229;stroke-linecap:butt;stroke-linejoin:miter;stroke-dasharray:none"
           d="m 67.50694,-87.284262 a 1.4959161,1.4963621 0 0 1 -1.49592,1.496362 1.4959161,1.4963621 0 1 1 1.49592,-1.496362 z" />
        <path
           inkscape:connector-curvature="0"
           id="path937"
           style="fill:none;stroke:#1b1918;stroke-width:0.14999229;stroke-linecap:butt;stroke-linejoin:miter;stroke-dasharray:none"
           d="m 67.50694,-47.381647 a 1.4959161,1.4963621 0 0 1 -1.49592,1.496327 1.4959161,1.4963621 0 1 1 1.49592,-1.496327 z" />
        <path
           inkscape:connector-curvature="0"
           id="path939"
           style="fill:none;stroke:#1b1918;stroke-width:0.14999229;stroke-linecap:butt;stroke-linejoin:miter;stroke-dasharray:none"
           d="m 14.65174,-87.284332 a 1.4959161,1.4963621 0 0 0 1.49592,1.496327 1.4959161,1.4963621 0 1 0 -1.49592,-1.496327 z" />
        <path
           inkscape:connector-curvature="0"
           id="path941"
           style="fill:none;stroke:#1b1918;stroke-width:0.14999229;stroke-linecap:butt;stroke-linejoin:miter;stroke-dasharray:none"
           d="m 14.65174,-47.381752 a 1.4959161,1.4963621 0 0 0 1.49592,1.496362 1.4959161,1.4963621 0 1 0 -1.49592,-1.496362 z" />
        <path
           inkscape:connector-curvature="0"
           style="fill:none;stroke:#1b1918;stroke-width:0.14999227;stroke-linecap:butt;stroke-linejoin:miter;stroke-dasharray:none"
           d="m 16.148604,-42.39401 c -2.742776,0 -4.986787,-2.24442 -4.986787,-4.987811 v -39.902472 c 0,-2.743425 2.244011,-4.98781 4.986787,-4.98781 h 94.025776 v 14.469918 c 0,1.443656 1.16239,2.605526 2.60604,2.605526 h 12.96252 c 1.44367,0 2.60604,-1.16187 2.60604,-2.605526 v -14.469918 h 27.41641 c 2.74267,0 4.98642,2.244385 4.98679,4.98781 v 6.088 c 0.0556,2.162933 1.8247,3.887618 3.98785,3.887618 h 8.14784 c 1.55255,0 2.82255,1.110336 2.82255,2.46755 v 15.016138 c 0,1.357177 -1.26981,2.467549 -2.82255,2.467549 h -8.14784 c -2.16315,0 -3.93216,1.724684 -3.98785,3.887618 v 6.087999 c 0,2.743391 -2.24401,4.987811 -4.98679,4.987811 z"
           id="path943" />
        <g
           id="g5026"
           transform="matrix(0,0.76385368,-0.763626,0,133.06533,203.68618)"
           style="stroke-width:1.30934644">
          <g
             style="stroke-width:6.16894913"
             inkscape:export-ydpi="600"
             inkscape:export-xdpi="600"
             transform="matrix(0.00212248,0,0,0.00212248,-377.54345,96.386467)"
             id="_299558792">
            <path
               d="m 2295,5061 195,142 248,-341 571,415 178,-245 -571,-415 248,-341 -195,-142 -674,928 z m 781,-1101 682,658 210,-218 -246,-238 453,-469 246,238 210,-218 -682,-658 -210,218 244,236 -453,469 -244,-236 z m 1069,-1090 584,747 831,-649 -140,-179 -607,474 -93,-119 572,-447 -129,-165 -572,447 -85,-109 602,-471 -137,-176 -826,646 z M 7339,1342 c 16,37 29,68 38,95 9,26 12,50 10,71 -2,21 -12,40 -29,59 -17,19 -43,38 -78,58 -35,20 -80,44 -137,70 -57,26 -126,58 -208,94 -79,36 -147,65 -203,88 -56,23 -104,39 -142,47 -39,8 -72,9 -99,2 -27,-7 -52,-23 -73,-47 -21,-24 -43,-58 -65,-101 -22,-43 -46,-96 -74,-159 -33,-74 -58,-135 -74,-184 -17,-49 -26,-90 -27,-121 -2,-32 3,-59 15,-80 7,-15 18,-29 34,-43 16,-14 38,-30 67,-47 28,-17 66,-37 113,-59 47,-23 105,-49 175,-80 35,-16 71,-31 110,-48 39,-16 76,-31 111,-45 36,-14 65,-26 91,-35 33,-12 61,-21 82,-26 22,-6 39,-8 53,-8 14,1 25,3 34,9 9,5 18,12 25,20 7,8 16,19 25,35 9,15 21,37 35,65 l 452,-201 -33,-73 c -36,-81 -72,-146 -108,-195 -36,-49 -75,-85 -118,-107 -42,-22 -91,-34 -145,-35 -30,-1 -63,2 -100,8 -37,7 -80,18 -129,34 -49,17 -108,39 -177,67 -69,28 -150,63 -245,106 -126,56 -237,107 -332,152 -95,45 -176,86 -243,124 -67,38 -123,73 -167,105 -44,33 -79,64 -104,96 -25,31 -43,63 -54,95 -10,33 -15,67 -15,105 0,25 4,52 11,84 7,31 17,68 32,111 15,44 35,96 60,157 25,61 57,134 95,219 38,86 72,159 102,220 29,61 52,108 70,141 31,53 61,96 93,129 31,33 65,58 101,74 36,16 76,26 120,28 30,1 62,0 98,-5 36,-5 77,-14 125,-28 47,-14 102,-33 166,-57 64,-24 138,-54 224,-90 86,-36 185,-80 297,-130 85,-38 159,-72 223,-103 64,-31 120,-60 167,-86 47,-26 88,-51 122,-75 34,-24 64,-47 89,-70 43,-41 73,-85 90,-131 17,-47 21,-100 12,-158 -9,-59 -31,-127 -66,-204 -3,-7 -8,-16 -13,-27 -5,-11 -12,-25 -21,-43 -9,-18 -20,-41 -33,-68 l -454,202 z m 691,-1305 91,742 c 7,54 13,98 17,132 5,35 9,63 11,84 3,21 5,38 7,51 2,13 4,24 6,34 2,10 4,21 7,34 10,55 20,103 30,143 10,40 21,75 34,105 13,29 27,55 43,76 17,22 35,41 57,58 27,22 58,41 93,56 35,15 76,25 125,32 48,7 106,9 174,9 67,-1 147,-5 239,-13 92,-8 199,-20 321,-35 91,-11 171,-22 240,-32 69,-10 130,-20 183,-29 52,-9 100,-19 140,-29 41,-10 79,-21 114,-32 60,-21 111,-50 154,-87 43,-38 76,-82 99,-133 24,-52 36,-108 37,-171 0,-23 0,-43 0,-62 0,-19 -1,-39 -2,-61 -1,-22 -3,-49 -6,-81 -3,-32 -7,-73 -12,-122 -5,-49 -11,-110 -18,-182 l -91,-742 -491,60 91,742 c 2,12 4,29 5,49 2,20 4,42 6,65 2,23 4,45 6,66 3,47 4,84 3,113 -1,29 -4,52 -9,70 -5,18 -13,34 -25,49 -11,16 -27,30 -48,42 -21,12 -49,23 -86,33 -36,10 -83,20 -140,29 -57,10 -128,19 -211,29 -104,13 -190,21 -258,26 -68,4 -122,3 -162,-4 -40,-6 -71,-18 -92,-37 -21,-18 -36,-43 -46,-74 -4,-12 -7,-24 -10,-34 -3,-10 -5,-21 -8,-33 -3,-13 -6,-29 -9,-49 -3,-20 -7,-46 -12,-79 -5,-33 -11,-74 -18,-124 l -91,-742 -491,60 z m 2505,1371 491,60 50,-409 694,85 c 50,6 91,12 124,16 32,5 57,10 76,15 19,5 33,11 43,19 10,7 19,16 25,26 11,15 19,33 24,54 4,21 6,51 4,87 -2,37 -6,85 -14,145 l -10,85 484,59 18,-150 c 14,-92 22,-168 23,-228 1,-60 -6,-108 -22,-144 -16,-36 -42,-64 -79,-85 -37,-21 -85,-38 -147,-52 34,-1 63,-3 87,-6 24,-4 46,-9 64,-16 18,-7 36,-16 54,-27 22,-14 41,-31 57,-51 16,-20 30,-44 41,-73 12,-29 22,-64 31,-106 8,-42 16,-91 23,-149 9,-69 13,-129 14,-180 1,-51 -2,-94 -10,-131 -8,-37 -21,-69 -38,-96 -18,-27 -41,-52 -69,-74 -16,-13 -30,-23 -43,-32 -13,-9 -28,-17 -45,-24 -17,-7 -39,-13 -65,-19 -27,-6 -61,-12 -104,-18 -43,-6 -96,-14 -160,-22 -64,-8 -143,-18 -235,-29 l -1187,-146 -198,1613 z m 591,-752 49,-397 692,85 c 56,7 100,14 132,18 33,4 57,8 73,11 16,3 28,7 36,10 8,3 16,8 24,13 22,13 36,34 43,62 7,29 8,68 1,120 -4,34 -9,63 -16,86 -7,23 -15,41 -25,55 -11,13 -23,24 -39,31 -7,3 -13,5 -20,7 -6,2 -14,3 -24,3 -10,0 -24,0 -42,-1 -18,-1 -43,-4 -74,-7 -31,-3 -71,-7 -119,-12 l -692,-85 z m 1995,-461 -421,1569 501,134 421,-1569 z m 2031,760 c -120,-61 -223,-113 -310,-155 -87,-43 -162,-76 -223,-103 -62,-26 -114,-46 -158,-58 -44,-13 -82,-20 -115,-22 -33,-2 -65,-1 -95,5 -38,7 -73,21 -108,44 -35,22 -70,55 -106,98 -36,43 -75,99 -116,168 -41,69 -87,153 -138,253 -54,105 -97,196 -130,272 -33,76 -57,142 -71,197 -14,55 -20,103 -18,144 2,41 12,80 29,115 13,27 30,54 52,79 22,26 51,53 87,81 36,28 84,59 141,94 58,35 130,75 215,121 86,46 189,99 309,161 118,60 221,111 307,153 87,42 160,76 222,102 61,26 114,45 158,59 44,13 82,20 116,23 33,2 65,1 95,-5 38,-7 75,-22 109,-44 35,-22 70,-55 106,-98 36,-43 74,-100 116,-171 42,-71 89,-158 142,-261 53,-103 95,-192 127,-267 32,-75 56,-140 70,-194 14,-54 20,-102 17,-143 -2,-41 -12,-79 -29,-113 -13,-28 -30,-54 -52,-79 -22,-26 -50,-52 -86,-80 -36,-28 -83,-59 -140,-94 -58,-34 -129,-75 -214,-120 -86,-46 -188,-99 -308,-160 z m -191,376 c 81,41 148,76 203,105 55,29 99,54 133,74 34,20 60,39 78,54 18,16 31,31 39,45 8,14 12,30 15,47 4,22 3,49 -4,80 -6,31 -19,69 -39,115 -19,46 -47,103 -81,171 -29,58 -55,103 -77,137 -23,35 -44,60 -65,77 -20,17 -42,27 -65,31 -15,3 -32,4 -50,3 -18,-1 -39,-6 -63,-13 -24,-8 -54,-19 -89,-34 -35,-15 -78,-35 -129,-60 -50,-25 -110,-55 -180,-90 -71,-36 -132,-68 -183,-95 -50,-27 -92,-50 -126,-70 -34,-20 -61,-38 -81,-53 -21,-16 -37,-30 -48,-44 -12,-14 -21,-28 -27,-42 -8,-17 -12,-34 -14,-52 -1,-18 1,-39 7,-62 6,-23 16,-51 30,-83 14,-32 32,-71 55,-115 32,-63 60,-115 83,-156 24,-40 45,-72 64,-95 19,-23 38,-41 56,-52 16,-11 33,-19 49,-24 17,-5 37,-5 61,0 24,4 54,14 92,29 37,15 85,37 143,65 58,28 129,64 213,107 z m 1686,555 -510,547 c -37,40 -67,73 -90,99 -24,26 -43,47 -57,63 -15,16 -26,28 -35,38 -9,10 -16,19 -23,27 -6,8 -13,17 -21,27 -36,43 -66,81 -90,115 -24,34 -44,65 -58,93 -14,28 -24,56 -30,82 -6,27 -9,53 -8,81 0,35 6,71 17,107 11,36 30,75 56,116 26,41 61,88 105,139 44,51 99,109 164,174 65,65 143,140 233,223 67,63 127,117 178,164 52,47 99,87 140,121 41,34 79,64 113,89 34,25 67,47 98,67 55,33 110,53 166,62 56,9 111,6 166,-10 55,-15 106,-42 155,-81 17,-14 33,-28 47,-40 15,-12 30,-26 46,-41 16,-15 36,-34 58,-57 23,-23 51,-52 86,-87 34,-35 77,-79 128,-131 l 510,-547 -362,-337 -510,547 c -9,9 -20,21 -34,36 -14,15 -29,30 -46,46 -16,16 -32,32 -47,46 -34,32 -62,57 -84,75 -23,18 -42,30 -59,38 -17,8 -35,12 -54,13 -19,2 -40,-1 -63,-9 -23,-8 -50,-23 -81,-45 -31,-21 -68,-51 -112,-89 -44,-38 -97,-86 -158,-143 -77,-71 -138,-132 -185,-181 -47,-50 -80,-92 -101,-127 -21,-35 -32,-66 -31,-94 0,-28 9,-55 27,-83 7,-11 13,-21 19,-29 6,-9 13,-18 21,-27 8,-10 19,-23 32,-38 14,-15 31,-35 53,-60 22,-25 50,-56 84,-93 l 510,-547 -362,-337 z m 961,2503 -65,42 c -64,41 -115,80 -152,116 -37,36 -62,72 -77,110 -14,37 -20,79 -17,125 2,33 10,70 23,112 14,42 35,91 63,147 29,56 65,122 111,198 46,76 101,164 167,266 68,105 127,195 178,269 51,75 95,137 133,186 38,50 70,89 98,119 28,29 53,52 75,67 46,33 95,52 146,58 51,6 107,-2 168,-24 61,-22 131,-58 207,-108 65,-42 117,-82 156,-120 38,-38 66,-76 82,-115 16,-39 23,-81 21,-127 -1,-23 -4,-47 -9,-72 -6,-25 -15,-53 -28,-85 -13,-32 -32,-71 -56,-116 -24,-45 -55,-100 -93,-164 -38,-64 -84,-141 -138,-230 -46,-76 -85,-140 -117,-193 -32,-53 -58,-97 -78,-133 -20,-35 -36,-63 -46,-84 -11,-21 -17,-37 -21,-47 -6,-23 -6,-44 2,-63 8,-18 24,-36 48,-51 20,-13 37,-22 53,-27 16,-5 32,-3 49,6 17,9 36,25 58,50 22,25 48,60 79,106 31,45 69,103 114,172 40,62 75,115 102,158 28,43 50,79 67,108 17,28 29,52 38,70 8,18 14,33 16,45 3,11 3,22 2,32 -2,12 -5,22 -10,31 -5,10 -14,20 -25,30 -12,11 -29,23 -51,38 l 260,400 c 15,-8 28,-16 40,-23 12,-8 21,-13 25,-16 56,-36 101,-71 134,-105 34,-35 58,-69 74,-106 15,-36 22,-75 21,-115 -1,-33 -8,-69 -19,-108 -12,-39 -30,-84 -55,-135 -25,-51 -58,-111 -100,-181 -41,-70 -93,-151 -154,-246 -64,-98 -119,-182 -166,-252 -48,-70 -89,-129 -124,-177 -35,-48 -67,-87 -94,-118 -27,-31 -54,-56 -77,-76 -24,-19 -48,-36 -74,-49 -57,-31 -125,-38 -203,-21 -78,17 -167,58 -268,124 -68,44 -121,87 -159,130 -38,42 -64,86 -78,131 -10,35 -12,72 -8,112 5,40 18,85 40,135 22,50 53,109 94,176 10,15 25,39 45,73 20,34 44,74 71,120 27,47 55,95 85,148 30,50 58,98 84,142 27,45 50,84 70,118 20,33 35,58 45,73 28,44 47,80 56,108 10,28 10,51 1,71 -9,19 -27,37 -54,54 -28,18 -53,30 -74,33 -21,3 -40,0 -57,-11 -8,-5 -17,-12 -25,-21 -9,-9 -20,-21 -32,-37 -12,-16 -28,-38 -47,-66 -19,-28 -42,-63 -71,-106 -28,-43 -63,-96 -103,-158 -38,-58 -69,-107 -95,-148 -26,-41 -47,-74 -62,-101 -16,-27 -28,-49 -37,-67 -8,-18 -14,-33 -17,-45 -3,-12 -4,-23 -5,-34 -1,-15 2,-29 8,-41 6,-12 16,-25 32,-38 15,-13 36,-28 63,-46 l -261,-402 z m 1769,2412 -911,261 291,1014 219,-63 -212,-740 145,-42 200,698 201,-58 -200,-698 133,-38 211,735 214,-61 -289,-1008 z m 321,1176 -930,181 186,958 237,-46 -129,-661 693,-135 -58,-297 z m 183,1186 -947,33 37,1054 227,-8 -27,-770 151,-5 25,726 209,-7 -25,-726 138,-5 27,764 223,-8 -37,-1048 z m -647,2121 c -23,-3 -43,-6 -59,-10 -16,-4 -29,-9 -38,-16 -10,-7 -16,-18 -21,-32 -4,-14 -6,-33 -6,-56 0,-24 2,-53 6,-90 4,-36 9,-80 16,-132 6,-50 12,-93 17,-128 5,-35 12,-63 19,-85 7,-22 17,-39 29,-50 12,-11 27,-19 46,-23 19,-3 42,-4 70,-2 28,2 62,6 102,11 47,6 85,12 114,18 30,7 52,14 69,23 17,9 28,19 36,32 5,8 9,18 11,30 2,12 4,28 3,47 0,19 -2,44 -4,74 -3,30 -7,67 -12,112 -3,22 -6,45 -9,69 -4,24 -7,47 -11,69 -4,22 -7,40 -10,56 -4,20 -8,37 -12,49 -4,13 -8,22 -12,29 -4,7 -9,12 -15,14 -5,3 -11,5 -17,7 -6,1 -15,2 -25,2 -11,0 -25,-1 -43,-2 l -35,286 47,6 c 51,7 95,8 130,5 35,-3 65,-12 89,-27 24,-15 44,-35 61,-62 10,-15 18,-32 26,-52 8,-20 15,-45 22,-75 6,-30 13,-66 20,-109 7,-43 13,-94 21,-154 10,-80 18,-151 24,-212 6,-61 10,-114 11,-159 1,-45 1,-83 -2,-115 -3,-32 -9,-59 -17,-81 -8,-22 -18,-40 -32,-55 -13,-15 -29,-28 -48,-39 -12,-7 -27,-14 -45,-20 -17,-6 -39,-12 -65,-17 -26,-6 -58,-11 -96,-17 -38,-6 -84,-12 -138,-18 -55,-7 -101,-12 -141,-15 -39,-4 -70,-6 -91,-7 -35,-1 -66,2 -92,8 -26,6 -48,15 -67,28 -19,13 -36,30 -50,52 -10,14 -19,31 -27,51 -8,19 -16,43 -23,71 -7,27 -14,61 -22,100 -7,39 -15,85 -22,139 -8,54 -16,116 -24,188 -7,54 -12,101 -16,142 -4,41 -6,78 -7,109 -1,31 -1,59 1,83 2,24 4,46 8,66 8,34 20,62 39,84 18,23 43,40 76,54 32,13 73,23 122,29 4,1 10,1 17,2 7,1 16,2 28,2 12,1 26,2 44,4 l 35,-288 z m 513,521 -233,-63 -109,408 -682,-183 -78,292 682,183 -109,408 233,63 297,-1108 z m -1242,925 -103,269 224,86 -146,381 c -11,28 -20,50 -27,68 -7,17 -14,31 -19,41 -6,10 -11,17 -17,22 -5,5 -12,8 -19,11 -10,4 -21,6 -34,6 -13,-1 -30,-4 -50,-10 -20,-6 -47,-16 -80,-28 l -46,-18 -102,265 82,32 c 50,21 92,36 126,45 34,9 62,12 85,8 23,-4 42,-15 59,-33 17,-18 34,-43 50,-76 -4,19 -7,36 -9,50 -1,14 -1,27 0,39 1,11 4,23 7,34 5,14 12,28 21,39 9,12 21,23 36,34 15,11 33,21 56,32 22,11 49,22 81,34 38,15 71,26 100,33 29,8 54,12 76,13 22,1 42,-2 60,-8 18,-6 35,-16 52,-29 9,-7 17,-14 24,-20 7,-6 13,-14 20,-22 6,-9 13,-20 20,-34 7,-14 15,-33 25,-56 10,-23 21,-52 35,-88 14,-35 30,-78 50,-129 l 250,-651 -885,-340 z m 342,440 218,84 -146,379 c -12,31 -22,55 -29,72 -7,18 -13,31 -17,40 -4,9 -8,15 -11,19 -3,4 -7,8 -11,12 -10,10 -24,16 -41,16 -17,0 -40,-5 -68,-16 -19,-7 -34,-14 -46,-21 -12,-7 -21,-14 -28,-22 -6,-8 -10,-17 -12,-26 -1,-4 -1,-8 -1,-12 0,-4 0,-8 2,-14 1,-6 3,-14 7,-24 3,-10 8,-24 14,-41 6,-17 14,-39 24,-66 l 146,-379 z m -19,1195 -829,-460 -147,265 829,460 z"
               id="path7"
               inkscape:connector-curvature="0"
               style="fill:#2b2a29;fill-rule:nonzero;stroke-width:6.16894913" />
            <path
               d="m 17587,15244 c -19,-13 -35,-25 -47,-36 -12,-11 -21,-21 -26,-32 -5,-11 -6,-24 -3,-38 3,-14 10,-32 21,-52 11,-21 27,-46 47,-76 21,-30 46,-67 76,-110 29,-42 54,-77 75,-105 21,-28 40,-50 57,-66 17,-16 33,-26 49,-31 16,-4 33,-4 51,2 18,6 39,16 63,31 24,15 52,34 85,57 39,27 69,50 92,70 23,20 40,37 50,52 11,15 16,30 17,45 1,9 -1,20 -4,32 -4,12 -10,26 -19,43 -9,17 -22,38 -39,64 -17,25 -38,56 -63,93 -13,18 -26,37 -41,57 -15,20 -28,38 -42,56 -14,18 -25,32 -35,45 -13,16 -24,29 -33,38 -9,9 -17,16 -24,20 -7,4 -14,6 -20,6 -6,0 -12,-1 -18,-2 -6,-2 -14,-5 -23,-10 -9,-5 -21,-12 -37,-22 l -165,236 38,27 c 42,30 80,52 113,65 33,14 63,20 91,18 28,-2 56,-10 83,-26 15,-8 31,-20 47,-34 16,-14 34,-33 54,-56 20,-23 43,-52 68,-87 26,-35 56,-77 91,-126 46,-66 86,-125 120,-176 34,-51 62,-96 85,-135 22,-39 40,-73 52,-103 12,-30 20,-56 23,-79 3,-23 3,-44 -2,-64 -5,-19 -13,-38 -24,-57 -8,-12 -18,-25 -30,-39 -13,-13 -29,-29 -50,-46 -21,-17 -46,-37 -77,-60 -31,-23 -69,-50 -113,-81 -45,-32 -84,-58 -117,-80 -33,-22 -59,-38 -77,-49 -31,-17 -59,-29 -85,-37 -26,-7 -50,-9 -73,-7 -23,3 -46,10 -69,22 -15,8 -31,19 -48,32 -16,13 -34,30 -54,51 -19,21 -41,47 -66,78 -25,31 -53,69 -85,112 -32,44 -68,95 -110,154 -31,44 -58,84 -81,118 -23,35 -42,66 -57,93 -16,27 -28,52 -39,74 -10,22 -18,43 -23,62 -9,33 -11,64 -5,92 6,28 19,56 41,83 22,27 53,54 94,82 4,3 9,6 15,10 6,4 14,9 23,15 10,6 22,14 37,24 z m -1140,1283 c -16,-17 -29,-32 -40,-44 -10,-13 -17,-25 -20,-37 -3,-12 -1,-24 4,-38 5,-13 16,-29 31,-47 15,-18 35,-40 61,-66 26,-26 58,-57 95,-93 36,-35 68,-65 94,-89 26,-24 49,-42 68,-54 20,-12 37,-19 54,-21 16,-1 33,2 50,11 17,9 35,23 56,42 20,19 44,43 72,72 33,34 59,63 77,86 19,24 32,44 39,61 7,17 10,33 8,47 -1,9 -4,19 -10,30 -6,11 -15,24 -27,39 -12,15 -29,33 -50,55 -21,22 -48,48 -80,79 -16,15 -33,31 -51,48 -18,16 -35,32 -52,47 -17,15 -31,27 -43,37 -16,13 -29,24 -40,31 -11,8 -20,12 -28,15 -8,2 -14,3 -21,2 -6,-1 -12,-3 -18,-6 -6,-3 -13,-7 -21,-14 -8,-7 -19,-16 -32,-29 l -208,200 33,34 c 36,37 69,66 98,85 29,20 58,31 86,35 28,4 57,0 86,-10 17,-5 34,-13 53,-24 19,-11 40,-26 64,-45 24,-19 52,-43 84,-72 32,-29 70,-65 113,-107 58,-56 109,-106 151,-150 43,-44 79,-83 109,-117 29,-34 53,-64 71,-91 18,-27 30,-51 38,-73 8,-22 11,-43 10,-63 -1,-20 -5,-40 -13,-60 -5,-13 -13,-28 -23,-44 -10,-16 -23,-34 -40,-55 -17,-21 -38,-45 -64,-74 -26,-28 -58,-62 -96,-101 -38,-40 -71,-73 -100,-101 -28,-28 -50,-49 -66,-63 -27,-23 -53,-40 -77,-52 -24,-12 -47,-19 -70,-21 -23,-2 -47,1 -72,9 -17,5 -34,12 -53,22 -18,10 -39,23 -63,40 -23,17 -50,38 -80,64 -30,26 -65,57 -105,94 -40,37 -85,80 -137,130 -39,38 -73,71 -102,101 -29,30 -54,57 -74,80 -21,24 -38,45 -52,65 -14,20 -26,39 -35,56 -15,31 -23,61 -23,90 0,29 8,59 25,89 17,30 42,63 77,99 3,3 7,7 13,12 5,5 12,11 20,19 8,8 19,18 32,31 l 209,-201 z m -493,1150 c 63,-46 118,-86 162,-120 45,-34 83,-64 113,-89 30,-25 54,-47 72,-67 18,-19 32,-37 42,-54 10,-17 18,-33 23,-51 6,-21 8,-44 6,-68 -2,-24 -10,-51 -23,-81 -13,-30 -32,-65 -57,-105 -25,-40 -57,-86 -95,-139 -41,-56 -76,-102 -107,-140 -31,-37 -59,-67 -84,-89 -25,-22 -48,-38 -70,-48 -22,-10 -45,-15 -67,-16 -18,0 -36,2 -55,6 -19,4 -41,12 -65,24 -24,12 -53,28 -86,49 -33,21 -74,48 -120,80 -46,32 -102,72 -165,118 -63,46 -116,85 -161,119 -45,34 -82,63 -112,88 -30,25 -54,47 -72,67 -18,19 -32,37 -42,54 -10,17 -18,34 -23,51 -6,22 -9,45 -6,69 2,24 10,51 23,81 13,30 32,65 58,105 26,41 58,88 98,143 40,55 75,100 105,137 30,37 58,66 82,88 25,22 48,37 70,47 22,10 44,14 67,15 18,1 36,-2 55,-6 19,-4 41,-12 65,-24 24,-11 53,-27 86,-48 33,-21 73,-47 119,-80 46,-32 101,-71 165,-118 z m -145,-199 c -43,31 -79,57 -108,78 -29,21 -54,37 -74,50 -20,12 -36,21 -49,26 -13,5 -24,8 -34,8 -10,0 -19,-1 -28,-5 -13,-4 -26,-11 -40,-23 -14,-11 -31,-28 -50,-51 -19,-22 -41,-51 -67,-88 -22,-30 -39,-56 -51,-77 -12,-21 -20,-39 -23,-54 -3,-15 -3,-29 1,-42 2,-9 7,-18 12,-26 6,-9 13,-19 24,-29 11,-11 24,-23 41,-37 17,-14 39,-31 65,-51 26,-20 58,-43 94,-69 38,-27 70,-51 98,-70 27,-19 51,-35 70,-47 19,-12 36,-22 49,-28 14,-7 26,-11 36,-14 10,-2 20,-4 29,-3 11,0 21,3 31,7 10,4 20,11 31,20 11,9 23,22 35,37 13,16 28,36 45,59 24,34 44,61 59,85 15,23 26,42 33,59 7,16 11,30 12,43 2,11 1,22 -1,32 -2,10 -7,21 -16,32 -9,11 -22,25 -40,40 -18,15 -42,34 -72,57 -30,22 -67,50 -112,82 z m -636,736 -401,-859 -258,120 306,640 -46,22 -623,-492 -218,102 -24,793 -44,20 -293,-646 -258,120 401,859 471,-220 -4,-677 515,439 474,-221 z m -1990,-158 -277,80 64,223 -350,100 c -50,14 -93,27 -127,38 -35,11 -64,21 -87,30 -23,9 -43,18 -59,26 -16,9 -31,18 -44,28 -23,18 -42,37 -55,58 -13,21 -22,46 -25,73 -4,28 -3,60 3,97 5,37 15,80 29,130 17,59 35,108 53,146 19,38 41,67 65,87 24,20 54,33 88,38 34,5 74,4 121,-3 9,-1 19,-3 28,-5 9,-2 19,-4 30,-6 11,-3 25,-6 40,-10 16,-4 35,-9 58,-16 23,-6 51,-14 83,-24 l 624,-179 -261,-911 z m -148,530 67,232 -347,99 c -31,9 -55,15 -73,20 -18,5 -31,8 -40,10 -9,2 -16,3 -21,3 -5,0 -10,0 -15,-1 -13,-1 -23,-5 -32,-11 -9,-6 -17,-16 -24,-29 -7,-13 -13,-30 -19,-51 -6,-21 -10,-39 -12,-53 -2,-15 -1,-27 2,-37 3,-10 8,-18 16,-26 5,-5 9,-9 14,-12 5,-3 12,-7 21,-10 9,-4 23,-8 41,-14 18,-5 43,-13 74,-22 l 347,-99 z m -2004,-98 -325,46 623,870 445,-62 365,-1008 -326,46 -58,170 -621,87 -103,-148 z m 231,339 419,-59 -131,382 -56,8 z m -634,624 33,-947 -294,-10 -18,706 -31,-1 -474,-723 -501,-18 -33,947 294,10 18,-706 30,1 471,723 506,18 z m -1548,-72 -391,-719 75,-327 -291,-67 -75,327 -643,480 367,85 373,-303 215,439 z"
               id="path9"
               inkscape:connector-curvature="0"
               style="fill:#2b2a29;fill-rule:nonzero;stroke-width:6.16894913" />
          </g>
          <g
             id="g5016"
             style="stroke-width:1.30934644">
            <path
               inkscape:connector-curvature="0"
               style="fill:none;stroke-width:0.01309347"
               d="m -336.87868,117.74422 a 18.096258,18.096258 0 0 1 -18.09626,18.09626 18.096258,18.096258 0 0 1 -18.09625,-18.09626 18.096258,18.096258 0 0 1 18.09625,-18.096256 18.096258,18.096258 0 0 1 18.09626,18.096256 z"
               id="circle5" />
            <path
               inkscape:connector-curvature="0"
               style="fill:#fefefe;stroke-width:0.01309347"
               d="m -338.63397,117.25605 a 16.156312,16.156312 0 0 1 -16.15631,16.15631 16.156312,16.156312 0 0 1 -16.15631,-16.15631 16.156312,16.156312 0 0 1 16.15631,-16.15631 16.156312,16.156312 0 0 1 16.15631,16.15631 z"
               id="circle12" />
            <path
               style="fill:#000000;fill-opacity:1;stroke:none;stroke-width:0.01309347"
               d="m -345.31561,100.97393 -11.72086,0.19403 -0.11572,0.49433 c -0.29302,0.0348 -0.57955,0.0766 -0.85585,0.12669 -2.65522,0.47968 -5.99172,2.19464 -7.96138,4.08577 -1.52182,1.46451 -3.05848,3.76733 -3.85654,5.78157 -1.03365,2.6064 -1.25445,6.74098 -0.5222,9.71245 1.26048,5.11418 5.51352,9.52206 10.56503,11.11003 l -0.79179,2.25782 13.71125,-21.53828 -9.28821,2.91052 z m -13.26343,1.89015 c 0.0169,-3.4e-4 0.0312,6.8e-4 0.0426,0.003 0.0806,0.0149 -0.37358,0.37994 -1.0082,0.80868 -0.63675,0.42875 -1.36267,0.94663 -1.61737,1.14827 v -0.002 c -0.2547,0.20375 -0.51147,0.3693 -0.5709,0.3693 -0.16768,0 -0.73647,-0.64728 -0.66643,-0.75977 0.17888,-0.28786 3.29574,-1.55774 3.82034,-1.56736 z m 1.10614,0.16858 -0.31841,1.36028 c -0.23282,0.24902 -0.44943,0.48181 -0.58811,0.63484 l -0.55828,0.61554 -0.10607,-0.27805 c -0.13159,-0.34808 -0.59436,-0.37993 -0.99338,-0.0658 -0.3205,0.25045 -0.71733,0.28019 -0.71733,0.0531 0,-0.29293 1.92356,-1.5877 3.28158,-2.31989 z m 10.40763,0.58066 -0.50936,0.7114 c 0.95014,0.5433 1.9052,1.20613 1.74121,1.31015 -0.0764,0.0488 -0.40757,0.0892 -0.73444,0.0892 -0.54849,0.002 -0.57581,0.0301 -1.50111,-0.70876 l -0.34166,0.47722 c 0.0516,0.0717 0.0548,0.11823 0.0132,0.14446 h -0.002 c -0.0282,0.018 -0.0808,0.033 -0.14697,0.0453 l -0.41965,0.58614 c 0.0888,-0.002 0.17927,-0.003 0.27158,-0.003 l 1.1249,-0.002 0.57736,0.58362 c 0.56034,0.5667 0.57096,0.59217 0.42239,0.87022 -0.0828,0.15706 -0.28444,0.38425 -0.44575,0.50311 -0.57519,0.42662 -0.28862,1.24368 0.43939,1.24368 0.23135,0 0.35869,0.0594 0.39902,0.18679 0.0318,0.10188 0.10397,0.27166 0.15915,0.37567 0.0849,0.15706 0.0488,0.19953 -0.22079,0.25259 -0.17829,0.0361 -0.32258,0.10401 -0.32258,0.15071 l 0.002,0.004 c 0,0.0467 -0.14001,0.18678 -0.31194,0.30776 l -0.31204,0.22068 -0.32894,-0.32893 c -0.19102,-0.19102 -0.32904,-0.43932 -0.32904,-0.59426 0,-0.47331 -0.19098,-0.69838 -0.56454,-0.66018 -0.31413,0.0297 -0.35866,-0.008 -0.63034,-0.55389 -0.20163,-0.40115 -0.27804,-0.69196 -0.24196,-0.91695 0.0382,-0.24833 -0.0128,-0.39897 -0.21234,-0.61334 -0.0402,-0.0437 -0.0821,-0.0846 -0.12329,-0.12164 l -0.75648,1.05646 c 0.003,-4e-4 0.005,-5.7e-4 0.007,-9.9e-4 l 0.46912,-0.0701 0.39902,1.02947 c 0.36931,0.95512 0.38627,1.04215 0.22496,1.22043 -0.0934,0.10401 -0.17188,0.33741 -0.17188,0.51782 0,0.20163 -0.0659,0.35233 -0.1699,0.39266 l -0.002,-0.004 c -0.19448,0.0746 -1.72106,0.0869 -3.00716,0.0581 l -0.32487,0.45376 c 1.64358,-0.0442 4.07314,-0.0282 4.2277,0.0697 0.0764,0.0488 0.16774,0.26527 0.2017,0.47964 0.0594,0.36507 0.0446,0.39266 -0.20379,0.39266 -0.34384,0 -0.46478,0.15713 -0.55817,0.72171 -0.0309,0.18784 -0.0431,0.3043 -0.0206,0.40089 l 2.21053,-0.69275 c 0.18608,-0.28208 0.42118,-0.26746 0.97682,0.0286 0.78745,0.42025 0.77887,0.41179 0.56662,0.56672 -0.11461,0.0828 -0.1613,0.20801 -0.12098,0.31413 0.0552,0.14221 0.15494,0.16338 0.52001,0.10607 0.90842,-0.14009 1.38601,-0.0743 1.70863,0.23559 0.20375,0.19739 0.29082,0.37575 0.26959,0.55828 -0.034,0.3014 -0.33325,0.39478 -0.65162,0.20588 -0.11673,-0.0679 -0.40118,-0.0849 -0.71743,-0.0424 -0.69405,0.0955 -1.16307,-0.0743 -1.4772,-0.53492 -0.2462,-0.36082 -0.27807,-0.37358 -0.9233,-0.37358 -0.18955,0 -0.33238,-0.006 -0.44005,-0.0191 l -3.03753,4.77149 c 0.1379,0.17043 0.30349,0.36362 0.4679,0.54326 0.52849,0.57519 0.68345,0.68343 0.97847,0.68343 0.56246,0 0.59428,0.14213 0.29713,1.38802 -0.1462,0.61658 -0.31354,1.17805 -0.37324,1.25389 -0.13011,0.1337 -3.04542,0.18173 -3.88999,0.0895 l -0.39442,0.6196 c 0.30898,-0.0304 0.86591,-0.0421 1.80296,-0.0421 1.77864,0 2.09692,0.0233 2.14999,0.16342 0.034,0.0913 -0.0424,0.46271 -0.17187,0.82778 -0.32686,0.92115 -1.64915,3.60183 -1.92295,3.89261 -0.20874,0.22075 -0.31825,0.23779 -1.53248,0.23779 -0.87659,0 -1.35205,-0.0424 -1.43695,-0.12733 -0.087,-0.087 -0.12734,-0.60075 -0.12734,-1.62165 0,-0.96038 4.3e-4,-1.30269 0.0808,-1.51186 l -0.52176,0.81976 c 0.0379,0.84051 -0.006,2.20705 -0.11517,2.31583 -0.13475,0.13475 -1.09789,0.16765 -1.3979,0.0609 l -0.32455,0.5098 c 0.57168,-0.0429 1.61723,0.0118 1.72245,0.11703 0.0849,0.0849 0.12734,0.54122 0.12734,1.3605 v 0.002 c -0.002,0.67708 -0.0402,1.29265 -0.0891,1.36906 -0.0615,0.0955 -0.36722,-0.1932 -1.0252,-0.97003 -0.55169,-0.6518 -0.89062,-1.0984 -1.04658,-1.39 l -1.95213,3.0666 c 0.21455,0.056 0.43016,0.10745 0.64701,0.15301 0.58793,0.1231 1.23524,0.2419 1.44112,0.26312 v 0.002 c 0.86385,0.0913 3.57006,0.0658 4.34265,-0.0404 1.84655,-0.25258 3.68246,-0.87025 5.43562,-1.82961 3.89688,-2.13309 6.78775,-6.01083 7.74499,-10.38526 0.43299,-1.98027 0.44569,-5.03877 0.0318,-7.04663 -0.36295,-1.75317 -1.42839,-4.1218 -2.57666,-5.73276 -0.82351,-1.15463 -2.43023,-2.74863 -3.61457,-3.58913 -0.34929,-0.24738 -0.85399,-0.54977 -1.40799,-0.8542 z m 0.85213,2.67262 c 0.12807,0.001 0.24544,0.0735 0.33299,0.21279 0.087,0.14008 0.0764,0.22279 -0.0488,0.34802 -0.14858,0.14857 -0.19103,0.13587 -0.42239,-0.11034 -0.21649,-0.23135 -0.23352,-0.29076 -0.0998,-0.37566 0.0804,-0.0509 0.16117,-0.0756 0.23801,-0.0748 z m -12.07612,0.23472 -0.32718,1.39768 c -0.0362,0.0785 -0.0597,0.18371 -0.0754,0.32203 l -0.3093,1.32145 c -0.0279,0.005 -0.0582,0.008 -0.0915,0.008 -0.12946,0 -0.28449,0.0488 -0.34604,0.11034 -0.0764,0.0764 -0.18455,0.051 -0.35011,-0.0827 l -0.23778,-0.19315 0.21859,-0.55609 c 0.12098,-0.30564 0.38845,-0.89148 0.59645,-1.30324 0.32686,-0.65161 0.44573,-0.78318 0.9063,-1.01665 0.006,-0.003 0.0104,-0.005 0.0159,-0.008 z m -1.43574,0.73915 c 0.003,-6.1e-4 0.005,-3.4e-4 0.006,8.6e-4 0.0191,0.0191 -0.12311,0.37564 -0.31413,0.79377 -0.36931,0.80017 -0.56673,0.94449 -0.68135,0.49028 -0.0573,-0.23135 0.0149,-0.36082 0.44575,-0.79805 0.26465,-0.26863 0.49942,-0.47755 0.54347,-0.48688 z m 14.86446,0.81648 c 0.0258,-0.002 0.0517,0.007 0.0756,0.0312 0.0404,0.0403 0.0212,0.18254 -0.0404,0.31413 -0.10188,0.22074 -0.11878,0.22502 -0.19095,0.0467 -0.0655,-0.16383 0.044,-0.38373 0.15575,-0.39211 z m -22.04864,0.38443 c 0.12964,-0.005 0.16342,0.32551 0.10771,1.0116 -0.0616,0.74287 -0.0445,0.84266 0.1847,1.15254 0.19527,0.26531 0.22494,0.37988 0.13579,0.52209 l 0.002,-0.002 c -0.16343,0.25894 -1.93152,0.32895 -2.02703,0.0806 -0.0934,-0.23984 0.82995,-1.94629 1.43486,-2.64883 0.0648,-0.0754 0.11857,-0.11431 0.16178,-0.11593 z m 23.34223,0.36261 c 0.10904,-5.1e-4 0.20828,0.0303 0.20828,0.0929 0,0.0531 -0.0594,0.11675 -0.1337,0.14434 -0.1889,0.0679 -0.41393,-0.0255 -0.34177,-0.14225 0.0393,-0.0626 0.15814,-0.0945 0.26719,-0.095 z m -0.97179,0.21169 c 0.0616,0 0.11243,0.0467 0.11243,0.10617 0,0.0573 -0.0211,0.10617 -0.0466,0.10617 -0.0255,0 -0.0765,-0.0467 -0.11253,-0.10617 -0.0361,-0.0573 -0.0148,-0.10617 0.0467,-0.10617 z m -0.51298,0.54227 c 0.0643,-0.005 0.12028,0.0506 0.16486,0.16671 0.0424,0.10825 -0.008,0.23135 -0.12943,0.3205 h -0.002 c -0.36082,0.26318 -0.50299,0.18467 -0.31621,-0.17616 0.10387,-0.20057 0.20031,-0.30519 0.28298,-0.31105 z m -22.69631,2.234 c 0.5285,0 1.01242,0.0361 1.07609,0.0785 0.14221,0.0976 0.11671,1.77862 -0.0467,2.90778 -0.0637,0.43935 -0.11677,1.09094 -0.11889,1.44539 -0.002,0.35658 -0.0616,0.70464 -0.13163,0.77469 h 0.002 c -0.0849,0.0849 -0.55821,0.12733 -1.41994,0.12733 -1.41569,0 -1.54729,-0.0509 -1.54729,-0.58153 0.002,-1.1334 0.7895,-4.47203 1.10362,-4.67366 0.0658,-0.0424 0.55407,-0.0785 1.08257,-0.0785 z m 13.1838,2.27591 -0.43051,0.60127 c -7.1e-4,0.38083 -0.004,0.71175 -0.008,0.99011 l 0.44421,-0.13919 c -0.004,-0.30209 -0.006,-0.65242 -0.006,-1.06435 0,-0.13934 6.4e-4,-0.26147 7.1e-4,-0.38784 z m 12.13392,0.30634 c 0.0489,-0.006 0.0963,0.0157 0.13293,0.0751 0.0509,0.0828 0.0573,0.24825 0.0127,0.36711 v 0.002 c -0.11249,0.30563 -0.29511,0.33533 -0.38213,0.0615 -0.0716,-0.22445 0.0896,-0.48835 0.23647,-0.50596 z m -23.65549,0.66292 c 0.0519,-4.5e-4 0.11482,0.0276 0.19283,0.0764 0.12522,0.0785 0.25465,0.22508 0.28648,0.32696 0.0318,0.10188 0.22715,0.42869 0.43303,0.72796 0.20588,0.29927 0.35868,0.62404 0.33958,0.7238 v -0.002 c -0.0276,0.1422 -0.17404,0.18676 -0.68343,0.21224 -0.86597,0.0424 -0.94456,-0.0573 -0.84905,-1.0761 0.0685,-0.72907 0.12495,-0.98772 0.28056,-0.98911 z m 4.90346,0.71074 c 0.0412,-0.004 0.0861,0.0423 0.16254,0.14259 0.0849,0.11461 0.15707,0.33318 0.15707,0.48599 0,0.15283 0.053,0.33115 0.11878,0.39695 0.0153,0.0153 0.028,0.0331 0.0383,0.0518 l -0.0579,0.24766 c -0.1325,0.082 -0.37242,0.0556 -0.50454,-0.0766 -0.15494,-0.15494 -0.16557,-0.92968 -0.017,-1.15254 0.0409,-0.0603 0.0707,-0.0931 0.10278,-0.0959 z m -1.69679,0.0874 0.50092,0.0318 0.50092,0.0318 0.034,0.46067 c 0.017,0.25257 -0.0234,0.53057 -0.0934,0.61334 -0.0785,0.0955 -0.31407,0.14858 -0.6197,0.14434 -0.61765,-0.0106 -0.80234,-0.0785 -0.66862,-0.24196 0.0552,-0.0679 0.15495,-0.32896 0.22287,-0.58153 z m 20.64076,0.13512 c 0.0511,-7.1e-4 0.22652,0.23343 0.37391,0.53986 0.11673,0.23984 0.1932,0.45633 0.17198,0.47755 -0.0446,0.0446 -0.40967,-0.55401 -0.52428,-0.85541 -0.0424,-0.11275 -0.0449,-0.16163 -0.0216,-0.162 z m -25.9134,1.57252 c 0.57924,0.006 1.10228,0.0523 1.17843,0.14521 0.0594,0.0743 0.14222,0.42246 0.18042,0.7748 0.12523,1.13128 0.37987,2.43015 0.65579,3.34706 0.14857,0.49029 0.24407,0.95935 0.21224,1.04001 -0.087,0.22285 -2.65312,0.21233 -2.87598,-0.0106 -0.52,-0.52001 -1.36687,-4.71834 -1.03364,-5.12161 0.10028,-0.12058 0.938,-0.182 1.68274,-0.17494 z m 2.67054,0.009 c 0.59005,0 0.77471,0.0466 1.11218,0.28013 0.22286,0.15494 0.63243,0.32472 0.91047,0.37566 0.3396,0.0637 0.57734,0.18476 0.72379,0.36941 0.12098,0.15069 0.38634,0.30766 0.5901,0.3501 0.34808,0.07 0.37773,0.11047 0.46264,0.60501 0.025,0.14957 0.0833,0.46958 0.14916,0.82711 l -0.59009,2.52116 0.95281,-0.45847 c 0.0359,0.26601 0.0506,0.44886 0.0337,0.47646 v -0.004 c -0.034,0.0552 -0.91695,0.0997 -1.97394,0.0997 -2.24771,0 -2.03546,0.12947 -2.54485,-1.54729 -0.48393,-1.58761 -0.7917,-3.47655 -0.61554,-3.76308 0.0509,-0.0828 0.34176,-0.13162 0.7896,-0.13162 z m 4.5993,0.0263 -0.18042,0.77094 c -0.0307,-0.0885 -0.065,-0.17178 -0.0997,-0.23899 -0.16131,-0.30988 -0.16344,-0.36296 -0.0234,-0.45211 0.0506,-0.0321 0.16626,-0.0611 0.30349,-0.0798 z m 19.62126,0.0909 c 0.10727,-0.0119 0.46177,0.38733 0.46177,0.53656 0,0.0531 -0.0446,0.0955 -0.0955,0.0955 -0.13584,0 -0.46912,-0.53908 -0.38421,-0.62398 0.005,-0.005 0.0108,-0.007 0.018,-0.008 z m 0.76943,0.95259 c 0.0573,0 0.13589,0.0466 0.17198,0.10606 0.0361,0.0573 0.019,0.10617 -0.0404,0.10617 -0.0573,0 -0.13579,-0.0467 -0.17187,-0.10617 -0.0361,-0.0573 -0.0192,-0.10606 0.0402,-0.10606 z m -14.77606,0.96016 -0.37127,1.05876 c -0.007,-0.19605 -0.10893,-0.35479 -0.34462,-0.529 -0.0491,-0.0364 -0.10217,-0.0731 -0.15695,-0.10979 z m 7.9683,0.44092 c 0.11825,0.004 0.22965,0.0483 0.31084,0.1462 0.0722,0.087 0.30147,0.15915 0.50947,0.15915 0.35658,0 0.36719,0.0107 0.19951,0.19535 -0.27591,0.30563 -0.2186,0.71101 0.14435,1.01664 0.20588,0.17404 0.32049,0.36932 0.32049,0.54973 0,0.15494 0.0509,0.37994 0.1167,0.50092 0.0891,0.1698 0.0827,0.24189 -0.0276,0.31193 h 0.002 c -0.2462,0.15494 -2.54482,0.11678 -2.60637,-0.0445 -0.0276,-0.0764 0.0446,-0.54334 0.16342,-1.04001 0.11886,-0.49453 0.2164,-1.03156 0.2164,-1.18862 0.001,-0.35087 0.34844,-0.61512 0.65064,-0.60676 z m 6.78374,0.88152 c 0.003,4.2e-4 0.005,10e-4 0.007,0.004 0.0297,0.0276 -0.0511,0.39053 -0.17626,0.80441 -0.12523,0.41388 -0.27587,0.75352 -0.3353,0.75352 -0.14433,0 -0.3014,-0.43934 -0.22924,-0.64099 0.0843,-0.23234 0.64469,-0.93083 0.73367,-0.92023 z m -26.55362,2.62886 c 0.70042,0 1.34985,0.0275 1.44111,0.0636 0.0913,0.0361 0.38419,0.4967 0.65163,1.0252 0.58368,1.15887 1.25869,2.21585 2.0334,3.18583 0.45208,0.56883 0.53902,0.73438 0.40955,0.78532 l 0.002,-0.002 c -0.0913,0.0361 -0.58162,0.0638 -1.09102,0.0638 -1.12066,0 -1.27765,-0.0807 -2.30068,-1.18227 -1.20557,-1.29895 -2.61071,-3.44257 -2.48123,-3.78217 0.0488,-0.12734 0.30777,-0.15706 1.33504,-0.15706 z m 4.30009,0.002 c 1.47724,-0.002 1.80842,0.0255 1.94851,0.16551 0.0913,0.0913 0.1677,0.23135 0.1677,0.30776 0,0.17829 0.77251,2.03553 1.18852,2.86117 0.27167,0.53699 0.30782,0.70037 0.24415,1.12699 -0.0424,0.2738 -0.12736,0.53491 -0.19316,0.57737 l -0.002,0.002 c -0.0658,0.0446 -0.53478,0.0806 -1.04417,0.0806 -0.84263,0 -0.95513,-0.0233 -1.25652,-0.27804 -0.98696,-0.83201 -3.31318,-4.53567 -2.97996,-4.74792 0.0807,-0.0531 0.94865,-0.0955 1.92712,-0.0955 z m 15.22049,0.009 c 0.14495,7.1e-4 0.29812,0.004 0.452,0.008 l 1.12062,0.0318 0.0318,0.45211 c 0.0213,0.28017 0.10405,0.50512 0.22079,0.5879 0.30139,0.21649 0.32891,0.44578 0.11242,0.92758 -0.25682,0.56883 -1.57483,2.33045 -2.07573,2.76981 -0.37993,0.33323 -0.38208,0.33325 -1.6301,0.33112 -0.68769,-0.002 -1.30531,-0.0383 -1.37322,-0.0807 -0.0828,-0.0531 0.14432,-0.61549 0.71952,-1.77225 0.46269,-0.93177 0.94657,-2.02691 1.07817,-2.43231 0.17404,-0.54123 0.2972,-0.75136 0.45639,-0.79169 0.0907,-0.0222 0.45245,-0.0338 0.88733,-0.031 z m -12.46308,0.29845 c 0.14227,1.6e-4 0.39588,0.0893 0.56223,0.22067 0.26531,0.21013 0.40538,0.62832 0.56245,1.67682 h -0.002 c 0.0382,0.24621 0.0192,0.53486 -0.0402,0.64099 -0.0913,0.16555 -0.1401,0.11668 -0.33749,-0.34178 -0.31413,-0.72801 -0.85113,-2.07571 -0.85113,-2.13726 0,-0.0411 0.0417,-0.0595 0.10639,-0.0595 z m 6.10732,0.63352 -0.44706,0.70218 c 0.0257,-0.0295 0.0528,-0.0594 0.085,-0.0941 0.15461,-0.16728 0.25346,-0.32089 0.36205,-0.60807 z m 8.75297,1.64414 c 0.005,-5e-5 0.01,6.3e-4 0.0138,0.002 0.0658,0.0213 0.17192,0.27587 0.2356,0.56453 l 0.11462,0.52428 0.44564,-0.0275 c 0.312,-0.0191 0.44574,0.0148 0.44574,0.11243 0,0.14432 -0.56454,0.71958 -1.1079,1.12709 h -0.002 c -0.24833,0.1889 -0.452,0.23132 -1.08662,0.23132 -0.42874,0 -0.80661,-0.0466 -0.84269,-0.10398 -0.0361,-0.0573 0.21652,-0.45632 0.56037,-0.88931 0.34384,-0.43298 0.7365,-0.96364 0.87021,-1.18226 0.12735,-0.20495 0.27898,-0.35764 0.3534,-0.35844 z m -16.80265,2.95417 0.91694,0.80024 c 0.50515,0.43935 1.2056,1.02093 1.55792,1.29261 0.0419,0.0321 0.0773,0.0606 0.1166,0.0914 l -0.11484,0.3274 c -0.54608,-0.17489 -1.34037,-0.4868 -1.9757,-0.79442 -1.12279,-0.54336 -2.55761,-1.50281 -2.39842,-1.60257 0.0679,-0.0424 0.52222,-0.0848 1.01039,-0.0954 z m 2.05456,0.0106 c 0.79337,-10e-4 1.01077,0.0612 1.08421,0.61269 l -0.36677,1.04593 c -0.19838,-0.16621 -0.50994,-0.43634 -1.0252,-0.88601 -0.78532,-0.68556 -0.75136,-0.77048 0.30776,-0.77261 z m 6.78988,0.002 c 0.46148,0.003 0.88905,0.0348 0.9912,0.0998 0.1231,0.0785 0.0382,0.24829 -0.44784,0.87867 h 0.002 c -0.33111,0.42874 -0.88504,1.09106 -1.22888,1.46886 -0.52,0.57095 -0.641,0.6558 -0.70043,0.49873 -0.12947,-0.3396 -0.0849,-2.67853 0.0552,-2.81862 0.086,-0.0859 0.73536,-0.13097 1.32869,-0.12745 z m 6.24431,1.2e-4 c 0.99545,0.002 1.05482,0.10606 0.33531,0.58362 -1.04002,0.6898 -1.63847,1.01666 -2.55538,1.39658 h 0.002 c -0.84687,0.3502 -1.26718,0.46277 -1.04856,0.28024 0.0552,-0.0467 0.38846,-0.32056 0.74079,-0.60709 0.35234,-0.28654 0.91265,-0.77681 1.24588,-1.08881 0.59854,-0.56034 0.61131,-0.56667 1.27989,-0.56454 z m -3.10817,0.005 c 0.5813,0.001 1.165,0.0289 1.24884,0.0819 0.24408,0.15493 -1.72347,1.84448 -2.99059,2.56612 h 0.002 c -0.59005,0.33535 -1.57282,0.573 -1.7978,0.43291 -0.0934,-0.0594 0.0574,-0.28647 0.51584,-0.77676 0.35657,-0.38205 0.88077,-1.02099 1.16307,-1.42214 0.28229,-0.40115 0.56243,-0.76405 0.62398,-0.8065 0.0743,-0.052 0.65317,-0.0769 1.23447,-0.0756 z m -7.40519,1.43509 c 0.12529,-0.004 0.29728,0.17957 0.82843,0.75449 0.50091,0.54336 0.73867,0.87446 0.66226,0.9254 h 0.002 c -0.26743,0.17404 -1.24161,-0.0297 -1.24161,-0.25896 0,-0.0594 -0.14432,-0.29079 -0.32049,-0.51365 -0.3778,-0.47967 -0.38631,-0.54546 -0.10189,-0.80441 0.067,-0.0603 0.11426,-0.10101 0.17121,-0.10287 z"
               id="path3802"
               inkscape:connector-curvature="0"
               inkscape:export-xdpi="600"
               inkscape:export-ydpi="600" />
            <path
               style="fill:#ffffff;fill-rule:evenodd;stroke:#000000;stroke-width:0.65467322;stroke-linecap:butt;stroke-linejoin:miter;stroke-miterlimit:4;stroke-dasharray:none;stroke-opacity:1"
               d="m -356.53081,102.63816 9.31718,-0.056 -10.09858,14.12848 8.87633,-2.46684 -11.80173,18.25468 6.00103,-14.12849 -7.3335,3.44619 z"
               id="path4499-5-2"
               inkscape:connector-curvature="0"
               sodipodi:nodetypes="cccccccc"
               inkscape:export-xdpi="600"
               inkscape:export-ydpi="600" />
          </g>
        </g>
        <text
           xml:space="preserve"
           style="font-style:normal;font-variant:normal;font-weight:normal;font-stretch:normal;font-size:4.23333311px;line-height:1.25;font-family:'Microgramma D Extended';-inkscape-font-specification:'Microgramma D Extended';letter-spacing:0px;word-spacing:0px;fill:#000000;fill-opacity:1;stroke:none;stroke-width:0.26458332"
           x="91.659218"
           y="-65.479164"
           id="text5529"><tspan
             sodipodi:role="line"
             id="tspan5527"
             x="91.659218"
             y="-65.479164"
             style="stroke-width:0.26458332">curiouselectric.co.uk</tspan></text>
        <text
           xml:space="preserve"
           style="font-style:normal;font-variant:normal;font-weight:normal;font-stretch:normal;font-size:2.11666656px;line-height:1.25;font-family:'Microgramma D Extended';-inkscape-font-specification:'Microgramma D Extended';letter-spacing:0px;word-spacing:0px;fill:#000000;fill-opacity:1;stroke:none;stroke-width:0.26458332"
           x="-88.972855"
           y="-130.82797"
           id="text5529-9"
           transform="rotate(90)"><tspan
             sodipodi:role="line"
             id="tspan5527-9"
             x="-88.972855"
             y="-130.82797"
             style="font-size:2.11666656px;stroke-width:0.26458332">PHONES</tspan></text>
      </g>
    </g>
  </g>
</svg>
