M48
; DRILL file {KiCad (5.1.0)-1} date 25/05/2020 12:21:11
; FORMAT={-:-/ absolute / inch / decimal}
; #@! TF.CreationDate,2020-05-25T12:21:11+01:00
; #@! TF.GenerationSoftware,Kicad,Pcbnew,(5.1.0)-1
FMAT,2
INCH
T1C0.0157
T2C0.0197
T3C0.0250
T4C0.0315
T5C0.0315
T6C0.0320
T7C0.0394
T8C0.0394
T9C0.0400
T10C0.0472
T11C0.0787
T12C0.1181
T13C0.6693
%
G90
G05
T3
X0.4078Y1.3517
X0.5403Y2.4642
X1.1028Y1.2567
X1.3278Y1.2617
X1.6228Y0.8067
X1.6478Y1.7317
X1.693Y1.6493
T4
X1.848Y0.7774
X1.848Y0.5411
X1.849Y0.659
X0.4728Y3.1717
X0.4728Y2.8717
X0.5728Y3.1717
X0.5728Y2.8717
X0.6728Y3.1717
X0.6728Y2.8717
X0.7728Y3.1717
X0.7728Y2.8717
X0.8728Y3.1717
X0.8728Y2.8717
X0.9728Y3.1717
X0.9728Y2.8717
X1.0728Y3.1717
X1.0728Y2.8717
X1.498Y1.4667
X1.498Y1.3093
X1.498Y1.1518
X0.148Y1.0343
X0.148Y0.7343
X0.248Y1.0343
X0.248Y0.7343
X0.348Y1.0343
X0.348Y0.7343
X0.448Y1.0343
X0.448Y0.7343
X0.548Y1.0343
X0.548Y0.7343
X0.648Y1.0343
X0.648Y0.7343
X0.748Y1.0343
X0.748Y0.7343
T5
X1.898Y3.1093
X1.898Y2.8093
X0.538Y3.7043
X0.538Y3.4043
X0.248Y3.1343
X0.248Y2.8343
X1.4478Y3.5967
X1.4478Y3.3967
X0.473Y1.4843
X0.473Y1.1843
X1.773Y1.9217
X1.773Y1.7217
X0.9228Y0.6717
X1.2228Y0.6717
X1.4478Y2.7467
X1.7478Y2.7467
X0.148Y2.4093
X0.148Y2.2093
X1.3478Y0.9217
X1.5478Y0.9217
X0.0978Y1.7717
X0.1978Y1.7717
X1.373Y0.7093
X1.373Y0.5093
X1.5128Y0.6717
X1.6128Y0.6717
X1.6128Y0.5717
X1.2978Y3.5967
X1.2978Y3.3967
X0.1228Y2.6967
X0.2228Y2.6967
X1.5478Y2.6467
X1.8478Y2.6467
X1.2978Y2.9467
X1.2978Y2.8467
X0.9228Y0.5467
X1.2228Y0.5467
X1.598Y3.5343
X1.698Y3.5343
X1.2978Y3.2217
X1.2978Y3.1217
X1.898Y2.0217
X1.898Y1.7217
X1.898Y3.5593
X1.898Y3.2593
X0.298Y3.5343
X0.298Y3.3343
X0.098Y3.5843
X0.098Y3.2843
X1.4478Y3.2217
X1.4478Y3.0217
X0.9228Y0.9217
X1.2228Y0.9217
X0.098Y3.1343
X0.098Y2.8343
X0.4278Y3.5367
X0.4278Y3.3367
X0.9228Y0.7967
X1.2228Y0.7967
X0.148Y0.5593
X0.348Y0.5593
X0.123Y2.5593
X0.223Y2.5593
X1.598Y3.2343
X1.698Y3.2343
X1.5978Y2.9467
X1.6978Y2.9467
T6
X0.6228Y1.2717
X0.7228Y1.2717
X0.698Y3.7043
X0.698Y3.4043
X0.798Y3.7043
X0.798Y3.4043
X0.898Y3.7043
X0.898Y3.4043
X0.998Y3.7043
X0.998Y3.4043
T7
X1.8819Y1.5061
X1.8819Y1.1124
T8
X0.9228Y1.1717
X1.2928Y1.1717
X0.348Y1.5717
X0.348Y1.2017
X0.9278Y1.0467
X1.2978Y1.0467
T9
X0.0978Y1.4217
X0.0978Y1.3217
T10
X0.798Y3.8593
X1.198Y3.8593
T11
X0.148Y0.4593
X0.348Y0.4593
T12
X0.2067Y3.75
X0.2067Y0.2067
X1.7815Y3.75
X1.7815Y0.2067
T1
G00X1.8126Y0.9073
M15
G01X1.8835Y0.9073
M16
G05
G00X1.8126Y0.4112
M15
G01X1.8835Y0.4112
M16
G05
T2
G00X1.4122Y2.1311
M15
G01X1.4122Y2.1606
M16
G05
G00X1.5352Y2.51
M15
G01X1.5648Y2.51
M16
G05
G00X1.5844Y2.4215
M15
G01X1.614Y2.4215
M16
G05
G00X1.673Y2.1262
M15
G01X1.7026Y2.1262
M16
G05
G00X1.8689Y2.3083
M15
G01X1.8689Y2.3378
M16
G05
T13
G00X0.973Y2.1402
M15
G01X0.973Y1.6283
M16
G05
T0
M30
