<?xml version="1.0" standalone="no"?>
 <!DOCTYPE svg PUBLIC "-//W3C//DTD SVG 1.1//EN" 
 "http://www.w3.org/Graphics/SVG/1.1/DTD/svg11.dtd"> 
<svg xmlns="http://www.w3.org/2000/svg" version="1.1" 
    width="29.7002cm" height="21.0007cm" viewBox="0 0 116930 82680 ">
<title>SVG Picture created as Bat_Listener_v4-B_SilkS.svg date 2020/08/06 10:11:37 </title>
  <desc>Picture generated by PCBNEW </desc>
<g style="fill:#000000; fill-opacity:1;stroke:#000000; stroke-opacity:1;
stroke-linecap:round; stroke-linejoin:round; "
 transform="translate(0 0) scale(1 1)">
</g>
<g style="fill:#000000; fill-opacity:0.0; 
stroke:#000000; stroke-width:-0.000393701; stroke-opacity:1; 
stroke-linecap:round; stroke-linejoin:round;">
</g>
<g style="fill:#000000; fill-opacity:0.0; 
stroke:#000000; stroke-width:150; stroke-opacity:1; 
stroke-linecap:round; stroke-linejoin:round;">
<path d="M59055 53149
L59055 17716
" />
<path d="M54527 55118
L57086 55118
" />
<path d="M54527 51181
L54527 55118
" />
<path d="M43897 51181
L54527 51181
" />
<path d="M43897 55118
L43897 51181
" />
<path d="M41338 55118
L43897 55118
" />
<path d="M39370.1 53149.6 A1968.5 1968.5 0.0 0 0 41338.6 55118.1 " />
<path d="M57086.6 55118.1 A1968.5 1968.5 0.0 0 0 59055.1 53149.6 " />
<path d="M59055.1 17716.5 A1968.5 1968.5 0.0 0 0 57086.6 15748 " />
<path d="M41338.6 15748 A1968.5 1968.5 0.0 0 0 39370.1 17716.5 " />
<path d="M57086 15748
L41338 15748
" />
<path d="M39370 17716
L39370 53149
" />
</g>
<g style="fill:#000000; fill-opacity:0.0; 
stroke:#000000; stroke-width:118.11; stroke-opacity:1; 
stroke-linecap:round; stroke-linejoin:round;">
<path d="M58708 34250
L53000 34250
" />
<path d="M58708 29722
L58708 34250
" />
<path d="M53000 29722
L58708 29722
" />
<path d="M53000 34250
L53000 29722
" />
<path d="M60283 31297
L58708 31297
" />
<path d="M60283 32675
L60283 31297
" />
<path d="M58708 32675
L60283 32675
" />
<path d="M60283 31198
L58708 31198
" />
<path d="M60283 32773
L60283 31198
" />
<path d="M58708 32773
L60283 32773
" />
<g >
</g>
<g >
</g>
<g >
</g>
<g >
</g>
<g >
</g>
<g >
</g>
<g >
</g>
<g >
</g>
<g >
</g>
<g >
</g>
<g >
</g>
<g >
</g>
<g >
</g>
<g >
</g>
<g >
</g>
<g >
</g>
<g >
</g>
<g >
</g>
<g >
</g>
<g >
</g>
<g >
</g>
<g >
</g>
<g >
</g>
<g >
</g>
<g >
</g>
<g >
</g>
<g >
</g>
<g >
</g>
<g >
</g>
<g >
</g>
<g >
</g>
<g >
</g>
<g >
</g>
<g >
</g>
<g >
</g>
<g >
</g>
<g >
</g>
<g >
</g>
<g >
</g>
<g >
</g>
<g >
</g>
<g >
</g>
<g >
</g>
<g >
</g>
<g >
</g>
<g >
</g>
<g >
</g>
<g >
</g>
<g >
</g>
<g >
</g>
<g >
</g>
</g>
<g style="fill:#000000; fill-opacity:0.0; 
stroke:#000000; stroke-width:59.0551; stroke-opacity:1; 
stroke-linecap:round; stroke-linejoin:round;">
<path d="M53331 34484
L53331 34765
L53349 34821
L53387 34859
L53443 34878
L53481 34878
" />
<path d="M52937 34878
L53162 34878
" />
<path d="M53050 34878
L53050 34484
L53087 34540
L53125 34578
L53162 34596
" />
</g>
<g style="fill:#000000; fill-opacity:0.0; 
stroke:#000000; stroke-width:118.11; stroke-opacity:1; 
stroke-linecap:round; stroke-linejoin:round;">
<path d="M57104 35067
L57104 34476
L56924 34476
L56879 34504
L56857 34532
L56834 34589
L56834 34673
L56857 34729
L56879 34757
L56924 34785
L57104 34785
" />
<path d="M56632 35067
L56632 34476
" />
<path d="M56632 34757
L56362 34757
" />
<path d="M56362 35067
L56362 34476
" />
<path d="M56047 34476
L55957 34476
L55912 34504
L55867 34560
L55844 34673
L55844 34870
L55867 34982
L55912 35039
L55957 35067
L56047 35067
L56092 35039
L56137 34982
L56159 34870
L56159 34673
L56137 34560
L56092 34504
L56047 34476
" />
<path d="M55642 35067
L55642 34476
L55372 35067
L55372 34476
" />
<path d="M55147 34757
L54990 34757
" />
<path d="M54922 35067
L55147 35067
L55147 34476
L54922 34476
" />
<path d="M54742 35039
L54675 35067
L54562 35067
L54517 35039
L54495 35010
L54472 34954
L54472 34898
L54495 34842
L54517 34814
L54562 34785
L54652 34757
L54697 34729
L54720 34701
L54742 34645
L54742 34589
L54720 34532
L54697 34504
L54652 34476
L54540 34476
L54472 34504
" />
<g >
</g>
</g> 
</svg>
