G04 #@! TF.GenerationSoftware,KiCad,Pcbnew,(5.1.0)-1*
G04 #@! TF.CreationDate,2020-05-25T12:21:07+01:00*
G04 #@! TF.ProjectId,Bat_Listener_v4,4261745f-4c69-4737-9465-6e65725f7634,rev?*
G04 #@! TF.SameCoordinates,PX5f21070PY85c0b90*
G04 #@! TF.FileFunction,Copper,L2,Bot*
G04 #@! TF.FilePolarity,Positive*
%FSLAX46Y46*%
G04 Gerber Fmt 4.6, Leading zero omitted, Abs format (unit mm)*
G04 Created by KiCad (PCBNEW (5.1.0)-1) date 2020-05-25 12:21:07*
%MOMM*%
%LPD*%
G04 APERTURE LIST*
%ADD10C,0.381000*%
%ADD11C,0.304800*%
%ADD12C,0.250190*%
%ADD13R,3.000000X5.000000*%
%ADD14C,2.540000*%
%ADD15C,2.000000*%
%ADD16C,2.032000*%
%ADD17R,2.032000X2.032000*%
%ADD18R,2.032000X1.727200*%
%ADD19O,2.032000X1.727200*%
%ADD20C,1.905000*%
%ADD21R,1.905000X1.905000*%
%ADD22O,3.000000X1.200000*%
%ADD23C,2.199640*%
%ADD24O,1.778000X2.286000*%
%ADD25R,1.778000X2.286000*%
%ADD26R,1.574800X2.286000*%
%ADD27O,1.574800X2.286000*%
%ADD28R,1.800860X1.800860*%
%ADD29O,1.200000X2.400000*%
%ADD30O,2.400000X1.200000*%
%ADD31C,0.889000*%
%ADD32C,0.635000*%
%ADD33C,0.254000*%
G04 APERTURE END LIST*
D10*
X50250000Y5250000D02*
X50250000Y95250000D01*
D11*
X10467857Y63977429D02*
X10564619Y63759715D01*
X10661380Y63687143D01*
X10854904Y63614572D01*
X11145190Y63614572D01*
X11338714Y63687143D01*
X11435476Y63759715D01*
X11532238Y63904858D01*
X11532238Y64485429D01*
X9500238Y64485429D01*
X9500238Y63977429D01*
X9597000Y63832286D01*
X9693761Y63759715D01*
X9887285Y63687143D01*
X10080809Y63687143D01*
X10274333Y63759715D01*
X10371095Y63832286D01*
X10467857Y63977429D01*
X10467857Y64485429D01*
X10951666Y63034000D02*
X10951666Y62308286D01*
X11532238Y63179143D02*
X9500238Y62671143D01*
X11532238Y62163143D01*
X9500238Y61872858D02*
X9500238Y61002000D01*
X11532238Y61437429D02*
X9500238Y61437429D01*
X11532238Y58607143D02*
X11532238Y59332858D01*
X9500238Y59332858D01*
X11532238Y58099143D02*
X9500238Y58099143D01*
X11435476Y57446000D02*
X11532238Y57228286D01*
X11532238Y56865429D01*
X11435476Y56720286D01*
X11338714Y56647715D01*
X11145190Y56575143D01*
X10951666Y56575143D01*
X10758142Y56647715D01*
X10661380Y56720286D01*
X10564619Y56865429D01*
X10467857Y57155715D01*
X10371095Y57300858D01*
X10274333Y57373429D01*
X10080809Y57446000D01*
X9887285Y57446000D01*
X9693761Y57373429D01*
X9597000Y57300858D01*
X9500238Y57155715D01*
X9500238Y56792858D01*
X9597000Y56575143D01*
X9500238Y56139715D02*
X9500238Y55268858D01*
X11532238Y55704286D02*
X9500238Y55704286D01*
X10467857Y54760858D02*
X10467857Y54252858D01*
X11532238Y54035143D02*
X11532238Y54760858D01*
X9500238Y54760858D01*
X9500238Y54035143D01*
X11532238Y53382000D02*
X9500238Y53382000D01*
X11532238Y52511143D01*
X9500238Y52511143D01*
X10467857Y51785429D02*
X10467857Y51277429D01*
X11532238Y51059715D02*
X11532238Y51785429D01*
X9500238Y51785429D01*
X9500238Y51059715D01*
X11532238Y49535715D02*
X10564619Y50043715D01*
X11532238Y50406572D02*
X9500238Y50406572D01*
X9500238Y49826000D01*
X9597000Y49680858D01*
X9693761Y49608286D01*
X9887285Y49535715D01*
X10177571Y49535715D01*
X10371095Y49608286D01*
X10467857Y49680858D01*
X10564619Y49826000D01*
X10564619Y50406572D01*
X10177571Y47866572D02*
X11532238Y47503715D01*
X10177571Y47140858D01*
X10177571Y45907143D02*
X11532238Y45907143D01*
X9403476Y46270000D02*
X10854904Y46632858D01*
X10854904Y45689429D01*
D12*
X8553604Y62006631D02*
X8625087Y62101941D01*
X8625087Y62292562D01*
X8553604Y62387873D01*
X8482121Y62435528D01*
X8339155Y62483183D01*
X7910258Y62483183D01*
X7767292Y62435528D01*
X7695810Y62387873D01*
X7624327Y62292562D01*
X7624327Y62101941D01*
X7695810Y62006631D01*
X7624327Y61148837D02*
X8625087Y61148837D01*
X7624327Y61577734D02*
X8410638Y61577734D01*
X8553604Y61530079D01*
X8625087Y61434768D01*
X8625087Y61291802D01*
X8553604Y61196492D01*
X8482121Y61148837D01*
X8625087Y60672284D02*
X7624327Y60672284D01*
X7910258Y60672284D02*
X7767292Y60624629D01*
X7695810Y60576974D01*
X7624327Y60481663D01*
X7624327Y60386353D01*
X8625087Y60052766D02*
X7624327Y60052766D01*
X7123947Y60052766D02*
X7195430Y60100421D01*
X7266912Y60052766D01*
X7195430Y60005111D01*
X7123947Y60052766D01*
X7266912Y60052766D01*
X8625087Y59433248D02*
X8553604Y59528559D01*
X8482121Y59576214D01*
X8339155Y59623869D01*
X7910258Y59623869D01*
X7767292Y59576214D01*
X7695810Y59528559D01*
X7624327Y59433248D01*
X7624327Y59290282D01*
X7695810Y59194972D01*
X7767292Y59147317D01*
X7910258Y59099661D01*
X8339155Y59099661D01*
X8482121Y59147317D01*
X8553604Y59194972D01*
X8625087Y59290282D01*
X8625087Y59433248D01*
X7624327Y58241867D02*
X8625087Y58241867D01*
X7624327Y58670764D02*
X8410638Y58670764D01*
X8553604Y58623109D01*
X8625087Y58527799D01*
X8625087Y58384833D01*
X8553604Y58289522D01*
X8482121Y58241867D01*
X8553604Y57812970D02*
X8625087Y57717660D01*
X8625087Y57527039D01*
X8553604Y57431728D01*
X8410638Y57384073D01*
X8339155Y57384073D01*
X8196190Y57431728D01*
X8124707Y57527039D01*
X8124707Y57670004D01*
X8053224Y57765315D01*
X7910258Y57812970D01*
X7838775Y57812970D01*
X7695810Y57765315D01*
X7624327Y57670004D01*
X7624327Y57527039D01*
X7695810Y57431728D01*
X8553604Y56573934D02*
X8625087Y56669244D01*
X8625087Y56859865D01*
X8553604Y56955176D01*
X8410638Y57002831D01*
X7838775Y57002831D01*
X7695810Y56955176D01*
X7624327Y56859865D01*
X7624327Y56669244D01*
X7695810Y56573934D01*
X7838775Y56526279D01*
X7981741Y56526279D01*
X8124707Y57002831D01*
X8625087Y55954416D02*
X8553604Y56049726D01*
X8410638Y56097381D01*
X7123947Y56097381D01*
X8553604Y55191932D02*
X8625087Y55287242D01*
X8625087Y55477863D01*
X8553604Y55573174D01*
X8410638Y55620829D01*
X7838775Y55620829D01*
X7695810Y55573174D01*
X7624327Y55477863D01*
X7624327Y55287242D01*
X7695810Y55191932D01*
X7838775Y55144277D01*
X7981741Y55144277D01*
X8124707Y55620829D01*
X8553604Y54286482D02*
X8625087Y54381793D01*
X8625087Y54572414D01*
X8553604Y54667724D01*
X8482121Y54715380D01*
X8339155Y54763035D01*
X7910258Y54763035D01*
X7767292Y54715380D01*
X7695810Y54667724D01*
X7624327Y54572414D01*
X7624327Y54381793D01*
X7695810Y54286482D01*
X7624327Y54000551D02*
X7624327Y53619309D01*
X7123947Y53857585D02*
X8410638Y53857585D01*
X8553604Y53809930D01*
X8625087Y53714620D01*
X8625087Y53619309D01*
X8625087Y53285722D02*
X7624327Y53285722D01*
X7910258Y53285722D02*
X7767292Y53238067D01*
X7695810Y53190412D01*
X7624327Y53095101D01*
X7624327Y52999791D01*
X8625087Y52666204D02*
X7624327Y52666204D01*
X7123947Y52666204D02*
X7195430Y52713860D01*
X7266912Y52666204D01*
X7195430Y52618549D01*
X7123947Y52666204D01*
X7266912Y52666204D01*
X8553604Y51760755D02*
X8625087Y51856065D01*
X8625087Y52046686D01*
X8553604Y52141997D01*
X8482121Y52189652D01*
X8339155Y52237307D01*
X7910258Y52237307D01*
X7767292Y52189652D01*
X7695810Y52141997D01*
X7624327Y52046686D01*
X7624327Y51856065D01*
X7695810Y51760755D01*
X8482121Y51331858D02*
X8553604Y51284202D01*
X8625087Y51331858D01*
X8553604Y51379513D01*
X8482121Y51331858D01*
X8625087Y51331858D01*
X8553604Y50426408D02*
X8625087Y50521719D01*
X8625087Y50712340D01*
X8553604Y50807650D01*
X8482121Y50855305D01*
X8339155Y50902960D01*
X7910258Y50902960D01*
X7767292Y50855305D01*
X7695810Y50807650D01*
X7624327Y50712340D01*
X7624327Y50521719D01*
X7695810Y50426408D01*
X8625087Y49854545D02*
X8553604Y49949856D01*
X8482121Y49997511D01*
X8339155Y50045166D01*
X7910258Y50045166D01*
X7767292Y49997511D01*
X7695810Y49949856D01*
X7624327Y49854545D01*
X7624327Y49711580D01*
X7695810Y49616269D01*
X7767292Y49568614D01*
X7910258Y49520959D01*
X8339155Y49520959D01*
X8482121Y49568614D01*
X8553604Y49616269D01*
X8625087Y49711580D01*
X8625087Y49854545D01*
X8482121Y49092061D02*
X8553604Y49044406D01*
X8625087Y49092061D01*
X8553604Y49139717D01*
X8482121Y49092061D01*
X8625087Y49092061D01*
X7624327Y48186612D02*
X8625087Y48186612D01*
X7624327Y48615509D02*
X8410638Y48615509D01*
X8553604Y48567854D01*
X8625087Y48472543D01*
X8625087Y48329578D01*
X8553604Y48234267D01*
X8482121Y48186612D01*
X8625087Y47710060D02*
X7123947Y47710060D01*
X8053224Y47614749D02*
X8625087Y47328818D01*
X7624327Y47328818D02*
X8196190Y47710060D01*
D10*
X38750000Y250000D02*
X45250000Y250000D01*
X38750000Y10250000D02*
X38750000Y250000D01*
X11750000Y10250000D02*
X38750000Y10250000D01*
X11750000Y250000D02*
X11750000Y10250000D01*
X5250000Y250000D02*
X11750000Y250000D01*
X250000Y5250000D02*
G75*
G03X5250000Y250000I5000000J0D01*
G01*
X45250000Y250000D02*
G75*
G03X50250000Y5250000I0J5000000D01*
G01*
X50250000Y95250000D02*
G75*
G03X45250000Y100250000I-5000000J0D01*
G01*
X5250000Y100250000D02*
G75*
G03X250000Y95250000I0J-5000000D01*
G01*
X45250000Y100250000D02*
X5250000Y100250000D01*
X250000Y95250000D02*
X250000Y5250000D01*
D13*
X14555000Y42145000D03*
X34875000Y42145000D03*
D14*
X47800000Y28255000D03*
D15*
X38050000Y37255000D03*
D14*
X47800000Y38255000D03*
D15*
X38050000Y29255000D03*
X38050000Y33255000D03*
D16*
X18360000Y32300000D03*
D17*
X15820000Y32300000D03*
D14*
X32838000Y29760000D03*
X23440000Y29760000D03*
X8840000Y30522000D03*
X8840000Y39920000D03*
X23567000Y26585000D03*
X32965000Y26585000D03*
D18*
X2485000Y33570000D03*
D19*
X2485000Y36110000D03*
D20*
X40966000Y14520000D03*
X40966000Y17060000D03*
D21*
X38426000Y17060000D03*
D15*
X46965400Y16737380D03*
X46940000Y19745000D03*
X46940000Y13745000D03*
D22*
X46940000Y23045000D03*
X46940000Y10445000D03*
D17*
X3760000Y14205000D03*
D16*
X8840000Y14205000D03*
D23*
X3760000Y11665000D03*
X8840000Y11665000D03*
D24*
X27250000Y72940000D03*
X24710000Y72940000D03*
X22170000Y72940000D03*
X19630000Y72940000D03*
X17090000Y72940000D03*
X14550000Y72940000D03*
X12010000Y72940000D03*
X12010000Y80560000D03*
X14550000Y80560000D03*
X17090000Y80560000D03*
X19630000Y80560000D03*
X22170000Y80560000D03*
X24710000Y80560000D03*
D25*
X27250000Y80560000D03*
D24*
X19000000Y18650000D03*
X16460000Y18650000D03*
X13920000Y18650000D03*
X11380000Y18650000D03*
X8840000Y18650000D03*
X6300000Y18650000D03*
X3760000Y18650000D03*
X3760000Y26270000D03*
X6300000Y26270000D03*
X8840000Y26270000D03*
X11380000Y26270000D03*
X13920000Y26270000D03*
X16460000Y26270000D03*
D25*
X19000000Y26270000D03*
D26*
X25350000Y94088000D03*
D27*
X22810000Y94088000D03*
X20270000Y94088000D03*
X17730000Y94088000D03*
X17730000Y86468000D03*
X20270000Y86468000D03*
X22810000Y86468000D03*
X25350000Y86468000D03*
D28*
X30430000Y98025000D03*
D15*
X20270000Y98025000D03*
D16*
X40590000Y82150000D03*
D17*
X43130000Y82150000D03*
D16*
X40590000Y89770000D03*
D17*
X43130000Y89770000D03*
D16*
X40585000Y74845000D03*
D17*
X43125000Y74845000D03*
D16*
X2485000Y45000000D03*
D17*
X5025000Y45000000D03*
D16*
X48210000Y43730000D03*
X48210000Y51350000D03*
X48210000Y71355000D03*
X48210000Y78975000D03*
X48210000Y82785000D03*
X48210000Y90405000D03*
X13666000Y94088000D03*
X13666000Y86468000D03*
X2490000Y83420000D03*
X2490000Y91040000D03*
X6300000Y71990000D03*
X6300000Y79610000D03*
X12015000Y30080000D03*
X12015000Y37700000D03*
X31060000Y13885000D03*
X23440000Y13885000D03*
X2490000Y71990000D03*
X2490000Y79610000D03*
X31060000Y17060000D03*
X23440000Y17060000D03*
X44395000Y69765000D03*
X36775000Y69765000D03*
X23440000Y20235000D03*
X31060000Y20235000D03*
X46935000Y67225000D03*
X39315000Y67225000D03*
X23440000Y23410000D03*
X31060000Y23410000D03*
D29*
X35870000Y54505000D03*
D30*
X39370000Y63755000D03*
X42870000Y54005000D03*
D29*
X47470000Y59005000D03*
D30*
X40620000Y61505000D03*
D20*
X36775000Y91355000D03*
X36775000Y86275000D03*
X32965000Y86275000D03*
X32965000Y91355000D03*
X10867000Y89831000D03*
X10867000Y84751000D03*
X7570000Y89770000D03*
X7570000Y84690000D03*
X36775000Y81830000D03*
X36775000Y76750000D03*
X3760000Y61195000D03*
X3760000Y56115000D03*
X34875000Y18015000D03*
X34875000Y12935000D03*
X45035000Y48810000D03*
X45035000Y43730000D03*
X34235000Y23410000D03*
X39315000Y23410000D03*
D16*
X32965000Y79290000D03*
X32965000Y81830000D03*
X3125000Y65005000D03*
X5665000Y65005000D03*
X5660000Y68495000D03*
X3120000Y68495000D03*
X32965000Y74845000D03*
X32965000Y72305000D03*
D31*
X41220000Y20489000D03*
X43003000Y41891000D03*
X10359000Y34332000D03*
X33727000Y32046000D03*
X13724500Y62589500D03*
X28012000Y31919000D03*
X41855000Y43984000D03*
D32*
X20270000Y86468000D02*
X20270000Y87677000D01*
X33346000Y87926000D02*
X43130000Y87926000D01*
X31949000Y89323000D02*
X33346000Y87926000D01*
X21916000Y89323000D02*
X31949000Y89323000D01*
X20270000Y87677000D02*
X21916000Y89323000D01*
X46559000Y83039000D02*
X44273000Y85325000D01*
X46559000Y71355000D02*
X48210000Y71355000D01*
X20270000Y86468000D02*
X20270000Y87357000D01*
X43130000Y85325000D02*
X44273000Y85325000D01*
X43130000Y89770000D02*
X43130000Y87926000D01*
X43130000Y87926000D02*
X43130000Y87611000D01*
X43130000Y87611000D02*
X43130000Y85325000D01*
X43130000Y85325000D02*
X43130000Y82150000D01*
X46559000Y71355000D02*
X46559000Y72564000D01*
X46559000Y72564000D02*
X46559000Y83039000D01*
X45984999Y70780999D02*
X46559000Y71355000D01*
X45410999Y70780999D02*
X45984999Y70780999D01*
X44395000Y69765000D02*
X45410999Y70780999D01*
X45520000Y19745000D02*
X46940000Y19745000D01*
X44995490Y20269510D02*
X45520000Y19745000D01*
X40839000Y40936000D02*
X44995490Y36779510D01*
X44995490Y36779510D02*
X44995490Y20269510D01*
X40839000Y47921000D02*
X40839000Y49191000D01*
X40839000Y47921000D02*
X40839000Y40936000D01*
X40839000Y49191000D02*
X44776000Y53128000D01*
X44395000Y68328160D02*
X44395000Y69765000D01*
X44776000Y67947160D02*
X44395000Y68328160D01*
X44776000Y53128000D02*
X44776000Y67947160D01*
X8840000Y30080000D02*
X5284000Y30080000D01*
X3760000Y28556000D02*
X3760000Y26270000D01*
X5284000Y30080000D02*
X3760000Y28556000D01*
X34634051Y29760000D02*
X36920051Y27474000D01*
X32838000Y29760000D02*
X34634051Y29760000D01*
X36920051Y27474000D02*
X40331000Y27474000D01*
X40331000Y27474000D02*
X43252000Y24553000D01*
X43252000Y16806000D02*
X40966000Y14520000D01*
X43252000Y20489000D02*
X41220000Y20489000D01*
X43252000Y20489000D02*
X43252000Y16806000D01*
X43252000Y24553000D02*
X43252000Y20489000D01*
X22175000Y73260000D02*
X22175000Y72879000D01*
X22175000Y72879000D02*
X20524000Y71228000D01*
X20524000Y71228000D02*
X18111000Y71228000D01*
X18111000Y71228000D02*
X17095000Y72244000D01*
X17095000Y72244000D02*
X17095000Y73260000D01*
X17095000Y80880000D02*
X17095000Y81642000D01*
X17095000Y81642000D02*
X18238000Y82785000D01*
X23826000Y82785000D02*
X24715000Y81896000D01*
X18238000Y82785000D02*
X23826000Y82785000D01*
X24715000Y81896000D02*
X24715000Y80880000D01*
X17095000Y73260000D02*
X17095000Y80880000D01*
X27255000Y80880000D02*
X24715000Y80880000D01*
X3760000Y14205000D02*
X4395000Y14205000D01*
X45469380Y16737380D02*
X46965400Y16737380D01*
X44903000Y12488000D02*
X44903000Y16171000D01*
X44903000Y16171000D02*
X45469380Y16737380D01*
X5472000Y14205000D02*
X7184000Y15917000D01*
X3760000Y14205000D02*
X5472000Y14205000D01*
X7184000Y15917000D02*
X10486000Y15917000D01*
X10486000Y15917000D02*
X15119000Y11284000D01*
X15119000Y11284000D02*
X43699000Y11284000D01*
X43699000Y11284000D02*
X44903000Y12488000D01*
X22175000Y80880000D02*
X22175000Y78396000D01*
X39381000Y79290000D02*
X40590000Y80499000D01*
X36902000Y79290000D02*
X39381000Y79290000D01*
X34616000Y77004000D02*
X36902000Y79290000D01*
X23567000Y77004000D02*
X34616000Y77004000D01*
X22175000Y78396000D02*
X23567000Y77004000D01*
X40590000Y82150000D02*
X40590000Y80499000D01*
X40590000Y80499000D02*
X40590000Y80372000D01*
X43130000Y77832000D02*
X43130000Y74530000D01*
X40590000Y80372000D02*
X43130000Y77832000D01*
X48210000Y82785000D02*
X48210000Y78975000D01*
X36775000Y91355000D02*
X34042000Y94088000D01*
X25350000Y94088000D02*
X34042000Y94088000D01*
X25350000Y86468000D02*
X29470000Y86468000D01*
X35124000Y84624000D02*
X36775000Y86275000D01*
X31314000Y84624000D02*
X35124000Y84624000D01*
X29470000Y86468000D02*
X31314000Y84624000D01*
X22810000Y86468000D02*
X22810000Y86788000D01*
X22810000Y86788000D02*
X24202000Y88180000D01*
X31060000Y88180000D02*
X32965000Y86275000D01*
X24202000Y88180000D02*
X31060000Y88180000D01*
X22810000Y86468000D02*
X22810000Y87103000D01*
X10745000Y84690000D02*
X11888000Y84690000D01*
X11888000Y84690000D02*
X13666000Y86468000D01*
X13666000Y94088000D02*
X14555000Y94088000D01*
X14555000Y94088000D02*
X17730000Y90913000D01*
X17730000Y90913000D02*
X17730000Y86468000D01*
X7570000Y89770000D02*
X7570000Y92056000D01*
X9602000Y94088000D02*
X13666000Y94088000D01*
X7570000Y92056000D02*
X9602000Y94088000D01*
X7570000Y84690000D02*
X7570000Y84436000D01*
X2490000Y83420000D02*
X4522000Y83420000D01*
X5792000Y84690000D02*
X7570000Y84690000D01*
X4522000Y83420000D02*
X5792000Y84690000D01*
X9287000Y82973000D02*
X7570000Y84690000D01*
X26361000Y84624000D02*
X13788000Y84624000D01*
X33727000Y79290000D02*
X34870000Y80433000D01*
X12137000Y82973000D02*
X9287000Y82973000D01*
X32965000Y79290000D02*
X33727000Y79290000D01*
X28393000Y84624000D02*
X29409000Y83608000D01*
X29409000Y83608000D02*
X33854000Y83608000D01*
X34870000Y80433000D02*
X34870000Y81830000D01*
X13788000Y84624000D02*
X12137000Y82973000D01*
X26361000Y84624000D02*
X28393000Y84624000D01*
X34870000Y82592000D02*
X33854000Y83608000D01*
X34870000Y81830000D02*
X34870000Y82592000D01*
X36775000Y81830000D02*
X34870000Y81830000D01*
X32965000Y81830000D02*
X29663000Y81830000D01*
X14870000Y83735000D02*
X12015000Y80880000D01*
X27758000Y83735000D02*
X14870000Y83735000D01*
X29663000Y81830000D02*
X27758000Y83735000D01*
X12015000Y80880000D02*
X12015000Y81388000D01*
X6300000Y71990000D02*
X7062000Y71990000D01*
X7062000Y71990000D02*
X12015000Y76943000D01*
X12015000Y76943000D02*
X12015000Y80880000D01*
X3125000Y65005000D02*
X3125000Y63989000D01*
X3125000Y63989000D02*
X1982000Y62846000D01*
X1982000Y57893000D02*
X3760000Y56115000D01*
X1982000Y62846000D02*
X1982000Y57893000D01*
X2490000Y71990000D02*
X2490000Y69450000D01*
X2490000Y69450000D02*
X3125000Y68815000D01*
X3125000Y68815000D02*
X3125000Y65005000D01*
X23440000Y29760000D02*
X25980000Y29760000D01*
X25980000Y29760000D02*
X27885000Y27855000D01*
X27885000Y27855000D02*
X27885000Y18330000D01*
X27885000Y18330000D02*
X27885000Y17695000D01*
X31060000Y17060000D02*
X27885000Y17060000D01*
X27885000Y18330000D02*
X27885000Y17060000D01*
X27885000Y17060000D02*
X27885000Y13885000D01*
X34555000Y12935000D02*
X33666010Y12046010D01*
X34875000Y12935000D02*
X34555000Y12935000D01*
X29723990Y12046010D02*
X27885000Y13885000D01*
X33666010Y12046010D02*
X29723990Y12046010D01*
X34875000Y15795000D02*
X34875000Y18015000D01*
X32965000Y13885000D02*
X34875000Y15795000D01*
X31060000Y13885000D02*
X32965000Y13885000D01*
X5665000Y65005000D02*
X7824000Y65005000D01*
X14555000Y71736000D02*
X14555000Y73260000D01*
X7824000Y65005000D02*
X14555000Y71736000D01*
X45670000Y44050000D02*
X45035000Y44685000D01*
X12015000Y73260000D02*
X12015000Y71863000D01*
X8967000Y68815000D02*
X5665000Y68815000D01*
X12015000Y71863000D02*
X8967000Y68815000D01*
X43003000Y46778000D02*
X45035000Y48810000D01*
X43003000Y45376000D02*
X43003000Y46778000D01*
X43003000Y41891000D02*
X43003000Y45376000D01*
X14169000Y32300000D02*
X12137000Y34332000D01*
X15820000Y32300000D02*
X14169000Y32300000D01*
X12137000Y34332000D02*
X10359000Y34332000D01*
X15820000Y30649000D02*
X17090000Y29379000D01*
X15820000Y32300000D02*
X15820000Y30649000D01*
X17090000Y29379000D02*
X19630000Y29379000D01*
X19630000Y29379000D02*
X21027000Y27982000D01*
X21027000Y22648000D02*
X23440000Y20235000D01*
X21027000Y27982000D02*
X21027000Y22648000D01*
X42870000Y54005000D02*
X40724000Y54005000D01*
X40724000Y54005000D02*
X39950000Y53231000D01*
X39950000Y53231000D02*
X39950000Y39158000D01*
X33727000Y32046000D02*
X35505000Y32046000D01*
X35505000Y32046000D02*
X36267000Y31284000D01*
X38680000Y31284000D02*
X39950000Y32554000D01*
X36267000Y31284000D02*
X38680000Y31284000D01*
X39950000Y39158000D02*
X39950000Y32554000D01*
X24715000Y73260000D02*
X24715000Y74342000D01*
X24715000Y74342000D02*
X25472000Y75099000D01*
X29028000Y74845000D02*
X32965000Y74845000D01*
X28774000Y75099000D02*
X29028000Y74845000D01*
X25472000Y75099000D02*
X28774000Y75099000D01*
X38050000Y33255000D02*
X38050000Y37255000D01*
X34870000Y72940000D02*
X32965000Y74845000D01*
X34870000Y64050000D02*
X34870000Y72940000D01*
X38807000Y60113000D02*
X34870000Y64050000D01*
X38807000Y39426213D02*
X38807000Y60113000D01*
X38050000Y37255000D02*
X38050000Y38669213D01*
X38050000Y38669213D02*
X38807000Y39426213D01*
X31060000Y23410000D02*
X31060000Y25061000D01*
X31060000Y25061000D02*
X30171000Y25950000D01*
X30171000Y25950000D02*
X30171000Y30903000D01*
X32523000Y33255000D02*
X38050000Y33255000D01*
X30171000Y30903000D02*
X32523000Y33255000D01*
X27255000Y73260000D02*
X28327000Y73260000D01*
X29282000Y72305000D02*
X32965000Y72305000D01*
X28327000Y73260000D02*
X29282000Y72305000D01*
X27255000Y73260000D02*
X27128000Y73260000D01*
X19000000Y26270000D02*
X19000000Y25381000D01*
X27250000Y69765000D02*
X27250000Y72940000D01*
X25345000Y67860000D02*
X27250000Y69765000D01*
X18995000Y67860000D02*
X25345000Y67860000D01*
X13724500Y62589500D02*
X18995000Y67860000D01*
X20270000Y98025000D02*
X20270000Y94088000D01*
X2485000Y33570000D02*
X5914000Y33570000D01*
X8840000Y36496000D02*
X8840000Y39478000D01*
X5914000Y33570000D02*
X8840000Y36496000D01*
X12015000Y37700000D02*
X8840000Y37700000D01*
X8840000Y37700000D02*
X8840000Y37385000D01*
X8840000Y37385000D02*
X8840000Y39478000D01*
X14555000Y42145000D02*
X14555000Y58975000D01*
X14555000Y58975000D02*
X20265000Y64685000D01*
X20265000Y64685000D02*
X29790000Y64685000D01*
X35870000Y58605000D02*
X35870000Y54505000D01*
X29790000Y64685000D02*
X35870000Y58605000D01*
X23440000Y26585000D02*
X23821000Y26585000D01*
X23440000Y26585000D02*
X23059000Y26585000D01*
X23440000Y26458000D02*
X23567000Y26585000D01*
X38426000Y22521000D02*
X39315000Y23410000D01*
X38299000Y20235000D02*
X38426000Y20362000D01*
X37029000Y20235000D02*
X38299000Y20235000D01*
X38426000Y20362000D02*
X38426000Y22521000D01*
X38426000Y17060000D02*
X38426000Y20362000D01*
X37029000Y20235000D02*
X37664000Y20235000D01*
X31060000Y20235000D02*
X37029000Y20235000D01*
X34875000Y39010000D02*
X34870000Y39005000D01*
X34875000Y42145000D02*
X34875000Y39010000D01*
X34870000Y39005000D02*
X34870000Y37888000D01*
X34870000Y37888000D02*
X28901000Y31919000D01*
X28901000Y22394000D02*
X31060000Y20235000D01*
X28901000Y31919000D02*
X28901000Y22394000D01*
X28901000Y31919000D02*
X28012000Y31919000D01*
X41855000Y46524000D02*
X41855000Y43984000D01*
X41855000Y48429000D02*
X41855000Y46524000D01*
X45665000Y52239000D02*
X41855000Y48429000D01*
X45665000Y65955000D02*
X45665000Y52239000D01*
X46935000Y67225000D02*
X45665000Y65955000D01*
X23440000Y13885000D02*
X22043000Y13885000D01*
X21154000Y17314000D02*
X21159000Y17314000D01*
X21154000Y14774000D02*
X21154000Y17314000D01*
X22043000Y13885000D02*
X21154000Y14774000D01*
X21159000Y17314000D02*
X21159000Y19920000D01*
X21159000Y19920000D02*
X19254000Y21825000D01*
X19254000Y21825000D02*
X8078000Y21825000D01*
X8078000Y21825000D02*
X6300000Y23603000D01*
X6300000Y23603000D02*
X6300000Y26270000D01*
X6300000Y26270000D02*
X6300000Y26778000D01*
X6300000Y26778000D02*
X7570000Y28048000D01*
X7570000Y28048000D02*
X9983000Y28048000D01*
X9983000Y28048000D02*
X12015000Y30080000D01*
D33*
G36*
X13055000Y39006928D02*
G01*
X15882748Y39006928D01*
X16234526Y37847272D01*
X17082775Y36260310D01*
X18224326Y34869325D01*
X19615311Y33727774D01*
X21202273Y32879525D01*
X22924228Y32357176D01*
X24715000Y32180800D01*
X26505773Y32357176D01*
X27133764Y32547675D01*
X27055360Y32430335D01*
X26973985Y32233878D01*
X26932500Y32025321D01*
X26932500Y31812679D01*
X26973985Y31604122D01*
X27055360Y31407665D01*
X27173498Y31230859D01*
X27323859Y31080498D01*
X27500665Y30962360D01*
X27697122Y30880985D01*
X27905679Y30839500D01*
X27948500Y30839500D01*
X27948500Y29138538D01*
X26686607Y30400431D01*
X26656778Y30436778D01*
X26511741Y30555806D01*
X26346269Y30644252D01*
X26166723Y30698717D01*
X26026785Y30712500D01*
X25980000Y30717108D01*
X25933215Y30712500D01*
X25094684Y30712500D01*
X24919710Y30974366D01*
X24654366Y31239710D01*
X24342356Y31448189D01*
X23995668Y31591791D01*
X23627626Y31665000D01*
X23252374Y31665000D01*
X22884332Y31591791D01*
X22537644Y31448189D01*
X22225634Y31239710D01*
X21960290Y30974366D01*
X21751811Y30662356D01*
X21608209Y30315668D01*
X21535000Y29947626D01*
X21535000Y29572374D01*
X21608209Y29204332D01*
X21751811Y28857644D01*
X21960290Y28545634D01*
X22225634Y28280290D01*
X22450453Y28130071D01*
X22352634Y28064710D01*
X22087290Y27799366D01*
X21979500Y27638047D01*
X21979500Y27935216D01*
X21984108Y27982001D01*
X21965717Y28168723D01*
X21952362Y28212748D01*
X21911252Y28348269D01*
X21822806Y28513741D01*
X21703778Y28658778D01*
X21667431Y28688607D01*
X20336607Y30019431D01*
X20306778Y30055778D01*
X20161741Y30174806D01*
X19996269Y30263252D01*
X19816723Y30317717D01*
X19676785Y30331500D01*
X19630000Y30336108D01*
X19583215Y30331500D01*
X17484539Y30331500D01*
X17107133Y30708905D01*
X17190494Y30753463D01*
X17287185Y30832815D01*
X17366537Y30929506D01*
X17385704Y30965364D01*
X17577958Y30836903D01*
X17878421Y30712447D01*
X18197391Y30649000D01*
X18522609Y30649000D01*
X18841579Y30712447D01*
X19142042Y30836903D01*
X19412451Y31017585D01*
X19642415Y31247549D01*
X19823097Y31517958D01*
X19947553Y31818421D01*
X20011000Y32137391D01*
X20011000Y32462609D01*
X19947553Y32781579D01*
X19823097Y33082042D01*
X19642415Y33352451D01*
X19412451Y33582415D01*
X19142042Y33763097D01*
X18841579Y33887553D01*
X18522609Y33951000D01*
X18197391Y33951000D01*
X17878421Y33887553D01*
X17577958Y33763097D01*
X17385704Y33634636D01*
X17366537Y33670494D01*
X17287185Y33767185D01*
X17190494Y33846537D01*
X17080180Y33905502D01*
X16960482Y33941812D01*
X16836000Y33954072D01*
X14804000Y33954072D01*
X14679518Y33941812D01*
X14559820Y33905502D01*
X14449506Y33846537D01*
X14352815Y33767185D01*
X14273463Y33670494D01*
X14228905Y33587134D01*
X12843607Y34972431D01*
X12813778Y35008778D01*
X12668741Y35127806D01*
X12503269Y35216252D01*
X12323723Y35270717D01*
X12183785Y35284500D01*
X12137000Y35289108D01*
X12090215Y35284500D01*
X10876531Y35284500D01*
X10870335Y35288640D01*
X10673878Y35370015D01*
X10465321Y35411500D01*
X10252679Y35411500D01*
X10044122Y35370015D01*
X9847665Y35288640D01*
X9670859Y35170502D01*
X9520498Y35020141D01*
X9402360Y34843335D01*
X9320985Y34646878D01*
X9279500Y34438321D01*
X9279500Y34225679D01*
X9320985Y34017122D01*
X9402360Y33820665D01*
X9520498Y33643859D01*
X9670859Y33493498D01*
X9847665Y33375360D01*
X10044122Y33293985D01*
X10252679Y33252500D01*
X10465321Y33252500D01*
X10673878Y33293985D01*
X10870335Y33375360D01*
X10876531Y33379500D01*
X11742462Y33379500D01*
X13462397Y31659564D01*
X13492222Y31623222D01*
X13637259Y31504194D01*
X13802731Y31415748D01*
X13956106Y31369222D01*
X13982277Y31361283D01*
X14165928Y31343195D01*
X14165928Y31284000D01*
X14178188Y31159518D01*
X14214498Y31039820D01*
X14273463Y30929506D01*
X14352815Y30832815D01*
X14449506Y30753463D01*
X14559820Y30694498D01*
X14679518Y30658188D01*
X14804000Y30645928D01*
X14863195Y30645928D01*
X14881283Y30462278D01*
X14935749Y30282731D01*
X15001350Y30160000D01*
X15024195Y30117259D01*
X15143223Y29972222D01*
X15179564Y29942398D01*
X16383397Y28738564D01*
X16413222Y28702222D01*
X16558259Y28583194D01*
X16723731Y28494748D01*
X16895553Y28442626D01*
X16903277Y28440283D01*
X17089999Y28421892D01*
X17136784Y28426500D01*
X19235462Y28426500D01*
X19610890Y28051072D01*
X18111000Y28051072D01*
X17986518Y28038812D01*
X17866820Y28002502D01*
X17756506Y27943537D01*
X17659815Y27864185D01*
X17580463Y27767494D01*
X17521498Y27657180D01*
X17511869Y27625437D01*
X17447828Y27691433D01*
X17201092Y27861717D01*
X16925876Y27980593D01*
X16823013Y28004134D01*
X16587000Y27883330D01*
X16587000Y26397000D01*
X16607000Y26397000D01*
X16607000Y26143000D01*
X16587000Y26143000D01*
X16587000Y24656670D01*
X16823013Y24535866D01*
X16925876Y24559407D01*
X17201092Y24678283D01*
X17447828Y24848567D01*
X17511869Y24914563D01*
X17521498Y24882820D01*
X17580463Y24772506D01*
X17659815Y24675815D01*
X17756506Y24596463D01*
X17866820Y24537498D01*
X17986518Y24501188D01*
X18111000Y24488928D01*
X18659511Y24488928D01*
X18813278Y24442283D01*
X19000000Y24423892D01*
X19186723Y24442283D01*
X19340490Y24488928D01*
X19889000Y24488928D01*
X20013482Y24501188D01*
X20074501Y24519698D01*
X20074501Y22694795D01*
X20069892Y22648000D01*
X20088283Y22461278D01*
X20142071Y22283968D01*
X19960607Y22465431D01*
X19930778Y22501778D01*
X19785741Y22620806D01*
X19620269Y22709252D01*
X19440723Y22763717D01*
X19300785Y22777500D01*
X19254000Y22782108D01*
X19207215Y22777500D01*
X8472539Y22777500D01*
X7252500Y23997538D01*
X7252500Y24826186D01*
X7382844Y24933156D01*
X7570000Y25161207D01*
X7757156Y24933156D01*
X7989215Y24742710D01*
X8253969Y24601196D01*
X8541244Y24514052D01*
X8840000Y24484627D01*
X9138755Y24514052D01*
X9426030Y24601196D01*
X9690784Y24742710D01*
X9922844Y24933156D01*
X10110000Y25161207D01*
X10297156Y24933156D01*
X10529215Y24742710D01*
X10793969Y24601196D01*
X11081244Y24514052D01*
X11380000Y24484627D01*
X11678755Y24514052D01*
X11966030Y24601196D01*
X12230784Y24742710D01*
X12462844Y24933156D01*
X12650000Y25161207D01*
X12837156Y24933156D01*
X13069215Y24742710D01*
X13333969Y24601196D01*
X13621244Y24514052D01*
X13920000Y24484627D01*
X14218755Y24514052D01*
X14506030Y24601196D01*
X14770784Y24742710D01*
X15002844Y24933156D01*
X15193290Y25165215D01*
X15195314Y25169002D01*
X15263398Y25063715D01*
X15472172Y24848567D01*
X15718908Y24678283D01*
X15994124Y24559407D01*
X16096987Y24535866D01*
X16333000Y24656670D01*
X16333000Y26143000D01*
X16313000Y26143000D01*
X16313000Y26397000D01*
X16333000Y26397000D01*
X16333000Y27883330D01*
X16096987Y28004134D01*
X15994124Y27980593D01*
X15718908Y27861717D01*
X15472172Y27691433D01*
X15263398Y27476285D01*
X15195314Y27370998D01*
X15193290Y27374785D01*
X15002844Y27606844D01*
X14770785Y27797290D01*
X14506031Y27938804D01*
X14218756Y28025948D01*
X13920000Y28055373D01*
X13621245Y28025948D01*
X13333970Y27938804D01*
X13069216Y27797290D01*
X12837156Y27606844D01*
X12650000Y27378794D01*
X12462844Y27606844D01*
X12230785Y27797290D01*
X11966031Y27938804D01*
X11678756Y28025948D01*
X11380000Y28055373D01*
X11332758Y28050720D01*
X11734490Y28452452D01*
X11852391Y28429000D01*
X12177609Y28429000D01*
X12496579Y28492447D01*
X12797042Y28616903D01*
X13067451Y28797585D01*
X13297415Y29027549D01*
X13478097Y29297958D01*
X13602553Y29598421D01*
X13666000Y29917391D01*
X13666000Y30242609D01*
X13602553Y30561579D01*
X13478097Y30862042D01*
X13297415Y31132451D01*
X13067451Y31362415D01*
X12797042Y31543097D01*
X12496579Y31667553D01*
X12177609Y31731000D01*
X11852391Y31731000D01*
X11533421Y31667553D01*
X11232958Y31543097D01*
X10962549Y31362415D01*
X10732585Y31132451D01*
X10673853Y31044553D01*
X10587988Y31302235D01*
X10459871Y31541924D01*
X10167852Y31670247D01*
X9019605Y30522000D01*
X9033748Y30507857D01*
X8854143Y30328252D01*
X8840000Y30342395D01*
X7691753Y29194148D01*
X7776848Y29000500D01*
X7616784Y29000500D01*
X7569999Y29005108D01*
X7383277Y28986717D01*
X7203731Y28932252D01*
X7038259Y28843806D01*
X6893222Y28724778D01*
X6863398Y28688437D01*
X6222723Y28047762D01*
X6001245Y28025948D01*
X5713970Y27938804D01*
X5449216Y27797290D01*
X5217156Y27606844D01*
X5026710Y27374785D01*
X5024686Y27370998D01*
X4956602Y27476285D01*
X4747828Y27691433D01*
X4501092Y27861717D01*
X4225876Y27980593D01*
X4123013Y28004134D01*
X3887000Y27883330D01*
X3887000Y26397000D01*
X3907000Y26397000D01*
X3907000Y26143000D01*
X3887000Y26143000D01*
X3887000Y24656670D01*
X4123013Y24535866D01*
X4225876Y24559407D01*
X4501092Y24678283D01*
X4747828Y24848567D01*
X4956602Y25063715D01*
X5024686Y25169003D01*
X5026710Y25165216D01*
X5217156Y24933156D01*
X5347500Y24826185D01*
X5347500Y23649785D01*
X5342892Y23603000D01*
X5347500Y23556216D01*
X5361283Y23416278D01*
X5415748Y23236732D01*
X5504194Y23071259D01*
X5623222Y22926222D01*
X5659569Y22896393D01*
X7371397Y21184564D01*
X7401222Y21148222D01*
X7546259Y21029194D01*
X7572839Y21014987D01*
X7711730Y20940748D01*
X7801504Y20913516D01*
X7891277Y20886283D01*
X8031215Y20872500D01*
X8078000Y20867892D01*
X8124785Y20872500D01*
X18859462Y20872500D01*
X19337883Y20394079D01*
X19298756Y20405948D01*
X19000000Y20435373D01*
X18701245Y20405948D01*
X18413970Y20318804D01*
X18149216Y20177290D01*
X17917156Y19986844D01*
X17730000Y19758794D01*
X17542844Y19986844D01*
X17310785Y20177290D01*
X17046031Y20318804D01*
X16758756Y20405948D01*
X16460000Y20435373D01*
X16161245Y20405948D01*
X15873970Y20318804D01*
X15609216Y20177290D01*
X15377156Y19986844D01*
X15190000Y19758794D01*
X15002844Y19986844D01*
X14770785Y20177290D01*
X14506031Y20318804D01*
X14218756Y20405948D01*
X13920000Y20435373D01*
X13621245Y20405948D01*
X13333970Y20318804D01*
X13069216Y20177290D01*
X12837156Y19986844D01*
X12650000Y19758794D01*
X12462844Y19986844D01*
X12230785Y20177290D01*
X11966031Y20318804D01*
X11678756Y20405948D01*
X11380000Y20435373D01*
X11081245Y20405948D01*
X10793970Y20318804D01*
X10529216Y20177290D01*
X10297156Y19986844D01*
X10110000Y19758794D01*
X9922844Y19986844D01*
X9690785Y20177290D01*
X9426031Y20318804D01*
X9138756Y20405948D01*
X8840000Y20435373D01*
X8541245Y20405948D01*
X8253970Y20318804D01*
X7989216Y20177290D01*
X7757156Y19986844D01*
X7570000Y19758794D01*
X7382844Y19986844D01*
X7150785Y20177290D01*
X6886031Y20318804D01*
X6598756Y20405948D01*
X6300000Y20435373D01*
X6001245Y20405948D01*
X5713970Y20318804D01*
X5449216Y20177290D01*
X5217156Y19986844D01*
X5030000Y19758794D01*
X4842844Y19986844D01*
X4610785Y20177290D01*
X4346031Y20318804D01*
X4058756Y20405948D01*
X3760000Y20435373D01*
X3461245Y20405948D01*
X3173970Y20318804D01*
X2909216Y20177290D01*
X2677156Y19986844D01*
X2486710Y19754785D01*
X2345196Y19490031D01*
X2258052Y19202756D01*
X2236000Y18978859D01*
X2236000Y18321142D01*
X2258052Y18097245D01*
X2345196Y17809970D01*
X2486710Y17545216D01*
X2677156Y17313156D01*
X2909215Y17122710D01*
X3173969Y16981196D01*
X3461244Y16894052D01*
X3760000Y16864627D01*
X4058755Y16894052D01*
X4346030Y16981196D01*
X4610784Y17122710D01*
X4842844Y17313156D01*
X5030000Y17541207D01*
X5217156Y17313156D01*
X5449215Y17122710D01*
X5713969Y16981196D01*
X6001244Y16894052D01*
X6300000Y16864627D01*
X6598755Y16894052D01*
X6886030Y16981196D01*
X7150784Y17122710D01*
X7382844Y17313156D01*
X7570000Y17541207D01*
X7757156Y17313156D01*
X7989215Y17122710D01*
X8253969Y16981196D01*
X8541244Y16894052D01*
X8790524Y16869500D01*
X7230785Y16869500D01*
X7184000Y16874108D01*
X7137215Y16869500D01*
X6997277Y16855717D01*
X6971106Y16847778D01*
X6817730Y16801252D01*
X6734995Y16757029D01*
X6652259Y16712806D01*
X6507222Y16593778D01*
X6477393Y16557431D01*
X5370073Y15450111D01*
X5365502Y15465180D01*
X5306537Y15575494D01*
X5227185Y15672185D01*
X5130494Y15751537D01*
X5020180Y15810502D01*
X4900482Y15846812D01*
X4776000Y15859072D01*
X2744000Y15859072D01*
X2619518Y15846812D01*
X2499820Y15810502D01*
X2389506Y15751537D01*
X2292815Y15672185D01*
X2213463Y15575494D01*
X2154498Y15465180D01*
X2118188Y15345482D01*
X2105928Y15221000D01*
X2105928Y13189000D01*
X2118188Y13064518D01*
X2154498Y12944820D01*
X2213463Y12834506D01*
X2292815Y12737815D01*
X2355828Y12686102D01*
X2222623Y12486745D01*
X2091848Y12171028D01*
X2025180Y11835865D01*
X2025180Y11494135D01*
X2091848Y11158972D01*
X2222623Y10843255D01*
X2412477Y10559117D01*
X2654117Y10317477D01*
X2938255Y10127623D01*
X3253972Y9996848D01*
X3589135Y9930180D01*
X3930865Y9930180D01*
X4266028Y9996848D01*
X4581745Y10127623D01*
X4865883Y10317477D01*
X5107523Y10559117D01*
X5297377Y10843255D01*
X5428152Y11158972D01*
X5494820Y11494135D01*
X5494820Y11835865D01*
X7105180Y11835865D01*
X7105180Y11494135D01*
X7171848Y11158972D01*
X7302623Y10843255D01*
X7492477Y10559117D01*
X7734117Y10317477D01*
X8018255Y10127623D01*
X8333972Y9996848D01*
X8669135Y9930180D01*
X9010865Y9930180D01*
X9346028Y9996848D01*
X9661745Y10127623D01*
X9945883Y10317477D01*
X10187523Y10559117D01*
X10377377Y10843255D01*
X10508152Y11158972D01*
X10574820Y11494135D01*
X10574820Y11835865D01*
X10508152Y12171028D01*
X10377377Y12486745D01*
X10187523Y12770883D01*
X9945883Y13012523D01*
X9665581Y13199814D01*
X8840000Y14025395D01*
X8014419Y13199814D01*
X7734117Y13012523D01*
X7492477Y12770883D01*
X7302623Y12486745D01*
X7171848Y12171028D01*
X7105180Y11835865D01*
X5494820Y11835865D01*
X5428152Y12171028D01*
X5297377Y12486745D01*
X5164172Y12686102D01*
X5227185Y12737815D01*
X5306537Y12834506D01*
X5365502Y12944820D01*
X5401812Y13064518D01*
X5414072Y13189000D01*
X5414072Y13252500D01*
X5425215Y13252500D01*
X5472000Y13247892D01*
X5518785Y13252500D01*
X5658723Y13266283D01*
X5838269Y13320748D01*
X6003741Y13409194D01*
X6148778Y13528222D01*
X6178607Y13564569D01*
X7244842Y14630804D01*
X7201936Y14467656D01*
X7182169Y14143038D01*
X7226112Y13820802D01*
X7332076Y13513330D01*
X7427140Y13335478D01*
X7693177Y13237782D01*
X8660395Y14205000D01*
X8646253Y14219142D01*
X8825858Y14398747D01*
X8840000Y14384605D01*
X8854143Y14398747D01*
X9033748Y14219142D01*
X9019605Y14205000D01*
X9986823Y13237782D01*
X10252860Y13335478D01*
X10395348Y13627821D01*
X10478064Y13942344D01*
X10497831Y14266962D01*
X10453888Y14589198D01*
X10447117Y14608845D01*
X13980462Y11075500D01*
X11790553Y11075500D01*
X11750000Y11079494D01*
X11709447Y11075500D01*
X11588174Y11063556D01*
X11432566Y11016353D01*
X11289158Y10939699D01*
X11163459Y10836541D01*
X11060301Y10710842D01*
X10983647Y10567434D01*
X10936444Y10411826D01*
X10920506Y10250000D01*
X10924501Y10209437D01*
X10924500Y1075500D01*
X5286765Y1075500D01*
X4511339Y1144705D01*
X3796030Y1340391D01*
X3126677Y1659657D01*
X2524439Y2092408D01*
X2008356Y2624964D01*
X1594732Y3240502D01*
X1296650Y3919551D01*
X1122004Y4647004D01*
X1075500Y5280268D01*
X1075500Y5460279D01*
X3115000Y5460279D01*
X3115000Y5039721D01*
X3197047Y4627244D01*
X3357988Y4238698D01*
X3591637Y3889017D01*
X3889017Y3591637D01*
X4238698Y3357988D01*
X4627244Y3197047D01*
X5039721Y3115000D01*
X5460279Y3115000D01*
X5872756Y3197047D01*
X6261302Y3357988D01*
X6610983Y3591637D01*
X6908363Y3889017D01*
X7142012Y4238698D01*
X7302953Y4627244D01*
X7385000Y5039721D01*
X7385000Y5460279D01*
X7302953Y5872756D01*
X7142012Y6261302D01*
X6908363Y6610983D01*
X6610983Y6908363D01*
X6261302Y7142012D01*
X5872756Y7302953D01*
X5460279Y7385000D01*
X5039721Y7385000D01*
X4627244Y7302953D01*
X4238698Y7142012D01*
X3889017Y6908363D01*
X3591637Y6610983D01*
X3357988Y6261302D01*
X3197047Y5872756D01*
X3115000Y5460279D01*
X1075500Y5460279D01*
X1075500Y26143000D01*
X2236000Y26143000D01*
X2236000Y25889000D01*
X2290060Y25594123D01*
X2400609Y25315458D01*
X2563398Y25063715D01*
X2772172Y24848567D01*
X3018908Y24678283D01*
X3294124Y24559407D01*
X3396987Y24535866D01*
X3633000Y24656670D01*
X3633000Y26143000D01*
X2236000Y26143000D01*
X1075500Y26143000D01*
X1075500Y26651000D01*
X2236000Y26651000D01*
X2236000Y26397000D01*
X3633000Y26397000D01*
X3633000Y27883330D01*
X3396987Y28004134D01*
X3294124Y27980593D01*
X3018908Y27861717D01*
X2772172Y27691433D01*
X2563398Y27476285D01*
X2400609Y27224542D01*
X2290060Y26945877D01*
X2236000Y26651000D01*
X1075500Y26651000D01*
X1075500Y30470084D01*
X6926486Y30470084D01*
X6973382Y30097773D01*
X7092012Y29741765D01*
X7220129Y29502076D01*
X7512148Y29373753D01*
X8660395Y30522000D01*
X7512148Y31670247D01*
X7220129Y31541924D01*
X7052277Y31206305D01*
X6953126Y30844389D01*
X6926486Y30470084D01*
X1075500Y30470084D01*
X1075500Y31849852D01*
X7691753Y31849852D01*
X8840000Y30701605D01*
X9988247Y31849852D01*
X9859924Y32141871D01*
X9524305Y32309723D01*
X9162389Y32408874D01*
X8788084Y32435514D01*
X8415773Y32388618D01*
X8059765Y32269988D01*
X7820076Y32141871D01*
X7691753Y31849852D01*
X1075500Y31849852D01*
X1075500Y32207874D01*
X1114506Y32175863D01*
X1224820Y32116898D01*
X1344518Y32080588D01*
X1469000Y32068328D01*
X3501000Y32068328D01*
X3625482Y32080588D01*
X3745180Y32116898D01*
X3855494Y32175863D01*
X3952185Y32255215D01*
X4031537Y32351906D01*
X4090502Y32462220D01*
X4126812Y32581918D01*
X4130316Y32617500D01*
X5867215Y32617500D01*
X5914000Y32612892D01*
X5960785Y32617500D01*
X6100723Y32631283D01*
X6280269Y32685748D01*
X6445741Y32774194D01*
X6590778Y32893222D01*
X6620607Y32929569D01*
X9480436Y35789397D01*
X9516778Y35819222D01*
X9635806Y35964259D01*
X9724252Y36129731D01*
X9778717Y36309277D01*
X9792500Y36449215D01*
X9792500Y36449216D01*
X9797108Y36496000D01*
X9792500Y36542785D01*
X9792500Y36747500D01*
X10665800Y36747500D01*
X10732585Y36647549D01*
X10962549Y36417585D01*
X11232958Y36236903D01*
X11533421Y36112447D01*
X11852391Y36049000D01*
X12177609Y36049000D01*
X12496579Y36112447D01*
X12797042Y36236903D01*
X13067451Y36417585D01*
X13297415Y36647549D01*
X13478097Y36917958D01*
X13602553Y37218421D01*
X13666000Y37537391D01*
X13666000Y37862609D01*
X13602553Y38181579D01*
X13478097Y38482042D01*
X13297415Y38752451D01*
X13067451Y38982415D01*
X13026575Y39009728D01*
X13055000Y39006928D01*
X13055000Y39006928D01*
G37*
X13055000Y39006928D02*
X15882748Y39006928D01*
X16234526Y37847272D01*
X17082775Y36260310D01*
X18224326Y34869325D01*
X19615311Y33727774D01*
X21202273Y32879525D01*
X22924228Y32357176D01*
X24715000Y32180800D01*
X26505773Y32357176D01*
X27133764Y32547675D01*
X27055360Y32430335D01*
X26973985Y32233878D01*
X26932500Y32025321D01*
X26932500Y31812679D01*
X26973985Y31604122D01*
X27055360Y31407665D01*
X27173498Y31230859D01*
X27323859Y31080498D01*
X27500665Y30962360D01*
X27697122Y30880985D01*
X27905679Y30839500D01*
X27948500Y30839500D01*
X27948500Y29138538D01*
X26686607Y30400431D01*
X26656778Y30436778D01*
X26511741Y30555806D01*
X26346269Y30644252D01*
X26166723Y30698717D01*
X26026785Y30712500D01*
X25980000Y30717108D01*
X25933215Y30712500D01*
X25094684Y30712500D01*
X24919710Y30974366D01*
X24654366Y31239710D01*
X24342356Y31448189D01*
X23995668Y31591791D01*
X23627626Y31665000D01*
X23252374Y31665000D01*
X22884332Y31591791D01*
X22537644Y31448189D01*
X22225634Y31239710D01*
X21960290Y30974366D01*
X21751811Y30662356D01*
X21608209Y30315668D01*
X21535000Y29947626D01*
X21535000Y29572374D01*
X21608209Y29204332D01*
X21751811Y28857644D01*
X21960290Y28545634D01*
X22225634Y28280290D01*
X22450453Y28130071D01*
X22352634Y28064710D01*
X22087290Y27799366D01*
X21979500Y27638047D01*
X21979500Y27935216D01*
X21984108Y27982001D01*
X21965717Y28168723D01*
X21952362Y28212748D01*
X21911252Y28348269D01*
X21822806Y28513741D01*
X21703778Y28658778D01*
X21667431Y28688607D01*
X20336607Y30019431D01*
X20306778Y30055778D01*
X20161741Y30174806D01*
X19996269Y30263252D01*
X19816723Y30317717D01*
X19676785Y30331500D01*
X19630000Y30336108D01*
X19583215Y30331500D01*
X17484539Y30331500D01*
X17107133Y30708905D01*
X17190494Y30753463D01*
X17287185Y30832815D01*
X17366537Y30929506D01*
X17385704Y30965364D01*
X17577958Y30836903D01*
X17878421Y30712447D01*
X18197391Y30649000D01*
X18522609Y30649000D01*
X18841579Y30712447D01*
X19142042Y30836903D01*
X19412451Y31017585D01*
X19642415Y31247549D01*
X19823097Y31517958D01*
X19947553Y31818421D01*
X20011000Y32137391D01*
X20011000Y32462609D01*
X19947553Y32781579D01*
X19823097Y33082042D01*
X19642415Y33352451D01*
X19412451Y33582415D01*
X19142042Y33763097D01*
X18841579Y33887553D01*
X18522609Y33951000D01*
X18197391Y33951000D01*
X17878421Y33887553D01*
X17577958Y33763097D01*
X17385704Y33634636D01*
X17366537Y33670494D01*
X17287185Y33767185D01*
X17190494Y33846537D01*
X17080180Y33905502D01*
X16960482Y33941812D01*
X16836000Y33954072D01*
X14804000Y33954072D01*
X14679518Y33941812D01*
X14559820Y33905502D01*
X14449506Y33846537D01*
X14352815Y33767185D01*
X14273463Y33670494D01*
X14228905Y33587134D01*
X12843607Y34972431D01*
X12813778Y35008778D01*
X12668741Y35127806D01*
X12503269Y35216252D01*
X12323723Y35270717D01*
X12183785Y35284500D01*
X12137000Y35289108D01*
X12090215Y35284500D01*
X10876531Y35284500D01*
X10870335Y35288640D01*
X10673878Y35370015D01*
X10465321Y35411500D01*
X10252679Y35411500D01*
X10044122Y35370015D01*
X9847665Y35288640D01*
X9670859Y35170502D01*
X9520498Y35020141D01*
X9402360Y34843335D01*
X9320985Y34646878D01*
X9279500Y34438321D01*
X9279500Y34225679D01*
X9320985Y34017122D01*
X9402360Y33820665D01*
X9520498Y33643859D01*
X9670859Y33493498D01*
X9847665Y33375360D01*
X10044122Y33293985D01*
X10252679Y33252500D01*
X10465321Y33252500D01*
X10673878Y33293985D01*
X10870335Y33375360D01*
X10876531Y33379500D01*
X11742462Y33379500D01*
X13462397Y31659564D01*
X13492222Y31623222D01*
X13637259Y31504194D01*
X13802731Y31415748D01*
X13956106Y31369222D01*
X13982277Y31361283D01*
X14165928Y31343195D01*
X14165928Y31284000D01*
X14178188Y31159518D01*
X14214498Y31039820D01*
X14273463Y30929506D01*
X14352815Y30832815D01*
X14449506Y30753463D01*
X14559820Y30694498D01*
X14679518Y30658188D01*
X14804000Y30645928D01*
X14863195Y30645928D01*
X14881283Y30462278D01*
X14935749Y30282731D01*
X15001350Y30160000D01*
X15024195Y30117259D01*
X15143223Y29972222D01*
X15179564Y29942398D01*
X16383397Y28738564D01*
X16413222Y28702222D01*
X16558259Y28583194D01*
X16723731Y28494748D01*
X16895553Y28442626D01*
X16903277Y28440283D01*
X17089999Y28421892D01*
X17136784Y28426500D01*
X19235462Y28426500D01*
X19610890Y28051072D01*
X18111000Y28051072D01*
X17986518Y28038812D01*
X17866820Y28002502D01*
X17756506Y27943537D01*
X17659815Y27864185D01*
X17580463Y27767494D01*
X17521498Y27657180D01*
X17511869Y27625437D01*
X17447828Y27691433D01*
X17201092Y27861717D01*
X16925876Y27980593D01*
X16823013Y28004134D01*
X16587000Y27883330D01*
X16587000Y26397000D01*
X16607000Y26397000D01*
X16607000Y26143000D01*
X16587000Y26143000D01*
X16587000Y24656670D01*
X16823013Y24535866D01*
X16925876Y24559407D01*
X17201092Y24678283D01*
X17447828Y24848567D01*
X17511869Y24914563D01*
X17521498Y24882820D01*
X17580463Y24772506D01*
X17659815Y24675815D01*
X17756506Y24596463D01*
X17866820Y24537498D01*
X17986518Y24501188D01*
X18111000Y24488928D01*
X18659511Y24488928D01*
X18813278Y24442283D01*
X19000000Y24423892D01*
X19186723Y24442283D01*
X19340490Y24488928D01*
X19889000Y24488928D01*
X20013482Y24501188D01*
X20074501Y24519698D01*
X20074501Y22694795D01*
X20069892Y22648000D01*
X20088283Y22461278D01*
X20142071Y22283968D01*
X19960607Y22465431D01*
X19930778Y22501778D01*
X19785741Y22620806D01*
X19620269Y22709252D01*
X19440723Y22763717D01*
X19300785Y22777500D01*
X19254000Y22782108D01*
X19207215Y22777500D01*
X8472539Y22777500D01*
X7252500Y23997538D01*
X7252500Y24826186D01*
X7382844Y24933156D01*
X7570000Y25161207D01*
X7757156Y24933156D01*
X7989215Y24742710D01*
X8253969Y24601196D01*
X8541244Y24514052D01*
X8840000Y24484627D01*
X9138755Y24514052D01*
X9426030Y24601196D01*
X9690784Y24742710D01*
X9922844Y24933156D01*
X10110000Y25161207D01*
X10297156Y24933156D01*
X10529215Y24742710D01*
X10793969Y24601196D01*
X11081244Y24514052D01*
X11380000Y24484627D01*
X11678755Y24514052D01*
X11966030Y24601196D01*
X12230784Y24742710D01*
X12462844Y24933156D01*
X12650000Y25161207D01*
X12837156Y24933156D01*
X13069215Y24742710D01*
X13333969Y24601196D01*
X13621244Y24514052D01*
X13920000Y24484627D01*
X14218755Y24514052D01*
X14506030Y24601196D01*
X14770784Y24742710D01*
X15002844Y24933156D01*
X15193290Y25165215D01*
X15195314Y25169002D01*
X15263398Y25063715D01*
X15472172Y24848567D01*
X15718908Y24678283D01*
X15994124Y24559407D01*
X16096987Y24535866D01*
X16333000Y24656670D01*
X16333000Y26143000D01*
X16313000Y26143000D01*
X16313000Y26397000D01*
X16333000Y26397000D01*
X16333000Y27883330D01*
X16096987Y28004134D01*
X15994124Y27980593D01*
X15718908Y27861717D01*
X15472172Y27691433D01*
X15263398Y27476285D01*
X15195314Y27370998D01*
X15193290Y27374785D01*
X15002844Y27606844D01*
X14770785Y27797290D01*
X14506031Y27938804D01*
X14218756Y28025948D01*
X13920000Y28055373D01*
X13621245Y28025948D01*
X13333970Y27938804D01*
X13069216Y27797290D01*
X12837156Y27606844D01*
X12650000Y27378794D01*
X12462844Y27606844D01*
X12230785Y27797290D01*
X11966031Y27938804D01*
X11678756Y28025948D01*
X11380000Y28055373D01*
X11332758Y28050720D01*
X11734490Y28452452D01*
X11852391Y28429000D01*
X12177609Y28429000D01*
X12496579Y28492447D01*
X12797042Y28616903D01*
X13067451Y28797585D01*
X13297415Y29027549D01*
X13478097Y29297958D01*
X13602553Y29598421D01*
X13666000Y29917391D01*
X13666000Y30242609D01*
X13602553Y30561579D01*
X13478097Y30862042D01*
X13297415Y31132451D01*
X13067451Y31362415D01*
X12797042Y31543097D01*
X12496579Y31667553D01*
X12177609Y31731000D01*
X11852391Y31731000D01*
X11533421Y31667553D01*
X11232958Y31543097D01*
X10962549Y31362415D01*
X10732585Y31132451D01*
X10673853Y31044553D01*
X10587988Y31302235D01*
X10459871Y31541924D01*
X10167852Y31670247D01*
X9019605Y30522000D01*
X9033748Y30507857D01*
X8854143Y30328252D01*
X8840000Y30342395D01*
X7691753Y29194148D01*
X7776848Y29000500D01*
X7616784Y29000500D01*
X7569999Y29005108D01*
X7383277Y28986717D01*
X7203731Y28932252D01*
X7038259Y28843806D01*
X6893222Y28724778D01*
X6863398Y28688437D01*
X6222723Y28047762D01*
X6001245Y28025948D01*
X5713970Y27938804D01*
X5449216Y27797290D01*
X5217156Y27606844D01*
X5026710Y27374785D01*
X5024686Y27370998D01*
X4956602Y27476285D01*
X4747828Y27691433D01*
X4501092Y27861717D01*
X4225876Y27980593D01*
X4123013Y28004134D01*
X3887000Y27883330D01*
X3887000Y26397000D01*
X3907000Y26397000D01*
X3907000Y26143000D01*
X3887000Y26143000D01*
X3887000Y24656670D01*
X4123013Y24535866D01*
X4225876Y24559407D01*
X4501092Y24678283D01*
X4747828Y24848567D01*
X4956602Y25063715D01*
X5024686Y25169003D01*
X5026710Y25165216D01*
X5217156Y24933156D01*
X5347500Y24826185D01*
X5347500Y23649785D01*
X5342892Y23603000D01*
X5347500Y23556216D01*
X5361283Y23416278D01*
X5415748Y23236732D01*
X5504194Y23071259D01*
X5623222Y22926222D01*
X5659569Y22896393D01*
X7371397Y21184564D01*
X7401222Y21148222D01*
X7546259Y21029194D01*
X7572839Y21014987D01*
X7711730Y20940748D01*
X7801504Y20913516D01*
X7891277Y20886283D01*
X8031215Y20872500D01*
X8078000Y20867892D01*
X8124785Y20872500D01*
X18859462Y20872500D01*
X19337883Y20394079D01*
X19298756Y20405948D01*
X19000000Y20435373D01*
X18701245Y20405948D01*
X18413970Y20318804D01*
X18149216Y20177290D01*
X17917156Y19986844D01*
X17730000Y19758794D01*
X17542844Y19986844D01*
X17310785Y20177290D01*
X17046031Y20318804D01*
X16758756Y20405948D01*
X16460000Y20435373D01*
X16161245Y20405948D01*
X15873970Y20318804D01*
X15609216Y20177290D01*
X15377156Y19986844D01*
X15190000Y19758794D01*
X15002844Y19986844D01*
X14770785Y20177290D01*
X14506031Y20318804D01*
X14218756Y20405948D01*
X13920000Y20435373D01*
X13621245Y20405948D01*
X13333970Y20318804D01*
X13069216Y20177290D01*
X12837156Y19986844D01*
X12650000Y19758794D01*
X12462844Y19986844D01*
X12230785Y20177290D01*
X11966031Y20318804D01*
X11678756Y20405948D01*
X11380000Y20435373D01*
X11081245Y20405948D01*
X10793970Y20318804D01*
X10529216Y20177290D01*
X10297156Y19986844D01*
X10110000Y19758794D01*
X9922844Y19986844D01*
X9690785Y20177290D01*
X9426031Y20318804D01*
X9138756Y20405948D01*
X8840000Y20435373D01*
X8541245Y20405948D01*
X8253970Y20318804D01*
X7989216Y20177290D01*
X7757156Y19986844D01*
X7570000Y19758794D01*
X7382844Y19986844D01*
X7150785Y20177290D01*
X6886031Y20318804D01*
X6598756Y20405948D01*
X6300000Y20435373D01*
X6001245Y20405948D01*
X5713970Y20318804D01*
X5449216Y20177290D01*
X5217156Y19986844D01*
X5030000Y19758794D01*
X4842844Y19986844D01*
X4610785Y20177290D01*
X4346031Y20318804D01*
X4058756Y20405948D01*
X3760000Y20435373D01*
X3461245Y20405948D01*
X3173970Y20318804D01*
X2909216Y20177290D01*
X2677156Y19986844D01*
X2486710Y19754785D01*
X2345196Y19490031D01*
X2258052Y19202756D01*
X2236000Y18978859D01*
X2236000Y18321142D01*
X2258052Y18097245D01*
X2345196Y17809970D01*
X2486710Y17545216D01*
X2677156Y17313156D01*
X2909215Y17122710D01*
X3173969Y16981196D01*
X3461244Y16894052D01*
X3760000Y16864627D01*
X4058755Y16894052D01*
X4346030Y16981196D01*
X4610784Y17122710D01*
X4842844Y17313156D01*
X5030000Y17541207D01*
X5217156Y17313156D01*
X5449215Y17122710D01*
X5713969Y16981196D01*
X6001244Y16894052D01*
X6300000Y16864627D01*
X6598755Y16894052D01*
X6886030Y16981196D01*
X7150784Y17122710D01*
X7382844Y17313156D01*
X7570000Y17541207D01*
X7757156Y17313156D01*
X7989215Y17122710D01*
X8253969Y16981196D01*
X8541244Y16894052D01*
X8790524Y16869500D01*
X7230785Y16869500D01*
X7184000Y16874108D01*
X7137215Y16869500D01*
X6997277Y16855717D01*
X6971106Y16847778D01*
X6817730Y16801252D01*
X6734995Y16757029D01*
X6652259Y16712806D01*
X6507222Y16593778D01*
X6477393Y16557431D01*
X5370073Y15450111D01*
X5365502Y15465180D01*
X5306537Y15575494D01*
X5227185Y15672185D01*
X5130494Y15751537D01*
X5020180Y15810502D01*
X4900482Y15846812D01*
X4776000Y15859072D01*
X2744000Y15859072D01*
X2619518Y15846812D01*
X2499820Y15810502D01*
X2389506Y15751537D01*
X2292815Y15672185D01*
X2213463Y15575494D01*
X2154498Y15465180D01*
X2118188Y15345482D01*
X2105928Y15221000D01*
X2105928Y13189000D01*
X2118188Y13064518D01*
X2154498Y12944820D01*
X2213463Y12834506D01*
X2292815Y12737815D01*
X2355828Y12686102D01*
X2222623Y12486745D01*
X2091848Y12171028D01*
X2025180Y11835865D01*
X2025180Y11494135D01*
X2091848Y11158972D01*
X2222623Y10843255D01*
X2412477Y10559117D01*
X2654117Y10317477D01*
X2938255Y10127623D01*
X3253972Y9996848D01*
X3589135Y9930180D01*
X3930865Y9930180D01*
X4266028Y9996848D01*
X4581745Y10127623D01*
X4865883Y10317477D01*
X5107523Y10559117D01*
X5297377Y10843255D01*
X5428152Y11158972D01*
X5494820Y11494135D01*
X5494820Y11835865D01*
X7105180Y11835865D01*
X7105180Y11494135D01*
X7171848Y11158972D01*
X7302623Y10843255D01*
X7492477Y10559117D01*
X7734117Y10317477D01*
X8018255Y10127623D01*
X8333972Y9996848D01*
X8669135Y9930180D01*
X9010865Y9930180D01*
X9346028Y9996848D01*
X9661745Y10127623D01*
X9945883Y10317477D01*
X10187523Y10559117D01*
X10377377Y10843255D01*
X10508152Y11158972D01*
X10574820Y11494135D01*
X10574820Y11835865D01*
X10508152Y12171028D01*
X10377377Y12486745D01*
X10187523Y12770883D01*
X9945883Y13012523D01*
X9665581Y13199814D01*
X8840000Y14025395D01*
X8014419Y13199814D01*
X7734117Y13012523D01*
X7492477Y12770883D01*
X7302623Y12486745D01*
X7171848Y12171028D01*
X7105180Y11835865D01*
X5494820Y11835865D01*
X5428152Y12171028D01*
X5297377Y12486745D01*
X5164172Y12686102D01*
X5227185Y12737815D01*
X5306537Y12834506D01*
X5365502Y12944820D01*
X5401812Y13064518D01*
X5414072Y13189000D01*
X5414072Y13252500D01*
X5425215Y13252500D01*
X5472000Y13247892D01*
X5518785Y13252500D01*
X5658723Y13266283D01*
X5838269Y13320748D01*
X6003741Y13409194D01*
X6148778Y13528222D01*
X6178607Y13564569D01*
X7244842Y14630804D01*
X7201936Y14467656D01*
X7182169Y14143038D01*
X7226112Y13820802D01*
X7332076Y13513330D01*
X7427140Y13335478D01*
X7693177Y13237782D01*
X8660395Y14205000D01*
X8646253Y14219142D01*
X8825858Y14398747D01*
X8840000Y14384605D01*
X8854143Y14398747D01*
X9033748Y14219142D01*
X9019605Y14205000D01*
X9986823Y13237782D01*
X10252860Y13335478D01*
X10395348Y13627821D01*
X10478064Y13942344D01*
X10497831Y14266962D01*
X10453888Y14589198D01*
X10447117Y14608845D01*
X13980462Y11075500D01*
X11790553Y11075500D01*
X11750000Y11079494D01*
X11709447Y11075500D01*
X11588174Y11063556D01*
X11432566Y11016353D01*
X11289158Y10939699D01*
X11163459Y10836541D01*
X11060301Y10710842D01*
X10983647Y10567434D01*
X10936444Y10411826D01*
X10920506Y10250000D01*
X10924501Y10209437D01*
X10924500Y1075500D01*
X5286765Y1075500D01*
X4511339Y1144705D01*
X3796030Y1340391D01*
X3126677Y1659657D01*
X2524439Y2092408D01*
X2008356Y2624964D01*
X1594732Y3240502D01*
X1296650Y3919551D01*
X1122004Y4647004D01*
X1075500Y5280268D01*
X1075500Y5460279D01*
X3115000Y5460279D01*
X3115000Y5039721D01*
X3197047Y4627244D01*
X3357988Y4238698D01*
X3591637Y3889017D01*
X3889017Y3591637D01*
X4238698Y3357988D01*
X4627244Y3197047D01*
X5039721Y3115000D01*
X5460279Y3115000D01*
X5872756Y3197047D01*
X6261302Y3357988D01*
X6610983Y3591637D01*
X6908363Y3889017D01*
X7142012Y4238698D01*
X7302953Y4627244D01*
X7385000Y5039721D01*
X7385000Y5460279D01*
X7302953Y5872756D01*
X7142012Y6261302D01*
X6908363Y6610983D01*
X6610983Y6908363D01*
X6261302Y7142012D01*
X5872756Y7302953D01*
X5460279Y7385000D01*
X5039721Y7385000D01*
X4627244Y7302953D01*
X4238698Y7142012D01*
X3889017Y6908363D01*
X3591637Y6610983D01*
X3357988Y6261302D01*
X3197047Y5872756D01*
X3115000Y5460279D01*
X1075500Y5460279D01*
X1075500Y26143000D01*
X2236000Y26143000D01*
X2236000Y25889000D01*
X2290060Y25594123D01*
X2400609Y25315458D01*
X2563398Y25063715D01*
X2772172Y24848567D01*
X3018908Y24678283D01*
X3294124Y24559407D01*
X3396987Y24535866D01*
X3633000Y24656670D01*
X3633000Y26143000D01*
X2236000Y26143000D01*
X1075500Y26143000D01*
X1075500Y26651000D01*
X2236000Y26651000D01*
X2236000Y26397000D01*
X3633000Y26397000D01*
X3633000Y27883330D01*
X3396987Y28004134D01*
X3294124Y27980593D01*
X3018908Y27861717D01*
X2772172Y27691433D01*
X2563398Y27476285D01*
X2400609Y27224542D01*
X2290060Y26945877D01*
X2236000Y26651000D01*
X1075500Y26651000D01*
X1075500Y30470084D01*
X6926486Y30470084D01*
X6973382Y30097773D01*
X7092012Y29741765D01*
X7220129Y29502076D01*
X7512148Y29373753D01*
X8660395Y30522000D01*
X7512148Y31670247D01*
X7220129Y31541924D01*
X7052277Y31206305D01*
X6953126Y30844389D01*
X6926486Y30470084D01*
X1075500Y30470084D01*
X1075500Y31849852D01*
X7691753Y31849852D01*
X8840000Y30701605D01*
X9988247Y31849852D01*
X9859924Y32141871D01*
X9524305Y32309723D01*
X9162389Y32408874D01*
X8788084Y32435514D01*
X8415773Y32388618D01*
X8059765Y32269988D01*
X7820076Y32141871D01*
X7691753Y31849852D01*
X1075500Y31849852D01*
X1075500Y32207874D01*
X1114506Y32175863D01*
X1224820Y32116898D01*
X1344518Y32080588D01*
X1469000Y32068328D01*
X3501000Y32068328D01*
X3625482Y32080588D01*
X3745180Y32116898D01*
X3855494Y32175863D01*
X3952185Y32255215D01*
X4031537Y32351906D01*
X4090502Y32462220D01*
X4126812Y32581918D01*
X4130316Y32617500D01*
X5867215Y32617500D01*
X5914000Y32612892D01*
X5960785Y32617500D01*
X6100723Y32631283D01*
X6280269Y32685748D01*
X6445741Y32774194D01*
X6590778Y32893222D01*
X6620607Y32929569D01*
X9480436Y35789397D01*
X9516778Y35819222D01*
X9635806Y35964259D01*
X9724252Y36129731D01*
X9778717Y36309277D01*
X9792500Y36449215D01*
X9792500Y36449216D01*
X9797108Y36496000D01*
X9792500Y36542785D01*
X9792500Y36747500D01*
X10665800Y36747500D01*
X10732585Y36647549D01*
X10962549Y36417585D01*
X11232958Y36236903D01*
X11533421Y36112447D01*
X11852391Y36049000D01*
X12177609Y36049000D01*
X12496579Y36112447D01*
X12797042Y36236903D01*
X13067451Y36417585D01*
X13297415Y36647549D01*
X13478097Y36917958D01*
X13602553Y37218421D01*
X13666000Y37537391D01*
X13666000Y37862609D01*
X13602553Y38181579D01*
X13478097Y38482042D01*
X13297415Y38752451D01*
X13067451Y38982415D01*
X13026575Y39009728D01*
X13055000Y39006928D01*
G36*
X26932500Y27460461D02*
G01*
X26932501Y18376794D01*
X26932500Y18376784D01*
X26932500Y17648215D01*
X26932501Y17648210D01*
X26932501Y17106794D01*
X26927892Y17060000D01*
X26932500Y17013216D01*
X26932501Y13931794D01*
X26927892Y13885000D01*
X26946283Y13698278D01*
X27000749Y13518731D01*
X27079044Y13372251D01*
X27089195Y13353259D01*
X27208223Y13208222D01*
X27244563Y13178399D01*
X28186462Y12236500D01*
X23615177Y12236500D01*
X23921579Y12297447D01*
X24222042Y12421903D01*
X24492451Y12602585D01*
X24722415Y12832549D01*
X24903097Y13102958D01*
X25027553Y13403421D01*
X25091000Y13722391D01*
X25091000Y14047609D01*
X25027553Y14366579D01*
X24903097Y14667042D01*
X24722415Y14937451D01*
X24492451Y15167415D01*
X24222042Y15348097D01*
X23921579Y15472553D01*
X23908481Y15475158D01*
X24131670Y15552076D01*
X24309522Y15647140D01*
X24407218Y15913177D01*
X23440000Y16880395D01*
X22472782Y15913177D01*
X22570478Y15647140D01*
X22862821Y15504652D01*
X22973483Y15475549D01*
X22958421Y15472553D01*
X22657958Y15348097D01*
X22387549Y15167415D01*
X22247586Y15027452D01*
X22106500Y15168538D01*
X22106500Y16161335D01*
X22293177Y16092782D01*
X23260395Y17060000D01*
X23619605Y17060000D01*
X24586823Y16092782D01*
X24852860Y16190478D01*
X24995348Y16482821D01*
X25078064Y16797344D01*
X25097831Y17121962D01*
X25053888Y17444198D01*
X24947924Y17751670D01*
X24852860Y17929522D01*
X24586823Y18027218D01*
X23619605Y17060000D01*
X23260395Y17060000D01*
X22293177Y18027218D01*
X22111500Y17960501D01*
X22111500Y19251520D01*
X22157585Y19182549D01*
X22387549Y18952585D01*
X22657958Y18771903D01*
X22958421Y18647447D01*
X22971519Y18644842D01*
X22748330Y18567924D01*
X22570478Y18472860D01*
X22472782Y18206823D01*
X23440000Y17239605D01*
X24407218Y18206823D01*
X24309522Y18472860D01*
X24017179Y18615348D01*
X23906517Y18644451D01*
X23921579Y18647447D01*
X24222042Y18771903D01*
X24492451Y18952585D01*
X24722415Y19182549D01*
X24903097Y19452958D01*
X25027553Y19753421D01*
X25091000Y20072391D01*
X25091000Y20397609D01*
X25027553Y20716579D01*
X24903097Y21017042D01*
X24722415Y21287451D01*
X24492451Y21517415D01*
X24222042Y21698097D01*
X23921707Y21822500D01*
X24222042Y21946903D01*
X24492451Y22127585D01*
X24722415Y22357549D01*
X24903097Y22627958D01*
X25027553Y22928421D01*
X25091000Y23247391D01*
X25091000Y23572609D01*
X25027553Y23891579D01*
X24903097Y24192042D01*
X24722415Y24462451D01*
X24492451Y24692415D01*
X24294776Y24824498D01*
X24469356Y24896811D01*
X24781366Y25105290D01*
X25046710Y25370634D01*
X25255189Y25682644D01*
X25398791Y26029332D01*
X25472000Y26397374D01*
X25472000Y26772626D01*
X25398791Y27140668D01*
X25255189Y27487356D01*
X25046710Y27799366D01*
X24781366Y28064710D01*
X24556547Y28214929D01*
X24654366Y28280290D01*
X24919710Y28545634D01*
X25094684Y28807500D01*
X25585462Y28807500D01*
X26932500Y27460461D01*
X26932500Y27460461D01*
G37*
X26932500Y27460461D02*
X26932501Y18376794D01*
X26932500Y18376784D01*
X26932500Y17648215D01*
X26932501Y17648210D01*
X26932501Y17106794D01*
X26927892Y17060000D01*
X26932500Y17013216D01*
X26932501Y13931794D01*
X26927892Y13885000D01*
X26946283Y13698278D01*
X27000749Y13518731D01*
X27079044Y13372251D01*
X27089195Y13353259D01*
X27208223Y13208222D01*
X27244563Y13178399D01*
X28186462Y12236500D01*
X23615177Y12236500D01*
X23921579Y12297447D01*
X24222042Y12421903D01*
X24492451Y12602585D01*
X24722415Y12832549D01*
X24903097Y13102958D01*
X25027553Y13403421D01*
X25091000Y13722391D01*
X25091000Y14047609D01*
X25027553Y14366579D01*
X24903097Y14667042D01*
X24722415Y14937451D01*
X24492451Y15167415D01*
X24222042Y15348097D01*
X23921579Y15472553D01*
X23908481Y15475158D01*
X24131670Y15552076D01*
X24309522Y15647140D01*
X24407218Y15913177D01*
X23440000Y16880395D01*
X22472782Y15913177D01*
X22570478Y15647140D01*
X22862821Y15504652D01*
X22973483Y15475549D01*
X22958421Y15472553D01*
X22657958Y15348097D01*
X22387549Y15167415D01*
X22247586Y15027452D01*
X22106500Y15168538D01*
X22106500Y16161335D01*
X22293177Y16092782D01*
X23260395Y17060000D01*
X23619605Y17060000D01*
X24586823Y16092782D01*
X24852860Y16190478D01*
X24995348Y16482821D01*
X25078064Y16797344D01*
X25097831Y17121962D01*
X25053888Y17444198D01*
X24947924Y17751670D01*
X24852860Y17929522D01*
X24586823Y18027218D01*
X23619605Y17060000D01*
X23260395Y17060000D01*
X22293177Y18027218D01*
X22111500Y17960501D01*
X22111500Y19251520D01*
X22157585Y19182549D01*
X22387549Y18952585D01*
X22657958Y18771903D01*
X22958421Y18647447D01*
X22971519Y18644842D01*
X22748330Y18567924D01*
X22570478Y18472860D01*
X22472782Y18206823D01*
X23440000Y17239605D01*
X24407218Y18206823D01*
X24309522Y18472860D01*
X24017179Y18615348D01*
X23906517Y18644451D01*
X23921579Y18647447D01*
X24222042Y18771903D01*
X24492451Y18952585D01*
X24722415Y19182549D01*
X24903097Y19452958D01*
X25027553Y19753421D01*
X25091000Y20072391D01*
X25091000Y20397609D01*
X25027553Y20716579D01*
X24903097Y21017042D01*
X24722415Y21287451D01*
X24492451Y21517415D01*
X24222042Y21698097D01*
X23921707Y21822500D01*
X24222042Y21946903D01*
X24492451Y22127585D01*
X24722415Y22357549D01*
X24903097Y22627958D01*
X25027553Y22928421D01*
X25091000Y23247391D01*
X25091000Y23572609D01*
X25027553Y23891579D01*
X24903097Y24192042D01*
X24722415Y24462451D01*
X24492451Y24692415D01*
X24294776Y24824498D01*
X24469356Y24896811D01*
X24781366Y25105290D01*
X25046710Y25370634D01*
X25255189Y25682644D01*
X25398791Y26029332D01*
X25472000Y26397374D01*
X25472000Y26772626D01*
X25398791Y27140668D01*
X25255189Y27487356D01*
X25046710Y27799366D01*
X24781366Y28064710D01*
X24556547Y28214929D01*
X24654366Y28280290D01*
X24919710Y28545634D01*
X25094684Y28807500D01*
X25585462Y28807500D01*
X26932500Y27460461D01*
G36*
X44042990Y36384972D02*
G01*
X44042991Y20316305D01*
X44038382Y20269510D01*
X44056773Y20082788D01*
X44111239Y19903241D01*
X44199684Y19737770D01*
X44212985Y19721563D01*
X44318713Y19592732D01*
X44355055Y19562907D01*
X44813393Y19104569D01*
X44843222Y19068222D01*
X44988259Y18949194D01*
X45153731Y18860748D01*
X45318367Y18810806D01*
X45333277Y18806283D01*
X45519999Y18787892D01*
X45566784Y18792500D01*
X45610043Y18792500D01*
X45670013Y18702748D01*
X45897748Y18475013D01*
X46165537Y18296082D01*
X46310758Y18235929D01*
X46190937Y18186298D01*
X45923148Y18007367D01*
X45695413Y17779632D01*
X45635443Y17689880D01*
X45516164Y17689880D01*
X45469379Y17694488D01*
X45325015Y17680269D01*
X45282657Y17676097D01*
X45103111Y17621632D01*
X44937639Y17533186D01*
X44792602Y17414158D01*
X44762773Y17377811D01*
X44262565Y16877603D01*
X44226223Y16847778D01*
X44188040Y16801252D01*
X44107194Y16702740D01*
X44018749Y16537269D01*
X43964283Y16357722D01*
X43945892Y16171000D01*
X43950501Y16124206D01*
X43950500Y12882539D01*
X43304462Y12236500D01*
X36303969Y12236500D01*
X36401493Y12471943D01*
X36462500Y12778645D01*
X36462500Y13091355D01*
X36401493Y13398057D01*
X36393040Y13418465D01*
X40044070Y13418465D01*
X40134098Y13158919D01*
X40415616Y13022776D01*
X40718286Y12944171D01*
X41030474Y12926123D01*
X41340185Y12969328D01*
X41635516Y13072123D01*
X41797902Y13158919D01*
X41887930Y13418465D01*
X40966000Y14340395D01*
X40044070Y13418465D01*
X36393040Y13418465D01*
X36281824Y13686963D01*
X36108092Y13946972D01*
X35886972Y14168092D01*
X35626963Y14341824D01*
X35352463Y14455526D01*
X39372123Y14455526D01*
X39415328Y14145815D01*
X39518123Y13850484D01*
X39604919Y13688098D01*
X39864465Y13598070D01*
X40786395Y14520000D01*
X41145605Y14520000D01*
X42067535Y13598070D01*
X42327081Y13688098D01*
X42463224Y13969616D01*
X42541829Y14272286D01*
X42559877Y14584474D01*
X42516672Y14894185D01*
X42413877Y15189516D01*
X42327081Y15351902D01*
X42067535Y15441930D01*
X41145605Y14520000D01*
X40786395Y14520000D01*
X39864465Y15441930D01*
X39604919Y15351902D01*
X39468776Y15070384D01*
X39390171Y14767714D01*
X39372123Y14455526D01*
X35352463Y14455526D01*
X35338057Y14461493D01*
X35031355Y14522500D01*
X34949539Y14522500D01*
X35515436Y15088397D01*
X35551778Y15118222D01*
X35670806Y15263259D01*
X35759252Y15428731D01*
X35813717Y15608277D01*
X35827500Y15748215D01*
X35827500Y15748216D01*
X35832108Y15795000D01*
X35827500Y15841785D01*
X35827500Y16742170D01*
X35886972Y16781908D01*
X36108092Y17003028D01*
X36281824Y17263037D01*
X36401493Y17551943D01*
X36462500Y17858645D01*
X36462500Y18171355D01*
X36401493Y18478057D01*
X36281824Y18766963D01*
X36108092Y19026972D01*
X35886972Y19248092D01*
X35835477Y19282500D01*
X37473501Y19282500D01*
X37473500Y18650572D01*
X37349018Y18638312D01*
X37229320Y18602002D01*
X37119006Y18543037D01*
X37022315Y18463685D01*
X36942963Y18366994D01*
X36883998Y18256680D01*
X36847688Y18136982D01*
X36835428Y18012500D01*
X36835428Y16107500D01*
X36847688Y15983018D01*
X36883998Y15863320D01*
X36942963Y15753006D01*
X37022315Y15656315D01*
X37119006Y15576963D01*
X37229320Y15517998D01*
X37349018Y15481688D01*
X37473500Y15469428D01*
X39378500Y15469428D01*
X39502982Y15481688D01*
X39622680Y15517998D01*
X39732994Y15576963D01*
X39829685Y15656315D01*
X39909037Y15753006D01*
X39950451Y15830485D01*
X39954028Y15826908D01*
X40084961Y15739422D01*
X40044070Y15621535D01*
X40966000Y14699605D01*
X41887930Y15621535D01*
X41847039Y15739422D01*
X41977972Y15826908D01*
X42199092Y16048028D01*
X42372824Y16308037D01*
X42492493Y16596943D01*
X42553500Y16903645D01*
X42553500Y17216355D01*
X42492493Y17523057D01*
X42372824Y17811963D01*
X42199092Y18071972D01*
X41977972Y18293092D01*
X41717963Y18466824D01*
X41429057Y18586493D01*
X41122355Y18647500D01*
X40809645Y18647500D01*
X40502943Y18586493D01*
X40214037Y18466824D01*
X39954028Y18293092D01*
X39950451Y18289515D01*
X39909037Y18366994D01*
X39829685Y18463685D01*
X39732994Y18543037D01*
X39622680Y18602002D01*
X39502982Y18638312D01*
X39378500Y18650572D01*
X39378500Y20315216D01*
X39383108Y20361999D01*
X39378500Y20408785D01*
X39378500Y21822500D01*
X39471355Y21822500D01*
X39778057Y21883507D01*
X40066963Y22003176D01*
X40326972Y22176908D01*
X40548092Y22398028D01*
X40721824Y22658037D01*
X40841493Y22946943D01*
X40902500Y23253645D01*
X40902500Y23566355D01*
X40841493Y23873057D01*
X40721824Y24161963D01*
X40548092Y24421972D01*
X40326972Y24643092D01*
X40066963Y24816824D01*
X39778057Y24936493D01*
X39471355Y24997500D01*
X39158645Y24997500D01*
X38851943Y24936493D01*
X38563037Y24816824D01*
X38303028Y24643092D01*
X38081908Y24421972D01*
X37908176Y24161963D01*
X37788507Y23873057D01*
X37727500Y23566355D01*
X37727500Y23253645D01*
X37740683Y23187371D01*
X37719399Y23161437D01*
X37630194Y23052740D01*
X37541749Y22887269D01*
X37487283Y22707722D01*
X37468892Y22521000D01*
X37473501Y22474206D01*
X37473500Y21187500D01*
X32409200Y21187500D01*
X32342415Y21287451D01*
X32112451Y21517415D01*
X31842042Y21698097D01*
X31541707Y21822500D01*
X31842042Y21946903D01*
X32112451Y22127585D01*
X32342415Y22357549D01*
X32523097Y22627958D01*
X32647553Y22928421D01*
X32679872Y23090900D01*
X32708507Y22946943D01*
X32828176Y22658037D01*
X33001908Y22398028D01*
X33223028Y22176908D01*
X33483037Y22003176D01*
X33771943Y21883507D01*
X34078645Y21822500D01*
X34391355Y21822500D01*
X34698057Y21883507D01*
X34986963Y22003176D01*
X35246972Y22176908D01*
X35468092Y22398028D01*
X35641824Y22658037D01*
X35761493Y22946943D01*
X35822500Y23253645D01*
X35822500Y23566355D01*
X35761493Y23873057D01*
X35641824Y24161963D01*
X35468092Y24421972D01*
X35246972Y24643092D01*
X34986963Y24816824D01*
X34698057Y24936493D01*
X34391355Y24997500D01*
X34078645Y24997500D01*
X33992361Y24980337D01*
X34179366Y25105290D01*
X34444710Y25370634D01*
X34653189Y25682644D01*
X34796791Y26029332D01*
X34870000Y26397374D01*
X34870000Y26772626D01*
X34796791Y27140668D01*
X34653189Y27487356D01*
X34444710Y27799366D01*
X34179366Y28064710D01*
X33905264Y28247859D01*
X33986247Y28432148D01*
X32838000Y29580395D01*
X31689753Y28432148D01*
X31818076Y28140129D01*
X31844059Y28127134D01*
X31750634Y28064710D01*
X31485290Y27799366D01*
X31276811Y27487356D01*
X31133209Y27140668D01*
X31123500Y27091858D01*
X31123500Y28917114D01*
X31218129Y28740076D01*
X31510148Y28611753D01*
X32658395Y29760000D01*
X32644253Y29774142D01*
X32823858Y29953747D01*
X32838000Y29939605D01*
X32852143Y29953747D01*
X33031748Y29774142D01*
X33017605Y29760000D01*
X34165852Y28611753D01*
X34457871Y28740076D01*
X34625723Y29075695D01*
X34724874Y29437611D01*
X34751514Y29811916D01*
X34704618Y30184227D01*
X34585988Y30540235D01*
X34457871Y30779924D01*
X34165854Y30908246D01*
X34280926Y31023318D01*
X34221753Y31082491D01*
X34238335Y31089360D01*
X34244531Y31093500D01*
X35110462Y31093500D01*
X35560397Y30643564D01*
X35590222Y30607222D01*
X35735259Y30488194D01*
X35769141Y30470084D01*
X35900730Y30399748D01*
X35990504Y30372516D01*
X36080277Y30345283D01*
X36220215Y30331500D01*
X36267000Y30326892D01*
X36313785Y30331500D01*
X36814261Y30331500D01*
X36780013Y30297252D01*
X36601082Y30029463D01*
X36477832Y29731912D01*
X36415000Y29416033D01*
X36415000Y29093967D01*
X36477832Y28778088D01*
X36601082Y28480537D01*
X36780013Y28212748D01*
X37007748Y27985013D01*
X37275537Y27806082D01*
X37573088Y27682832D01*
X37888967Y27620000D01*
X38211033Y27620000D01*
X38526912Y27682832D01*
X38824463Y27806082D01*
X39092252Y27985013D01*
X39319987Y28212748D01*
X39498918Y28480537D01*
X39622168Y28778088D01*
X39685000Y29093967D01*
X39685000Y29416033D01*
X39622168Y29731912D01*
X39498918Y30029463D01*
X39319987Y30297252D01*
X39157850Y30459389D01*
X39211741Y30488194D01*
X39356778Y30607222D01*
X39386607Y30643569D01*
X40590436Y31847397D01*
X40626778Y31877222D01*
X40745806Y32022259D01*
X40834252Y32187731D01*
X40888717Y32367277D01*
X40902500Y32507215D01*
X40907108Y32553999D01*
X40902500Y32600784D01*
X40902500Y39525462D01*
X44042990Y36384972D01*
X44042990Y36384972D01*
G37*
X44042990Y36384972D02*
X44042991Y20316305D01*
X44038382Y20269510D01*
X44056773Y20082788D01*
X44111239Y19903241D01*
X44199684Y19737770D01*
X44212985Y19721563D01*
X44318713Y19592732D01*
X44355055Y19562907D01*
X44813393Y19104569D01*
X44843222Y19068222D01*
X44988259Y18949194D01*
X45153731Y18860748D01*
X45318367Y18810806D01*
X45333277Y18806283D01*
X45519999Y18787892D01*
X45566784Y18792500D01*
X45610043Y18792500D01*
X45670013Y18702748D01*
X45897748Y18475013D01*
X46165537Y18296082D01*
X46310758Y18235929D01*
X46190937Y18186298D01*
X45923148Y18007367D01*
X45695413Y17779632D01*
X45635443Y17689880D01*
X45516164Y17689880D01*
X45469379Y17694488D01*
X45325015Y17680269D01*
X45282657Y17676097D01*
X45103111Y17621632D01*
X44937639Y17533186D01*
X44792602Y17414158D01*
X44762773Y17377811D01*
X44262565Y16877603D01*
X44226223Y16847778D01*
X44188040Y16801252D01*
X44107194Y16702740D01*
X44018749Y16537269D01*
X43964283Y16357722D01*
X43945892Y16171000D01*
X43950501Y16124206D01*
X43950500Y12882539D01*
X43304462Y12236500D01*
X36303969Y12236500D01*
X36401493Y12471943D01*
X36462500Y12778645D01*
X36462500Y13091355D01*
X36401493Y13398057D01*
X36393040Y13418465D01*
X40044070Y13418465D01*
X40134098Y13158919D01*
X40415616Y13022776D01*
X40718286Y12944171D01*
X41030474Y12926123D01*
X41340185Y12969328D01*
X41635516Y13072123D01*
X41797902Y13158919D01*
X41887930Y13418465D01*
X40966000Y14340395D01*
X40044070Y13418465D01*
X36393040Y13418465D01*
X36281824Y13686963D01*
X36108092Y13946972D01*
X35886972Y14168092D01*
X35626963Y14341824D01*
X35352463Y14455526D01*
X39372123Y14455526D01*
X39415328Y14145815D01*
X39518123Y13850484D01*
X39604919Y13688098D01*
X39864465Y13598070D01*
X40786395Y14520000D01*
X41145605Y14520000D01*
X42067535Y13598070D01*
X42327081Y13688098D01*
X42463224Y13969616D01*
X42541829Y14272286D01*
X42559877Y14584474D01*
X42516672Y14894185D01*
X42413877Y15189516D01*
X42327081Y15351902D01*
X42067535Y15441930D01*
X41145605Y14520000D01*
X40786395Y14520000D01*
X39864465Y15441930D01*
X39604919Y15351902D01*
X39468776Y15070384D01*
X39390171Y14767714D01*
X39372123Y14455526D01*
X35352463Y14455526D01*
X35338057Y14461493D01*
X35031355Y14522500D01*
X34949539Y14522500D01*
X35515436Y15088397D01*
X35551778Y15118222D01*
X35670806Y15263259D01*
X35759252Y15428731D01*
X35813717Y15608277D01*
X35827500Y15748215D01*
X35827500Y15748216D01*
X35832108Y15795000D01*
X35827500Y15841785D01*
X35827500Y16742170D01*
X35886972Y16781908D01*
X36108092Y17003028D01*
X36281824Y17263037D01*
X36401493Y17551943D01*
X36462500Y17858645D01*
X36462500Y18171355D01*
X36401493Y18478057D01*
X36281824Y18766963D01*
X36108092Y19026972D01*
X35886972Y19248092D01*
X35835477Y19282500D01*
X37473501Y19282500D01*
X37473500Y18650572D01*
X37349018Y18638312D01*
X37229320Y18602002D01*
X37119006Y18543037D01*
X37022315Y18463685D01*
X36942963Y18366994D01*
X36883998Y18256680D01*
X36847688Y18136982D01*
X36835428Y18012500D01*
X36835428Y16107500D01*
X36847688Y15983018D01*
X36883998Y15863320D01*
X36942963Y15753006D01*
X37022315Y15656315D01*
X37119006Y15576963D01*
X37229320Y15517998D01*
X37349018Y15481688D01*
X37473500Y15469428D01*
X39378500Y15469428D01*
X39502982Y15481688D01*
X39622680Y15517998D01*
X39732994Y15576963D01*
X39829685Y15656315D01*
X39909037Y15753006D01*
X39950451Y15830485D01*
X39954028Y15826908D01*
X40084961Y15739422D01*
X40044070Y15621535D01*
X40966000Y14699605D01*
X41887930Y15621535D01*
X41847039Y15739422D01*
X41977972Y15826908D01*
X42199092Y16048028D01*
X42372824Y16308037D01*
X42492493Y16596943D01*
X42553500Y16903645D01*
X42553500Y17216355D01*
X42492493Y17523057D01*
X42372824Y17811963D01*
X42199092Y18071972D01*
X41977972Y18293092D01*
X41717963Y18466824D01*
X41429057Y18586493D01*
X41122355Y18647500D01*
X40809645Y18647500D01*
X40502943Y18586493D01*
X40214037Y18466824D01*
X39954028Y18293092D01*
X39950451Y18289515D01*
X39909037Y18366994D01*
X39829685Y18463685D01*
X39732994Y18543037D01*
X39622680Y18602002D01*
X39502982Y18638312D01*
X39378500Y18650572D01*
X39378500Y20315216D01*
X39383108Y20361999D01*
X39378500Y20408785D01*
X39378500Y21822500D01*
X39471355Y21822500D01*
X39778057Y21883507D01*
X40066963Y22003176D01*
X40326972Y22176908D01*
X40548092Y22398028D01*
X40721824Y22658037D01*
X40841493Y22946943D01*
X40902500Y23253645D01*
X40902500Y23566355D01*
X40841493Y23873057D01*
X40721824Y24161963D01*
X40548092Y24421972D01*
X40326972Y24643092D01*
X40066963Y24816824D01*
X39778057Y24936493D01*
X39471355Y24997500D01*
X39158645Y24997500D01*
X38851943Y24936493D01*
X38563037Y24816824D01*
X38303028Y24643092D01*
X38081908Y24421972D01*
X37908176Y24161963D01*
X37788507Y23873057D01*
X37727500Y23566355D01*
X37727500Y23253645D01*
X37740683Y23187371D01*
X37719399Y23161437D01*
X37630194Y23052740D01*
X37541749Y22887269D01*
X37487283Y22707722D01*
X37468892Y22521000D01*
X37473501Y22474206D01*
X37473500Y21187500D01*
X32409200Y21187500D01*
X32342415Y21287451D01*
X32112451Y21517415D01*
X31842042Y21698097D01*
X31541707Y21822500D01*
X31842042Y21946903D01*
X32112451Y22127585D01*
X32342415Y22357549D01*
X32523097Y22627958D01*
X32647553Y22928421D01*
X32679872Y23090900D01*
X32708507Y22946943D01*
X32828176Y22658037D01*
X33001908Y22398028D01*
X33223028Y22176908D01*
X33483037Y22003176D01*
X33771943Y21883507D01*
X34078645Y21822500D01*
X34391355Y21822500D01*
X34698057Y21883507D01*
X34986963Y22003176D01*
X35246972Y22176908D01*
X35468092Y22398028D01*
X35641824Y22658037D01*
X35761493Y22946943D01*
X35822500Y23253645D01*
X35822500Y23566355D01*
X35761493Y23873057D01*
X35641824Y24161963D01*
X35468092Y24421972D01*
X35246972Y24643092D01*
X34986963Y24816824D01*
X34698057Y24936493D01*
X34391355Y24997500D01*
X34078645Y24997500D01*
X33992361Y24980337D01*
X34179366Y25105290D01*
X34444710Y25370634D01*
X34653189Y25682644D01*
X34796791Y26029332D01*
X34870000Y26397374D01*
X34870000Y26772626D01*
X34796791Y27140668D01*
X34653189Y27487356D01*
X34444710Y27799366D01*
X34179366Y28064710D01*
X33905264Y28247859D01*
X33986247Y28432148D01*
X32838000Y29580395D01*
X31689753Y28432148D01*
X31818076Y28140129D01*
X31844059Y28127134D01*
X31750634Y28064710D01*
X31485290Y27799366D01*
X31276811Y27487356D01*
X31133209Y27140668D01*
X31123500Y27091858D01*
X31123500Y28917114D01*
X31218129Y28740076D01*
X31510148Y28611753D01*
X32658395Y29760000D01*
X32644253Y29774142D01*
X32823858Y29953747D01*
X32838000Y29939605D01*
X32852143Y29953747D01*
X33031748Y29774142D01*
X33017605Y29760000D01*
X34165852Y28611753D01*
X34457871Y28740076D01*
X34625723Y29075695D01*
X34724874Y29437611D01*
X34751514Y29811916D01*
X34704618Y30184227D01*
X34585988Y30540235D01*
X34457871Y30779924D01*
X34165854Y30908246D01*
X34280926Y31023318D01*
X34221753Y31082491D01*
X34238335Y31089360D01*
X34244531Y31093500D01*
X35110462Y31093500D01*
X35560397Y30643564D01*
X35590222Y30607222D01*
X35735259Y30488194D01*
X35769141Y30470084D01*
X35900730Y30399748D01*
X35990504Y30372516D01*
X36080277Y30345283D01*
X36220215Y30331500D01*
X36267000Y30326892D01*
X36313785Y30331500D01*
X36814261Y30331500D01*
X36780013Y30297252D01*
X36601082Y30029463D01*
X36477832Y29731912D01*
X36415000Y29416033D01*
X36415000Y29093967D01*
X36477832Y28778088D01*
X36601082Y28480537D01*
X36780013Y28212748D01*
X37007748Y27985013D01*
X37275537Y27806082D01*
X37573088Y27682832D01*
X37888967Y27620000D01*
X38211033Y27620000D01*
X38526912Y27682832D01*
X38824463Y27806082D01*
X39092252Y27985013D01*
X39319987Y28212748D01*
X39498918Y28480537D01*
X39622168Y28778088D01*
X39685000Y29093967D01*
X39685000Y29416033D01*
X39622168Y29731912D01*
X39498918Y30029463D01*
X39319987Y30297252D01*
X39157850Y30459389D01*
X39211741Y30488194D01*
X39356778Y30607222D01*
X39386607Y30643569D01*
X40590436Y31847397D01*
X40626778Y31877222D01*
X40745806Y32022259D01*
X40834252Y32187731D01*
X40888717Y32367277D01*
X40902500Y32507215D01*
X40907108Y32553999D01*
X40902500Y32600784D01*
X40902500Y39525462D01*
X44042990Y36384972D01*
G36*
X4612549Y63722585D02*
G01*
X4882958Y63541903D01*
X5183421Y63417447D01*
X5502391Y63354000D01*
X5827609Y63354000D01*
X6146579Y63417447D01*
X6167631Y63426167D01*
X6167631Y46641160D01*
X6165482Y46641812D01*
X6041000Y46654072D01*
X4009000Y46654072D01*
X3884518Y46641812D01*
X3764820Y46605502D01*
X3654506Y46546537D01*
X3557815Y46467185D01*
X3478463Y46370494D01*
X3419498Y46260180D01*
X3415468Y46246896D01*
X3354522Y46412860D01*
X3062179Y46555348D01*
X2747656Y46638064D01*
X2423038Y46657831D01*
X2100802Y46613888D01*
X1793330Y46507924D01*
X1615478Y46412860D01*
X1517782Y46146823D01*
X2485000Y45179605D01*
X2499143Y45193747D01*
X2678748Y45014142D01*
X2664605Y45000000D01*
X2678748Y44985857D01*
X2499143Y44806252D01*
X2485000Y44820395D01*
X1517782Y43853177D01*
X1615478Y43587140D01*
X1907821Y43444652D01*
X2222344Y43361936D01*
X2546962Y43342169D01*
X2869198Y43386112D01*
X3176670Y43492076D01*
X3354522Y43587140D01*
X3415468Y43753104D01*
X3419498Y43739820D01*
X3478463Y43629506D01*
X3557815Y43532815D01*
X3654506Y43453463D01*
X3764820Y43394498D01*
X3884518Y43358188D01*
X4009000Y43345928D01*
X6041000Y43345928D01*
X6165482Y43358188D01*
X6285180Y43394498D01*
X6395494Y43453463D01*
X6492185Y43532815D01*
X6571537Y43629506D01*
X6630502Y43739820D01*
X6666812Y43859518D01*
X6679072Y43984000D01*
X6679072Y46016000D01*
X6666812Y46140482D01*
X6630502Y46260180D01*
X6571537Y46370494D01*
X6565294Y46378101D01*
X8438760Y46378101D01*
X8438760Y44684315D01*
X12420800Y44684315D01*
X12416928Y44645000D01*
X12416928Y39645000D01*
X12429188Y39520518D01*
X12465498Y39400820D01*
X12524463Y39290506D01*
X12542495Y39268534D01*
X12496579Y39287553D01*
X12177609Y39351000D01*
X11852391Y39351000D01*
X11533421Y39287553D01*
X11232958Y39163097D01*
X10962549Y38982415D01*
X10732585Y38752451D01*
X10665800Y38652500D01*
X10266576Y38652500D01*
X10319710Y38705634D01*
X10528189Y39017644D01*
X10671791Y39364332D01*
X10745000Y39732374D01*
X10745000Y40107626D01*
X10671791Y40475668D01*
X10528189Y40822356D01*
X10319710Y41134366D01*
X10054366Y41399710D01*
X9742356Y41608189D01*
X9395668Y41751791D01*
X9027626Y41825000D01*
X8652374Y41825000D01*
X8284332Y41751791D01*
X7937644Y41608189D01*
X7625634Y41399710D01*
X7360290Y41134366D01*
X7151811Y40822356D01*
X7008209Y40475668D01*
X6935000Y40107626D01*
X6935000Y39732374D01*
X7008209Y39364332D01*
X7151811Y39017644D01*
X7360290Y38705634D01*
X7625634Y38440290D01*
X7887500Y38265316D01*
X7887501Y37992436D01*
X7887500Y37746789D01*
X7882892Y37700000D01*
X7887500Y37653211D01*
X7887500Y36890539D01*
X5519462Y34522500D01*
X4130316Y34522500D01*
X4126812Y34558082D01*
X4090502Y34677780D01*
X4031537Y34788094D01*
X3952185Y34884785D01*
X3855494Y34964137D01*
X3745180Y35023102D01*
X3683088Y35041937D01*
X3835733Y35207965D01*
X3988686Y35459081D01*
X4089709Y35735211D01*
X4092358Y35750974D01*
X3971217Y35983000D01*
X2612000Y35983000D01*
X2612000Y35963000D01*
X2358000Y35963000D01*
X2358000Y35983000D01*
X2338000Y35983000D01*
X2338000Y36237000D01*
X2358000Y36237000D01*
X2358000Y37450925D01*
X2612000Y37450925D01*
X2612000Y36237000D01*
X3971217Y36237000D01*
X4092358Y36469026D01*
X4089709Y36484789D01*
X3988686Y36760919D01*
X3835733Y37012035D01*
X3636729Y37228486D01*
X3399321Y37401954D01*
X3132633Y37525773D01*
X2846914Y37595185D01*
X2612000Y37450925D01*
X2358000Y37450925D01*
X2123086Y37595185D01*
X1837367Y37525773D01*
X1570679Y37401954D01*
X1333271Y37228486D01*
X1134267Y37012035D01*
X1075500Y36915552D01*
X1075500Y44129244D01*
X1338177Y44032782D01*
X2305395Y45000000D01*
X1338177Y45967218D01*
X1075500Y45870756D01*
X1075500Y57600076D01*
X1097749Y57526731D01*
X1186195Y57361259D01*
X1305223Y57216222D01*
X1341564Y57186398D01*
X2186454Y56341507D01*
X2172500Y56271355D01*
X2172500Y55958645D01*
X2233507Y55651943D01*
X2353176Y55363037D01*
X2526908Y55103028D01*
X2748028Y54881908D01*
X3008037Y54708176D01*
X3296943Y54588507D01*
X3603645Y54527500D01*
X3916355Y54527500D01*
X4223057Y54588507D01*
X4511963Y54708176D01*
X4771972Y54881908D01*
X4993092Y55103028D01*
X5166824Y55363037D01*
X5286493Y55651943D01*
X5347500Y55958645D01*
X5347500Y56271355D01*
X5286493Y56578057D01*
X5166824Y56866963D01*
X4993092Y57126972D01*
X4771972Y57348092D01*
X4511963Y57521824D01*
X4223057Y57641493D01*
X3916355Y57702500D01*
X3603645Y57702500D01*
X3533493Y57688546D01*
X2934500Y58287538D01*
X2934500Y59837312D01*
X3008037Y59788176D01*
X3296943Y59668507D01*
X3603645Y59607500D01*
X3916355Y59607500D01*
X4223057Y59668507D01*
X4511963Y59788176D01*
X4771972Y59961908D01*
X4993092Y60183028D01*
X5166824Y60443037D01*
X5286493Y60731943D01*
X5347500Y61038645D01*
X5347500Y61351355D01*
X5286493Y61658057D01*
X5166824Y61946963D01*
X4993092Y62206972D01*
X4771972Y62428092D01*
X4511963Y62601824D01*
X4223057Y62721493D01*
X3916355Y62782500D01*
X3603645Y62782500D01*
X3296943Y62721493D01*
X3139186Y62656148D01*
X3765436Y63282397D01*
X3801778Y63312222D01*
X3920806Y63457259D01*
X3998831Y63603235D01*
X4177451Y63722585D01*
X4395000Y63940134D01*
X4612549Y63722585D01*
X4612549Y63722585D01*
G37*
X4612549Y63722585D02*
X4882958Y63541903D01*
X5183421Y63417447D01*
X5502391Y63354000D01*
X5827609Y63354000D01*
X6146579Y63417447D01*
X6167631Y63426167D01*
X6167631Y46641160D01*
X6165482Y46641812D01*
X6041000Y46654072D01*
X4009000Y46654072D01*
X3884518Y46641812D01*
X3764820Y46605502D01*
X3654506Y46546537D01*
X3557815Y46467185D01*
X3478463Y46370494D01*
X3419498Y46260180D01*
X3415468Y46246896D01*
X3354522Y46412860D01*
X3062179Y46555348D01*
X2747656Y46638064D01*
X2423038Y46657831D01*
X2100802Y46613888D01*
X1793330Y46507924D01*
X1615478Y46412860D01*
X1517782Y46146823D01*
X2485000Y45179605D01*
X2499143Y45193747D01*
X2678748Y45014142D01*
X2664605Y45000000D01*
X2678748Y44985857D01*
X2499143Y44806252D01*
X2485000Y44820395D01*
X1517782Y43853177D01*
X1615478Y43587140D01*
X1907821Y43444652D01*
X2222344Y43361936D01*
X2546962Y43342169D01*
X2869198Y43386112D01*
X3176670Y43492076D01*
X3354522Y43587140D01*
X3415468Y43753104D01*
X3419498Y43739820D01*
X3478463Y43629506D01*
X3557815Y43532815D01*
X3654506Y43453463D01*
X3764820Y43394498D01*
X3884518Y43358188D01*
X4009000Y43345928D01*
X6041000Y43345928D01*
X6165482Y43358188D01*
X6285180Y43394498D01*
X6395494Y43453463D01*
X6492185Y43532815D01*
X6571537Y43629506D01*
X6630502Y43739820D01*
X6666812Y43859518D01*
X6679072Y43984000D01*
X6679072Y46016000D01*
X6666812Y46140482D01*
X6630502Y46260180D01*
X6571537Y46370494D01*
X6565294Y46378101D01*
X8438760Y46378101D01*
X8438760Y44684315D01*
X12420800Y44684315D01*
X12416928Y44645000D01*
X12416928Y39645000D01*
X12429188Y39520518D01*
X12465498Y39400820D01*
X12524463Y39290506D01*
X12542495Y39268534D01*
X12496579Y39287553D01*
X12177609Y39351000D01*
X11852391Y39351000D01*
X11533421Y39287553D01*
X11232958Y39163097D01*
X10962549Y38982415D01*
X10732585Y38752451D01*
X10665800Y38652500D01*
X10266576Y38652500D01*
X10319710Y38705634D01*
X10528189Y39017644D01*
X10671791Y39364332D01*
X10745000Y39732374D01*
X10745000Y40107626D01*
X10671791Y40475668D01*
X10528189Y40822356D01*
X10319710Y41134366D01*
X10054366Y41399710D01*
X9742356Y41608189D01*
X9395668Y41751791D01*
X9027626Y41825000D01*
X8652374Y41825000D01*
X8284332Y41751791D01*
X7937644Y41608189D01*
X7625634Y41399710D01*
X7360290Y41134366D01*
X7151811Y40822356D01*
X7008209Y40475668D01*
X6935000Y40107626D01*
X6935000Y39732374D01*
X7008209Y39364332D01*
X7151811Y39017644D01*
X7360290Y38705634D01*
X7625634Y38440290D01*
X7887500Y38265316D01*
X7887501Y37992436D01*
X7887500Y37746789D01*
X7882892Y37700000D01*
X7887500Y37653211D01*
X7887500Y36890539D01*
X5519462Y34522500D01*
X4130316Y34522500D01*
X4126812Y34558082D01*
X4090502Y34677780D01*
X4031537Y34788094D01*
X3952185Y34884785D01*
X3855494Y34964137D01*
X3745180Y35023102D01*
X3683088Y35041937D01*
X3835733Y35207965D01*
X3988686Y35459081D01*
X4089709Y35735211D01*
X4092358Y35750974D01*
X3971217Y35983000D01*
X2612000Y35983000D01*
X2612000Y35963000D01*
X2358000Y35963000D01*
X2358000Y35983000D01*
X2338000Y35983000D01*
X2338000Y36237000D01*
X2358000Y36237000D01*
X2358000Y37450925D01*
X2612000Y37450925D01*
X2612000Y36237000D01*
X3971217Y36237000D01*
X4092358Y36469026D01*
X4089709Y36484789D01*
X3988686Y36760919D01*
X3835733Y37012035D01*
X3636729Y37228486D01*
X3399321Y37401954D01*
X3132633Y37525773D01*
X2846914Y37595185D01*
X2612000Y37450925D01*
X2358000Y37450925D01*
X2123086Y37595185D01*
X1837367Y37525773D01*
X1570679Y37401954D01*
X1333271Y37228486D01*
X1134267Y37012035D01*
X1075500Y36915552D01*
X1075500Y44129244D01*
X1338177Y44032782D01*
X2305395Y45000000D01*
X1338177Y45967218D01*
X1075500Y45870756D01*
X1075500Y57600076D01*
X1097749Y57526731D01*
X1186195Y57361259D01*
X1305223Y57216222D01*
X1341564Y57186398D01*
X2186454Y56341507D01*
X2172500Y56271355D01*
X2172500Y55958645D01*
X2233507Y55651943D01*
X2353176Y55363037D01*
X2526908Y55103028D01*
X2748028Y54881908D01*
X3008037Y54708176D01*
X3296943Y54588507D01*
X3603645Y54527500D01*
X3916355Y54527500D01*
X4223057Y54588507D01*
X4511963Y54708176D01*
X4771972Y54881908D01*
X4993092Y55103028D01*
X5166824Y55363037D01*
X5286493Y55651943D01*
X5347500Y55958645D01*
X5347500Y56271355D01*
X5286493Y56578057D01*
X5166824Y56866963D01*
X4993092Y57126972D01*
X4771972Y57348092D01*
X4511963Y57521824D01*
X4223057Y57641493D01*
X3916355Y57702500D01*
X3603645Y57702500D01*
X3533493Y57688546D01*
X2934500Y58287538D01*
X2934500Y59837312D01*
X3008037Y59788176D01*
X3296943Y59668507D01*
X3603645Y59607500D01*
X3916355Y59607500D01*
X4223057Y59668507D01*
X4511963Y59788176D01*
X4771972Y59961908D01*
X4993092Y60183028D01*
X5166824Y60443037D01*
X5286493Y60731943D01*
X5347500Y61038645D01*
X5347500Y61351355D01*
X5286493Y61658057D01*
X5166824Y61946963D01*
X4993092Y62206972D01*
X4771972Y62428092D01*
X4511963Y62601824D01*
X4223057Y62721493D01*
X3916355Y62782500D01*
X3603645Y62782500D01*
X3296943Y62721493D01*
X3139186Y62656148D01*
X3765436Y63282397D01*
X3801778Y63312222D01*
X3920806Y63457259D01*
X3998831Y63603235D01*
X4177451Y63722585D01*
X4395000Y63940134D01*
X4612549Y63722585D01*
G36*
X45606501Y82644460D02*
G01*
X45606500Y72517216D01*
X45606501Y72517207D01*
X45606500Y71749538D01*
X45590461Y71733499D01*
X45457784Y71733499D01*
X45410999Y71738107D01*
X45364214Y71733499D01*
X45224276Y71719716D01*
X45044730Y71665251D01*
X44879258Y71576805D01*
X44734221Y71457777D01*
X44704392Y71421430D01*
X44675510Y71392548D01*
X44557609Y71416000D01*
X44232391Y71416000D01*
X43913421Y71352553D01*
X43612958Y71228097D01*
X43342549Y71047415D01*
X43112585Y70817451D01*
X42931903Y70547042D01*
X42807447Y70246579D01*
X42744000Y69927609D01*
X42744000Y69602391D01*
X42807447Y69283421D01*
X42931903Y68982958D01*
X43112585Y68712549D01*
X43342549Y68482585D01*
X43442500Y68415800D01*
X43442500Y68374945D01*
X43437892Y68328160D01*
X43442500Y68281376D01*
X43456283Y68141438D01*
X43510748Y67961892D01*
X43599194Y67796419D01*
X43718222Y67651382D01*
X43754570Y67621552D01*
X43823501Y67552621D01*
X43823500Y55188338D01*
X43712102Y55222130D01*
X43530665Y55240000D01*
X42209335Y55240000D01*
X42027898Y55222130D01*
X41795099Y55151511D01*
X41580551Y55036833D01*
X41483883Y54957500D01*
X40770784Y54957500D01*
X40723999Y54962108D01*
X40537277Y54943717D01*
X40357731Y54889252D01*
X40192259Y54800806D01*
X40047222Y54681778D01*
X40017393Y54645431D01*
X39759500Y54387538D01*
X39759500Y60066215D01*
X39764108Y60113000D01*
X39745929Y60297568D01*
X39777898Y60287870D01*
X39959335Y60270000D01*
X41280665Y60270000D01*
X41462102Y60287870D01*
X41694901Y60358489D01*
X41909449Y60473167D01*
X42097502Y60627498D01*
X42251833Y60815551D01*
X42366511Y61030099D01*
X42437130Y61262898D01*
X42460975Y61505000D01*
X42437130Y61747102D01*
X42366511Y61979901D01*
X42251833Y62194449D01*
X42097502Y62382502D01*
X41909449Y62536833D01*
X41694901Y62651511D01*
X41462102Y62722130D01*
X41280665Y62740000D01*
X40679960Y62740000D01*
X40847502Y62877498D01*
X41001833Y63065551D01*
X41116511Y63280099D01*
X41187130Y63512898D01*
X41210975Y63755000D01*
X41187130Y63997102D01*
X41116511Y64229901D01*
X41001833Y64444449D01*
X40847502Y64632502D01*
X40659449Y64786833D01*
X40444901Y64901511D01*
X40212102Y64972130D01*
X40030665Y64990000D01*
X38709335Y64990000D01*
X38527898Y64972130D01*
X38295099Y64901511D01*
X38080551Y64786833D01*
X37892498Y64632502D01*
X37738167Y64444449D01*
X37623489Y64229901D01*
X37552870Y63997102D01*
X37529025Y63755000D01*
X37552870Y63512898D01*
X37623489Y63280099D01*
X37738167Y63065551D01*
X37892498Y62877498D01*
X38080551Y62723167D01*
X38295099Y62608489D01*
X38527898Y62537870D01*
X38709335Y62520000D01*
X39310040Y62520000D01*
X39142498Y62382502D01*
X38988167Y62194449D01*
X38873489Y61979901D01*
X38802870Y61747102D01*
X38779025Y61505000D01*
X38780881Y61486158D01*
X35822500Y64444538D01*
X35822500Y67387609D01*
X37664000Y67387609D01*
X37664000Y67062391D01*
X37727447Y66743421D01*
X37851903Y66442958D01*
X38032585Y66172549D01*
X38262549Y65942585D01*
X38532958Y65761903D01*
X38833421Y65637447D01*
X39152391Y65574000D01*
X39477609Y65574000D01*
X39796579Y65637447D01*
X40097042Y65761903D01*
X40367451Y65942585D01*
X40597415Y66172549D01*
X40778097Y66442958D01*
X40902553Y66743421D01*
X40966000Y67062391D01*
X40966000Y67387609D01*
X40902553Y67706579D01*
X40778097Y68007042D01*
X40597415Y68277451D01*
X40367451Y68507415D01*
X40097042Y68688097D01*
X39796579Y68812553D01*
X39477609Y68876000D01*
X39152391Y68876000D01*
X38833421Y68812553D01*
X38532958Y68688097D01*
X38262549Y68507415D01*
X38032585Y68277451D01*
X37851903Y68007042D01*
X37727447Y67706579D01*
X37664000Y67387609D01*
X35822500Y67387609D01*
X35822500Y68415800D01*
X35992958Y68301903D01*
X36293421Y68177447D01*
X36612391Y68114000D01*
X36937609Y68114000D01*
X37256579Y68177447D01*
X37557042Y68301903D01*
X37827451Y68482585D01*
X38057415Y68712549D01*
X38238097Y68982958D01*
X38362553Y69283421D01*
X38426000Y69602391D01*
X38426000Y69927609D01*
X38362553Y70246579D01*
X38238097Y70547042D01*
X38057415Y70817451D01*
X37827451Y71047415D01*
X37557042Y71228097D01*
X37256579Y71352553D01*
X36937609Y71416000D01*
X36612391Y71416000D01*
X36293421Y71352553D01*
X35992958Y71228097D01*
X35822500Y71114200D01*
X35822500Y72893215D01*
X35827108Y72940000D01*
X35808717Y73126723D01*
X35789749Y73189252D01*
X35754252Y73306269D01*
X35665806Y73471741D01*
X35546778Y73616778D01*
X35510436Y73646603D01*
X34592548Y74564490D01*
X34616000Y74682391D01*
X34616000Y74783038D01*
X38927169Y74783038D01*
X38971112Y74460802D01*
X39077076Y74153330D01*
X39172140Y73975478D01*
X39438177Y73877782D01*
X40405395Y74845000D01*
X39438177Y75812218D01*
X39172140Y75714522D01*
X39029652Y75422179D01*
X38946936Y75107656D01*
X38927169Y74783038D01*
X34616000Y74783038D01*
X34616000Y75007609D01*
X34552553Y75326579D01*
X34428097Y75627042D01*
X34247415Y75897451D01*
X34093366Y76051500D01*
X34569215Y76051500D01*
X34616000Y76046892D01*
X34662785Y76051500D01*
X34802723Y76065283D01*
X34982269Y76119748D01*
X35147741Y76208194D01*
X35247832Y76290336D01*
X35248507Y76286943D01*
X35368176Y75998037D01*
X35541908Y75738028D01*
X35763028Y75516908D01*
X36023037Y75343176D01*
X36311943Y75223507D01*
X36618645Y75162500D01*
X36931355Y75162500D01*
X37238057Y75223507D01*
X37526963Y75343176D01*
X37786972Y75516908D01*
X38008092Y75738028D01*
X38181824Y75998037D01*
X38301493Y76286943D01*
X38362500Y76593645D01*
X38362500Y76906355D01*
X38301493Y77213057D01*
X38181824Y77501963D01*
X38008092Y77761972D01*
X37786972Y77983092D01*
X37526963Y78156824D01*
X37238057Y78276493D01*
X37235951Y78276912D01*
X37296539Y78337500D01*
X39334215Y78337500D01*
X39381000Y78332892D01*
X39427785Y78337500D01*
X39567723Y78351283D01*
X39747269Y78405748D01*
X39912741Y78494194D01*
X40057778Y78613222D01*
X40087607Y78649569D01*
X40526500Y79088462D01*
X42177500Y77437462D01*
X42177500Y76499072D01*
X42109000Y76499072D01*
X41984518Y76486812D01*
X41864820Y76450502D01*
X41754506Y76391537D01*
X41657815Y76312185D01*
X41578463Y76215494D01*
X41519498Y76105180D01*
X41515468Y76091896D01*
X41454522Y76257860D01*
X41162179Y76400348D01*
X40847656Y76483064D01*
X40523038Y76502831D01*
X40200802Y76458888D01*
X39893330Y76352924D01*
X39715478Y76257860D01*
X39617782Y75991823D01*
X40585000Y75024605D01*
X40599143Y75038747D01*
X40778748Y74859142D01*
X40764605Y74845000D01*
X40778748Y74830857D01*
X40599143Y74651252D01*
X40585000Y74665395D01*
X39617782Y73698177D01*
X39715478Y73432140D01*
X40007821Y73289652D01*
X40322344Y73206936D01*
X40646962Y73187169D01*
X40969198Y73231112D01*
X41276670Y73337076D01*
X41454522Y73432140D01*
X41515468Y73598104D01*
X41519498Y73584820D01*
X41578463Y73474506D01*
X41657815Y73377815D01*
X41754506Y73298463D01*
X41864820Y73239498D01*
X41984518Y73203188D01*
X42109000Y73190928D01*
X44141000Y73190928D01*
X44265482Y73203188D01*
X44385180Y73239498D01*
X44495494Y73298463D01*
X44592185Y73377815D01*
X44671537Y73474506D01*
X44730502Y73584820D01*
X44766812Y73704518D01*
X44779072Y73829000D01*
X44779072Y75861000D01*
X44766812Y75985482D01*
X44730502Y76105180D01*
X44671537Y76215494D01*
X44592185Y76312185D01*
X44495494Y76391537D01*
X44385180Y76450502D01*
X44265482Y76486812D01*
X44141000Y76499072D01*
X44082500Y76499072D01*
X44082500Y77785216D01*
X44087108Y77832001D01*
X44068717Y78018723D01*
X44043432Y78102076D01*
X44014252Y78198269D01*
X43925806Y78363741D01*
X43806778Y78508778D01*
X43770431Y78538607D01*
X41542500Y80766538D01*
X41542500Y80800800D01*
X41564296Y80815364D01*
X41583463Y80779506D01*
X41662815Y80682815D01*
X41759506Y80603463D01*
X41869820Y80544498D01*
X41989518Y80508188D01*
X42114000Y80495928D01*
X44146000Y80495928D01*
X44270482Y80508188D01*
X44390180Y80544498D01*
X44500494Y80603463D01*
X44597185Y80682815D01*
X44676537Y80779506D01*
X44735502Y80889820D01*
X44771812Y81009518D01*
X44784072Y81134000D01*
X44784072Y83166000D01*
X44771812Y83290482D01*
X44735502Y83410180D01*
X44676537Y83520494D01*
X44597185Y83617185D01*
X44500494Y83696537D01*
X44390180Y83755502D01*
X44270482Y83791812D01*
X44146000Y83804072D01*
X44082500Y83804072D01*
X44082500Y84168462D01*
X45606501Y82644460D01*
X45606501Y82644460D01*
G37*
X45606501Y82644460D02*
X45606500Y72517216D01*
X45606501Y72517207D01*
X45606500Y71749538D01*
X45590461Y71733499D01*
X45457784Y71733499D01*
X45410999Y71738107D01*
X45364214Y71733499D01*
X45224276Y71719716D01*
X45044730Y71665251D01*
X44879258Y71576805D01*
X44734221Y71457777D01*
X44704392Y71421430D01*
X44675510Y71392548D01*
X44557609Y71416000D01*
X44232391Y71416000D01*
X43913421Y71352553D01*
X43612958Y71228097D01*
X43342549Y71047415D01*
X43112585Y70817451D01*
X42931903Y70547042D01*
X42807447Y70246579D01*
X42744000Y69927609D01*
X42744000Y69602391D01*
X42807447Y69283421D01*
X42931903Y68982958D01*
X43112585Y68712549D01*
X43342549Y68482585D01*
X43442500Y68415800D01*
X43442500Y68374945D01*
X43437892Y68328160D01*
X43442500Y68281376D01*
X43456283Y68141438D01*
X43510748Y67961892D01*
X43599194Y67796419D01*
X43718222Y67651382D01*
X43754570Y67621552D01*
X43823501Y67552621D01*
X43823500Y55188338D01*
X43712102Y55222130D01*
X43530665Y55240000D01*
X42209335Y55240000D01*
X42027898Y55222130D01*
X41795099Y55151511D01*
X41580551Y55036833D01*
X41483883Y54957500D01*
X40770784Y54957500D01*
X40723999Y54962108D01*
X40537277Y54943717D01*
X40357731Y54889252D01*
X40192259Y54800806D01*
X40047222Y54681778D01*
X40017393Y54645431D01*
X39759500Y54387538D01*
X39759500Y60066215D01*
X39764108Y60113000D01*
X39745929Y60297568D01*
X39777898Y60287870D01*
X39959335Y60270000D01*
X41280665Y60270000D01*
X41462102Y60287870D01*
X41694901Y60358489D01*
X41909449Y60473167D01*
X42097502Y60627498D01*
X42251833Y60815551D01*
X42366511Y61030099D01*
X42437130Y61262898D01*
X42460975Y61505000D01*
X42437130Y61747102D01*
X42366511Y61979901D01*
X42251833Y62194449D01*
X42097502Y62382502D01*
X41909449Y62536833D01*
X41694901Y62651511D01*
X41462102Y62722130D01*
X41280665Y62740000D01*
X40679960Y62740000D01*
X40847502Y62877498D01*
X41001833Y63065551D01*
X41116511Y63280099D01*
X41187130Y63512898D01*
X41210975Y63755000D01*
X41187130Y63997102D01*
X41116511Y64229901D01*
X41001833Y64444449D01*
X40847502Y64632502D01*
X40659449Y64786833D01*
X40444901Y64901511D01*
X40212102Y64972130D01*
X40030665Y64990000D01*
X38709335Y64990000D01*
X38527898Y64972130D01*
X38295099Y64901511D01*
X38080551Y64786833D01*
X37892498Y64632502D01*
X37738167Y64444449D01*
X37623489Y64229901D01*
X37552870Y63997102D01*
X37529025Y63755000D01*
X37552870Y63512898D01*
X37623489Y63280099D01*
X37738167Y63065551D01*
X37892498Y62877498D01*
X38080551Y62723167D01*
X38295099Y62608489D01*
X38527898Y62537870D01*
X38709335Y62520000D01*
X39310040Y62520000D01*
X39142498Y62382502D01*
X38988167Y62194449D01*
X38873489Y61979901D01*
X38802870Y61747102D01*
X38779025Y61505000D01*
X38780881Y61486158D01*
X35822500Y64444538D01*
X35822500Y67387609D01*
X37664000Y67387609D01*
X37664000Y67062391D01*
X37727447Y66743421D01*
X37851903Y66442958D01*
X38032585Y66172549D01*
X38262549Y65942585D01*
X38532958Y65761903D01*
X38833421Y65637447D01*
X39152391Y65574000D01*
X39477609Y65574000D01*
X39796579Y65637447D01*
X40097042Y65761903D01*
X40367451Y65942585D01*
X40597415Y66172549D01*
X40778097Y66442958D01*
X40902553Y66743421D01*
X40966000Y67062391D01*
X40966000Y67387609D01*
X40902553Y67706579D01*
X40778097Y68007042D01*
X40597415Y68277451D01*
X40367451Y68507415D01*
X40097042Y68688097D01*
X39796579Y68812553D01*
X39477609Y68876000D01*
X39152391Y68876000D01*
X38833421Y68812553D01*
X38532958Y68688097D01*
X38262549Y68507415D01*
X38032585Y68277451D01*
X37851903Y68007042D01*
X37727447Y67706579D01*
X37664000Y67387609D01*
X35822500Y67387609D01*
X35822500Y68415800D01*
X35992958Y68301903D01*
X36293421Y68177447D01*
X36612391Y68114000D01*
X36937609Y68114000D01*
X37256579Y68177447D01*
X37557042Y68301903D01*
X37827451Y68482585D01*
X38057415Y68712549D01*
X38238097Y68982958D01*
X38362553Y69283421D01*
X38426000Y69602391D01*
X38426000Y69927609D01*
X38362553Y70246579D01*
X38238097Y70547042D01*
X38057415Y70817451D01*
X37827451Y71047415D01*
X37557042Y71228097D01*
X37256579Y71352553D01*
X36937609Y71416000D01*
X36612391Y71416000D01*
X36293421Y71352553D01*
X35992958Y71228097D01*
X35822500Y71114200D01*
X35822500Y72893215D01*
X35827108Y72940000D01*
X35808717Y73126723D01*
X35789749Y73189252D01*
X35754252Y73306269D01*
X35665806Y73471741D01*
X35546778Y73616778D01*
X35510436Y73646603D01*
X34592548Y74564490D01*
X34616000Y74682391D01*
X34616000Y74783038D01*
X38927169Y74783038D01*
X38971112Y74460802D01*
X39077076Y74153330D01*
X39172140Y73975478D01*
X39438177Y73877782D01*
X40405395Y74845000D01*
X39438177Y75812218D01*
X39172140Y75714522D01*
X39029652Y75422179D01*
X38946936Y75107656D01*
X38927169Y74783038D01*
X34616000Y74783038D01*
X34616000Y75007609D01*
X34552553Y75326579D01*
X34428097Y75627042D01*
X34247415Y75897451D01*
X34093366Y76051500D01*
X34569215Y76051500D01*
X34616000Y76046892D01*
X34662785Y76051500D01*
X34802723Y76065283D01*
X34982269Y76119748D01*
X35147741Y76208194D01*
X35247832Y76290336D01*
X35248507Y76286943D01*
X35368176Y75998037D01*
X35541908Y75738028D01*
X35763028Y75516908D01*
X36023037Y75343176D01*
X36311943Y75223507D01*
X36618645Y75162500D01*
X36931355Y75162500D01*
X37238057Y75223507D01*
X37526963Y75343176D01*
X37786972Y75516908D01*
X38008092Y75738028D01*
X38181824Y75998037D01*
X38301493Y76286943D01*
X38362500Y76593645D01*
X38362500Y76906355D01*
X38301493Y77213057D01*
X38181824Y77501963D01*
X38008092Y77761972D01*
X37786972Y77983092D01*
X37526963Y78156824D01*
X37238057Y78276493D01*
X37235951Y78276912D01*
X37296539Y78337500D01*
X39334215Y78337500D01*
X39381000Y78332892D01*
X39427785Y78337500D01*
X39567723Y78351283D01*
X39747269Y78405748D01*
X39912741Y78494194D01*
X40057778Y78613222D01*
X40087607Y78649569D01*
X40526500Y79088462D01*
X42177500Y77437462D01*
X42177500Y76499072D01*
X42109000Y76499072D01*
X41984518Y76486812D01*
X41864820Y76450502D01*
X41754506Y76391537D01*
X41657815Y76312185D01*
X41578463Y76215494D01*
X41519498Y76105180D01*
X41515468Y76091896D01*
X41454522Y76257860D01*
X41162179Y76400348D01*
X40847656Y76483064D01*
X40523038Y76502831D01*
X40200802Y76458888D01*
X39893330Y76352924D01*
X39715478Y76257860D01*
X39617782Y75991823D01*
X40585000Y75024605D01*
X40599143Y75038747D01*
X40778748Y74859142D01*
X40764605Y74845000D01*
X40778748Y74830857D01*
X40599143Y74651252D01*
X40585000Y74665395D01*
X39617782Y73698177D01*
X39715478Y73432140D01*
X40007821Y73289652D01*
X40322344Y73206936D01*
X40646962Y73187169D01*
X40969198Y73231112D01*
X41276670Y73337076D01*
X41454522Y73432140D01*
X41515468Y73598104D01*
X41519498Y73584820D01*
X41578463Y73474506D01*
X41657815Y73377815D01*
X41754506Y73298463D01*
X41864820Y73239498D01*
X41984518Y73203188D01*
X42109000Y73190928D01*
X44141000Y73190928D01*
X44265482Y73203188D01*
X44385180Y73239498D01*
X44495494Y73298463D01*
X44592185Y73377815D01*
X44671537Y73474506D01*
X44730502Y73584820D01*
X44766812Y73704518D01*
X44779072Y73829000D01*
X44779072Y75861000D01*
X44766812Y75985482D01*
X44730502Y76105180D01*
X44671537Y76215494D01*
X44592185Y76312185D01*
X44495494Y76391537D01*
X44385180Y76450502D01*
X44265482Y76486812D01*
X44141000Y76499072D01*
X44082500Y76499072D01*
X44082500Y77785216D01*
X44087108Y77832001D01*
X44068717Y78018723D01*
X44043432Y78102076D01*
X44014252Y78198269D01*
X43925806Y78363741D01*
X43806778Y78508778D01*
X43770431Y78538607D01*
X41542500Y80766538D01*
X41542500Y80800800D01*
X41564296Y80815364D01*
X41583463Y80779506D01*
X41662815Y80682815D01*
X41759506Y80603463D01*
X41869820Y80544498D01*
X41989518Y80508188D01*
X42114000Y80495928D01*
X44146000Y80495928D01*
X44270482Y80508188D01*
X44390180Y80544498D01*
X44500494Y80603463D01*
X44597185Y80682815D01*
X44676537Y80779506D01*
X44735502Y80889820D01*
X44771812Y81009518D01*
X44784072Y81134000D01*
X44784072Y83166000D01*
X44771812Y83290482D01*
X44735502Y83410180D01*
X44676537Y83520494D01*
X44597185Y83617185D01*
X44500494Y83696537D01*
X44390180Y83755502D01*
X44270482Y83791812D01*
X44146000Y83804072D01*
X44082500Y83804072D01*
X44082500Y84168462D01*
X45606501Y82644460D01*
G36*
X6336908Y83678028D02*
G01*
X6558028Y83456908D01*
X6818037Y83283176D01*
X7106943Y83163507D01*
X7413645Y83102500D01*
X7726355Y83102500D01*
X7796508Y83116454D01*
X8580393Y82332569D01*
X8610222Y82296222D01*
X8755259Y82177194D01*
X8816308Y82144563D01*
X8920730Y82088748D01*
X8999749Y82064778D01*
X9100277Y82034283D01*
X9240215Y82020500D01*
X9287000Y82015892D01*
X9333785Y82020500D01*
X11077832Y82020500D01*
X10927156Y81896844D01*
X10736710Y81664785D01*
X10595196Y81400031D01*
X10508052Y81112756D01*
X10486000Y80888859D01*
X10486000Y80231142D01*
X10508052Y80007245D01*
X10595196Y79719970D01*
X10736710Y79455216D01*
X10927156Y79223156D01*
X11062501Y79112082D01*
X11062500Y77337539D01*
X7139600Y73414638D01*
X7082042Y73453097D01*
X6781579Y73577553D01*
X6462609Y73641000D01*
X6137391Y73641000D01*
X5818421Y73577553D01*
X5517958Y73453097D01*
X5247549Y73272415D01*
X5017585Y73042451D01*
X4836903Y72772042D01*
X4712447Y72471579D01*
X4649000Y72152609D01*
X4649000Y71827391D01*
X4712447Y71508421D01*
X4836903Y71207958D01*
X5017585Y70937549D01*
X5247549Y70707585D01*
X5517958Y70526903D01*
X5818421Y70402447D01*
X6137391Y70339000D01*
X6462609Y70339000D01*
X6781579Y70402447D01*
X7082042Y70526903D01*
X7352451Y70707585D01*
X7582415Y70937549D01*
X7763097Y71207958D01*
X7859335Y71440297D01*
X12655436Y76236397D01*
X12691778Y76266222D01*
X12810806Y76411259D01*
X12859752Y76502831D01*
X12899252Y76576730D01*
X12953717Y76756278D01*
X12972108Y76943000D01*
X12967500Y76989785D01*
X12967500Y79120289D01*
X13092844Y79223156D01*
X13280000Y79451207D01*
X13467156Y79223156D01*
X13699215Y79032710D01*
X13963969Y78891196D01*
X14251244Y78804052D01*
X14550000Y78774627D01*
X14848755Y78804052D01*
X15136030Y78891196D01*
X15400784Y79032710D01*
X15632844Y79223156D01*
X15820000Y79451207D01*
X16007156Y79223156D01*
X16142501Y79112081D01*
X16142500Y74387918D01*
X16007156Y74276844D01*
X15820000Y74048794D01*
X15632844Y74276844D01*
X15400785Y74467290D01*
X15136031Y74608804D01*
X14848756Y74695948D01*
X14550000Y74725373D01*
X14251245Y74695948D01*
X13963970Y74608804D01*
X13699216Y74467290D01*
X13467156Y74276844D01*
X13280000Y74048794D01*
X13092844Y74276844D01*
X12860785Y74467290D01*
X12596031Y74608804D01*
X12308756Y74695948D01*
X12010000Y74725373D01*
X11711245Y74695948D01*
X11423970Y74608804D01*
X11159216Y74467290D01*
X10927156Y74276844D01*
X10736710Y74044785D01*
X10595196Y73780031D01*
X10508052Y73492756D01*
X10486000Y73268859D01*
X10486000Y72611142D01*
X10508052Y72387245D01*
X10595196Y72099970D01*
X10703085Y71898124D01*
X8572462Y69767500D01*
X6722366Y69767500D01*
X6712451Y69777415D01*
X6442042Y69958097D01*
X6141579Y70082553D01*
X5822609Y70146000D01*
X5497391Y70146000D01*
X5178421Y70082553D01*
X4877958Y69958097D01*
X4607549Y69777415D01*
X4390000Y69559866D01*
X4172451Y69777415D01*
X3902042Y69958097D01*
X3601579Y70082553D01*
X3442500Y70114196D01*
X3442500Y70640800D01*
X3542451Y70707585D01*
X3772415Y70937549D01*
X3953097Y71207958D01*
X4077553Y71508421D01*
X4141000Y71827391D01*
X4141000Y72152609D01*
X4077553Y72471579D01*
X3953097Y72772042D01*
X3772415Y73042451D01*
X3542451Y73272415D01*
X3272042Y73453097D01*
X2971579Y73577553D01*
X2652609Y73641000D01*
X2327391Y73641000D01*
X2008421Y73577553D01*
X1707958Y73453097D01*
X1437549Y73272415D01*
X1207585Y73042451D01*
X1075500Y72844772D01*
X1075500Y78463177D01*
X1522782Y78463177D01*
X1620478Y78197140D01*
X1912821Y78054652D01*
X2227344Y77971936D01*
X2551962Y77952169D01*
X2874198Y77996112D01*
X3181670Y78102076D01*
X3359522Y78197140D01*
X3457218Y78463177D01*
X2490000Y79430395D01*
X1522782Y78463177D01*
X1075500Y78463177D01*
X1075500Y78743546D01*
X1077140Y78740478D01*
X1343177Y78642782D01*
X2310395Y79610000D01*
X2669605Y79610000D01*
X3636823Y78642782D01*
X3902860Y78740478D01*
X4045348Y79032821D01*
X4128064Y79347344D01*
X4147831Y79671962D01*
X4134106Y79772609D01*
X4649000Y79772609D01*
X4649000Y79447391D01*
X4712447Y79128421D01*
X4836903Y78827958D01*
X5017585Y78557549D01*
X5247549Y78327585D01*
X5517958Y78146903D01*
X5818421Y78022447D01*
X6137391Y77959000D01*
X6462609Y77959000D01*
X6781579Y78022447D01*
X7082042Y78146903D01*
X7352451Y78327585D01*
X7582415Y78557549D01*
X7763097Y78827958D01*
X7887553Y79128421D01*
X7951000Y79447391D01*
X7951000Y79772609D01*
X7887553Y80091579D01*
X7763097Y80392042D01*
X7582415Y80662451D01*
X7352451Y80892415D01*
X7082042Y81073097D01*
X6781579Y81197553D01*
X6462609Y81261000D01*
X6137391Y81261000D01*
X5818421Y81197553D01*
X5517958Y81073097D01*
X5247549Y80892415D01*
X5017585Y80662451D01*
X4836903Y80392042D01*
X4712447Y80091579D01*
X4649000Y79772609D01*
X4134106Y79772609D01*
X4103888Y79994198D01*
X3997924Y80301670D01*
X3902860Y80479522D01*
X3636823Y80577218D01*
X2669605Y79610000D01*
X2310395Y79610000D01*
X1343177Y80577218D01*
X1077140Y80479522D01*
X1075500Y80476157D01*
X1075500Y80756823D01*
X1522782Y80756823D01*
X2490000Y79789605D01*
X3457218Y80756823D01*
X3359522Y81022860D01*
X3067179Y81165348D01*
X2752656Y81248064D01*
X2428038Y81267831D01*
X2105802Y81223888D01*
X1798330Y81117924D01*
X1620478Y81022860D01*
X1522782Y80756823D01*
X1075500Y80756823D01*
X1075500Y82565228D01*
X1207585Y82367549D01*
X1437549Y82137585D01*
X1707958Y81956903D01*
X2008421Y81832447D01*
X2327391Y81769000D01*
X2652609Y81769000D01*
X2971579Y81832447D01*
X3272042Y81956903D01*
X3542451Y82137585D01*
X3772415Y82367549D01*
X3839200Y82467500D01*
X4475215Y82467500D01*
X4522000Y82462892D01*
X4568785Y82467500D01*
X4708723Y82481283D01*
X4888269Y82535748D01*
X5053741Y82624194D01*
X5198778Y82743222D01*
X5228607Y82779569D01*
X6186539Y83737500D01*
X6297170Y83737500D01*
X6336908Y83678028D01*
X6336908Y83678028D01*
G37*
X6336908Y83678028D02*
X6558028Y83456908D01*
X6818037Y83283176D01*
X7106943Y83163507D01*
X7413645Y83102500D01*
X7726355Y83102500D01*
X7796508Y83116454D01*
X8580393Y82332569D01*
X8610222Y82296222D01*
X8755259Y82177194D01*
X8816308Y82144563D01*
X8920730Y82088748D01*
X8999749Y82064778D01*
X9100277Y82034283D01*
X9240215Y82020500D01*
X9287000Y82015892D01*
X9333785Y82020500D01*
X11077832Y82020500D01*
X10927156Y81896844D01*
X10736710Y81664785D01*
X10595196Y81400031D01*
X10508052Y81112756D01*
X10486000Y80888859D01*
X10486000Y80231142D01*
X10508052Y80007245D01*
X10595196Y79719970D01*
X10736710Y79455216D01*
X10927156Y79223156D01*
X11062501Y79112082D01*
X11062500Y77337539D01*
X7139600Y73414638D01*
X7082042Y73453097D01*
X6781579Y73577553D01*
X6462609Y73641000D01*
X6137391Y73641000D01*
X5818421Y73577553D01*
X5517958Y73453097D01*
X5247549Y73272415D01*
X5017585Y73042451D01*
X4836903Y72772042D01*
X4712447Y72471579D01*
X4649000Y72152609D01*
X4649000Y71827391D01*
X4712447Y71508421D01*
X4836903Y71207958D01*
X5017585Y70937549D01*
X5247549Y70707585D01*
X5517958Y70526903D01*
X5818421Y70402447D01*
X6137391Y70339000D01*
X6462609Y70339000D01*
X6781579Y70402447D01*
X7082042Y70526903D01*
X7352451Y70707585D01*
X7582415Y70937549D01*
X7763097Y71207958D01*
X7859335Y71440297D01*
X12655436Y76236397D01*
X12691778Y76266222D01*
X12810806Y76411259D01*
X12859752Y76502831D01*
X12899252Y76576730D01*
X12953717Y76756278D01*
X12972108Y76943000D01*
X12967500Y76989785D01*
X12967500Y79120289D01*
X13092844Y79223156D01*
X13280000Y79451207D01*
X13467156Y79223156D01*
X13699215Y79032710D01*
X13963969Y78891196D01*
X14251244Y78804052D01*
X14550000Y78774627D01*
X14848755Y78804052D01*
X15136030Y78891196D01*
X15400784Y79032710D01*
X15632844Y79223156D01*
X15820000Y79451207D01*
X16007156Y79223156D01*
X16142501Y79112081D01*
X16142500Y74387918D01*
X16007156Y74276844D01*
X15820000Y74048794D01*
X15632844Y74276844D01*
X15400785Y74467290D01*
X15136031Y74608804D01*
X14848756Y74695948D01*
X14550000Y74725373D01*
X14251245Y74695948D01*
X13963970Y74608804D01*
X13699216Y74467290D01*
X13467156Y74276844D01*
X13280000Y74048794D01*
X13092844Y74276844D01*
X12860785Y74467290D01*
X12596031Y74608804D01*
X12308756Y74695948D01*
X12010000Y74725373D01*
X11711245Y74695948D01*
X11423970Y74608804D01*
X11159216Y74467290D01*
X10927156Y74276844D01*
X10736710Y74044785D01*
X10595196Y73780031D01*
X10508052Y73492756D01*
X10486000Y73268859D01*
X10486000Y72611142D01*
X10508052Y72387245D01*
X10595196Y72099970D01*
X10703085Y71898124D01*
X8572462Y69767500D01*
X6722366Y69767500D01*
X6712451Y69777415D01*
X6442042Y69958097D01*
X6141579Y70082553D01*
X5822609Y70146000D01*
X5497391Y70146000D01*
X5178421Y70082553D01*
X4877958Y69958097D01*
X4607549Y69777415D01*
X4390000Y69559866D01*
X4172451Y69777415D01*
X3902042Y69958097D01*
X3601579Y70082553D01*
X3442500Y70114196D01*
X3442500Y70640800D01*
X3542451Y70707585D01*
X3772415Y70937549D01*
X3953097Y71207958D01*
X4077553Y71508421D01*
X4141000Y71827391D01*
X4141000Y72152609D01*
X4077553Y72471579D01*
X3953097Y72772042D01*
X3772415Y73042451D01*
X3542451Y73272415D01*
X3272042Y73453097D01*
X2971579Y73577553D01*
X2652609Y73641000D01*
X2327391Y73641000D01*
X2008421Y73577553D01*
X1707958Y73453097D01*
X1437549Y73272415D01*
X1207585Y73042451D01*
X1075500Y72844772D01*
X1075500Y78463177D01*
X1522782Y78463177D01*
X1620478Y78197140D01*
X1912821Y78054652D01*
X2227344Y77971936D01*
X2551962Y77952169D01*
X2874198Y77996112D01*
X3181670Y78102076D01*
X3359522Y78197140D01*
X3457218Y78463177D01*
X2490000Y79430395D01*
X1522782Y78463177D01*
X1075500Y78463177D01*
X1075500Y78743546D01*
X1077140Y78740478D01*
X1343177Y78642782D01*
X2310395Y79610000D01*
X2669605Y79610000D01*
X3636823Y78642782D01*
X3902860Y78740478D01*
X4045348Y79032821D01*
X4128064Y79347344D01*
X4147831Y79671962D01*
X4134106Y79772609D01*
X4649000Y79772609D01*
X4649000Y79447391D01*
X4712447Y79128421D01*
X4836903Y78827958D01*
X5017585Y78557549D01*
X5247549Y78327585D01*
X5517958Y78146903D01*
X5818421Y78022447D01*
X6137391Y77959000D01*
X6462609Y77959000D01*
X6781579Y78022447D01*
X7082042Y78146903D01*
X7352451Y78327585D01*
X7582415Y78557549D01*
X7763097Y78827958D01*
X7887553Y79128421D01*
X7951000Y79447391D01*
X7951000Y79772609D01*
X7887553Y80091579D01*
X7763097Y80392042D01*
X7582415Y80662451D01*
X7352451Y80892415D01*
X7082042Y81073097D01*
X6781579Y81197553D01*
X6462609Y81261000D01*
X6137391Y81261000D01*
X5818421Y81197553D01*
X5517958Y81073097D01*
X5247549Y80892415D01*
X5017585Y80662451D01*
X4836903Y80392042D01*
X4712447Y80091579D01*
X4649000Y79772609D01*
X4134106Y79772609D01*
X4103888Y79994198D01*
X3997924Y80301670D01*
X3902860Y80479522D01*
X3636823Y80577218D01*
X2669605Y79610000D01*
X2310395Y79610000D01*
X1343177Y80577218D01*
X1077140Y80479522D01*
X1075500Y80476157D01*
X1075500Y80756823D01*
X1522782Y80756823D01*
X2490000Y79789605D01*
X3457218Y80756823D01*
X3359522Y81022860D01*
X3067179Y81165348D01*
X2752656Y81248064D01*
X2428038Y81267831D01*
X2105802Y81223888D01*
X1798330Y81117924D01*
X1620478Y81022860D01*
X1522782Y80756823D01*
X1075500Y80756823D01*
X1075500Y82565228D01*
X1207585Y82367549D01*
X1437549Y82137585D01*
X1707958Y81956903D01*
X2008421Y81832447D01*
X2327391Y81769000D01*
X2652609Y81769000D01*
X2971579Y81832447D01*
X3272042Y81956903D01*
X3542451Y82137585D01*
X3772415Y82367549D01*
X3839200Y82467500D01*
X4475215Y82467500D01*
X4522000Y82462892D01*
X4568785Y82467500D01*
X4708723Y82481283D01*
X4888269Y82535748D01*
X5053741Y82624194D01*
X5198778Y82743222D01*
X5228607Y82779569D01*
X6186539Y83737500D01*
X6297170Y83737500D01*
X6336908Y83678028D01*
G36*
X21087156Y79223156D02*
G01*
X21222501Y79112081D01*
X21222501Y78442794D01*
X21217892Y78396000D01*
X21236283Y78209278D01*
X21290749Y78029731D01*
X21371431Y77878785D01*
X21379195Y77864259D01*
X21498223Y77719222D01*
X21534564Y77689398D01*
X22860397Y76363564D01*
X22890222Y76327222D01*
X23035259Y76208194D01*
X23200731Y76119748D01*
X23380277Y76065283D01*
X23566999Y76046892D01*
X23613784Y76051500D01*
X25425215Y76051500D01*
X25285277Y76037717D01*
X25195504Y76010484D01*
X25105730Y75983252D01*
X25022995Y75939029D01*
X24940259Y75894806D01*
X24795222Y75775778D01*
X24765393Y75739431D01*
X24074565Y75048603D01*
X24038223Y75018778D01*
X24008399Y74982437D01*
X23919194Y74873740D01*
X23830749Y74708269D01*
X23776283Y74528722D01*
X23762407Y74387841D01*
X23627156Y74276844D01*
X23440000Y74048794D01*
X23252844Y74276844D01*
X23020785Y74467290D01*
X22756031Y74608804D01*
X22468756Y74695948D01*
X22170000Y74725373D01*
X21871245Y74695948D01*
X21583970Y74608804D01*
X21319216Y74467290D01*
X21087156Y74276844D01*
X20896710Y74044785D01*
X20894686Y74040998D01*
X20826602Y74146285D01*
X20617828Y74361433D01*
X20371092Y74531717D01*
X20095876Y74650593D01*
X19993013Y74674134D01*
X19757000Y74553330D01*
X19757000Y73067000D01*
X19777000Y73067000D01*
X19777000Y72813000D01*
X19757000Y72813000D01*
X19757000Y72793000D01*
X19503000Y72793000D01*
X19503000Y72813000D01*
X19483000Y72813000D01*
X19483000Y73067000D01*
X19503000Y73067000D01*
X19503000Y74553330D01*
X19266987Y74674134D01*
X19164124Y74650593D01*
X18888908Y74531717D01*
X18642172Y74361433D01*
X18433398Y74146285D01*
X18365314Y74040998D01*
X18363290Y74044785D01*
X18172844Y74276844D01*
X18047500Y74379711D01*
X18047500Y79120289D01*
X18172844Y79223156D01*
X18360000Y79451207D01*
X18547156Y79223156D01*
X18779215Y79032710D01*
X19043969Y78891196D01*
X19331244Y78804052D01*
X19630000Y78774627D01*
X19928755Y78804052D01*
X20216030Y78891196D01*
X20480784Y79032710D01*
X20712844Y79223156D01*
X20900000Y79451207D01*
X21087156Y79223156D01*
X21087156Y79223156D01*
G37*
X21087156Y79223156D02*
X21222501Y79112081D01*
X21222501Y78442794D01*
X21217892Y78396000D01*
X21236283Y78209278D01*
X21290749Y78029731D01*
X21371431Y77878785D01*
X21379195Y77864259D01*
X21498223Y77719222D01*
X21534564Y77689398D01*
X22860397Y76363564D01*
X22890222Y76327222D01*
X23035259Y76208194D01*
X23200731Y76119748D01*
X23380277Y76065283D01*
X23566999Y76046892D01*
X23613784Y76051500D01*
X25425215Y76051500D01*
X25285277Y76037717D01*
X25195504Y76010484D01*
X25105730Y75983252D01*
X25022995Y75939029D01*
X24940259Y75894806D01*
X24795222Y75775778D01*
X24765393Y75739431D01*
X24074565Y75048603D01*
X24038223Y75018778D01*
X24008399Y74982437D01*
X23919194Y74873740D01*
X23830749Y74708269D01*
X23776283Y74528722D01*
X23762407Y74387841D01*
X23627156Y74276844D01*
X23440000Y74048794D01*
X23252844Y74276844D01*
X23020785Y74467290D01*
X22756031Y74608804D01*
X22468756Y74695948D01*
X22170000Y74725373D01*
X21871245Y74695948D01*
X21583970Y74608804D01*
X21319216Y74467290D01*
X21087156Y74276844D01*
X20896710Y74044785D01*
X20894686Y74040998D01*
X20826602Y74146285D01*
X20617828Y74361433D01*
X20371092Y74531717D01*
X20095876Y74650593D01*
X19993013Y74674134D01*
X19757000Y74553330D01*
X19757000Y73067000D01*
X19777000Y73067000D01*
X19777000Y72813000D01*
X19757000Y72813000D01*
X19757000Y72793000D01*
X19503000Y72793000D01*
X19503000Y72813000D01*
X19483000Y72813000D01*
X19483000Y73067000D01*
X19503000Y73067000D01*
X19503000Y74553330D01*
X19266987Y74674134D01*
X19164124Y74650593D01*
X18888908Y74531717D01*
X18642172Y74361433D01*
X18433398Y74146285D01*
X18365314Y74040998D01*
X18363290Y74044785D01*
X18172844Y74276844D01*
X18047500Y74379711D01*
X18047500Y79120289D01*
X18172844Y79223156D01*
X18360000Y79451207D01*
X18547156Y79223156D01*
X18779215Y79032710D01*
X19043969Y78891196D01*
X19331244Y78804052D01*
X19630000Y78774627D01*
X19928755Y78804052D01*
X20216030Y78891196D01*
X20480784Y79032710D01*
X20712844Y79223156D01*
X20900000Y79451207D01*
X21087156Y79223156D01*
G36*
X19227748Y99294987D02*
G01*
X19000013Y99067252D01*
X18821082Y98799463D01*
X18697832Y98501912D01*
X18635000Y98186033D01*
X18635000Y97863967D01*
X18697832Y97548088D01*
X18821082Y97250537D01*
X19000013Y96982748D01*
X19227748Y96755013D01*
X19317500Y96695042D01*
X19317501Y95501981D01*
X19259346Y95454255D01*
X19081595Y95237667D01*
X19002107Y95088955D01*
X18995526Y95105262D01*
X18842125Y95339440D01*
X18645986Y95539192D01*
X18414646Y95696841D01*
X18156996Y95806328D01*
X18077060Y95823010D01*
X17857000Y95700852D01*
X17857000Y94215000D01*
X17877000Y94215000D01*
X17877000Y93961000D01*
X17857000Y93961000D01*
X17857000Y92475148D01*
X18077060Y92352990D01*
X18156996Y92369672D01*
X18414646Y92479159D01*
X18645986Y92636808D01*
X18842125Y92836560D01*
X18995526Y93070738D01*
X19002107Y93087046D01*
X19081595Y92938334D01*
X19259345Y92721746D01*
X19475933Y92543995D01*
X19723037Y92411916D01*
X19991161Y92330581D01*
X20270000Y92303118D01*
X20548838Y92330581D01*
X20816962Y92411916D01*
X21064066Y92543995D01*
X21280654Y92721745D01*
X21458405Y92938333D01*
X21537893Y93087045D01*
X21544474Y93070738D01*
X21697875Y92836560D01*
X21894014Y92636808D01*
X22125354Y92479159D01*
X22383004Y92369672D01*
X22462940Y92352990D01*
X22683000Y92475148D01*
X22683000Y93961000D01*
X22663000Y93961000D01*
X22663000Y94215000D01*
X22683000Y94215000D01*
X22683000Y95700852D01*
X22937000Y95700852D01*
X22937000Y94215000D01*
X22957000Y94215000D01*
X22957000Y93961000D01*
X22937000Y93961000D01*
X22937000Y92475148D01*
X23157060Y92352990D01*
X23236996Y92369672D01*
X23494646Y92479159D01*
X23725986Y92636808D01*
X23922125Y92836560D01*
X23933498Y92853922D01*
X23936788Y92820518D01*
X23973098Y92700820D01*
X24032063Y92590506D01*
X24111415Y92493815D01*
X24208106Y92414463D01*
X24318420Y92355498D01*
X24438118Y92319188D01*
X24562600Y92306928D01*
X26137400Y92306928D01*
X26261882Y92319188D01*
X26381580Y92355498D01*
X26491894Y92414463D01*
X26543159Y92456535D01*
X32043070Y92456535D01*
X32965000Y91534605D01*
X33886930Y92456535D01*
X33796902Y92716081D01*
X33515384Y92852224D01*
X33212714Y92930829D01*
X32900526Y92948877D01*
X32590815Y92905672D01*
X32295484Y92802877D01*
X32133098Y92716081D01*
X32043070Y92456535D01*
X26543159Y92456535D01*
X26588585Y92493815D01*
X26667937Y92590506D01*
X26726902Y92700820D01*
X26763212Y92820518D01*
X26775472Y92945000D01*
X26775472Y93135500D01*
X33647462Y93135500D01*
X35201454Y91581508D01*
X35187500Y91511355D01*
X35187500Y91198645D01*
X35248507Y90891943D01*
X35368176Y90603037D01*
X35541908Y90343028D01*
X35763028Y90121908D01*
X36023037Y89948176D01*
X36311943Y89828507D01*
X36618645Y89767500D01*
X36931355Y89767500D01*
X37238057Y89828507D01*
X37526963Y89948176D01*
X37786972Y90121908D01*
X38008092Y90343028D01*
X38181824Y90603037D01*
X38301493Y90891943D01*
X38362500Y91198645D01*
X38362500Y91511355D01*
X38354451Y91551823D01*
X47242782Y91551823D01*
X48210000Y90584605D01*
X49177218Y91551823D01*
X49079522Y91817860D01*
X48787179Y91960348D01*
X48472656Y92043064D01*
X48148038Y92062831D01*
X47825802Y92018888D01*
X47518330Y91912924D01*
X47340478Y91817860D01*
X47242782Y91551823D01*
X38354451Y91551823D01*
X38301493Y91818057D01*
X38181824Y92106963D01*
X38008092Y92366972D01*
X37786972Y92588092D01*
X37526963Y92761824D01*
X37238057Y92881493D01*
X36931355Y92942500D01*
X36618645Y92942500D01*
X36548492Y92928546D01*
X34748607Y94728431D01*
X34718778Y94764778D01*
X34573741Y94883806D01*
X34408269Y94972252D01*
X34228723Y95026717D01*
X34088785Y95040500D01*
X34042000Y95045108D01*
X33995215Y95040500D01*
X26775472Y95040500D01*
X26775472Y95231000D01*
X26763212Y95355482D01*
X26731423Y95460279D01*
X43115000Y95460279D01*
X43115000Y95039721D01*
X43197047Y94627244D01*
X43357988Y94238698D01*
X43591637Y93889017D01*
X43889017Y93591637D01*
X44238698Y93357988D01*
X44627244Y93197047D01*
X45039721Y93115000D01*
X45460279Y93115000D01*
X45872756Y93197047D01*
X46261302Y93357988D01*
X46610983Y93591637D01*
X46908363Y93889017D01*
X47142012Y94238698D01*
X47302953Y94627244D01*
X47385000Y95039721D01*
X47385000Y95460279D01*
X47302953Y95872756D01*
X47142012Y96261302D01*
X46908363Y96610983D01*
X46610983Y96908363D01*
X46261302Y97142012D01*
X45872756Y97302953D01*
X45460279Y97385000D01*
X45039721Y97385000D01*
X44627244Y97302953D01*
X44238698Y97142012D01*
X43889017Y96908363D01*
X43591637Y96610983D01*
X43357988Y96261302D01*
X43197047Y95872756D01*
X43115000Y95460279D01*
X26731423Y95460279D01*
X26726902Y95475180D01*
X26667937Y95585494D01*
X26588585Y95682185D01*
X26491894Y95761537D01*
X26381580Y95820502D01*
X26261882Y95856812D01*
X26137400Y95869072D01*
X24562600Y95869072D01*
X24438118Y95856812D01*
X24318420Y95820502D01*
X24208106Y95761537D01*
X24111415Y95682185D01*
X24032063Y95585494D01*
X23973098Y95475180D01*
X23936788Y95355482D01*
X23933498Y95322078D01*
X23922125Y95339440D01*
X23725986Y95539192D01*
X23494646Y95696841D01*
X23236996Y95806328D01*
X23157060Y95823010D01*
X22937000Y95700852D01*
X22683000Y95700852D01*
X22462940Y95823010D01*
X22383004Y95806328D01*
X22125354Y95696841D01*
X21894014Y95539192D01*
X21697875Y95339440D01*
X21544474Y95105262D01*
X21537893Y95088955D01*
X21458405Y95237667D01*
X21280655Y95454255D01*
X21222500Y95501982D01*
X21222500Y96695043D01*
X21312252Y96755013D01*
X21539987Y96982748D01*
X21634749Y97124570D01*
X28891498Y97124570D01*
X28903758Y97000088D01*
X28940068Y96880390D01*
X28999033Y96770076D01*
X29078385Y96673385D01*
X29175076Y96594033D01*
X29285390Y96535068D01*
X29405088Y96498758D01*
X29529570Y96486498D01*
X30144250Y96489570D01*
X30303000Y96648320D01*
X30303000Y97898000D01*
X30557000Y97898000D01*
X30557000Y96648320D01*
X30715750Y96489570D01*
X31330430Y96486498D01*
X31454912Y96498758D01*
X31574610Y96535068D01*
X31684924Y96594033D01*
X31781615Y96673385D01*
X31860967Y96770076D01*
X31919932Y96880390D01*
X31956242Y97000088D01*
X31968502Y97124570D01*
X31965430Y97739250D01*
X31806680Y97898000D01*
X30557000Y97898000D01*
X30303000Y97898000D01*
X29053320Y97898000D01*
X28894570Y97739250D01*
X28891498Y97124570D01*
X21634749Y97124570D01*
X21718918Y97250537D01*
X21842168Y97548088D01*
X21905000Y97863967D01*
X21905000Y98186033D01*
X21842168Y98501912D01*
X21718918Y98799463D01*
X21539987Y99067252D01*
X21312252Y99294987D01*
X21118422Y99424500D01*
X29136733Y99424500D01*
X29078385Y99376615D01*
X28999033Y99279924D01*
X28940068Y99169610D01*
X28903758Y99049912D01*
X28891498Y98925430D01*
X28894570Y98310750D01*
X29053320Y98152000D01*
X30303000Y98152000D01*
X30303000Y98172000D01*
X30557000Y98172000D01*
X30557000Y98152000D01*
X31806680Y98152000D01*
X31965430Y98310750D01*
X31968502Y98925430D01*
X31956242Y99049912D01*
X31919932Y99169610D01*
X31860967Y99279924D01*
X31781615Y99376615D01*
X31723267Y99424500D01*
X45213235Y99424500D01*
X45988661Y99355295D01*
X46703971Y99159608D01*
X47373323Y98840343D01*
X47975561Y98407592D01*
X48491644Y97875036D01*
X48905269Y97259496D01*
X49203350Y96580449D01*
X49377996Y95852994D01*
X49424501Y95219718D01*
X49424501Y91347365D01*
X49356823Y91372218D01*
X48389605Y90405000D01*
X49356823Y89437782D01*
X49424501Y89462635D01*
X49424501Y83905365D01*
X49262451Y84067415D01*
X48992042Y84248097D01*
X48691579Y84372553D01*
X48372609Y84436000D01*
X48047391Y84436000D01*
X47728421Y84372553D01*
X47427958Y84248097D01*
X47157549Y84067415D01*
X47017586Y83927452D01*
X44979607Y85965431D01*
X44949778Y86001778D01*
X44804741Y86120806D01*
X44639269Y86209252D01*
X44459723Y86263717D01*
X44319785Y86277500D01*
X44273000Y86282108D01*
X44226215Y86277500D01*
X44082500Y86277500D01*
X44082500Y87879215D01*
X44087108Y87926000D01*
X44082500Y87972785D01*
X44082500Y88115928D01*
X44146000Y88115928D01*
X44270482Y88128188D01*
X44390180Y88164498D01*
X44500494Y88223463D01*
X44597185Y88302815D01*
X44676537Y88399506D01*
X44735502Y88509820D01*
X44771812Y88629518D01*
X44784072Y88754000D01*
X44784072Y89258177D01*
X47242782Y89258177D01*
X47340478Y88992140D01*
X47632821Y88849652D01*
X47947344Y88766936D01*
X48271962Y88747169D01*
X48594198Y88791112D01*
X48901670Y88897076D01*
X49079522Y88992140D01*
X49177218Y89258177D01*
X48210000Y90225395D01*
X47242782Y89258177D01*
X44784072Y89258177D01*
X44784072Y90343038D01*
X46552169Y90343038D01*
X46596112Y90020802D01*
X46702076Y89713330D01*
X46797140Y89535478D01*
X47063177Y89437782D01*
X48030395Y90405000D01*
X47063177Y91372218D01*
X46797140Y91274522D01*
X46654652Y90982179D01*
X46571936Y90667656D01*
X46552169Y90343038D01*
X44784072Y90343038D01*
X44784072Y90786000D01*
X44771812Y90910482D01*
X44735502Y91030180D01*
X44676537Y91140494D01*
X44597185Y91237185D01*
X44500494Y91316537D01*
X44390180Y91375502D01*
X44270482Y91411812D01*
X44146000Y91424072D01*
X42114000Y91424072D01*
X41989518Y91411812D01*
X41869820Y91375502D01*
X41759506Y91316537D01*
X41662815Y91237185D01*
X41583463Y91140494D01*
X41524498Y91030180D01*
X41520468Y91016896D01*
X41459522Y91182860D01*
X41167179Y91325348D01*
X40852656Y91408064D01*
X40528038Y91427831D01*
X40205802Y91383888D01*
X39898330Y91277924D01*
X39720478Y91182860D01*
X39622782Y90916823D01*
X40590000Y89949605D01*
X40604143Y89963747D01*
X40783748Y89784142D01*
X40769605Y89770000D01*
X40783748Y89755857D01*
X40604143Y89576252D01*
X40590000Y89590395D01*
X40575858Y89576252D01*
X40396253Y89755857D01*
X40410395Y89770000D01*
X39443177Y90737218D01*
X39177140Y90639522D01*
X39034652Y90347179D01*
X38951936Y90032656D01*
X38932169Y89708038D01*
X38976112Y89385802D01*
X39082076Y89078330D01*
X39177140Y88900478D01*
X39236989Y88878500D01*
X33740538Y88878500D01*
X32847388Y89771650D01*
X33029474Y89761123D01*
X33339185Y89804328D01*
X33634516Y89907123D01*
X33796902Y89993919D01*
X33886930Y90253465D01*
X32965000Y91175395D01*
X32950858Y91161252D01*
X32771253Y91340857D01*
X32785395Y91355000D01*
X33144605Y91355000D01*
X34066535Y90433070D01*
X34326081Y90523098D01*
X34462224Y90804616D01*
X34540829Y91107286D01*
X34558877Y91419474D01*
X34515672Y91729185D01*
X34412877Y92024516D01*
X34326081Y92186902D01*
X34066535Y92276930D01*
X33144605Y91355000D01*
X32785395Y91355000D01*
X31863465Y92276930D01*
X31603919Y92186902D01*
X31467776Y91905384D01*
X31389171Y91602714D01*
X31371123Y91290526D01*
X31414328Y90980815D01*
X31517123Y90685484D01*
X31603919Y90523098D01*
X31863463Y90433071D01*
X31747667Y90317275D01*
X31789442Y90275500D01*
X21962785Y90275500D01*
X21916000Y90280108D01*
X21869215Y90275500D01*
X21729277Y90261717D01*
X21549731Y90207252D01*
X21384259Y90118806D01*
X21239222Y89999778D01*
X21209393Y89963431D01*
X19629565Y88383603D01*
X19593223Y88353778D01*
X19563399Y88317437D01*
X19474194Y88208740D01*
X19385749Y88043269D01*
X19343227Y87903094D01*
X19259346Y87834255D01*
X19081595Y87617667D01*
X19000000Y87465013D01*
X18918405Y87617667D01*
X18740655Y87834255D01*
X18682500Y87881982D01*
X18682500Y90866216D01*
X18687108Y90913001D01*
X18668717Y91099723D01*
X18645762Y91175395D01*
X18614252Y91279269D01*
X18525806Y91444741D01*
X18406778Y91589778D01*
X18370436Y91619603D01*
X17546342Y92443697D01*
X17603000Y92475148D01*
X17603000Y93961000D01*
X16307600Y93961000D01*
X16307600Y93682438D01*
X15419438Y94570600D01*
X16307600Y94570600D01*
X16307600Y94215000D01*
X17603000Y94215000D01*
X17603000Y95700852D01*
X17382940Y95823010D01*
X17303004Y95806328D01*
X17045354Y95696841D01*
X16814014Y95539192D01*
X16617875Y95339440D01*
X16464474Y95105262D01*
X16359707Y94845656D01*
X16307600Y94570600D01*
X15419438Y94570600D01*
X15261607Y94728431D01*
X15231778Y94764778D01*
X15142273Y94838232D01*
X15129097Y94870042D01*
X14948415Y95140451D01*
X14718451Y95370415D01*
X14448042Y95551097D01*
X14147579Y95675553D01*
X13828609Y95739000D01*
X13503391Y95739000D01*
X13184421Y95675553D01*
X12883958Y95551097D01*
X12613549Y95370415D01*
X12383585Y95140451D01*
X12316800Y95040500D01*
X9648785Y95040500D01*
X9602000Y95045108D01*
X9555215Y95040500D01*
X9415277Y95026717D01*
X9235731Y94972252D01*
X9070259Y94883806D01*
X8925222Y94764778D01*
X8895397Y94728436D01*
X6929564Y92762602D01*
X6893223Y92732778D01*
X6863399Y92696437D01*
X6774194Y92587740D01*
X6685749Y92422269D01*
X6631283Y92242722D01*
X6612892Y92056000D01*
X6617501Y92009206D01*
X6617501Y91042830D01*
X6558028Y91003092D01*
X6336908Y90781972D01*
X6163176Y90521963D01*
X6043507Y90233057D01*
X5982500Y89926355D01*
X5982500Y89613645D01*
X6043507Y89306943D01*
X6163176Y89018037D01*
X6336908Y88758028D01*
X6558028Y88536908D01*
X6818037Y88363176D01*
X7106943Y88243507D01*
X7413645Y88182500D01*
X7726355Y88182500D01*
X8033057Y88243507D01*
X8321963Y88363176D01*
X8581972Y88536908D01*
X8774529Y88729465D01*
X9945070Y88729465D01*
X10035098Y88469919D01*
X10316616Y88333776D01*
X10619286Y88255171D01*
X10931474Y88237123D01*
X11241185Y88280328D01*
X11536516Y88383123D01*
X11698902Y88469919D01*
X11788930Y88729465D01*
X10867000Y89651395D01*
X9945070Y88729465D01*
X8774529Y88729465D01*
X8803092Y88758028D01*
X8976824Y89018037D01*
X9096493Y89306943D01*
X9157500Y89613645D01*
X9157500Y89766526D01*
X9273123Y89766526D01*
X9316328Y89456815D01*
X9419123Y89161484D01*
X9505919Y88999098D01*
X9765465Y88909070D01*
X10687395Y89831000D01*
X11046605Y89831000D01*
X11968535Y88909070D01*
X12228081Y88999098D01*
X12364224Y89280616D01*
X12442829Y89583286D01*
X12460877Y89895474D01*
X12417672Y90205185D01*
X12314877Y90500516D01*
X12228081Y90662902D01*
X11968535Y90752930D01*
X11046605Y89831000D01*
X10687395Y89831000D01*
X9765465Y90752930D01*
X9505919Y90662902D01*
X9369776Y90381384D01*
X9291171Y90078714D01*
X9273123Y89766526D01*
X9157500Y89766526D01*
X9157500Y89926355D01*
X9096493Y90233057D01*
X8976824Y90521963D01*
X8803092Y90781972D01*
X8652529Y90932535D01*
X9945070Y90932535D01*
X10867000Y90010605D01*
X11788930Y90932535D01*
X11698902Y91192081D01*
X11417384Y91328224D01*
X11114714Y91406829D01*
X10802526Y91424877D01*
X10492815Y91381672D01*
X10197484Y91278877D01*
X10035098Y91192081D01*
X9945070Y90932535D01*
X8652529Y90932535D01*
X8581972Y91003092D01*
X8522500Y91042830D01*
X8522500Y91661462D01*
X9996539Y93135500D01*
X12316800Y93135500D01*
X12383585Y93035549D01*
X12613549Y92805585D01*
X12883958Y92624903D01*
X13184421Y92500447D01*
X13503391Y92437000D01*
X13828609Y92437000D01*
X14147579Y92500447D01*
X14448042Y92624903D01*
X14581731Y92714231D01*
X16777500Y90518461D01*
X16777501Y87881982D01*
X16719346Y87834255D01*
X16541595Y87617667D01*
X16409516Y87370563D01*
X16328181Y87102439D01*
X16307600Y86893475D01*
X16307600Y86042526D01*
X16328181Y85833562D01*
X16406160Y85576500D01*
X15055959Y85576500D01*
X15129097Y85685958D01*
X15253553Y85986421D01*
X15317000Y86305391D01*
X15317000Y86630609D01*
X15253553Y86949579D01*
X15129097Y87250042D01*
X14948415Y87520451D01*
X14718451Y87750415D01*
X14448042Y87931097D01*
X14147579Y88055553D01*
X13828609Y88119000D01*
X13503391Y88119000D01*
X13184421Y88055553D01*
X12883958Y87931097D01*
X12613549Y87750415D01*
X12383585Y87520451D01*
X12202903Y87250042D01*
X12078447Y86949579D01*
X12015000Y86630609D01*
X12015000Y86305391D01*
X12038452Y86187490D01*
X11852645Y86001683D01*
X11618963Y86157824D01*
X11330057Y86277493D01*
X11023355Y86338500D01*
X10710645Y86338500D01*
X10403943Y86277493D01*
X10115037Y86157824D01*
X9855028Y85984092D01*
X9633908Y85762972D01*
X9460176Y85502963D01*
X9340507Y85214057D01*
X9279500Y84907355D01*
X9279500Y84594645D01*
X9340507Y84287943D01*
X9355648Y84251390D01*
X9143546Y84463492D01*
X9157500Y84533645D01*
X9157500Y84846355D01*
X9096493Y85153057D01*
X8976824Y85441963D01*
X8803092Y85701972D01*
X8581972Y85923092D01*
X8321963Y86096824D01*
X8033057Y86216493D01*
X7726355Y86277500D01*
X7413645Y86277500D01*
X7106943Y86216493D01*
X6818037Y86096824D01*
X6558028Y85923092D01*
X6336908Y85701972D01*
X6297170Y85642500D01*
X5838784Y85642500D01*
X5791999Y85647108D01*
X5664631Y85634563D01*
X5605277Y85628717D01*
X5425731Y85574252D01*
X5260259Y85485806D01*
X5115222Y85366778D01*
X5085398Y85330437D01*
X4127462Y84372500D01*
X3839200Y84372500D01*
X3772415Y84472451D01*
X3542451Y84702415D01*
X3272042Y84883097D01*
X2971579Y85007553D01*
X2652609Y85071000D01*
X2327391Y85071000D01*
X2008421Y85007553D01*
X1707958Y84883097D01*
X1437549Y84702415D01*
X1207585Y84472451D01*
X1075500Y84274772D01*
X1075500Y89893177D01*
X1522782Y89893177D01*
X1620478Y89627140D01*
X1912821Y89484652D01*
X2227344Y89401936D01*
X2551962Y89382169D01*
X2874198Y89426112D01*
X3181670Y89532076D01*
X3359522Y89627140D01*
X3457218Y89893177D01*
X2490000Y90860395D01*
X1522782Y89893177D01*
X1075500Y89893177D01*
X1075500Y90173546D01*
X1077140Y90170478D01*
X1343177Y90072782D01*
X2310395Y91040000D01*
X2669605Y91040000D01*
X3636823Y90072782D01*
X3902860Y90170478D01*
X4045348Y90462821D01*
X4128064Y90777344D01*
X4147831Y91101962D01*
X4103888Y91424198D01*
X3997924Y91731670D01*
X3902860Y91909522D01*
X3636823Y92007218D01*
X2669605Y91040000D01*
X2310395Y91040000D01*
X1343177Y92007218D01*
X1077140Y91909522D01*
X1075500Y91906157D01*
X1075500Y92186823D01*
X1522782Y92186823D01*
X2490000Y91219605D01*
X3457218Y92186823D01*
X3359522Y92452860D01*
X3067179Y92595348D01*
X2752656Y92678064D01*
X2428038Y92697831D01*
X2105802Y92653888D01*
X1798330Y92547924D01*
X1620478Y92452860D01*
X1522782Y92186823D01*
X1075500Y92186823D01*
X1075500Y95213235D01*
X1097548Y95460279D01*
X3115000Y95460279D01*
X3115000Y95039721D01*
X3197047Y94627244D01*
X3357988Y94238698D01*
X3591637Y93889017D01*
X3889017Y93591637D01*
X4238698Y93357988D01*
X4627244Y93197047D01*
X5039721Y93115000D01*
X5460279Y93115000D01*
X5872756Y93197047D01*
X6261302Y93357988D01*
X6610983Y93591637D01*
X6908363Y93889017D01*
X7142012Y94238698D01*
X7302953Y94627244D01*
X7385000Y95039721D01*
X7385000Y95460279D01*
X7302953Y95872756D01*
X7142012Y96261302D01*
X6908363Y96610983D01*
X6610983Y96908363D01*
X6261302Y97142012D01*
X5872756Y97302953D01*
X5460279Y97385000D01*
X5039721Y97385000D01*
X4627244Y97302953D01*
X4238698Y97142012D01*
X3889017Y96908363D01*
X3591637Y96610983D01*
X3357988Y96261302D01*
X3197047Y95872756D01*
X3115000Y95460279D01*
X1097548Y95460279D01*
X1144705Y95988661D01*
X1340392Y96703971D01*
X1659657Y97373323D01*
X2092408Y97975561D01*
X2624964Y98491644D01*
X3240504Y98905269D01*
X3919551Y99203350D01*
X4647006Y99377996D01*
X5280268Y99424500D01*
X19421578Y99424500D01*
X19227748Y99294987D01*
X19227748Y99294987D01*
G37*
X19227748Y99294987D02*
X19000013Y99067252D01*
X18821082Y98799463D01*
X18697832Y98501912D01*
X18635000Y98186033D01*
X18635000Y97863967D01*
X18697832Y97548088D01*
X18821082Y97250537D01*
X19000013Y96982748D01*
X19227748Y96755013D01*
X19317500Y96695042D01*
X19317501Y95501981D01*
X19259346Y95454255D01*
X19081595Y95237667D01*
X19002107Y95088955D01*
X18995526Y95105262D01*
X18842125Y95339440D01*
X18645986Y95539192D01*
X18414646Y95696841D01*
X18156996Y95806328D01*
X18077060Y95823010D01*
X17857000Y95700852D01*
X17857000Y94215000D01*
X17877000Y94215000D01*
X17877000Y93961000D01*
X17857000Y93961000D01*
X17857000Y92475148D01*
X18077060Y92352990D01*
X18156996Y92369672D01*
X18414646Y92479159D01*
X18645986Y92636808D01*
X18842125Y92836560D01*
X18995526Y93070738D01*
X19002107Y93087046D01*
X19081595Y92938334D01*
X19259345Y92721746D01*
X19475933Y92543995D01*
X19723037Y92411916D01*
X19991161Y92330581D01*
X20270000Y92303118D01*
X20548838Y92330581D01*
X20816962Y92411916D01*
X21064066Y92543995D01*
X21280654Y92721745D01*
X21458405Y92938333D01*
X21537893Y93087045D01*
X21544474Y93070738D01*
X21697875Y92836560D01*
X21894014Y92636808D01*
X22125354Y92479159D01*
X22383004Y92369672D01*
X22462940Y92352990D01*
X22683000Y92475148D01*
X22683000Y93961000D01*
X22663000Y93961000D01*
X22663000Y94215000D01*
X22683000Y94215000D01*
X22683000Y95700852D01*
X22937000Y95700852D01*
X22937000Y94215000D01*
X22957000Y94215000D01*
X22957000Y93961000D01*
X22937000Y93961000D01*
X22937000Y92475148D01*
X23157060Y92352990D01*
X23236996Y92369672D01*
X23494646Y92479159D01*
X23725986Y92636808D01*
X23922125Y92836560D01*
X23933498Y92853922D01*
X23936788Y92820518D01*
X23973098Y92700820D01*
X24032063Y92590506D01*
X24111415Y92493815D01*
X24208106Y92414463D01*
X24318420Y92355498D01*
X24438118Y92319188D01*
X24562600Y92306928D01*
X26137400Y92306928D01*
X26261882Y92319188D01*
X26381580Y92355498D01*
X26491894Y92414463D01*
X26543159Y92456535D01*
X32043070Y92456535D01*
X32965000Y91534605D01*
X33886930Y92456535D01*
X33796902Y92716081D01*
X33515384Y92852224D01*
X33212714Y92930829D01*
X32900526Y92948877D01*
X32590815Y92905672D01*
X32295484Y92802877D01*
X32133098Y92716081D01*
X32043070Y92456535D01*
X26543159Y92456535D01*
X26588585Y92493815D01*
X26667937Y92590506D01*
X26726902Y92700820D01*
X26763212Y92820518D01*
X26775472Y92945000D01*
X26775472Y93135500D01*
X33647462Y93135500D01*
X35201454Y91581508D01*
X35187500Y91511355D01*
X35187500Y91198645D01*
X35248507Y90891943D01*
X35368176Y90603037D01*
X35541908Y90343028D01*
X35763028Y90121908D01*
X36023037Y89948176D01*
X36311943Y89828507D01*
X36618645Y89767500D01*
X36931355Y89767500D01*
X37238057Y89828507D01*
X37526963Y89948176D01*
X37786972Y90121908D01*
X38008092Y90343028D01*
X38181824Y90603037D01*
X38301493Y90891943D01*
X38362500Y91198645D01*
X38362500Y91511355D01*
X38354451Y91551823D01*
X47242782Y91551823D01*
X48210000Y90584605D01*
X49177218Y91551823D01*
X49079522Y91817860D01*
X48787179Y91960348D01*
X48472656Y92043064D01*
X48148038Y92062831D01*
X47825802Y92018888D01*
X47518330Y91912924D01*
X47340478Y91817860D01*
X47242782Y91551823D01*
X38354451Y91551823D01*
X38301493Y91818057D01*
X38181824Y92106963D01*
X38008092Y92366972D01*
X37786972Y92588092D01*
X37526963Y92761824D01*
X37238057Y92881493D01*
X36931355Y92942500D01*
X36618645Y92942500D01*
X36548492Y92928546D01*
X34748607Y94728431D01*
X34718778Y94764778D01*
X34573741Y94883806D01*
X34408269Y94972252D01*
X34228723Y95026717D01*
X34088785Y95040500D01*
X34042000Y95045108D01*
X33995215Y95040500D01*
X26775472Y95040500D01*
X26775472Y95231000D01*
X26763212Y95355482D01*
X26731423Y95460279D01*
X43115000Y95460279D01*
X43115000Y95039721D01*
X43197047Y94627244D01*
X43357988Y94238698D01*
X43591637Y93889017D01*
X43889017Y93591637D01*
X44238698Y93357988D01*
X44627244Y93197047D01*
X45039721Y93115000D01*
X45460279Y93115000D01*
X45872756Y93197047D01*
X46261302Y93357988D01*
X46610983Y93591637D01*
X46908363Y93889017D01*
X47142012Y94238698D01*
X47302953Y94627244D01*
X47385000Y95039721D01*
X47385000Y95460279D01*
X47302953Y95872756D01*
X47142012Y96261302D01*
X46908363Y96610983D01*
X46610983Y96908363D01*
X46261302Y97142012D01*
X45872756Y97302953D01*
X45460279Y97385000D01*
X45039721Y97385000D01*
X44627244Y97302953D01*
X44238698Y97142012D01*
X43889017Y96908363D01*
X43591637Y96610983D01*
X43357988Y96261302D01*
X43197047Y95872756D01*
X43115000Y95460279D01*
X26731423Y95460279D01*
X26726902Y95475180D01*
X26667937Y95585494D01*
X26588585Y95682185D01*
X26491894Y95761537D01*
X26381580Y95820502D01*
X26261882Y95856812D01*
X26137400Y95869072D01*
X24562600Y95869072D01*
X24438118Y95856812D01*
X24318420Y95820502D01*
X24208106Y95761537D01*
X24111415Y95682185D01*
X24032063Y95585494D01*
X23973098Y95475180D01*
X23936788Y95355482D01*
X23933498Y95322078D01*
X23922125Y95339440D01*
X23725986Y95539192D01*
X23494646Y95696841D01*
X23236996Y95806328D01*
X23157060Y95823010D01*
X22937000Y95700852D01*
X22683000Y95700852D01*
X22462940Y95823010D01*
X22383004Y95806328D01*
X22125354Y95696841D01*
X21894014Y95539192D01*
X21697875Y95339440D01*
X21544474Y95105262D01*
X21537893Y95088955D01*
X21458405Y95237667D01*
X21280655Y95454255D01*
X21222500Y95501982D01*
X21222500Y96695043D01*
X21312252Y96755013D01*
X21539987Y96982748D01*
X21634749Y97124570D01*
X28891498Y97124570D01*
X28903758Y97000088D01*
X28940068Y96880390D01*
X28999033Y96770076D01*
X29078385Y96673385D01*
X29175076Y96594033D01*
X29285390Y96535068D01*
X29405088Y96498758D01*
X29529570Y96486498D01*
X30144250Y96489570D01*
X30303000Y96648320D01*
X30303000Y97898000D01*
X30557000Y97898000D01*
X30557000Y96648320D01*
X30715750Y96489570D01*
X31330430Y96486498D01*
X31454912Y96498758D01*
X31574610Y96535068D01*
X31684924Y96594033D01*
X31781615Y96673385D01*
X31860967Y96770076D01*
X31919932Y96880390D01*
X31956242Y97000088D01*
X31968502Y97124570D01*
X31965430Y97739250D01*
X31806680Y97898000D01*
X30557000Y97898000D01*
X30303000Y97898000D01*
X29053320Y97898000D01*
X28894570Y97739250D01*
X28891498Y97124570D01*
X21634749Y97124570D01*
X21718918Y97250537D01*
X21842168Y97548088D01*
X21905000Y97863967D01*
X21905000Y98186033D01*
X21842168Y98501912D01*
X21718918Y98799463D01*
X21539987Y99067252D01*
X21312252Y99294987D01*
X21118422Y99424500D01*
X29136733Y99424500D01*
X29078385Y99376615D01*
X28999033Y99279924D01*
X28940068Y99169610D01*
X28903758Y99049912D01*
X28891498Y98925430D01*
X28894570Y98310750D01*
X29053320Y98152000D01*
X30303000Y98152000D01*
X30303000Y98172000D01*
X30557000Y98172000D01*
X30557000Y98152000D01*
X31806680Y98152000D01*
X31965430Y98310750D01*
X31968502Y98925430D01*
X31956242Y99049912D01*
X31919932Y99169610D01*
X31860967Y99279924D01*
X31781615Y99376615D01*
X31723267Y99424500D01*
X45213235Y99424500D01*
X45988661Y99355295D01*
X46703971Y99159608D01*
X47373323Y98840343D01*
X47975561Y98407592D01*
X48491644Y97875036D01*
X48905269Y97259496D01*
X49203350Y96580449D01*
X49377996Y95852994D01*
X49424501Y95219718D01*
X49424501Y91347365D01*
X49356823Y91372218D01*
X48389605Y90405000D01*
X49356823Y89437782D01*
X49424501Y89462635D01*
X49424501Y83905365D01*
X49262451Y84067415D01*
X48992042Y84248097D01*
X48691579Y84372553D01*
X48372609Y84436000D01*
X48047391Y84436000D01*
X47728421Y84372553D01*
X47427958Y84248097D01*
X47157549Y84067415D01*
X47017586Y83927452D01*
X44979607Y85965431D01*
X44949778Y86001778D01*
X44804741Y86120806D01*
X44639269Y86209252D01*
X44459723Y86263717D01*
X44319785Y86277500D01*
X44273000Y86282108D01*
X44226215Y86277500D01*
X44082500Y86277500D01*
X44082500Y87879215D01*
X44087108Y87926000D01*
X44082500Y87972785D01*
X44082500Y88115928D01*
X44146000Y88115928D01*
X44270482Y88128188D01*
X44390180Y88164498D01*
X44500494Y88223463D01*
X44597185Y88302815D01*
X44676537Y88399506D01*
X44735502Y88509820D01*
X44771812Y88629518D01*
X44784072Y88754000D01*
X44784072Y89258177D01*
X47242782Y89258177D01*
X47340478Y88992140D01*
X47632821Y88849652D01*
X47947344Y88766936D01*
X48271962Y88747169D01*
X48594198Y88791112D01*
X48901670Y88897076D01*
X49079522Y88992140D01*
X49177218Y89258177D01*
X48210000Y90225395D01*
X47242782Y89258177D01*
X44784072Y89258177D01*
X44784072Y90343038D01*
X46552169Y90343038D01*
X46596112Y90020802D01*
X46702076Y89713330D01*
X46797140Y89535478D01*
X47063177Y89437782D01*
X48030395Y90405000D01*
X47063177Y91372218D01*
X46797140Y91274522D01*
X46654652Y90982179D01*
X46571936Y90667656D01*
X46552169Y90343038D01*
X44784072Y90343038D01*
X44784072Y90786000D01*
X44771812Y90910482D01*
X44735502Y91030180D01*
X44676537Y91140494D01*
X44597185Y91237185D01*
X44500494Y91316537D01*
X44390180Y91375502D01*
X44270482Y91411812D01*
X44146000Y91424072D01*
X42114000Y91424072D01*
X41989518Y91411812D01*
X41869820Y91375502D01*
X41759506Y91316537D01*
X41662815Y91237185D01*
X41583463Y91140494D01*
X41524498Y91030180D01*
X41520468Y91016896D01*
X41459522Y91182860D01*
X41167179Y91325348D01*
X40852656Y91408064D01*
X40528038Y91427831D01*
X40205802Y91383888D01*
X39898330Y91277924D01*
X39720478Y91182860D01*
X39622782Y90916823D01*
X40590000Y89949605D01*
X40604143Y89963747D01*
X40783748Y89784142D01*
X40769605Y89770000D01*
X40783748Y89755857D01*
X40604143Y89576252D01*
X40590000Y89590395D01*
X40575858Y89576252D01*
X40396253Y89755857D01*
X40410395Y89770000D01*
X39443177Y90737218D01*
X39177140Y90639522D01*
X39034652Y90347179D01*
X38951936Y90032656D01*
X38932169Y89708038D01*
X38976112Y89385802D01*
X39082076Y89078330D01*
X39177140Y88900478D01*
X39236989Y88878500D01*
X33740538Y88878500D01*
X32847388Y89771650D01*
X33029474Y89761123D01*
X33339185Y89804328D01*
X33634516Y89907123D01*
X33796902Y89993919D01*
X33886930Y90253465D01*
X32965000Y91175395D01*
X32950858Y91161252D01*
X32771253Y91340857D01*
X32785395Y91355000D01*
X33144605Y91355000D01*
X34066535Y90433070D01*
X34326081Y90523098D01*
X34462224Y90804616D01*
X34540829Y91107286D01*
X34558877Y91419474D01*
X34515672Y91729185D01*
X34412877Y92024516D01*
X34326081Y92186902D01*
X34066535Y92276930D01*
X33144605Y91355000D01*
X32785395Y91355000D01*
X31863465Y92276930D01*
X31603919Y92186902D01*
X31467776Y91905384D01*
X31389171Y91602714D01*
X31371123Y91290526D01*
X31414328Y90980815D01*
X31517123Y90685484D01*
X31603919Y90523098D01*
X31863463Y90433071D01*
X31747667Y90317275D01*
X31789442Y90275500D01*
X21962785Y90275500D01*
X21916000Y90280108D01*
X21869215Y90275500D01*
X21729277Y90261717D01*
X21549731Y90207252D01*
X21384259Y90118806D01*
X21239222Y89999778D01*
X21209393Y89963431D01*
X19629565Y88383603D01*
X19593223Y88353778D01*
X19563399Y88317437D01*
X19474194Y88208740D01*
X19385749Y88043269D01*
X19343227Y87903094D01*
X19259346Y87834255D01*
X19081595Y87617667D01*
X19000000Y87465013D01*
X18918405Y87617667D01*
X18740655Y87834255D01*
X18682500Y87881982D01*
X18682500Y90866216D01*
X18687108Y90913001D01*
X18668717Y91099723D01*
X18645762Y91175395D01*
X18614252Y91279269D01*
X18525806Y91444741D01*
X18406778Y91589778D01*
X18370436Y91619603D01*
X17546342Y92443697D01*
X17603000Y92475148D01*
X17603000Y93961000D01*
X16307600Y93961000D01*
X16307600Y93682438D01*
X15419438Y94570600D01*
X16307600Y94570600D01*
X16307600Y94215000D01*
X17603000Y94215000D01*
X17603000Y95700852D01*
X17382940Y95823010D01*
X17303004Y95806328D01*
X17045354Y95696841D01*
X16814014Y95539192D01*
X16617875Y95339440D01*
X16464474Y95105262D01*
X16359707Y94845656D01*
X16307600Y94570600D01*
X15419438Y94570600D01*
X15261607Y94728431D01*
X15231778Y94764778D01*
X15142273Y94838232D01*
X15129097Y94870042D01*
X14948415Y95140451D01*
X14718451Y95370415D01*
X14448042Y95551097D01*
X14147579Y95675553D01*
X13828609Y95739000D01*
X13503391Y95739000D01*
X13184421Y95675553D01*
X12883958Y95551097D01*
X12613549Y95370415D01*
X12383585Y95140451D01*
X12316800Y95040500D01*
X9648785Y95040500D01*
X9602000Y95045108D01*
X9555215Y95040500D01*
X9415277Y95026717D01*
X9235731Y94972252D01*
X9070259Y94883806D01*
X8925222Y94764778D01*
X8895397Y94728436D01*
X6929564Y92762602D01*
X6893223Y92732778D01*
X6863399Y92696437D01*
X6774194Y92587740D01*
X6685749Y92422269D01*
X6631283Y92242722D01*
X6612892Y92056000D01*
X6617501Y92009206D01*
X6617501Y91042830D01*
X6558028Y91003092D01*
X6336908Y90781972D01*
X6163176Y90521963D01*
X6043507Y90233057D01*
X5982500Y89926355D01*
X5982500Y89613645D01*
X6043507Y89306943D01*
X6163176Y89018037D01*
X6336908Y88758028D01*
X6558028Y88536908D01*
X6818037Y88363176D01*
X7106943Y88243507D01*
X7413645Y88182500D01*
X7726355Y88182500D01*
X8033057Y88243507D01*
X8321963Y88363176D01*
X8581972Y88536908D01*
X8774529Y88729465D01*
X9945070Y88729465D01*
X10035098Y88469919D01*
X10316616Y88333776D01*
X10619286Y88255171D01*
X10931474Y88237123D01*
X11241185Y88280328D01*
X11536516Y88383123D01*
X11698902Y88469919D01*
X11788930Y88729465D01*
X10867000Y89651395D01*
X9945070Y88729465D01*
X8774529Y88729465D01*
X8803092Y88758028D01*
X8976824Y89018037D01*
X9096493Y89306943D01*
X9157500Y89613645D01*
X9157500Y89766526D01*
X9273123Y89766526D01*
X9316328Y89456815D01*
X9419123Y89161484D01*
X9505919Y88999098D01*
X9765465Y88909070D01*
X10687395Y89831000D01*
X11046605Y89831000D01*
X11968535Y88909070D01*
X12228081Y88999098D01*
X12364224Y89280616D01*
X12442829Y89583286D01*
X12460877Y89895474D01*
X12417672Y90205185D01*
X12314877Y90500516D01*
X12228081Y90662902D01*
X11968535Y90752930D01*
X11046605Y89831000D01*
X10687395Y89831000D01*
X9765465Y90752930D01*
X9505919Y90662902D01*
X9369776Y90381384D01*
X9291171Y90078714D01*
X9273123Y89766526D01*
X9157500Y89766526D01*
X9157500Y89926355D01*
X9096493Y90233057D01*
X8976824Y90521963D01*
X8803092Y90781972D01*
X8652529Y90932535D01*
X9945070Y90932535D01*
X10867000Y90010605D01*
X11788930Y90932535D01*
X11698902Y91192081D01*
X11417384Y91328224D01*
X11114714Y91406829D01*
X10802526Y91424877D01*
X10492815Y91381672D01*
X10197484Y91278877D01*
X10035098Y91192081D01*
X9945070Y90932535D01*
X8652529Y90932535D01*
X8581972Y91003092D01*
X8522500Y91042830D01*
X8522500Y91661462D01*
X9996539Y93135500D01*
X12316800Y93135500D01*
X12383585Y93035549D01*
X12613549Y92805585D01*
X12883958Y92624903D01*
X13184421Y92500447D01*
X13503391Y92437000D01*
X13828609Y92437000D01*
X14147579Y92500447D01*
X14448042Y92624903D01*
X14581731Y92714231D01*
X16777500Y90518461D01*
X16777501Y87881982D01*
X16719346Y87834255D01*
X16541595Y87617667D01*
X16409516Y87370563D01*
X16328181Y87102439D01*
X16307600Y86893475D01*
X16307600Y86042526D01*
X16328181Y85833562D01*
X16406160Y85576500D01*
X15055959Y85576500D01*
X15129097Y85685958D01*
X15253553Y85986421D01*
X15317000Y86305391D01*
X15317000Y86630609D01*
X15253553Y86949579D01*
X15129097Y87250042D01*
X14948415Y87520451D01*
X14718451Y87750415D01*
X14448042Y87931097D01*
X14147579Y88055553D01*
X13828609Y88119000D01*
X13503391Y88119000D01*
X13184421Y88055553D01*
X12883958Y87931097D01*
X12613549Y87750415D01*
X12383585Y87520451D01*
X12202903Y87250042D01*
X12078447Y86949579D01*
X12015000Y86630609D01*
X12015000Y86305391D01*
X12038452Y86187490D01*
X11852645Y86001683D01*
X11618963Y86157824D01*
X11330057Y86277493D01*
X11023355Y86338500D01*
X10710645Y86338500D01*
X10403943Y86277493D01*
X10115037Y86157824D01*
X9855028Y85984092D01*
X9633908Y85762972D01*
X9460176Y85502963D01*
X9340507Y85214057D01*
X9279500Y84907355D01*
X9279500Y84594645D01*
X9340507Y84287943D01*
X9355648Y84251390D01*
X9143546Y84463492D01*
X9157500Y84533645D01*
X9157500Y84846355D01*
X9096493Y85153057D01*
X8976824Y85441963D01*
X8803092Y85701972D01*
X8581972Y85923092D01*
X8321963Y86096824D01*
X8033057Y86216493D01*
X7726355Y86277500D01*
X7413645Y86277500D01*
X7106943Y86216493D01*
X6818037Y86096824D01*
X6558028Y85923092D01*
X6336908Y85701972D01*
X6297170Y85642500D01*
X5838784Y85642500D01*
X5791999Y85647108D01*
X5664631Y85634563D01*
X5605277Y85628717D01*
X5425731Y85574252D01*
X5260259Y85485806D01*
X5115222Y85366778D01*
X5085398Y85330437D01*
X4127462Y84372500D01*
X3839200Y84372500D01*
X3772415Y84472451D01*
X3542451Y84702415D01*
X3272042Y84883097D01*
X2971579Y85007553D01*
X2652609Y85071000D01*
X2327391Y85071000D01*
X2008421Y85007553D01*
X1707958Y84883097D01*
X1437549Y84702415D01*
X1207585Y84472451D01*
X1075500Y84274772D01*
X1075500Y89893177D01*
X1522782Y89893177D01*
X1620478Y89627140D01*
X1912821Y89484652D01*
X2227344Y89401936D01*
X2551962Y89382169D01*
X2874198Y89426112D01*
X3181670Y89532076D01*
X3359522Y89627140D01*
X3457218Y89893177D01*
X2490000Y90860395D01*
X1522782Y89893177D01*
X1075500Y89893177D01*
X1075500Y90173546D01*
X1077140Y90170478D01*
X1343177Y90072782D01*
X2310395Y91040000D01*
X2669605Y91040000D01*
X3636823Y90072782D01*
X3902860Y90170478D01*
X4045348Y90462821D01*
X4128064Y90777344D01*
X4147831Y91101962D01*
X4103888Y91424198D01*
X3997924Y91731670D01*
X3902860Y91909522D01*
X3636823Y92007218D01*
X2669605Y91040000D01*
X2310395Y91040000D01*
X1343177Y92007218D01*
X1077140Y91909522D01*
X1075500Y91906157D01*
X1075500Y92186823D01*
X1522782Y92186823D01*
X2490000Y91219605D01*
X3457218Y92186823D01*
X3359522Y92452860D01*
X3067179Y92595348D01*
X2752656Y92678064D01*
X2428038Y92697831D01*
X2105802Y92653888D01*
X1798330Y92547924D01*
X1620478Y92452860D01*
X1522782Y92186823D01*
X1075500Y92186823D01*
X1075500Y95213235D01*
X1097548Y95460279D01*
X3115000Y95460279D01*
X3115000Y95039721D01*
X3197047Y94627244D01*
X3357988Y94238698D01*
X3591637Y93889017D01*
X3889017Y93591637D01*
X4238698Y93357988D01*
X4627244Y93197047D01*
X5039721Y93115000D01*
X5460279Y93115000D01*
X5872756Y93197047D01*
X6261302Y93357988D01*
X6610983Y93591637D01*
X6908363Y93889017D01*
X7142012Y94238698D01*
X7302953Y94627244D01*
X7385000Y95039721D01*
X7385000Y95460279D01*
X7302953Y95872756D01*
X7142012Y96261302D01*
X6908363Y96610983D01*
X6610983Y96908363D01*
X6261302Y97142012D01*
X5872756Y97302953D01*
X5460279Y97385000D01*
X5039721Y97385000D01*
X4627244Y97302953D01*
X4238698Y97142012D01*
X3889017Y96908363D01*
X3591637Y96610983D01*
X3357988Y96261302D01*
X3197047Y95872756D01*
X3115000Y95460279D01*
X1097548Y95460279D01*
X1144705Y95988661D01*
X1340392Y96703971D01*
X1659657Y97373323D01*
X2092408Y97975561D01*
X2624964Y98491644D01*
X3240504Y98905269D01*
X3919551Y99203350D01*
X4647006Y99377996D01*
X5280268Y99424500D01*
X19421578Y99424500D01*
X19227748Y99294987D01*
M02*
