G04 #@! TF.GenerationSoftware,KiCad,Pcbnew,(5.1.0)-1*
G04 #@! TF.CreationDate,2020-05-25T12:21:08+01:00*
G04 #@! TF.ProjectId,Bat_Listener_v4,4261745f-4c69-4737-9465-6e65725f7634,rev?*
G04 #@! TF.SameCoordinates,PX5f21070PY85c0b90*
G04 #@! TF.FileFunction,Soldermask,Top*
G04 #@! TF.FilePolarity,Negative*
%FSLAX46Y46*%
G04 Gerber Fmt 4.6, Leading zero omitted, Abs format (unit mm)*
G04 Created by KiCad (PCBNEW (5.1.0)-1) date 2020-05-25 12:21:08*
%MOMM*%
%LPD*%
G04 APERTURE LIST*
%ADD10C,0.381000*%
%ADD11O,17.508000X30.508000*%
%ADD12C,3.048000*%
%ADD13C,2.508000*%
%ADD14C,2.540000*%
%ADD15R,2.540000X2.540000*%
%ADD16R,2.540000X2.235200*%
%ADD17O,2.540000X2.235200*%
%ADD18C,2.413000*%
%ADD19R,2.413000X2.413000*%
%ADD20O,3.508000X1.708000*%
%ADD21C,2.707640*%
%ADD22O,2.286000X2.794000*%
%ADD23R,2.286000X2.794000*%
%ADD24R,2.082800X2.794000*%
%ADD25O,2.082800X2.794000*%
%ADD26R,2.308860X2.308860*%
%ADD27C,3.508000*%
%ADD28O,1.708000X2.908000*%
%ADD29O,2.908000X1.708000*%
G04 APERTURE END LIST*
D10*
X50250000Y5250000D02*
X50250000Y95250000D01*
X38750000Y250000D02*
X45250000Y250000D01*
X38750000Y10250000D02*
X38750000Y250000D01*
X11750000Y10250000D02*
X38750000Y10250000D01*
X11750000Y250000D02*
X11750000Y10250000D01*
X5250000Y250000D02*
X11750000Y250000D01*
X250000Y5250000D02*
G75*
G03X5250000Y250000I5000000J0D01*
G01*
X45250000Y250000D02*
G75*
G03X50250000Y5250000I0J5000000D01*
G01*
X50250000Y95250000D02*
G75*
G03X45250000Y100250000I-5000000J0D01*
G01*
X5250000Y100250000D02*
G75*
G03X250000Y95250000I0J-5000000D01*
G01*
X45250000Y100250000D02*
X5250000Y100250000D01*
X250000Y95250000D02*
X250000Y5250000D01*
D11*
X24715000Y47860000D03*
D12*
X47800000Y28255000D03*
D13*
X38050000Y37255000D03*
D12*
X47800000Y38255000D03*
D13*
X38050000Y29255000D03*
X38050000Y33255000D03*
D14*
X18360000Y32300000D03*
D15*
X15820000Y32300000D03*
D12*
X32838000Y29760000D03*
X23440000Y29760000D03*
X8840000Y30522000D03*
X8840000Y39920000D03*
X23567000Y26585000D03*
X32965000Y26585000D03*
D16*
X2485000Y33570000D03*
D17*
X2485000Y36110000D03*
D18*
X40966000Y14520000D03*
X40966000Y17060000D03*
D19*
X38426000Y17060000D03*
D13*
X46965400Y16737380D03*
X46940000Y19745000D03*
X46940000Y13745000D03*
D20*
X46940000Y23045000D03*
X46940000Y10445000D03*
D15*
X3760000Y14205000D03*
D14*
X8840000Y14205000D03*
D21*
X3760000Y11665000D03*
X8840000Y11665000D03*
D22*
X27250000Y72940000D03*
X24710000Y72940000D03*
X22170000Y72940000D03*
X19630000Y72940000D03*
X17090000Y72940000D03*
X14550000Y72940000D03*
X12010000Y72940000D03*
X12010000Y80560000D03*
X14550000Y80560000D03*
X17090000Y80560000D03*
X19630000Y80560000D03*
X22170000Y80560000D03*
X24710000Y80560000D03*
D23*
X27250000Y80560000D03*
D22*
X19000000Y18650000D03*
X16460000Y18650000D03*
X13920000Y18650000D03*
X11380000Y18650000D03*
X8840000Y18650000D03*
X6300000Y18650000D03*
X3760000Y18650000D03*
X3760000Y26270000D03*
X6300000Y26270000D03*
X8840000Y26270000D03*
X11380000Y26270000D03*
X13920000Y26270000D03*
X16460000Y26270000D03*
D23*
X19000000Y26270000D03*
D24*
X25350000Y94088000D03*
D25*
X22810000Y94088000D03*
X20270000Y94088000D03*
X17730000Y94088000D03*
X17730000Y86468000D03*
X20270000Y86468000D03*
X22810000Y86468000D03*
X25350000Y86468000D03*
D26*
X30430000Y98025000D03*
D13*
X20270000Y98025000D03*
D27*
X45250000Y95250000D03*
X5250000Y95250000D03*
X5250000Y5250000D03*
X45250000Y5250000D03*
D14*
X40590000Y82150000D03*
D15*
X43130000Y82150000D03*
D14*
X40590000Y89770000D03*
D15*
X43130000Y89770000D03*
D14*
X40585000Y74845000D03*
D15*
X43125000Y74845000D03*
D14*
X2485000Y45000000D03*
D15*
X5025000Y45000000D03*
D14*
X48210000Y43730000D03*
X48210000Y51350000D03*
X48210000Y71355000D03*
X48210000Y78975000D03*
X48210000Y82785000D03*
X48210000Y90405000D03*
X13666000Y94088000D03*
X13666000Y86468000D03*
X2490000Y83420000D03*
X2490000Y91040000D03*
X6300000Y71990000D03*
X6300000Y79610000D03*
X12015000Y30080000D03*
X12015000Y37700000D03*
X31060000Y13885000D03*
X23440000Y13885000D03*
X2490000Y71990000D03*
X2490000Y79610000D03*
X31060000Y17060000D03*
X23440000Y17060000D03*
X44395000Y69765000D03*
X36775000Y69765000D03*
X23440000Y20235000D03*
X31060000Y20235000D03*
X46935000Y67225000D03*
X39315000Y67225000D03*
X23440000Y23410000D03*
X31060000Y23410000D03*
D28*
X35870000Y54505000D03*
D29*
X39370000Y63755000D03*
X42870000Y54005000D03*
D28*
X47470000Y59005000D03*
D29*
X40620000Y61505000D03*
D18*
X36775000Y91355000D03*
X36775000Y86275000D03*
X32965000Y86275000D03*
X32965000Y91355000D03*
X10867000Y89831000D03*
X10867000Y84751000D03*
X7570000Y89770000D03*
X7570000Y84690000D03*
X36775000Y81830000D03*
X36775000Y76750000D03*
X3760000Y61195000D03*
X3760000Y56115000D03*
X34875000Y18015000D03*
X34875000Y12935000D03*
X45035000Y48810000D03*
X45035000Y43730000D03*
X34235000Y23410000D03*
X39315000Y23410000D03*
D14*
X32965000Y79290000D03*
X32965000Y81830000D03*
X3125000Y65005000D03*
X5665000Y65005000D03*
X5660000Y68495000D03*
X3120000Y68495000D03*
X32965000Y74845000D03*
X32965000Y72305000D03*
M02*
