G04 (created by PCBNEW-RS274X (2011-12-21 BZR 3253)-stable) date 15/03/2013 11:23:44*
G01*
G70*
G90*
%MOIN*%
G04 Gerber Fmt 3.4, Leading zero omitted, Abs format*
%FSLAX34Y34*%
G04 APERTURE LIST*
%ADD10C,0.006000*%
%ADD11C,0.015000*%
%ADD12C,0.012000*%
%ADD13R,0.070900X0.070900*%
%ADD14C,0.070900*%
%ADD15R,0.090000X0.062000*%
%ADD16O,0.090000X0.062000*%
%ADD17C,0.080000*%
%ADD18C,0.065000*%
%ADD19R,0.062000X0.090000*%
%ADD20O,0.062000X0.090000*%
%ADD21R,0.055000X0.055000*%
%ADD22C,0.055000*%
%ADD23R,0.060000X0.060000*%
%ADD24C,0.060000*%
%ADD25C,0.035000*%
%ADD26C,0.040000*%
%ADD27C,0.010000*%
G04 APERTURE END LIST*
G54D10*
G54D11*
X10500Y-08250D02*
X10750Y-08250D01*
X10500Y-27000D02*
X10500Y-08250D01*
X49750Y-27000D02*
X10500Y-27000D01*
X49750Y-08250D02*
X49750Y-27000D01*
X10500Y-08250D02*
X49750Y-08250D01*
G54D12*
X49074Y-19901D02*
X49074Y-19558D01*
X49074Y-19730D02*
X48274Y-19730D01*
X48388Y-19673D01*
X48464Y-19615D01*
X48502Y-19558D01*
X49074Y-20472D02*
X49074Y-20129D01*
X49074Y-20301D02*
X48274Y-20301D01*
X48388Y-20244D01*
X48464Y-20186D01*
X48502Y-20129D01*
X48236Y-21157D02*
X49264Y-20643D01*
X48274Y-21301D02*
X48274Y-21672D01*
X48579Y-21472D01*
X48579Y-21558D01*
X48617Y-21615D01*
X48655Y-21644D01*
X48731Y-21672D01*
X48921Y-21672D01*
X48998Y-21644D01*
X49036Y-21615D01*
X49074Y-21558D01*
X49074Y-21386D01*
X49036Y-21329D01*
X48998Y-21301D01*
X48236Y-22357D02*
X49264Y-21843D01*
X49074Y-22872D02*
X49074Y-22529D01*
X49074Y-22701D02*
X48274Y-22701D01*
X48388Y-22644D01*
X48464Y-22586D01*
X48502Y-22529D01*
X48274Y-23072D02*
X48274Y-23443D01*
X48579Y-23243D01*
X48579Y-23329D01*
X48617Y-23386D01*
X48655Y-23415D01*
X48731Y-23443D01*
X48921Y-23443D01*
X48998Y-23415D01*
X49036Y-23386D01*
X49074Y-23329D01*
X49074Y-23157D01*
X49036Y-23100D01*
X48998Y-23072D01*
X49074Y-10401D02*
X49074Y-10058D01*
X49074Y-10230D02*
X48274Y-10230D01*
X48388Y-10173D01*
X48464Y-10115D01*
X48502Y-10058D01*
X49074Y-10972D02*
X49074Y-10629D01*
X49074Y-10801D02*
X48274Y-10801D01*
X48388Y-10744D01*
X48464Y-10686D01*
X48502Y-10629D01*
X48236Y-11657D02*
X49264Y-11143D01*
X48274Y-11801D02*
X48274Y-12172D01*
X48579Y-11972D01*
X48579Y-12058D01*
X48617Y-12115D01*
X48655Y-12144D01*
X48731Y-12172D01*
X48921Y-12172D01*
X48998Y-12144D01*
X49036Y-12115D01*
X49074Y-12058D01*
X49074Y-11886D01*
X49036Y-11829D01*
X48998Y-11801D01*
X48236Y-12857D02*
X49264Y-12343D01*
X49074Y-13372D02*
X49074Y-13029D01*
X49074Y-13201D02*
X48274Y-13201D01*
X48388Y-13144D01*
X48464Y-13086D01*
X48502Y-13029D01*
X48274Y-13572D02*
X48274Y-13943D01*
X48579Y-13743D01*
X48579Y-13829D01*
X48617Y-13886D01*
X48655Y-13915D01*
X48731Y-13943D01*
X48921Y-13943D01*
X48998Y-13915D01*
X49036Y-13886D01*
X49074Y-13829D01*
X49074Y-13657D01*
X49036Y-13600D01*
X48998Y-13572D01*
G54D13*
X49000Y-26000D03*
G54D14*
X48000Y-26000D03*
G54D13*
X46750Y-26000D03*
G54D14*
X45750Y-26000D03*
G54D15*
X37740Y-19090D03*
G54D16*
X37740Y-20090D03*
X37740Y-21090D03*
X37740Y-22090D03*
X37740Y-23090D03*
X37740Y-24090D03*
X37740Y-25090D03*
X40740Y-25090D03*
X40740Y-24090D03*
X40740Y-23090D03*
X40740Y-22090D03*
X40740Y-21090D03*
X40740Y-20090D03*
X40740Y-19090D03*
G54D17*
X32400Y-18870D03*
X31400Y-19870D03*
X30400Y-18870D03*
G54D18*
X33590Y-25000D03*
X36590Y-25000D03*
X33570Y-22630D03*
X36570Y-22630D03*
X42040Y-23110D03*
X42040Y-26110D03*
X42040Y-19020D03*
X42040Y-22020D03*
X47200Y-19270D03*
X47200Y-22270D03*
X46100Y-22270D03*
X46100Y-19270D03*
X28530Y-26060D03*
X25530Y-26060D03*
X28170Y-19390D03*
X25170Y-19390D03*
X19700Y-18320D03*
X16700Y-18320D03*
X20520Y-24930D03*
X23520Y-24930D03*
X18300Y-22670D03*
X18300Y-19670D03*
X17050Y-26070D03*
X17050Y-23070D03*
G54D15*
X12540Y-21560D03*
G54D16*
X12540Y-22560D03*
X12540Y-23560D03*
X12540Y-24560D03*
X15540Y-24560D03*
X15540Y-23560D03*
X15540Y-22560D03*
X15540Y-21560D03*
G54D19*
X21430Y-23490D03*
G54D20*
X22430Y-23490D03*
X23430Y-23490D03*
X24430Y-23490D03*
X25430Y-23490D03*
X26430Y-23490D03*
X27430Y-23490D03*
X27430Y-20490D03*
X26430Y-20490D03*
X25430Y-20490D03*
X24430Y-20490D03*
X23430Y-20490D03*
X22430Y-20490D03*
X21430Y-20490D03*
G54D21*
X36560Y-26430D03*
G54D22*
X33560Y-26430D03*
G54D21*
X33570Y-21530D03*
G54D22*
X36570Y-21530D03*
X33620Y-23810D03*
X35620Y-23810D03*
X26490Y-24940D03*
X28490Y-24940D03*
X27700Y-18320D03*
X25700Y-18320D03*
X19450Y-19670D03*
X19450Y-21670D03*
X23830Y-19390D03*
X21830Y-19390D03*
X23810Y-18320D03*
X21810Y-18320D03*
X19430Y-22950D03*
X19430Y-24950D03*
X15750Y-20250D03*
X13750Y-20250D03*
X21480Y-26080D03*
X19480Y-26080D03*
X18250Y-26070D03*
X18250Y-24070D03*
X17000Y-21690D03*
X17000Y-19690D03*
X13500Y-26080D03*
X11500Y-26080D03*
G54D23*
X31150Y-23320D03*
G54D24*
X31150Y-22320D03*
G54D23*
X12200Y-19650D03*
G54D24*
X12200Y-18650D03*
G54D23*
X44000Y-20270D03*
G54D24*
X44000Y-19270D03*
G54D23*
X44000Y-22500D03*
G54D24*
X44000Y-23500D03*
G54D21*
X31450Y-26370D03*
G54D22*
X31450Y-25370D03*
X30450Y-25370D03*
G54D13*
X44500Y-26000D03*
G54D14*
X43500Y-26000D03*
G54D13*
X11250Y-21000D03*
G54D14*
X11250Y-25000D03*
G54D13*
X11250Y-11500D03*
G54D14*
X11250Y-15500D03*
G54D13*
X44500Y-16500D03*
G54D14*
X43500Y-16500D03*
G54D21*
X31450Y-16870D03*
G54D22*
X31450Y-15870D03*
X30450Y-15870D03*
G54D23*
X44000Y-13000D03*
G54D24*
X44000Y-14000D03*
G54D23*
X44000Y-10770D03*
G54D24*
X44000Y-09770D03*
G54D23*
X12200Y-10150D03*
G54D24*
X12200Y-09150D03*
G54D23*
X31150Y-13820D03*
G54D24*
X31150Y-12820D03*
G54D22*
X13500Y-16580D03*
X11500Y-16580D03*
X17000Y-12190D03*
X17000Y-10190D03*
X18250Y-16570D03*
X18250Y-14570D03*
X21480Y-16580D03*
X19480Y-16580D03*
X15750Y-10750D03*
X13750Y-10750D03*
X19430Y-13450D03*
X19430Y-15450D03*
X23810Y-08820D03*
X21810Y-08820D03*
X23830Y-09890D03*
X21830Y-09890D03*
X19450Y-10170D03*
X19450Y-12170D03*
X27700Y-08820D03*
X25700Y-08820D03*
X26490Y-15440D03*
X28490Y-15440D03*
X33620Y-14310D03*
X35620Y-14310D03*
G54D21*
X33570Y-12030D03*
G54D22*
X36570Y-12030D03*
G54D21*
X36560Y-16930D03*
G54D22*
X33560Y-16930D03*
G54D19*
X21430Y-13990D03*
G54D20*
X22430Y-13990D03*
X23430Y-13990D03*
X24430Y-13990D03*
X25430Y-13990D03*
X26430Y-13990D03*
X27430Y-13990D03*
X27430Y-10990D03*
X26430Y-10990D03*
X25430Y-10990D03*
X24430Y-10990D03*
X23430Y-10990D03*
X22430Y-10990D03*
X21430Y-10990D03*
G54D15*
X12540Y-12060D03*
G54D16*
X12540Y-13060D03*
X12540Y-14060D03*
X12540Y-15060D03*
X15540Y-15060D03*
X15540Y-14060D03*
X15540Y-13060D03*
X15540Y-12060D03*
G54D18*
X17050Y-16570D03*
X17050Y-13570D03*
X18300Y-13170D03*
X18300Y-10170D03*
X20520Y-15430D03*
X23520Y-15430D03*
X19700Y-08820D03*
X16700Y-08820D03*
X28170Y-09890D03*
X25170Y-09890D03*
X28530Y-16560D03*
X25530Y-16560D03*
X46100Y-12770D03*
X46100Y-09770D03*
X47200Y-09770D03*
X47200Y-12770D03*
X42040Y-09520D03*
X42040Y-12520D03*
X42040Y-13610D03*
X42040Y-16610D03*
X33570Y-13130D03*
X36570Y-13130D03*
X33590Y-15500D03*
X36590Y-15500D03*
G54D17*
X32400Y-09370D03*
X31400Y-10370D03*
X30400Y-09370D03*
G54D15*
X37740Y-09590D03*
G54D16*
X37740Y-10590D03*
X37740Y-11590D03*
X37740Y-12590D03*
X37740Y-13590D03*
X37740Y-14590D03*
X37740Y-15590D03*
X40740Y-15590D03*
X40740Y-14590D03*
X40740Y-13590D03*
X40740Y-12590D03*
X40740Y-11590D03*
X40740Y-10590D03*
X40740Y-09590D03*
G54D13*
X46750Y-16500D03*
G54D14*
X45750Y-16500D03*
G54D13*
X49000Y-16500D03*
G54D14*
X48000Y-16500D03*
G54D25*
X36000Y-09000D03*
X36000Y-18500D03*
X35500Y-19250D03*
X29000Y-11750D03*
X29000Y-21250D03*
X35500Y-09750D03*
X23500Y-22250D03*
X23500Y-12750D03*
G54D26*
X44000Y-20270D02*
X44100Y-20270D01*
X42750Y-19020D02*
X44000Y-20270D01*
X42040Y-19020D02*
X42750Y-19020D01*
X40740Y-19090D02*
X41970Y-19090D01*
X41970Y-19090D02*
X42040Y-19020D01*
X44100Y-10770D02*
X46100Y-12770D01*
X44000Y-10770D02*
X44100Y-10770D01*
X42750Y-09520D02*
X44000Y-10770D01*
X42040Y-09520D02*
X42750Y-09520D01*
X40740Y-09590D02*
X41970Y-09590D01*
X41970Y-09590D02*
X42040Y-09520D01*
X36000Y-09000D02*
X36250Y-08750D01*
X36250Y-08750D02*
X39900Y-08750D01*
X39900Y-08750D02*
X40740Y-09590D01*
X39900Y-18250D02*
X40740Y-19090D01*
X36250Y-18250D02*
X39900Y-18250D01*
X44100Y-20270D02*
X46100Y-22270D01*
X36000Y-18500D02*
X36250Y-18250D01*
X12540Y-15710D02*
X12540Y-15060D01*
X12060Y-13060D02*
X11250Y-12250D01*
X12540Y-13060D02*
X12060Y-13060D01*
X35740Y-15950D02*
X35920Y-16130D01*
X37200Y-16130D02*
X37740Y-15590D01*
X35880Y-11190D02*
X36130Y-11190D01*
X11250Y-09600D02*
X11700Y-09150D01*
X11700Y-09150D02*
X12200Y-09150D01*
X11250Y-11500D02*
X11250Y-09600D01*
X44000Y-14000D02*
X45970Y-14000D01*
X13280Y-13800D02*
X12540Y-13060D01*
X31150Y-12820D02*
X31450Y-12820D01*
X36570Y-13130D02*
X36570Y-12030D01*
X30090Y-25370D02*
X29720Y-25000D01*
X30580Y-12820D02*
X31150Y-12820D01*
X44000Y-23500D02*
X45750Y-23500D01*
X29720Y-25000D02*
X29720Y-23180D01*
X12540Y-24560D02*
X12820Y-24560D01*
X11250Y-12250D02*
X11250Y-11500D01*
X36570Y-22630D02*
X36570Y-23942D01*
X34150Y-09750D02*
X33000Y-08600D01*
X24430Y-11130D02*
X24430Y-10990D01*
X31450Y-12820D02*
X33080Y-11190D01*
X13280Y-14600D02*
X13280Y-13800D01*
X45750Y-16500D02*
X45750Y-14000D01*
X33080Y-11190D02*
X35490Y-11190D01*
X17000Y-09120D02*
X16700Y-08820D01*
X35490Y-11190D02*
X35880Y-11190D01*
X33000Y-08600D02*
X32210Y-08600D01*
X16370Y-09150D02*
X16700Y-08820D01*
X12200Y-09150D02*
X16370Y-09150D01*
X35730Y-11190D02*
X36570Y-12030D01*
X35500Y-09750D02*
X34150Y-09750D01*
X12820Y-15060D02*
X13280Y-14600D01*
X30720Y-10030D02*
X30780Y-10030D01*
X29000Y-11750D02*
X30720Y-10030D01*
X17020Y-10170D02*
X17000Y-10190D01*
X18300Y-10170D02*
X17020Y-10170D01*
X11670Y-16580D02*
X12540Y-15710D01*
X30450Y-15870D02*
X30090Y-15870D01*
X36570Y-14442D02*
X35740Y-15272D01*
X11500Y-16580D02*
X11670Y-16580D01*
X36730Y-10590D02*
X37740Y-10590D01*
X36130Y-11190D02*
X36730Y-10590D01*
X29720Y-13680D02*
X30580Y-12820D01*
X29720Y-15500D02*
X29720Y-13680D01*
X17000Y-10190D02*
X17000Y-09120D01*
X33000Y-18100D02*
X32210Y-18100D01*
X35490Y-20690D02*
X35880Y-20690D01*
X17000Y-18620D02*
X16700Y-18320D01*
X17000Y-19690D02*
X17000Y-18620D01*
X33080Y-20690D02*
X35490Y-20690D01*
X45750Y-26000D02*
X45750Y-23500D01*
X35500Y-19250D02*
X34150Y-19250D01*
X30720Y-19530D02*
X30780Y-19530D01*
X24430Y-20630D02*
X24430Y-20490D01*
X31450Y-22320D02*
X33080Y-20690D01*
X11250Y-21750D02*
X11250Y-21000D01*
X16370Y-18650D02*
X16700Y-18320D01*
X11670Y-26080D02*
X12540Y-25210D01*
X17020Y-19670D02*
X17000Y-19690D01*
X29000Y-21250D02*
X30720Y-19530D01*
X12820Y-24560D02*
X13280Y-24100D01*
X13280Y-24100D02*
X13280Y-23300D01*
X35730Y-20690D02*
X36570Y-21530D01*
X12200Y-18650D02*
X16370Y-18650D01*
X11250Y-21000D02*
X11250Y-19100D01*
X11700Y-18650D02*
X12200Y-18650D01*
X36570Y-23942D02*
X35740Y-24772D01*
X36570Y-22630D02*
X36570Y-21530D01*
X18300Y-19670D02*
X17020Y-19670D01*
X11500Y-26080D02*
X11670Y-26080D01*
X36730Y-20090D02*
X37740Y-20090D01*
X44000Y-23500D02*
X45970Y-23500D01*
X36130Y-20690D02*
X36730Y-20090D01*
X29720Y-23180D02*
X30580Y-22320D01*
X30450Y-25370D02*
X30090Y-25370D01*
X35740Y-25450D02*
X35920Y-25630D01*
X31150Y-22320D02*
X31450Y-22320D01*
X13280Y-23300D02*
X12540Y-22560D01*
X30580Y-22320D02*
X31150Y-22320D01*
X35920Y-16130D02*
X37200Y-16130D01*
X45970Y-23500D02*
X47200Y-22270D01*
X44000Y-14000D02*
X45750Y-14000D01*
X30090Y-15870D02*
X29720Y-15500D01*
X35740Y-15272D02*
X35740Y-15950D01*
X35490Y-11190D02*
X35730Y-11190D01*
X32210Y-08600D02*
X30780Y-10030D01*
X11250Y-19100D02*
X11700Y-18650D01*
X37200Y-25630D02*
X37740Y-25090D01*
X35920Y-25630D02*
X37200Y-25630D01*
X32210Y-18100D02*
X30780Y-19530D01*
X35490Y-20690D02*
X35730Y-20690D01*
X35740Y-24772D02*
X35740Y-25450D01*
X35880Y-20690D02*
X36130Y-20690D01*
X12060Y-22560D02*
X11250Y-21750D01*
X12540Y-22560D02*
X12060Y-22560D01*
X12540Y-25210D02*
X12540Y-24560D01*
X34150Y-19250D02*
X33000Y-18100D01*
X45970Y-14000D02*
X47200Y-12770D01*
X12540Y-15060D02*
X12820Y-15060D01*
X36570Y-13130D02*
X36570Y-14442D01*
X22430Y-20490D02*
X22430Y-21000D01*
X23430Y-13710D02*
X24120Y-13020D01*
X24120Y-13020D02*
X24820Y-13020D01*
X21430Y-10990D02*
X22430Y-10990D01*
X24820Y-13020D02*
X25430Y-13630D01*
X22430Y-10990D02*
X22430Y-11500D01*
X25430Y-23490D02*
X25430Y-21570D01*
X22500Y-21000D02*
X22430Y-21000D01*
X22500Y-22250D02*
X22500Y-21000D01*
X23430Y-23180D02*
X22500Y-22250D01*
X25430Y-21570D02*
X25430Y-20490D01*
X25430Y-23130D02*
X25430Y-23490D01*
X23430Y-23490D02*
X23430Y-23210D01*
X23430Y-23210D02*
X24120Y-22520D01*
X25430Y-13990D02*
X25430Y-12070D01*
X22500Y-11500D02*
X22430Y-11500D01*
X22500Y-12750D02*
X22500Y-11500D01*
X23430Y-13680D02*
X22500Y-12750D01*
X25430Y-12070D02*
X25430Y-10990D01*
X23430Y-13990D02*
X23430Y-13680D01*
X25430Y-13630D02*
X25430Y-13990D01*
X23430Y-23490D02*
X23430Y-23180D01*
X24820Y-22520D02*
X25430Y-23130D01*
X23430Y-13990D02*
X23430Y-13710D01*
X21430Y-20490D02*
X22430Y-20490D01*
X24120Y-22520D02*
X24820Y-22520D01*
G54D11*
X33390Y-22810D02*
X33570Y-22630D01*
G54D26*
X34440Y-13130D02*
X35620Y-14310D01*
X33390Y-13310D02*
X33570Y-13130D01*
G54D11*
X33390Y-13310D02*
X33570Y-13130D01*
G54D26*
X33570Y-12030D02*
X33570Y-13130D01*
X33570Y-13130D02*
X34440Y-13130D01*
X33390Y-22810D02*
X33570Y-22630D01*
X33570Y-21530D02*
X33570Y-22630D01*
X33570Y-22630D02*
X34440Y-22630D01*
X34440Y-22630D02*
X35620Y-23810D01*
X36590Y-15500D02*
X36590Y-15450D01*
X36590Y-24950D02*
X37450Y-24090D01*
X36590Y-15450D02*
X37450Y-14590D01*
X36590Y-25000D02*
X36590Y-24950D01*
X37450Y-24090D02*
X37740Y-24090D01*
X37450Y-14590D02*
X37740Y-14590D01*
X46750Y-26000D02*
X48000Y-26000D01*
X46750Y-16500D02*
X48000Y-16500D01*
X36660Y-09590D02*
X35750Y-10500D01*
X35750Y-10500D02*
X32820Y-10500D01*
X30750Y-11720D02*
X31600Y-11720D01*
X30750Y-21220D02*
X31600Y-21220D01*
X35750Y-20000D02*
X32820Y-20000D01*
X36660Y-19090D02*
X35750Y-20000D01*
X27430Y-23490D02*
X28480Y-23490D01*
X28480Y-23490D02*
X30750Y-21220D01*
X27430Y-23880D02*
X28490Y-24940D01*
X27430Y-23490D02*
X27430Y-23880D01*
X28490Y-26020D02*
X28530Y-26060D01*
X37740Y-19090D02*
X36660Y-19090D01*
X27430Y-14380D02*
X28490Y-15440D01*
X27430Y-13990D02*
X27430Y-14380D01*
X28490Y-16520D02*
X28530Y-16560D01*
X37740Y-09590D02*
X36660Y-09590D01*
X28490Y-15440D02*
X28490Y-16520D01*
X31600Y-11720D02*
X32820Y-10500D01*
X28490Y-24940D02*
X28490Y-26020D01*
X31600Y-21220D02*
X32820Y-20000D01*
X27430Y-13990D02*
X28480Y-13990D01*
X28480Y-13990D02*
X30750Y-11720D01*
X28700Y-13070D02*
X31400Y-10370D01*
X26490Y-23550D02*
X26430Y-23490D01*
X26430Y-23490D02*
X26430Y-23140D01*
X27000Y-22570D02*
X28700Y-22570D01*
X26430Y-23140D02*
X27000Y-22570D01*
X26490Y-25540D02*
X26490Y-24940D01*
X25970Y-26060D02*
X26490Y-25540D01*
X26490Y-24940D02*
X26490Y-23550D01*
X28700Y-22570D02*
X31400Y-19870D01*
X25530Y-26060D02*
X25970Y-26060D01*
X31400Y-19870D02*
X32400Y-18870D01*
X31400Y-10370D02*
X32400Y-09370D01*
X25530Y-16560D02*
X25970Y-16560D01*
X26490Y-14050D02*
X26430Y-13990D01*
X26430Y-13990D02*
X26430Y-13640D01*
X27000Y-13070D02*
X28700Y-13070D01*
X26430Y-13640D02*
X27000Y-13070D01*
X26490Y-16040D02*
X26490Y-15440D01*
X25970Y-16560D02*
X26490Y-16040D01*
X26490Y-15440D02*
X26490Y-14050D01*
X27700Y-08820D02*
X29850Y-08820D01*
X29850Y-08820D02*
X30400Y-09370D01*
X29850Y-18320D02*
X30400Y-18870D01*
X27700Y-18320D02*
X29850Y-18320D01*
X27430Y-20130D02*
X28170Y-19390D01*
X23810Y-18320D02*
X25700Y-18320D01*
X27430Y-10630D02*
X28170Y-09890D01*
X25700Y-18320D02*
X26040Y-18320D01*
X23810Y-08820D02*
X25700Y-08820D01*
X27430Y-10990D02*
X27430Y-10630D01*
X27430Y-20490D02*
X27430Y-20130D01*
X26040Y-08820D02*
X27430Y-10210D01*
X27430Y-10210D02*
X27430Y-10990D01*
X25700Y-08820D02*
X26040Y-08820D01*
X26040Y-18320D02*
X27430Y-19710D01*
X27430Y-19710D02*
X27430Y-20490D01*
X19700Y-08820D02*
X21810Y-08820D01*
X19450Y-09070D02*
X19700Y-08820D01*
X21830Y-09890D02*
X21830Y-08840D01*
X21830Y-08840D02*
X21810Y-08820D01*
X19450Y-10170D02*
X19450Y-09070D01*
X19700Y-18320D02*
X21810Y-18320D01*
X19450Y-18570D02*
X19700Y-18320D01*
X21830Y-19390D02*
X21830Y-18340D01*
X21830Y-18340D02*
X21810Y-18320D01*
X19450Y-19670D02*
X19450Y-18570D01*
X19430Y-15450D02*
X19430Y-16530D01*
X18300Y-22670D02*
X18300Y-24020D01*
X19430Y-16530D02*
X19480Y-16580D01*
X18550Y-24070D02*
X19430Y-24950D01*
X19430Y-26030D02*
X19480Y-26080D01*
X19430Y-24950D02*
X19430Y-26030D01*
X18550Y-14570D02*
X19430Y-15450D01*
X18300Y-14520D02*
X18250Y-14570D01*
X18250Y-14570D02*
X18550Y-14570D01*
X18250Y-24070D02*
X18550Y-24070D01*
X18300Y-24020D02*
X18250Y-24070D01*
X18300Y-13170D02*
X18300Y-14520D01*
X17050Y-26070D02*
X18250Y-26070D01*
X15540Y-24560D02*
X15540Y-25570D01*
X15540Y-25570D02*
X16040Y-26070D01*
X16040Y-26070D02*
X17050Y-26070D01*
X16040Y-16570D02*
X17050Y-16570D01*
X15540Y-15060D02*
X15540Y-16070D01*
X17050Y-16570D02*
X18250Y-16570D01*
X15540Y-16070D02*
X16040Y-16570D01*
X15540Y-22560D02*
X14170Y-22560D01*
X14170Y-22560D02*
X13742Y-22988D01*
X13742Y-22988D02*
X13742Y-25838D01*
X13742Y-25838D02*
X13500Y-26080D01*
X13742Y-16338D02*
X13500Y-16580D01*
X15540Y-13060D02*
X14170Y-13060D01*
X13742Y-13488D02*
X13742Y-16338D01*
X14170Y-13060D02*
X13742Y-13488D01*
X15540Y-10960D02*
X15750Y-10750D01*
X15540Y-12060D02*
X15540Y-10960D01*
X15540Y-21560D02*
X15540Y-20460D01*
X15540Y-20460D02*
X15750Y-20250D01*
X11250Y-15500D02*
X11250Y-14500D01*
X11250Y-24000D02*
X11690Y-23560D01*
X11690Y-14060D02*
X12540Y-14060D01*
X11250Y-25000D02*
X11250Y-24000D01*
X11690Y-23560D02*
X12540Y-23560D01*
X11250Y-14500D02*
X11690Y-14060D01*
X13750Y-11750D02*
X13750Y-10750D01*
X12540Y-12060D02*
X13440Y-12060D01*
X12540Y-21560D02*
X13440Y-21560D01*
X13750Y-21250D02*
X13750Y-20250D01*
X13440Y-21560D02*
X13750Y-21250D01*
X13440Y-12060D02*
X13750Y-11750D01*
X17050Y-23070D02*
X17050Y-21740D01*
X17050Y-21740D02*
X17000Y-21690D01*
X17050Y-13570D02*
X17050Y-12240D01*
X17050Y-12240D02*
X17000Y-12190D01*
X23520Y-24930D02*
X22510Y-24930D01*
X22430Y-24850D02*
X22430Y-23490D01*
X22510Y-24930D02*
X22430Y-24850D01*
X21480Y-26080D02*
X21480Y-25800D01*
X21480Y-25800D02*
X22430Y-24850D01*
X22510Y-15430D02*
X22430Y-15350D01*
X21480Y-16580D02*
X21480Y-16300D01*
X21480Y-16300D02*
X22430Y-15350D01*
X22430Y-15350D02*
X22430Y-13990D01*
X23520Y-15430D02*
X22510Y-15430D01*
X25170Y-19390D02*
X26000Y-19390D01*
X23830Y-19390D02*
X25170Y-19390D01*
X26000Y-19390D02*
X26430Y-19820D01*
X26000Y-09890D02*
X26430Y-10320D01*
X23830Y-09890D02*
X25170Y-09890D01*
X25170Y-09890D02*
X26000Y-09890D01*
X26430Y-10320D02*
X26430Y-10990D01*
X26430Y-19820D02*
X26430Y-20490D01*
X23430Y-20490D02*
X23430Y-22180D01*
X44000Y-19270D02*
X46100Y-19270D01*
X46100Y-19270D02*
X47200Y-19270D01*
X23430Y-22180D02*
X23500Y-22250D01*
X44000Y-09770D02*
X46100Y-09770D01*
X23430Y-10990D02*
X23430Y-12680D01*
X23430Y-12680D02*
X23500Y-12750D01*
X46100Y-09770D02*
X47200Y-09770D01*
X32930Y-25690D02*
X35250Y-25690D01*
X31150Y-23910D02*
X32930Y-25690D01*
X31150Y-23320D02*
X31150Y-23910D01*
X40630Y-26430D02*
X42040Y-25020D01*
X42040Y-24120D02*
X42040Y-23110D01*
X35250Y-25690D02*
X35990Y-26430D01*
X31150Y-13820D02*
X31150Y-14410D01*
X42040Y-23110D02*
X42040Y-22020D01*
X42110Y-23110D02*
X44500Y-25500D01*
X42040Y-23110D02*
X42110Y-23110D01*
X35990Y-26430D02*
X36560Y-26430D01*
X42040Y-25020D02*
X42040Y-24120D01*
X37100Y-26430D02*
X40630Y-26430D01*
X44500Y-25500D02*
X44500Y-26000D01*
X35990Y-16930D02*
X36560Y-16930D01*
X44500Y-16000D02*
X44500Y-16500D01*
X42040Y-13610D02*
X42110Y-13610D01*
X36560Y-26430D02*
X37100Y-26430D01*
X37100Y-16930D02*
X40630Y-16930D01*
X42040Y-15520D02*
X42040Y-14620D01*
X42110Y-13610D02*
X44500Y-16000D01*
X36560Y-16930D02*
X37100Y-16930D01*
X42040Y-13610D02*
X42040Y-12520D01*
X31150Y-14410D02*
X32930Y-16190D01*
X32930Y-16190D02*
X35250Y-16190D01*
X40630Y-16930D02*
X42040Y-15520D01*
X42040Y-14620D02*
X42040Y-13610D01*
X35250Y-16190D02*
X35990Y-16930D01*
X31450Y-26370D02*
X33500Y-26370D01*
X43390Y-26110D02*
X43500Y-26000D01*
X42040Y-26110D02*
X43390Y-26110D01*
X33500Y-26370D02*
X33560Y-26430D01*
X31450Y-16870D02*
X33500Y-16870D01*
X33500Y-16870D02*
X33560Y-16930D01*
X42040Y-16610D02*
X43390Y-16610D01*
X43390Y-16610D02*
X43500Y-16500D01*
X33590Y-15500D02*
X33590Y-14340D01*
X33590Y-14340D02*
X33620Y-14310D01*
X33590Y-25000D02*
X33590Y-23840D01*
X33590Y-23840D02*
X33620Y-23810D01*
X20520Y-23490D02*
X20480Y-23490D01*
X20480Y-23490D02*
X20480Y-23600D01*
X20520Y-15430D02*
X20520Y-13990D01*
X20520Y-24930D02*
X20520Y-23490D01*
X19430Y-22950D02*
X19430Y-21690D01*
X20480Y-23600D02*
X20480Y-23490D01*
X21430Y-23490D02*
X20480Y-23490D01*
X20480Y-23490D02*
X19970Y-23490D01*
X19970Y-23490D02*
X19430Y-22950D01*
X19430Y-12190D02*
X19450Y-12170D01*
X19430Y-21690D02*
X19450Y-21670D01*
X19430Y-13450D02*
X19430Y-12190D01*
X19970Y-13990D02*
X19430Y-13450D01*
X20480Y-13990D02*
X19970Y-13990D01*
X21430Y-13990D02*
X20480Y-13990D01*
X20480Y-14100D02*
X20480Y-13990D01*
X20480Y-13990D02*
X20480Y-14100D01*
X20520Y-13990D02*
X20480Y-13990D01*
G54D10*
G36*
X24980Y-12601D02*
X24820Y-12570D01*
X24120Y-12570D01*
X23948Y-12604D01*
X23923Y-12620D01*
X23915Y-12577D01*
X23880Y-12524D01*
X23880Y-11469D01*
X23895Y-11454D01*
X23928Y-11374D01*
X24048Y-11540D01*
X24234Y-11655D01*
X24293Y-11672D01*
X24380Y-11625D01*
X24380Y-11090D01*
X24380Y-11040D01*
X24380Y-10940D01*
X24480Y-10940D01*
X24480Y-11040D01*
X24480Y-11090D01*
X24480Y-11625D01*
X24567Y-11672D01*
X24626Y-11655D01*
X24812Y-11540D01*
X24931Y-11374D01*
X24965Y-11454D01*
X24980Y-11469D01*
X24980Y-12070D01*
X24980Y-12601D01*
X24980Y-12601D01*
G37*
G54D27*
X24980Y-12601D02*
X24820Y-12570D01*
X24120Y-12570D01*
X23948Y-12604D01*
X23923Y-12620D01*
X23915Y-12577D01*
X23880Y-12524D01*
X23880Y-11469D01*
X23895Y-11454D01*
X23928Y-11374D01*
X24048Y-11540D01*
X24234Y-11655D01*
X24293Y-11672D01*
X24380Y-11625D01*
X24380Y-11090D01*
X24380Y-11040D01*
X24380Y-10940D01*
X24480Y-10940D01*
X24480Y-11040D01*
X24480Y-11090D01*
X24480Y-11625D01*
X24567Y-11672D01*
X24626Y-11655D01*
X24812Y-11540D01*
X24931Y-11374D01*
X24965Y-11454D01*
X24980Y-11469D01*
X24980Y-12070D01*
X24980Y-12601D01*
G54D10*
G36*
X36247Y-09365D02*
X35563Y-10050D01*
X32820Y-10050D01*
X32675Y-10078D01*
X32647Y-10084D01*
X32502Y-10182D01*
X31952Y-10731D01*
X32049Y-10499D01*
X32049Y-10357D01*
X32387Y-10019D01*
X32529Y-10019D01*
X32768Y-09920D01*
X32950Y-09738D01*
X33049Y-09499D01*
X33049Y-09241D01*
X32950Y-09002D01*
X32768Y-08820D01*
X32529Y-08721D01*
X32271Y-08721D01*
X32032Y-08820D01*
X31850Y-09002D01*
X31751Y-09241D01*
X31751Y-09383D01*
X31413Y-09721D01*
X31271Y-09721D01*
X31032Y-09820D01*
X30850Y-10002D01*
X30751Y-10241D01*
X30751Y-10383D01*
X28514Y-12620D01*
X27000Y-12620D01*
X26827Y-12654D01*
X26682Y-12752D01*
X26112Y-13322D01*
X26014Y-13467D01*
X26011Y-13479D01*
X25965Y-13526D01*
X25930Y-13610D01*
X25895Y-13526D01*
X25880Y-13511D01*
X25880Y-12070D01*
X25880Y-11469D01*
X25895Y-11454D01*
X25930Y-11369D01*
X25965Y-11454D01*
X26119Y-11608D01*
X26321Y-11692D01*
X26539Y-11692D01*
X26741Y-11608D01*
X26895Y-11454D01*
X26930Y-11369D01*
X26965Y-11454D01*
X27119Y-11608D01*
X27321Y-11692D01*
X27539Y-11692D01*
X27741Y-11608D01*
X27895Y-11454D01*
X27979Y-11252D01*
X27979Y-11034D01*
X27979Y-10728D01*
X27975Y-10720D01*
X28231Y-10465D01*
X28284Y-10465D01*
X28495Y-10378D01*
X28657Y-10216D01*
X28745Y-10005D01*
X28745Y-09776D01*
X28658Y-09565D01*
X28496Y-09403D01*
X28285Y-09315D01*
X28056Y-09315D01*
X27845Y-09402D01*
X27683Y-09564D01*
X27605Y-09748D01*
X26431Y-08575D01*
X27233Y-08575D01*
X27175Y-08715D01*
X27175Y-08924D01*
X27255Y-09117D01*
X27402Y-09265D01*
X27595Y-09345D01*
X27804Y-09345D01*
X27984Y-09270D01*
X29663Y-09270D01*
X29751Y-09357D01*
X29751Y-09499D01*
X29850Y-09738D01*
X30032Y-09920D01*
X30271Y-10019D01*
X30529Y-10019D01*
X30768Y-09920D01*
X30950Y-09738D01*
X31049Y-09499D01*
X31049Y-09241D01*
X30950Y-09002D01*
X30768Y-08820D01*
X30529Y-08721D01*
X30387Y-08721D01*
X30241Y-08575D01*
X35788Y-08575D01*
X35682Y-08682D01*
X35584Y-08827D01*
X35550Y-09000D01*
X35584Y-09173D01*
X35682Y-09318D01*
X35827Y-09416D01*
X36000Y-09450D01*
X36173Y-09416D01*
X36247Y-09365D01*
X36247Y-09365D01*
G37*
G54D27*
X36247Y-09365D02*
X35563Y-10050D01*
X32820Y-10050D01*
X32675Y-10078D01*
X32647Y-10084D01*
X32502Y-10182D01*
X31952Y-10731D01*
X32049Y-10499D01*
X32049Y-10357D01*
X32387Y-10019D01*
X32529Y-10019D01*
X32768Y-09920D01*
X32950Y-09738D01*
X33049Y-09499D01*
X33049Y-09241D01*
X32950Y-09002D01*
X32768Y-08820D01*
X32529Y-08721D01*
X32271Y-08721D01*
X32032Y-08820D01*
X31850Y-09002D01*
X31751Y-09241D01*
X31751Y-09383D01*
X31413Y-09721D01*
X31271Y-09721D01*
X31032Y-09820D01*
X30850Y-10002D01*
X30751Y-10241D01*
X30751Y-10383D01*
X28514Y-12620D01*
X27000Y-12620D01*
X26827Y-12654D01*
X26682Y-12752D01*
X26112Y-13322D01*
X26014Y-13467D01*
X26011Y-13479D01*
X25965Y-13526D01*
X25930Y-13610D01*
X25895Y-13526D01*
X25880Y-13511D01*
X25880Y-12070D01*
X25880Y-11469D01*
X25895Y-11454D01*
X25930Y-11369D01*
X25965Y-11454D01*
X26119Y-11608D01*
X26321Y-11692D01*
X26539Y-11692D01*
X26741Y-11608D01*
X26895Y-11454D01*
X26930Y-11369D01*
X26965Y-11454D01*
X27119Y-11608D01*
X27321Y-11692D01*
X27539Y-11692D01*
X27741Y-11608D01*
X27895Y-11454D01*
X27979Y-11252D01*
X27979Y-11034D01*
X27979Y-10728D01*
X27975Y-10720D01*
X28231Y-10465D01*
X28284Y-10465D01*
X28495Y-10378D01*
X28657Y-10216D01*
X28745Y-10005D01*
X28745Y-09776D01*
X28658Y-09565D01*
X28496Y-09403D01*
X28285Y-09315D01*
X28056Y-09315D01*
X27845Y-09402D01*
X27683Y-09564D01*
X27605Y-09748D01*
X26431Y-08575D01*
X27233Y-08575D01*
X27175Y-08715D01*
X27175Y-08924D01*
X27255Y-09117D01*
X27402Y-09265D01*
X27595Y-09345D01*
X27804Y-09345D01*
X27984Y-09270D01*
X29663Y-09270D01*
X29751Y-09357D01*
X29751Y-09499D01*
X29850Y-09738D01*
X30032Y-09920D01*
X30271Y-10019D01*
X30529Y-10019D01*
X30768Y-09920D01*
X30950Y-09738D01*
X31049Y-09499D01*
X31049Y-09241D01*
X30950Y-09002D01*
X30768Y-08820D01*
X30529Y-08721D01*
X30387Y-08721D01*
X30241Y-08575D01*
X35788Y-08575D01*
X35682Y-08682D01*
X35584Y-08827D01*
X35550Y-09000D01*
X35584Y-09173D01*
X35682Y-09318D01*
X35827Y-09416D01*
X36000Y-09450D01*
X36173Y-09416D01*
X36247Y-09365D01*
G54D10*
G36*
X40785Y-16139D02*
X40444Y-16480D01*
X38442Y-16480D01*
X38442Y-14699D01*
X38442Y-14481D01*
X38358Y-14279D01*
X38204Y-14125D01*
X38119Y-14090D01*
X38204Y-14055D01*
X38358Y-13901D01*
X38442Y-13699D01*
X38442Y-13481D01*
X38358Y-13279D01*
X38204Y-13125D01*
X38119Y-13090D01*
X38204Y-13055D01*
X38358Y-12901D01*
X38442Y-12699D01*
X38442Y-12481D01*
X38358Y-12279D01*
X38204Y-12125D01*
X38119Y-12090D01*
X38204Y-12055D01*
X38358Y-11901D01*
X38442Y-11699D01*
X38442Y-11481D01*
X38358Y-11279D01*
X38204Y-11125D01*
X38124Y-11091D01*
X38290Y-10972D01*
X38405Y-10786D01*
X38422Y-10727D01*
X38375Y-10640D01*
X37840Y-10640D01*
X37790Y-10640D01*
X37690Y-10640D01*
X37640Y-10640D01*
X37105Y-10640D01*
X37058Y-10727D01*
X37075Y-10786D01*
X37190Y-10972D01*
X37355Y-11091D01*
X37276Y-11125D01*
X37122Y-11279D01*
X37038Y-11481D01*
X37038Y-11699D01*
X37122Y-11901D01*
X37276Y-12055D01*
X37360Y-12090D01*
X37276Y-12125D01*
X37122Y-12279D01*
X37089Y-12358D01*
X37089Y-12104D01*
X37078Y-11900D01*
X37022Y-11763D01*
X36931Y-11740D01*
X36860Y-11811D01*
X36860Y-11669D01*
X36837Y-11578D01*
X36644Y-11511D01*
X36440Y-11522D01*
X36303Y-11578D01*
X36280Y-11669D01*
X36570Y-11959D01*
X36860Y-11669D01*
X36860Y-11811D01*
X36641Y-12030D01*
X36931Y-12320D01*
X37022Y-12297D01*
X37089Y-12104D01*
X37089Y-12358D01*
X37038Y-12481D01*
X37038Y-12699D01*
X37122Y-12901D01*
X37276Y-13055D01*
X37360Y-13090D01*
X37276Y-13125D01*
X37122Y-13279D01*
X37069Y-13406D01*
X37138Y-13214D01*
X37126Y-12991D01*
X37062Y-12834D01*
X36966Y-12805D01*
X36895Y-12876D01*
X36895Y-12734D01*
X36866Y-12638D01*
X36860Y-12635D01*
X36860Y-12391D01*
X36570Y-12101D01*
X36499Y-12172D01*
X36499Y-12030D01*
X36209Y-11740D01*
X36118Y-11763D01*
X36051Y-11956D01*
X36062Y-12160D01*
X36118Y-12297D01*
X36209Y-12320D01*
X36499Y-12030D01*
X36499Y-12172D01*
X36280Y-12391D01*
X36303Y-12482D01*
X36496Y-12549D01*
X36700Y-12538D01*
X36837Y-12482D01*
X36860Y-12391D01*
X36860Y-12635D01*
X36654Y-12562D01*
X36431Y-12574D01*
X36274Y-12638D01*
X36245Y-12734D01*
X36570Y-13059D01*
X36895Y-12734D01*
X36895Y-12876D01*
X36641Y-13130D01*
X36966Y-13455D01*
X37060Y-13426D01*
X37038Y-13481D01*
X37038Y-13699D01*
X37122Y-13901D01*
X37276Y-14055D01*
X37360Y-14090D01*
X37276Y-14125D01*
X37122Y-14279D01*
X37119Y-14284D01*
X36895Y-14508D01*
X36895Y-13526D01*
X36570Y-13201D01*
X36499Y-13272D01*
X36499Y-13130D01*
X36174Y-12805D01*
X36078Y-12834D01*
X36002Y-13046D01*
X36014Y-13269D01*
X36078Y-13426D01*
X36174Y-13455D01*
X36499Y-13130D01*
X36499Y-13272D01*
X36245Y-13526D01*
X36274Y-13622D01*
X36486Y-13698D01*
X36709Y-13686D01*
X36866Y-13622D01*
X36895Y-13526D01*
X36895Y-14508D01*
X36479Y-14925D01*
X36476Y-14925D01*
X36265Y-15012D01*
X36145Y-15132D01*
X36145Y-14415D01*
X36145Y-14206D01*
X36065Y-14013D01*
X35918Y-13865D01*
X35736Y-13789D01*
X34758Y-12812D01*
X34613Y-12714D01*
X34440Y-12680D01*
X34020Y-12680D01*
X34020Y-12482D01*
X34056Y-12446D01*
X34094Y-12355D01*
X34094Y-12256D01*
X34094Y-11706D01*
X34056Y-11614D01*
X33986Y-11544D01*
X33895Y-11506D01*
X33796Y-11506D01*
X33246Y-11506D01*
X33154Y-11544D01*
X33084Y-11614D01*
X33046Y-11705D01*
X33046Y-11804D01*
X33046Y-12354D01*
X33084Y-12446D01*
X33120Y-12482D01*
X33120Y-12767D01*
X33083Y-12804D01*
X32995Y-13015D01*
X32995Y-13105D01*
X32974Y-13137D01*
X32940Y-13310D01*
X32974Y-13483D01*
X33072Y-13628D01*
X33217Y-13726D01*
X33390Y-13760D01*
X33563Y-13726D01*
X33594Y-13705D01*
X33684Y-13705D01*
X33895Y-13618D01*
X33933Y-13580D01*
X34253Y-13580D01*
X35100Y-14427D01*
X35175Y-14607D01*
X35322Y-14755D01*
X35515Y-14835D01*
X35724Y-14835D01*
X35917Y-14755D01*
X36065Y-14608D01*
X36145Y-14415D01*
X36145Y-15132D01*
X36103Y-15174D01*
X36015Y-15385D01*
X36015Y-15614D01*
X36102Y-15825D01*
X36264Y-15987D01*
X36475Y-16075D01*
X36704Y-16075D01*
X36915Y-15988D01*
X37077Y-15826D01*
X37086Y-15804D01*
X37190Y-15972D01*
X37367Y-16100D01*
X37580Y-16150D01*
X37690Y-16150D01*
X37690Y-15690D01*
X37690Y-15640D01*
X37690Y-15540D01*
X37790Y-15540D01*
X37840Y-15540D01*
X38375Y-15540D01*
X38422Y-15453D01*
X38405Y-15394D01*
X38290Y-15208D01*
X38124Y-15088D01*
X38204Y-15055D01*
X38358Y-14901D01*
X38442Y-14699D01*
X38442Y-16480D01*
X38422Y-16480D01*
X38422Y-15727D01*
X38375Y-15640D01*
X37790Y-15640D01*
X37790Y-16150D01*
X37900Y-16150D01*
X38113Y-16100D01*
X38290Y-15972D01*
X38405Y-15786D01*
X38422Y-15727D01*
X38422Y-16480D01*
X37100Y-16480D01*
X37012Y-16480D01*
X36976Y-16444D01*
X36885Y-16406D01*
X36786Y-16406D01*
X36236Y-16406D01*
X36144Y-16444D01*
X36142Y-16445D01*
X35568Y-15872D01*
X35423Y-15774D01*
X35250Y-15740D01*
X34112Y-15740D01*
X34165Y-15615D01*
X34165Y-15386D01*
X34078Y-15175D01*
X34040Y-15137D01*
X34040Y-14632D01*
X34065Y-14608D01*
X34145Y-14415D01*
X34145Y-14206D01*
X34065Y-14013D01*
X33918Y-13865D01*
X33725Y-13785D01*
X33516Y-13785D01*
X33323Y-13865D01*
X33175Y-14012D01*
X33095Y-14205D01*
X33095Y-14414D01*
X33140Y-14522D01*
X33140Y-15137D01*
X33103Y-15174D01*
X33015Y-15385D01*
X33015Y-15614D01*
X33032Y-15656D01*
X31649Y-14273D01*
X31661Y-14261D01*
X31699Y-14170D01*
X31699Y-14071D01*
X31699Y-13471D01*
X31693Y-13456D01*
X31693Y-12899D01*
X31682Y-12686D01*
X31622Y-12539D01*
X31528Y-12512D01*
X31458Y-12582D01*
X31458Y-12442D01*
X31431Y-12348D01*
X31229Y-12277D01*
X31016Y-12288D01*
X30869Y-12348D01*
X30842Y-12442D01*
X31150Y-12749D01*
X31458Y-12442D01*
X31458Y-12582D01*
X31221Y-12820D01*
X31528Y-13128D01*
X31622Y-13101D01*
X31693Y-12899D01*
X31693Y-13456D01*
X31661Y-13379D01*
X31591Y-13309D01*
X31500Y-13271D01*
X31437Y-13271D01*
X31458Y-13198D01*
X31150Y-12891D01*
X31079Y-12961D01*
X31079Y-12820D01*
X30772Y-12512D01*
X30678Y-12539D01*
X30607Y-12741D01*
X30618Y-12954D01*
X30678Y-13101D01*
X30772Y-13128D01*
X31079Y-12820D01*
X31079Y-12961D01*
X30842Y-13198D01*
X30862Y-13271D01*
X30801Y-13271D01*
X30709Y-13309D01*
X30639Y-13379D01*
X30601Y-13470D01*
X30601Y-13569D01*
X30601Y-14169D01*
X30639Y-14261D01*
X30700Y-14322D01*
X30700Y-14410D01*
X30734Y-14583D01*
X30832Y-14728D01*
X31449Y-15345D01*
X31346Y-15345D01*
X31153Y-15425D01*
X31005Y-15572D01*
X30946Y-15712D01*
X30902Y-15603D01*
X30811Y-15580D01*
X30740Y-15651D01*
X30740Y-15509D01*
X30717Y-15418D01*
X30524Y-15351D01*
X30320Y-15362D01*
X30183Y-15418D01*
X30160Y-15509D01*
X30450Y-15799D01*
X30740Y-15509D01*
X30740Y-15651D01*
X30521Y-15870D01*
X30811Y-16160D01*
X30902Y-16137D01*
X30943Y-16018D01*
X31005Y-16167D01*
X31152Y-16315D01*
X31226Y-16346D01*
X31126Y-16346D01*
X31034Y-16384D01*
X30964Y-16454D01*
X30926Y-16545D01*
X30926Y-16644D01*
X30926Y-17194D01*
X30964Y-17286D01*
X31034Y-17356D01*
X31043Y-17360D01*
X30740Y-17360D01*
X30740Y-16231D01*
X30450Y-15941D01*
X30379Y-16012D01*
X30379Y-15870D01*
X30089Y-15580D01*
X29998Y-15603D01*
X29931Y-15796D01*
X29942Y-16000D01*
X29998Y-16137D01*
X30089Y-16160D01*
X30379Y-15870D01*
X30379Y-16012D01*
X30160Y-16231D01*
X30183Y-16322D01*
X30376Y-16389D01*
X30580Y-16378D01*
X30717Y-16322D01*
X30740Y-16231D01*
X30740Y-17360D01*
X18775Y-17360D01*
X18775Y-16675D01*
X18775Y-16466D01*
X18695Y-16273D01*
X18548Y-16125D01*
X18355Y-16045D01*
X18146Y-16045D01*
X17965Y-16120D01*
X17625Y-16120D01*
X17625Y-13685D01*
X17625Y-13456D01*
X17538Y-13245D01*
X17500Y-13207D01*
X17500Y-12355D01*
X17525Y-12295D01*
X17525Y-12086D01*
X17519Y-12071D01*
X17519Y-10264D01*
X17508Y-10060D01*
X17452Y-09923D01*
X17361Y-09900D01*
X17290Y-09971D01*
X17290Y-09829D01*
X17267Y-09738D01*
X17074Y-09671D01*
X17025Y-09673D01*
X17025Y-09216D01*
X16700Y-08891D01*
X16375Y-09216D01*
X16404Y-09312D01*
X16616Y-09388D01*
X16839Y-09376D01*
X16996Y-09312D01*
X17025Y-09216D01*
X17025Y-09673D01*
X16870Y-09682D01*
X16733Y-09738D01*
X16710Y-09829D01*
X17000Y-10119D01*
X17290Y-09829D01*
X17290Y-09971D01*
X17071Y-10190D01*
X17361Y-10480D01*
X17452Y-10457D01*
X17519Y-10264D01*
X17519Y-12071D01*
X17445Y-11893D01*
X17298Y-11745D01*
X17290Y-11741D01*
X17290Y-10551D01*
X17000Y-10261D01*
X16929Y-10332D01*
X16929Y-10190D01*
X16639Y-09900D01*
X16548Y-09923D01*
X16481Y-10116D01*
X16492Y-10320D01*
X16548Y-10457D01*
X16639Y-10480D01*
X16929Y-10190D01*
X16929Y-10332D01*
X16710Y-10551D01*
X16733Y-10642D01*
X16926Y-10709D01*
X17130Y-10698D01*
X17267Y-10642D01*
X17290Y-10551D01*
X17290Y-11741D01*
X17105Y-11665D01*
X16896Y-11665D01*
X16703Y-11745D01*
X16555Y-11892D01*
X16475Y-12085D01*
X16475Y-12294D01*
X16555Y-12487D01*
X16600Y-12532D01*
X16600Y-13207D01*
X16563Y-13244D01*
X16475Y-13455D01*
X16475Y-13684D01*
X16562Y-13895D01*
X16724Y-14057D01*
X16935Y-14145D01*
X17164Y-14145D01*
X17375Y-14058D01*
X17537Y-13896D01*
X17625Y-13685D01*
X17625Y-16120D01*
X17413Y-16120D01*
X17376Y-16083D01*
X17165Y-15995D01*
X16936Y-15995D01*
X16725Y-16082D01*
X16687Y-16120D01*
X16226Y-16120D01*
X15990Y-15884D01*
X15990Y-15530D01*
X16004Y-15525D01*
X16158Y-15371D01*
X16242Y-15169D01*
X16242Y-14951D01*
X16158Y-14749D01*
X16004Y-14595D01*
X15919Y-14560D01*
X16004Y-14525D01*
X16158Y-14371D01*
X16242Y-14169D01*
X16242Y-13951D01*
X16158Y-13749D01*
X16004Y-13595D01*
X15919Y-13560D01*
X16004Y-13525D01*
X16158Y-13371D01*
X16242Y-13169D01*
X16242Y-12951D01*
X16158Y-12749D01*
X16004Y-12595D01*
X15919Y-12560D01*
X16004Y-12525D01*
X16158Y-12371D01*
X16242Y-12169D01*
X16242Y-11951D01*
X16158Y-11749D01*
X16004Y-11595D01*
X15990Y-11589D01*
X15990Y-11218D01*
X16047Y-11195D01*
X16195Y-11048D01*
X16275Y-10855D01*
X16275Y-10646D01*
X16195Y-10453D01*
X16048Y-10305D01*
X15855Y-10225D01*
X15646Y-10225D01*
X15453Y-10305D01*
X15305Y-10452D01*
X15229Y-10634D01*
X15222Y-10642D01*
X15124Y-10787D01*
X15090Y-10960D01*
X15090Y-11589D01*
X15076Y-11595D01*
X14922Y-11749D01*
X14838Y-11951D01*
X14838Y-12169D01*
X14922Y-12371D01*
X15076Y-12525D01*
X15160Y-12560D01*
X15076Y-12595D01*
X15061Y-12610D01*
X14275Y-12610D01*
X14275Y-10855D01*
X14275Y-10646D01*
X14195Y-10453D01*
X14048Y-10305D01*
X13855Y-10225D01*
X13646Y-10225D01*
X13453Y-10305D01*
X13305Y-10452D01*
X13225Y-10645D01*
X13225Y-10854D01*
X13300Y-11034D01*
X13300Y-11564D01*
X13254Y-11610D01*
X13201Y-11610D01*
X13201Y-11609D01*
X13131Y-11539D01*
X13040Y-11501D01*
X12941Y-11501D01*
X12749Y-11501D01*
X12749Y-10500D01*
X12749Y-10401D01*
X12749Y-09801D01*
X12743Y-09786D01*
X12743Y-09229D01*
X12732Y-09016D01*
X12672Y-08869D01*
X12578Y-08842D01*
X12508Y-08912D01*
X12508Y-08772D01*
X12481Y-08678D01*
X12279Y-08607D01*
X12066Y-08618D01*
X11919Y-08678D01*
X11892Y-08772D01*
X12200Y-09079D01*
X12508Y-08772D01*
X12508Y-08912D01*
X12271Y-09150D01*
X12578Y-09458D01*
X12672Y-09431D01*
X12743Y-09229D01*
X12743Y-09786D01*
X12711Y-09709D01*
X12641Y-09639D01*
X12550Y-09601D01*
X12487Y-09601D01*
X12508Y-09528D01*
X12200Y-09221D01*
X12129Y-09291D01*
X12129Y-09150D01*
X11822Y-08842D01*
X11728Y-08869D01*
X11657Y-09071D01*
X11668Y-09284D01*
X11728Y-09431D01*
X11822Y-09458D01*
X12129Y-09150D01*
X12129Y-09291D01*
X11892Y-09528D01*
X11912Y-09601D01*
X11851Y-09601D01*
X11759Y-09639D01*
X11689Y-09709D01*
X11651Y-09800D01*
X11651Y-09899D01*
X11651Y-10499D01*
X11689Y-10591D01*
X11759Y-10661D01*
X11850Y-10699D01*
X11949Y-10699D01*
X12549Y-10699D01*
X12641Y-10661D01*
X12711Y-10591D01*
X12749Y-10500D01*
X12749Y-11501D01*
X12041Y-11501D01*
X11949Y-11539D01*
X11879Y-11609D01*
X11853Y-11669D01*
X11854Y-11612D01*
X11854Y-11388D01*
X11853Y-11097D01*
X11815Y-11005D01*
X11745Y-10935D01*
X11654Y-10897D01*
X11555Y-10897D01*
X11362Y-10896D01*
X11300Y-10958D01*
X11300Y-11450D01*
X11792Y-11450D01*
X11854Y-11388D01*
X11854Y-11612D01*
X11792Y-11550D01*
X11300Y-11550D01*
X11300Y-12042D01*
X11362Y-12104D01*
X11555Y-12103D01*
X11654Y-12103D01*
X11745Y-12065D01*
X11815Y-11995D01*
X11841Y-11932D01*
X11841Y-12419D01*
X11879Y-12511D01*
X11949Y-12581D01*
X12040Y-12619D01*
X12071Y-12619D01*
X11990Y-12678D01*
X11875Y-12864D01*
X11858Y-12923D01*
X11905Y-13010D01*
X12440Y-13010D01*
X12490Y-13010D01*
X12590Y-13010D01*
X12640Y-13010D01*
X13175Y-13010D01*
X13222Y-12923D01*
X13205Y-12864D01*
X13090Y-12678D01*
X13008Y-12619D01*
X13039Y-12619D01*
X13131Y-12581D01*
X13201Y-12511D01*
X13201Y-12510D01*
X13440Y-12510D01*
X13612Y-12476D01*
X13613Y-12476D01*
X13758Y-12378D01*
X14068Y-12068D01*
X14165Y-11923D01*
X14166Y-11922D01*
X14199Y-11750D01*
X14200Y-11750D01*
X14200Y-11035D01*
X14275Y-10855D01*
X14275Y-12610D01*
X14170Y-12610D01*
X13997Y-12644D01*
X13852Y-12742D01*
X13424Y-13170D01*
X13326Y-13315D01*
X13292Y-13488D01*
X13292Y-16098D01*
X13222Y-16127D01*
X13222Y-15197D01*
X13175Y-15110D01*
X12590Y-15110D01*
X12590Y-15620D01*
X12700Y-15620D01*
X12913Y-15570D01*
X13090Y-15442D01*
X13205Y-15256D01*
X13222Y-15197D01*
X13222Y-16127D01*
X13203Y-16135D01*
X13055Y-16282D01*
X12975Y-16475D01*
X12975Y-16684D01*
X13055Y-16877D01*
X13202Y-17025D01*
X13395Y-17105D01*
X13604Y-17105D01*
X13797Y-17025D01*
X13945Y-16878D01*
X14020Y-16695D01*
X14060Y-16656D01*
X14158Y-16511D01*
X14158Y-16510D01*
X14192Y-16338D01*
X14192Y-13674D01*
X14356Y-13510D01*
X15061Y-13510D01*
X15076Y-13525D01*
X15160Y-13560D01*
X15076Y-13595D01*
X14922Y-13749D01*
X14838Y-13951D01*
X14838Y-14169D01*
X14922Y-14371D01*
X15076Y-14525D01*
X15160Y-14560D01*
X15076Y-14595D01*
X14922Y-14749D01*
X14838Y-14951D01*
X14838Y-15169D01*
X14922Y-15371D01*
X15076Y-15525D01*
X15090Y-15530D01*
X15090Y-16070D01*
X15124Y-16243D01*
X15222Y-16388D01*
X15722Y-16888D01*
X15867Y-16986D01*
X15868Y-16986D01*
X16040Y-17020D01*
X16687Y-17020D01*
X16724Y-17057D01*
X16935Y-17145D01*
X17164Y-17145D01*
X17375Y-17058D01*
X17413Y-17020D01*
X17964Y-17020D01*
X18145Y-17095D01*
X18354Y-17095D01*
X18547Y-17015D01*
X18695Y-16868D01*
X18775Y-16675D01*
X18775Y-17360D01*
X12490Y-17360D01*
X12490Y-15620D01*
X12490Y-15110D01*
X11905Y-15110D01*
X11858Y-15197D01*
X11875Y-15256D01*
X11990Y-15442D01*
X12167Y-15570D01*
X12380Y-15620D01*
X12490Y-15620D01*
X12490Y-17360D01*
X12019Y-17360D01*
X12019Y-16654D01*
X12008Y-16450D01*
X11952Y-16313D01*
X11861Y-16290D01*
X11571Y-16580D01*
X11861Y-16870D01*
X11952Y-16847D01*
X12019Y-16654D01*
X12019Y-17360D01*
X11790Y-17360D01*
X11790Y-16941D01*
X11500Y-16651D01*
X11429Y-16722D01*
X11429Y-16580D01*
X11139Y-16290D01*
X11048Y-16313D01*
X10981Y-16506D01*
X10992Y-16710D01*
X11048Y-16847D01*
X11139Y-16870D01*
X11429Y-16580D01*
X11429Y-16722D01*
X11210Y-16941D01*
X11233Y-17032D01*
X11426Y-17099D01*
X11630Y-17088D01*
X11767Y-17032D01*
X11790Y-16941D01*
X11790Y-17360D01*
X10825Y-17360D01*
X10825Y-15928D01*
X10908Y-16011D01*
X11129Y-16103D01*
X11294Y-16103D01*
X11233Y-16128D01*
X11210Y-16219D01*
X11500Y-16509D01*
X11790Y-16219D01*
X11767Y-16128D01*
X11574Y-16061D01*
X11455Y-16067D01*
X11591Y-16012D01*
X11761Y-15842D01*
X11853Y-15621D01*
X11853Y-15381D01*
X11762Y-15159D01*
X11700Y-15097D01*
X11700Y-14686D01*
X11876Y-14510D01*
X12061Y-14510D01*
X12076Y-14525D01*
X12155Y-14558D01*
X11990Y-14678D01*
X11875Y-14864D01*
X11858Y-14923D01*
X11905Y-15010D01*
X12440Y-15010D01*
X12490Y-15010D01*
X12590Y-15010D01*
X12640Y-15010D01*
X13175Y-15010D01*
X13222Y-14923D01*
X13205Y-14864D01*
X13090Y-14678D01*
X12924Y-14558D01*
X13004Y-14525D01*
X13158Y-14371D01*
X13242Y-14169D01*
X13242Y-13951D01*
X13158Y-13749D01*
X13004Y-13595D01*
X12924Y-13561D01*
X13090Y-13442D01*
X13205Y-13256D01*
X13222Y-13197D01*
X13175Y-13110D01*
X12640Y-13110D01*
X12590Y-13110D01*
X12490Y-13110D01*
X12440Y-13110D01*
X11905Y-13110D01*
X11858Y-13197D01*
X11875Y-13256D01*
X11990Y-13442D01*
X12155Y-13561D01*
X12076Y-13595D01*
X12061Y-13610D01*
X11690Y-13610D01*
X11517Y-13644D01*
X11372Y-13742D01*
X10932Y-14182D01*
X10834Y-14327D01*
X10825Y-14372D01*
X10825Y-12094D01*
X10846Y-12103D01*
X10945Y-12103D01*
X11138Y-12104D01*
X11200Y-12042D01*
X11200Y-11600D01*
X11200Y-11550D01*
X11200Y-11450D01*
X11200Y-11400D01*
X11200Y-10958D01*
X11138Y-10896D01*
X10945Y-10897D01*
X10846Y-10897D01*
X10825Y-10905D01*
X10825Y-08575D01*
X16189Y-08575D01*
X16132Y-08736D01*
X16144Y-08959D01*
X16208Y-09116D01*
X16304Y-09145D01*
X16594Y-08855D01*
X16629Y-08820D01*
X16700Y-08749D01*
X16771Y-08820D01*
X16806Y-08855D01*
X17096Y-09145D01*
X17192Y-09116D01*
X17268Y-08904D01*
X17256Y-08681D01*
X17212Y-08575D01*
X19179Y-08575D01*
X19125Y-08705D01*
X19125Y-08762D01*
X19034Y-08897D01*
X19000Y-09070D01*
X19000Y-09884D01*
X18925Y-10065D01*
X18925Y-10274D01*
X19005Y-10467D01*
X19152Y-10615D01*
X19345Y-10695D01*
X19554Y-10695D01*
X19747Y-10615D01*
X19895Y-10468D01*
X19975Y-10275D01*
X19975Y-10066D01*
X19900Y-09885D01*
X19900Y-09359D01*
X20025Y-09308D01*
X20063Y-09270D01*
X21380Y-09270D01*
X21380Y-09604D01*
X21305Y-09785D01*
X21305Y-09994D01*
X21385Y-10187D01*
X21485Y-10288D01*
X21321Y-10288D01*
X21119Y-10372D01*
X20965Y-10526D01*
X20881Y-10728D01*
X20881Y-10946D01*
X20881Y-11252D01*
X20965Y-11454D01*
X21119Y-11608D01*
X21321Y-11692D01*
X21539Y-11692D01*
X21741Y-11608D01*
X21895Y-11454D01*
X21900Y-11440D01*
X21959Y-11440D01*
X21965Y-11454D01*
X21980Y-11469D01*
X21980Y-11500D01*
X22014Y-11672D01*
X22050Y-11725D01*
X22050Y-12750D01*
X22084Y-12923D01*
X22182Y-13068D01*
X22402Y-13288D01*
X22321Y-13288D01*
X22119Y-13372D01*
X21989Y-13502D01*
X21989Y-13491D01*
X21951Y-13399D01*
X21881Y-13329D01*
X21790Y-13291D01*
X21691Y-13291D01*
X21071Y-13291D01*
X20979Y-13329D01*
X20909Y-13399D01*
X20871Y-13490D01*
X20871Y-13540D01*
X20520Y-13540D01*
X20480Y-13540D01*
X20156Y-13540D01*
X19949Y-13333D01*
X19880Y-13165D01*
X19880Y-12482D01*
X19895Y-12468D01*
X19975Y-12275D01*
X19975Y-12066D01*
X19895Y-11873D01*
X19748Y-11725D01*
X19555Y-11645D01*
X19346Y-11645D01*
X19153Y-11725D01*
X19005Y-11872D01*
X18925Y-12065D01*
X18925Y-12274D01*
X18980Y-12406D01*
X18980Y-13164D01*
X18905Y-13345D01*
X18905Y-13554D01*
X18985Y-13747D01*
X19132Y-13895D01*
X19314Y-13970D01*
X19651Y-14308D01*
X19652Y-14308D01*
X19749Y-14373D01*
X19797Y-14405D01*
X19798Y-14406D01*
X19970Y-14440D01*
X20070Y-14440D01*
X20070Y-15067D01*
X20033Y-15104D01*
X19945Y-15315D01*
X19945Y-15321D01*
X19875Y-15153D01*
X19728Y-15005D01*
X19546Y-14929D01*
X18868Y-14252D01*
X18750Y-14172D01*
X18750Y-13533D01*
X18787Y-13496D01*
X18875Y-13285D01*
X18875Y-13056D01*
X18868Y-13039D01*
X18868Y-10254D01*
X18856Y-10031D01*
X18792Y-09874D01*
X18696Y-09845D01*
X18625Y-09916D01*
X18625Y-09774D01*
X18596Y-09678D01*
X18384Y-09602D01*
X18161Y-09614D01*
X18004Y-09678D01*
X17975Y-09774D01*
X18300Y-10099D01*
X18625Y-09774D01*
X18625Y-09916D01*
X18371Y-10170D01*
X18696Y-10495D01*
X18792Y-10466D01*
X18868Y-10254D01*
X18868Y-13039D01*
X18788Y-12845D01*
X18626Y-12683D01*
X18625Y-12682D01*
X18625Y-10566D01*
X18300Y-10241D01*
X18229Y-10312D01*
X18229Y-10170D01*
X17904Y-09845D01*
X17808Y-09874D01*
X17732Y-10086D01*
X17744Y-10309D01*
X17808Y-10466D01*
X17904Y-10495D01*
X18229Y-10170D01*
X18229Y-10312D01*
X17975Y-10566D01*
X18004Y-10662D01*
X18216Y-10738D01*
X18439Y-10726D01*
X18596Y-10662D01*
X18625Y-10566D01*
X18625Y-12682D01*
X18415Y-12595D01*
X18186Y-12595D01*
X17975Y-12682D01*
X17813Y-12844D01*
X17725Y-13055D01*
X17725Y-13284D01*
X17812Y-13495D01*
X17850Y-13533D01*
X17850Y-14227D01*
X17805Y-14272D01*
X17725Y-14465D01*
X17725Y-14674D01*
X17805Y-14867D01*
X17952Y-15015D01*
X18145Y-15095D01*
X18354Y-15095D01*
X18413Y-15070D01*
X18910Y-15567D01*
X18980Y-15734D01*
X18980Y-16414D01*
X18955Y-16475D01*
X18955Y-16684D01*
X19035Y-16877D01*
X19182Y-17025D01*
X19375Y-17105D01*
X19584Y-17105D01*
X19777Y-17025D01*
X19925Y-16878D01*
X20005Y-16685D01*
X20005Y-16476D01*
X19925Y-16283D01*
X19880Y-16237D01*
X19880Y-15735D01*
X19952Y-15561D01*
X20032Y-15755D01*
X20194Y-15917D01*
X20405Y-16005D01*
X20634Y-16005D01*
X20845Y-15918D01*
X21007Y-15756D01*
X21095Y-15545D01*
X21095Y-15316D01*
X21008Y-15105D01*
X20970Y-15067D01*
X20970Y-14642D01*
X20979Y-14651D01*
X21070Y-14689D01*
X21169Y-14689D01*
X21789Y-14689D01*
X21881Y-14651D01*
X21951Y-14581D01*
X21980Y-14511D01*
X21980Y-15163D01*
X21162Y-15982D01*
X21064Y-16127D01*
X21032Y-16288D01*
X20955Y-16475D01*
X20955Y-16684D01*
X21035Y-16877D01*
X21182Y-17025D01*
X21375Y-17105D01*
X21584Y-17105D01*
X21777Y-17025D01*
X21925Y-16878D01*
X22005Y-16685D01*
X22005Y-16476D01*
X21986Y-16430D01*
X22536Y-15880D01*
X23157Y-15880D01*
X23194Y-15917D01*
X23405Y-16005D01*
X23634Y-16005D01*
X23845Y-15918D01*
X24007Y-15756D01*
X24095Y-15545D01*
X24095Y-15316D01*
X24008Y-15105D01*
X23846Y-14943D01*
X23635Y-14855D01*
X23406Y-14855D01*
X23195Y-14942D01*
X23157Y-14980D01*
X22880Y-14980D01*
X22880Y-14469D01*
X22895Y-14454D01*
X22930Y-14369D01*
X22965Y-14454D01*
X23119Y-14608D01*
X23321Y-14692D01*
X23539Y-14692D01*
X23741Y-14608D01*
X23895Y-14454D01*
X23930Y-14369D01*
X23965Y-14454D01*
X24119Y-14608D01*
X24321Y-14692D01*
X24539Y-14692D01*
X24741Y-14608D01*
X24895Y-14454D01*
X24930Y-14369D01*
X24965Y-14454D01*
X25119Y-14608D01*
X25321Y-14692D01*
X25539Y-14692D01*
X25741Y-14608D01*
X25895Y-14454D01*
X25930Y-14369D01*
X25965Y-14454D01*
X26040Y-14529D01*
X26040Y-15154D01*
X25965Y-15335D01*
X25965Y-15544D01*
X26040Y-15724D01*
X26040Y-15854D01*
X25831Y-16062D01*
X25645Y-15985D01*
X25416Y-15985D01*
X25205Y-16072D01*
X25043Y-16234D01*
X24955Y-16445D01*
X24955Y-16674D01*
X25042Y-16885D01*
X25204Y-17047D01*
X25415Y-17135D01*
X25644Y-17135D01*
X25855Y-17048D01*
X25893Y-17010D01*
X25970Y-17010D01*
X26142Y-16976D01*
X26143Y-16976D01*
X26288Y-16878D01*
X26808Y-16358D01*
X26906Y-16213D01*
X26906Y-16212D01*
X26911Y-16184D01*
X26939Y-16040D01*
X26940Y-16040D01*
X26940Y-15725D01*
X27015Y-15545D01*
X27015Y-15336D01*
X26940Y-15155D01*
X26940Y-14393D01*
X26965Y-14454D01*
X27001Y-14490D01*
X27014Y-14553D01*
X27112Y-14698D01*
X27969Y-15555D01*
X28040Y-15724D01*
X28040Y-16241D01*
X27955Y-16445D01*
X27955Y-16674D01*
X28042Y-16885D01*
X28204Y-17047D01*
X28415Y-17135D01*
X28644Y-17135D01*
X28855Y-17048D01*
X29017Y-16886D01*
X29105Y-16675D01*
X29105Y-16446D01*
X29018Y-16235D01*
X28940Y-16157D01*
X28940Y-15725D01*
X29015Y-15545D01*
X29015Y-15336D01*
X28935Y-15143D01*
X28788Y-14995D01*
X28605Y-14919D01*
X28126Y-14440D01*
X28480Y-14440D01*
X28652Y-14406D01*
X28653Y-14406D01*
X28798Y-14308D01*
X30936Y-12170D01*
X31600Y-12170D01*
X31772Y-12136D01*
X31773Y-12136D01*
X31918Y-12038D01*
X33006Y-10950D01*
X35750Y-10950D01*
X35922Y-10916D01*
X35923Y-10916D01*
X36068Y-10818D01*
X36846Y-10040D01*
X37078Y-10040D01*
X37079Y-10041D01*
X37149Y-10111D01*
X37240Y-10149D01*
X37271Y-10149D01*
X37190Y-10208D01*
X37075Y-10394D01*
X37058Y-10453D01*
X37105Y-10540D01*
X37640Y-10540D01*
X37690Y-10540D01*
X37790Y-10540D01*
X37840Y-10540D01*
X38375Y-10540D01*
X38422Y-10453D01*
X38405Y-10394D01*
X38290Y-10208D01*
X38208Y-10149D01*
X38239Y-10149D01*
X38331Y-10111D01*
X38401Y-10041D01*
X38439Y-09950D01*
X38439Y-09851D01*
X38439Y-09231D01*
X38426Y-09200D01*
X39713Y-09200D01*
X40038Y-09524D01*
X40038Y-09699D01*
X40122Y-09901D01*
X40276Y-10055D01*
X40360Y-10090D01*
X40276Y-10125D01*
X40122Y-10279D01*
X40038Y-10481D01*
X40038Y-10699D01*
X40122Y-10901D01*
X40276Y-11055D01*
X40360Y-11090D01*
X40276Y-11125D01*
X40122Y-11279D01*
X40038Y-11481D01*
X40038Y-11699D01*
X40122Y-11901D01*
X40276Y-12055D01*
X40360Y-12090D01*
X40276Y-12125D01*
X40122Y-12279D01*
X40038Y-12481D01*
X40038Y-12699D01*
X40122Y-12901D01*
X40276Y-13055D01*
X40360Y-13090D01*
X40276Y-13125D01*
X40122Y-13279D01*
X40038Y-13481D01*
X40038Y-13699D01*
X40122Y-13901D01*
X40276Y-14055D01*
X40360Y-14090D01*
X40276Y-14125D01*
X40122Y-14279D01*
X40038Y-14481D01*
X40038Y-14699D01*
X40122Y-14901D01*
X40276Y-15055D01*
X40360Y-15090D01*
X40276Y-15125D01*
X40122Y-15279D01*
X40038Y-15481D01*
X40038Y-15699D01*
X40122Y-15901D01*
X40276Y-16055D01*
X40478Y-16139D01*
X40696Y-16139D01*
X40785Y-16139D01*
X40785Y-16139D01*
G37*
G54D27*
X40785Y-16139D02*
X40444Y-16480D01*
X38442Y-16480D01*
X38442Y-14699D01*
X38442Y-14481D01*
X38358Y-14279D01*
X38204Y-14125D01*
X38119Y-14090D01*
X38204Y-14055D01*
X38358Y-13901D01*
X38442Y-13699D01*
X38442Y-13481D01*
X38358Y-13279D01*
X38204Y-13125D01*
X38119Y-13090D01*
X38204Y-13055D01*
X38358Y-12901D01*
X38442Y-12699D01*
X38442Y-12481D01*
X38358Y-12279D01*
X38204Y-12125D01*
X38119Y-12090D01*
X38204Y-12055D01*
X38358Y-11901D01*
X38442Y-11699D01*
X38442Y-11481D01*
X38358Y-11279D01*
X38204Y-11125D01*
X38124Y-11091D01*
X38290Y-10972D01*
X38405Y-10786D01*
X38422Y-10727D01*
X38375Y-10640D01*
X37840Y-10640D01*
X37790Y-10640D01*
X37690Y-10640D01*
X37640Y-10640D01*
X37105Y-10640D01*
X37058Y-10727D01*
X37075Y-10786D01*
X37190Y-10972D01*
X37355Y-11091D01*
X37276Y-11125D01*
X37122Y-11279D01*
X37038Y-11481D01*
X37038Y-11699D01*
X37122Y-11901D01*
X37276Y-12055D01*
X37360Y-12090D01*
X37276Y-12125D01*
X37122Y-12279D01*
X37089Y-12358D01*
X37089Y-12104D01*
X37078Y-11900D01*
X37022Y-11763D01*
X36931Y-11740D01*
X36860Y-11811D01*
X36860Y-11669D01*
X36837Y-11578D01*
X36644Y-11511D01*
X36440Y-11522D01*
X36303Y-11578D01*
X36280Y-11669D01*
X36570Y-11959D01*
X36860Y-11669D01*
X36860Y-11811D01*
X36641Y-12030D01*
X36931Y-12320D01*
X37022Y-12297D01*
X37089Y-12104D01*
X37089Y-12358D01*
X37038Y-12481D01*
X37038Y-12699D01*
X37122Y-12901D01*
X37276Y-13055D01*
X37360Y-13090D01*
X37276Y-13125D01*
X37122Y-13279D01*
X37069Y-13406D01*
X37138Y-13214D01*
X37126Y-12991D01*
X37062Y-12834D01*
X36966Y-12805D01*
X36895Y-12876D01*
X36895Y-12734D01*
X36866Y-12638D01*
X36860Y-12635D01*
X36860Y-12391D01*
X36570Y-12101D01*
X36499Y-12172D01*
X36499Y-12030D01*
X36209Y-11740D01*
X36118Y-11763D01*
X36051Y-11956D01*
X36062Y-12160D01*
X36118Y-12297D01*
X36209Y-12320D01*
X36499Y-12030D01*
X36499Y-12172D01*
X36280Y-12391D01*
X36303Y-12482D01*
X36496Y-12549D01*
X36700Y-12538D01*
X36837Y-12482D01*
X36860Y-12391D01*
X36860Y-12635D01*
X36654Y-12562D01*
X36431Y-12574D01*
X36274Y-12638D01*
X36245Y-12734D01*
X36570Y-13059D01*
X36895Y-12734D01*
X36895Y-12876D01*
X36641Y-13130D01*
X36966Y-13455D01*
X37060Y-13426D01*
X37038Y-13481D01*
X37038Y-13699D01*
X37122Y-13901D01*
X37276Y-14055D01*
X37360Y-14090D01*
X37276Y-14125D01*
X37122Y-14279D01*
X37119Y-14284D01*
X36895Y-14508D01*
X36895Y-13526D01*
X36570Y-13201D01*
X36499Y-13272D01*
X36499Y-13130D01*
X36174Y-12805D01*
X36078Y-12834D01*
X36002Y-13046D01*
X36014Y-13269D01*
X36078Y-13426D01*
X36174Y-13455D01*
X36499Y-13130D01*
X36499Y-13272D01*
X36245Y-13526D01*
X36274Y-13622D01*
X36486Y-13698D01*
X36709Y-13686D01*
X36866Y-13622D01*
X36895Y-13526D01*
X36895Y-14508D01*
X36479Y-14925D01*
X36476Y-14925D01*
X36265Y-15012D01*
X36145Y-15132D01*
X36145Y-14415D01*
X36145Y-14206D01*
X36065Y-14013D01*
X35918Y-13865D01*
X35736Y-13789D01*
X34758Y-12812D01*
X34613Y-12714D01*
X34440Y-12680D01*
X34020Y-12680D01*
X34020Y-12482D01*
X34056Y-12446D01*
X34094Y-12355D01*
X34094Y-12256D01*
X34094Y-11706D01*
X34056Y-11614D01*
X33986Y-11544D01*
X33895Y-11506D01*
X33796Y-11506D01*
X33246Y-11506D01*
X33154Y-11544D01*
X33084Y-11614D01*
X33046Y-11705D01*
X33046Y-11804D01*
X33046Y-12354D01*
X33084Y-12446D01*
X33120Y-12482D01*
X33120Y-12767D01*
X33083Y-12804D01*
X32995Y-13015D01*
X32995Y-13105D01*
X32974Y-13137D01*
X32940Y-13310D01*
X32974Y-13483D01*
X33072Y-13628D01*
X33217Y-13726D01*
X33390Y-13760D01*
X33563Y-13726D01*
X33594Y-13705D01*
X33684Y-13705D01*
X33895Y-13618D01*
X33933Y-13580D01*
X34253Y-13580D01*
X35100Y-14427D01*
X35175Y-14607D01*
X35322Y-14755D01*
X35515Y-14835D01*
X35724Y-14835D01*
X35917Y-14755D01*
X36065Y-14608D01*
X36145Y-14415D01*
X36145Y-15132D01*
X36103Y-15174D01*
X36015Y-15385D01*
X36015Y-15614D01*
X36102Y-15825D01*
X36264Y-15987D01*
X36475Y-16075D01*
X36704Y-16075D01*
X36915Y-15988D01*
X37077Y-15826D01*
X37086Y-15804D01*
X37190Y-15972D01*
X37367Y-16100D01*
X37580Y-16150D01*
X37690Y-16150D01*
X37690Y-15690D01*
X37690Y-15640D01*
X37690Y-15540D01*
X37790Y-15540D01*
X37840Y-15540D01*
X38375Y-15540D01*
X38422Y-15453D01*
X38405Y-15394D01*
X38290Y-15208D01*
X38124Y-15088D01*
X38204Y-15055D01*
X38358Y-14901D01*
X38442Y-14699D01*
X38442Y-16480D01*
X38422Y-16480D01*
X38422Y-15727D01*
X38375Y-15640D01*
X37790Y-15640D01*
X37790Y-16150D01*
X37900Y-16150D01*
X38113Y-16100D01*
X38290Y-15972D01*
X38405Y-15786D01*
X38422Y-15727D01*
X38422Y-16480D01*
X37100Y-16480D01*
X37012Y-16480D01*
X36976Y-16444D01*
X36885Y-16406D01*
X36786Y-16406D01*
X36236Y-16406D01*
X36144Y-16444D01*
X36142Y-16445D01*
X35568Y-15872D01*
X35423Y-15774D01*
X35250Y-15740D01*
X34112Y-15740D01*
X34165Y-15615D01*
X34165Y-15386D01*
X34078Y-15175D01*
X34040Y-15137D01*
X34040Y-14632D01*
X34065Y-14608D01*
X34145Y-14415D01*
X34145Y-14206D01*
X34065Y-14013D01*
X33918Y-13865D01*
X33725Y-13785D01*
X33516Y-13785D01*
X33323Y-13865D01*
X33175Y-14012D01*
X33095Y-14205D01*
X33095Y-14414D01*
X33140Y-14522D01*
X33140Y-15137D01*
X33103Y-15174D01*
X33015Y-15385D01*
X33015Y-15614D01*
X33032Y-15656D01*
X31649Y-14273D01*
X31661Y-14261D01*
X31699Y-14170D01*
X31699Y-14071D01*
X31699Y-13471D01*
X31693Y-13456D01*
X31693Y-12899D01*
X31682Y-12686D01*
X31622Y-12539D01*
X31528Y-12512D01*
X31458Y-12582D01*
X31458Y-12442D01*
X31431Y-12348D01*
X31229Y-12277D01*
X31016Y-12288D01*
X30869Y-12348D01*
X30842Y-12442D01*
X31150Y-12749D01*
X31458Y-12442D01*
X31458Y-12582D01*
X31221Y-12820D01*
X31528Y-13128D01*
X31622Y-13101D01*
X31693Y-12899D01*
X31693Y-13456D01*
X31661Y-13379D01*
X31591Y-13309D01*
X31500Y-13271D01*
X31437Y-13271D01*
X31458Y-13198D01*
X31150Y-12891D01*
X31079Y-12961D01*
X31079Y-12820D01*
X30772Y-12512D01*
X30678Y-12539D01*
X30607Y-12741D01*
X30618Y-12954D01*
X30678Y-13101D01*
X30772Y-13128D01*
X31079Y-12820D01*
X31079Y-12961D01*
X30842Y-13198D01*
X30862Y-13271D01*
X30801Y-13271D01*
X30709Y-13309D01*
X30639Y-13379D01*
X30601Y-13470D01*
X30601Y-13569D01*
X30601Y-14169D01*
X30639Y-14261D01*
X30700Y-14322D01*
X30700Y-14410D01*
X30734Y-14583D01*
X30832Y-14728D01*
X31449Y-15345D01*
X31346Y-15345D01*
X31153Y-15425D01*
X31005Y-15572D01*
X30946Y-15712D01*
X30902Y-15603D01*
X30811Y-15580D01*
X30740Y-15651D01*
X30740Y-15509D01*
X30717Y-15418D01*
X30524Y-15351D01*
X30320Y-15362D01*
X30183Y-15418D01*
X30160Y-15509D01*
X30450Y-15799D01*
X30740Y-15509D01*
X30740Y-15651D01*
X30521Y-15870D01*
X30811Y-16160D01*
X30902Y-16137D01*
X30943Y-16018D01*
X31005Y-16167D01*
X31152Y-16315D01*
X31226Y-16346D01*
X31126Y-16346D01*
X31034Y-16384D01*
X30964Y-16454D01*
X30926Y-16545D01*
X30926Y-16644D01*
X30926Y-17194D01*
X30964Y-17286D01*
X31034Y-17356D01*
X31043Y-17360D01*
X30740Y-17360D01*
X30740Y-16231D01*
X30450Y-15941D01*
X30379Y-16012D01*
X30379Y-15870D01*
X30089Y-15580D01*
X29998Y-15603D01*
X29931Y-15796D01*
X29942Y-16000D01*
X29998Y-16137D01*
X30089Y-16160D01*
X30379Y-15870D01*
X30379Y-16012D01*
X30160Y-16231D01*
X30183Y-16322D01*
X30376Y-16389D01*
X30580Y-16378D01*
X30717Y-16322D01*
X30740Y-16231D01*
X30740Y-17360D01*
X18775Y-17360D01*
X18775Y-16675D01*
X18775Y-16466D01*
X18695Y-16273D01*
X18548Y-16125D01*
X18355Y-16045D01*
X18146Y-16045D01*
X17965Y-16120D01*
X17625Y-16120D01*
X17625Y-13685D01*
X17625Y-13456D01*
X17538Y-13245D01*
X17500Y-13207D01*
X17500Y-12355D01*
X17525Y-12295D01*
X17525Y-12086D01*
X17519Y-12071D01*
X17519Y-10264D01*
X17508Y-10060D01*
X17452Y-09923D01*
X17361Y-09900D01*
X17290Y-09971D01*
X17290Y-09829D01*
X17267Y-09738D01*
X17074Y-09671D01*
X17025Y-09673D01*
X17025Y-09216D01*
X16700Y-08891D01*
X16375Y-09216D01*
X16404Y-09312D01*
X16616Y-09388D01*
X16839Y-09376D01*
X16996Y-09312D01*
X17025Y-09216D01*
X17025Y-09673D01*
X16870Y-09682D01*
X16733Y-09738D01*
X16710Y-09829D01*
X17000Y-10119D01*
X17290Y-09829D01*
X17290Y-09971D01*
X17071Y-10190D01*
X17361Y-10480D01*
X17452Y-10457D01*
X17519Y-10264D01*
X17519Y-12071D01*
X17445Y-11893D01*
X17298Y-11745D01*
X17290Y-11741D01*
X17290Y-10551D01*
X17000Y-10261D01*
X16929Y-10332D01*
X16929Y-10190D01*
X16639Y-09900D01*
X16548Y-09923D01*
X16481Y-10116D01*
X16492Y-10320D01*
X16548Y-10457D01*
X16639Y-10480D01*
X16929Y-10190D01*
X16929Y-10332D01*
X16710Y-10551D01*
X16733Y-10642D01*
X16926Y-10709D01*
X17130Y-10698D01*
X17267Y-10642D01*
X17290Y-10551D01*
X17290Y-11741D01*
X17105Y-11665D01*
X16896Y-11665D01*
X16703Y-11745D01*
X16555Y-11892D01*
X16475Y-12085D01*
X16475Y-12294D01*
X16555Y-12487D01*
X16600Y-12532D01*
X16600Y-13207D01*
X16563Y-13244D01*
X16475Y-13455D01*
X16475Y-13684D01*
X16562Y-13895D01*
X16724Y-14057D01*
X16935Y-14145D01*
X17164Y-14145D01*
X17375Y-14058D01*
X17537Y-13896D01*
X17625Y-13685D01*
X17625Y-16120D01*
X17413Y-16120D01*
X17376Y-16083D01*
X17165Y-15995D01*
X16936Y-15995D01*
X16725Y-16082D01*
X16687Y-16120D01*
X16226Y-16120D01*
X15990Y-15884D01*
X15990Y-15530D01*
X16004Y-15525D01*
X16158Y-15371D01*
X16242Y-15169D01*
X16242Y-14951D01*
X16158Y-14749D01*
X16004Y-14595D01*
X15919Y-14560D01*
X16004Y-14525D01*
X16158Y-14371D01*
X16242Y-14169D01*
X16242Y-13951D01*
X16158Y-13749D01*
X16004Y-13595D01*
X15919Y-13560D01*
X16004Y-13525D01*
X16158Y-13371D01*
X16242Y-13169D01*
X16242Y-12951D01*
X16158Y-12749D01*
X16004Y-12595D01*
X15919Y-12560D01*
X16004Y-12525D01*
X16158Y-12371D01*
X16242Y-12169D01*
X16242Y-11951D01*
X16158Y-11749D01*
X16004Y-11595D01*
X15990Y-11589D01*
X15990Y-11218D01*
X16047Y-11195D01*
X16195Y-11048D01*
X16275Y-10855D01*
X16275Y-10646D01*
X16195Y-10453D01*
X16048Y-10305D01*
X15855Y-10225D01*
X15646Y-10225D01*
X15453Y-10305D01*
X15305Y-10452D01*
X15229Y-10634D01*
X15222Y-10642D01*
X15124Y-10787D01*
X15090Y-10960D01*
X15090Y-11589D01*
X15076Y-11595D01*
X14922Y-11749D01*
X14838Y-11951D01*
X14838Y-12169D01*
X14922Y-12371D01*
X15076Y-12525D01*
X15160Y-12560D01*
X15076Y-12595D01*
X15061Y-12610D01*
X14275Y-12610D01*
X14275Y-10855D01*
X14275Y-10646D01*
X14195Y-10453D01*
X14048Y-10305D01*
X13855Y-10225D01*
X13646Y-10225D01*
X13453Y-10305D01*
X13305Y-10452D01*
X13225Y-10645D01*
X13225Y-10854D01*
X13300Y-11034D01*
X13300Y-11564D01*
X13254Y-11610D01*
X13201Y-11610D01*
X13201Y-11609D01*
X13131Y-11539D01*
X13040Y-11501D01*
X12941Y-11501D01*
X12749Y-11501D01*
X12749Y-10500D01*
X12749Y-10401D01*
X12749Y-09801D01*
X12743Y-09786D01*
X12743Y-09229D01*
X12732Y-09016D01*
X12672Y-08869D01*
X12578Y-08842D01*
X12508Y-08912D01*
X12508Y-08772D01*
X12481Y-08678D01*
X12279Y-08607D01*
X12066Y-08618D01*
X11919Y-08678D01*
X11892Y-08772D01*
X12200Y-09079D01*
X12508Y-08772D01*
X12508Y-08912D01*
X12271Y-09150D01*
X12578Y-09458D01*
X12672Y-09431D01*
X12743Y-09229D01*
X12743Y-09786D01*
X12711Y-09709D01*
X12641Y-09639D01*
X12550Y-09601D01*
X12487Y-09601D01*
X12508Y-09528D01*
X12200Y-09221D01*
X12129Y-09291D01*
X12129Y-09150D01*
X11822Y-08842D01*
X11728Y-08869D01*
X11657Y-09071D01*
X11668Y-09284D01*
X11728Y-09431D01*
X11822Y-09458D01*
X12129Y-09150D01*
X12129Y-09291D01*
X11892Y-09528D01*
X11912Y-09601D01*
X11851Y-09601D01*
X11759Y-09639D01*
X11689Y-09709D01*
X11651Y-09800D01*
X11651Y-09899D01*
X11651Y-10499D01*
X11689Y-10591D01*
X11759Y-10661D01*
X11850Y-10699D01*
X11949Y-10699D01*
X12549Y-10699D01*
X12641Y-10661D01*
X12711Y-10591D01*
X12749Y-10500D01*
X12749Y-11501D01*
X12041Y-11501D01*
X11949Y-11539D01*
X11879Y-11609D01*
X11853Y-11669D01*
X11854Y-11612D01*
X11854Y-11388D01*
X11853Y-11097D01*
X11815Y-11005D01*
X11745Y-10935D01*
X11654Y-10897D01*
X11555Y-10897D01*
X11362Y-10896D01*
X11300Y-10958D01*
X11300Y-11450D01*
X11792Y-11450D01*
X11854Y-11388D01*
X11854Y-11612D01*
X11792Y-11550D01*
X11300Y-11550D01*
X11300Y-12042D01*
X11362Y-12104D01*
X11555Y-12103D01*
X11654Y-12103D01*
X11745Y-12065D01*
X11815Y-11995D01*
X11841Y-11932D01*
X11841Y-12419D01*
X11879Y-12511D01*
X11949Y-12581D01*
X12040Y-12619D01*
X12071Y-12619D01*
X11990Y-12678D01*
X11875Y-12864D01*
X11858Y-12923D01*
X11905Y-13010D01*
X12440Y-13010D01*
X12490Y-13010D01*
X12590Y-13010D01*
X12640Y-13010D01*
X13175Y-13010D01*
X13222Y-12923D01*
X13205Y-12864D01*
X13090Y-12678D01*
X13008Y-12619D01*
X13039Y-12619D01*
X13131Y-12581D01*
X13201Y-12511D01*
X13201Y-12510D01*
X13440Y-12510D01*
X13612Y-12476D01*
X13613Y-12476D01*
X13758Y-12378D01*
X14068Y-12068D01*
X14165Y-11923D01*
X14166Y-11922D01*
X14199Y-11750D01*
X14200Y-11750D01*
X14200Y-11035D01*
X14275Y-10855D01*
X14275Y-12610D01*
X14170Y-12610D01*
X13997Y-12644D01*
X13852Y-12742D01*
X13424Y-13170D01*
X13326Y-13315D01*
X13292Y-13488D01*
X13292Y-16098D01*
X13222Y-16127D01*
X13222Y-15197D01*
X13175Y-15110D01*
X12590Y-15110D01*
X12590Y-15620D01*
X12700Y-15620D01*
X12913Y-15570D01*
X13090Y-15442D01*
X13205Y-15256D01*
X13222Y-15197D01*
X13222Y-16127D01*
X13203Y-16135D01*
X13055Y-16282D01*
X12975Y-16475D01*
X12975Y-16684D01*
X13055Y-16877D01*
X13202Y-17025D01*
X13395Y-17105D01*
X13604Y-17105D01*
X13797Y-17025D01*
X13945Y-16878D01*
X14020Y-16695D01*
X14060Y-16656D01*
X14158Y-16511D01*
X14158Y-16510D01*
X14192Y-16338D01*
X14192Y-13674D01*
X14356Y-13510D01*
X15061Y-13510D01*
X15076Y-13525D01*
X15160Y-13560D01*
X15076Y-13595D01*
X14922Y-13749D01*
X14838Y-13951D01*
X14838Y-14169D01*
X14922Y-14371D01*
X15076Y-14525D01*
X15160Y-14560D01*
X15076Y-14595D01*
X14922Y-14749D01*
X14838Y-14951D01*
X14838Y-15169D01*
X14922Y-15371D01*
X15076Y-15525D01*
X15090Y-15530D01*
X15090Y-16070D01*
X15124Y-16243D01*
X15222Y-16388D01*
X15722Y-16888D01*
X15867Y-16986D01*
X15868Y-16986D01*
X16040Y-17020D01*
X16687Y-17020D01*
X16724Y-17057D01*
X16935Y-17145D01*
X17164Y-17145D01*
X17375Y-17058D01*
X17413Y-17020D01*
X17964Y-17020D01*
X18145Y-17095D01*
X18354Y-17095D01*
X18547Y-17015D01*
X18695Y-16868D01*
X18775Y-16675D01*
X18775Y-17360D01*
X12490Y-17360D01*
X12490Y-15620D01*
X12490Y-15110D01*
X11905Y-15110D01*
X11858Y-15197D01*
X11875Y-15256D01*
X11990Y-15442D01*
X12167Y-15570D01*
X12380Y-15620D01*
X12490Y-15620D01*
X12490Y-17360D01*
X12019Y-17360D01*
X12019Y-16654D01*
X12008Y-16450D01*
X11952Y-16313D01*
X11861Y-16290D01*
X11571Y-16580D01*
X11861Y-16870D01*
X11952Y-16847D01*
X12019Y-16654D01*
X12019Y-17360D01*
X11790Y-17360D01*
X11790Y-16941D01*
X11500Y-16651D01*
X11429Y-16722D01*
X11429Y-16580D01*
X11139Y-16290D01*
X11048Y-16313D01*
X10981Y-16506D01*
X10992Y-16710D01*
X11048Y-16847D01*
X11139Y-16870D01*
X11429Y-16580D01*
X11429Y-16722D01*
X11210Y-16941D01*
X11233Y-17032D01*
X11426Y-17099D01*
X11630Y-17088D01*
X11767Y-17032D01*
X11790Y-16941D01*
X11790Y-17360D01*
X10825Y-17360D01*
X10825Y-15928D01*
X10908Y-16011D01*
X11129Y-16103D01*
X11294Y-16103D01*
X11233Y-16128D01*
X11210Y-16219D01*
X11500Y-16509D01*
X11790Y-16219D01*
X11767Y-16128D01*
X11574Y-16061D01*
X11455Y-16067D01*
X11591Y-16012D01*
X11761Y-15842D01*
X11853Y-15621D01*
X11853Y-15381D01*
X11762Y-15159D01*
X11700Y-15097D01*
X11700Y-14686D01*
X11876Y-14510D01*
X12061Y-14510D01*
X12076Y-14525D01*
X12155Y-14558D01*
X11990Y-14678D01*
X11875Y-14864D01*
X11858Y-14923D01*
X11905Y-15010D01*
X12440Y-15010D01*
X12490Y-15010D01*
X12590Y-15010D01*
X12640Y-15010D01*
X13175Y-15010D01*
X13222Y-14923D01*
X13205Y-14864D01*
X13090Y-14678D01*
X12924Y-14558D01*
X13004Y-14525D01*
X13158Y-14371D01*
X13242Y-14169D01*
X13242Y-13951D01*
X13158Y-13749D01*
X13004Y-13595D01*
X12924Y-13561D01*
X13090Y-13442D01*
X13205Y-13256D01*
X13222Y-13197D01*
X13175Y-13110D01*
X12640Y-13110D01*
X12590Y-13110D01*
X12490Y-13110D01*
X12440Y-13110D01*
X11905Y-13110D01*
X11858Y-13197D01*
X11875Y-13256D01*
X11990Y-13442D01*
X12155Y-13561D01*
X12076Y-13595D01*
X12061Y-13610D01*
X11690Y-13610D01*
X11517Y-13644D01*
X11372Y-13742D01*
X10932Y-14182D01*
X10834Y-14327D01*
X10825Y-14372D01*
X10825Y-12094D01*
X10846Y-12103D01*
X10945Y-12103D01*
X11138Y-12104D01*
X11200Y-12042D01*
X11200Y-11600D01*
X11200Y-11550D01*
X11200Y-11450D01*
X11200Y-11400D01*
X11200Y-10958D01*
X11138Y-10896D01*
X10945Y-10897D01*
X10846Y-10897D01*
X10825Y-10905D01*
X10825Y-08575D01*
X16189Y-08575D01*
X16132Y-08736D01*
X16144Y-08959D01*
X16208Y-09116D01*
X16304Y-09145D01*
X16594Y-08855D01*
X16629Y-08820D01*
X16700Y-08749D01*
X16771Y-08820D01*
X16806Y-08855D01*
X17096Y-09145D01*
X17192Y-09116D01*
X17268Y-08904D01*
X17256Y-08681D01*
X17212Y-08575D01*
X19179Y-08575D01*
X19125Y-08705D01*
X19125Y-08762D01*
X19034Y-08897D01*
X19000Y-09070D01*
X19000Y-09884D01*
X18925Y-10065D01*
X18925Y-10274D01*
X19005Y-10467D01*
X19152Y-10615D01*
X19345Y-10695D01*
X19554Y-10695D01*
X19747Y-10615D01*
X19895Y-10468D01*
X19975Y-10275D01*
X19975Y-10066D01*
X19900Y-09885D01*
X19900Y-09359D01*
X20025Y-09308D01*
X20063Y-09270D01*
X21380Y-09270D01*
X21380Y-09604D01*
X21305Y-09785D01*
X21305Y-09994D01*
X21385Y-10187D01*
X21485Y-10288D01*
X21321Y-10288D01*
X21119Y-10372D01*
X20965Y-10526D01*
X20881Y-10728D01*
X20881Y-10946D01*
X20881Y-11252D01*
X20965Y-11454D01*
X21119Y-11608D01*
X21321Y-11692D01*
X21539Y-11692D01*
X21741Y-11608D01*
X21895Y-11454D01*
X21900Y-11440D01*
X21959Y-11440D01*
X21965Y-11454D01*
X21980Y-11469D01*
X21980Y-11500D01*
X22014Y-11672D01*
X22050Y-11725D01*
X22050Y-12750D01*
X22084Y-12923D01*
X22182Y-13068D01*
X22402Y-13288D01*
X22321Y-13288D01*
X22119Y-13372D01*
X21989Y-13502D01*
X21989Y-13491D01*
X21951Y-13399D01*
X21881Y-13329D01*
X21790Y-13291D01*
X21691Y-13291D01*
X21071Y-13291D01*
X20979Y-13329D01*
X20909Y-13399D01*
X20871Y-13490D01*
X20871Y-13540D01*
X20520Y-13540D01*
X20480Y-13540D01*
X20156Y-13540D01*
X19949Y-13333D01*
X19880Y-13165D01*
X19880Y-12482D01*
X19895Y-12468D01*
X19975Y-12275D01*
X19975Y-12066D01*
X19895Y-11873D01*
X19748Y-11725D01*
X19555Y-11645D01*
X19346Y-11645D01*
X19153Y-11725D01*
X19005Y-11872D01*
X18925Y-12065D01*
X18925Y-12274D01*
X18980Y-12406D01*
X18980Y-13164D01*
X18905Y-13345D01*
X18905Y-13554D01*
X18985Y-13747D01*
X19132Y-13895D01*
X19314Y-13970D01*
X19651Y-14308D01*
X19652Y-14308D01*
X19749Y-14373D01*
X19797Y-14405D01*
X19798Y-14406D01*
X19970Y-14440D01*
X20070Y-14440D01*
X20070Y-15067D01*
X20033Y-15104D01*
X19945Y-15315D01*
X19945Y-15321D01*
X19875Y-15153D01*
X19728Y-15005D01*
X19546Y-14929D01*
X18868Y-14252D01*
X18750Y-14172D01*
X18750Y-13533D01*
X18787Y-13496D01*
X18875Y-13285D01*
X18875Y-13056D01*
X18868Y-13039D01*
X18868Y-10254D01*
X18856Y-10031D01*
X18792Y-09874D01*
X18696Y-09845D01*
X18625Y-09916D01*
X18625Y-09774D01*
X18596Y-09678D01*
X18384Y-09602D01*
X18161Y-09614D01*
X18004Y-09678D01*
X17975Y-09774D01*
X18300Y-10099D01*
X18625Y-09774D01*
X18625Y-09916D01*
X18371Y-10170D01*
X18696Y-10495D01*
X18792Y-10466D01*
X18868Y-10254D01*
X18868Y-13039D01*
X18788Y-12845D01*
X18626Y-12683D01*
X18625Y-12682D01*
X18625Y-10566D01*
X18300Y-10241D01*
X18229Y-10312D01*
X18229Y-10170D01*
X17904Y-09845D01*
X17808Y-09874D01*
X17732Y-10086D01*
X17744Y-10309D01*
X17808Y-10466D01*
X17904Y-10495D01*
X18229Y-10170D01*
X18229Y-10312D01*
X17975Y-10566D01*
X18004Y-10662D01*
X18216Y-10738D01*
X18439Y-10726D01*
X18596Y-10662D01*
X18625Y-10566D01*
X18625Y-12682D01*
X18415Y-12595D01*
X18186Y-12595D01*
X17975Y-12682D01*
X17813Y-12844D01*
X17725Y-13055D01*
X17725Y-13284D01*
X17812Y-13495D01*
X17850Y-13533D01*
X17850Y-14227D01*
X17805Y-14272D01*
X17725Y-14465D01*
X17725Y-14674D01*
X17805Y-14867D01*
X17952Y-15015D01*
X18145Y-15095D01*
X18354Y-15095D01*
X18413Y-15070D01*
X18910Y-15567D01*
X18980Y-15734D01*
X18980Y-16414D01*
X18955Y-16475D01*
X18955Y-16684D01*
X19035Y-16877D01*
X19182Y-17025D01*
X19375Y-17105D01*
X19584Y-17105D01*
X19777Y-17025D01*
X19925Y-16878D01*
X20005Y-16685D01*
X20005Y-16476D01*
X19925Y-16283D01*
X19880Y-16237D01*
X19880Y-15735D01*
X19952Y-15561D01*
X20032Y-15755D01*
X20194Y-15917D01*
X20405Y-16005D01*
X20634Y-16005D01*
X20845Y-15918D01*
X21007Y-15756D01*
X21095Y-15545D01*
X21095Y-15316D01*
X21008Y-15105D01*
X20970Y-15067D01*
X20970Y-14642D01*
X20979Y-14651D01*
X21070Y-14689D01*
X21169Y-14689D01*
X21789Y-14689D01*
X21881Y-14651D01*
X21951Y-14581D01*
X21980Y-14511D01*
X21980Y-15163D01*
X21162Y-15982D01*
X21064Y-16127D01*
X21032Y-16288D01*
X20955Y-16475D01*
X20955Y-16684D01*
X21035Y-16877D01*
X21182Y-17025D01*
X21375Y-17105D01*
X21584Y-17105D01*
X21777Y-17025D01*
X21925Y-16878D01*
X22005Y-16685D01*
X22005Y-16476D01*
X21986Y-16430D01*
X22536Y-15880D01*
X23157Y-15880D01*
X23194Y-15917D01*
X23405Y-16005D01*
X23634Y-16005D01*
X23845Y-15918D01*
X24007Y-15756D01*
X24095Y-15545D01*
X24095Y-15316D01*
X24008Y-15105D01*
X23846Y-14943D01*
X23635Y-14855D01*
X23406Y-14855D01*
X23195Y-14942D01*
X23157Y-14980D01*
X22880Y-14980D01*
X22880Y-14469D01*
X22895Y-14454D01*
X22930Y-14369D01*
X22965Y-14454D01*
X23119Y-14608D01*
X23321Y-14692D01*
X23539Y-14692D01*
X23741Y-14608D01*
X23895Y-14454D01*
X23930Y-14369D01*
X23965Y-14454D01*
X24119Y-14608D01*
X24321Y-14692D01*
X24539Y-14692D01*
X24741Y-14608D01*
X24895Y-14454D01*
X24930Y-14369D01*
X24965Y-14454D01*
X25119Y-14608D01*
X25321Y-14692D01*
X25539Y-14692D01*
X25741Y-14608D01*
X25895Y-14454D01*
X25930Y-14369D01*
X25965Y-14454D01*
X26040Y-14529D01*
X26040Y-15154D01*
X25965Y-15335D01*
X25965Y-15544D01*
X26040Y-15724D01*
X26040Y-15854D01*
X25831Y-16062D01*
X25645Y-15985D01*
X25416Y-15985D01*
X25205Y-16072D01*
X25043Y-16234D01*
X24955Y-16445D01*
X24955Y-16674D01*
X25042Y-16885D01*
X25204Y-17047D01*
X25415Y-17135D01*
X25644Y-17135D01*
X25855Y-17048D01*
X25893Y-17010D01*
X25970Y-17010D01*
X26142Y-16976D01*
X26143Y-16976D01*
X26288Y-16878D01*
X26808Y-16358D01*
X26906Y-16213D01*
X26906Y-16212D01*
X26911Y-16184D01*
X26939Y-16040D01*
X26940Y-16040D01*
X26940Y-15725D01*
X27015Y-15545D01*
X27015Y-15336D01*
X26940Y-15155D01*
X26940Y-14393D01*
X26965Y-14454D01*
X27001Y-14490D01*
X27014Y-14553D01*
X27112Y-14698D01*
X27969Y-15555D01*
X28040Y-15724D01*
X28040Y-16241D01*
X27955Y-16445D01*
X27955Y-16674D01*
X28042Y-16885D01*
X28204Y-17047D01*
X28415Y-17135D01*
X28644Y-17135D01*
X28855Y-17048D01*
X29017Y-16886D01*
X29105Y-16675D01*
X29105Y-16446D01*
X29018Y-16235D01*
X28940Y-16157D01*
X28940Y-15725D01*
X29015Y-15545D01*
X29015Y-15336D01*
X28935Y-15143D01*
X28788Y-14995D01*
X28605Y-14919D01*
X28126Y-14440D01*
X28480Y-14440D01*
X28652Y-14406D01*
X28653Y-14406D01*
X28798Y-14308D01*
X30936Y-12170D01*
X31600Y-12170D01*
X31772Y-12136D01*
X31773Y-12136D01*
X31918Y-12038D01*
X33006Y-10950D01*
X35750Y-10950D01*
X35922Y-10916D01*
X35923Y-10916D01*
X36068Y-10818D01*
X36846Y-10040D01*
X37078Y-10040D01*
X37079Y-10041D01*
X37149Y-10111D01*
X37240Y-10149D01*
X37271Y-10149D01*
X37190Y-10208D01*
X37075Y-10394D01*
X37058Y-10453D01*
X37105Y-10540D01*
X37640Y-10540D01*
X37690Y-10540D01*
X37790Y-10540D01*
X37840Y-10540D01*
X38375Y-10540D01*
X38422Y-10453D01*
X38405Y-10394D01*
X38290Y-10208D01*
X38208Y-10149D01*
X38239Y-10149D01*
X38331Y-10111D01*
X38401Y-10041D01*
X38439Y-09950D01*
X38439Y-09851D01*
X38439Y-09231D01*
X38426Y-09200D01*
X39713Y-09200D01*
X40038Y-09524D01*
X40038Y-09699D01*
X40122Y-09901D01*
X40276Y-10055D01*
X40360Y-10090D01*
X40276Y-10125D01*
X40122Y-10279D01*
X40038Y-10481D01*
X40038Y-10699D01*
X40122Y-10901D01*
X40276Y-11055D01*
X40360Y-11090D01*
X40276Y-11125D01*
X40122Y-11279D01*
X40038Y-11481D01*
X40038Y-11699D01*
X40122Y-11901D01*
X40276Y-12055D01*
X40360Y-12090D01*
X40276Y-12125D01*
X40122Y-12279D01*
X40038Y-12481D01*
X40038Y-12699D01*
X40122Y-12901D01*
X40276Y-13055D01*
X40360Y-13090D01*
X40276Y-13125D01*
X40122Y-13279D01*
X40038Y-13481D01*
X40038Y-13699D01*
X40122Y-13901D01*
X40276Y-14055D01*
X40360Y-14090D01*
X40276Y-14125D01*
X40122Y-14279D01*
X40038Y-14481D01*
X40038Y-14699D01*
X40122Y-14901D01*
X40276Y-15055D01*
X40360Y-15090D01*
X40276Y-15125D01*
X40122Y-15279D01*
X40038Y-15481D01*
X40038Y-15699D01*
X40122Y-15901D01*
X40276Y-16055D01*
X40478Y-16139D01*
X40696Y-16139D01*
X40785Y-16139D01*
G54D10*
G36*
X49425Y-17360D02*
X46096Y-17360D01*
X40731Y-17360D01*
X40802Y-17346D01*
X40803Y-17346D01*
X40948Y-17248D01*
X41467Y-16728D01*
X41552Y-16935D01*
X41714Y-17097D01*
X41925Y-17185D01*
X42154Y-17185D01*
X42365Y-17098D01*
X42403Y-17060D01*
X43275Y-17060D01*
X43379Y-17103D01*
X43619Y-17103D01*
X43841Y-17012D01*
X43912Y-16940D01*
X43935Y-16995D01*
X44005Y-17065D01*
X44096Y-17103D01*
X44195Y-17103D01*
X44903Y-17103D01*
X44995Y-17065D01*
X45065Y-16995D01*
X45103Y-16904D01*
X45103Y-16805D01*
X45103Y-16097D01*
X45065Y-16005D01*
X44995Y-15935D01*
X44931Y-15908D01*
X44916Y-15828D01*
X44915Y-15827D01*
X44883Y-15779D01*
X44818Y-15682D01*
X44818Y-15681D01*
X44549Y-15412D01*
X44549Y-13350D01*
X44549Y-13251D01*
X44549Y-12651D01*
X44511Y-12559D01*
X44441Y-12489D01*
X44350Y-12451D01*
X44251Y-12451D01*
X43651Y-12451D01*
X43559Y-12489D01*
X43489Y-12559D01*
X43451Y-12650D01*
X43451Y-12749D01*
X43451Y-13349D01*
X43489Y-13441D01*
X43559Y-13511D01*
X43650Y-13549D01*
X43712Y-13549D01*
X43692Y-13622D01*
X44000Y-13929D01*
X44308Y-13622D01*
X44287Y-13549D01*
X44349Y-13549D01*
X44441Y-13511D01*
X44511Y-13441D01*
X44549Y-13350D01*
X44549Y-15412D01*
X44543Y-15406D01*
X44543Y-14079D01*
X44532Y-13866D01*
X44472Y-13719D01*
X44378Y-13692D01*
X44071Y-14000D01*
X44378Y-14308D01*
X44472Y-14281D01*
X44543Y-14079D01*
X44543Y-15406D01*
X44308Y-15171D01*
X44308Y-14378D01*
X44000Y-14071D01*
X43929Y-14141D01*
X43929Y-14000D01*
X43622Y-13692D01*
X43528Y-13719D01*
X43457Y-13921D01*
X43468Y-14134D01*
X43528Y-14281D01*
X43622Y-14308D01*
X43929Y-14000D01*
X43929Y-14141D01*
X43692Y-14378D01*
X43719Y-14472D01*
X43921Y-14543D01*
X44134Y-14532D01*
X44281Y-14472D01*
X44308Y-14378D01*
X44308Y-15171D01*
X42603Y-13466D01*
X42528Y-13285D01*
X42490Y-13247D01*
X42490Y-12883D01*
X42527Y-12846D01*
X42615Y-12635D01*
X42615Y-12406D01*
X42528Y-12195D01*
X42366Y-12033D01*
X42155Y-11945D01*
X41926Y-11945D01*
X41715Y-12032D01*
X41553Y-12194D01*
X41465Y-12405D01*
X41465Y-12634D01*
X41552Y-12845D01*
X41590Y-12883D01*
X41590Y-13247D01*
X41553Y-13284D01*
X41465Y-13495D01*
X41465Y-13724D01*
X41552Y-13935D01*
X41590Y-13973D01*
X41590Y-14620D01*
X41590Y-15334D01*
X41442Y-15481D01*
X41358Y-15279D01*
X41204Y-15125D01*
X41119Y-15090D01*
X41204Y-15055D01*
X41358Y-14901D01*
X41442Y-14699D01*
X41442Y-14481D01*
X41358Y-14279D01*
X41204Y-14125D01*
X41119Y-14090D01*
X41204Y-14055D01*
X41358Y-13901D01*
X41442Y-13699D01*
X41442Y-13481D01*
X41358Y-13279D01*
X41204Y-13125D01*
X41119Y-13090D01*
X41204Y-13055D01*
X41358Y-12901D01*
X41442Y-12699D01*
X41442Y-12481D01*
X41358Y-12279D01*
X41204Y-12125D01*
X41119Y-12090D01*
X41204Y-12055D01*
X41358Y-11901D01*
X41442Y-11699D01*
X41442Y-11481D01*
X41358Y-11279D01*
X41204Y-11125D01*
X41119Y-11090D01*
X41204Y-11055D01*
X41358Y-10901D01*
X41442Y-10699D01*
X41442Y-10481D01*
X41358Y-10279D01*
X41204Y-10125D01*
X41119Y-10090D01*
X41204Y-10055D01*
X41219Y-10040D01*
X41793Y-10040D01*
X41925Y-10095D01*
X42154Y-10095D01*
X42365Y-10008D01*
X42403Y-09970D01*
X42563Y-09970D01*
X43451Y-10857D01*
X43451Y-11119D01*
X43489Y-11211D01*
X43559Y-11281D01*
X43650Y-11319D01*
X43749Y-11319D01*
X44012Y-11319D01*
X45525Y-12831D01*
X45525Y-12884D01*
X45612Y-13095D01*
X45774Y-13257D01*
X45985Y-13345D01*
X46214Y-13345D01*
X46425Y-13258D01*
X46587Y-13096D01*
X46654Y-12934D01*
X46708Y-13066D01*
X46804Y-13095D01*
X47129Y-12770D01*
X46804Y-12445D01*
X46708Y-12474D01*
X46657Y-12614D01*
X46588Y-12445D01*
X46426Y-12283D01*
X46215Y-12195D01*
X46161Y-12195D01*
X44549Y-10582D01*
X44549Y-10421D01*
X44511Y-10329D01*
X44441Y-10259D01*
X44350Y-10221D01*
X44325Y-10221D01*
X44326Y-10220D01*
X45737Y-10220D01*
X45774Y-10257D01*
X45985Y-10345D01*
X46214Y-10345D01*
X46425Y-10258D01*
X46463Y-10220D01*
X46837Y-10220D01*
X46874Y-10257D01*
X47085Y-10345D01*
X47314Y-10345D01*
X47525Y-10258D01*
X47687Y-10096D01*
X47760Y-09920D01*
X47760Y-12705D01*
X47756Y-12631D01*
X47692Y-12474D01*
X47596Y-12445D01*
X47525Y-12516D01*
X47525Y-12374D01*
X47496Y-12278D01*
X47284Y-12202D01*
X47061Y-12214D01*
X46904Y-12278D01*
X46875Y-12374D01*
X47200Y-12699D01*
X47525Y-12374D01*
X47525Y-12516D01*
X47271Y-12770D01*
X47596Y-13095D01*
X47692Y-13066D01*
X47760Y-12876D01*
X47760Y-14366D01*
X49425Y-14366D01*
X49425Y-15905D01*
X49404Y-15897D01*
X49305Y-15897D01*
X48597Y-15897D01*
X48505Y-15935D01*
X48435Y-16005D01*
X48412Y-16059D01*
X48342Y-15989D01*
X48121Y-15897D01*
X47881Y-15897D01*
X47659Y-15988D01*
X47597Y-16050D01*
X47525Y-16050D01*
X47525Y-13166D01*
X47200Y-12841D01*
X46875Y-13166D01*
X46904Y-13262D01*
X47116Y-13338D01*
X47339Y-13326D01*
X47496Y-13262D01*
X47525Y-13166D01*
X47525Y-16050D01*
X47333Y-16050D01*
X47315Y-16005D01*
X47245Y-15935D01*
X47154Y-15897D01*
X47055Y-15897D01*
X46347Y-15897D01*
X46255Y-15935D01*
X46185Y-16005D01*
X46166Y-16048D01*
X46113Y-15995D01*
X46078Y-16030D01*
X46063Y-15985D01*
X45843Y-15904D01*
X45608Y-15914D01*
X45437Y-15985D01*
X45404Y-16084D01*
X45715Y-16394D01*
X45750Y-16429D01*
X45821Y-16500D01*
X45750Y-16571D01*
X45679Y-16641D01*
X45679Y-16500D01*
X45334Y-16154D01*
X45235Y-16187D01*
X45154Y-16407D01*
X45164Y-16642D01*
X45235Y-16813D01*
X45334Y-16846D01*
X45679Y-16500D01*
X45679Y-16641D01*
X45404Y-16916D01*
X45437Y-17015D01*
X45657Y-17096D01*
X45892Y-17086D01*
X46063Y-17015D01*
X46078Y-16969D01*
X46096Y-16987D01*
X46113Y-17005D01*
X46166Y-16951D01*
X46185Y-16995D01*
X46255Y-17065D01*
X46346Y-17103D01*
X46445Y-17103D01*
X47153Y-17103D01*
X47245Y-17065D01*
X47315Y-16995D01*
X47333Y-16950D01*
X47597Y-16950D01*
X47658Y-17011D01*
X47879Y-17103D01*
X48119Y-17103D01*
X48341Y-17012D01*
X48412Y-16940D01*
X48435Y-16995D01*
X48505Y-17065D01*
X48596Y-17103D01*
X48695Y-17103D01*
X49403Y-17103D01*
X49425Y-17093D01*
X49425Y-17360D01*
X49425Y-17360D01*
G37*
G54D27*
X49425Y-17360D02*
X46096Y-17360D01*
X40731Y-17360D01*
X40802Y-17346D01*
X40803Y-17346D01*
X40948Y-17248D01*
X41467Y-16728D01*
X41552Y-16935D01*
X41714Y-17097D01*
X41925Y-17185D01*
X42154Y-17185D01*
X42365Y-17098D01*
X42403Y-17060D01*
X43275Y-17060D01*
X43379Y-17103D01*
X43619Y-17103D01*
X43841Y-17012D01*
X43912Y-16940D01*
X43935Y-16995D01*
X44005Y-17065D01*
X44096Y-17103D01*
X44195Y-17103D01*
X44903Y-17103D01*
X44995Y-17065D01*
X45065Y-16995D01*
X45103Y-16904D01*
X45103Y-16805D01*
X45103Y-16097D01*
X45065Y-16005D01*
X44995Y-15935D01*
X44931Y-15908D01*
X44916Y-15828D01*
X44915Y-15827D01*
X44883Y-15779D01*
X44818Y-15682D01*
X44818Y-15681D01*
X44549Y-15412D01*
X44549Y-13350D01*
X44549Y-13251D01*
X44549Y-12651D01*
X44511Y-12559D01*
X44441Y-12489D01*
X44350Y-12451D01*
X44251Y-12451D01*
X43651Y-12451D01*
X43559Y-12489D01*
X43489Y-12559D01*
X43451Y-12650D01*
X43451Y-12749D01*
X43451Y-13349D01*
X43489Y-13441D01*
X43559Y-13511D01*
X43650Y-13549D01*
X43712Y-13549D01*
X43692Y-13622D01*
X44000Y-13929D01*
X44308Y-13622D01*
X44287Y-13549D01*
X44349Y-13549D01*
X44441Y-13511D01*
X44511Y-13441D01*
X44549Y-13350D01*
X44549Y-15412D01*
X44543Y-15406D01*
X44543Y-14079D01*
X44532Y-13866D01*
X44472Y-13719D01*
X44378Y-13692D01*
X44071Y-14000D01*
X44378Y-14308D01*
X44472Y-14281D01*
X44543Y-14079D01*
X44543Y-15406D01*
X44308Y-15171D01*
X44308Y-14378D01*
X44000Y-14071D01*
X43929Y-14141D01*
X43929Y-14000D01*
X43622Y-13692D01*
X43528Y-13719D01*
X43457Y-13921D01*
X43468Y-14134D01*
X43528Y-14281D01*
X43622Y-14308D01*
X43929Y-14000D01*
X43929Y-14141D01*
X43692Y-14378D01*
X43719Y-14472D01*
X43921Y-14543D01*
X44134Y-14532D01*
X44281Y-14472D01*
X44308Y-14378D01*
X44308Y-15171D01*
X42603Y-13466D01*
X42528Y-13285D01*
X42490Y-13247D01*
X42490Y-12883D01*
X42527Y-12846D01*
X42615Y-12635D01*
X42615Y-12406D01*
X42528Y-12195D01*
X42366Y-12033D01*
X42155Y-11945D01*
X41926Y-11945D01*
X41715Y-12032D01*
X41553Y-12194D01*
X41465Y-12405D01*
X41465Y-12634D01*
X41552Y-12845D01*
X41590Y-12883D01*
X41590Y-13247D01*
X41553Y-13284D01*
X41465Y-13495D01*
X41465Y-13724D01*
X41552Y-13935D01*
X41590Y-13973D01*
X41590Y-14620D01*
X41590Y-15334D01*
X41442Y-15481D01*
X41358Y-15279D01*
X41204Y-15125D01*
X41119Y-15090D01*
X41204Y-15055D01*
X41358Y-14901D01*
X41442Y-14699D01*
X41442Y-14481D01*
X41358Y-14279D01*
X41204Y-14125D01*
X41119Y-14090D01*
X41204Y-14055D01*
X41358Y-13901D01*
X41442Y-13699D01*
X41442Y-13481D01*
X41358Y-13279D01*
X41204Y-13125D01*
X41119Y-13090D01*
X41204Y-13055D01*
X41358Y-12901D01*
X41442Y-12699D01*
X41442Y-12481D01*
X41358Y-12279D01*
X41204Y-12125D01*
X41119Y-12090D01*
X41204Y-12055D01*
X41358Y-11901D01*
X41442Y-11699D01*
X41442Y-11481D01*
X41358Y-11279D01*
X41204Y-11125D01*
X41119Y-11090D01*
X41204Y-11055D01*
X41358Y-10901D01*
X41442Y-10699D01*
X41442Y-10481D01*
X41358Y-10279D01*
X41204Y-10125D01*
X41119Y-10090D01*
X41204Y-10055D01*
X41219Y-10040D01*
X41793Y-10040D01*
X41925Y-10095D01*
X42154Y-10095D01*
X42365Y-10008D01*
X42403Y-09970D01*
X42563Y-09970D01*
X43451Y-10857D01*
X43451Y-11119D01*
X43489Y-11211D01*
X43559Y-11281D01*
X43650Y-11319D01*
X43749Y-11319D01*
X44012Y-11319D01*
X45525Y-12831D01*
X45525Y-12884D01*
X45612Y-13095D01*
X45774Y-13257D01*
X45985Y-13345D01*
X46214Y-13345D01*
X46425Y-13258D01*
X46587Y-13096D01*
X46654Y-12934D01*
X46708Y-13066D01*
X46804Y-13095D01*
X47129Y-12770D01*
X46804Y-12445D01*
X46708Y-12474D01*
X46657Y-12614D01*
X46588Y-12445D01*
X46426Y-12283D01*
X46215Y-12195D01*
X46161Y-12195D01*
X44549Y-10582D01*
X44549Y-10421D01*
X44511Y-10329D01*
X44441Y-10259D01*
X44350Y-10221D01*
X44325Y-10221D01*
X44326Y-10220D01*
X45737Y-10220D01*
X45774Y-10257D01*
X45985Y-10345D01*
X46214Y-10345D01*
X46425Y-10258D01*
X46463Y-10220D01*
X46837Y-10220D01*
X46874Y-10257D01*
X47085Y-10345D01*
X47314Y-10345D01*
X47525Y-10258D01*
X47687Y-10096D01*
X47760Y-09920D01*
X47760Y-12705D01*
X47756Y-12631D01*
X47692Y-12474D01*
X47596Y-12445D01*
X47525Y-12516D01*
X47525Y-12374D01*
X47496Y-12278D01*
X47284Y-12202D01*
X47061Y-12214D01*
X46904Y-12278D01*
X46875Y-12374D01*
X47200Y-12699D01*
X47525Y-12374D01*
X47525Y-12516D01*
X47271Y-12770D01*
X47596Y-13095D01*
X47692Y-13066D01*
X47760Y-12876D01*
X47760Y-14366D01*
X49425Y-14366D01*
X49425Y-15905D01*
X49404Y-15897D01*
X49305Y-15897D01*
X48597Y-15897D01*
X48505Y-15935D01*
X48435Y-16005D01*
X48412Y-16059D01*
X48342Y-15989D01*
X48121Y-15897D01*
X47881Y-15897D01*
X47659Y-15988D01*
X47597Y-16050D01*
X47525Y-16050D01*
X47525Y-13166D01*
X47200Y-12841D01*
X46875Y-13166D01*
X46904Y-13262D01*
X47116Y-13338D01*
X47339Y-13326D01*
X47496Y-13262D01*
X47525Y-13166D01*
X47525Y-16050D01*
X47333Y-16050D01*
X47315Y-16005D01*
X47245Y-15935D01*
X47154Y-15897D01*
X47055Y-15897D01*
X46347Y-15897D01*
X46255Y-15935D01*
X46185Y-16005D01*
X46166Y-16048D01*
X46113Y-15995D01*
X46078Y-16030D01*
X46063Y-15985D01*
X45843Y-15904D01*
X45608Y-15914D01*
X45437Y-15985D01*
X45404Y-16084D01*
X45715Y-16394D01*
X45750Y-16429D01*
X45821Y-16500D01*
X45750Y-16571D01*
X45679Y-16641D01*
X45679Y-16500D01*
X45334Y-16154D01*
X45235Y-16187D01*
X45154Y-16407D01*
X45164Y-16642D01*
X45235Y-16813D01*
X45334Y-16846D01*
X45679Y-16500D01*
X45679Y-16641D01*
X45404Y-16916D01*
X45437Y-17015D01*
X45657Y-17096D01*
X45892Y-17086D01*
X46063Y-17015D01*
X46078Y-16969D01*
X46096Y-16987D01*
X46113Y-17005D01*
X46166Y-16951D01*
X46185Y-16995D01*
X46255Y-17065D01*
X46346Y-17103D01*
X46445Y-17103D01*
X47153Y-17103D01*
X47245Y-17065D01*
X47315Y-16995D01*
X47333Y-16950D01*
X47597Y-16950D01*
X47658Y-17011D01*
X47879Y-17103D01*
X48119Y-17103D01*
X48341Y-17012D01*
X48412Y-16940D01*
X48435Y-16995D01*
X48505Y-17065D01*
X48596Y-17103D01*
X48695Y-17103D01*
X49403Y-17103D01*
X49425Y-17093D01*
X49425Y-17360D01*
G54D10*
G36*
X24980Y-22101D02*
X24820Y-22070D01*
X24120Y-22070D01*
X23948Y-22104D01*
X23923Y-22120D01*
X23915Y-22077D01*
X23880Y-22024D01*
X23880Y-20969D01*
X23895Y-20954D01*
X23928Y-20874D01*
X24048Y-21040D01*
X24234Y-21155D01*
X24293Y-21172D01*
X24380Y-21125D01*
X24380Y-20590D01*
X24380Y-20540D01*
X24380Y-20440D01*
X24480Y-20440D01*
X24480Y-20540D01*
X24480Y-20590D01*
X24480Y-21125D01*
X24567Y-21172D01*
X24626Y-21155D01*
X24812Y-21040D01*
X24931Y-20874D01*
X24965Y-20954D01*
X24980Y-20969D01*
X24980Y-21570D01*
X24980Y-22101D01*
X24980Y-22101D01*
G37*
G54D27*
X24980Y-22101D02*
X24820Y-22070D01*
X24120Y-22070D01*
X23948Y-22104D01*
X23923Y-22120D01*
X23915Y-22077D01*
X23880Y-22024D01*
X23880Y-20969D01*
X23895Y-20954D01*
X23928Y-20874D01*
X24048Y-21040D01*
X24234Y-21155D01*
X24293Y-21172D01*
X24380Y-21125D01*
X24380Y-20590D01*
X24380Y-20540D01*
X24380Y-20440D01*
X24480Y-20440D01*
X24480Y-20540D01*
X24480Y-20590D01*
X24480Y-21125D01*
X24567Y-21172D01*
X24626Y-21155D01*
X24812Y-21040D01*
X24931Y-20874D01*
X24965Y-20954D01*
X24980Y-20969D01*
X24980Y-21570D01*
X24980Y-22101D01*
G54D10*
G36*
X36247Y-18865D02*
X35563Y-19550D01*
X32820Y-19550D01*
X32675Y-19578D01*
X32647Y-19584D01*
X32502Y-19682D01*
X31952Y-20231D01*
X32049Y-19999D01*
X32049Y-19857D01*
X32387Y-19519D01*
X32529Y-19519D01*
X32768Y-19420D01*
X32950Y-19238D01*
X33049Y-18999D01*
X33049Y-18741D01*
X32950Y-18502D01*
X32768Y-18320D01*
X32529Y-18221D01*
X32271Y-18221D01*
X32032Y-18320D01*
X31850Y-18502D01*
X31751Y-18741D01*
X31751Y-18883D01*
X31413Y-19221D01*
X31271Y-19221D01*
X31032Y-19320D01*
X30850Y-19502D01*
X30751Y-19741D01*
X30751Y-19883D01*
X28514Y-22120D01*
X27000Y-22120D01*
X26827Y-22154D01*
X26682Y-22252D01*
X26112Y-22822D01*
X26014Y-22967D01*
X26011Y-22979D01*
X25965Y-23026D01*
X25930Y-23110D01*
X25895Y-23026D01*
X25880Y-23011D01*
X25880Y-21570D01*
X25880Y-20969D01*
X25895Y-20954D01*
X25930Y-20869D01*
X25965Y-20954D01*
X26119Y-21108D01*
X26321Y-21192D01*
X26539Y-21192D01*
X26741Y-21108D01*
X26895Y-20954D01*
X26930Y-20869D01*
X26965Y-20954D01*
X27119Y-21108D01*
X27321Y-21192D01*
X27539Y-21192D01*
X27741Y-21108D01*
X27895Y-20954D01*
X27979Y-20752D01*
X27979Y-20534D01*
X27979Y-20228D01*
X27975Y-20220D01*
X28231Y-19965D01*
X28284Y-19965D01*
X28495Y-19878D01*
X28657Y-19716D01*
X28745Y-19505D01*
X28745Y-19276D01*
X28658Y-19065D01*
X28496Y-18903D01*
X28285Y-18815D01*
X28056Y-18815D01*
X27845Y-18902D01*
X27683Y-19064D01*
X27605Y-19248D01*
X26358Y-18002D01*
X26213Y-17904D01*
X26040Y-17870D01*
X25985Y-17870D01*
X25938Y-17850D01*
X27473Y-17845D01*
X27403Y-17875D01*
X27255Y-18022D01*
X27175Y-18215D01*
X27175Y-18424D01*
X27255Y-18617D01*
X27402Y-18765D01*
X27595Y-18845D01*
X27804Y-18845D01*
X27984Y-18770D01*
X29663Y-18770D01*
X29751Y-18857D01*
X29751Y-18999D01*
X29850Y-19238D01*
X30032Y-19420D01*
X30271Y-19519D01*
X30529Y-19519D01*
X30768Y-19420D01*
X30950Y-19238D01*
X31049Y-18999D01*
X31049Y-18741D01*
X30950Y-18502D01*
X30768Y-18320D01*
X30529Y-18221D01*
X30387Y-18221D01*
X30168Y-18002D01*
X30023Y-17904D01*
X29850Y-17870D01*
X27985Y-17870D01*
X27924Y-17844D01*
X36148Y-17820D01*
X36078Y-17834D01*
X36029Y-17866D01*
X35931Y-17932D01*
X35682Y-18182D01*
X35584Y-18327D01*
X35550Y-18500D01*
X35584Y-18673D01*
X35682Y-18818D01*
X35827Y-18916D01*
X36000Y-18950D01*
X36173Y-18916D01*
X36247Y-18865D01*
X36247Y-18865D01*
G37*
G54D27*
X36247Y-18865D02*
X35563Y-19550D01*
X32820Y-19550D01*
X32675Y-19578D01*
X32647Y-19584D01*
X32502Y-19682D01*
X31952Y-20231D01*
X32049Y-19999D01*
X32049Y-19857D01*
X32387Y-19519D01*
X32529Y-19519D01*
X32768Y-19420D01*
X32950Y-19238D01*
X33049Y-18999D01*
X33049Y-18741D01*
X32950Y-18502D01*
X32768Y-18320D01*
X32529Y-18221D01*
X32271Y-18221D01*
X32032Y-18320D01*
X31850Y-18502D01*
X31751Y-18741D01*
X31751Y-18883D01*
X31413Y-19221D01*
X31271Y-19221D01*
X31032Y-19320D01*
X30850Y-19502D01*
X30751Y-19741D01*
X30751Y-19883D01*
X28514Y-22120D01*
X27000Y-22120D01*
X26827Y-22154D01*
X26682Y-22252D01*
X26112Y-22822D01*
X26014Y-22967D01*
X26011Y-22979D01*
X25965Y-23026D01*
X25930Y-23110D01*
X25895Y-23026D01*
X25880Y-23011D01*
X25880Y-21570D01*
X25880Y-20969D01*
X25895Y-20954D01*
X25930Y-20869D01*
X25965Y-20954D01*
X26119Y-21108D01*
X26321Y-21192D01*
X26539Y-21192D01*
X26741Y-21108D01*
X26895Y-20954D01*
X26930Y-20869D01*
X26965Y-20954D01*
X27119Y-21108D01*
X27321Y-21192D01*
X27539Y-21192D01*
X27741Y-21108D01*
X27895Y-20954D01*
X27979Y-20752D01*
X27979Y-20534D01*
X27979Y-20228D01*
X27975Y-20220D01*
X28231Y-19965D01*
X28284Y-19965D01*
X28495Y-19878D01*
X28657Y-19716D01*
X28745Y-19505D01*
X28745Y-19276D01*
X28658Y-19065D01*
X28496Y-18903D01*
X28285Y-18815D01*
X28056Y-18815D01*
X27845Y-18902D01*
X27683Y-19064D01*
X27605Y-19248D01*
X26358Y-18002D01*
X26213Y-17904D01*
X26040Y-17870D01*
X25985Y-17870D01*
X25938Y-17850D01*
X27473Y-17845D01*
X27403Y-17875D01*
X27255Y-18022D01*
X27175Y-18215D01*
X27175Y-18424D01*
X27255Y-18617D01*
X27402Y-18765D01*
X27595Y-18845D01*
X27804Y-18845D01*
X27984Y-18770D01*
X29663Y-18770D01*
X29751Y-18857D01*
X29751Y-18999D01*
X29850Y-19238D01*
X30032Y-19420D01*
X30271Y-19519D01*
X30529Y-19519D01*
X30768Y-19420D01*
X30950Y-19238D01*
X31049Y-18999D01*
X31049Y-18741D01*
X30950Y-18502D01*
X30768Y-18320D01*
X30529Y-18221D01*
X30387Y-18221D01*
X30168Y-18002D01*
X30023Y-17904D01*
X29850Y-17870D01*
X27985Y-17870D01*
X27924Y-17844D01*
X36148Y-17820D01*
X36078Y-17834D01*
X36029Y-17866D01*
X35931Y-17932D01*
X35682Y-18182D01*
X35584Y-18327D01*
X35550Y-18500D01*
X35584Y-18673D01*
X35682Y-18818D01*
X35827Y-18916D01*
X36000Y-18950D01*
X36173Y-18916D01*
X36247Y-18865D01*
G54D10*
G36*
X40785Y-25639D02*
X40444Y-25980D01*
X38442Y-25980D01*
X38442Y-24199D01*
X38442Y-23981D01*
X38358Y-23779D01*
X38204Y-23625D01*
X38119Y-23590D01*
X38204Y-23555D01*
X38358Y-23401D01*
X38442Y-23199D01*
X38442Y-22981D01*
X38358Y-22779D01*
X38204Y-22625D01*
X38119Y-22590D01*
X38204Y-22555D01*
X38358Y-22401D01*
X38442Y-22199D01*
X38442Y-21981D01*
X38358Y-21779D01*
X38204Y-21625D01*
X38119Y-21590D01*
X38204Y-21555D01*
X38358Y-21401D01*
X38442Y-21199D01*
X38442Y-20981D01*
X38358Y-20779D01*
X38204Y-20625D01*
X38124Y-20591D01*
X38290Y-20472D01*
X38405Y-20286D01*
X38422Y-20227D01*
X38375Y-20140D01*
X37840Y-20140D01*
X37790Y-20140D01*
X37690Y-20140D01*
X37640Y-20140D01*
X37105Y-20140D01*
X37058Y-20227D01*
X37075Y-20286D01*
X37190Y-20472D01*
X37355Y-20591D01*
X37276Y-20625D01*
X37122Y-20779D01*
X37038Y-20981D01*
X37038Y-21199D01*
X37122Y-21401D01*
X37276Y-21555D01*
X37360Y-21590D01*
X37276Y-21625D01*
X37122Y-21779D01*
X37089Y-21858D01*
X37089Y-21604D01*
X37078Y-21400D01*
X37022Y-21263D01*
X36931Y-21240D01*
X36860Y-21311D01*
X36860Y-21169D01*
X36837Y-21078D01*
X36644Y-21011D01*
X36440Y-21022D01*
X36303Y-21078D01*
X36280Y-21169D01*
X36570Y-21459D01*
X36860Y-21169D01*
X36860Y-21311D01*
X36641Y-21530D01*
X36931Y-21820D01*
X37022Y-21797D01*
X37089Y-21604D01*
X37089Y-21858D01*
X37038Y-21981D01*
X37038Y-22199D01*
X37122Y-22401D01*
X37276Y-22555D01*
X37360Y-22590D01*
X37276Y-22625D01*
X37122Y-22779D01*
X37069Y-22906D01*
X37138Y-22714D01*
X37126Y-22491D01*
X37062Y-22334D01*
X36966Y-22305D01*
X36895Y-22376D01*
X36895Y-22234D01*
X36866Y-22138D01*
X36860Y-22135D01*
X36860Y-21891D01*
X36570Y-21601D01*
X36499Y-21672D01*
X36499Y-21530D01*
X36209Y-21240D01*
X36118Y-21263D01*
X36051Y-21456D01*
X36062Y-21660D01*
X36118Y-21797D01*
X36209Y-21820D01*
X36499Y-21530D01*
X36499Y-21672D01*
X36280Y-21891D01*
X36303Y-21982D01*
X36496Y-22049D01*
X36700Y-22038D01*
X36837Y-21982D01*
X36860Y-21891D01*
X36860Y-22135D01*
X36654Y-22062D01*
X36431Y-22074D01*
X36274Y-22138D01*
X36245Y-22234D01*
X36570Y-22559D01*
X36895Y-22234D01*
X36895Y-22376D01*
X36641Y-22630D01*
X36966Y-22955D01*
X37060Y-22926D01*
X37038Y-22981D01*
X37038Y-23199D01*
X37122Y-23401D01*
X37276Y-23555D01*
X37360Y-23590D01*
X37276Y-23625D01*
X37122Y-23779D01*
X37119Y-23784D01*
X36895Y-24008D01*
X36895Y-23026D01*
X36570Y-22701D01*
X36499Y-22772D01*
X36499Y-22630D01*
X36174Y-22305D01*
X36078Y-22334D01*
X36002Y-22546D01*
X36014Y-22769D01*
X36078Y-22926D01*
X36174Y-22955D01*
X36499Y-22630D01*
X36499Y-22772D01*
X36245Y-23026D01*
X36274Y-23122D01*
X36486Y-23198D01*
X36709Y-23186D01*
X36866Y-23122D01*
X36895Y-23026D01*
X36895Y-24008D01*
X36479Y-24425D01*
X36476Y-24425D01*
X36265Y-24512D01*
X36145Y-24632D01*
X36145Y-23915D01*
X36145Y-23706D01*
X36065Y-23513D01*
X35918Y-23365D01*
X35736Y-23289D01*
X34758Y-22312D01*
X34613Y-22214D01*
X34440Y-22180D01*
X34020Y-22180D01*
X34020Y-21982D01*
X34056Y-21946D01*
X34094Y-21855D01*
X34094Y-21756D01*
X34094Y-21206D01*
X34056Y-21114D01*
X33986Y-21044D01*
X33895Y-21006D01*
X33796Y-21006D01*
X33246Y-21006D01*
X33154Y-21044D01*
X33084Y-21114D01*
X33046Y-21205D01*
X33046Y-21304D01*
X33046Y-21854D01*
X33084Y-21946D01*
X33120Y-21982D01*
X33120Y-22267D01*
X33083Y-22304D01*
X32995Y-22515D01*
X32995Y-22605D01*
X32974Y-22637D01*
X32940Y-22810D01*
X32974Y-22983D01*
X33072Y-23128D01*
X33217Y-23226D01*
X33390Y-23260D01*
X33563Y-23226D01*
X33594Y-23205D01*
X33684Y-23205D01*
X33895Y-23118D01*
X33933Y-23080D01*
X34253Y-23080D01*
X35100Y-23927D01*
X35175Y-24107D01*
X35322Y-24255D01*
X35515Y-24335D01*
X35724Y-24335D01*
X35917Y-24255D01*
X36065Y-24108D01*
X36145Y-23915D01*
X36145Y-24632D01*
X36103Y-24674D01*
X36015Y-24885D01*
X36015Y-25114D01*
X36102Y-25325D01*
X36264Y-25487D01*
X36475Y-25575D01*
X36704Y-25575D01*
X36915Y-25488D01*
X37077Y-25326D01*
X37086Y-25304D01*
X37190Y-25472D01*
X37367Y-25600D01*
X37580Y-25650D01*
X37690Y-25650D01*
X37690Y-25190D01*
X37690Y-25140D01*
X37690Y-25040D01*
X37790Y-25040D01*
X37840Y-25040D01*
X38375Y-25040D01*
X38422Y-24953D01*
X38405Y-24894D01*
X38290Y-24708D01*
X38124Y-24588D01*
X38204Y-24555D01*
X38358Y-24401D01*
X38442Y-24199D01*
X38442Y-25980D01*
X38422Y-25980D01*
X38422Y-25227D01*
X38375Y-25140D01*
X37790Y-25140D01*
X37790Y-25650D01*
X37900Y-25650D01*
X38113Y-25600D01*
X38290Y-25472D01*
X38405Y-25286D01*
X38422Y-25227D01*
X38422Y-25980D01*
X37100Y-25980D01*
X37012Y-25980D01*
X36976Y-25944D01*
X36885Y-25906D01*
X36786Y-25906D01*
X36236Y-25906D01*
X36144Y-25944D01*
X36142Y-25945D01*
X35568Y-25372D01*
X35423Y-25274D01*
X35250Y-25240D01*
X34112Y-25240D01*
X34165Y-25115D01*
X34165Y-24886D01*
X34078Y-24675D01*
X34040Y-24637D01*
X34040Y-24132D01*
X34065Y-24108D01*
X34145Y-23915D01*
X34145Y-23706D01*
X34065Y-23513D01*
X33918Y-23365D01*
X33725Y-23285D01*
X33516Y-23285D01*
X33323Y-23365D01*
X33175Y-23512D01*
X33095Y-23705D01*
X33095Y-23914D01*
X33140Y-24022D01*
X33140Y-24637D01*
X33103Y-24674D01*
X33015Y-24885D01*
X33015Y-25114D01*
X33032Y-25156D01*
X31649Y-23773D01*
X31661Y-23761D01*
X31699Y-23670D01*
X31699Y-23571D01*
X31699Y-22971D01*
X31693Y-22956D01*
X31693Y-22399D01*
X31682Y-22186D01*
X31622Y-22039D01*
X31528Y-22012D01*
X31458Y-22082D01*
X31458Y-21942D01*
X31431Y-21848D01*
X31229Y-21777D01*
X31016Y-21788D01*
X30869Y-21848D01*
X30842Y-21942D01*
X31150Y-22249D01*
X31458Y-21942D01*
X31458Y-22082D01*
X31221Y-22320D01*
X31528Y-22628D01*
X31622Y-22601D01*
X31693Y-22399D01*
X31693Y-22956D01*
X31661Y-22879D01*
X31591Y-22809D01*
X31500Y-22771D01*
X31437Y-22771D01*
X31458Y-22698D01*
X31150Y-22391D01*
X31079Y-22461D01*
X31079Y-22320D01*
X30772Y-22012D01*
X30678Y-22039D01*
X30607Y-22241D01*
X30618Y-22454D01*
X30678Y-22601D01*
X30772Y-22628D01*
X31079Y-22320D01*
X31079Y-22461D01*
X30842Y-22698D01*
X30862Y-22771D01*
X30801Y-22771D01*
X30709Y-22809D01*
X30639Y-22879D01*
X30601Y-22970D01*
X30601Y-23069D01*
X30601Y-23669D01*
X30639Y-23761D01*
X30700Y-23822D01*
X30700Y-23910D01*
X30734Y-24083D01*
X30832Y-24228D01*
X31449Y-24845D01*
X31346Y-24845D01*
X31153Y-24925D01*
X31005Y-25072D01*
X30946Y-25212D01*
X30902Y-25103D01*
X30811Y-25080D01*
X30740Y-25151D01*
X30740Y-25009D01*
X30717Y-24918D01*
X30524Y-24851D01*
X30320Y-24862D01*
X30183Y-24918D01*
X30160Y-25009D01*
X30450Y-25299D01*
X30740Y-25009D01*
X30740Y-25151D01*
X30521Y-25370D01*
X30811Y-25660D01*
X30902Y-25637D01*
X30943Y-25518D01*
X31005Y-25667D01*
X31152Y-25815D01*
X31226Y-25846D01*
X31126Y-25846D01*
X31034Y-25884D01*
X30964Y-25954D01*
X30926Y-26045D01*
X30926Y-26144D01*
X30926Y-26675D01*
X30740Y-26675D01*
X30740Y-25731D01*
X30450Y-25441D01*
X30379Y-25512D01*
X30379Y-25370D01*
X30089Y-25080D01*
X29998Y-25103D01*
X29931Y-25296D01*
X29942Y-25500D01*
X29998Y-25637D01*
X30089Y-25660D01*
X30379Y-25370D01*
X30379Y-25512D01*
X30160Y-25731D01*
X30183Y-25822D01*
X30376Y-25889D01*
X30580Y-25878D01*
X30717Y-25822D01*
X30740Y-25731D01*
X30740Y-26675D01*
X18775Y-26675D01*
X18775Y-26175D01*
X18775Y-25966D01*
X18695Y-25773D01*
X18548Y-25625D01*
X18355Y-25545D01*
X18146Y-25545D01*
X17965Y-25620D01*
X17625Y-25620D01*
X17625Y-23185D01*
X17625Y-22956D01*
X17538Y-22745D01*
X17500Y-22707D01*
X17500Y-21855D01*
X17525Y-21795D01*
X17525Y-21586D01*
X17519Y-21571D01*
X17519Y-19764D01*
X17508Y-19560D01*
X17452Y-19423D01*
X17361Y-19400D01*
X17290Y-19471D01*
X17290Y-19329D01*
X17268Y-19241D01*
X17268Y-18404D01*
X17256Y-18181D01*
X17192Y-18024D01*
X17096Y-17995D01*
X16771Y-18320D01*
X17096Y-18645D01*
X17192Y-18616D01*
X17268Y-18404D01*
X17268Y-19241D01*
X17267Y-19238D01*
X17074Y-19171D01*
X17025Y-19173D01*
X17025Y-18716D01*
X16700Y-18391D01*
X16629Y-18462D01*
X16629Y-18320D01*
X16304Y-17995D01*
X16208Y-18024D01*
X16132Y-18236D01*
X16144Y-18459D01*
X16208Y-18616D01*
X16304Y-18645D01*
X16629Y-18320D01*
X16629Y-18462D01*
X16375Y-18716D01*
X16404Y-18812D01*
X16616Y-18888D01*
X16839Y-18876D01*
X16996Y-18812D01*
X17025Y-18716D01*
X17025Y-19173D01*
X16870Y-19182D01*
X16733Y-19238D01*
X16710Y-19329D01*
X17000Y-19619D01*
X17290Y-19329D01*
X17290Y-19471D01*
X17071Y-19690D01*
X17361Y-19980D01*
X17452Y-19957D01*
X17519Y-19764D01*
X17519Y-21571D01*
X17445Y-21393D01*
X17298Y-21245D01*
X17290Y-21241D01*
X17290Y-20051D01*
X17000Y-19761D01*
X16929Y-19832D01*
X16929Y-19690D01*
X16639Y-19400D01*
X16548Y-19423D01*
X16481Y-19616D01*
X16492Y-19820D01*
X16548Y-19957D01*
X16639Y-19980D01*
X16929Y-19690D01*
X16929Y-19832D01*
X16710Y-20051D01*
X16733Y-20142D01*
X16926Y-20209D01*
X17130Y-20198D01*
X17267Y-20142D01*
X17290Y-20051D01*
X17290Y-21241D01*
X17105Y-21165D01*
X16896Y-21165D01*
X16703Y-21245D01*
X16555Y-21392D01*
X16475Y-21585D01*
X16475Y-21794D01*
X16555Y-21987D01*
X16600Y-22032D01*
X16600Y-22707D01*
X16563Y-22744D01*
X16475Y-22955D01*
X16475Y-23184D01*
X16562Y-23395D01*
X16724Y-23557D01*
X16935Y-23645D01*
X17164Y-23645D01*
X17375Y-23558D01*
X17537Y-23396D01*
X17625Y-23185D01*
X17625Y-25620D01*
X17413Y-25620D01*
X17376Y-25583D01*
X17165Y-25495D01*
X16936Y-25495D01*
X16725Y-25582D01*
X16687Y-25620D01*
X16226Y-25620D01*
X15990Y-25384D01*
X15990Y-25030D01*
X16004Y-25025D01*
X16158Y-24871D01*
X16242Y-24669D01*
X16242Y-24451D01*
X16158Y-24249D01*
X16004Y-24095D01*
X15919Y-24060D01*
X16004Y-24025D01*
X16158Y-23871D01*
X16242Y-23669D01*
X16242Y-23451D01*
X16158Y-23249D01*
X16004Y-23095D01*
X15919Y-23060D01*
X16004Y-23025D01*
X16158Y-22871D01*
X16242Y-22669D01*
X16242Y-22451D01*
X16158Y-22249D01*
X16004Y-22095D01*
X15919Y-22060D01*
X16004Y-22025D01*
X16158Y-21871D01*
X16242Y-21669D01*
X16242Y-21451D01*
X16158Y-21249D01*
X16004Y-21095D01*
X15990Y-21089D01*
X15990Y-20718D01*
X16047Y-20695D01*
X16195Y-20548D01*
X16275Y-20355D01*
X16275Y-20146D01*
X16195Y-19953D01*
X16048Y-19805D01*
X15855Y-19725D01*
X15646Y-19725D01*
X15453Y-19805D01*
X15305Y-19952D01*
X15229Y-20134D01*
X15222Y-20142D01*
X15124Y-20287D01*
X15090Y-20460D01*
X15090Y-21089D01*
X15076Y-21095D01*
X14922Y-21249D01*
X14838Y-21451D01*
X14838Y-21669D01*
X14922Y-21871D01*
X15076Y-22025D01*
X15160Y-22060D01*
X15076Y-22095D01*
X15061Y-22110D01*
X14275Y-22110D01*
X14275Y-20355D01*
X14275Y-20146D01*
X14195Y-19953D01*
X14048Y-19805D01*
X13855Y-19725D01*
X13646Y-19725D01*
X13453Y-19805D01*
X13305Y-19952D01*
X13225Y-20145D01*
X13225Y-20354D01*
X13300Y-20534D01*
X13300Y-21064D01*
X13254Y-21110D01*
X13201Y-21110D01*
X13201Y-21109D01*
X13131Y-21039D01*
X13040Y-21001D01*
X12941Y-21001D01*
X12749Y-21001D01*
X12749Y-20000D01*
X12749Y-19901D01*
X12749Y-19301D01*
X12743Y-19286D01*
X12743Y-18729D01*
X12732Y-18516D01*
X12672Y-18369D01*
X12578Y-18342D01*
X12508Y-18412D01*
X12508Y-18272D01*
X12481Y-18178D01*
X12279Y-18107D01*
X12066Y-18118D01*
X11919Y-18178D01*
X11892Y-18272D01*
X12200Y-18579D01*
X12508Y-18272D01*
X12508Y-18412D01*
X12271Y-18650D01*
X12578Y-18958D01*
X12672Y-18931D01*
X12743Y-18729D01*
X12743Y-19286D01*
X12711Y-19209D01*
X12641Y-19139D01*
X12550Y-19101D01*
X12487Y-19101D01*
X12508Y-19028D01*
X12200Y-18721D01*
X12129Y-18791D01*
X12129Y-18650D01*
X11822Y-18342D01*
X11728Y-18369D01*
X11657Y-18571D01*
X11668Y-18784D01*
X11728Y-18931D01*
X11822Y-18958D01*
X12129Y-18650D01*
X12129Y-18791D01*
X11892Y-19028D01*
X11912Y-19101D01*
X11851Y-19101D01*
X11759Y-19139D01*
X11689Y-19209D01*
X11651Y-19300D01*
X11651Y-19399D01*
X11651Y-19999D01*
X11689Y-20091D01*
X11759Y-20161D01*
X11850Y-20199D01*
X11949Y-20199D01*
X12549Y-20199D01*
X12641Y-20161D01*
X12711Y-20091D01*
X12749Y-20000D01*
X12749Y-21001D01*
X12041Y-21001D01*
X11949Y-21039D01*
X11879Y-21109D01*
X11853Y-21169D01*
X11854Y-21112D01*
X11854Y-20888D01*
X11853Y-20597D01*
X11815Y-20505D01*
X11745Y-20435D01*
X11654Y-20397D01*
X11555Y-20397D01*
X11362Y-20396D01*
X11300Y-20458D01*
X11300Y-20950D01*
X11792Y-20950D01*
X11854Y-20888D01*
X11854Y-21112D01*
X11792Y-21050D01*
X11300Y-21050D01*
X11300Y-21542D01*
X11362Y-21604D01*
X11555Y-21603D01*
X11654Y-21603D01*
X11745Y-21565D01*
X11815Y-21495D01*
X11841Y-21432D01*
X11841Y-21919D01*
X11879Y-22011D01*
X11949Y-22081D01*
X12040Y-22119D01*
X12071Y-22119D01*
X11990Y-22178D01*
X11875Y-22364D01*
X11858Y-22423D01*
X11905Y-22510D01*
X12440Y-22510D01*
X12490Y-22510D01*
X12590Y-22510D01*
X12640Y-22510D01*
X13175Y-22510D01*
X13222Y-22423D01*
X13205Y-22364D01*
X13090Y-22178D01*
X13008Y-22119D01*
X13039Y-22119D01*
X13131Y-22081D01*
X13201Y-22011D01*
X13201Y-22010D01*
X13440Y-22010D01*
X13612Y-21976D01*
X13613Y-21976D01*
X13758Y-21878D01*
X14068Y-21568D01*
X14165Y-21423D01*
X14166Y-21422D01*
X14199Y-21250D01*
X14200Y-21250D01*
X14200Y-20535D01*
X14275Y-20355D01*
X14275Y-22110D01*
X14170Y-22110D01*
X13997Y-22144D01*
X13852Y-22242D01*
X13424Y-22670D01*
X13326Y-22815D01*
X13292Y-22988D01*
X13292Y-25598D01*
X13222Y-25627D01*
X13222Y-24697D01*
X13175Y-24610D01*
X12590Y-24610D01*
X12590Y-25120D01*
X12700Y-25120D01*
X12913Y-25070D01*
X13090Y-24942D01*
X13205Y-24756D01*
X13222Y-24697D01*
X13222Y-25627D01*
X13203Y-25635D01*
X13055Y-25782D01*
X12975Y-25975D01*
X12975Y-26184D01*
X13055Y-26377D01*
X13202Y-26525D01*
X13395Y-26605D01*
X13604Y-26605D01*
X13797Y-26525D01*
X13945Y-26378D01*
X14020Y-26195D01*
X14060Y-26156D01*
X14158Y-26011D01*
X14158Y-26010D01*
X14192Y-25838D01*
X14192Y-23174D01*
X14356Y-23010D01*
X15061Y-23010D01*
X15076Y-23025D01*
X15160Y-23060D01*
X15076Y-23095D01*
X14922Y-23249D01*
X14838Y-23451D01*
X14838Y-23669D01*
X14922Y-23871D01*
X15076Y-24025D01*
X15160Y-24060D01*
X15076Y-24095D01*
X14922Y-24249D01*
X14838Y-24451D01*
X14838Y-24669D01*
X14922Y-24871D01*
X15076Y-25025D01*
X15090Y-25030D01*
X15090Y-25570D01*
X15124Y-25743D01*
X15222Y-25888D01*
X15722Y-26388D01*
X15867Y-26486D01*
X15868Y-26486D01*
X16040Y-26520D01*
X16687Y-26520D01*
X16724Y-26557D01*
X16935Y-26645D01*
X17164Y-26645D01*
X17375Y-26558D01*
X17413Y-26520D01*
X17964Y-26520D01*
X18145Y-26595D01*
X18354Y-26595D01*
X18547Y-26515D01*
X18695Y-26368D01*
X18775Y-26175D01*
X18775Y-26675D01*
X12490Y-26675D01*
X12490Y-25120D01*
X12490Y-24610D01*
X11905Y-24610D01*
X11858Y-24697D01*
X11875Y-24756D01*
X11990Y-24942D01*
X12167Y-25070D01*
X12380Y-25120D01*
X12490Y-25120D01*
X12490Y-26675D01*
X12019Y-26675D01*
X12019Y-26154D01*
X12008Y-25950D01*
X11952Y-25813D01*
X11861Y-25790D01*
X11571Y-26080D01*
X11861Y-26370D01*
X11952Y-26347D01*
X12019Y-26154D01*
X12019Y-26675D01*
X11790Y-26675D01*
X11790Y-26441D01*
X11500Y-26151D01*
X11429Y-26222D01*
X11429Y-26080D01*
X11139Y-25790D01*
X11048Y-25813D01*
X10981Y-26006D01*
X10992Y-26210D01*
X11048Y-26347D01*
X11139Y-26370D01*
X11429Y-26080D01*
X11429Y-26222D01*
X11210Y-26441D01*
X11233Y-26532D01*
X11426Y-26599D01*
X11630Y-26588D01*
X11767Y-26532D01*
X11790Y-26441D01*
X11790Y-26675D01*
X10825Y-26675D01*
X10825Y-25428D01*
X10908Y-25511D01*
X11129Y-25603D01*
X11294Y-25603D01*
X11233Y-25628D01*
X11210Y-25719D01*
X11500Y-26009D01*
X11790Y-25719D01*
X11767Y-25628D01*
X11574Y-25561D01*
X11455Y-25567D01*
X11591Y-25512D01*
X11761Y-25342D01*
X11853Y-25121D01*
X11853Y-24881D01*
X11762Y-24659D01*
X11700Y-24597D01*
X11700Y-24186D01*
X11876Y-24010D01*
X12061Y-24010D01*
X12076Y-24025D01*
X12155Y-24058D01*
X11990Y-24178D01*
X11875Y-24364D01*
X11858Y-24423D01*
X11905Y-24510D01*
X12440Y-24510D01*
X12490Y-24510D01*
X12590Y-24510D01*
X12640Y-24510D01*
X13175Y-24510D01*
X13222Y-24423D01*
X13205Y-24364D01*
X13090Y-24178D01*
X12924Y-24058D01*
X13004Y-24025D01*
X13158Y-23871D01*
X13242Y-23669D01*
X13242Y-23451D01*
X13158Y-23249D01*
X13004Y-23095D01*
X12924Y-23061D01*
X13090Y-22942D01*
X13205Y-22756D01*
X13222Y-22697D01*
X13175Y-22610D01*
X12640Y-22610D01*
X12590Y-22610D01*
X12490Y-22610D01*
X12440Y-22610D01*
X11905Y-22610D01*
X11858Y-22697D01*
X11875Y-22756D01*
X11990Y-22942D01*
X12155Y-23061D01*
X12076Y-23095D01*
X12061Y-23110D01*
X11690Y-23110D01*
X11517Y-23144D01*
X11372Y-23242D01*
X10932Y-23682D01*
X10834Y-23827D01*
X10825Y-23872D01*
X10825Y-21594D01*
X10846Y-21603D01*
X10945Y-21603D01*
X11138Y-21604D01*
X11200Y-21542D01*
X11200Y-21100D01*
X11200Y-21050D01*
X11200Y-20950D01*
X11200Y-20900D01*
X11200Y-20458D01*
X11138Y-20396D01*
X10945Y-20397D01*
X10846Y-20397D01*
X10825Y-20405D01*
X10825Y-17894D01*
X16388Y-17878D01*
X16375Y-17924D01*
X16700Y-18249D01*
X17025Y-17924D01*
X17010Y-17876D01*
X19337Y-17869D01*
X19213Y-17994D01*
X19125Y-18205D01*
X19125Y-18262D01*
X19034Y-18397D01*
X19000Y-18570D01*
X19000Y-19384D01*
X18925Y-19565D01*
X18925Y-19774D01*
X19005Y-19967D01*
X19152Y-20115D01*
X19345Y-20195D01*
X19554Y-20195D01*
X19747Y-20115D01*
X19895Y-19968D01*
X19975Y-19775D01*
X19975Y-19566D01*
X19900Y-19385D01*
X19900Y-18859D01*
X20025Y-18808D01*
X20063Y-18770D01*
X21380Y-18770D01*
X21380Y-19104D01*
X21305Y-19285D01*
X21305Y-19494D01*
X21385Y-19687D01*
X21485Y-19788D01*
X21321Y-19788D01*
X21119Y-19872D01*
X20965Y-20026D01*
X20881Y-20228D01*
X20881Y-20446D01*
X20881Y-20752D01*
X20965Y-20954D01*
X21119Y-21108D01*
X21321Y-21192D01*
X21539Y-21192D01*
X21741Y-21108D01*
X21895Y-20954D01*
X21900Y-20940D01*
X21959Y-20940D01*
X21965Y-20954D01*
X21980Y-20969D01*
X21980Y-21000D01*
X22014Y-21172D01*
X22050Y-21225D01*
X22050Y-22250D01*
X22084Y-22423D01*
X22182Y-22568D01*
X22402Y-22788D01*
X22321Y-22788D01*
X22119Y-22872D01*
X21989Y-23002D01*
X21989Y-22991D01*
X21951Y-22899D01*
X21881Y-22829D01*
X21790Y-22791D01*
X21691Y-22791D01*
X21071Y-22791D01*
X20979Y-22829D01*
X20909Y-22899D01*
X20871Y-22990D01*
X20871Y-23040D01*
X20520Y-23040D01*
X20480Y-23040D01*
X20156Y-23040D01*
X19949Y-22833D01*
X19880Y-22665D01*
X19880Y-21982D01*
X19895Y-21968D01*
X19975Y-21775D01*
X19975Y-21566D01*
X19895Y-21373D01*
X19748Y-21225D01*
X19555Y-21145D01*
X19346Y-21145D01*
X19153Y-21225D01*
X19005Y-21372D01*
X18925Y-21565D01*
X18925Y-21774D01*
X18980Y-21906D01*
X18980Y-22664D01*
X18905Y-22845D01*
X18905Y-23054D01*
X18985Y-23247D01*
X19132Y-23395D01*
X19314Y-23470D01*
X19651Y-23808D01*
X19652Y-23808D01*
X19749Y-23873D01*
X19797Y-23905D01*
X19798Y-23906D01*
X19970Y-23940D01*
X20070Y-23940D01*
X20070Y-24567D01*
X20033Y-24604D01*
X19945Y-24815D01*
X19945Y-24821D01*
X19875Y-24653D01*
X19728Y-24505D01*
X19546Y-24429D01*
X18868Y-23752D01*
X18750Y-23672D01*
X18750Y-23033D01*
X18787Y-22996D01*
X18875Y-22785D01*
X18875Y-22556D01*
X18868Y-22539D01*
X18868Y-19754D01*
X18856Y-19531D01*
X18792Y-19374D01*
X18696Y-19345D01*
X18625Y-19416D01*
X18625Y-19274D01*
X18596Y-19178D01*
X18384Y-19102D01*
X18161Y-19114D01*
X18004Y-19178D01*
X17975Y-19274D01*
X18300Y-19599D01*
X18625Y-19274D01*
X18625Y-19416D01*
X18371Y-19670D01*
X18696Y-19995D01*
X18792Y-19966D01*
X18868Y-19754D01*
X18868Y-22539D01*
X18788Y-22345D01*
X18626Y-22183D01*
X18625Y-22182D01*
X18625Y-20066D01*
X18300Y-19741D01*
X18229Y-19812D01*
X18229Y-19670D01*
X17904Y-19345D01*
X17808Y-19374D01*
X17732Y-19586D01*
X17744Y-19809D01*
X17808Y-19966D01*
X17904Y-19995D01*
X18229Y-19670D01*
X18229Y-19812D01*
X17975Y-20066D01*
X18004Y-20162D01*
X18216Y-20238D01*
X18439Y-20226D01*
X18596Y-20162D01*
X18625Y-20066D01*
X18625Y-22182D01*
X18415Y-22095D01*
X18186Y-22095D01*
X17975Y-22182D01*
X17813Y-22344D01*
X17725Y-22555D01*
X17725Y-22784D01*
X17812Y-22995D01*
X17850Y-23033D01*
X17850Y-23727D01*
X17805Y-23772D01*
X17725Y-23965D01*
X17725Y-24174D01*
X17805Y-24367D01*
X17952Y-24515D01*
X18145Y-24595D01*
X18354Y-24595D01*
X18413Y-24570D01*
X18910Y-25067D01*
X18980Y-25234D01*
X18980Y-25914D01*
X18955Y-25975D01*
X18955Y-26184D01*
X19035Y-26377D01*
X19182Y-26525D01*
X19375Y-26605D01*
X19584Y-26605D01*
X19777Y-26525D01*
X19925Y-26378D01*
X20005Y-26185D01*
X20005Y-25976D01*
X19925Y-25783D01*
X19880Y-25737D01*
X19880Y-25235D01*
X19952Y-25061D01*
X20032Y-25255D01*
X20194Y-25417D01*
X20405Y-25505D01*
X20634Y-25505D01*
X20845Y-25418D01*
X21007Y-25256D01*
X21095Y-25045D01*
X21095Y-24816D01*
X21008Y-24605D01*
X20970Y-24567D01*
X20970Y-24142D01*
X20979Y-24151D01*
X21070Y-24189D01*
X21169Y-24189D01*
X21789Y-24189D01*
X21881Y-24151D01*
X21951Y-24081D01*
X21980Y-24011D01*
X21980Y-24663D01*
X21162Y-25482D01*
X21064Y-25627D01*
X21032Y-25788D01*
X20955Y-25975D01*
X20955Y-26184D01*
X21035Y-26377D01*
X21182Y-26525D01*
X21375Y-26605D01*
X21584Y-26605D01*
X21777Y-26525D01*
X21925Y-26378D01*
X22005Y-26185D01*
X22005Y-25976D01*
X21986Y-25930D01*
X22536Y-25380D01*
X23157Y-25380D01*
X23194Y-25417D01*
X23405Y-25505D01*
X23634Y-25505D01*
X23845Y-25418D01*
X24007Y-25256D01*
X24095Y-25045D01*
X24095Y-24816D01*
X24008Y-24605D01*
X23846Y-24443D01*
X23635Y-24355D01*
X23406Y-24355D01*
X23195Y-24442D01*
X23157Y-24480D01*
X22880Y-24480D01*
X22880Y-23969D01*
X22895Y-23954D01*
X22930Y-23869D01*
X22965Y-23954D01*
X23119Y-24108D01*
X23321Y-24192D01*
X23539Y-24192D01*
X23741Y-24108D01*
X23895Y-23954D01*
X23930Y-23869D01*
X23965Y-23954D01*
X24119Y-24108D01*
X24321Y-24192D01*
X24539Y-24192D01*
X24741Y-24108D01*
X24895Y-23954D01*
X24930Y-23869D01*
X24965Y-23954D01*
X25119Y-24108D01*
X25321Y-24192D01*
X25539Y-24192D01*
X25741Y-24108D01*
X25895Y-23954D01*
X25930Y-23869D01*
X25965Y-23954D01*
X26040Y-24029D01*
X26040Y-24654D01*
X25965Y-24835D01*
X25965Y-25044D01*
X26040Y-25224D01*
X26040Y-25354D01*
X25831Y-25562D01*
X25645Y-25485D01*
X25416Y-25485D01*
X25205Y-25572D01*
X25043Y-25734D01*
X24955Y-25945D01*
X24955Y-26174D01*
X25042Y-26385D01*
X25204Y-26547D01*
X25415Y-26635D01*
X25644Y-26635D01*
X25855Y-26548D01*
X25893Y-26510D01*
X25970Y-26510D01*
X26142Y-26476D01*
X26143Y-26476D01*
X26288Y-26378D01*
X26808Y-25858D01*
X26906Y-25713D01*
X26906Y-25712D01*
X26911Y-25684D01*
X26939Y-25540D01*
X26940Y-25540D01*
X26940Y-25225D01*
X27015Y-25045D01*
X27015Y-24836D01*
X26940Y-24655D01*
X26940Y-23893D01*
X26965Y-23954D01*
X27001Y-23990D01*
X27014Y-24053D01*
X27112Y-24198D01*
X27969Y-25055D01*
X28040Y-25224D01*
X28040Y-25741D01*
X27955Y-25945D01*
X27955Y-26174D01*
X28042Y-26385D01*
X28204Y-26547D01*
X28415Y-26635D01*
X28644Y-26635D01*
X28855Y-26548D01*
X29017Y-26386D01*
X29105Y-26175D01*
X29105Y-25946D01*
X29018Y-25735D01*
X28940Y-25657D01*
X28940Y-25225D01*
X29015Y-25045D01*
X29015Y-24836D01*
X28935Y-24643D01*
X28788Y-24495D01*
X28605Y-24419D01*
X28126Y-23940D01*
X28480Y-23940D01*
X28652Y-23906D01*
X28653Y-23906D01*
X28798Y-23808D01*
X30936Y-21670D01*
X31600Y-21670D01*
X31772Y-21636D01*
X31773Y-21636D01*
X31918Y-21538D01*
X33006Y-20450D01*
X35750Y-20450D01*
X35922Y-20416D01*
X35923Y-20416D01*
X36068Y-20318D01*
X36846Y-19540D01*
X37078Y-19540D01*
X37079Y-19541D01*
X37149Y-19611D01*
X37240Y-19649D01*
X37271Y-19649D01*
X37190Y-19708D01*
X37075Y-19894D01*
X37058Y-19953D01*
X37105Y-20040D01*
X37640Y-20040D01*
X37690Y-20040D01*
X37790Y-20040D01*
X37840Y-20040D01*
X38375Y-20040D01*
X38422Y-19953D01*
X38405Y-19894D01*
X38290Y-19708D01*
X38208Y-19649D01*
X38239Y-19649D01*
X38331Y-19611D01*
X38401Y-19541D01*
X38439Y-19450D01*
X38439Y-19351D01*
X38439Y-18731D01*
X38426Y-18700D01*
X39713Y-18700D01*
X40038Y-19024D01*
X40038Y-19199D01*
X40122Y-19401D01*
X40276Y-19555D01*
X40360Y-19590D01*
X40276Y-19625D01*
X40122Y-19779D01*
X40038Y-19981D01*
X40038Y-20199D01*
X40122Y-20401D01*
X40276Y-20555D01*
X40360Y-20590D01*
X40276Y-20625D01*
X40122Y-20779D01*
X40038Y-20981D01*
X40038Y-21199D01*
X40122Y-21401D01*
X40276Y-21555D01*
X40360Y-21590D01*
X40276Y-21625D01*
X40122Y-21779D01*
X40038Y-21981D01*
X40038Y-22199D01*
X40122Y-22401D01*
X40276Y-22555D01*
X40360Y-22590D01*
X40276Y-22625D01*
X40122Y-22779D01*
X40038Y-22981D01*
X40038Y-23199D01*
X40122Y-23401D01*
X40276Y-23555D01*
X40360Y-23590D01*
X40276Y-23625D01*
X40122Y-23779D01*
X40038Y-23981D01*
X40038Y-24199D01*
X40122Y-24401D01*
X40276Y-24555D01*
X40360Y-24590D01*
X40276Y-24625D01*
X40122Y-24779D01*
X40038Y-24981D01*
X40038Y-25199D01*
X40122Y-25401D01*
X40276Y-25555D01*
X40478Y-25639D01*
X40696Y-25639D01*
X40785Y-25639D01*
X40785Y-25639D01*
G37*
G54D27*
X40785Y-25639D02*
X40444Y-25980D01*
X38442Y-25980D01*
X38442Y-24199D01*
X38442Y-23981D01*
X38358Y-23779D01*
X38204Y-23625D01*
X38119Y-23590D01*
X38204Y-23555D01*
X38358Y-23401D01*
X38442Y-23199D01*
X38442Y-22981D01*
X38358Y-22779D01*
X38204Y-22625D01*
X38119Y-22590D01*
X38204Y-22555D01*
X38358Y-22401D01*
X38442Y-22199D01*
X38442Y-21981D01*
X38358Y-21779D01*
X38204Y-21625D01*
X38119Y-21590D01*
X38204Y-21555D01*
X38358Y-21401D01*
X38442Y-21199D01*
X38442Y-20981D01*
X38358Y-20779D01*
X38204Y-20625D01*
X38124Y-20591D01*
X38290Y-20472D01*
X38405Y-20286D01*
X38422Y-20227D01*
X38375Y-20140D01*
X37840Y-20140D01*
X37790Y-20140D01*
X37690Y-20140D01*
X37640Y-20140D01*
X37105Y-20140D01*
X37058Y-20227D01*
X37075Y-20286D01*
X37190Y-20472D01*
X37355Y-20591D01*
X37276Y-20625D01*
X37122Y-20779D01*
X37038Y-20981D01*
X37038Y-21199D01*
X37122Y-21401D01*
X37276Y-21555D01*
X37360Y-21590D01*
X37276Y-21625D01*
X37122Y-21779D01*
X37089Y-21858D01*
X37089Y-21604D01*
X37078Y-21400D01*
X37022Y-21263D01*
X36931Y-21240D01*
X36860Y-21311D01*
X36860Y-21169D01*
X36837Y-21078D01*
X36644Y-21011D01*
X36440Y-21022D01*
X36303Y-21078D01*
X36280Y-21169D01*
X36570Y-21459D01*
X36860Y-21169D01*
X36860Y-21311D01*
X36641Y-21530D01*
X36931Y-21820D01*
X37022Y-21797D01*
X37089Y-21604D01*
X37089Y-21858D01*
X37038Y-21981D01*
X37038Y-22199D01*
X37122Y-22401D01*
X37276Y-22555D01*
X37360Y-22590D01*
X37276Y-22625D01*
X37122Y-22779D01*
X37069Y-22906D01*
X37138Y-22714D01*
X37126Y-22491D01*
X37062Y-22334D01*
X36966Y-22305D01*
X36895Y-22376D01*
X36895Y-22234D01*
X36866Y-22138D01*
X36860Y-22135D01*
X36860Y-21891D01*
X36570Y-21601D01*
X36499Y-21672D01*
X36499Y-21530D01*
X36209Y-21240D01*
X36118Y-21263D01*
X36051Y-21456D01*
X36062Y-21660D01*
X36118Y-21797D01*
X36209Y-21820D01*
X36499Y-21530D01*
X36499Y-21672D01*
X36280Y-21891D01*
X36303Y-21982D01*
X36496Y-22049D01*
X36700Y-22038D01*
X36837Y-21982D01*
X36860Y-21891D01*
X36860Y-22135D01*
X36654Y-22062D01*
X36431Y-22074D01*
X36274Y-22138D01*
X36245Y-22234D01*
X36570Y-22559D01*
X36895Y-22234D01*
X36895Y-22376D01*
X36641Y-22630D01*
X36966Y-22955D01*
X37060Y-22926D01*
X37038Y-22981D01*
X37038Y-23199D01*
X37122Y-23401D01*
X37276Y-23555D01*
X37360Y-23590D01*
X37276Y-23625D01*
X37122Y-23779D01*
X37119Y-23784D01*
X36895Y-24008D01*
X36895Y-23026D01*
X36570Y-22701D01*
X36499Y-22772D01*
X36499Y-22630D01*
X36174Y-22305D01*
X36078Y-22334D01*
X36002Y-22546D01*
X36014Y-22769D01*
X36078Y-22926D01*
X36174Y-22955D01*
X36499Y-22630D01*
X36499Y-22772D01*
X36245Y-23026D01*
X36274Y-23122D01*
X36486Y-23198D01*
X36709Y-23186D01*
X36866Y-23122D01*
X36895Y-23026D01*
X36895Y-24008D01*
X36479Y-24425D01*
X36476Y-24425D01*
X36265Y-24512D01*
X36145Y-24632D01*
X36145Y-23915D01*
X36145Y-23706D01*
X36065Y-23513D01*
X35918Y-23365D01*
X35736Y-23289D01*
X34758Y-22312D01*
X34613Y-22214D01*
X34440Y-22180D01*
X34020Y-22180D01*
X34020Y-21982D01*
X34056Y-21946D01*
X34094Y-21855D01*
X34094Y-21756D01*
X34094Y-21206D01*
X34056Y-21114D01*
X33986Y-21044D01*
X33895Y-21006D01*
X33796Y-21006D01*
X33246Y-21006D01*
X33154Y-21044D01*
X33084Y-21114D01*
X33046Y-21205D01*
X33046Y-21304D01*
X33046Y-21854D01*
X33084Y-21946D01*
X33120Y-21982D01*
X33120Y-22267D01*
X33083Y-22304D01*
X32995Y-22515D01*
X32995Y-22605D01*
X32974Y-22637D01*
X32940Y-22810D01*
X32974Y-22983D01*
X33072Y-23128D01*
X33217Y-23226D01*
X33390Y-23260D01*
X33563Y-23226D01*
X33594Y-23205D01*
X33684Y-23205D01*
X33895Y-23118D01*
X33933Y-23080D01*
X34253Y-23080D01*
X35100Y-23927D01*
X35175Y-24107D01*
X35322Y-24255D01*
X35515Y-24335D01*
X35724Y-24335D01*
X35917Y-24255D01*
X36065Y-24108D01*
X36145Y-23915D01*
X36145Y-24632D01*
X36103Y-24674D01*
X36015Y-24885D01*
X36015Y-25114D01*
X36102Y-25325D01*
X36264Y-25487D01*
X36475Y-25575D01*
X36704Y-25575D01*
X36915Y-25488D01*
X37077Y-25326D01*
X37086Y-25304D01*
X37190Y-25472D01*
X37367Y-25600D01*
X37580Y-25650D01*
X37690Y-25650D01*
X37690Y-25190D01*
X37690Y-25140D01*
X37690Y-25040D01*
X37790Y-25040D01*
X37840Y-25040D01*
X38375Y-25040D01*
X38422Y-24953D01*
X38405Y-24894D01*
X38290Y-24708D01*
X38124Y-24588D01*
X38204Y-24555D01*
X38358Y-24401D01*
X38442Y-24199D01*
X38442Y-25980D01*
X38422Y-25980D01*
X38422Y-25227D01*
X38375Y-25140D01*
X37790Y-25140D01*
X37790Y-25650D01*
X37900Y-25650D01*
X38113Y-25600D01*
X38290Y-25472D01*
X38405Y-25286D01*
X38422Y-25227D01*
X38422Y-25980D01*
X37100Y-25980D01*
X37012Y-25980D01*
X36976Y-25944D01*
X36885Y-25906D01*
X36786Y-25906D01*
X36236Y-25906D01*
X36144Y-25944D01*
X36142Y-25945D01*
X35568Y-25372D01*
X35423Y-25274D01*
X35250Y-25240D01*
X34112Y-25240D01*
X34165Y-25115D01*
X34165Y-24886D01*
X34078Y-24675D01*
X34040Y-24637D01*
X34040Y-24132D01*
X34065Y-24108D01*
X34145Y-23915D01*
X34145Y-23706D01*
X34065Y-23513D01*
X33918Y-23365D01*
X33725Y-23285D01*
X33516Y-23285D01*
X33323Y-23365D01*
X33175Y-23512D01*
X33095Y-23705D01*
X33095Y-23914D01*
X33140Y-24022D01*
X33140Y-24637D01*
X33103Y-24674D01*
X33015Y-24885D01*
X33015Y-25114D01*
X33032Y-25156D01*
X31649Y-23773D01*
X31661Y-23761D01*
X31699Y-23670D01*
X31699Y-23571D01*
X31699Y-22971D01*
X31693Y-22956D01*
X31693Y-22399D01*
X31682Y-22186D01*
X31622Y-22039D01*
X31528Y-22012D01*
X31458Y-22082D01*
X31458Y-21942D01*
X31431Y-21848D01*
X31229Y-21777D01*
X31016Y-21788D01*
X30869Y-21848D01*
X30842Y-21942D01*
X31150Y-22249D01*
X31458Y-21942D01*
X31458Y-22082D01*
X31221Y-22320D01*
X31528Y-22628D01*
X31622Y-22601D01*
X31693Y-22399D01*
X31693Y-22956D01*
X31661Y-22879D01*
X31591Y-22809D01*
X31500Y-22771D01*
X31437Y-22771D01*
X31458Y-22698D01*
X31150Y-22391D01*
X31079Y-22461D01*
X31079Y-22320D01*
X30772Y-22012D01*
X30678Y-22039D01*
X30607Y-22241D01*
X30618Y-22454D01*
X30678Y-22601D01*
X30772Y-22628D01*
X31079Y-22320D01*
X31079Y-22461D01*
X30842Y-22698D01*
X30862Y-22771D01*
X30801Y-22771D01*
X30709Y-22809D01*
X30639Y-22879D01*
X30601Y-22970D01*
X30601Y-23069D01*
X30601Y-23669D01*
X30639Y-23761D01*
X30700Y-23822D01*
X30700Y-23910D01*
X30734Y-24083D01*
X30832Y-24228D01*
X31449Y-24845D01*
X31346Y-24845D01*
X31153Y-24925D01*
X31005Y-25072D01*
X30946Y-25212D01*
X30902Y-25103D01*
X30811Y-25080D01*
X30740Y-25151D01*
X30740Y-25009D01*
X30717Y-24918D01*
X30524Y-24851D01*
X30320Y-24862D01*
X30183Y-24918D01*
X30160Y-25009D01*
X30450Y-25299D01*
X30740Y-25009D01*
X30740Y-25151D01*
X30521Y-25370D01*
X30811Y-25660D01*
X30902Y-25637D01*
X30943Y-25518D01*
X31005Y-25667D01*
X31152Y-25815D01*
X31226Y-25846D01*
X31126Y-25846D01*
X31034Y-25884D01*
X30964Y-25954D01*
X30926Y-26045D01*
X30926Y-26144D01*
X30926Y-26675D01*
X30740Y-26675D01*
X30740Y-25731D01*
X30450Y-25441D01*
X30379Y-25512D01*
X30379Y-25370D01*
X30089Y-25080D01*
X29998Y-25103D01*
X29931Y-25296D01*
X29942Y-25500D01*
X29998Y-25637D01*
X30089Y-25660D01*
X30379Y-25370D01*
X30379Y-25512D01*
X30160Y-25731D01*
X30183Y-25822D01*
X30376Y-25889D01*
X30580Y-25878D01*
X30717Y-25822D01*
X30740Y-25731D01*
X30740Y-26675D01*
X18775Y-26675D01*
X18775Y-26175D01*
X18775Y-25966D01*
X18695Y-25773D01*
X18548Y-25625D01*
X18355Y-25545D01*
X18146Y-25545D01*
X17965Y-25620D01*
X17625Y-25620D01*
X17625Y-23185D01*
X17625Y-22956D01*
X17538Y-22745D01*
X17500Y-22707D01*
X17500Y-21855D01*
X17525Y-21795D01*
X17525Y-21586D01*
X17519Y-21571D01*
X17519Y-19764D01*
X17508Y-19560D01*
X17452Y-19423D01*
X17361Y-19400D01*
X17290Y-19471D01*
X17290Y-19329D01*
X17268Y-19241D01*
X17268Y-18404D01*
X17256Y-18181D01*
X17192Y-18024D01*
X17096Y-17995D01*
X16771Y-18320D01*
X17096Y-18645D01*
X17192Y-18616D01*
X17268Y-18404D01*
X17268Y-19241D01*
X17267Y-19238D01*
X17074Y-19171D01*
X17025Y-19173D01*
X17025Y-18716D01*
X16700Y-18391D01*
X16629Y-18462D01*
X16629Y-18320D01*
X16304Y-17995D01*
X16208Y-18024D01*
X16132Y-18236D01*
X16144Y-18459D01*
X16208Y-18616D01*
X16304Y-18645D01*
X16629Y-18320D01*
X16629Y-18462D01*
X16375Y-18716D01*
X16404Y-18812D01*
X16616Y-18888D01*
X16839Y-18876D01*
X16996Y-18812D01*
X17025Y-18716D01*
X17025Y-19173D01*
X16870Y-19182D01*
X16733Y-19238D01*
X16710Y-19329D01*
X17000Y-19619D01*
X17290Y-19329D01*
X17290Y-19471D01*
X17071Y-19690D01*
X17361Y-19980D01*
X17452Y-19957D01*
X17519Y-19764D01*
X17519Y-21571D01*
X17445Y-21393D01*
X17298Y-21245D01*
X17290Y-21241D01*
X17290Y-20051D01*
X17000Y-19761D01*
X16929Y-19832D01*
X16929Y-19690D01*
X16639Y-19400D01*
X16548Y-19423D01*
X16481Y-19616D01*
X16492Y-19820D01*
X16548Y-19957D01*
X16639Y-19980D01*
X16929Y-19690D01*
X16929Y-19832D01*
X16710Y-20051D01*
X16733Y-20142D01*
X16926Y-20209D01*
X17130Y-20198D01*
X17267Y-20142D01*
X17290Y-20051D01*
X17290Y-21241D01*
X17105Y-21165D01*
X16896Y-21165D01*
X16703Y-21245D01*
X16555Y-21392D01*
X16475Y-21585D01*
X16475Y-21794D01*
X16555Y-21987D01*
X16600Y-22032D01*
X16600Y-22707D01*
X16563Y-22744D01*
X16475Y-22955D01*
X16475Y-23184D01*
X16562Y-23395D01*
X16724Y-23557D01*
X16935Y-23645D01*
X17164Y-23645D01*
X17375Y-23558D01*
X17537Y-23396D01*
X17625Y-23185D01*
X17625Y-25620D01*
X17413Y-25620D01*
X17376Y-25583D01*
X17165Y-25495D01*
X16936Y-25495D01*
X16725Y-25582D01*
X16687Y-25620D01*
X16226Y-25620D01*
X15990Y-25384D01*
X15990Y-25030D01*
X16004Y-25025D01*
X16158Y-24871D01*
X16242Y-24669D01*
X16242Y-24451D01*
X16158Y-24249D01*
X16004Y-24095D01*
X15919Y-24060D01*
X16004Y-24025D01*
X16158Y-23871D01*
X16242Y-23669D01*
X16242Y-23451D01*
X16158Y-23249D01*
X16004Y-23095D01*
X15919Y-23060D01*
X16004Y-23025D01*
X16158Y-22871D01*
X16242Y-22669D01*
X16242Y-22451D01*
X16158Y-22249D01*
X16004Y-22095D01*
X15919Y-22060D01*
X16004Y-22025D01*
X16158Y-21871D01*
X16242Y-21669D01*
X16242Y-21451D01*
X16158Y-21249D01*
X16004Y-21095D01*
X15990Y-21089D01*
X15990Y-20718D01*
X16047Y-20695D01*
X16195Y-20548D01*
X16275Y-20355D01*
X16275Y-20146D01*
X16195Y-19953D01*
X16048Y-19805D01*
X15855Y-19725D01*
X15646Y-19725D01*
X15453Y-19805D01*
X15305Y-19952D01*
X15229Y-20134D01*
X15222Y-20142D01*
X15124Y-20287D01*
X15090Y-20460D01*
X15090Y-21089D01*
X15076Y-21095D01*
X14922Y-21249D01*
X14838Y-21451D01*
X14838Y-21669D01*
X14922Y-21871D01*
X15076Y-22025D01*
X15160Y-22060D01*
X15076Y-22095D01*
X15061Y-22110D01*
X14275Y-22110D01*
X14275Y-20355D01*
X14275Y-20146D01*
X14195Y-19953D01*
X14048Y-19805D01*
X13855Y-19725D01*
X13646Y-19725D01*
X13453Y-19805D01*
X13305Y-19952D01*
X13225Y-20145D01*
X13225Y-20354D01*
X13300Y-20534D01*
X13300Y-21064D01*
X13254Y-21110D01*
X13201Y-21110D01*
X13201Y-21109D01*
X13131Y-21039D01*
X13040Y-21001D01*
X12941Y-21001D01*
X12749Y-21001D01*
X12749Y-20000D01*
X12749Y-19901D01*
X12749Y-19301D01*
X12743Y-19286D01*
X12743Y-18729D01*
X12732Y-18516D01*
X12672Y-18369D01*
X12578Y-18342D01*
X12508Y-18412D01*
X12508Y-18272D01*
X12481Y-18178D01*
X12279Y-18107D01*
X12066Y-18118D01*
X11919Y-18178D01*
X11892Y-18272D01*
X12200Y-18579D01*
X12508Y-18272D01*
X12508Y-18412D01*
X12271Y-18650D01*
X12578Y-18958D01*
X12672Y-18931D01*
X12743Y-18729D01*
X12743Y-19286D01*
X12711Y-19209D01*
X12641Y-19139D01*
X12550Y-19101D01*
X12487Y-19101D01*
X12508Y-19028D01*
X12200Y-18721D01*
X12129Y-18791D01*
X12129Y-18650D01*
X11822Y-18342D01*
X11728Y-18369D01*
X11657Y-18571D01*
X11668Y-18784D01*
X11728Y-18931D01*
X11822Y-18958D01*
X12129Y-18650D01*
X12129Y-18791D01*
X11892Y-19028D01*
X11912Y-19101D01*
X11851Y-19101D01*
X11759Y-19139D01*
X11689Y-19209D01*
X11651Y-19300D01*
X11651Y-19399D01*
X11651Y-19999D01*
X11689Y-20091D01*
X11759Y-20161D01*
X11850Y-20199D01*
X11949Y-20199D01*
X12549Y-20199D01*
X12641Y-20161D01*
X12711Y-20091D01*
X12749Y-20000D01*
X12749Y-21001D01*
X12041Y-21001D01*
X11949Y-21039D01*
X11879Y-21109D01*
X11853Y-21169D01*
X11854Y-21112D01*
X11854Y-20888D01*
X11853Y-20597D01*
X11815Y-20505D01*
X11745Y-20435D01*
X11654Y-20397D01*
X11555Y-20397D01*
X11362Y-20396D01*
X11300Y-20458D01*
X11300Y-20950D01*
X11792Y-20950D01*
X11854Y-20888D01*
X11854Y-21112D01*
X11792Y-21050D01*
X11300Y-21050D01*
X11300Y-21542D01*
X11362Y-21604D01*
X11555Y-21603D01*
X11654Y-21603D01*
X11745Y-21565D01*
X11815Y-21495D01*
X11841Y-21432D01*
X11841Y-21919D01*
X11879Y-22011D01*
X11949Y-22081D01*
X12040Y-22119D01*
X12071Y-22119D01*
X11990Y-22178D01*
X11875Y-22364D01*
X11858Y-22423D01*
X11905Y-22510D01*
X12440Y-22510D01*
X12490Y-22510D01*
X12590Y-22510D01*
X12640Y-22510D01*
X13175Y-22510D01*
X13222Y-22423D01*
X13205Y-22364D01*
X13090Y-22178D01*
X13008Y-22119D01*
X13039Y-22119D01*
X13131Y-22081D01*
X13201Y-22011D01*
X13201Y-22010D01*
X13440Y-22010D01*
X13612Y-21976D01*
X13613Y-21976D01*
X13758Y-21878D01*
X14068Y-21568D01*
X14165Y-21423D01*
X14166Y-21422D01*
X14199Y-21250D01*
X14200Y-21250D01*
X14200Y-20535D01*
X14275Y-20355D01*
X14275Y-22110D01*
X14170Y-22110D01*
X13997Y-22144D01*
X13852Y-22242D01*
X13424Y-22670D01*
X13326Y-22815D01*
X13292Y-22988D01*
X13292Y-25598D01*
X13222Y-25627D01*
X13222Y-24697D01*
X13175Y-24610D01*
X12590Y-24610D01*
X12590Y-25120D01*
X12700Y-25120D01*
X12913Y-25070D01*
X13090Y-24942D01*
X13205Y-24756D01*
X13222Y-24697D01*
X13222Y-25627D01*
X13203Y-25635D01*
X13055Y-25782D01*
X12975Y-25975D01*
X12975Y-26184D01*
X13055Y-26377D01*
X13202Y-26525D01*
X13395Y-26605D01*
X13604Y-26605D01*
X13797Y-26525D01*
X13945Y-26378D01*
X14020Y-26195D01*
X14060Y-26156D01*
X14158Y-26011D01*
X14158Y-26010D01*
X14192Y-25838D01*
X14192Y-23174D01*
X14356Y-23010D01*
X15061Y-23010D01*
X15076Y-23025D01*
X15160Y-23060D01*
X15076Y-23095D01*
X14922Y-23249D01*
X14838Y-23451D01*
X14838Y-23669D01*
X14922Y-23871D01*
X15076Y-24025D01*
X15160Y-24060D01*
X15076Y-24095D01*
X14922Y-24249D01*
X14838Y-24451D01*
X14838Y-24669D01*
X14922Y-24871D01*
X15076Y-25025D01*
X15090Y-25030D01*
X15090Y-25570D01*
X15124Y-25743D01*
X15222Y-25888D01*
X15722Y-26388D01*
X15867Y-26486D01*
X15868Y-26486D01*
X16040Y-26520D01*
X16687Y-26520D01*
X16724Y-26557D01*
X16935Y-26645D01*
X17164Y-26645D01*
X17375Y-26558D01*
X17413Y-26520D01*
X17964Y-26520D01*
X18145Y-26595D01*
X18354Y-26595D01*
X18547Y-26515D01*
X18695Y-26368D01*
X18775Y-26175D01*
X18775Y-26675D01*
X12490Y-26675D01*
X12490Y-25120D01*
X12490Y-24610D01*
X11905Y-24610D01*
X11858Y-24697D01*
X11875Y-24756D01*
X11990Y-24942D01*
X12167Y-25070D01*
X12380Y-25120D01*
X12490Y-25120D01*
X12490Y-26675D01*
X12019Y-26675D01*
X12019Y-26154D01*
X12008Y-25950D01*
X11952Y-25813D01*
X11861Y-25790D01*
X11571Y-26080D01*
X11861Y-26370D01*
X11952Y-26347D01*
X12019Y-26154D01*
X12019Y-26675D01*
X11790Y-26675D01*
X11790Y-26441D01*
X11500Y-26151D01*
X11429Y-26222D01*
X11429Y-26080D01*
X11139Y-25790D01*
X11048Y-25813D01*
X10981Y-26006D01*
X10992Y-26210D01*
X11048Y-26347D01*
X11139Y-26370D01*
X11429Y-26080D01*
X11429Y-26222D01*
X11210Y-26441D01*
X11233Y-26532D01*
X11426Y-26599D01*
X11630Y-26588D01*
X11767Y-26532D01*
X11790Y-26441D01*
X11790Y-26675D01*
X10825Y-26675D01*
X10825Y-25428D01*
X10908Y-25511D01*
X11129Y-25603D01*
X11294Y-25603D01*
X11233Y-25628D01*
X11210Y-25719D01*
X11500Y-26009D01*
X11790Y-25719D01*
X11767Y-25628D01*
X11574Y-25561D01*
X11455Y-25567D01*
X11591Y-25512D01*
X11761Y-25342D01*
X11853Y-25121D01*
X11853Y-24881D01*
X11762Y-24659D01*
X11700Y-24597D01*
X11700Y-24186D01*
X11876Y-24010D01*
X12061Y-24010D01*
X12076Y-24025D01*
X12155Y-24058D01*
X11990Y-24178D01*
X11875Y-24364D01*
X11858Y-24423D01*
X11905Y-24510D01*
X12440Y-24510D01*
X12490Y-24510D01*
X12590Y-24510D01*
X12640Y-24510D01*
X13175Y-24510D01*
X13222Y-24423D01*
X13205Y-24364D01*
X13090Y-24178D01*
X12924Y-24058D01*
X13004Y-24025D01*
X13158Y-23871D01*
X13242Y-23669D01*
X13242Y-23451D01*
X13158Y-23249D01*
X13004Y-23095D01*
X12924Y-23061D01*
X13090Y-22942D01*
X13205Y-22756D01*
X13222Y-22697D01*
X13175Y-22610D01*
X12640Y-22610D01*
X12590Y-22610D01*
X12490Y-22610D01*
X12440Y-22610D01*
X11905Y-22610D01*
X11858Y-22697D01*
X11875Y-22756D01*
X11990Y-22942D01*
X12155Y-23061D01*
X12076Y-23095D01*
X12061Y-23110D01*
X11690Y-23110D01*
X11517Y-23144D01*
X11372Y-23242D01*
X10932Y-23682D01*
X10834Y-23827D01*
X10825Y-23872D01*
X10825Y-21594D01*
X10846Y-21603D01*
X10945Y-21603D01*
X11138Y-21604D01*
X11200Y-21542D01*
X11200Y-21100D01*
X11200Y-21050D01*
X11200Y-20950D01*
X11200Y-20900D01*
X11200Y-20458D01*
X11138Y-20396D01*
X10945Y-20397D01*
X10846Y-20397D01*
X10825Y-20405D01*
X10825Y-17894D01*
X16388Y-17878D01*
X16375Y-17924D01*
X16700Y-18249D01*
X17025Y-17924D01*
X17010Y-17876D01*
X19337Y-17869D01*
X19213Y-17994D01*
X19125Y-18205D01*
X19125Y-18262D01*
X19034Y-18397D01*
X19000Y-18570D01*
X19000Y-19384D01*
X18925Y-19565D01*
X18925Y-19774D01*
X19005Y-19967D01*
X19152Y-20115D01*
X19345Y-20195D01*
X19554Y-20195D01*
X19747Y-20115D01*
X19895Y-19968D01*
X19975Y-19775D01*
X19975Y-19566D01*
X19900Y-19385D01*
X19900Y-18859D01*
X20025Y-18808D01*
X20063Y-18770D01*
X21380Y-18770D01*
X21380Y-19104D01*
X21305Y-19285D01*
X21305Y-19494D01*
X21385Y-19687D01*
X21485Y-19788D01*
X21321Y-19788D01*
X21119Y-19872D01*
X20965Y-20026D01*
X20881Y-20228D01*
X20881Y-20446D01*
X20881Y-20752D01*
X20965Y-20954D01*
X21119Y-21108D01*
X21321Y-21192D01*
X21539Y-21192D01*
X21741Y-21108D01*
X21895Y-20954D01*
X21900Y-20940D01*
X21959Y-20940D01*
X21965Y-20954D01*
X21980Y-20969D01*
X21980Y-21000D01*
X22014Y-21172D01*
X22050Y-21225D01*
X22050Y-22250D01*
X22084Y-22423D01*
X22182Y-22568D01*
X22402Y-22788D01*
X22321Y-22788D01*
X22119Y-22872D01*
X21989Y-23002D01*
X21989Y-22991D01*
X21951Y-22899D01*
X21881Y-22829D01*
X21790Y-22791D01*
X21691Y-22791D01*
X21071Y-22791D01*
X20979Y-22829D01*
X20909Y-22899D01*
X20871Y-22990D01*
X20871Y-23040D01*
X20520Y-23040D01*
X20480Y-23040D01*
X20156Y-23040D01*
X19949Y-22833D01*
X19880Y-22665D01*
X19880Y-21982D01*
X19895Y-21968D01*
X19975Y-21775D01*
X19975Y-21566D01*
X19895Y-21373D01*
X19748Y-21225D01*
X19555Y-21145D01*
X19346Y-21145D01*
X19153Y-21225D01*
X19005Y-21372D01*
X18925Y-21565D01*
X18925Y-21774D01*
X18980Y-21906D01*
X18980Y-22664D01*
X18905Y-22845D01*
X18905Y-23054D01*
X18985Y-23247D01*
X19132Y-23395D01*
X19314Y-23470D01*
X19651Y-23808D01*
X19652Y-23808D01*
X19749Y-23873D01*
X19797Y-23905D01*
X19798Y-23906D01*
X19970Y-23940D01*
X20070Y-23940D01*
X20070Y-24567D01*
X20033Y-24604D01*
X19945Y-24815D01*
X19945Y-24821D01*
X19875Y-24653D01*
X19728Y-24505D01*
X19546Y-24429D01*
X18868Y-23752D01*
X18750Y-23672D01*
X18750Y-23033D01*
X18787Y-22996D01*
X18875Y-22785D01*
X18875Y-22556D01*
X18868Y-22539D01*
X18868Y-19754D01*
X18856Y-19531D01*
X18792Y-19374D01*
X18696Y-19345D01*
X18625Y-19416D01*
X18625Y-19274D01*
X18596Y-19178D01*
X18384Y-19102D01*
X18161Y-19114D01*
X18004Y-19178D01*
X17975Y-19274D01*
X18300Y-19599D01*
X18625Y-19274D01*
X18625Y-19416D01*
X18371Y-19670D01*
X18696Y-19995D01*
X18792Y-19966D01*
X18868Y-19754D01*
X18868Y-22539D01*
X18788Y-22345D01*
X18626Y-22183D01*
X18625Y-22182D01*
X18625Y-20066D01*
X18300Y-19741D01*
X18229Y-19812D01*
X18229Y-19670D01*
X17904Y-19345D01*
X17808Y-19374D01*
X17732Y-19586D01*
X17744Y-19809D01*
X17808Y-19966D01*
X17904Y-19995D01*
X18229Y-19670D01*
X18229Y-19812D01*
X17975Y-20066D01*
X18004Y-20162D01*
X18216Y-20238D01*
X18439Y-20226D01*
X18596Y-20162D01*
X18625Y-20066D01*
X18625Y-22182D01*
X18415Y-22095D01*
X18186Y-22095D01*
X17975Y-22182D01*
X17813Y-22344D01*
X17725Y-22555D01*
X17725Y-22784D01*
X17812Y-22995D01*
X17850Y-23033D01*
X17850Y-23727D01*
X17805Y-23772D01*
X17725Y-23965D01*
X17725Y-24174D01*
X17805Y-24367D01*
X17952Y-24515D01*
X18145Y-24595D01*
X18354Y-24595D01*
X18413Y-24570D01*
X18910Y-25067D01*
X18980Y-25234D01*
X18980Y-25914D01*
X18955Y-25975D01*
X18955Y-26184D01*
X19035Y-26377D01*
X19182Y-26525D01*
X19375Y-26605D01*
X19584Y-26605D01*
X19777Y-26525D01*
X19925Y-26378D01*
X20005Y-26185D01*
X20005Y-25976D01*
X19925Y-25783D01*
X19880Y-25737D01*
X19880Y-25235D01*
X19952Y-25061D01*
X20032Y-25255D01*
X20194Y-25417D01*
X20405Y-25505D01*
X20634Y-25505D01*
X20845Y-25418D01*
X21007Y-25256D01*
X21095Y-25045D01*
X21095Y-24816D01*
X21008Y-24605D01*
X20970Y-24567D01*
X20970Y-24142D01*
X20979Y-24151D01*
X21070Y-24189D01*
X21169Y-24189D01*
X21789Y-24189D01*
X21881Y-24151D01*
X21951Y-24081D01*
X21980Y-24011D01*
X21980Y-24663D01*
X21162Y-25482D01*
X21064Y-25627D01*
X21032Y-25788D01*
X20955Y-25975D01*
X20955Y-26184D01*
X21035Y-26377D01*
X21182Y-26525D01*
X21375Y-26605D01*
X21584Y-26605D01*
X21777Y-26525D01*
X21925Y-26378D01*
X22005Y-26185D01*
X22005Y-25976D01*
X21986Y-25930D01*
X22536Y-25380D01*
X23157Y-25380D01*
X23194Y-25417D01*
X23405Y-25505D01*
X23634Y-25505D01*
X23845Y-25418D01*
X24007Y-25256D01*
X24095Y-25045D01*
X24095Y-24816D01*
X24008Y-24605D01*
X23846Y-24443D01*
X23635Y-24355D01*
X23406Y-24355D01*
X23195Y-24442D01*
X23157Y-24480D01*
X22880Y-24480D01*
X22880Y-23969D01*
X22895Y-23954D01*
X22930Y-23869D01*
X22965Y-23954D01*
X23119Y-24108D01*
X23321Y-24192D01*
X23539Y-24192D01*
X23741Y-24108D01*
X23895Y-23954D01*
X23930Y-23869D01*
X23965Y-23954D01*
X24119Y-24108D01*
X24321Y-24192D01*
X24539Y-24192D01*
X24741Y-24108D01*
X24895Y-23954D01*
X24930Y-23869D01*
X24965Y-23954D01*
X25119Y-24108D01*
X25321Y-24192D01*
X25539Y-24192D01*
X25741Y-24108D01*
X25895Y-23954D01*
X25930Y-23869D01*
X25965Y-23954D01*
X26040Y-24029D01*
X26040Y-24654D01*
X25965Y-24835D01*
X25965Y-25044D01*
X26040Y-25224D01*
X26040Y-25354D01*
X25831Y-25562D01*
X25645Y-25485D01*
X25416Y-25485D01*
X25205Y-25572D01*
X25043Y-25734D01*
X24955Y-25945D01*
X24955Y-26174D01*
X25042Y-26385D01*
X25204Y-26547D01*
X25415Y-26635D01*
X25644Y-26635D01*
X25855Y-26548D01*
X25893Y-26510D01*
X25970Y-26510D01*
X26142Y-26476D01*
X26143Y-26476D01*
X26288Y-26378D01*
X26808Y-25858D01*
X26906Y-25713D01*
X26906Y-25712D01*
X26911Y-25684D01*
X26939Y-25540D01*
X26940Y-25540D01*
X26940Y-25225D01*
X27015Y-25045D01*
X27015Y-24836D01*
X26940Y-24655D01*
X26940Y-23893D01*
X26965Y-23954D01*
X27001Y-23990D01*
X27014Y-24053D01*
X27112Y-24198D01*
X27969Y-25055D01*
X28040Y-25224D01*
X28040Y-25741D01*
X27955Y-25945D01*
X27955Y-26174D01*
X28042Y-26385D01*
X28204Y-26547D01*
X28415Y-26635D01*
X28644Y-26635D01*
X28855Y-26548D01*
X29017Y-26386D01*
X29105Y-26175D01*
X29105Y-25946D01*
X29018Y-25735D01*
X28940Y-25657D01*
X28940Y-25225D01*
X29015Y-25045D01*
X29015Y-24836D01*
X28935Y-24643D01*
X28788Y-24495D01*
X28605Y-24419D01*
X28126Y-23940D01*
X28480Y-23940D01*
X28652Y-23906D01*
X28653Y-23906D01*
X28798Y-23808D01*
X30936Y-21670D01*
X31600Y-21670D01*
X31772Y-21636D01*
X31773Y-21636D01*
X31918Y-21538D01*
X33006Y-20450D01*
X35750Y-20450D01*
X35922Y-20416D01*
X35923Y-20416D01*
X36068Y-20318D01*
X36846Y-19540D01*
X37078Y-19540D01*
X37079Y-19541D01*
X37149Y-19611D01*
X37240Y-19649D01*
X37271Y-19649D01*
X37190Y-19708D01*
X37075Y-19894D01*
X37058Y-19953D01*
X37105Y-20040D01*
X37640Y-20040D01*
X37690Y-20040D01*
X37790Y-20040D01*
X37840Y-20040D01*
X38375Y-20040D01*
X38422Y-19953D01*
X38405Y-19894D01*
X38290Y-19708D01*
X38208Y-19649D01*
X38239Y-19649D01*
X38331Y-19611D01*
X38401Y-19541D01*
X38439Y-19450D01*
X38439Y-19351D01*
X38439Y-18731D01*
X38426Y-18700D01*
X39713Y-18700D01*
X40038Y-19024D01*
X40038Y-19199D01*
X40122Y-19401D01*
X40276Y-19555D01*
X40360Y-19590D01*
X40276Y-19625D01*
X40122Y-19779D01*
X40038Y-19981D01*
X40038Y-20199D01*
X40122Y-20401D01*
X40276Y-20555D01*
X40360Y-20590D01*
X40276Y-20625D01*
X40122Y-20779D01*
X40038Y-20981D01*
X40038Y-21199D01*
X40122Y-21401D01*
X40276Y-21555D01*
X40360Y-21590D01*
X40276Y-21625D01*
X40122Y-21779D01*
X40038Y-21981D01*
X40038Y-22199D01*
X40122Y-22401D01*
X40276Y-22555D01*
X40360Y-22590D01*
X40276Y-22625D01*
X40122Y-22779D01*
X40038Y-22981D01*
X40038Y-23199D01*
X40122Y-23401D01*
X40276Y-23555D01*
X40360Y-23590D01*
X40276Y-23625D01*
X40122Y-23779D01*
X40038Y-23981D01*
X40038Y-24199D01*
X40122Y-24401D01*
X40276Y-24555D01*
X40360Y-24590D01*
X40276Y-24625D01*
X40122Y-24779D01*
X40038Y-24981D01*
X40038Y-25199D01*
X40122Y-25401D01*
X40276Y-25555D01*
X40478Y-25639D01*
X40696Y-25639D01*
X40785Y-25639D01*
G54D10*
G36*
X49425Y-26675D02*
X46096Y-26675D01*
X42178Y-26675D01*
X42365Y-26598D01*
X42403Y-26560D01*
X43275Y-26560D01*
X43379Y-26603D01*
X43619Y-26603D01*
X43841Y-26512D01*
X43912Y-26440D01*
X43935Y-26495D01*
X44005Y-26565D01*
X44096Y-26603D01*
X44195Y-26603D01*
X44903Y-26603D01*
X44995Y-26565D01*
X45065Y-26495D01*
X45103Y-26404D01*
X45103Y-26305D01*
X45103Y-25597D01*
X45065Y-25505D01*
X44995Y-25435D01*
X44931Y-25408D01*
X44916Y-25328D01*
X44915Y-25327D01*
X44883Y-25279D01*
X44818Y-25182D01*
X44818Y-25181D01*
X44549Y-24912D01*
X44549Y-22850D01*
X44549Y-22751D01*
X44549Y-22151D01*
X44511Y-22059D01*
X44441Y-21989D01*
X44350Y-21951D01*
X44251Y-21951D01*
X43651Y-21951D01*
X43559Y-21989D01*
X43489Y-22059D01*
X43451Y-22150D01*
X43451Y-22249D01*
X43451Y-22849D01*
X43489Y-22941D01*
X43559Y-23011D01*
X43650Y-23049D01*
X43712Y-23049D01*
X43692Y-23122D01*
X44000Y-23429D01*
X44308Y-23122D01*
X44287Y-23049D01*
X44349Y-23049D01*
X44441Y-23011D01*
X44511Y-22941D01*
X44549Y-22850D01*
X44549Y-24912D01*
X44543Y-24906D01*
X44543Y-23579D01*
X44532Y-23366D01*
X44472Y-23219D01*
X44378Y-23192D01*
X44071Y-23500D01*
X44378Y-23808D01*
X44472Y-23781D01*
X44543Y-23579D01*
X44543Y-24906D01*
X44308Y-24671D01*
X44308Y-23878D01*
X44000Y-23571D01*
X43929Y-23641D01*
X43929Y-23500D01*
X43622Y-23192D01*
X43528Y-23219D01*
X43457Y-23421D01*
X43468Y-23634D01*
X43528Y-23781D01*
X43622Y-23808D01*
X43929Y-23500D01*
X43929Y-23641D01*
X43692Y-23878D01*
X43719Y-23972D01*
X43921Y-24043D01*
X44134Y-24032D01*
X44281Y-23972D01*
X44308Y-23878D01*
X44308Y-24671D01*
X42603Y-22966D01*
X42528Y-22785D01*
X42490Y-22747D01*
X42490Y-22383D01*
X42527Y-22346D01*
X42615Y-22135D01*
X42615Y-21906D01*
X42528Y-21695D01*
X42366Y-21533D01*
X42155Y-21445D01*
X41926Y-21445D01*
X41715Y-21532D01*
X41553Y-21694D01*
X41465Y-21905D01*
X41465Y-22134D01*
X41552Y-22345D01*
X41590Y-22383D01*
X41590Y-22747D01*
X41553Y-22784D01*
X41465Y-22995D01*
X41465Y-23224D01*
X41552Y-23435D01*
X41590Y-23473D01*
X41590Y-24120D01*
X41590Y-24834D01*
X41442Y-24981D01*
X41358Y-24779D01*
X41204Y-24625D01*
X41119Y-24590D01*
X41204Y-24555D01*
X41358Y-24401D01*
X41442Y-24199D01*
X41442Y-23981D01*
X41358Y-23779D01*
X41204Y-23625D01*
X41119Y-23590D01*
X41204Y-23555D01*
X41358Y-23401D01*
X41442Y-23199D01*
X41442Y-22981D01*
X41358Y-22779D01*
X41204Y-22625D01*
X41119Y-22590D01*
X41204Y-22555D01*
X41358Y-22401D01*
X41442Y-22199D01*
X41442Y-21981D01*
X41358Y-21779D01*
X41204Y-21625D01*
X41119Y-21590D01*
X41204Y-21555D01*
X41358Y-21401D01*
X41442Y-21199D01*
X41442Y-20981D01*
X41358Y-20779D01*
X41204Y-20625D01*
X41119Y-20590D01*
X41204Y-20555D01*
X41358Y-20401D01*
X41442Y-20199D01*
X41442Y-19981D01*
X41358Y-19779D01*
X41204Y-19625D01*
X41119Y-19590D01*
X41204Y-19555D01*
X41219Y-19540D01*
X41793Y-19540D01*
X41925Y-19595D01*
X42154Y-19595D01*
X42365Y-19508D01*
X42403Y-19470D01*
X42563Y-19470D01*
X43451Y-20357D01*
X43451Y-20619D01*
X43489Y-20711D01*
X43559Y-20781D01*
X43650Y-20819D01*
X43749Y-20819D01*
X44012Y-20819D01*
X45525Y-22331D01*
X45525Y-22384D01*
X45612Y-22595D01*
X45774Y-22757D01*
X45985Y-22845D01*
X46214Y-22845D01*
X46425Y-22758D01*
X46587Y-22596D01*
X46654Y-22434D01*
X46708Y-22566D01*
X46804Y-22595D01*
X47129Y-22270D01*
X46804Y-21945D01*
X46708Y-21974D01*
X46657Y-22114D01*
X46588Y-21945D01*
X46426Y-21783D01*
X46215Y-21695D01*
X46161Y-21695D01*
X44549Y-20082D01*
X44549Y-19921D01*
X44511Y-19829D01*
X44441Y-19759D01*
X44350Y-19721D01*
X44325Y-19721D01*
X44326Y-19720D01*
X45737Y-19720D01*
X45774Y-19757D01*
X45985Y-19845D01*
X46214Y-19845D01*
X46425Y-19758D01*
X46463Y-19720D01*
X46837Y-19720D01*
X46874Y-19757D01*
X47085Y-19845D01*
X47314Y-19845D01*
X47525Y-19758D01*
X47687Y-19596D01*
X47760Y-19420D01*
X47760Y-22205D01*
X47756Y-22131D01*
X47692Y-21974D01*
X47596Y-21945D01*
X47525Y-22016D01*
X47525Y-21874D01*
X47496Y-21778D01*
X47284Y-21702D01*
X47061Y-21714D01*
X46904Y-21778D01*
X46875Y-21874D01*
X47200Y-22199D01*
X47525Y-21874D01*
X47525Y-22016D01*
X47271Y-22270D01*
X47596Y-22595D01*
X47692Y-22566D01*
X47760Y-22376D01*
X47760Y-23866D01*
X49425Y-23866D01*
X49425Y-25405D01*
X49404Y-25397D01*
X49305Y-25397D01*
X48597Y-25397D01*
X48505Y-25435D01*
X48435Y-25505D01*
X48412Y-25559D01*
X48342Y-25489D01*
X48121Y-25397D01*
X47881Y-25397D01*
X47659Y-25488D01*
X47597Y-25550D01*
X47525Y-25550D01*
X47525Y-22666D01*
X47200Y-22341D01*
X46875Y-22666D01*
X46904Y-22762D01*
X47116Y-22838D01*
X47339Y-22826D01*
X47496Y-22762D01*
X47525Y-22666D01*
X47525Y-25550D01*
X47333Y-25550D01*
X47315Y-25505D01*
X47245Y-25435D01*
X47154Y-25397D01*
X47055Y-25397D01*
X46347Y-25397D01*
X46255Y-25435D01*
X46185Y-25505D01*
X46166Y-25548D01*
X46113Y-25495D01*
X46078Y-25530D01*
X46063Y-25485D01*
X45843Y-25404D01*
X45608Y-25414D01*
X45437Y-25485D01*
X45404Y-25584D01*
X45715Y-25894D01*
X45750Y-25929D01*
X45821Y-26000D01*
X45750Y-26071D01*
X45679Y-26141D01*
X45679Y-26000D01*
X45334Y-25654D01*
X45235Y-25687D01*
X45154Y-25907D01*
X45164Y-26142D01*
X45235Y-26313D01*
X45334Y-26346D01*
X45679Y-26000D01*
X45679Y-26141D01*
X45404Y-26416D01*
X45437Y-26515D01*
X45657Y-26596D01*
X45892Y-26586D01*
X46063Y-26515D01*
X46078Y-26469D01*
X46096Y-26487D01*
X46113Y-26505D01*
X46166Y-26451D01*
X46185Y-26495D01*
X46255Y-26565D01*
X46346Y-26603D01*
X46445Y-26603D01*
X47153Y-26603D01*
X47245Y-26565D01*
X47315Y-26495D01*
X47333Y-26450D01*
X47597Y-26450D01*
X47658Y-26511D01*
X47879Y-26603D01*
X48119Y-26603D01*
X48341Y-26512D01*
X48412Y-26440D01*
X48435Y-26495D01*
X48505Y-26565D01*
X48596Y-26603D01*
X48695Y-26603D01*
X49403Y-26603D01*
X49425Y-26593D01*
X49425Y-26675D01*
X49425Y-26675D01*
G37*
G54D27*
X49425Y-26675D02*
X46096Y-26675D01*
X42178Y-26675D01*
X42365Y-26598D01*
X42403Y-26560D01*
X43275Y-26560D01*
X43379Y-26603D01*
X43619Y-26603D01*
X43841Y-26512D01*
X43912Y-26440D01*
X43935Y-26495D01*
X44005Y-26565D01*
X44096Y-26603D01*
X44195Y-26603D01*
X44903Y-26603D01*
X44995Y-26565D01*
X45065Y-26495D01*
X45103Y-26404D01*
X45103Y-26305D01*
X45103Y-25597D01*
X45065Y-25505D01*
X44995Y-25435D01*
X44931Y-25408D01*
X44916Y-25328D01*
X44915Y-25327D01*
X44883Y-25279D01*
X44818Y-25182D01*
X44818Y-25181D01*
X44549Y-24912D01*
X44549Y-22850D01*
X44549Y-22751D01*
X44549Y-22151D01*
X44511Y-22059D01*
X44441Y-21989D01*
X44350Y-21951D01*
X44251Y-21951D01*
X43651Y-21951D01*
X43559Y-21989D01*
X43489Y-22059D01*
X43451Y-22150D01*
X43451Y-22249D01*
X43451Y-22849D01*
X43489Y-22941D01*
X43559Y-23011D01*
X43650Y-23049D01*
X43712Y-23049D01*
X43692Y-23122D01*
X44000Y-23429D01*
X44308Y-23122D01*
X44287Y-23049D01*
X44349Y-23049D01*
X44441Y-23011D01*
X44511Y-22941D01*
X44549Y-22850D01*
X44549Y-24912D01*
X44543Y-24906D01*
X44543Y-23579D01*
X44532Y-23366D01*
X44472Y-23219D01*
X44378Y-23192D01*
X44071Y-23500D01*
X44378Y-23808D01*
X44472Y-23781D01*
X44543Y-23579D01*
X44543Y-24906D01*
X44308Y-24671D01*
X44308Y-23878D01*
X44000Y-23571D01*
X43929Y-23641D01*
X43929Y-23500D01*
X43622Y-23192D01*
X43528Y-23219D01*
X43457Y-23421D01*
X43468Y-23634D01*
X43528Y-23781D01*
X43622Y-23808D01*
X43929Y-23500D01*
X43929Y-23641D01*
X43692Y-23878D01*
X43719Y-23972D01*
X43921Y-24043D01*
X44134Y-24032D01*
X44281Y-23972D01*
X44308Y-23878D01*
X44308Y-24671D01*
X42603Y-22966D01*
X42528Y-22785D01*
X42490Y-22747D01*
X42490Y-22383D01*
X42527Y-22346D01*
X42615Y-22135D01*
X42615Y-21906D01*
X42528Y-21695D01*
X42366Y-21533D01*
X42155Y-21445D01*
X41926Y-21445D01*
X41715Y-21532D01*
X41553Y-21694D01*
X41465Y-21905D01*
X41465Y-22134D01*
X41552Y-22345D01*
X41590Y-22383D01*
X41590Y-22747D01*
X41553Y-22784D01*
X41465Y-22995D01*
X41465Y-23224D01*
X41552Y-23435D01*
X41590Y-23473D01*
X41590Y-24120D01*
X41590Y-24834D01*
X41442Y-24981D01*
X41358Y-24779D01*
X41204Y-24625D01*
X41119Y-24590D01*
X41204Y-24555D01*
X41358Y-24401D01*
X41442Y-24199D01*
X41442Y-23981D01*
X41358Y-23779D01*
X41204Y-23625D01*
X41119Y-23590D01*
X41204Y-23555D01*
X41358Y-23401D01*
X41442Y-23199D01*
X41442Y-22981D01*
X41358Y-22779D01*
X41204Y-22625D01*
X41119Y-22590D01*
X41204Y-22555D01*
X41358Y-22401D01*
X41442Y-22199D01*
X41442Y-21981D01*
X41358Y-21779D01*
X41204Y-21625D01*
X41119Y-21590D01*
X41204Y-21555D01*
X41358Y-21401D01*
X41442Y-21199D01*
X41442Y-20981D01*
X41358Y-20779D01*
X41204Y-20625D01*
X41119Y-20590D01*
X41204Y-20555D01*
X41358Y-20401D01*
X41442Y-20199D01*
X41442Y-19981D01*
X41358Y-19779D01*
X41204Y-19625D01*
X41119Y-19590D01*
X41204Y-19555D01*
X41219Y-19540D01*
X41793Y-19540D01*
X41925Y-19595D01*
X42154Y-19595D01*
X42365Y-19508D01*
X42403Y-19470D01*
X42563Y-19470D01*
X43451Y-20357D01*
X43451Y-20619D01*
X43489Y-20711D01*
X43559Y-20781D01*
X43650Y-20819D01*
X43749Y-20819D01*
X44012Y-20819D01*
X45525Y-22331D01*
X45525Y-22384D01*
X45612Y-22595D01*
X45774Y-22757D01*
X45985Y-22845D01*
X46214Y-22845D01*
X46425Y-22758D01*
X46587Y-22596D01*
X46654Y-22434D01*
X46708Y-22566D01*
X46804Y-22595D01*
X47129Y-22270D01*
X46804Y-21945D01*
X46708Y-21974D01*
X46657Y-22114D01*
X46588Y-21945D01*
X46426Y-21783D01*
X46215Y-21695D01*
X46161Y-21695D01*
X44549Y-20082D01*
X44549Y-19921D01*
X44511Y-19829D01*
X44441Y-19759D01*
X44350Y-19721D01*
X44325Y-19721D01*
X44326Y-19720D01*
X45737Y-19720D01*
X45774Y-19757D01*
X45985Y-19845D01*
X46214Y-19845D01*
X46425Y-19758D01*
X46463Y-19720D01*
X46837Y-19720D01*
X46874Y-19757D01*
X47085Y-19845D01*
X47314Y-19845D01*
X47525Y-19758D01*
X47687Y-19596D01*
X47760Y-19420D01*
X47760Y-22205D01*
X47756Y-22131D01*
X47692Y-21974D01*
X47596Y-21945D01*
X47525Y-22016D01*
X47525Y-21874D01*
X47496Y-21778D01*
X47284Y-21702D01*
X47061Y-21714D01*
X46904Y-21778D01*
X46875Y-21874D01*
X47200Y-22199D01*
X47525Y-21874D01*
X47525Y-22016D01*
X47271Y-22270D01*
X47596Y-22595D01*
X47692Y-22566D01*
X47760Y-22376D01*
X47760Y-23866D01*
X49425Y-23866D01*
X49425Y-25405D01*
X49404Y-25397D01*
X49305Y-25397D01*
X48597Y-25397D01*
X48505Y-25435D01*
X48435Y-25505D01*
X48412Y-25559D01*
X48342Y-25489D01*
X48121Y-25397D01*
X47881Y-25397D01*
X47659Y-25488D01*
X47597Y-25550D01*
X47525Y-25550D01*
X47525Y-22666D01*
X47200Y-22341D01*
X46875Y-22666D01*
X46904Y-22762D01*
X47116Y-22838D01*
X47339Y-22826D01*
X47496Y-22762D01*
X47525Y-22666D01*
X47525Y-25550D01*
X47333Y-25550D01*
X47315Y-25505D01*
X47245Y-25435D01*
X47154Y-25397D01*
X47055Y-25397D01*
X46347Y-25397D01*
X46255Y-25435D01*
X46185Y-25505D01*
X46166Y-25548D01*
X46113Y-25495D01*
X46078Y-25530D01*
X46063Y-25485D01*
X45843Y-25404D01*
X45608Y-25414D01*
X45437Y-25485D01*
X45404Y-25584D01*
X45715Y-25894D01*
X45750Y-25929D01*
X45821Y-26000D01*
X45750Y-26071D01*
X45679Y-26141D01*
X45679Y-26000D01*
X45334Y-25654D01*
X45235Y-25687D01*
X45154Y-25907D01*
X45164Y-26142D01*
X45235Y-26313D01*
X45334Y-26346D01*
X45679Y-26000D01*
X45679Y-26141D01*
X45404Y-26416D01*
X45437Y-26515D01*
X45657Y-26596D01*
X45892Y-26586D01*
X46063Y-26515D01*
X46078Y-26469D01*
X46096Y-26487D01*
X46113Y-26505D01*
X46166Y-26451D01*
X46185Y-26495D01*
X46255Y-26565D01*
X46346Y-26603D01*
X46445Y-26603D01*
X47153Y-26603D01*
X47245Y-26565D01*
X47315Y-26495D01*
X47333Y-26450D01*
X47597Y-26450D01*
X47658Y-26511D01*
X47879Y-26603D01*
X48119Y-26603D01*
X48341Y-26512D01*
X48412Y-26440D01*
X48435Y-26495D01*
X48505Y-26565D01*
X48596Y-26603D01*
X48695Y-26603D01*
X49403Y-26603D01*
X49425Y-26593D01*
X49425Y-26675D01*
M02*
