G04 (created by PCBNEW-RS274X (2011-12-21 BZR 3253)-stable) date 15/03/2013 11:23:45*
G01*
G70*
G90*
%MOIN*%
G04 Gerber Fmt 3.4, Leading zero omitted, Abs format*
%FSLAX34Y34*%
G04 APERTURE LIST*
%ADD10C,0.006000*%
%ADD11C,0.015000*%
%ADD12R,0.090900X0.090900*%
%ADD13C,0.090900*%
%ADD14R,0.110000X0.082000*%
%ADD15O,0.110000X0.082000*%
%ADD16C,0.100000*%
%ADD17C,0.085000*%
%ADD18R,0.082000X0.110000*%
%ADD19O,0.082000X0.110000*%
%ADD20R,0.075000X0.075000*%
%ADD21C,0.075000*%
%ADD22R,0.080000X0.080000*%
%ADD23C,0.080000*%
G04 APERTURE END LIST*
G54D10*
G54D11*
X10500Y-08250D02*
X10750Y-08250D01*
X10500Y-27000D02*
X10500Y-08250D01*
X49750Y-27000D02*
X10500Y-27000D01*
X49750Y-08250D02*
X49750Y-27000D01*
X10500Y-08250D02*
X49750Y-08250D01*
G54D12*
X49000Y-26000D03*
G54D13*
X48000Y-26000D03*
G54D12*
X46750Y-26000D03*
G54D13*
X45750Y-26000D03*
G54D14*
X37740Y-19090D03*
G54D15*
X37740Y-20090D03*
X37740Y-21090D03*
X37740Y-22090D03*
X37740Y-23090D03*
X37740Y-24090D03*
X37740Y-25090D03*
X40740Y-25090D03*
X40740Y-24090D03*
X40740Y-23090D03*
X40740Y-22090D03*
X40740Y-21090D03*
X40740Y-20090D03*
X40740Y-19090D03*
G54D16*
X32400Y-18870D03*
X31400Y-19870D03*
X30400Y-18870D03*
G54D17*
X33590Y-25000D03*
X36590Y-25000D03*
X33570Y-22630D03*
X36570Y-22630D03*
X42040Y-23110D03*
X42040Y-26110D03*
X42040Y-19020D03*
X42040Y-22020D03*
X47200Y-19270D03*
X47200Y-22270D03*
X46100Y-22270D03*
X46100Y-19270D03*
X28530Y-26060D03*
X25530Y-26060D03*
X28170Y-19390D03*
X25170Y-19390D03*
X19700Y-18320D03*
X16700Y-18320D03*
X20520Y-24930D03*
X23520Y-24930D03*
X18300Y-22670D03*
X18300Y-19670D03*
X17050Y-26070D03*
X17050Y-23070D03*
G54D14*
X12540Y-21560D03*
G54D15*
X12540Y-22560D03*
X12540Y-23560D03*
X12540Y-24560D03*
X15540Y-24560D03*
X15540Y-23560D03*
X15540Y-22560D03*
X15540Y-21560D03*
G54D18*
X21430Y-23490D03*
G54D19*
X22430Y-23490D03*
X23430Y-23490D03*
X24430Y-23490D03*
X25430Y-23490D03*
X26430Y-23490D03*
X27430Y-23490D03*
X27430Y-20490D03*
X26430Y-20490D03*
X25430Y-20490D03*
X24430Y-20490D03*
X23430Y-20490D03*
X22430Y-20490D03*
X21430Y-20490D03*
G54D20*
X36560Y-26430D03*
G54D21*
X33560Y-26430D03*
G54D20*
X33570Y-21530D03*
G54D21*
X36570Y-21530D03*
X33620Y-23810D03*
X35620Y-23810D03*
X26490Y-24940D03*
X28490Y-24940D03*
X27700Y-18320D03*
X25700Y-18320D03*
X19450Y-19670D03*
X19450Y-21670D03*
X23830Y-19390D03*
X21830Y-19390D03*
X23810Y-18320D03*
X21810Y-18320D03*
X19430Y-22950D03*
X19430Y-24950D03*
X15750Y-20250D03*
X13750Y-20250D03*
X21480Y-26080D03*
X19480Y-26080D03*
X18250Y-26070D03*
X18250Y-24070D03*
X17000Y-21690D03*
X17000Y-19690D03*
X13500Y-26080D03*
X11500Y-26080D03*
G54D22*
X31150Y-23320D03*
G54D23*
X31150Y-22320D03*
G54D22*
X12200Y-19650D03*
G54D23*
X12200Y-18650D03*
G54D22*
X44000Y-20270D03*
G54D23*
X44000Y-19270D03*
G54D22*
X44000Y-22500D03*
G54D23*
X44000Y-23500D03*
G54D20*
X31450Y-26370D03*
G54D21*
X31450Y-25370D03*
X30450Y-25370D03*
G54D12*
X44500Y-26000D03*
G54D13*
X43500Y-26000D03*
G54D12*
X11250Y-21000D03*
G54D13*
X11250Y-25000D03*
G54D12*
X11250Y-11500D03*
G54D13*
X11250Y-15500D03*
G54D12*
X44500Y-16500D03*
G54D13*
X43500Y-16500D03*
G54D20*
X31450Y-16870D03*
G54D21*
X31450Y-15870D03*
X30450Y-15870D03*
G54D22*
X44000Y-13000D03*
G54D23*
X44000Y-14000D03*
G54D22*
X44000Y-10770D03*
G54D23*
X44000Y-09770D03*
G54D22*
X12200Y-10150D03*
G54D23*
X12200Y-09150D03*
G54D22*
X31150Y-13820D03*
G54D23*
X31150Y-12820D03*
G54D21*
X13500Y-16580D03*
X11500Y-16580D03*
X17000Y-12190D03*
X17000Y-10190D03*
X18250Y-16570D03*
X18250Y-14570D03*
X21480Y-16580D03*
X19480Y-16580D03*
X15750Y-10750D03*
X13750Y-10750D03*
X19430Y-13450D03*
X19430Y-15450D03*
X23810Y-08820D03*
X21810Y-08820D03*
X23830Y-09890D03*
X21830Y-09890D03*
X19450Y-10170D03*
X19450Y-12170D03*
X27700Y-08820D03*
X25700Y-08820D03*
X26490Y-15440D03*
X28490Y-15440D03*
X33620Y-14310D03*
X35620Y-14310D03*
G54D20*
X33570Y-12030D03*
G54D21*
X36570Y-12030D03*
G54D20*
X36560Y-16930D03*
G54D21*
X33560Y-16930D03*
G54D18*
X21430Y-13990D03*
G54D19*
X22430Y-13990D03*
X23430Y-13990D03*
X24430Y-13990D03*
X25430Y-13990D03*
X26430Y-13990D03*
X27430Y-13990D03*
X27430Y-10990D03*
X26430Y-10990D03*
X25430Y-10990D03*
X24430Y-10990D03*
X23430Y-10990D03*
X22430Y-10990D03*
X21430Y-10990D03*
G54D14*
X12540Y-12060D03*
G54D15*
X12540Y-13060D03*
X12540Y-14060D03*
X12540Y-15060D03*
X15540Y-15060D03*
X15540Y-14060D03*
X15540Y-13060D03*
X15540Y-12060D03*
G54D17*
X17050Y-16570D03*
X17050Y-13570D03*
X18300Y-13170D03*
X18300Y-10170D03*
X20520Y-15430D03*
X23520Y-15430D03*
X19700Y-08820D03*
X16700Y-08820D03*
X28170Y-09890D03*
X25170Y-09890D03*
X28530Y-16560D03*
X25530Y-16560D03*
X46100Y-12770D03*
X46100Y-09770D03*
X47200Y-09770D03*
X47200Y-12770D03*
X42040Y-09520D03*
X42040Y-12520D03*
X42040Y-13610D03*
X42040Y-16610D03*
X33570Y-13130D03*
X36570Y-13130D03*
X33590Y-15500D03*
X36590Y-15500D03*
G54D16*
X32400Y-09370D03*
X31400Y-10370D03*
X30400Y-09370D03*
G54D14*
X37740Y-09590D03*
G54D15*
X37740Y-10590D03*
X37740Y-11590D03*
X37740Y-12590D03*
X37740Y-13590D03*
X37740Y-14590D03*
X37740Y-15590D03*
X40740Y-15590D03*
X40740Y-14590D03*
X40740Y-13590D03*
X40740Y-12590D03*
X40740Y-11590D03*
X40740Y-10590D03*
X40740Y-09590D03*
G54D12*
X46750Y-16500D03*
G54D13*
X45750Y-16500D03*
G54D12*
X49000Y-16500D03*
G54D13*
X48000Y-16500D03*
M02*
