<?xml version="1.0" encoding="UTF-8" standalone="no"?>
<!-- Created with Inkscape (http://www.inkscape.org/) -->

<svg
   xmlns:dc="http://purl.org/dc/elements/1.1/"
   xmlns:cc="http://creativecommons.org/ns#"
   xmlns:rdf="http://www.w3.org/1999/02/22-rdf-syntax-ns#"
   xmlns:svg="http://www.w3.org/2000/svg"
   xmlns="http://www.w3.org/2000/svg"
   xmlns:sodipodi="http://sodipodi.sourceforge.net/DTD/sodipodi-0.dtd"
   xmlns:inkscape="http://www.inkscape.org/namespaces/inkscape"
   version="1.1"
   id="svg815"
   xml:space="preserve"
   width="816"
   height="1056"
   viewBox="0 0 816 1056"
   sodipodi:docname="Ultrasonic Label Outline.svg"
   inkscape:version="0.92.3 (2405546, 2018-03-11)"><metadata
     id="metadata821"><rdf:RDF><cc:Work
         rdf:about=""><dc:format>image/svg+xml</dc:format><dc:type
           rdf:resource="http://purl.org/dc/dcmitype/StillImage" /></cc:Work></rdf:RDF></metadata><defs
     id="defs819"><clipPath
       clipPathUnits="userSpaceOnUse"
       id="clipPath895"><path
         d="M 3068.3201,11305 H 3247.04 v 238.2 h -178.7199 z"
         id="path893"
         inkscape:connector-curvature="0"
         style="clip-rule:evenodd" /></clipPath><clipPath
       clipPathUnits="userSpaceOnUse"
       id="clipPath913"><path
         d="m 7722.8799,11305 h 178.7202 v 238.2 h -178.7202 z"
         id="path911"
         inkscape:connector-curvature="0"
         style="clip-rule:evenodd" /></clipPath><clipPath
       clipPathUnits="userSpaceOnUse"
       id="clipPath925"><path
         d="m 12377.4,11305 h 178.8 v 238.2 h -178.8 z"
         id="path923"
         inkscape:connector-curvature="0"
         style="clip-rule:evenodd" /></clipPath><clipPath
       clipPathUnits="userSpaceOnUse"
       id="clipPath937"><path
         d="m 17031.801,11305 h 178.898 v 238.2 h -178.898 z"
         id="path935"
         inkscape:connector-curvature="0"
         style="clip-rule:evenodd" /></clipPath><clipPath
       clipPathUnits="userSpaceOnUse"
       id="clipPath949"><path
         d="m 21686.4,11305 h 178.7 v 238.2 h -178.7 z"
         id="path947"
         inkscape:connector-curvature="0"
         style="clip-rule:evenodd" /></clipPath><clipPath
       clipPathUnits="userSpaceOnUse"
       id="clipPath961"><path
         d="m 26341,11305 h 178.699 v 238.2 H 26341 Z"
         id="path959"
         inkscape:connector-curvature="0"
         style="clip-rule:evenodd" /></clipPath><clipPath
       clipPathUnits="userSpaceOnUse"
       id="clipPath973"><path
         d="m 30995.5,11305 h 178.699 v 238.2 H 30995.5 Z"
         id="path971"
         inkscape:connector-curvature="0"
         style="clip-rule:evenodd" /></clipPath><clipPath
       clipPathUnits="userSpaceOnUse"
       id="clipPath985"><path
         d="m 35642.699,11305 h 178.699 v 238.2 h -178.699 z"
         id="path983"
         inkscape:connector-curvature="0"
         style="clip-rule:evenodd" /></clipPath></defs><sodipodi:namedview
     pagecolor="#ffffff"
     bordercolor="#666666"
     borderopacity="1"
     objecttolerance="10"
     gridtolerance="10"
     guidetolerance="10"
     inkscape:pageopacity="0"
     inkscape:pageshadow="2"
     inkscape:window-width="1920"
     inkscape:window-height="1137"
     id="namedview817"
     showgrid="false"
     inkscape:zoom="0.85984848"
     inkscape:cx="871.92168"
     inkscape:cy="507.60272"
     inkscape:window-x="-2"
     inkscape:window-y="1192"
     inkscape:window-maximized="1"
     inkscape:current-layer="g823"
     inkscape:measure-start="406.758,508.52"
     inkscape:measure-end="406.758,610.573" /><g
     id="g823"
     inkscape:groupmode="layer"
     inkscape:label="Ultrasonic Label Outline"
     transform="translate(0,2.64e-5)"><g
       id="g825"
       transform="matrix(1.879878,0,0,1.8790572,648.47398,443.21689)"><path
         d="m 0,0 -0.16,-1.12 -0.32,-1.12 -0.48,-1.12 -0.8,-0.8 -0.8,-0.8 -1.12,-0.48 -1.12,-0.32 -1.12,-0.16"
         style="fill:none;stroke:#000000;stroke-width:0.5;stroke-linecap:round;stroke-linejoin:round;stroke-miterlimit:10;stroke-dasharray:none;stroke-opacity:1"
         id="path827"
         inkscape:connector-curvature="0" /></g><g
       id="g829"
       transform="matrix(1.879878,0,0,1.8790572,-354.32816,-403.11048)"><path
         d="M 283.51999,444.48001 H 527.52002"
         style="fill:none;stroke:#000000;stroke-width:0.5;stroke-linecap:round;stroke-linejoin:round;stroke-miterlimit:10;stroke-dasharray:none;stroke-opacity:1"
         id="path831"
         inkscape:connector-curvature="0" /></g><g
       id="g833"
       transform="matrix(1.879878,0,0,1.8790572,637.34515,623.90704)"><path
         d="m 0,0 1.12,-0.16 1.12,-0.32 1.12,-0.48 0.8,-0.8 0.8,-0.8 0.48,-1.12 0.32,-1.12 0.16,-1.12"
         style="fill:none;stroke:#000000;stroke-width:0.5;stroke-linecap:round;stroke-linejoin:round;stroke-miterlimit:10;stroke-dasharray:none;stroke-opacity:1"
         id="path835"
         inkscape:connector-curvature="0" /></g><g
       id="g837"
       transform="matrix(1.879878,0,0,1.8790572,-354.32816,-403.11048)"><path
         d="m 533.44,450.39999 v 90.24002"
         style="fill:none;stroke:#000000;stroke-width:0.5;stroke-linecap:round;stroke-linejoin:round;stroke-miterlimit:10;stroke-dasharray:none;stroke-opacity:1"
         id="path839"
         inkscape:connector-curvature="0" /></g><g
       id="g841"
       transform="matrix(1.879878,0,0,1.8790572,167.52601,612.78305)"><path
         d="m 0,0 0.16,1.12 0.32,1.12 0.48,1.12 0.8,0.8 0.8,0.8 1.12,0.48 1.12,0.32 1.12,0.16"
         style="fill:none;stroke:#000000;stroke-width:0.5;stroke-linecap:round;stroke-linejoin:round;stroke-miterlimit:10;stroke-dasharray:none;stroke-opacity:1"
         id="path843"
         inkscape:connector-curvature="0" /></g><g
       id="g845"
       transform="matrix(1.879878,0,0,1.8790572,-354.32816,-403.11048)"><path
         d="M 527.52002,546.56 H 283.51999"
         style="fill:none;stroke:#000000;stroke-width:0.5;stroke-linecap:round;stroke-linejoin:round;stroke-miterlimit:10;stroke-dasharray:none;stroke-opacity:1"
         id="path847"
         inkscape:connector-curvature="0" /></g><g
       id="g849"
       transform="matrix(1.879878,0,0,1.8790572,178.65484,432.0929)"><path
         d="m 0,0 -1.12,0.16 -1.12,0.32 -1.12,0.48 -0.8,0.8 -0.8,0.8 -0.48,1.12 -0.32,1.12 -0.16,1.12"
         style="fill:none;stroke:#000000;stroke-width:0.5;stroke-linecap:round;stroke-linejoin:round;stroke-miterlimit:10;stroke-dasharray:none;stroke-opacity:1"
         id="path851"
         inkscape:connector-curvature="0" /></g><g
       id="g853"
       transform="matrix(1.879878,0,0,1.8790572,-354.32816,-403.11048)"><path
         d="M 277.60001,540.64001 V 450.39999"
         style="fill:none;stroke:#000000;stroke-width:0.5;stroke-linecap:round;stroke-linejoin:round;stroke-miterlimit:10;stroke-dasharray:none;stroke-opacity:1"
         id="path855"
         inkscape:connector-curvature="0"
         sodipodi:nodetypes="cc" /></g></g></svg>