M48
INCH,TZ
T1C0.025
T2C0.032
T3C0.039
T4C0.050
%
G90
G05
T1
X02350Y-01275
X02350Y-02250
X02900Y-01175
X02900Y-02150
X03500Y-00995
X03500Y-01970
X03570Y-00965
X03570Y-01940
T2
X01150Y-01658
X01150Y-02633
X01220Y-00915
X01220Y-01015
X01220Y-01890
X01220Y-01990
X01254Y-01206
X01254Y-01306
X01254Y-01406
X01254Y-01506
X01254Y-02181
X01254Y-02281
X01254Y-02381
X01254Y-02481
X01350Y-01658
X01350Y-02633
X01375Y-01075
X01375Y-02050
X01554Y-01206
X01554Y-01306
X01554Y-01406
X01554Y-01506
X01554Y-02181
X01554Y-02281
X01554Y-02381
X01554Y-02481
X01575Y-01075
X01575Y-02050
X01670Y-00882
X01670Y-01857
X01700Y-01019
X01700Y-01219
X01700Y-01994
X01700Y-02194
X01705Y-01357
X01705Y-01657
X01705Y-02332
X01705Y-02632
X01825Y-01457
X01825Y-01657
X01825Y-02432
X01825Y-02632
X01830Y-01017
X01830Y-01317
X01830Y-01992
X01830Y-02292
X01943Y-01345
X01943Y-01545
X01943Y-02320
X01943Y-02520
X01945Y-01017
X01945Y-01217
X01945Y-01992
X01945Y-02192
X01948Y-01658
X01948Y-02633
X01970Y-00882
X01970Y-01857
X02052Y-01543
X02052Y-02518
X02143Y-01099
X02143Y-01399
X02143Y-02074
X02143Y-02374
X02148Y-01658
X02148Y-02633
X02181Y-00882
X02181Y-01857
X02183Y-00989
X02183Y-01964
X02243Y-01099
X02243Y-01399
X02243Y-02074
X02243Y-02374
X02343Y-01099
X02343Y-01399
X02343Y-02074
X02343Y-02374
X02352Y-01543
X02352Y-02518
X02381Y-00882
X02381Y-01857
X02383Y-00989
X02383Y-01964
X02443Y-01099
X02443Y-01399
X02443Y-02074
X02443Y-02374
X02517Y-00989
X02517Y-01964
X02543Y-01099
X02543Y-01399
X02543Y-02074
X02543Y-02374
X02553Y-01656
X02553Y-02631
X02570Y-00882
X02570Y-01857
X02643Y-01099
X02643Y-01399
X02643Y-02074
X02643Y-02374
X02649Y-01544
X02649Y-02519
X02743Y-01099
X02743Y-01399
X02743Y-02074
X02743Y-02374
X02770Y-00882
X02770Y-01857
X02817Y-00989
X02817Y-01964
X02849Y-01544
X02849Y-02519
X02853Y-01656
X02853Y-02631
X03045Y-01587
X03045Y-02562
X03115Y-01282
X03115Y-01382
X03115Y-02257
X03115Y-02357
X03145Y-01587
X03145Y-01687
X03145Y-02562
X03145Y-02662
X03356Y-01693
X03356Y-02668
X03357Y-01203
X03357Y-01313
X03357Y-02178
X03357Y-02288
X03359Y-01550
X03359Y-02525
X03362Y-01431
X03362Y-02406
X03562Y-01431
X03562Y-02406
X03656Y-01693
X03656Y-02668
X03657Y-01203
X03657Y-01313
X03657Y-02178
X03657Y-02288
X03659Y-01550
X03659Y-02525
X03774Y-00959
X03774Y-01059
X03774Y-01159
X03774Y-01259
X03774Y-01359
X03774Y-01459
X03774Y-01559
X03774Y-01934
X03774Y-02034
X03774Y-02134
X03774Y-02234
X03774Y-02334
X03774Y-02434
X03774Y-02534
X04074Y-00959
X04074Y-01059
X04074Y-01159
X04074Y-01259
X04074Y-01359
X04074Y-01459
X04074Y-01559
X04074Y-01934
X04074Y-02034
X04074Y-02134
X04074Y-02234
X04074Y-02334
X04074Y-02434
X04074Y-02534
X04204Y-00952
X04204Y-01252
X04204Y-01361
X04204Y-01661
X04204Y-01927
X04204Y-02227
X04204Y-02336
X04204Y-02636
X04400Y-00977
X04400Y-01077
X04400Y-01300
X04400Y-01400
X04400Y-01952
X04400Y-02052
X04400Y-02275
X04400Y-02375
X04610Y-00977
X04610Y-01277
X04610Y-01952
X04610Y-02252
X04720Y-00977
X04720Y-01277
X04720Y-01952
X04720Y-02252
T3
X01125Y-01150
X01125Y-01550
X01125Y-02125
X01125Y-02525
X04350Y-01650
X04350Y-02625
X04450Y-01650
X04450Y-02625
X04575Y-01650
X04575Y-02625
X04675Y-01650
X04675Y-02625
X04800Y-01650
X04800Y-02625
X04900Y-01650
X04900Y-02625
T4
X03040Y-00937
X03040Y-01915
X03140Y-01037
X03140Y-02015
X03240Y-00937
X03240Y-01915
T0
M30
