G04 #@! TF.FileFunction,Soldermask,Bot*
%FSLAX46Y46*%
G04 Gerber Fmt 4.6, Leading zero omitted, Abs format (unit mm)*
G04 Created by KiCad (PCBNEW 4.0.2-stable) date 02/09/2016 12:40:18*
%MOMM*%
G01*
G04 APERTURE LIST*
%ADD10C,0.150000*%
%ADD11C,0.381000*%
%ADD12R,4.508000X5.508000*%
%ADD13O,17.508000X30.508000*%
%ADD14R,2.286000X2.794000*%
%ADD15O,2.286000X2.794000*%
%ADD16C,2.540000*%
%ADD17R,2.540000X2.540000*%
%ADD18C,2.908000*%
%ADD19C,2.508000*%
%ADD20O,3.508000X1.708000*%
%ADD21C,3.508000*%
%ADD22C,2.413000*%
%ADD23C,3.048000*%
%ADD24R,2.413000X2.413000*%
%ADD25R,2.082800X2.794000*%
%ADD26O,2.082800X2.794000*%
%ADD27R,2.308860X2.308860*%
%ADD28C,2.308860*%
%ADD29R,2.540000X2.235200*%
%ADD30O,2.540000X2.235200*%
G04 APERTURE END LIST*
D10*
D11*
X38750000Y250000D02*
X45250000Y250000D01*
X38750000Y10250000D02*
X38750000Y250000D01*
X11750000Y10250000D02*
X38750000Y10250000D01*
X11750000Y250000D02*
X11750000Y10250000D01*
X5250000Y250000D02*
X11750000Y250000D01*
X250000Y5250000D02*
G75*
G03X5250000Y250000I5000000J0D01*
G01*
X45250000Y250000D02*
G75*
G03X50250000Y5250000I0J5000000D01*
G01*
X50250000Y95250000D02*
G75*
G03X45250000Y100250000I-5000000J0D01*
G01*
X5250000Y100250000D02*
G75*
G03X250000Y95250000I0J-5000000D01*
G01*
X45250000Y100250000D02*
X5250000Y100250000D01*
X50250000Y5250000D02*
X50250000Y95250000D01*
X250000Y95250000D02*
X250000Y5250000D01*
D12*
X13920000Y42145000D03*
X35510000Y42145000D03*
D13*
X24715000Y47860000D03*
D14*
X19000000Y26270000D03*
D15*
X16460000Y26270000D03*
X13920000Y26270000D03*
X11380000Y26270000D03*
X8840000Y26270000D03*
X6300000Y26270000D03*
X3760000Y26270000D03*
X3760000Y18650000D03*
X6300000Y18650000D03*
X8840000Y18650000D03*
X11380000Y18650000D03*
X13920000Y18650000D03*
X16460000Y18650000D03*
X19000000Y18650000D03*
D16*
X18360000Y32300000D03*
D17*
X15820000Y32300000D03*
X3760000Y14205000D03*
D16*
X8840000Y14205000D03*
D18*
X3760000Y11665000D03*
X8840000Y11665000D03*
D19*
X46965400Y16737380D03*
X46940000Y19745000D03*
X46940000Y13745000D03*
D20*
X46940000Y23045000D03*
X46940000Y10445000D03*
D21*
X45250000Y95250000D03*
X5250000Y95250000D03*
X5250000Y5250000D03*
X45250000Y5250000D03*
D17*
X43130000Y82150000D03*
D16*
X40590000Y82150000D03*
D17*
X43130000Y74530000D03*
D16*
X40590000Y74530000D03*
D22*
X36775000Y91355000D03*
X36775000Y86275000D03*
X32965000Y86275000D03*
X32965000Y91355000D03*
D17*
X43130000Y89770000D03*
D16*
X40590000Y89770000D03*
D22*
X10745000Y84690000D03*
X10745000Y89770000D03*
X7570000Y89770000D03*
X7570000Y84690000D03*
X36775000Y76750000D03*
X36775000Y81830000D03*
D16*
X32965000Y81830000D03*
X32965000Y79290000D03*
D22*
X3760000Y56115000D03*
X3760000Y61195000D03*
X34875000Y12935000D03*
X34875000Y18015000D03*
D16*
X5665000Y65005000D03*
X3125000Y65005000D03*
X5665000Y68815000D03*
X3125000Y68815000D03*
D22*
X45035000Y49765000D03*
X45035000Y44685000D03*
D17*
X5665000Y45320000D03*
D16*
X3125000Y45320000D03*
X32965000Y74845000D03*
X32965000Y72305000D03*
D23*
X8840000Y30080000D03*
X8840000Y39478000D03*
X23440000Y29760000D03*
X32838000Y29760000D03*
X23440000Y26585000D03*
X32838000Y26585000D03*
D24*
X40590000Y13570000D03*
D22*
X40590000Y16110000D03*
X38050000Y16110000D03*
D16*
X48210000Y71355000D03*
X48210000Y78975000D03*
X48210000Y82785000D03*
X48210000Y90405000D03*
X13666000Y94088000D03*
X13666000Y86468000D03*
X2490000Y83420000D03*
X2490000Y91040000D03*
X6300000Y71990000D03*
X6300000Y79610000D03*
X12015000Y30080000D03*
X12015000Y37700000D03*
X31060000Y13885000D03*
X23440000Y13885000D03*
X2490000Y71990000D03*
X2490000Y79610000D03*
X31060000Y17060000D03*
X23440000Y17060000D03*
X48210000Y44050000D03*
X48210000Y51670000D03*
X45035000Y71355000D03*
X45035000Y63735000D03*
X23440000Y23410000D03*
X31060000Y23410000D03*
X23440000Y20235000D03*
X31060000Y20235000D03*
D25*
X25350000Y94088000D03*
D26*
X22810000Y94088000D03*
X20270000Y94088000D03*
X17730000Y94088000D03*
X17730000Y86468000D03*
X20270000Y86468000D03*
X22810000Y86468000D03*
X25350000Y86468000D03*
D17*
X48210000Y66275000D03*
D16*
X48210000Y63735000D03*
D23*
X47800000Y28255000D03*
D19*
X38050000Y37255000D03*
D23*
X47800000Y38255000D03*
D19*
X38050000Y29255000D03*
X38050000Y33255000D03*
D27*
X30430000Y98025000D03*
D28*
X20270000Y98025000D03*
D29*
X2485000Y33570000D03*
D30*
X2485000Y36110000D03*
D14*
X27255000Y80880000D03*
D15*
X24715000Y80880000D03*
X22175000Y80880000D03*
X19635000Y80880000D03*
X17095000Y80880000D03*
X14555000Y80880000D03*
X12015000Y80880000D03*
X12015000Y73260000D03*
X14555000Y73260000D03*
X17095000Y73260000D03*
X19635000Y73260000D03*
X22175000Y73260000D03*
X24715000Y73260000D03*
X27255000Y73260000D03*
M02*
