G04 (created by PCBNEW-RS274X (2011-12-21 BZR 3253)-stable) date 11/04/2013 12:13:17*
G01*
G70*
G90*
%MOIN*%
G04 Gerber Fmt 3.4, Leading zero omitted, Abs format*
%FSLAX34Y34*%
G04 APERTURE LIST*
%ADD10C,0.006000*%
%ADD11C,0.015000*%
%ADD12C,0.012000*%
%ADD13C,0.009900*%
%ADD14C,0.005000*%
%ADD15C,0.010700*%
%ADD16C,0.011300*%
%ADD17C,0.008000*%
%ADD18C,0.010000*%
G04 APERTURE END LIST*
G54D10*
G54D11*
X10500Y-27250D02*
X10500Y-08250D01*
X50000Y-08250D02*
X50000Y-27250D01*
X50000Y-27250D02*
X10500Y-27250D01*
X10500Y-08250D02*
X50000Y-08250D01*
G54D12*
X42858Y-08929D02*
X42929Y-08957D01*
X42953Y-08986D01*
X42977Y-09043D01*
X42977Y-09129D01*
X42953Y-09186D01*
X42929Y-09214D01*
X42882Y-09243D01*
X42691Y-09243D01*
X42691Y-08643D01*
X42858Y-08643D01*
X42905Y-08671D01*
X42929Y-08700D01*
X42953Y-08757D01*
X42953Y-08814D01*
X42929Y-08871D01*
X42905Y-08900D01*
X42858Y-08929D01*
X42691Y-08929D01*
X43167Y-09071D02*
X43405Y-09071D01*
X43120Y-09243D02*
X43286Y-08643D01*
X43453Y-09243D01*
X43549Y-08643D02*
X43834Y-08643D01*
X43691Y-09243D02*
X43691Y-08643D01*
X44620Y-09243D02*
X44382Y-09243D01*
X44382Y-08643D01*
X44787Y-09243D02*
X44787Y-08643D01*
X45001Y-09214D02*
X45073Y-09243D01*
X45192Y-09243D01*
X45239Y-09214D01*
X45263Y-09186D01*
X45287Y-09129D01*
X45287Y-09071D01*
X45263Y-09014D01*
X45239Y-08986D01*
X45192Y-08957D01*
X45096Y-08929D01*
X45049Y-08900D01*
X45025Y-08871D01*
X45001Y-08814D01*
X45001Y-08757D01*
X45025Y-08700D01*
X45049Y-08671D01*
X45096Y-08643D01*
X45216Y-08643D01*
X45287Y-08671D01*
X45430Y-08643D02*
X45715Y-08643D01*
X45572Y-09243D02*
X45572Y-08643D01*
X45882Y-08929D02*
X46049Y-08929D01*
X46120Y-09243D02*
X45882Y-09243D01*
X45882Y-08643D01*
X46120Y-08643D01*
X46334Y-09243D02*
X46334Y-08643D01*
X46620Y-09243D01*
X46620Y-08643D01*
X46858Y-08929D02*
X47025Y-08929D01*
X47096Y-09243D02*
X46858Y-09243D01*
X46858Y-08643D01*
X47096Y-08643D01*
X47596Y-09243D02*
X47429Y-08957D01*
X47310Y-09243D02*
X47310Y-08643D01*
X47501Y-08643D01*
X47548Y-08671D01*
X47572Y-08700D01*
X47596Y-08757D01*
X47596Y-08843D01*
X47572Y-08900D01*
X47548Y-08929D01*
X47501Y-08957D01*
X47310Y-08957D01*
X48143Y-08843D02*
X48262Y-09243D01*
X48382Y-08843D01*
X48548Y-08700D02*
X48572Y-08671D01*
X48620Y-08643D01*
X48739Y-08643D01*
X48786Y-08671D01*
X48810Y-08700D01*
X48834Y-08757D01*
X48834Y-08814D01*
X48810Y-08900D01*
X48524Y-09243D01*
X48834Y-09243D01*
G54D13*
X21555Y-11845D02*
X21630Y-12239D01*
X21705Y-11957D01*
X21780Y-12239D01*
X21855Y-11845D01*
X21968Y-11845D02*
X22043Y-12239D01*
X22118Y-11957D01*
X22193Y-12239D01*
X22268Y-11845D01*
X22381Y-11845D02*
X22456Y-12239D01*
X22531Y-11957D01*
X22606Y-12239D01*
X22681Y-11845D01*
X22832Y-12182D02*
X22851Y-12211D01*
X22832Y-12239D01*
X22813Y-12211D01*
X22832Y-12182D01*
X22832Y-12239D01*
X23020Y-11845D02*
X23020Y-12239D01*
X23020Y-11901D02*
X23039Y-11873D01*
X23076Y-11845D01*
X23132Y-11845D01*
X23170Y-11873D01*
X23189Y-11929D01*
X23189Y-12239D01*
X23432Y-12239D02*
X23395Y-12211D01*
X23376Y-12182D01*
X23357Y-12126D01*
X23357Y-11957D01*
X23376Y-11901D01*
X23395Y-11873D01*
X23432Y-11845D01*
X23488Y-11845D01*
X23526Y-11873D01*
X23545Y-11901D01*
X23563Y-11957D01*
X23563Y-12126D01*
X23545Y-12182D01*
X23526Y-12211D01*
X23488Y-12239D01*
X23432Y-12239D01*
X23676Y-11845D02*
X23826Y-11845D01*
X23732Y-11648D02*
X23732Y-12154D01*
X23751Y-12211D01*
X23788Y-12239D01*
X23826Y-12239D01*
X23901Y-11845D02*
X24051Y-11845D01*
X23957Y-11648D02*
X23957Y-12154D01*
X23976Y-12211D01*
X24013Y-12239D01*
X24051Y-12239D01*
X24182Y-12239D02*
X24182Y-11845D01*
X24182Y-11648D02*
X24163Y-11676D01*
X24182Y-11704D01*
X24201Y-11676D01*
X24182Y-11648D01*
X24182Y-11704D01*
X24370Y-11845D02*
X24370Y-12239D01*
X24370Y-11901D02*
X24389Y-11873D01*
X24426Y-11845D01*
X24482Y-11845D01*
X24520Y-11873D01*
X24539Y-11929D01*
X24539Y-12239D01*
X24895Y-11845D02*
X24895Y-12323D01*
X24876Y-12379D01*
X24857Y-12408D01*
X24820Y-12436D01*
X24763Y-12436D01*
X24726Y-12408D01*
X24895Y-12211D02*
X24857Y-12239D01*
X24782Y-12239D01*
X24745Y-12211D01*
X24726Y-12182D01*
X24707Y-12126D01*
X24707Y-11957D01*
X24726Y-11901D01*
X24745Y-11873D01*
X24782Y-11845D01*
X24857Y-11845D01*
X24895Y-11873D01*
X25082Y-12239D02*
X25082Y-11648D01*
X25251Y-12239D02*
X25251Y-11929D01*
X25232Y-11873D01*
X25194Y-11845D01*
X25138Y-11845D01*
X25101Y-11873D01*
X25082Y-11901D01*
X25607Y-12239D02*
X25607Y-11929D01*
X25588Y-11873D01*
X25550Y-11845D01*
X25475Y-11845D01*
X25438Y-11873D01*
X25607Y-12211D02*
X25569Y-12239D01*
X25475Y-12239D01*
X25438Y-12211D01*
X25419Y-12154D01*
X25419Y-12098D01*
X25438Y-12042D01*
X25475Y-12014D01*
X25569Y-12014D01*
X25607Y-11985D01*
X25963Y-12211D02*
X25925Y-12239D01*
X25850Y-12239D01*
X25813Y-12211D01*
X25794Y-12182D01*
X25775Y-12126D01*
X25775Y-11957D01*
X25794Y-11901D01*
X25813Y-11873D01*
X25850Y-11845D01*
X25925Y-11845D01*
X25963Y-11873D01*
X26132Y-12239D02*
X26132Y-11648D01*
X26169Y-12014D02*
X26282Y-12239D01*
X26282Y-11845D02*
X26132Y-12070D01*
X26451Y-12182D02*
X26470Y-12211D01*
X26451Y-12239D01*
X26432Y-12211D01*
X26451Y-12182D01*
X26451Y-12239D01*
X26695Y-12239D02*
X26658Y-12211D01*
X26639Y-12182D01*
X26620Y-12126D01*
X26620Y-11957D01*
X26639Y-11901D01*
X26658Y-11873D01*
X26695Y-11845D01*
X26751Y-11845D01*
X26789Y-11873D01*
X26808Y-11901D01*
X26826Y-11957D01*
X26826Y-12126D01*
X26808Y-12182D01*
X26789Y-12211D01*
X26751Y-12239D01*
X26695Y-12239D01*
X26995Y-12239D02*
X26995Y-11845D01*
X26995Y-11957D02*
X27014Y-11901D01*
X27032Y-11873D01*
X27070Y-11845D01*
X27107Y-11845D01*
X27408Y-11845D02*
X27408Y-12323D01*
X27389Y-12379D01*
X27370Y-12408D01*
X27333Y-12436D01*
X27276Y-12436D01*
X27239Y-12408D01*
X27408Y-12211D02*
X27370Y-12239D01*
X27295Y-12239D01*
X27258Y-12211D01*
X27239Y-12182D01*
X27220Y-12126D01*
X27220Y-11957D01*
X27239Y-11901D01*
X27258Y-11873D01*
X27295Y-11845D01*
X27370Y-11845D01*
X27408Y-11873D01*
X38595Y-16583D02*
X38989Y-16508D01*
X38707Y-16433D01*
X38989Y-16358D01*
X38595Y-16283D01*
X38595Y-16170D02*
X38989Y-16095D01*
X38707Y-16020D01*
X38989Y-15945D01*
X38595Y-15870D01*
X38595Y-15757D02*
X38989Y-15682D01*
X38707Y-15607D01*
X38989Y-15532D01*
X38595Y-15457D01*
X38932Y-15306D02*
X38961Y-15287D01*
X38989Y-15306D01*
X38961Y-15325D01*
X38932Y-15306D01*
X38989Y-15306D01*
X38989Y-15118D02*
X38595Y-15118D01*
X38707Y-15118D02*
X38651Y-15099D01*
X38623Y-15081D01*
X38595Y-15043D01*
X38595Y-15006D01*
X38961Y-14724D02*
X38989Y-14762D01*
X38989Y-14837D01*
X38961Y-14874D01*
X38904Y-14893D01*
X38679Y-14893D01*
X38623Y-14874D01*
X38595Y-14837D01*
X38595Y-14762D01*
X38623Y-14724D01*
X38679Y-14705D01*
X38735Y-14705D01*
X38792Y-14893D01*
X38764Y-14536D02*
X38764Y-14236D01*
X38989Y-14048D02*
X38595Y-14048D01*
X38398Y-14048D02*
X38426Y-14067D01*
X38454Y-14048D01*
X38426Y-14029D01*
X38398Y-14048D01*
X38454Y-14048D01*
X38595Y-13860D02*
X38989Y-13860D01*
X38651Y-13860D02*
X38623Y-13841D01*
X38595Y-13804D01*
X38595Y-13748D01*
X38623Y-13710D01*
X38679Y-13691D01*
X38989Y-13691D01*
X38595Y-13504D02*
X38989Y-13504D01*
X38651Y-13504D02*
X38623Y-13485D01*
X38595Y-13448D01*
X38595Y-13392D01*
X38623Y-13354D01*
X38679Y-13335D01*
X38989Y-13335D01*
X38989Y-13092D02*
X38961Y-13129D01*
X38932Y-13148D01*
X38876Y-13167D01*
X38707Y-13167D01*
X38651Y-13148D01*
X38623Y-13129D01*
X38595Y-13092D01*
X38595Y-13036D01*
X38623Y-12998D01*
X38651Y-12979D01*
X38707Y-12961D01*
X38876Y-12961D01*
X38932Y-12979D01*
X38961Y-12998D01*
X38989Y-13036D01*
X38989Y-13092D01*
X38595Y-12830D02*
X38989Y-12736D01*
X38595Y-12642D01*
X38989Y-12323D02*
X38679Y-12323D01*
X38623Y-12342D01*
X38595Y-12380D01*
X38595Y-12455D01*
X38623Y-12492D01*
X38961Y-12323D02*
X38989Y-12361D01*
X38989Y-12455D01*
X38961Y-12492D01*
X38904Y-12511D01*
X38848Y-12511D01*
X38792Y-12492D01*
X38764Y-12455D01*
X38764Y-12361D01*
X38735Y-12323D01*
X38595Y-12192D02*
X38595Y-12042D01*
X38398Y-12136D02*
X38904Y-12136D01*
X38961Y-12117D01*
X38989Y-12080D01*
X38989Y-12042D01*
X38989Y-11911D02*
X38595Y-11911D01*
X38398Y-11911D02*
X38426Y-11930D01*
X38454Y-11911D01*
X38426Y-11892D01*
X38398Y-11911D01*
X38454Y-11911D01*
X38989Y-11667D02*
X38961Y-11704D01*
X38932Y-11723D01*
X38876Y-11742D01*
X38707Y-11742D01*
X38651Y-11723D01*
X38623Y-11704D01*
X38595Y-11667D01*
X38595Y-11611D01*
X38623Y-11573D01*
X38651Y-11554D01*
X38707Y-11536D01*
X38876Y-11536D01*
X38932Y-11554D01*
X38961Y-11573D01*
X38989Y-11611D01*
X38989Y-11667D01*
X38595Y-11367D02*
X38989Y-11367D01*
X38651Y-11367D02*
X38623Y-11348D01*
X38595Y-11311D01*
X38595Y-11255D01*
X38623Y-11217D01*
X38679Y-11198D01*
X38989Y-11198D01*
X38932Y-11011D02*
X38961Y-10992D01*
X38989Y-11011D01*
X38961Y-11030D01*
X38932Y-11011D01*
X38989Y-11011D01*
X38961Y-10654D02*
X38989Y-10692D01*
X38989Y-10767D01*
X38961Y-10804D01*
X38932Y-10823D01*
X38876Y-10842D01*
X38707Y-10842D01*
X38651Y-10823D01*
X38623Y-10804D01*
X38595Y-10767D01*
X38595Y-10692D01*
X38623Y-10654D01*
X38989Y-10429D02*
X38961Y-10466D01*
X38932Y-10485D01*
X38876Y-10504D01*
X38707Y-10504D01*
X38651Y-10485D01*
X38623Y-10466D01*
X38595Y-10429D01*
X38595Y-10373D01*
X38623Y-10335D01*
X38651Y-10316D01*
X38707Y-10298D01*
X38876Y-10298D01*
X38932Y-10316D01*
X38961Y-10335D01*
X38989Y-10373D01*
X38989Y-10429D01*
X38932Y-10129D02*
X38961Y-10110D01*
X38989Y-10129D01*
X38961Y-10148D01*
X38932Y-10129D01*
X38989Y-10129D01*
X38595Y-09772D02*
X38989Y-09772D01*
X38595Y-09941D02*
X38904Y-09941D01*
X38961Y-09922D01*
X38989Y-09885D01*
X38989Y-09829D01*
X38961Y-09791D01*
X38932Y-09772D01*
X38989Y-09585D02*
X38398Y-09585D01*
X38764Y-09548D02*
X38989Y-09435D01*
X38595Y-09435D02*
X38820Y-09585D01*
X38595Y-26333D02*
X38989Y-26258D01*
X38707Y-26183D01*
X38989Y-26108D01*
X38595Y-26033D01*
X38595Y-25920D02*
X38989Y-25845D01*
X38707Y-25770D01*
X38989Y-25695D01*
X38595Y-25620D01*
X38595Y-25507D02*
X38989Y-25432D01*
X38707Y-25357D01*
X38989Y-25282D01*
X38595Y-25207D01*
X38932Y-25056D02*
X38961Y-25037D01*
X38989Y-25056D01*
X38961Y-25075D01*
X38932Y-25056D01*
X38989Y-25056D01*
X38989Y-24868D02*
X38595Y-24868D01*
X38707Y-24868D02*
X38651Y-24849D01*
X38623Y-24831D01*
X38595Y-24793D01*
X38595Y-24756D01*
X38961Y-24474D02*
X38989Y-24512D01*
X38989Y-24587D01*
X38961Y-24624D01*
X38904Y-24643D01*
X38679Y-24643D01*
X38623Y-24624D01*
X38595Y-24587D01*
X38595Y-24512D01*
X38623Y-24474D01*
X38679Y-24455D01*
X38735Y-24455D01*
X38792Y-24643D01*
X38764Y-24286D02*
X38764Y-23986D01*
X38989Y-23798D02*
X38595Y-23798D01*
X38398Y-23798D02*
X38426Y-23817D01*
X38454Y-23798D01*
X38426Y-23779D01*
X38398Y-23798D01*
X38454Y-23798D01*
X38595Y-23610D02*
X38989Y-23610D01*
X38651Y-23610D02*
X38623Y-23591D01*
X38595Y-23554D01*
X38595Y-23498D01*
X38623Y-23460D01*
X38679Y-23441D01*
X38989Y-23441D01*
X38595Y-23254D02*
X38989Y-23254D01*
X38651Y-23254D02*
X38623Y-23235D01*
X38595Y-23198D01*
X38595Y-23142D01*
X38623Y-23104D01*
X38679Y-23085D01*
X38989Y-23085D01*
X38989Y-22842D02*
X38961Y-22879D01*
X38932Y-22898D01*
X38876Y-22917D01*
X38707Y-22917D01*
X38651Y-22898D01*
X38623Y-22879D01*
X38595Y-22842D01*
X38595Y-22786D01*
X38623Y-22748D01*
X38651Y-22729D01*
X38707Y-22711D01*
X38876Y-22711D01*
X38932Y-22729D01*
X38961Y-22748D01*
X38989Y-22786D01*
X38989Y-22842D01*
X38595Y-22580D02*
X38989Y-22486D01*
X38595Y-22392D01*
X38989Y-22073D02*
X38679Y-22073D01*
X38623Y-22092D01*
X38595Y-22130D01*
X38595Y-22205D01*
X38623Y-22242D01*
X38961Y-22073D02*
X38989Y-22111D01*
X38989Y-22205D01*
X38961Y-22242D01*
X38904Y-22261D01*
X38848Y-22261D01*
X38792Y-22242D01*
X38764Y-22205D01*
X38764Y-22111D01*
X38735Y-22073D01*
X38595Y-21942D02*
X38595Y-21792D01*
X38398Y-21886D02*
X38904Y-21886D01*
X38961Y-21867D01*
X38989Y-21830D01*
X38989Y-21792D01*
X38989Y-21661D02*
X38595Y-21661D01*
X38398Y-21661D02*
X38426Y-21680D01*
X38454Y-21661D01*
X38426Y-21642D01*
X38398Y-21661D01*
X38454Y-21661D01*
X38989Y-21417D02*
X38961Y-21454D01*
X38932Y-21473D01*
X38876Y-21492D01*
X38707Y-21492D01*
X38651Y-21473D01*
X38623Y-21454D01*
X38595Y-21417D01*
X38595Y-21361D01*
X38623Y-21323D01*
X38651Y-21304D01*
X38707Y-21286D01*
X38876Y-21286D01*
X38932Y-21304D01*
X38961Y-21323D01*
X38989Y-21361D01*
X38989Y-21417D01*
X38595Y-21117D02*
X38989Y-21117D01*
X38651Y-21117D02*
X38623Y-21098D01*
X38595Y-21061D01*
X38595Y-21005D01*
X38623Y-20967D01*
X38679Y-20948D01*
X38989Y-20948D01*
X38932Y-20761D02*
X38961Y-20742D01*
X38989Y-20761D01*
X38961Y-20780D01*
X38932Y-20761D01*
X38989Y-20761D01*
X38961Y-20404D02*
X38989Y-20442D01*
X38989Y-20517D01*
X38961Y-20554D01*
X38932Y-20573D01*
X38876Y-20592D01*
X38707Y-20592D01*
X38651Y-20573D01*
X38623Y-20554D01*
X38595Y-20517D01*
X38595Y-20442D01*
X38623Y-20404D01*
X38989Y-20179D02*
X38961Y-20216D01*
X38932Y-20235D01*
X38876Y-20254D01*
X38707Y-20254D01*
X38651Y-20235D01*
X38623Y-20216D01*
X38595Y-20179D01*
X38595Y-20123D01*
X38623Y-20085D01*
X38651Y-20066D01*
X38707Y-20048D01*
X38876Y-20048D01*
X38932Y-20066D01*
X38961Y-20085D01*
X38989Y-20123D01*
X38989Y-20179D01*
X38932Y-19879D02*
X38961Y-19860D01*
X38989Y-19879D01*
X38961Y-19898D01*
X38932Y-19879D01*
X38989Y-19879D01*
X38595Y-19522D02*
X38989Y-19522D01*
X38595Y-19691D02*
X38904Y-19691D01*
X38961Y-19672D01*
X38989Y-19635D01*
X38989Y-19579D01*
X38961Y-19541D01*
X38932Y-19522D01*
X38989Y-19335D02*
X38398Y-19335D01*
X38764Y-19298D02*
X38989Y-19185D01*
X38595Y-19185D02*
X38820Y-19335D01*
X21555Y-21595D02*
X21630Y-21989D01*
X21705Y-21707D01*
X21780Y-21989D01*
X21855Y-21595D01*
X21968Y-21595D02*
X22043Y-21989D01*
X22118Y-21707D01*
X22193Y-21989D01*
X22268Y-21595D01*
X22381Y-21595D02*
X22456Y-21989D01*
X22531Y-21707D01*
X22606Y-21989D01*
X22681Y-21595D01*
X22832Y-21932D02*
X22851Y-21961D01*
X22832Y-21989D01*
X22813Y-21961D01*
X22832Y-21932D01*
X22832Y-21989D01*
X23020Y-21595D02*
X23020Y-21989D01*
X23020Y-21651D02*
X23039Y-21623D01*
X23076Y-21595D01*
X23132Y-21595D01*
X23170Y-21623D01*
X23189Y-21679D01*
X23189Y-21989D01*
X23432Y-21989D02*
X23395Y-21961D01*
X23376Y-21932D01*
X23357Y-21876D01*
X23357Y-21707D01*
X23376Y-21651D01*
X23395Y-21623D01*
X23432Y-21595D01*
X23488Y-21595D01*
X23526Y-21623D01*
X23545Y-21651D01*
X23563Y-21707D01*
X23563Y-21876D01*
X23545Y-21932D01*
X23526Y-21961D01*
X23488Y-21989D01*
X23432Y-21989D01*
X23676Y-21595D02*
X23826Y-21595D01*
X23732Y-21398D02*
X23732Y-21904D01*
X23751Y-21961D01*
X23788Y-21989D01*
X23826Y-21989D01*
X23901Y-21595D02*
X24051Y-21595D01*
X23957Y-21398D02*
X23957Y-21904D01*
X23976Y-21961D01*
X24013Y-21989D01*
X24051Y-21989D01*
X24182Y-21989D02*
X24182Y-21595D01*
X24182Y-21398D02*
X24163Y-21426D01*
X24182Y-21454D01*
X24201Y-21426D01*
X24182Y-21398D01*
X24182Y-21454D01*
X24370Y-21595D02*
X24370Y-21989D01*
X24370Y-21651D02*
X24389Y-21623D01*
X24426Y-21595D01*
X24482Y-21595D01*
X24520Y-21623D01*
X24539Y-21679D01*
X24539Y-21989D01*
X24895Y-21595D02*
X24895Y-22073D01*
X24876Y-22129D01*
X24857Y-22158D01*
X24820Y-22186D01*
X24763Y-22186D01*
X24726Y-22158D01*
X24895Y-21961D02*
X24857Y-21989D01*
X24782Y-21989D01*
X24745Y-21961D01*
X24726Y-21932D01*
X24707Y-21876D01*
X24707Y-21707D01*
X24726Y-21651D01*
X24745Y-21623D01*
X24782Y-21595D01*
X24857Y-21595D01*
X24895Y-21623D01*
X25082Y-21989D02*
X25082Y-21398D01*
X25251Y-21989D02*
X25251Y-21679D01*
X25232Y-21623D01*
X25194Y-21595D01*
X25138Y-21595D01*
X25101Y-21623D01*
X25082Y-21651D01*
X25607Y-21989D02*
X25607Y-21679D01*
X25588Y-21623D01*
X25550Y-21595D01*
X25475Y-21595D01*
X25438Y-21623D01*
X25607Y-21961D02*
X25569Y-21989D01*
X25475Y-21989D01*
X25438Y-21961D01*
X25419Y-21904D01*
X25419Y-21848D01*
X25438Y-21792D01*
X25475Y-21764D01*
X25569Y-21764D01*
X25607Y-21735D01*
X25963Y-21961D02*
X25925Y-21989D01*
X25850Y-21989D01*
X25813Y-21961D01*
X25794Y-21932D01*
X25775Y-21876D01*
X25775Y-21707D01*
X25794Y-21651D01*
X25813Y-21623D01*
X25850Y-21595D01*
X25925Y-21595D01*
X25963Y-21623D01*
X26132Y-21989D02*
X26132Y-21398D01*
X26169Y-21764D02*
X26282Y-21989D01*
X26282Y-21595D02*
X26132Y-21820D01*
X26451Y-21932D02*
X26470Y-21961D01*
X26451Y-21989D01*
X26432Y-21961D01*
X26451Y-21932D01*
X26451Y-21989D01*
X26695Y-21989D02*
X26658Y-21961D01*
X26639Y-21932D01*
X26620Y-21876D01*
X26620Y-21707D01*
X26639Y-21651D01*
X26658Y-21623D01*
X26695Y-21595D01*
X26751Y-21595D01*
X26789Y-21623D01*
X26808Y-21651D01*
X26826Y-21707D01*
X26826Y-21876D01*
X26808Y-21932D01*
X26789Y-21961D01*
X26751Y-21989D01*
X26695Y-21989D01*
X26995Y-21989D02*
X26995Y-21595D01*
X26995Y-21707D02*
X27014Y-21651D01*
X27032Y-21623D01*
X27070Y-21595D01*
X27107Y-21595D01*
X27408Y-21595D02*
X27408Y-22073D01*
X27389Y-22129D01*
X27370Y-22158D01*
X27333Y-22186D01*
X27276Y-22186D01*
X27239Y-22158D01*
X27408Y-21961D02*
X27370Y-21989D01*
X27295Y-21989D01*
X27258Y-21961D01*
X27239Y-21932D01*
X27220Y-21876D01*
X27220Y-21707D01*
X27239Y-21651D01*
X27258Y-21623D01*
X27295Y-21595D01*
X27370Y-21595D01*
X27408Y-21623D01*
G54D12*
X42858Y-18679D02*
X42929Y-18707D01*
X42953Y-18736D01*
X42977Y-18793D01*
X42977Y-18879D01*
X42953Y-18936D01*
X42929Y-18964D01*
X42882Y-18993D01*
X42691Y-18993D01*
X42691Y-18393D01*
X42858Y-18393D01*
X42905Y-18421D01*
X42929Y-18450D01*
X42953Y-18507D01*
X42953Y-18564D01*
X42929Y-18621D01*
X42905Y-18650D01*
X42858Y-18679D01*
X42691Y-18679D01*
X43167Y-18821D02*
X43405Y-18821D01*
X43120Y-18993D02*
X43286Y-18393D01*
X43453Y-18993D01*
X43549Y-18393D02*
X43834Y-18393D01*
X43691Y-18993D02*
X43691Y-18393D01*
X44620Y-18993D02*
X44382Y-18993D01*
X44382Y-18393D01*
X44787Y-18993D02*
X44787Y-18393D01*
X45001Y-18964D02*
X45073Y-18993D01*
X45192Y-18993D01*
X45239Y-18964D01*
X45263Y-18936D01*
X45287Y-18879D01*
X45287Y-18821D01*
X45263Y-18764D01*
X45239Y-18736D01*
X45192Y-18707D01*
X45096Y-18679D01*
X45049Y-18650D01*
X45025Y-18621D01*
X45001Y-18564D01*
X45001Y-18507D01*
X45025Y-18450D01*
X45049Y-18421D01*
X45096Y-18393D01*
X45216Y-18393D01*
X45287Y-18421D01*
X45430Y-18393D02*
X45715Y-18393D01*
X45572Y-18993D02*
X45572Y-18393D01*
X45882Y-18679D02*
X46049Y-18679D01*
X46120Y-18993D02*
X45882Y-18993D01*
X45882Y-18393D01*
X46120Y-18393D01*
X46334Y-18993D02*
X46334Y-18393D01*
X46620Y-18993D01*
X46620Y-18393D01*
X46858Y-18679D02*
X47025Y-18679D01*
X47096Y-18993D02*
X46858Y-18993D01*
X46858Y-18393D01*
X47096Y-18393D01*
X47596Y-18993D02*
X47429Y-18707D01*
X47310Y-18993D02*
X47310Y-18393D01*
X47501Y-18393D01*
X47548Y-18421D01*
X47572Y-18450D01*
X47596Y-18507D01*
X47596Y-18593D01*
X47572Y-18650D01*
X47548Y-18679D01*
X47501Y-18707D01*
X47310Y-18707D01*
X48143Y-18593D02*
X48262Y-18993D01*
X48382Y-18593D01*
X48548Y-18450D02*
X48572Y-18421D01*
X48620Y-18393D01*
X48739Y-18393D01*
X48786Y-18421D01*
X48810Y-18450D01*
X48834Y-18507D01*
X48834Y-18564D01*
X48810Y-18650D01*
X48524Y-18993D01*
X48834Y-18993D01*
X49500Y-16000D02*
X49500Y-17000D01*
X49500Y-17000D02*
X47500Y-17000D01*
X47500Y-17000D02*
X47500Y-16000D01*
X47500Y-16000D02*
X49500Y-16000D01*
X47250Y-16000D02*
X47250Y-17000D01*
X47250Y-17000D02*
X45250Y-17000D01*
X45250Y-17000D02*
X45250Y-16000D01*
X45250Y-16000D02*
X47250Y-16000D01*
G54D11*
X40240Y-08590D02*
X40240Y-16590D01*
X38240Y-16590D02*
X38240Y-08590D01*
X38240Y-08590D02*
X40240Y-08590D01*
X39740Y-08590D02*
X39740Y-09090D01*
X39740Y-09090D02*
X38740Y-09090D01*
X38740Y-09090D02*
X38740Y-08590D01*
X40240Y-16590D02*
X38240Y-16590D01*
X32900Y-08370D02*
X33900Y-08370D01*
X33900Y-08370D02*
X33900Y-11370D01*
X33900Y-11370D02*
X28900Y-11370D01*
X28900Y-11370D02*
X28900Y-08370D01*
X28900Y-08370D02*
X29900Y-08370D01*
X29900Y-08370D02*
X33900Y-08370D01*
G54D12*
X29900Y-08370D02*
X32900Y-08370D01*
X33590Y-15500D02*
X33790Y-15500D01*
X36590Y-15500D02*
X36390Y-15500D01*
X36390Y-15500D02*
X36390Y-15100D01*
X36390Y-15100D02*
X33790Y-15100D01*
X33790Y-15100D02*
X33790Y-15900D01*
X33790Y-15900D02*
X36390Y-15900D01*
X36390Y-15900D02*
X36390Y-15500D01*
X33790Y-15300D02*
X33990Y-15100D01*
X33570Y-13130D02*
X33770Y-13130D01*
X36570Y-13130D02*
X36370Y-13130D01*
X36370Y-13130D02*
X36370Y-12730D01*
X36370Y-12730D02*
X33770Y-12730D01*
X33770Y-12730D02*
X33770Y-13530D01*
X33770Y-13530D02*
X36370Y-13530D01*
X36370Y-13530D02*
X36370Y-13130D01*
X33770Y-12930D02*
X33970Y-12730D01*
X42040Y-13610D02*
X42040Y-13810D01*
X42040Y-16610D02*
X42040Y-16410D01*
X42040Y-16410D02*
X42440Y-16410D01*
X42440Y-16410D02*
X42440Y-13810D01*
X42440Y-13810D02*
X41640Y-13810D01*
X41640Y-13810D02*
X41640Y-16410D01*
X41640Y-16410D02*
X42040Y-16410D01*
X42240Y-13810D02*
X42440Y-14010D01*
X42040Y-09520D02*
X42040Y-09720D01*
X42040Y-12520D02*
X42040Y-12320D01*
X42040Y-12320D02*
X42440Y-12320D01*
X42440Y-12320D02*
X42440Y-09720D01*
X42440Y-09720D02*
X41640Y-09720D01*
X41640Y-09720D02*
X41640Y-12320D01*
X41640Y-12320D02*
X42040Y-12320D01*
X42240Y-09720D02*
X42440Y-09920D01*
X47200Y-09770D02*
X47200Y-09970D01*
X47200Y-12770D02*
X47200Y-12570D01*
X47200Y-12570D02*
X47600Y-12570D01*
X47600Y-12570D02*
X47600Y-09970D01*
X47600Y-09970D02*
X46800Y-09970D01*
X46800Y-09970D02*
X46800Y-12570D01*
X46800Y-12570D02*
X47200Y-12570D01*
X47400Y-09970D02*
X47600Y-10170D01*
X46100Y-12770D02*
X46100Y-12570D01*
X46100Y-09770D02*
X46100Y-09970D01*
X46100Y-09970D02*
X45700Y-09970D01*
X45700Y-09970D02*
X45700Y-12570D01*
X45700Y-12570D02*
X46500Y-12570D01*
X46500Y-12570D02*
X46500Y-09970D01*
X46500Y-09970D02*
X46100Y-09970D01*
X45900Y-12570D02*
X45700Y-12370D01*
X28530Y-16560D02*
X28330Y-16560D01*
X25530Y-16560D02*
X25730Y-16560D01*
X25730Y-16560D02*
X25730Y-16960D01*
X25730Y-16960D02*
X28330Y-16960D01*
X28330Y-16960D02*
X28330Y-16160D01*
X28330Y-16160D02*
X25730Y-16160D01*
X25730Y-16160D02*
X25730Y-16560D01*
X28330Y-16760D02*
X28130Y-16960D01*
X28170Y-09890D02*
X27970Y-09890D01*
X25170Y-09890D02*
X25370Y-09890D01*
X25370Y-09890D02*
X25370Y-10290D01*
X25370Y-10290D02*
X27970Y-10290D01*
X27970Y-10290D02*
X27970Y-09490D01*
X27970Y-09490D02*
X25370Y-09490D01*
X25370Y-09490D02*
X25370Y-09890D01*
X27970Y-10090D02*
X27770Y-10290D01*
X19700Y-08820D02*
X19500Y-08820D01*
X16700Y-08820D02*
X16900Y-08820D01*
X16900Y-08820D02*
X16900Y-09220D01*
X16900Y-09220D02*
X19500Y-09220D01*
X19500Y-09220D02*
X19500Y-08420D01*
X19500Y-08420D02*
X16900Y-08420D01*
X16900Y-08420D02*
X16900Y-08820D01*
X19500Y-09020D02*
X19300Y-09220D01*
X20520Y-15430D02*
X20720Y-15430D01*
X23520Y-15430D02*
X23320Y-15430D01*
X23320Y-15430D02*
X23320Y-15030D01*
X23320Y-15030D02*
X20720Y-15030D01*
X20720Y-15030D02*
X20720Y-15830D01*
X20720Y-15830D02*
X23320Y-15830D01*
X23320Y-15830D02*
X23320Y-15430D01*
X20720Y-15230D02*
X20920Y-15030D01*
X18300Y-13170D02*
X18300Y-12970D01*
X18300Y-10170D02*
X18300Y-10370D01*
X18300Y-10370D02*
X17900Y-10370D01*
X17900Y-10370D02*
X17900Y-12970D01*
X17900Y-12970D02*
X18700Y-12970D01*
X18700Y-12970D02*
X18700Y-10370D01*
X18700Y-10370D02*
X18300Y-10370D01*
X18100Y-12970D02*
X17900Y-12770D01*
X17050Y-16570D02*
X17050Y-16370D01*
X17050Y-13570D02*
X17050Y-13770D01*
X17050Y-13770D02*
X16650Y-13770D01*
X16650Y-13770D02*
X16650Y-16370D01*
X16650Y-16370D02*
X17450Y-16370D01*
X17450Y-16370D02*
X17450Y-13770D01*
X17450Y-13770D02*
X17050Y-13770D01*
X16850Y-16370D02*
X16650Y-16170D01*
G54D11*
X14540Y-11560D02*
X14540Y-12060D01*
X14540Y-12060D02*
X13540Y-12060D01*
X13540Y-12060D02*
X13540Y-11560D01*
X15040Y-11560D02*
X15040Y-15560D01*
X15040Y-15560D02*
X13040Y-15560D01*
X13040Y-15560D02*
X13040Y-11560D01*
X13040Y-11560D02*
X15040Y-11560D01*
X20430Y-11490D02*
X28430Y-11490D01*
X28430Y-13490D02*
X20430Y-13490D01*
X20430Y-13490D02*
X20430Y-11490D01*
X20430Y-11990D02*
X20930Y-11990D01*
X20930Y-11990D02*
X20930Y-12990D01*
X20930Y-12990D02*
X20430Y-12990D01*
X28430Y-11490D02*
X28430Y-13490D01*
G54D12*
X36560Y-16930D02*
X36260Y-16930D01*
X36260Y-16930D02*
X36260Y-16530D01*
X36260Y-16530D02*
X33860Y-16530D01*
X33860Y-16530D02*
X33860Y-16930D01*
X33860Y-16930D02*
X33560Y-16930D01*
X33860Y-16930D02*
X33860Y-17330D01*
X33860Y-17330D02*
X36260Y-17330D01*
X36260Y-17330D02*
X36260Y-16930D01*
X36060Y-16530D02*
X36060Y-17330D01*
X35960Y-17330D02*
X35960Y-16530D01*
X33570Y-12030D02*
X33870Y-12030D01*
X33870Y-12030D02*
X33870Y-12430D01*
X33870Y-12430D02*
X36270Y-12430D01*
X36270Y-12430D02*
X36270Y-12030D01*
X36270Y-12030D02*
X36570Y-12030D01*
X36270Y-12030D02*
X36270Y-11630D01*
X36270Y-11630D02*
X33870Y-11630D01*
X33870Y-11630D02*
X33870Y-12030D01*
X34070Y-12430D02*
X34070Y-11630D01*
X34170Y-11630D02*
X34170Y-12430D01*
X33220Y-13910D02*
X36020Y-13910D01*
X36020Y-13910D02*
X36020Y-14710D01*
X36020Y-14710D02*
X33220Y-14710D01*
X33220Y-14710D02*
X33220Y-13910D01*
X33220Y-14110D02*
X33420Y-13910D01*
X26090Y-15040D02*
X28890Y-15040D01*
X28890Y-15040D02*
X28890Y-15840D01*
X28890Y-15840D02*
X26090Y-15840D01*
X26090Y-15840D02*
X26090Y-15040D01*
X26090Y-15240D02*
X26290Y-15040D01*
X28100Y-09220D02*
X25300Y-09220D01*
X25300Y-09220D02*
X25300Y-08420D01*
X25300Y-08420D02*
X28100Y-08420D01*
X28100Y-08420D02*
X28100Y-09220D01*
X28100Y-09020D02*
X27900Y-09220D01*
X19850Y-09770D02*
X19850Y-12570D01*
X19850Y-12570D02*
X19050Y-12570D01*
X19050Y-12570D02*
X19050Y-09770D01*
X19050Y-09770D02*
X19850Y-09770D01*
X19650Y-09770D02*
X19850Y-09970D01*
X24230Y-10290D02*
X21430Y-10290D01*
X21430Y-10290D02*
X21430Y-09490D01*
X21430Y-09490D02*
X24230Y-09490D01*
X24230Y-09490D02*
X24230Y-10290D01*
X24230Y-10090D02*
X24030Y-10290D01*
X24210Y-09220D02*
X21410Y-09220D01*
X21410Y-09220D02*
X21410Y-08420D01*
X21410Y-08420D02*
X24210Y-08420D01*
X24210Y-08420D02*
X24210Y-09220D01*
X24210Y-09020D02*
X24010Y-09220D01*
X19830Y-13050D02*
X19830Y-15850D01*
X19830Y-15850D02*
X19030Y-15850D01*
X19030Y-15850D02*
X19030Y-13050D01*
X19030Y-13050D02*
X19830Y-13050D01*
X19630Y-13050D02*
X19830Y-13250D01*
X16150Y-11150D02*
X13350Y-11150D01*
X13350Y-11150D02*
X13350Y-10350D01*
X13350Y-10350D02*
X16150Y-10350D01*
X16150Y-10350D02*
X16150Y-11150D01*
X16150Y-10950D02*
X15950Y-11150D01*
X21880Y-16980D02*
X19080Y-16980D01*
X19080Y-16980D02*
X19080Y-16180D01*
X19080Y-16180D02*
X21880Y-16180D01*
X21880Y-16180D02*
X21880Y-16980D01*
X21880Y-16780D02*
X21680Y-16980D01*
X17850Y-16970D02*
X17850Y-14170D01*
X17850Y-14170D02*
X18650Y-14170D01*
X18650Y-14170D02*
X18650Y-16970D01*
X18650Y-16970D02*
X17850Y-16970D01*
X18050Y-16970D02*
X17850Y-16770D01*
X16600Y-12590D02*
X16600Y-09790D01*
X16600Y-09790D02*
X17400Y-09790D01*
X17400Y-09790D02*
X17400Y-12590D01*
X17400Y-12590D02*
X16600Y-12590D01*
X16800Y-12590D02*
X16600Y-12390D01*
X13900Y-16980D02*
X11100Y-16980D01*
X11100Y-16980D02*
X11100Y-16180D01*
X11100Y-16180D02*
X13900Y-16180D01*
X13900Y-16180D02*
X13900Y-16980D01*
X13900Y-16780D02*
X13700Y-16980D01*
G54D14*
X32400Y-13320D02*
X32376Y-13562D01*
X32305Y-13796D01*
X32191Y-14011D01*
X32036Y-14200D01*
X31848Y-14356D01*
X31634Y-14472D01*
X31401Y-14544D01*
X31158Y-14569D01*
X30916Y-14547D01*
X30682Y-14478D01*
X30466Y-14365D01*
X30276Y-14213D01*
X30119Y-14026D01*
X30002Y-13812D01*
X29928Y-13579D01*
X29901Y-13337D01*
X29921Y-13095D01*
X29988Y-12860D01*
X30100Y-12643D01*
X30251Y-12452D01*
X30437Y-12294D01*
X30650Y-12175D01*
X30882Y-12100D01*
X31124Y-12071D01*
X31367Y-12089D01*
X31602Y-12155D01*
X31819Y-12265D01*
X32012Y-12415D01*
X32171Y-12600D01*
X32291Y-12812D01*
X32368Y-13044D01*
X32399Y-13286D01*
X32400Y-13320D01*
X13450Y-09650D02*
X13426Y-09892D01*
X13355Y-10126D01*
X13241Y-10341D01*
X13086Y-10530D01*
X12898Y-10686D01*
X12684Y-10802D01*
X12451Y-10874D01*
X12208Y-10899D01*
X11966Y-10877D01*
X11732Y-10808D01*
X11516Y-10695D01*
X11326Y-10543D01*
X11169Y-10356D01*
X11052Y-10142D01*
X10978Y-09909D01*
X10951Y-09667D01*
X10971Y-09425D01*
X11038Y-09190D01*
X11150Y-08973D01*
X11301Y-08782D01*
X11487Y-08624D01*
X11700Y-08505D01*
X11932Y-08430D01*
X12174Y-08401D01*
X12417Y-08419D01*
X12652Y-08485D01*
X12869Y-08595D01*
X13062Y-08745D01*
X13221Y-08930D01*
X13341Y-09142D01*
X13418Y-09374D01*
X13449Y-09616D01*
X13450Y-09650D01*
X45250Y-10270D02*
X45226Y-10512D01*
X45155Y-10746D01*
X45041Y-10961D01*
X44886Y-11150D01*
X44698Y-11306D01*
X44484Y-11422D01*
X44251Y-11494D01*
X44008Y-11519D01*
X43766Y-11497D01*
X43532Y-11428D01*
X43316Y-11315D01*
X43126Y-11163D01*
X42969Y-10976D01*
X42852Y-10762D01*
X42778Y-10529D01*
X42751Y-10287D01*
X42771Y-10045D01*
X42838Y-09810D01*
X42950Y-09593D01*
X43101Y-09402D01*
X43287Y-09244D01*
X43500Y-09125D01*
X43732Y-09050D01*
X43974Y-09021D01*
X44217Y-09039D01*
X44452Y-09105D01*
X44669Y-09215D01*
X44862Y-09365D01*
X45021Y-09550D01*
X45141Y-09762D01*
X45218Y-09994D01*
X45249Y-10236D01*
X45250Y-10270D01*
X45250Y-13500D02*
X45226Y-13742D01*
X45155Y-13976D01*
X45041Y-14191D01*
X44886Y-14380D01*
X44698Y-14536D01*
X44484Y-14652D01*
X44251Y-14724D01*
X44008Y-14749D01*
X43766Y-14727D01*
X43532Y-14658D01*
X43316Y-14545D01*
X43126Y-14393D01*
X42969Y-14206D01*
X42852Y-13992D01*
X42778Y-13759D01*
X42751Y-13517D01*
X42771Y-13275D01*
X42838Y-13040D01*
X42950Y-12823D01*
X43101Y-12632D01*
X43287Y-12474D01*
X43500Y-12355D01*
X43732Y-12280D01*
X43974Y-12251D01*
X44217Y-12269D01*
X44452Y-12335D01*
X44669Y-12445D01*
X44862Y-12595D01*
X45021Y-12780D01*
X45141Y-12992D01*
X45218Y-13224D01*
X45249Y-13466D01*
X45250Y-13500D01*
G54D12*
X29950Y-15870D02*
X31450Y-17370D01*
X31450Y-17370D02*
X31950Y-17370D01*
X31950Y-17370D02*
X32450Y-16870D01*
X32450Y-16870D02*
X32450Y-15870D01*
X32450Y-15870D02*
X31450Y-14870D01*
X31450Y-14870D02*
X30450Y-14870D01*
X30450Y-14870D02*
X29950Y-15370D01*
X29950Y-15370D02*
X29950Y-15870D01*
X45000Y-16000D02*
X45000Y-17000D01*
X45000Y-17000D02*
X43000Y-17000D01*
X43000Y-17000D02*
X43000Y-16000D01*
X43000Y-16000D02*
X45000Y-16000D01*
G54D11*
X11750Y-13000D02*
X11750Y-16000D01*
X11750Y-16000D02*
X10750Y-16000D01*
X10750Y-16000D02*
X10750Y-13000D01*
X10750Y-13000D02*
X10750Y-11000D01*
X10750Y-11000D02*
X11750Y-11000D01*
X11750Y-11000D02*
X11750Y-13000D01*
G54D12*
X10750Y-11000D02*
X11750Y-11000D01*
X11750Y-11000D02*
X11750Y-13000D01*
X10750Y-13000D02*
X10750Y-11000D01*
G54D11*
X11750Y-22750D02*
X11750Y-25750D01*
X11750Y-25750D02*
X10750Y-25750D01*
X10750Y-25750D02*
X10750Y-22750D01*
X10750Y-22750D02*
X10750Y-20750D01*
X10750Y-20750D02*
X11750Y-20750D01*
X11750Y-20750D02*
X11750Y-22750D01*
G54D12*
X10750Y-20750D02*
X11750Y-20750D01*
X11750Y-20750D02*
X11750Y-22750D01*
X10750Y-22750D02*
X10750Y-20750D01*
X45000Y-25750D02*
X45000Y-26750D01*
X45000Y-26750D02*
X43000Y-26750D01*
X43000Y-26750D02*
X43000Y-25750D01*
X43000Y-25750D02*
X45000Y-25750D01*
X29950Y-25620D02*
X31450Y-27120D01*
X31450Y-27120D02*
X31950Y-27120D01*
X31950Y-27120D02*
X32450Y-26620D01*
X32450Y-26620D02*
X32450Y-25620D01*
X32450Y-25620D02*
X31450Y-24620D01*
X31450Y-24620D02*
X30450Y-24620D01*
X30450Y-24620D02*
X29950Y-25120D01*
X29950Y-25120D02*
X29950Y-25620D01*
G54D14*
X45250Y-23250D02*
X45226Y-23492D01*
X45155Y-23726D01*
X45041Y-23941D01*
X44886Y-24130D01*
X44698Y-24286D01*
X44484Y-24402D01*
X44251Y-24474D01*
X44008Y-24499D01*
X43766Y-24477D01*
X43532Y-24408D01*
X43316Y-24295D01*
X43126Y-24143D01*
X42969Y-23956D01*
X42852Y-23742D01*
X42778Y-23509D01*
X42751Y-23267D01*
X42771Y-23025D01*
X42838Y-22790D01*
X42950Y-22573D01*
X43101Y-22382D01*
X43287Y-22224D01*
X43500Y-22105D01*
X43732Y-22030D01*
X43974Y-22001D01*
X44217Y-22019D01*
X44452Y-22085D01*
X44669Y-22195D01*
X44862Y-22345D01*
X45021Y-22530D01*
X45141Y-22742D01*
X45218Y-22974D01*
X45249Y-23216D01*
X45250Y-23250D01*
X45250Y-20020D02*
X45226Y-20262D01*
X45155Y-20496D01*
X45041Y-20711D01*
X44886Y-20900D01*
X44698Y-21056D01*
X44484Y-21172D01*
X44251Y-21244D01*
X44008Y-21269D01*
X43766Y-21247D01*
X43532Y-21178D01*
X43316Y-21065D01*
X43126Y-20913D01*
X42969Y-20726D01*
X42852Y-20512D01*
X42778Y-20279D01*
X42751Y-20037D01*
X42771Y-19795D01*
X42838Y-19560D01*
X42950Y-19343D01*
X43101Y-19152D01*
X43287Y-18994D01*
X43500Y-18875D01*
X43732Y-18800D01*
X43974Y-18771D01*
X44217Y-18789D01*
X44452Y-18855D01*
X44669Y-18965D01*
X44862Y-19115D01*
X45021Y-19300D01*
X45141Y-19512D01*
X45218Y-19744D01*
X45249Y-19986D01*
X45250Y-20020D01*
X13450Y-19400D02*
X13426Y-19642D01*
X13355Y-19876D01*
X13241Y-20091D01*
X13086Y-20280D01*
X12898Y-20436D01*
X12684Y-20552D01*
X12451Y-20624D01*
X12208Y-20649D01*
X11966Y-20627D01*
X11732Y-20558D01*
X11516Y-20445D01*
X11326Y-20293D01*
X11169Y-20106D01*
X11052Y-19892D01*
X10978Y-19659D01*
X10951Y-19417D01*
X10971Y-19175D01*
X11038Y-18940D01*
X11150Y-18723D01*
X11301Y-18532D01*
X11487Y-18374D01*
X11700Y-18255D01*
X11932Y-18180D01*
X12174Y-18151D01*
X12417Y-18169D01*
X12652Y-18235D01*
X12869Y-18345D01*
X13062Y-18495D01*
X13221Y-18680D01*
X13341Y-18892D01*
X13418Y-19124D01*
X13449Y-19366D01*
X13450Y-19400D01*
X32400Y-23070D02*
X32376Y-23312D01*
X32305Y-23546D01*
X32191Y-23761D01*
X32036Y-23950D01*
X31848Y-24106D01*
X31634Y-24222D01*
X31401Y-24294D01*
X31158Y-24319D01*
X30916Y-24297D01*
X30682Y-24228D01*
X30466Y-24115D01*
X30276Y-23963D01*
X30119Y-23776D01*
X30002Y-23562D01*
X29928Y-23329D01*
X29901Y-23087D01*
X29921Y-22845D01*
X29988Y-22610D01*
X30100Y-22393D01*
X30251Y-22202D01*
X30437Y-22044D01*
X30650Y-21925D01*
X30882Y-21850D01*
X31124Y-21821D01*
X31367Y-21839D01*
X31602Y-21905D01*
X31819Y-22015D01*
X32012Y-22165D01*
X32171Y-22350D01*
X32291Y-22562D01*
X32368Y-22794D01*
X32399Y-23036D01*
X32400Y-23070D01*
G54D12*
X13900Y-26730D02*
X11100Y-26730D01*
X11100Y-26730D02*
X11100Y-25930D01*
X11100Y-25930D02*
X13900Y-25930D01*
X13900Y-25930D02*
X13900Y-26730D01*
X13900Y-26530D02*
X13700Y-26730D01*
X16600Y-22340D02*
X16600Y-19540D01*
X16600Y-19540D02*
X17400Y-19540D01*
X17400Y-19540D02*
X17400Y-22340D01*
X17400Y-22340D02*
X16600Y-22340D01*
X16800Y-22340D02*
X16600Y-22140D01*
X17850Y-26720D02*
X17850Y-23920D01*
X17850Y-23920D02*
X18650Y-23920D01*
X18650Y-23920D02*
X18650Y-26720D01*
X18650Y-26720D02*
X17850Y-26720D01*
X18050Y-26720D02*
X17850Y-26520D01*
X21880Y-26730D02*
X19080Y-26730D01*
X19080Y-26730D02*
X19080Y-25930D01*
X19080Y-25930D02*
X21880Y-25930D01*
X21880Y-25930D02*
X21880Y-26730D01*
X21880Y-26530D02*
X21680Y-26730D01*
X16150Y-20900D02*
X13350Y-20900D01*
X13350Y-20900D02*
X13350Y-20100D01*
X13350Y-20100D02*
X16150Y-20100D01*
X16150Y-20100D02*
X16150Y-20900D01*
X16150Y-20700D02*
X15950Y-20900D01*
X19830Y-22800D02*
X19830Y-25600D01*
X19830Y-25600D02*
X19030Y-25600D01*
X19030Y-25600D02*
X19030Y-22800D01*
X19030Y-22800D02*
X19830Y-22800D01*
X19630Y-22800D02*
X19830Y-23000D01*
X24210Y-18970D02*
X21410Y-18970D01*
X21410Y-18970D02*
X21410Y-18170D01*
X21410Y-18170D02*
X24210Y-18170D01*
X24210Y-18170D02*
X24210Y-18970D01*
X24210Y-18770D02*
X24010Y-18970D01*
X24230Y-20040D02*
X21430Y-20040D01*
X21430Y-20040D02*
X21430Y-19240D01*
X21430Y-19240D02*
X24230Y-19240D01*
X24230Y-19240D02*
X24230Y-20040D01*
X24230Y-19840D02*
X24030Y-20040D01*
X19850Y-19520D02*
X19850Y-22320D01*
X19850Y-22320D02*
X19050Y-22320D01*
X19050Y-22320D02*
X19050Y-19520D01*
X19050Y-19520D02*
X19850Y-19520D01*
X19650Y-19520D02*
X19850Y-19720D01*
X28100Y-18970D02*
X25300Y-18970D01*
X25300Y-18970D02*
X25300Y-18170D01*
X25300Y-18170D02*
X28100Y-18170D01*
X28100Y-18170D02*
X28100Y-18970D01*
X28100Y-18770D02*
X27900Y-18970D01*
X26090Y-24790D02*
X28890Y-24790D01*
X28890Y-24790D02*
X28890Y-25590D01*
X28890Y-25590D02*
X26090Y-25590D01*
X26090Y-25590D02*
X26090Y-24790D01*
X26090Y-24990D02*
X26290Y-24790D01*
X33220Y-23660D02*
X36020Y-23660D01*
X36020Y-23660D02*
X36020Y-24460D01*
X36020Y-24460D02*
X33220Y-24460D01*
X33220Y-24460D02*
X33220Y-23660D01*
X33220Y-23860D02*
X33420Y-23660D01*
X33570Y-21780D02*
X33870Y-21780D01*
X33870Y-21780D02*
X33870Y-22180D01*
X33870Y-22180D02*
X36270Y-22180D01*
X36270Y-22180D02*
X36270Y-21780D01*
X36270Y-21780D02*
X36570Y-21780D01*
X36270Y-21780D02*
X36270Y-21380D01*
X36270Y-21380D02*
X33870Y-21380D01*
X33870Y-21380D02*
X33870Y-21780D01*
X34070Y-22180D02*
X34070Y-21380D01*
X34170Y-21380D02*
X34170Y-22180D01*
X36560Y-26680D02*
X36260Y-26680D01*
X36260Y-26680D02*
X36260Y-26280D01*
X36260Y-26280D02*
X33860Y-26280D01*
X33860Y-26280D02*
X33860Y-26680D01*
X33860Y-26680D02*
X33560Y-26680D01*
X33860Y-26680D02*
X33860Y-27080D01*
X33860Y-27080D02*
X36260Y-27080D01*
X36260Y-27080D02*
X36260Y-26680D01*
X36060Y-26280D02*
X36060Y-27080D01*
X35960Y-27080D02*
X35960Y-26280D01*
G54D11*
X20430Y-21240D02*
X28430Y-21240D01*
X28430Y-23240D02*
X20430Y-23240D01*
X20430Y-23240D02*
X20430Y-21240D01*
X20430Y-21740D02*
X20930Y-21740D01*
X20930Y-21740D02*
X20930Y-22740D01*
X20930Y-22740D02*
X20430Y-22740D01*
X28430Y-21240D02*
X28430Y-23240D01*
X14540Y-21310D02*
X14540Y-21810D01*
X14540Y-21810D02*
X13540Y-21810D01*
X13540Y-21810D02*
X13540Y-21310D01*
X15040Y-21310D02*
X15040Y-25310D01*
X15040Y-25310D02*
X13040Y-25310D01*
X13040Y-25310D02*
X13040Y-21310D01*
X13040Y-21310D02*
X15040Y-21310D01*
G54D12*
X17050Y-26320D02*
X17050Y-26120D01*
X17050Y-23320D02*
X17050Y-23520D01*
X17050Y-23520D02*
X16650Y-23520D01*
X16650Y-23520D02*
X16650Y-26120D01*
X16650Y-26120D02*
X17450Y-26120D01*
X17450Y-26120D02*
X17450Y-23520D01*
X17450Y-23520D02*
X17050Y-23520D01*
X16850Y-26120D02*
X16650Y-25920D01*
X18300Y-22920D02*
X18300Y-22720D01*
X18300Y-19920D02*
X18300Y-20120D01*
X18300Y-20120D02*
X17900Y-20120D01*
X17900Y-20120D02*
X17900Y-22720D01*
X17900Y-22720D02*
X18700Y-22720D01*
X18700Y-22720D02*
X18700Y-20120D01*
X18700Y-20120D02*
X18300Y-20120D01*
X18100Y-22720D02*
X17900Y-22520D01*
X20520Y-25180D02*
X20720Y-25180D01*
X23520Y-25180D02*
X23320Y-25180D01*
X23320Y-25180D02*
X23320Y-24780D01*
X23320Y-24780D02*
X20720Y-24780D01*
X20720Y-24780D02*
X20720Y-25580D01*
X20720Y-25580D02*
X23320Y-25580D01*
X23320Y-25580D02*
X23320Y-25180D01*
X20720Y-24980D02*
X20920Y-24780D01*
X19700Y-18570D02*
X19500Y-18570D01*
X16700Y-18570D02*
X16900Y-18570D01*
X16900Y-18570D02*
X16900Y-18970D01*
X16900Y-18970D02*
X19500Y-18970D01*
X19500Y-18970D02*
X19500Y-18170D01*
X19500Y-18170D02*
X16900Y-18170D01*
X16900Y-18170D02*
X16900Y-18570D01*
X19500Y-18770D02*
X19300Y-18970D01*
X28170Y-19640D02*
X27970Y-19640D01*
X25170Y-19640D02*
X25370Y-19640D01*
X25370Y-19640D02*
X25370Y-20040D01*
X25370Y-20040D02*
X27970Y-20040D01*
X27970Y-20040D02*
X27970Y-19240D01*
X27970Y-19240D02*
X25370Y-19240D01*
X25370Y-19240D02*
X25370Y-19640D01*
X27970Y-19840D02*
X27770Y-20040D01*
X28530Y-26310D02*
X28330Y-26310D01*
X25530Y-26310D02*
X25730Y-26310D01*
X25730Y-26310D02*
X25730Y-26710D01*
X25730Y-26710D02*
X28330Y-26710D01*
X28330Y-26710D02*
X28330Y-25910D01*
X28330Y-25910D02*
X25730Y-25910D01*
X25730Y-25910D02*
X25730Y-26310D01*
X28330Y-26510D02*
X28130Y-26710D01*
X46100Y-22520D02*
X46100Y-22320D01*
X46100Y-19520D02*
X46100Y-19720D01*
X46100Y-19720D02*
X45700Y-19720D01*
X45700Y-19720D02*
X45700Y-22320D01*
X45700Y-22320D02*
X46500Y-22320D01*
X46500Y-22320D02*
X46500Y-19720D01*
X46500Y-19720D02*
X46100Y-19720D01*
X45900Y-22320D02*
X45700Y-22120D01*
X47200Y-19520D02*
X47200Y-19720D01*
X47200Y-22520D02*
X47200Y-22320D01*
X47200Y-22320D02*
X47600Y-22320D01*
X47600Y-22320D02*
X47600Y-19720D01*
X47600Y-19720D02*
X46800Y-19720D01*
X46800Y-19720D02*
X46800Y-22320D01*
X46800Y-22320D02*
X47200Y-22320D01*
X47400Y-19720D02*
X47600Y-19920D01*
X42040Y-19270D02*
X42040Y-19470D01*
X42040Y-22270D02*
X42040Y-22070D01*
X42040Y-22070D02*
X42440Y-22070D01*
X42440Y-22070D02*
X42440Y-19470D01*
X42440Y-19470D02*
X41640Y-19470D01*
X41640Y-19470D02*
X41640Y-22070D01*
X41640Y-22070D02*
X42040Y-22070D01*
X42240Y-19470D02*
X42440Y-19670D01*
X42040Y-23360D02*
X42040Y-23560D01*
X42040Y-26360D02*
X42040Y-26160D01*
X42040Y-26160D02*
X42440Y-26160D01*
X42440Y-26160D02*
X42440Y-23560D01*
X42440Y-23560D02*
X41640Y-23560D01*
X41640Y-23560D02*
X41640Y-26160D01*
X41640Y-26160D02*
X42040Y-26160D01*
X42240Y-23560D02*
X42440Y-23760D01*
X33570Y-22880D02*
X33770Y-22880D01*
X36570Y-22880D02*
X36370Y-22880D01*
X36370Y-22880D02*
X36370Y-22480D01*
X36370Y-22480D02*
X33770Y-22480D01*
X33770Y-22480D02*
X33770Y-23280D01*
X33770Y-23280D02*
X36370Y-23280D01*
X36370Y-23280D02*
X36370Y-22880D01*
X33770Y-22680D02*
X33970Y-22480D01*
X33590Y-25250D02*
X33790Y-25250D01*
X36590Y-25250D02*
X36390Y-25250D01*
X36390Y-25250D02*
X36390Y-24850D01*
X36390Y-24850D02*
X33790Y-24850D01*
X33790Y-24850D02*
X33790Y-25650D01*
X33790Y-25650D02*
X36390Y-25650D01*
X36390Y-25650D02*
X36390Y-25250D01*
X33790Y-25050D02*
X33990Y-24850D01*
G54D11*
X32900Y-18150D02*
X33900Y-18150D01*
X33900Y-18150D02*
X33900Y-21150D01*
X33900Y-21150D02*
X28900Y-21150D01*
X28900Y-21150D02*
X28900Y-18150D01*
X28900Y-18150D02*
X29900Y-18150D01*
X29900Y-18150D02*
X33900Y-18150D01*
G54D12*
X29900Y-18150D02*
X32900Y-18150D01*
G54D11*
X40240Y-18340D02*
X40240Y-26340D01*
X38240Y-26340D02*
X38240Y-18340D01*
X38240Y-18340D02*
X40240Y-18340D01*
X39740Y-18340D02*
X39740Y-18840D01*
X39740Y-18840D02*
X38740Y-18840D01*
X38740Y-18840D02*
X38740Y-18340D01*
X40240Y-26340D02*
X38240Y-26340D01*
G54D12*
X47250Y-25750D02*
X47250Y-26750D01*
X47250Y-26750D02*
X45250Y-26750D01*
X45250Y-26750D02*
X45250Y-25750D01*
X45250Y-25750D02*
X47250Y-25750D01*
X49500Y-25750D02*
X49500Y-26750D01*
X49500Y-26750D02*
X47500Y-26750D01*
X47500Y-26750D02*
X47500Y-25750D01*
X47500Y-25750D02*
X49500Y-25750D01*
G54D15*
X47930Y-15643D02*
X47991Y-15675D01*
X48093Y-15675D01*
X48133Y-15643D01*
X48154Y-15610D01*
X48174Y-15545D01*
X48174Y-15481D01*
X48154Y-15416D01*
X48133Y-15383D01*
X48093Y-15351D01*
X48011Y-15318D01*
X47970Y-15286D01*
X47950Y-15254D01*
X47930Y-15189D01*
X47930Y-15124D01*
X47950Y-15059D01*
X47970Y-15027D01*
X48011Y-14994D01*
X48113Y-14994D01*
X48174Y-15027D01*
X48317Y-14994D02*
X48419Y-15675D01*
X48501Y-15189D01*
X48582Y-15675D01*
X48684Y-14994D01*
X49071Y-15675D02*
X48827Y-15675D01*
X48949Y-15675D02*
X48949Y-14994D01*
X48908Y-15091D01*
X48867Y-15156D01*
X48827Y-15189D01*
X45914Y-15318D02*
X45975Y-15351D01*
X45995Y-15383D01*
X46015Y-15448D01*
X46015Y-15545D01*
X45995Y-15610D01*
X45975Y-15643D01*
X45934Y-15675D01*
X45771Y-15675D01*
X45771Y-14994D01*
X45914Y-14994D01*
X45954Y-15027D01*
X45975Y-15059D01*
X45995Y-15124D01*
X45995Y-15189D01*
X45975Y-15254D01*
X45954Y-15286D01*
X45914Y-15318D01*
X45771Y-15318D01*
X46138Y-14994D02*
X46382Y-14994D01*
X46260Y-15675D02*
X46260Y-14994D01*
X46749Y-15675D02*
X46505Y-15675D01*
X46627Y-15675D02*
X46627Y-14994D01*
X46586Y-15091D01*
X46545Y-15156D01*
X46505Y-15189D01*
G54D16*
X39393Y-11593D02*
X39879Y-11593D01*
X39936Y-11571D01*
X39964Y-11550D01*
X39993Y-11507D01*
X39993Y-11421D01*
X39964Y-11379D01*
X39936Y-11357D01*
X39879Y-11336D01*
X39393Y-11336D01*
X39393Y-11165D02*
X39393Y-10886D01*
X39621Y-11036D01*
X39621Y-10972D01*
X39650Y-10929D01*
X39679Y-10908D01*
X39736Y-10886D01*
X39879Y-10886D01*
X39936Y-10908D01*
X39964Y-10929D01*
X39993Y-10972D01*
X39993Y-11100D01*
X39964Y-11143D01*
X39936Y-11165D01*
X39593Y-14558D02*
X39993Y-14558D01*
X39364Y-14665D02*
X39793Y-14772D01*
X39793Y-14494D01*
X39393Y-14236D02*
X39393Y-14193D01*
X39421Y-14150D01*
X39450Y-14129D01*
X39507Y-14108D01*
X39621Y-14086D01*
X39764Y-14086D01*
X39879Y-14108D01*
X39936Y-14129D01*
X39964Y-14150D01*
X39993Y-14193D01*
X39993Y-14236D01*
X39964Y-14279D01*
X39936Y-14300D01*
X39879Y-14322D01*
X39764Y-14343D01*
X39621Y-14343D01*
X39507Y-14322D01*
X39450Y-14300D01*
X39421Y-14279D01*
X39393Y-14236D01*
X39450Y-13914D02*
X39421Y-13893D01*
X39393Y-13850D01*
X39393Y-13743D01*
X39421Y-13700D01*
X39450Y-13679D01*
X39507Y-13657D01*
X39564Y-13657D01*
X39650Y-13679D01*
X39993Y-13936D01*
X39993Y-13657D01*
X39593Y-13271D02*
X39993Y-13271D01*
X39364Y-13378D02*
X39793Y-13485D01*
X39793Y-13207D01*
G54D17*
X33623Y-10667D02*
X33361Y-10834D01*
X33623Y-10953D02*
X33073Y-10953D01*
X33073Y-10762D01*
X33099Y-10715D01*
X33125Y-10691D01*
X33177Y-10667D01*
X33256Y-10667D01*
X33308Y-10691D01*
X33335Y-10715D01*
X33361Y-10762D01*
X33361Y-10953D01*
X33073Y-10524D02*
X33623Y-10358D01*
X33073Y-10191D01*
X33623Y-09762D02*
X33623Y-10048D01*
X33623Y-09905D02*
X33073Y-09905D01*
X33151Y-09953D01*
X33204Y-10000D01*
X33230Y-10048D01*
X29325Y-10983D02*
X29299Y-10959D01*
X29273Y-10911D01*
X29273Y-10792D01*
X29299Y-10745D01*
X29325Y-10721D01*
X29377Y-10697D01*
X29430Y-10697D01*
X29508Y-10721D01*
X29823Y-11007D01*
X29823Y-10697D01*
X29325Y-10507D02*
X29299Y-10483D01*
X29273Y-10435D01*
X29273Y-10316D01*
X29299Y-10269D01*
X29325Y-10245D01*
X29377Y-10221D01*
X29430Y-10221D01*
X29508Y-10245D01*
X29823Y-10531D01*
X29823Y-10221D01*
X29823Y-10007D02*
X29273Y-10007D01*
X29613Y-09959D02*
X29823Y-09816D01*
X29456Y-09816D02*
X29665Y-10007D01*
X35007Y-15723D02*
X34840Y-15461D01*
X34721Y-15723D02*
X34721Y-15173D01*
X34912Y-15173D01*
X34959Y-15199D01*
X34983Y-15225D01*
X35007Y-15277D01*
X35007Y-15356D01*
X34983Y-15408D01*
X34959Y-15435D01*
X34912Y-15461D01*
X34721Y-15461D01*
X35245Y-15723D02*
X35340Y-15723D01*
X35388Y-15696D01*
X35412Y-15670D01*
X35459Y-15592D01*
X35483Y-15487D01*
X35483Y-15277D01*
X35459Y-15225D01*
X35435Y-15199D01*
X35388Y-15173D01*
X35292Y-15173D01*
X35245Y-15199D01*
X35221Y-15225D01*
X35197Y-15277D01*
X35197Y-15408D01*
X35221Y-15461D01*
X35245Y-15487D01*
X35292Y-15513D01*
X35388Y-15513D01*
X35435Y-15487D01*
X35459Y-15461D01*
X35483Y-15408D01*
X34749Y-13353D02*
X34582Y-13091D01*
X34463Y-13353D02*
X34463Y-12803D01*
X34654Y-12803D01*
X34701Y-12829D01*
X34725Y-12855D01*
X34749Y-12907D01*
X34749Y-12986D01*
X34725Y-13038D01*
X34701Y-13065D01*
X34654Y-13091D01*
X34463Y-13091D01*
X35225Y-13353D02*
X34939Y-13353D01*
X35082Y-13353D02*
X35082Y-12803D01*
X35034Y-12881D01*
X34987Y-12934D01*
X34939Y-12960D01*
X35701Y-13353D02*
X35415Y-13353D01*
X35558Y-13353D02*
X35558Y-12803D01*
X35510Y-12881D01*
X35463Y-12934D01*
X35415Y-12960D01*
X42263Y-15431D02*
X42001Y-15598D01*
X42263Y-15717D02*
X41713Y-15717D01*
X41713Y-15526D01*
X41739Y-15479D01*
X41765Y-15455D01*
X41817Y-15431D01*
X41896Y-15431D01*
X41948Y-15455D01*
X41975Y-15479D01*
X42001Y-15526D01*
X42001Y-15717D01*
X42263Y-14955D02*
X42263Y-15241D01*
X42263Y-15098D02*
X41713Y-15098D01*
X41791Y-15146D01*
X41844Y-15193D01*
X41870Y-15241D01*
X41765Y-14765D02*
X41739Y-14741D01*
X41713Y-14693D01*
X41713Y-14574D01*
X41739Y-14527D01*
X41765Y-14503D01*
X41817Y-14479D01*
X41870Y-14479D01*
X41948Y-14503D01*
X42263Y-14789D01*
X42263Y-14479D01*
X42263Y-11341D02*
X42001Y-11508D01*
X42263Y-11627D02*
X41713Y-11627D01*
X41713Y-11436D01*
X41739Y-11389D01*
X41765Y-11365D01*
X41817Y-11341D01*
X41896Y-11341D01*
X41948Y-11365D01*
X41975Y-11389D01*
X42001Y-11436D01*
X42001Y-11627D01*
X42263Y-10865D02*
X42263Y-11151D01*
X42263Y-11008D02*
X41713Y-11008D01*
X41791Y-11056D01*
X41844Y-11103D01*
X41870Y-11151D01*
X41713Y-10556D02*
X41713Y-10508D01*
X41739Y-10460D01*
X41765Y-10437D01*
X41817Y-10413D01*
X41922Y-10389D01*
X42053Y-10389D01*
X42158Y-10413D01*
X42210Y-10437D01*
X42236Y-10460D01*
X42263Y-10508D01*
X42263Y-10556D01*
X42236Y-10603D01*
X42210Y-10627D01*
X42158Y-10651D01*
X42053Y-10675D01*
X41922Y-10675D01*
X41817Y-10651D01*
X41765Y-10627D01*
X41739Y-10603D01*
X41713Y-10556D01*
X47423Y-11353D02*
X47161Y-11520D01*
X47423Y-11639D02*
X46873Y-11639D01*
X46873Y-11448D01*
X46899Y-11401D01*
X46925Y-11377D01*
X46977Y-11353D01*
X47056Y-11353D01*
X47108Y-11377D01*
X47135Y-11401D01*
X47161Y-11448D01*
X47161Y-11639D01*
X46873Y-10901D02*
X46873Y-11139D01*
X47135Y-11163D01*
X47108Y-11139D01*
X47082Y-11091D01*
X47082Y-10972D01*
X47108Y-10925D01*
X47135Y-10901D01*
X47187Y-10877D01*
X47318Y-10877D01*
X47370Y-10901D01*
X47396Y-10925D01*
X47423Y-10972D01*
X47423Y-11091D01*
X47396Y-11139D01*
X47370Y-11163D01*
X46323Y-11353D02*
X46061Y-11520D01*
X46323Y-11639D02*
X45773Y-11639D01*
X45773Y-11448D01*
X45799Y-11401D01*
X45825Y-11377D01*
X45877Y-11353D01*
X45956Y-11353D01*
X46008Y-11377D01*
X46035Y-11401D01*
X46061Y-11448D01*
X46061Y-11639D01*
X45956Y-10925D02*
X46323Y-10925D01*
X45746Y-11044D02*
X46139Y-11163D01*
X46139Y-10853D01*
X26947Y-16783D02*
X26780Y-16521D01*
X26661Y-16783D02*
X26661Y-16233D01*
X26852Y-16233D01*
X26899Y-16259D01*
X26923Y-16285D01*
X26947Y-16337D01*
X26947Y-16416D01*
X26923Y-16468D01*
X26899Y-16495D01*
X26852Y-16521D01*
X26661Y-16521D01*
X27232Y-16468D02*
X27185Y-16442D01*
X27161Y-16416D01*
X27137Y-16364D01*
X27137Y-16337D01*
X27161Y-16285D01*
X27185Y-16259D01*
X27232Y-16233D01*
X27328Y-16233D01*
X27375Y-16259D01*
X27399Y-16285D01*
X27423Y-16337D01*
X27423Y-16364D01*
X27399Y-16416D01*
X27375Y-16442D01*
X27328Y-16468D01*
X27232Y-16468D01*
X27185Y-16495D01*
X27161Y-16521D01*
X27137Y-16573D01*
X27137Y-16678D01*
X27161Y-16730D01*
X27185Y-16756D01*
X27232Y-16783D01*
X27328Y-16783D01*
X27375Y-16756D01*
X27399Y-16730D01*
X27423Y-16678D01*
X27423Y-16573D01*
X27399Y-16521D01*
X27375Y-16495D01*
X27328Y-16468D01*
X26587Y-10113D02*
X26420Y-09851D01*
X26301Y-10113D02*
X26301Y-09563D01*
X26492Y-09563D01*
X26539Y-09589D01*
X26563Y-09615D01*
X26587Y-09667D01*
X26587Y-09746D01*
X26563Y-09798D01*
X26539Y-09825D01*
X26492Y-09851D01*
X26301Y-09851D01*
X26753Y-09563D02*
X27087Y-09563D01*
X26872Y-10113D01*
X18117Y-09043D02*
X17950Y-08781D01*
X17831Y-09043D02*
X17831Y-08493D01*
X18022Y-08493D01*
X18069Y-08519D01*
X18093Y-08545D01*
X18117Y-08597D01*
X18117Y-08676D01*
X18093Y-08728D01*
X18069Y-08755D01*
X18022Y-08781D01*
X17831Y-08781D01*
X18545Y-08493D02*
X18450Y-08493D01*
X18402Y-08519D01*
X18379Y-08545D01*
X18331Y-08624D01*
X18307Y-08728D01*
X18307Y-08938D01*
X18331Y-08990D01*
X18355Y-09016D01*
X18402Y-09043D01*
X18498Y-09043D01*
X18545Y-09016D01*
X18569Y-08990D01*
X18593Y-08938D01*
X18593Y-08807D01*
X18569Y-08755D01*
X18545Y-08728D01*
X18498Y-08702D01*
X18402Y-08702D01*
X18355Y-08728D01*
X18331Y-08755D01*
X18307Y-08807D01*
X21937Y-15653D02*
X21770Y-15391D01*
X21651Y-15653D02*
X21651Y-15103D01*
X21842Y-15103D01*
X21889Y-15129D01*
X21913Y-15155D01*
X21937Y-15207D01*
X21937Y-15286D01*
X21913Y-15338D01*
X21889Y-15365D01*
X21842Y-15391D01*
X21651Y-15391D01*
X22103Y-15103D02*
X22413Y-15103D01*
X22246Y-15312D01*
X22318Y-15312D01*
X22365Y-15338D01*
X22389Y-15365D01*
X22413Y-15417D01*
X22413Y-15548D01*
X22389Y-15600D01*
X22365Y-15626D01*
X22318Y-15653D01*
X22175Y-15653D01*
X22127Y-15626D01*
X22103Y-15600D01*
X18523Y-11753D02*
X18261Y-11920D01*
X18523Y-12039D02*
X17973Y-12039D01*
X17973Y-11848D01*
X17999Y-11801D01*
X18025Y-11777D01*
X18077Y-11753D01*
X18156Y-11753D01*
X18208Y-11777D01*
X18235Y-11801D01*
X18261Y-11848D01*
X18261Y-12039D01*
X18025Y-11563D02*
X17999Y-11539D01*
X17973Y-11491D01*
X17973Y-11372D01*
X17999Y-11325D01*
X18025Y-11301D01*
X18077Y-11277D01*
X18130Y-11277D01*
X18208Y-11301D01*
X18523Y-11587D01*
X18523Y-11277D01*
X17273Y-15153D02*
X17011Y-15320D01*
X17273Y-15439D02*
X16723Y-15439D01*
X16723Y-15248D01*
X16749Y-15201D01*
X16775Y-15177D01*
X16827Y-15153D01*
X16906Y-15153D01*
X16958Y-15177D01*
X16985Y-15201D01*
X17011Y-15248D01*
X17011Y-15439D01*
X17273Y-14677D02*
X17273Y-14963D01*
X17273Y-14820D02*
X16723Y-14820D01*
X16801Y-14868D01*
X16854Y-14915D01*
X16880Y-14963D01*
G54D16*
X13657Y-12383D02*
X13657Y-12950D01*
X13679Y-13017D01*
X13700Y-13050D01*
X13743Y-13083D01*
X13829Y-13083D01*
X13871Y-13050D01*
X13893Y-13017D01*
X13914Y-12950D01*
X13914Y-12383D01*
X14364Y-13083D02*
X14107Y-13083D01*
X14235Y-13083D02*
X14235Y-12383D01*
X14192Y-12483D01*
X14150Y-12550D01*
X14107Y-12583D01*
G54D18*
X14283Y-15076D02*
X14283Y-15267D01*
X13583Y-15267D01*
X14283Y-14943D02*
X13583Y-14943D01*
X14083Y-14809D01*
X13583Y-14676D01*
X14283Y-14676D01*
X13583Y-14524D02*
X13583Y-14276D01*
X13850Y-14410D01*
X13850Y-14352D01*
X13883Y-14314D01*
X13917Y-14295D01*
X13983Y-14276D01*
X14150Y-14276D01*
X14217Y-14295D01*
X14250Y-14314D01*
X14283Y-14352D01*
X14283Y-14467D01*
X14250Y-14505D01*
X14217Y-14524D01*
X13883Y-14048D02*
X13850Y-14086D01*
X13817Y-14105D01*
X13750Y-14124D01*
X13717Y-14124D01*
X13650Y-14105D01*
X13617Y-14086D01*
X13583Y-14048D01*
X13583Y-13971D01*
X13617Y-13933D01*
X13650Y-13914D01*
X13717Y-13895D01*
X13750Y-13895D01*
X13817Y-13914D01*
X13850Y-13933D01*
X13883Y-13971D01*
X13883Y-14048D01*
X13917Y-14086D01*
X13950Y-14105D01*
X14017Y-14124D01*
X14150Y-14124D01*
X14217Y-14105D01*
X14250Y-14086D01*
X14283Y-14048D01*
X14283Y-13971D01*
X14250Y-13933D01*
X14217Y-13914D01*
X14150Y-13895D01*
X14017Y-13895D01*
X13950Y-13914D01*
X13917Y-13933D01*
X13883Y-13971D01*
X13583Y-13552D02*
X13583Y-13629D01*
X13617Y-13667D01*
X13650Y-13686D01*
X13750Y-13724D01*
X13883Y-13743D01*
X14150Y-13743D01*
X14217Y-13724D01*
X14250Y-13705D01*
X14283Y-13667D01*
X14283Y-13590D01*
X14250Y-13552D01*
X14217Y-13533D01*
X14150Y-13514D01*
X13983Y-13514D01*
X13917Y-13533D01*
X13883Y-13552D01*
X13850Y-13590D01*
X13850Y-13667D01*
X13883Y-13705D01*
X13917Y-13724D01*
X13983Y-13743D01*
G54D16*
X22157Y-12643D02*
X22157Y-13129D01*
X22179Y-13186D01*
X22200Y-13214D01*
X22243Y-13243D01*
X22329Y-13243D01*
X22371Y-13214D01*
X22393Y-13186D01*
X22414Y-13129D01*
X22414Y-12643D01*
X22607Y-12700D02*
X22628Y-12671D01*
X22671Y-12643D01*
X22778Y-12643D01*
X22821Y-12671D01*
X22842Y-12700D01*
X22864Y-12757D01*
X22864Y-12814D01*
X22842Y-12900D01*
X22585Y-13243D01*
X22864Y-13243D01*
X23853Y-12643D02*
X24110Y-12643D01*
X23981Y-13243D02*
X23981Y-12643D01*
X24474Y-13243D02*
X24260Y-13243D01*
X24260Y-12643D01*
X24710Y-12643D02*
X24753Y-12643D01*
X24796Y-12671D01*
X24817Y-12700D01*
X24838Y-12757D01*
X24860Y-12871D01*
X24860Y-13014D01*
X24838Y-13129D01*
X24817Y-13186D01*
X24796Y-13214D01*
X24753Y-13243D01*
X24710Y-13243D01*
X24667Y-13214D01*
X24646Y-13186D01*
X24624Y-13129D01*
X24603Y-13014D01*
X24603Y-12871D01*
X24624Y-12757D01*
X24646Y-12700D01*
X24667Y-12671D01*
X24710Y-12643D01*
X25010Y-12643D02*
X25310Y-12643D01*
X25117Y-13243D01*
X25675Y-12843D02*
X25675Y-13243D01*
X25568Y-12614D02*
X25461Y-13043D01*
X25739Y-13043D01*
X25890Y-13071D02*
X26104Y-13071D01*
X25847Y-13243D02*
X25997Y-12643D01*
X26147Y-13243D01*
G54D17*
X34765Y-17092D02*
X34765Y-16692D01*
X34860Y-16692D01*
X34918Y-16711D01*
X34956Y-16749D01*
X34975Y-16787D01*
X34994Y-16863D01*
X34994Y-16920D01*
X34975Y-16997D01*
X34956Y-17035D01*
X34918Y-17073D01*
X34860Y-17092D01*
X34765Y-17092D01*
X35375Y-17092D02*
X35146Y-17092D01*
X35260Y-17092D02*
X35260Y-16692D01*
X35222Y-16749D01*
X35184Y-16787D01*
X35146Y-16806D01*
X34775Y-12192D02*
X34775Y-11792D01*
X34870Y-11792D01*
X34928Y-11811D01*
X34966Y-11849D01*
X34985Y-11887D01*
X35004Y-11963D01*
X35004Y-12020D01*
X34985Y-12097D01*
X34966Y-12135D01*
X34928Y-12173D01*
X34870Y-12192D01*
X34775Y-12192D01*
X35156Y-11830D02*
X35175Y-11811D01*
X35213Y-11792D01*
X35309Y-11792D01*
X35347Y-11811D01*
X35366Y-11830D01*
X35385Y-11868D01*
X35385Y-11906D01*
X35366Y-11963D01*
X35137Y-12192D01*
X35385Y-12192D01*
X34363Y-14434D02*
X34344Y-14453D01*
X34287Y-14472D01*
X34249Y-14472D01*
X34191Y-14453D01*
X34153Y-14415D01*
X34134Y-14377D01*
X34115Y-14300D01*
X34115Y-14243D01*
X34134Y-14167D01*
X34153Y-14129D01*
X34191Y-14091D01*
X34249Y-14072D01*
X34287Y-14072D01*
X34344Y-14091D01*
X34363Y-14110D01*
X34744Y-14472D02*
X34515Y-14472D01*
X34629Y-14472D02*
X34629Y-14072D01*
X34591Y-14129D01*
X34553Y-14167D01*
X34515Y-14186D01*
X35087Y-14072D02*
X35010Y-14072D01*
X34972Y-14091D01*
X34953Y-14110D01*
X34915Y-14167D01*
X34896Y-14243D01*
X34896Y-14396D01*
X34915Y-14434D01*
X34934Y-14453D01*
X34972Y-14472D01*
X35049Y-14472D01*
X35087Y-14453D01*
X35106Y-14434D01*
X35125Y-14396D01*
X35125Y-14300D01*
X35106Y-14262D01*
X35087Y-14243D01*
X35049Y-14224D01*
X34972Y-14224D01*
X34934Y-14243D01*
X34915Y-14262D01*
X34896Y-14300D01*
X27233Y-15564D02*
X27214Y-15583D01*
X27157Y-15602D01*
X27119Y-15602D01*
X27061Y-15583D01*
X27023Y-15545D01*
X27004Y-15507D01*
X26985Y-15430D01*
X26985Y-15373D01*
X27004Y-15297D01*
X27023Y-15259D01*
X27061Y-15221D01*
X27119Y-15202D01*
X27157Y-15202D01*
X27214Y-15221D01*
X27233Y-15240D01*
X27614Y-15602D02*
X27385Y-15602D01*
X27499Y-15602D02*
X27499Y-15202D01*
X27461Y-15259D01*
X27423Y-15297D01*
X27385Y-15316D01*
X27957Y-15335D02*
X27957Y-15602D01*
X27861Y-15183D02*
X27766Y-15469D01*
X28014Y-15469D01*
X26443Y-08944D02*
X26424Y-08963D01*
X26367Y-08982D01*
X26329Y-08982D01*
X26271Y-08963D01*
X26233Y-08925D01*
X26214Y-08887D01*
X26195Y-08810D01*
X26195Y-08753D01*
X26214Y-08677D01*
X26233Y-08639D01*
X26271Y-08601D01*
X26329Y-08582D01*
X26367Y-08582D01*
X26424Y-08601D01*
X26443Y-08620D01*
X26824Y-08982D02*
X26595Y-08982D01*
X26709Y-08982D02*
X26709Y-08582D01*
X26671Y-08639D01*
X26633Y-08677D01*
X26595Y-08696D01*
X26957Y-08582D02*
X27205Y-08582D01*
X27071Y-08734D01*
X27129Y-08734D01*
X27167Y-08753D01*
X27186Y-08772D01*
X27205Y-08810D01*
X27205Y-08906D01*
X27186Y-08944D01*
X27167Y-08963D01*
X27129Y-08982D01*
X27014Y-08982D01*
X26976Y-08963D01*
X26957Y-08944D01*
X19574Y-11427D02*
X19593Y-11446D01*
X19612Y-11503D01*
X19612Y-11541D01*
X19593Y-11599D01*
X19555Y-11637D01*
X19517Y-11656D01*
X19440Y-11675D01*
X19383Y-11675D01*
X19307Y-11656D01*
X19269Y-11637D01*
X19231Y-11599D01*
X19212Y-11541D01*
X19212Y-11503D01*
X19231Y-11446D01*
X19250Y-11427D01*
X19612Y-11046D02*
X19612Y-11275D01*
X19612Y-11161D02*
X19212Y-11161D01*
X19269Y-11199D01*
X19307Y-11237D01*
X19326Y-11275D01*
X19212Y-10799D02*
X19212Y-10760D01*
X19231Y-10722D01*
X19250Y-10703D01*
X19288Y-10684D01*
X19364Y-10665D01*
X19460Y-10665D01*
X19536Y-10684D01*
X19574Y-10703D01*
X19593Y-10722D01*
X19612Y-10760D01*
X19612Y-10799D01*
X19593Y-10837D01*
X19574Y-10856D01*
X19536Y-10875D01*
X19460Y-10894D01*
X19364Y-10894D01*
X19288Y-10875D01*
X19250Y-10856D01*
X19231Y-10837D01*
X19212Y-10799D01*
X22573Y-10014D02*
X22554Y-10033D01*
X22497Y-10052D01*
X22459Y-10052D01*
X22401Y-10033D01*
X22363Y-09995D01*
X22344Y-09957D01*
X22325Y-09880D01*
X22325Y-09823D01*
X22344Y-09747D01*
X22363Y-09709D01*
X22401Y-09671D01*
X22459Y-09652D01*
X22497Y-09652D01*
X22554Y-09671D01*
X22573Y-09690D01*
X22954Y-10052D02*
X22725Y-10052D01*
X22839Y-10052D02*
X22839Y-09652D01*
X22801Y-09709D01*
X22763Y-09747D01*
X22725Y-09766D01*
X23335Y-10052D02*
X23106Y-10052D01*
X23220Y-10052D02*
X23220Y-09652D01*
X23182Y-09709D01*
X23144Y-09747D01*
X23106Y-09766D01*
X22553Y-08944D02*
X22534Y-08963D01*
X22477Y-08982D01*
X22439Y-08982D01*
X22381Y-08963D01*
X22343Y-08925D01*
X22324Y-08887D01*
X22305Y-08810D01*
X22305Y-08753D01*
X22324Y-08677D01*
X22343Y-08639D01*
X22381Y-08601D01*
X22439Y-08582D01*
X22477Y-08582D01*
X22534Y-08601D01*
X22553Y-08620D01*
X22934Y-08982D02*
X22705Y-08982D01*
X22819Y-08982D02*
X22819Y-08582D01*
X22781Y-08639D01*
X22743Y-08677D01*
X22705Y-08696D01*
X23086Y-08620D02*
X23105Y-08601D01*
X23143Y-08582D01*
X23239Y-08582D01*
X23277Y-08601D01*
X23296Y-08620D01*
X23315Y-08658D01*
X23315Y-08696D01*
X23296Y-08753D01*
X23067Y-08982D01*
X23315Y-08982D01*
X19554Y-14516D02*
X19573Y-14535D01*
X19592Y-14592D01*
X19592Y-14630D01*
X19573Y-14688D01*
X19535Y-14726D01*
X19497Y-14745D01*
X19420Y-14764D01*
X19363Y-14764D01*
X19287Y-14745D01*
X19249Y-14726D01*
X19211Y-14688D01*
X19192Y-14630D01*
X19192Y-14592D01*
X19211Y-14535D01*
X19230Y-14516D01*
X19192Y-14383D02*
X19192Y-14116D01*
X19592Y-14288D01*
X14684Y-10874D02*
X14665Y-10893D01*
X14608Y-10912D01*
X14570Y-10912D01*
X14512Y-10893D01*
X14474Y-10855D01*
X14455Y-10817D01*
X14436Y-10740D01*
X14436Y-10683D01*
X14455Y-10607D01*
X14474Y-10569D01*
X14512Y-10531D01*
X14570Y-10512D01*
X14608Y-10512D01*
X14665Y-10531D01*
X14684Y-10550D01*
X15065Y-10912D02*
X14836Y-10912D01*
X14950Y-10912D02*
X14950Y-10512D01*
X14912Y-10569D01*
X14874Y-10607D01*
X14836Y-10626D01*
X20414Y-16704D02*
X20395Y-16723D01*
X20338Y-16742D01*
X20300Y-16742D01*
X20242Y-16723D01*
X20204Y-16685D01*
X20185Y-16647D01*
X20166Y-16570D01*
X20166Y-16513D01*
X20185Y-16437D01*
X20204Y-16399D01*
X20242Y-16361D01*
X20300Y-16342D01*
X20338Y-16342D01*
X20395Y-16361D01*
X20414Y-16380D01*
X20757Y-16342D02*
X20680Y-16342D01*
X20642Y-16361D01*
X20623Y-16380D01*
X20585Y-16437D01*
X20566Y-16513D01*
X20566Y-16666D01*
X20585Y-16704D01*
X20604Y-16723D01*
X20642Y-16742D01*
X20719Y-16742D01*
X20757Y-16723D01*
X20776Y-16704D01*
X20795Y-16666D01*
X20795Y-16570D01*
X20776Y-16532D01*
X20757Y-16513D01*
X20719Y-16494D01*
X20642Y-16494D01*
X20604Y-16513D01*
X20585Y-16532D01*
X20566Y-16570D01*
X18374Y-15636D02*
X18393Y-15655D01*
X18412Y-15712D01*
X18412Y-15750D01*
X18393Y-15808D01*
X18355Y-15846D01*
X18317Y-15865D01*
X18240Y-15884D01*
X18183Y-15884D01*
X18107Y-15865D01*
X18069Y-15846D01*
X18031Y-15808D01*
X18012Y-15750D01*
X18012Y-15712D01*
X18031Y-15655D01*
X18050Y-15636D01*
X18012Y-15274D02*
X18012Y-15465D01*
X18202Y-15484D01*
X18183Y-15465D01*
X18164Y-15427D01*
X18164Y-15331D01*
X18183Y-15293D01*
X18202Y-15274D01*
X18240Y-15255D01*
X18336Y-15255D01*
X18374Y-15274D01*
X18393Y-15293D01*
X18412Y-15331D01*
X18412Y-15427D01*
X18393Y-15465D01*
X18374Y-15484D01*
X17124Y-11256D02*
X17143Y-11275D01*
X17162Y-11332D01*
X17162Y-11370D01*
X17143Y-11428D01*
X17105Y-11466D01*
X17067Y-11485D01*
X16990Y-11504D01*
X16933Y-11504D01*
X16857Y-11485D01*
X16819Y-11466D01*
X16781Y-11428D01*
X16762Y-11370D01*
X16762Y-11332D01*
X16781Y-11275D01*
X16800Y-11256D01*
X16895Y-10913D02*
X17162Y-10913D01*
X16743Y-11009D02*
X17029Y-11104D01*
X17029Y-10856D01*
X12434Y-16704D02*
X12415Y-16723D01*
X12358Y-16742D01*
X12320Y-16742D01*
X12262Y-16723D01*
X12224Y-16685D01*
X12205Y-16647D01*
X12186Y-16570D01*
X12186Y-16513D01*
X12205Y-16437D01*
X12224Y-16399D01*
X12262Y-16361D01*
X12320Y-16342D01*
X12358Y-16342D01*
X12415Y-16361D01*
X12434Y-16380D01*
X12586Y-16380D02*
X12605Y-16361D01*
X12643Y-16342D01*
X12739Y-16342D01*
X12777Y-16361D01*
X12796Y-16380D01*
X12815Y-16418D01*
X12815Y-16456D01*
X12796Y-16513D01*
X12567Y-16742D01*
X12815Y-16742D01*
X31889Y-13545D02*
X31911Y-13561D01*
X31932Y-13611D01*
X31932Y-13645D01*
X31911Y-13695D01*
X31868Y-13728D01*
X31825Y-13745D01*
X31739Y-13761D01*
X31675Y-13761D01*
X31589Y-13745D01*
X31546Y-13728D01*
X31504Y-13695D01*
X31482Y-13645D01*
X31482Y-13611D01*
X31504Y-13561D01*
X31525Y-13545D01*
X31932Y-13211D02*
X31932Y-13411D01*
X31932Y-13311D02*
X31482Y-13311D01*
X31546Y-13345D01*
X31589Y-13378D01*
X31611Y-13411D01*
X31482Y-12895D02*
X31482Y-13062D01*
X31696Y-13078D01*
X31675Y-13062D01*
X31654Y-13028D01*
X31654Y-12945D01*
X31675Y-12912D01*
X31696Y-12895D01*
X31739Y-12878D01*
X31846Y-12878D01*
X31889Y-12895D01*
X31911Y-12912D01*
X31932Y-12945D01*
X31932Y-13028D01*
X31911Y-13062D01*
X31889Y-13078D01*
G54D16*
X31161Y-14491D02*
X31161Y-14148D01*
X31332Y-14319D02*
X30989Y-14319D01*
G54D17*
X12939Y-09708D02*
X12961Y-09724D01*
X12982Y-09774D01*
X12982Y-09808D01*
X12961Y-09858D01*
X12918Y-09891D01*
X12875Y-09908D01*
X12789Y-09924D01*
X12725Y-09924D01*
X12639Y-09908D01*
X12596Y-09891D01*
X12554Y-09858D01*
X12532Y-09808D01*
X12532Y-09774D01*
X12554Y-09724D01*
X12575Y-09708D01*
X12532Y-09591D02*
X12532Y-09374D01*
X12704Y-09491D01*
X12704Y-09441D01*
X12725Y-09408D01*
X12746Y-09391D01*
X12789Y-09374D01*
X12896Y-09374D01*
X12939Y-09391D01*
X12961Y-09408D01*
X12982Y-09441D01*
X12982Y-09541D01*
X12961Y-09574D01*
X12939Y-09591D01*
G54D16*
X12211Y-10821D02*
X12211Y-10478D01*
X12382Y-10649D02*
X12039Y-10649D01*
G54D17*
X44739Y-10328D02*
X44761Y-10344D01*
X44782Y-10394D01*
X44782Y-10428D01*
X44761Y-10478D01*
X44718Y-10511D01*
X44675Y-10528D01*
X44589Y-10544D01*
X44525Y-10544D01*
X44439Y-10528D01*
X44396Y-10511D01*
X44354Y-10478D01*
X44332Y-10428D01*
X44332Y-10394D01*
X44354Y-10344D01*
X44375Y-10328D01*
X44525Y-10128D02*
X44504Y-10161D01*
X44482Y-10178D01*
X44439Y-10194D01*
X44418Y-10194D01*
X44375Y-10178D01*
X44354Y-10161D01*
X44332Y-10128D01*
X44332Y-10061D01*
X44354Y-10028D01*
X44375Y-10011D01*
X44418Y-09994D01*
X44439Y-09994D01*
X44482Y-10011D01*
X44504Y-10028D01*
X44525Y-10061D01*
X44525Y-10128D01*
X44546Y-10161D01*
X44568Y-10178D01*
X44611Y-10194D01*
X44696Y-10194D01*
X44739Y-10178D01*
X44761Y-10161D01*
X44782Y-10128D01*
X44782Y-10061D01*
X44761Y-10028D01*
X44739Y-10011D01*
X44696Y-09994D01*
X44611Y-09994D01*
X44568Y-10011D01*
X44546Y-10028D01*
X44525Y-10061D01*
G54D16*
X44011Y-11441D02*
X44011Y-11098D01*
X44182Y-11269D02*
X43839Y-11269D01*
G54D17*
X43539Y-13558D02*
X43561Y-13574D01*
X43582Y-13624D01*
X43582Y-13658D01*
X43561Y-13708D01*
X43518Y-13741D01*
X43475Y-13758D01*
X43389Y-13774D01*
X43325Y-13774D01*
X43239Y-13758D01*
X43196Y-13741D01*
X43154Y-13708D01*
X43132Y-13658D01*
X43132Y-13624D01*
X43154Y-13574D01*
X43175Y-13558D01*
X43582Y-13391D02*
X43582Y-13324D01*
X43561Y-13291D01*
X43539Y-13274D01*
X43475Y-13241D01*
X43389Y-13224D01*
X43218Y-13224D01*
X43175Y-13241D01*
X43154Y-13258D01*
X43132Y-13291D01*
X43132Y-13358D01*
X43154Y-13391D01*
X43175Y-13408D01*
X43218Y-13424D01*
X43325Y-13424D01*
X43368Y-13408D01*
X43389Y-13391D01*
X43411Y-13358D01*
X43411Y-13291D01*
X43389Y-13258D01*
X43368Y-13241D01*
X43325Y-13224D01*
G54D16*
X44011Y-12671D02*
X44011Y-12328D01*
X44182Y-12499D02*
X43839Y-12499D01*
G54D17*
X30400Y-16838D02*
X30381Y-16876D01*
X30343Y-16914D01*
X30286Y-16971D01*
X30267Y-17010D01*
X30267Y-17048D01*
X30362Y-17029D02*
X30343Y-17067D01*
X30305Y-17105D01*
X30229Y-17124D01*
X30095Y-17124D01*
X30019Y-17105D01*
X29981Y-17067D01*
X29962Y-17029D01*
X29962Y-16952D01*
X29981Y-16914D01*
X30019Y-16876D01*
X30095Y-16857D01*
X30229Y-16857D01*
X30305Y-16876D01*
X30343Y-16914D01*
X30362Y-16952D01*
X30362Y-17029D01*
X30362Y-16476D02*
X30362Y-16705D01*
X30362Y-16591D02*
X29962Y-16591D01*
X30019Y-16629D01*
X30057Y-16667D01*
X30076Y-16705D01*
X29552Y-16942D02*
X29571Y-16885D01*
X29590Y-16866D01*
X29629Y-16847D01*
X29686Y-16847D01*
X29724Y-16866D01*
X29743Y-16885D01*
X29762Y-16923D01*
X29762Y-17076D01*
X29362Y-17076D01*
X29362Y-16942D01*
X29381Y-16904D01*
X29400Y-16885D01*
X29438Y-16866D01*
X29476Y-16866D01*
X29514Y-16885D01*
X29533Y-16904D01*
X29552Y-16942D01*
X29552Y-17076D01*
X29724Y-16447D02*
X29743Y-16466D01*
X29762Y-16523D01*
X29762Y-16561D01*
X29743Y-16619D01*
X29705Y-16657D01*
X29667Y-16676D01*
X29590Y-16695D01*
X29533Y-16695D01*
X29457Y-16676D01*
X29419Y-16657D01*
X29381Y-16619D01*
X29362Y-16561D01*
X29362Y-16523D01*
X29381Y-16466D01*
X29400Y-16447D01*
X29362Y-16314D02*
X29362Y-16066D01*
X29514Y-16200D01*
X29514Y-16142D01*
X29533Y-16104D01*
X29552Y-16085D01*
X29590Y-16066D01*
X29686Y-16066D01*
X29724Y-16085D01*
X29743Y-16104D01*
X29762Y-16142D01*
X29762Y-16257D01*
X29743Y-16295D01*
X29724Y-16314D01*
X29362Y-15933D02*
X29362Y-15685D01*
X29514Y-15819D01*
X29514Y-15761D01*
X29533Y-15723D01*
X29552Y-15704D01*
X29590Y-15685D01*
X29686Y-15685D01*
X29724Y-15704D01*
X29743Y-15723D01*
X29762Y-15761D01*
X29762Y-15876D01*
X29743Y-15914D01*
X29724Y-15933D01*
X29362Y-15552D02*
X29362Y-15285D01*
X29762Y-15457D01*
G54D15*
X43460Y-15643D02*
X43521Y-15675D01*
X43623Y-15675D01*
X43663Y-15643D01*
X43684Y-15610D01*
X43704Y-15545D01*
X43704Y-15481D01*
X43684Y-15416D01*
X43663Y-15383D01*
X43623Y-15351D01*
X43541Y-15318D01*
X43500Y-15286D01*
X43480Y-15254D01*
X43460Y-15189D01*
X43460Y-15124D01*
X43480Y-15059D01*
X43500Y-15027D01*
X43541Y-14994D01*
X43643Y-14994D01*
X43704Y-15027D01*
X43888Y-15675D02*
X43888Y-14994D01*
X44051Y-14994D01*
X44092Y-15027D01*
X44112Y-15059D01*
X44132Y-15124D01*
X44132Y-15221D01*
X44112Y-15286D01*
X44092Y-15318D01*
X44051Y-15351D01*
X43888Y-15351D01*
X44540Y-15675D02*
X44296Y-15675D01*
X44418Y-15675D02*
X44418Y-14994D01*
X44377Y-15091D01*
X44336Y-15156D01*
X44296Y-15189D01*
X12625Y-13716D02*
X11944Y-13716D01*
X11944Y-13553D01*
X11977Y-13512D01*
X12009Y-13492D01*
X12074Y-13472D01*
X12171Y-13472D01*
X12236Y-13492D01*
X12268Y-13512D01*
X12301Y-13553D01*
X12301Y-13716D01*
X12625Y-13064D02*
X12625Y-13308D01*
X12625Y-13186D02*
X11944Y-13186D01*
X12041Y-13227D01*
X12106Y-13268D01*
X12139Y-13308D01*
G54D18*
X10893Y-14910D02*
X11379Y-14910D01*
X11436Y-14891D01*
X11464Y-14872D01*
X11493Y-14834D01*
X11493Y-14757D01*
X11464Y-14719D01*
X11436Y-14700D01*
X11379Y-14681D01*
X10893Y-14681D01*
X11493Y-14300D02*
X11493Y-14491D01*
X10893Y-14491D01*
X10893Y-14224D02*
X10893Y-13995D01*
X11493Y-14110D02*
X10893Y-14110D01*
X11493Y-13633D02*
X11207Y-13767D01*
X11493Y-13862D02*
X10893Y-13862D01*
X10893Y-13709D01*
X10921Y-13671D01*
X10950Y-13652D01*
X11007Y-13633D01*
X11093Y-13633D01*
X11150Y-13652D01*
X11179Y-13671D01*
X11207Y-13709D01*
X11207Y-13862D01*
X11321Y-13481D02*
X11321Y-13290D01*
X11493Y-13519D02*
X10893Y-13386D01*
X11493Y-13252D01*
X11464Y-13138D02*
X11493Y-13081D01*
X11493Y-12985D01*
X11464Y-12947D01*
X11436Y-12928D01*
X11379Y-12909D01*
X11321Y-12909D01*
X11264Y-12928D01*
X11236Y-12947D01*
X11207Y-12985D01*
X11179Y-13062D01*
X11150Y-13100D01*
X11121Y-13119D01*
X11064Y-13138D01*
X11007Y-13138D01*
X10950Y-13119D01*
X10921Y-13100D01*
X10893Y-13062D01*
X10893Y-12966D01*
X10921Y-12909D01*
X10893Y-12662D02*
X10893Y-12585D01*
X10921Y-12547D01*
X10979Y-12509D01*
X11093Y-12490D01*
X11293Y-12490D01*
X11407Y-12509D01*
X11464Y-12547D01*
X11493Y-12585D01*
X11493Y-12662D01*
X11464Y-12700D01*
X11407Y-12738D01*
X11293Y-12757D01*
X11093Y-12757D01*
X10979Y-12738D01*
X10921Y-12700D01*
X10893Y-12662D01*
X11493Y-12319D02*
X10893Y-12319D01*
X11493Y-12090D01*
X10893Y-12090D01*
G54D15*
X12625Y-23466D02*
X11944Y-23466D01*
X11944Y-23303D01*
X11977Y-23262D01*
X12009Y-23242D01*
X12074Y-23222D01*
X12171Y-23222D01*
X12236Y-23242D01*
X12268Y-23262D01*
X12301Y-23303D01*
X12301Y-23466D01*
X12625Y-22814D02*
X12625Y-23058D01*
X12625Y-22936D02*
X11944Y-22936D01*
X12041Y-22977D01*
X12106Y-23018D01*
X12139Y-23058D01*
G54D18*
X10893Y-24660D02*
X11379Y-24660D01*
X11436Y-24641D01*
X11464Y-24622D01*
X11493Y-24584D01*
X11493Y-24507D01*
X11464Y-24469D01*
X11436Y-24450D01*
X11379Y-24431D01*
X10893Y-24431D01*
X11493Y-24050D02*
X11493Y-24241D01*
X10893Y-24241D01*
X10893Y-23974D02*
X10893Y-23745D01*
X11493Y-23860D02*
X10893Y-23860D01*
X11493Y-23383D02*
X11207Y-23517D01*
X11493Y-23612D02*
X10893Y-23612D01*
X10893Y-23459D01*
X10921Y-23421D01*
X10950Y-23402D01*
X11007Y-23383D01*
X11093Y-23383D01*
X11150Y-23402D01*
X11179Y-23421D01*
X11207Y-23459D01*
X11207Y-23612D01*
X11321Y-23231D02*
X11321Y-23040D01*
X11493Y-23269D02*
X10893Y-23136D01*
X11493Y-23002D01*
X11464Y-22888D02*
X11493Y-22831D01*
X11493Y-22735D01*
X11464Y-22697D01*
X11436Y-22678D01*
X11379Y-22659D01*
X11321Y-22659D01*
X11264Y-22678D01*
X11236Y-22697D01*
X11207Y-22735D01*
X11179Y-22812D01*
X11150Y-22850D01*
X11121Y-22869D01*
X11064Y-22888D01*
X11007Y-22888D01*
X10950Y-22869D01*
X10921Y-22850D01*
X10893Y-22812D01*
X10893Y-22716D01*
X10921Y-22659D01*
X10893Y-22412D02*
X10893Y-22335D01*
X10921Y-22297D01*
X10979Y-22259D01*
X11093Y-22240D01*
X11293Y-22240D01*
X11407Y-22259D01*
X11464Y-22297D01*
X11493Y-22335D01*
X11493Y-22412D01*
X11464Y-22450D01*
X11407Y-22488D01*
X11293Y-22507D01*
X11093Y-22507D01*
X10979Y-22488D01*
X10921Y-22450D01*
X10893Y-22412D01*
X11493Y-22069D02*
X10893Y-22069D01*
X11493Y-21840D01*
X10893Y-21840D01*
G54D15*
X43460Y-25393D02*
X43521Y-25425D01*
X43623Y-25425D01*
X43663Y-25393D01*
X43684Y-25360D01*
X43704Y-25295D01*
X43704Y-25231D01*
X43684Y-25166D01*
X43663Y-25133D01*
X43623Y-25101D01*
X43541Y-25068D01*
X43500Y-25036D01*
X43480Y-25004D01*
X43460Y-24939D01*
X43460Y-24874D01*
X43480Y-24809D01*
X43500Y-24777D01*
X43541Y-24744D01*
X43643Y-24744D01*
X43704Y-24777D01*
X43888Y-25425D02*
X43888Y-24744D01*
X44051Y-24744D01*
X44092Y-24777D01*
X44112Y-24809D01*
X44132Y-24874D01*
X44132Y-24971D01*
X44112Y-25036D01*
X44092Y-25068D01*
X44051Y-25101D01*
X43888Y-25101D01*
X44540Y-25425D02*
X44296Y-25425D01*
X44418Y-25425D02*
X44418Y-24744D01*
X44377Y-24841D01*
X44336Y-24906D01*
X44296Y-24939D01*
G54D17*
X30400Y-26588D02*
X30381Y-26626D01*
X30343Y-26664D01*
X30286Y-26721D01*
X30267Y-26760D01*
X30267Y-26798D01*
X30362Y-26779D02*
X30343Y-26817D01*
X30305Y-26855D01*
X30229Y-26874D01*
X30095Y-26874D01*
X30019Y-26855D01*
X29981Y-26817D01*
X29962Y-26779D01*
X29962Y-26702D01*
X29981Y-26664D01*
X30019Y-26626D01*
X30095Y-26607D01*
X30229Y-26607D01*
X30305Y-26626D01*
X30343Y-26664D01*
X30362Y-26702D01*
X30362Y-26779D01*
X30362Y-26226D02*
X30362Y-26455D01*
X30362Y-26341D02*
X29962Y-26341D01*
X30019Y-26379D01*
X30057Y-26417D01*
X30076Y-26455D01*
X29552Y-26692D02*
X29571Y-26635D01*
X29590Y-26616D01*
X29629Y-26597D01*
X29686Y-26597D01*
X29724Y-26616D01*
X29743Y-26635D01*
X29762Y-26673D01*
X29762Y-26826D01*
X29362Y-26826D01*
X29362Y-26692D01*
X29381Y-26654D01*
X29400Y-26635D01*
X29438Y-26616D01*
X29476Y-26616D01*
X29514Y-26635D01*
X29533Y-26654D01*
X29552Y-26692D01*
X29552Y-26826D01*
X29724Y-26197D02*
X29743Y-26216D01*
X29762Y-26273D01*
X29762Y-26311D01*
X29743Y-26369D01*
X29705Y-26407D01*
X29667Y-26426D01*
X29590Y-26445D01*
X29533Y-26445D01*
X29457Y-26426D01*
X29419Y-26407D01*
X29381Y-26369D01*
X29362Y-26311D01*
X29362Y-26273D01*
X29381Y-26216D01*
X29400Y-26197D01*
X29362Y-26064D02*
X29362Y-25816D01*
X29514Y-25950D01*
X29514Y-25892D01*
X29533Y-25854D01*
X29552Y-25835D01*
X29590Y-25816D01*
X29686Y-25816D01*
X29724Y-25835D01*
X29743Y-25854D01*
X29762Y-25892D01*
X29762Y-26007D01*
X29743Y-26045D01*
X29724Y-26064D01*
X29362Y-25683D02*
X29362Y-25435D01*
X29514Y-25569D01*
X29514Y-25511D01*
X29533Y-25473D01*
X29552Y-25454D01*
X29590Y-25435D01*
X29686Y-25435D01*
X29724Y-25454D01*
X29743Y-25473D01*
X29762Y-25511D01*
X29762Y-25626D01*
X29743Y-25664D01*
X29724Y-25683D01*
X29362Y-25302D02*
X29362Y-25035D01*
X29762Y-25207D01*
X43539Y-23308D02*
X43561Y-23324D01*
X43582Y-23374D01*
X43582Y-23408D01*
X43561Y-23458D01*
X43518Y-23491D01*
X43475Y-23508D01*
X43389Y-23524D01*
X43325Y-23524D01*
X43239Y-23508D01*
X43196Y-23491D01*
X43154Y-23458D01*
X43132Y-23408D01*
X43132Y-23374D01*
X43154Y-23324D01*
X43175Y-23308D01*
X43582Y-23141D02*
X43582Y-23074D01*
X43561Y-23041D01*
X43539Y-23024D01*
X43475Y-22991D01*
X43389Y-22974D01*
X43218Y-22974D01*
X43175Y-22991D01*
X43154Y-23008D01*
X43132Y-23041D01*
X43132Y-23108D01*
X43154Y-23141D01*
X43175Y-23158D01*
X43218Y-23174D01*
X43325Y-23174D01*
X43368Y-23158D01*
X43389Y-23141D01*
X43411Y-23108D01*
X43411Y-23041D01*
X43389Y-23008D01*
X43368Y-22991D01*
X43325Y-22974D01*
G54D16*
X44011Y-22421D02*
X44011Y-22078D01*
X44182Y-22249D02*
X43839Y-22249D01*
G54D17*
X44739Y-20078D02*
X44761Y-20094D01*
X44782Y-20144D01*
X44782Y-20178D01*
X44761Y-20228D01*
X44718Y-20261D01*
X44675Y-20278D01*
X44589Y-20294D01*
X44525Y-20294D01*
X44439Y-20278D01*
X44396Y-20261D01*
X44354Y-20228D01*
X44332Y-20178D01*
X44332Y-20144D01*
X44354Y-20094D01*
X44375Y-20078D01*
X44525Y-19878D02*
X44504Y-19911D01*
X44482Y-19928D01*
X44439Y-19944D01*
X44418Y-19944D01*
X44375Y-19928D01*
X44354Y-19911D01*
X44332Y-19878D01*
X44332Y-19811D01*
X44354Y-19778D01*
X44375Y-19761D01*
X44418Y-19744D01*
X44439Y-19744D01*
X44482Y-19761D01*
X44504Y-19778D01*
X44525Y-19811D01*
X44525Y-19878D01*
X44546Y-19911D01*
X44568Y-19928D01*
X44611Y-19944D01*
X44696Y-19944D01*
X44739Y-19928D01*
X44761Y-19911D01*
X44782Y-19878D01*
X44782Y-19811D01*
X44761Y-19778D01*
X44739Y-19761D01*
X44696Y-19744D01*
X44611Y-19744D01*
X44568Y-19761D01*
X44546Y-19778D01*
X44525Y-19811D01*
G54D16*
X44011Y-21191D02*
X44011Y-20848D01*
X44182Y-21019D02*
X43839Y-21019D01*
G54D17*
X12939Y-19458D02*
X12961Y-19474D01*
X12982Y-19524D01*
X12982Y-19558D01*
X12961Y-19608D01*
X12918Y-19641D01*
X12875Y-19658D01*
X12789Y-19674D01*
X12725Y-19674D01*
X12639Y-19658D01*
X12596Y-19641D01*
X12554Y-19608D01*
X12532Y-19558D01*
X12532Y-19524D01*
X12554Y-19474D01*
X12575Y-19458D01*
X12532Y-19341D02*
X12532Y-19124D01*
X12704Y-19241D01*
X12704Y-19191D01*
X12725Y-19158D01*
X12746Y-19141D01*
X12789Y-19124D01*
X12896Y-19124D01*
X12939Y-19141D01*
X12961Y-19158D01*
X12982Y-19191D01*
X12982Y-19291D01*
X12961Y-19324D01*
X12939Y-19341D01*
G54D16*
X12211Y-20571D02*
X12211Y-20228D01*
X12382Y-20399D02*
X12039Y-20399D01*
G54D17*
X31889Y-23295D02*
X31911Y-23311D01*
X31932Y-23361D01*
X31932Y-23395D01*
X31911Y-23445D01*
X31868Y-23478D01*
X31825Y-23495D01*
X31739Y-23511D01*
X31675Y-23511D01*
X31589Y-23495D01*
X31546Y-23478D01*
X31504Y-23445D01*
X31482Y-23395D01*
X31482Y-23361D01*
X31504Y-23311D01*
X31525Y-23295D01*
X31932Y-22961D02*
X31932Y-23161D01*
X31932Y-23061D02*
X31482Y-23061D01*
X31546Y-23095D01*
X31589Y-23128D01*
X31611Y-23161D01*
X31482Y-22645D02*
X31482Y-22812D01*
X31696Y-22828D01*
X31675Y-22812D01*
X31654Y-22778D01*
X31654Y-22695D01*
X31675Y-22662D01*
X31696Y-22645D01*
X31739Y-22628D01*
X31846Y-22628D01*
X31889Y-22645D01*
X31911Y-22662D01*
X31932Y-22695D01*
X31932Y-22778D01*
X31911Y-22812D01*
X31889Y-22828D01*
G54D16*
X31161Y-24241D02*
X31161Y-23898D01*
X31332Y-24069D02*
X30989Y-24069D01*
G54D17*
X12434Y-26454D02*
X12415Y-26473D01*
X12358Y-26492D01*
X12320Y-26492D01*
X12262Y-26473D01*
X12224Y-26435D01*
X12205Y-26397D01*
X12186Y-26320D01*
X12186Y-26263D01*
X12205Y-26187D01*
X12224Y-26149D01*
X12262Y-26111D01*
X12320Y-26092D01*
X12358Y-26092D01*
X12415Y-26111D01*
X12434Y-26130D01*
X12586Y-26130D02*
X12605Y-26111D01*
X12643Y-26092D01*
X12739Y-26092D01*
X12777Y-26111D01*
X12796Y-26130D01*
X12815Y-26168D01*
X12815Y-26206D01*
X12796Y-26263D01*
X12567Y-26492D01*
X12815Y-26492D01*
X17124Y-21006D02*
X17143Y-21025D01*
X17162Y-21082D01*
X17162Y-21120D01*
X17143Y-21178D01*
X17105Y-21216D01*
X17067Y-21235D01*
X16990Y-21254D01*
X16933Y-21254D01*
X16857Y-21235D01*
X16819Y-21216D01*
X16781Y-21178D01*
X16762Y-21120D01*
X16762Y-21082D01*
X16781Y-21025D01*
X16800Y-21006D01*
X16895Y-20663D02*
X17162Y-20663D01*
X16743Y-20759D02*
X17029Y-20854D01*
X17029Y-20606D01*
X18374Y-25386D02*
X18393Y-25405D01*
X18412Y-25462D01*
X18412Y-25500D01*
X18393Y-25558D01*
X18355Y-25596D01*
X18317Y-25615D01*
X18240Y-25634D01*
X18183Y-25634D01*
X18107Y-25615D01*
X18069Y-25596D01*
X18031Y-25558D01*
X18012Y-25500D01*
X18012Y-25462D01*
X18031Y-25405D01*
X18050Y-25386D01*
X18012Y-25024D02*
X18012Y-25215D01*
X18202Y-25234D01*
X18183Y-25215D01*
X18164Y-25177D01*
X18164Y-25081D01*
X18183Y-25043D01*
X18202Y-25024D01*
X18240Y-25005D01*
X18336Y-25005D01*
X18374Y-25024D01*
X18393Y-25043D01*
X18412Y-25081D01*
X18412Y-25177D01*
X18393Y-25215D01*
X18374Y-25234D01*
X20414Y-26454D02*
X20395Y-26473D01*
X20338Y-26492D01*
X20300Y-26492D01*
X20242Y-26473D01*
X20204Y-26435D01*
X20185Y-26397D01*
X20166Y-26320D01*
X20166Y-26263D01*
X20185Y-26187D01*
X20204Y-26149D01*
X20242Y-26111D01*
X20300Y-26092D01*
X20338Y-26092D01*
X20395Y-26111D01*
X20414Y-26130D01*
X20757Y-26092D02*
X20680Y-26092D01*
X20642Y-26111D01*
X20623Y-26130D01*
X20585Y-26187D01*
X20566Y-26263D01*
X20566Y-26416D01*
X20585Y-26454D01*
X20604Y-26473D01*
X20642Y-26492D01*
X20719Y-26492D01*
X20757Y-26473D01*
X20776Y-26454D01*
X20795Y-26416D01*
X20795Y-26320D01*
X20776Y-26282D01*
X20757Y-26263D01*
X20719Y-26244D01*
X20642Y-26244D01*
X20604Y-26263D01*
X20585Y-26282D01*
X20566Y-26320D01*
X14684Y-20624D02*
X14665Y-20643D01*
X14608Y-20662D01*
X14570Y-20662D01*
X14512Y-20643D01*
X14474Y-20605D01*
X14455Y-20567D01*
X14436Y-20490D01*
X14436Y-20433D01*
X14455Y-20357D01*
X14474Y-20319D01*
X14512Y-20281D01*
X14570Y-20262D01*
X14608Y-20262D01*
X14665Y-20281D01*
X14684Y-20300D01*
X15065Y-20662D02*
X14836Y-20662D01*
X14950Y-20662D02*
X14950Y-20262D01*
X14912Y-20319D01*
X14874Y-20357D01*
X14836Y-20376D01*
X19554Y-24266D02*
X19573Y-24285D01*
X19592Y-24342D01*
X19592Y-24380D01*
X19573Y-24438D01*
X19535Y-24476D01*
X19497Y-24495D01*
X19420Y-24514D01*
X19363Y-24514D01*
X19287Y-24495D01*
X19249Y-24476D01*
X19211Y-24438D01*
X19192Y-24380D01*
X19192Y-24342D01*
X19211Y-24285D01*
X19230Y-24266D01*
X19192Y-24133D02*
X19192Y-23866D01*
X19592Y-24038D01*
X22553Y-18694D02*
X22534Y-18713D01*
X22477Y-18732D01*
X22439Y-18732D01*
X22381Y-18713D01*
X22343Y-18675D01*
X22324Y-18637D01*
X22305Y-18560D01*
X22305Y-18503D01*
X22324Y-18427D01*
X22343Y-18389D01*
X22381Y-18351D01*
X22439Y-18332D01*
X22477Y-18332D01*
X22534Y-18351D01*
X22553Y-18370D01*
X22934Y-18732D02*
X22705Y-18732D01*
X22819Y-18732D02*
X22819Y-18332D01*
X22781Y-18389D01*
X22743Y-18427D01*
X22705Y-18446D01*
X23086Y-18370D02*
X23105Y-18351D01*
X23143Y-18332D01*
X23239Y-18332D01*
X23277Y-18351D01*
X23296Y-18370D01*
X23315Y-18408D01*
X23315Y-18446D01*
X23296Y-18503D01*
X23067Y-18732D01*
X23315Y-18732D01*
X22573Y-19764D02*
X22554Y-19783D01*
X22497Y-19802D01*
X22459Y-19802D01*
X22401Y-19783D01*
X22363Y-19745D01*
X22344Y-19707D01*
X22325Y-19630D01*
X22325Y-19573D01*
X22344Y-19497D01*
X22363Y-19459D01*
X22401Y-19421D01*
X22459Y-19402D01*
X22497Y-19402D01*
X22554Y-19421D01*
X22573Y-19440D01*
X22954Y-19802D02*
X22725Y-19802D01*
X22839Y-19802D02*
X22839Y-19402D01*
X22801Y-19459D01*
X22763Y-19497D01*
X22725Y-19516D01*
X23335Y-19802D02*
X23106Y-19802D01*
X23220Y-19802D02*
X23220Y-19402D01*
X23182Y-19459D01*
X23144Y-19497D01*
X23106Y-19516D01*
X19574Y-21177D02*
X19593Y-21196D01*
X19612Y-21253D01*
X19612Y-21291D01*
X19593Y-21349D01*
X19555Y-21387D01*
X19517Y-21406D01*
X19440Y-21425D01*
X19383Y-21425D01*
X19307Y-21406D01*
X19269Y-21387D01*
X19231Y-21349D01*
X19212Y-21291D01*
X19212Y-21253D01*
X19231Y-21196D01*
X19250Y-21177D01*
X19612Y-20796D02*
X19612Y-21025D01*
X19612Y-20911D02*
X19212Y-20911D01*
X19269Y-20949D01*
X19307Y-20987D01*
X19326Y-21025D01*
X19212Y-20549D02*
X19212Y-20510D01*
X19231Y-20472D01*
X19250Y-20453D01*
X19288Y-20434D01*
X19364Y-20415D01*
X19460Y-20415D01*
X19536Y-20434D01*
X19574Y-20453D01*
X19593Y-20472D01*
X19612Y-20510D01*
X19612Y-20549D01*
X19593Y-20587D01*
X19574Y-20606D01*
X19536Y-20625D01*
X19460Y-20644D01*
X19364Y-20644D01*
X19288Y-20625D01*
X19250Y-20606D01*
X19231Y-20587D01*
X19212Y-20549D01*
X26443Y-18694D02*
X26424Y-18713D01*
X26367Y-18732D01*
X26329Y-18732D01*
X26271Y-18713D01*
X26233Y-18675D01*
X26214Y-18637D01*
X26195Y-18560D01*
X26195Y-18503D01*
X26214Y-18427D01*
X26233Y-18389D01*
X26271Y-18351D01*
X26329Y-18332D01*
X26367Y-18332D01*
X26424Y-18351D01*
X26443Y-18370D01*
X26824Y-18732D02*
X26595Y-18732D01*
X26709Y-18732D02*
X26709Y-18332D01*
X26671Y-18389D01*
X26633Y-18427D01*
X26595Y-18446D01*
X26957Y-18332D02*
X27205Y-18332D01*
X27071Y-18484D01*
X27129Y-18484D01*
X27167Y-18503D01*
X27186Y-18522D01*
X27205Y-18560D01*
X27205Y-18656D01*
X27186Y-18694D01*
X27167Y-18713D01*
X27129Y-18732D01*
X27014Y-18732D01*
X26976Y-18713D01*
X26957Y-18694D01*
X27233Y-25314D02*
X27214Y-25333D01*
X27157Y-25352D01*
X27119Y-25352D01*
X27061Y-25333D01*
X27023Y-25295D01*
X27004Y-25257D01*
X26985Y-25180D01*
X26985Y-25123D01*
X27004Y-25047D01*
X27023Y-25009D01*
X27061Y-24971D01*
X27119Y-24952D01*
X27157Y-24952D01*
X27214Y-24971D01*
X27233Y-24990D01*
X27614Y-25352D02*
X27385Y-25352D01*
X27499Y-25352D02*
X27499Y-24952D01*
X27461Y-25009D01*
X27423Y-25047D01*
X27385Y-25066D01*
X27957Y-25085D02*
X27957Y-25352D01*
X27861Y-24933D02*
X27766Y-25219D01*
X28014Y-25219D01*
X34363Y-24184D02*
X34344Y-24203D01*
X34287Y-24222D01*
X34249Y-24222D01*
X34191Y-24203D01*
X34153Y-24165D01*
X34134Y-24127D01*
X34115Y-24050D01*
X34115Y-23993D01*
X34134Y-23917D01*
X34153Y-23879D01*
X34191Y-23841D01*
X34249Y-23822D01*
X34287Y-23822D01*
X34344Y-23841D01*
X34363Y-23860D01*
X34744Y-24222D02*
X34515Y-24222D01*
X34629Y-24222D02*
X34629Y-23822D01*
X34591Y-23879D01*
X34553Y-23917D01*
X34515Y-23936D01*
X35087Y-23822D02*
X35010Y-23822D01*
X34972Y-23841D01*
X34953Y-23860D01*
X34915Y-23917D01*
X34896Y-23993D01*
X34896Y-24146D01*
X34915Y-24184D01*
X34934Y-24203D01*
X34972Y-24222D01*
X35049Y-24222D01*
X35087Y-24203D01*
X35106Y-24184D01*
X35125Y-24146D01*
X35125Y-24050D01*
X35106Y-24012D01*
X35087Y-23993D01*
X35049Y-23974D01*
X34972Y-23974D01*
X34934Y-23993D01*
X34915Y-24012D01*
X34896Y-24050D01*
X34775Y-21942D02*
X34775Y-21542D01*
X34870Y-21542D01*
X34928Y-21561D01*
X34966Y-21599D01*
X34985Y-21637D01*
X35004Y-21713D01*
X35004Y-21770D01*
X34985Y-21847D01*
X34966Y-21885D01*
X34928Y-21923D01*
X34870Y-21942D01*
X34775Y-21942D01*
X35156Y-21580D02*
X35175Y-21561D01*
X35213Y-21542D01*
X35309Y-21542D01*
X35347Y-21561D01*
X35366Y-21580D01*
X35385Y-21618D01*
X35385Y-21656D01*
X35366Y-21713D01*
X35137Y-21942D01*
X35385Y-21942D01*
X34765Y-26842D02*
X34765Y-26442D01*
X34860Y-26442D01*
X34918Y-26461D01*
X34956Y-26499D01*
X34975Y-26537D01*
X34994Y-26613D01*
X34994Y-26670D01*
X34975Y-26747D01*
X34956Y-26785D01*
X34918Y-26823D01*
X34860Y-26842D01*
X34765Y-26842D01*
X35375Y-26842D02*
X35146Y-26842D01*
X35260Y-26842D02*
X35260Y-26442D01*
X35222Y-26499D01*
X35184Y-26537D01*
X35146Y-26556D01*
G54D16*
X22157Y-22393D02*
X22157Y-22879D01*
X22179Y-22936D01*
X22200Y-22964D01*
X22243Y-22993D01*
X22329Y-22993D01*
X22371Y-22964D01*
X22393Y-22936D01*
X22414Y-22879D01*
X22414Y-22393D01*
X22607Y-22450D02*
X22628Y-22421D01*
X22671Y-22393D01*
X22778Y-22393D01*
X22821Y-22421D01*
X22842Y-22450D01*
X22864Y-22507D01*
X22864Y-22564D01*
X22842Y-22650D01*
X22585Y-22993D01*
X22864Y-22993D01*
X23853Y-22393D02*
X24110Y-22393D01*
X23981Y-22993D02*
X23981Y-22393D01*
X24474Y-22993D02*
X24260Y-22993D01*
X24260Y-22393D01*
X24710Y-22393D02*
X24753Y-22393D01*
X24796Y-22421D01*
X24817Y-22450D01*
X24838Y-22507D01*
X24860Y-22621D01*
X24860Y-22764D01*
X24838Y-22879D01*
X24817Y-22936D01*
X24796Y-22964D01*
X24753Y-22993D01*
X24710Y-22993D01*
X24667Y-22964D01*
X24646Y-22936D01*
X24624Y-22879D01*
X24603Y-22764D01*
X24603Y-22621D01*
X24624Y-22507D01*
X24646Y-22450D01*
X24667Y-22421D01*
X24710Y-22393D01*
X25010Y-22393D02*
X25310Y-22393D01*
X25117Y-22993D01*
X25675Y-22593D02*
X25675Y-22993D01*
X25568Y-22364D02*
X25461Y-22793D01*
X25739Y-22793D01*
X25890Y-22821D02*
X26104Y-22821D01*
X25847Y-22993D02*
X25997Y-22393D01*
X26147Y-22993D01*
X13657Y-22133D02*
X13657Y-22700D01*
X13679Y-22767D01*
X13700Y-22800D01*
X13743Y-22833D01*
X13829Y-22833D01*
X13871Y-22800D01*
X13893Y-22767D01*
X13914Y-22700D01*
X13914Y-22133D01*
X14364Y-22833D02*
X14107Y-22833D01*
X14235Y-22833D02*
X14235Y-22133D01*
X14192Y-22233D01*
X14150Y-22300D01*
X14107Y-22333D01*
G54D18*
X14283Y-24826D02*
X14283Y-25017D01*
X13583Y-25017D01*
X14283Y-24693D02*
X13583Y-24693D01*
X14083Y-24559D01*
X13583Y-24426D01*
X14283Y-24426D01*
X13583Y-24274D02*
X13583Y-24026D01*
X13850Y-24160D01*
X13850Y-24102D01*
X13883Y-24064D01*
X13917Y-24045D01*
X13983Y-24026D01*
X14150Y-24026D01*
X14217Y-24045D01*
X14250Y-24064D01*
X14283Y-24102D01*
X14283Y-24217D01*
X14250Y-24255D01*
X14217Y-24274D01*
X13883Y-23798D02*
X13850Y-23836D01*
X13817Y-23855D01*
X13750Y-23874D01*
X13717Y-23874D01*
X13650Y-23855D01*
X13617Y-23836D01*
X13583Y-23798D01*
X13583Y-23721D01*
X13617Y-23683D01*
X13650Y-23664D01*
X13717Y-23645D01*
X13750Y-23645D01*
X13817Y-23664D01*
X13850Y-23683D01*
X13883Y-23721D01*
X13883Y-23798D01*
X13917Y-23836D01*
X13950Y-23855D01*
X14017Y-23874D01*
X14150Y-23874D01*
X14217Y-23855D01*
X14250Y-23836D01*
X14283Y-23798D01*
X14283Y-23721D01*
X14250Y-23683D01*
X14217Y-23664D01*
X14150Y-23645D01*
X14017Y-23645D01*
X13950Y-23664D01*
X13917Y-23683D01*
X13883Y-23721D01*
X13583Y-23302D02*
X13583Y-23379D01*
X13617Y-23417D01*
X13650Y-23436D01*
X13750Y-23474D01*
X13883Y-23493D01*
X14150Y-23493D01*
X14217Y-23474D01*
X14250Y-23455D01*
X14283Y-23417D01*
X14283Y-23340D01*
X14250Y-23302D01*
X14217Y-23283D01*
X14150Y-23264D01*
X13983Y-23264D01*
X13917Y-23283D01*
X13883Y-23302D01*
X13850Y-23340D01*
X13850Y-23417D01*
X13883Y-23455D01*
X13917Y-23474D01*
X13983Y-23493D01*
G54D17*
X17273Y-24903D02*
X17011Y-25070D01*
X17273Y-25189D02*
X16723Y-25189D01*
X16723Y-24998D01*
X16749Y-24951D01*
X16775Y-24927D01*
X16827Y-24903D01*
X16906Y-24903D01*
X16958Y-24927D01*
X16985Y-24951D01*
X17011Y-24998D01*
X17011Y-25189D01*
X17273Y-24427D02*
X17273Y-24713D01*
X17273Y-24570D02*
X16723Y-24570D01*
X16801Y-24618D01*
X16854Y-24665D01*
X16880Y-24713D01*
X18523Y-21503D02*
X18261Y-21670D01*
X18523Y-21789D02*
X17973Y-21789D01*
X17973Y-21598D01*
X17999Y-21551D01*
X18025Y-21527D01*
X18077Y-21503D01*
X18156Y-21503D01*
X18208Y-21527D01*
X18235Y-21551D01*
X18261Y-21598D01*
X18261Y-21789D01*
X18025Y-21313D02*
X17999Y-21289D01*
X17973Y-21241D01*
X17973Y-21122D01*
X17999Y-21075D01*
X18025Y-21051D01*
X18077Y-21027D01*
X18130Y-21027D01*
X18208Y-21051D01*
X18523Y-21337D01*
X18523Y-21027D01*
X21937Y-25403D02*
X21770Y-25141D01*
X21651Y-25403D02*
X21651Y-24853D01*
X21842Y-24853D01*
X21889Y-24879D01*
X21913Y-24905D01*
X21937Y-24957D01*
X21937Y-25036D01*
X21913Y-25088D01*
X21889Y-25115D01*
X21842Y-25141D01*
X21651Y-25141D01*
X22103Y-24853D02*
X22413Y-24853D01*
X22246Y-25062D01*
X22318Y-25062D01*
X22365Y-25088D01*
X22389Y-25115D01*
X22413Y-25167D01*
X22413Y-25298D01*
X22389Y-25350D01*
X22365Y-25376D01*
X22318Y-25403D01*
X22175Y-25403D01*
X22127Y-25376D01*
X22103Y-25350D01*
X18117Y-18793D02*
X17950Y-18531D01*
X17831Y-18793D02*
X17831Y-18243D01*
X18022Y-18243D01*
X18069Y-18269D01*
X18093Y-18295D01*
X18117Y-18347D01*
X18117Y-18426D01*
X18093Y-18478D01*
X18069Y-18505D01*
X18022Y-18531D01*
X17831Y-18531D01*
X18545Y-18243D02*
X18450Y-18243D01*
X18402Y-18269D01*
X18379Y-18295D01*
X18331Y-18374D01*
X18307Y-18478D01*
X18307Y-18688D01*
X18331Y-18740D01*
X18355Y-18766D01*
X18402Y-18793D01*
X18498Y-18793D01*
X18545Y-18766D01*
X18569Y-18740D01*
X18593Y-18688D01*
X18593Y-18557D01*
X18569Y-18505D01*
X18545Y-18478D01*
X18498Y-18452D01*
X18402Y-18452D01*
X18355Y-18478D01*
X18331Y-18505D01*
X18307Y-18557D01*
X26587Y-19863D02*
X26420Y-19601D01*
X26301Y-19863D02*
X26301Y-19313D01*
X26492Y-19313D01*
X26539Y-19339D01*
X26563Y-19365D01*
X26587Y-19417D01*
X26587Y-19496D01*
X26563Y-19548D01*
X26539Y-19575D01*
X26492Y-19601D01*
X26301Y-19601D01*
X26753Y-19313D02*
X27087Y-19313D01*
X26872Y-19863D01*
X26947Y-26533D02*
X26780Y-26271D01*
X26661Y-26533D02*
X26661Y-25983D01*
X26852Y-25983D01*
X26899Y-26009D01*
X26923Y-26035D01*
X26947Y-26087D01*
X26947Y-26166D01*
X26923Y-26218D01*
X26899Y-26245D01*
X26852Y-26271D01*
X26661Y-26271D01*
X27232Y-26218D02*
X27185Y-26192D01*
X27161Y-26166D01*
X27137Y-26114D01*
X27137Y-26087D01*
X27161Y-26035D01*
X27185Y-26009D01*
X27232Y-25983D01*
X27328Y-25983D01*
X27375Y-26009D01*
X27399Y-26035D01*
X27423Y-26087D01*
X27423Y-26114D01*
X27399Y-26166D01*
X27375Y-26192D01*
X27328Y-26218D01*
X27232Y-26218D01*
X27185Y-26245D01*
X27161Y-26271D01*
X27137Y-26323D01*
X27137Y-26428D01*
X27161Y-26480D01*
X27185Y-26506D01*
X27232Y-26533D01*
X27328Y-26533D01*
X27375Y-26506D01*
X27399Y-26480D01*
X27423Y-26428D01*
X27423Y-26323D01*
X27399Y-26271D01*
X27375Y-26245D01*
X27328Y-26218D01*
X46323Y-21103D02*
X46061Y-21270D01*
X46323Y-21389D02*
X45773Y-21389D01*
X45773Y-21198D01*
X45799Y-21151D01*
X45825Y-21127D01*
X45877Y-21103D01*
X45956Y-21103D01*
X46008Y-21127D01*
X46035Y-21151D01*
X46061Y-21198D01*
X46061Y-21389D01*
X45956Y-20675D02*
X46323Y-20675D01*
X45746Y-20794D02*
X46139Y-20913D01*
X46139Y-20603D01*
X47423Y-21103D02*
X47161Y-21270D01*
X47423Y-21389D02*
X46873Y-21389D01*
X46873Y-21198D01*
X46899Y-21151D01*
X46925Y-21127D01*
X46977Y-21103D01*
X47056Y-21103D01*
X47108Y-21127D01*
X47135Y-21151D01*
X47161Y-21198D01*
X47161Y-21389D01*
X46873Y-20651D02*
X46873Y-20889D01*
X47135Y-20913D01*
X47108Y-20889D01*
X47082Y-20841D01*
X47082Y-20722D01*
X47108Y-20675D01*
X47135Y-20651D01*
X47187Y-20627D01*
X47318Y-20627D01*
X47370Y-20651D01*
X47396Y-20675D01*
X47423Y-20722D01*
X47423Y-20841D01*
X47396Y-20889D01*
X47370Y-20913D01*
X42263Y-21091D02*
X42001Y-21258D01*
X42263Y-21377D02*
X41713Y-21377D01*
X41713Y-21186D01*
X41739Y-21139D01*
X41765Y-21115D01*
X41817Y-21091D01*
X41896Y-21091D01*
X41948Y-21115D01*
X41975Y-21139D01*
X42001Y-21186D01*
X42001Y-21377D01*
X42263Y-20615D02*
X42263Y-20901D01*
X42263Y-20758D02*
X41713Y-20758D01*
X41791Y-20806D01*
X41844Y-20853D01*
X41870Y-20901D01*
X41713Y-20306D02*
X41713Y-20258D01*
X41739Y-20210D01*
X41765Y-20187D01*
X41817Y-20163D01*
X41922Y-20139D01*
X42053Y-20139D01*
X42158Y-20163D01*
X42210Y-20187D01*
X42236Y-20210D01*
X42263Y-20258D01*
X42263Y-20306D01*
X42236Y-20353D01*
X42210Y-20377D01*
X42158Y-20401D01*
X42053Y-20425D01*
X41922Y-20425D01*
X41817Y-20401D01*
X41765Y-20377D01*
X41739Y-20353D01*
X41713Y-20306D01*
X42263Y-25181D02*
X42001Y-25348D01*
X42263Y-25467D02*
X41713Y-25467D01*
X41713Y-25276D01*
X41739Y-25229D01*
X41765Y-25205D01*
X41817Y-25181D01*
X41896Y-25181D01*
X41948Y-25205D01*
X41975Y-25229D01*
X42001Y-25276D01*
X42001Y-25467D01*
X42263Y-24705D02*
X42263Y-24991D01*
X42263Y-24848D02*
X41713Y-24848D01*
X41791Y-24896D01*
X41844Y-24943D01*
X41870Y-24991D01*
X41765Y-24515D02*
X41739Y-24491D01*
X41713Y-24443D01*
X41713Y-24324D01*
X41739Y-24277D01*
X41765Y-24253D01*
X41817Y-24229D01*
X41870Y-24229D01*
X41948Y-24253D01*
X42263Y-24539D01*
X42263Y-24229D01*
X34749Y-23103D02*
X34582Y-22841D01*
X34463Y-23103D02*
X34463Y-22553D01*
X34654Y-22553D01*
X34701Y-22579D01*
X34725Y-22605D01*
X34749Y-22657D01*
X34749Y-22736D01*
X34725Y-22788D01*
X34701Y-22815D01*
X34654Y-22841D01*
X34463Y-22841D01*
X35225Y-23103D02*
X34939Y-23103D01*
X35082Y-23103D02*
X35082Y-22553D01*
X35034Y-22631D01*
X34987Y-22684D01*
X34939Y-22710D01*
X35701Y-23103D02*
X35415Y-23103D01*
X35558Y-23103D02*
X35558Y-22553D01*
X35510Y-22631D01*
X35463Y-22684D01*
X35415Y-22710D01*
X35007Y-25473D02*
X34840Y-25211D01*
X34721Y-25473D02*
X34721Y-24923D01*
X34912Y-24923D01*
X34959Y-24949D01*
X34983Y-24975D01*
X35007Y-25027D01*
X35007Y-25106D01*
X34983Y-25158D01*
X34959Y-25185D01*
X34912Y-25211D01*
X34721Y-25211D01*
X35245Y-25473D02*
X35340Y-25473D01*
X35388Y-25446D01*
X35412Y-25420D01*
X35459Y-25342D01*
X35483Y-25237D01*
X35483Y-25027D01*
X35459Y-24975D01*
X35435Y-24949D01*
X35388Y-24923D01*
X35292Y-24923D01*
X35245Y-24949D01*
X35221Y-24975D01*
X35197Y-25027D01*
X35197Y-25158D01*
X35221Y-25211D01*
X35245Y-25237D01*
X35292Y-25263D01*
X35388Y-25263D01*
X35435Y-25237D01*
X35459Y-25211D01*
X35483Y-25158D01*
X33623Y-20447D02*
X33361Y-20614D01*
X33623Y-20733D02*
X33073Y-20733D01*
X33073Y-20542D01*
X33099Y-20495D01*
X33125Y-20471D01*
X33177Y-20447D01*
X33256Y-20447D01*
X33308Y-20471D01*
X33335Y-20495D01*
X33361Y-20542D01*
X33361Y-20733D01*
X33073Y-20304D02*
X33623Y-20138D01*
X33073Y-19971D01*
X33623Y-19542D02*
X33623Y-19828D01*
X33623Y-19685D02*
X33073Y-19685D01*
X33151Y-19733D01*
X33204Y-19780D01*
X33230Y-19828D01*
X29325Y-20763D02*
X29299Y-20739D01*
X29273Y-20691D01*
X29273Y-20572D01*
X29299Y-20525D01*
X29325Y-20501D01*
X29377Y-20477D01*
X29430Y-20477D01*
X29508Y-20501D01*
X29823Y-20787D01*
X29823Y-20477D01*
X29325Y-20287D02*
X29299Y-20263D01*
X29273Y-20215D01*
X29273Y-20096D01*
X29299Y-20049D01*
X29325Y-20025D01*
X29377Y-20001D01*
X29430Y-20001D01*
X29508Y-20025D01*
X29823Y-20311D01*
X29823Y-20001D01*
X29823Y-19787D02*
X29273Y-19787D01*
X29613Y-19739D02*
X29823Y-19596D01*
X29456Y-19596D02*
X29665Y-19787D01*
G54D16*
X39393Y-21343D02*
X39879Y-21343D01*
X39936Y-21321D01*
X39964Y-21300D01*
X39993Y-21257D01*
X39993Y-21171D01*
X39964Y-21129D01*
X39936Y-21107D01*
X39879Y-21086D01*
X39393Y-21086D01*
X39393Y-20915D02*
X39393Y-20636D01*
X39621Y-20786D01*
X39621Y-20722D01*
X39650Y-20679D01*
X39679Y-20658D01*
X39736Y-20636D01*
X39879Y-20636D01*
X39936Y-20658D01*
X39964Y-20679D01*
X39993Y-20722D01*
X39993Y-20850D01*
X39964Y-20893D01*
X39936Y-20915D01*
X39593Y-24308D02*
X39993Y-24308D01*
X39364Y-24415D02*
X39793Y-24522D01*
X39793Y-24244D01*
X39393Y-23986D02*
X39393Y-23943D01*
X39421Y-23900D01*
X39450Y-23879D01*
X39507Y-23858D01*
X39621Y-23836D01*
X39764Y-23836D01*
X39879Y-23858D01*
X39936Y-23879D01*
X39964Y-23900D01*
X39993Y-23943D01*
X39993Y-23986D01*
X39964Y-24029D01*
X39936Y-24050D01*
X39879Y-24072D01*
X39764Y-24093D01*
X39621Y-24093D01*
X39507Y-24072D01*
X39450Y-24050D01*
X39421Y-24029D01*
X39393Y-23986D01*
X39450Y-23664D02*
X39421Y-23643D01*
X39393Y-23600D01*
X39393Y-23493D01*
X39421Y-23450D01*
X39450Y-23429D01*
X39507Y-23407D01*
X39564Y-23407D01*
X39650Y-23429D01*
X39993Y-23686D01*
X39993Y-23407D01*
X39593Y-23021D02*
X39993Y-23021D01*
X39364Y-23128D02*
X39793Y-23235D01*
X39793Y-22957D01*
G54D15*
X45914Y-25068D02*
X45975Y-25101D01*
X45995Y-25133D01*
X46015Y-25198D01*
X46015Y-25295D01*
X45995Y-25360D01*
X45975Y-25393D01*
X45934Y-25425D01*
X45771Y-25425D01*
X45771Y-24744D01*
X45914Y-24744D01*
X45954Y-24777D01*
X45975Y-24809D01*
X45995Y-24874D01*
X45995Y-24939D01*
X45975Y-25004D01*
X45954Y-25036D01*
X45914Y-25068D01*
X45771Y-25068D01*
X46138Y-24744D02*
X46382Y-24744D01*
X46260Y-25425D02*
X46260Y-24744D01*
X46749Y-25425D02*
X46505Y-25425D01*
X46627Y-25425D02*
X46627Y-24744D01*
X46586Y-24841D01*
X46545Y-24906D01*
X46505Y-24939D01*
X47930Y-25393D02*
X47991Y-25425D01*
X48093Y-25425D01*
X48133Y-25393D01*
X48154Y-25360D01*
X48174Y-25295D01*
X48174Y-25231D01*
X48154Y-25166D01*
X48133Y-25133D01*
X48093Y-25101D01*
X48011Y-25068D01*
X47970Y-25036D01*
X47950Y-25004D01*
X47930Y-24939D01*
X47930Y-24874D01*
X47950Y-24809D01*
X47970Y-24777D01*
X48011Y-24744D01*
X48113Y-24744D01*
X48174Y-24777D01*
X48317Y-24744D02*
X48419Y-25425D01*
X48501Y-24939D01*
X48582Y-25425D01*
X48684Y-24744D01*
X49071Y-25425D02*
X48827Y-25425D01*
X48949Y-25425D02*
X48949Y-24744D01*
X48908Y-24841D01*
X48867Y-24906D01*
X48827Y-24939D01*
M02*
