G04 (created by PCBNEW-RS274X (2011-12-21 BZR 3253)-stable) date 11/04/2013 12:13:17*
G01*
G70*
G90*
%MOIN*%
G04 Gerber Fmt 3.4, Leading zero omitted, Abs format*
%FSLAX34Y34*%
G04 APERTURE LIST*
%ADD10C,0.006000*%
%ADD11C,0.015000*%
%ADD12R,0.070900X0.070900*%
%ADD13C,0.070900*%
%ADD14R,0.090000X0.062000*%
%ADD15O,0.090000X0.062000*%
%ADD16C,0.080000*%
%ADD17C,0.065000*%
%ADD18R,0.062000X0.090000*%
%ADD19O,0.062000X0.090000*%
%ADD20R,0.055000X0.055000*%
%ADD21C,0.055000*%
%ADD22R,0.060000X0.060000*%
%ADD23C,0.060000*%
%ADD24C,0.035000*%
%ADD25C,0.040000*%
%ADD26C,0.010000*%
G04 APERTURE END LIST*
G54D10*
G54D11*
X10500Y-27250D02*
X10500Y-08250D01*
X50000Y-08250D02*
X50000Y-27250D01*
X50000Y-27250D02*
X10500Y-27250D01*
X10500Y-08250D02*
X50000Y-08250D01*
G54D12*
X49000Y-16500D03*
G54D13*
X48000Y-16500D03*
G54D12*
X46750Y-16500D03*
G54D13*
X45750Y-16500D03*
G54D14*
X37740Y-09590D03*
G54D15*
X37740Y-10590D03*
X37740Y-11590D03*
X37740Y-12590D03*
X37740Y-13590D03*
X37740Y-14590D03*
X37740Y-15590D03*
X40740Y-15590D03*
X40740Y-14590D03*
X40740Y-13590D03*
X40740Y-12590D03*
X40740Y-11590D03*
X40740Y-10590D03*
X40740Y-09590D03*
G54D16*
X32400Y-09370D03*
X31400Y-10370D03*
X30400Y-09370D03*
G54D17*
X33590Y-15500D03*
X36590Y-15500D03*
X33570Y-13130D03*
X36570Y-13130D03*
X42040Y-13610D03*
X42040Y-16610D03*
X42040Y-09520D03*
X42040Y-12520D03*
X47200Y-09770D03*
X47200Y-12770D03*
X46100Y-12770D03*
X46100Y-09770D03*
X28530Y-16560D03*
X25530Y-16560D03*
X28170Y-09890D03*
X25170Y-09890D03*
X19700Y-08820D03*
X16700Y-08820D03*
X20520Y-15430D03*
X23520Y-15430D03*
X18300Y-13170D03*
X18300Y-10170D03*
X17050Y-16570D03*
X17050Y-13570D03*
G54D14*
X12540Y-12060D03*
G54D15*
X12540Y-13060D03*
X12540Y-14060D03*
X12540Y-15060D03*
X15540Y-15060D03*
X15540Y-14060D03*
X15540Y-13060D03*
X15540Y-12060D03*
G54D18*
X21430Y-13990D03*
G54D19*
X22430Y-13990D03*
X23430Y-13990D03*
X24430Y-13990D03*
X25430Y-13990D03*
X26430Y-13990D03*
X27430Y-13990D03*
X27430Y-10990D03*
X26430Y-10990D03*
X25430Y-10990D03*
X24430Y-10990D03*
X23430Y-10990D03*
X22430Y-10990D03*
X21430Y-10990D03*
G54D20*
X36560Y-16930D03*
G54D21*
X33560Y-16930D03*
G54D20*
X33570Y-12030D03*
G54D21*
X36570Y-12030D03*
X33620Y-14310D03*
X35620Y-14310D03*
X26490Y-15440D03*
X28490Y-15440D03*
X27700Y-08820D03*
X25700Y-08820D03*
X19450Y-10170D03*
X19450Y-12170D03*
X23830Y-09890D03*
X21830Y-09890D03*
X23810Y-08820D03*
X21810Y-08820D03*
X19430Y-13450D03*
X19430Y-15450D03*
X15750Y-10750D03*
X13750Y-10750D03*
X21480Y-16580D03*
X19480Y-16580D03*
X18250Y-16570D03*
X18250Y-14570D03*
X17000Y-12190D03*
X17000Y-10190D03*
X13500Y-16580D03*
X11500Y-16580D03*
G54D22*
X31150Y-13820D03*
G54D23*
X31150Y-12820D03*
G54D22*
X12200Y-10150D03*
G54D23*
X12200Y-09150D03*
G54D22*
X44000Y-10770D03*
G54D23*
X44000Y-09770D03*
G54D22*
X44000Y-13000D03*
G54D23*
X44000Y-14000D03*
G54D20*
X31450Y-16870D03*
G54D21*
X31450Y-15870D03*
X30450Y-15870D03*
G54D12*
X44500Y-16500D03*
G54D13*
X43500Y-16500D03*
G54D12*
X11250Y-11500D03*
G54D13*
X11250Y-15500D03*
G54D12*
X11250Y-21250D03*
G54D13*
X11250Y-25250D03*
G54D12*
X44500Y-26250D03*
G54D13*
X43500Y-26250D03*
G54D20*
X31450Y-26620D03*
G54D21*
X31450Y-25620D03*
X30450Y-25620D03*
G54D22*
X44000Y-22750D03*
G54D23*
X44000Y-23750D03*
G54D22*
X44000Y-20520D03*
G54D23*
X44000Y-19520D03*
G54D22*
X12200Y-19900D03*
G54D23*
X12200Y-18900D03*
G54D22*
X31150Y-23570D03*
G54D23*
X31150Y-22570D03*
G54D21*
X13500Y-26330D03*
X11500Y-26330D03*
X17000Y-21940D03*
X17000Y-19940D03*
X18250Y-26320D03*
X18250Y-24320D03*
X21480Y-26330D03*
X19480Y-26330D03*
X15750Y-20500D03*
X13750Y-20500D03*
X19430Y-23200D03*
X19430Y-25200D03*
X23810Y-18570D03*
X21810Y-18570D03*
X23830Y-19640D03*
X21830Y-19640D03*
X19450Y-19920D03*
X19450Y-21920D03*
X27700Y-18570D03*
X25700Y-18570D03*
X26490Y-25190D03*
X28490Y-25190D03*
X33620Y-24060D03*
X35620Y-24060D03*
G54D20*
X33570Y-21780D03*
G54D21*
X36570Y-21780D03*
G54D20*
X36560Y-26680D03*
G54D21*
X33560Y-26680D03*
G54D18*
X21430Y-23740D03*
G54D19*
X22430Y-23740D03*
X23430Y-23740D03*
X24430Y-23740D03*
X25430Y-23740D03*
X26430Y-23740D03*
X27430Y-23740D03*
X27430Y-20740D03*
X26430Y-20740D03*
X25430Y-20740D03*
X24430Y-20740D03*
X23430Y-20740D03*
X22430Y-20740D03*
X21430Y-20740D03*
G54D14*
X12540Y-21810D03*
G54D15*
X12540Y-22810D03*
X12540Y-23810D03*
X12540Y-24810D03*
X15540Y-24810D03*
X15540Y-23810D03*
X15540Y-22810D03*
X15540Y-21810D03*
G54D17*
X17050Y-26320D03*
X17050Y-23320D03*
X18300Y-22920D03*
X18300Y-19920D03*
X20520Y-25180D03*
X23520Y-25180D03*
X19700Y-18570D03*
X16700Y-18570D03*
X28170Y-19640D03*
X25170Y-19640D03*
X28530Y-26310D03*
X25530Y-26310D03*
X46100Y-22520D03*
X46100Y-19520D03*
X47200Y-19520D03*
X47200Y-22520D03*
X42040Y-19270D03*
X42040Y-22270D03*
X42040Y-23360D03*
X42040Y-26360D03*
X33570Y-22880D03*
X36570Y-22880D03*
X33590Y-25250D03*
X36590Y-25250D03*
G54D16*
X32400Y-19150D03*
X31400Y-20150D03*
X30400Y-19150D03*
G54D14*
X37740Y-19340D03*
G54D15*
X37740Y-20340D03*
X37740Y-21340D03*
X37740Y-22340D03*
X37740Y-23340D03*
X37740Y-24340D03*
X37740Y-25340D03*
X40740Y-25340D03*
X40740Y-24340D03*
X40740Y-23340D03*
X40740Y-22340D03*
X40740Y-21340D03*
X40740Y-20340D03*
X40740Y-19340D03*
G54D12*
X46750Y-26250D03*
G54D13*
X45750Y-26250D03*
G54D12*
X49000Y-26250D03*
G54D13*
X48000Y-26250D03*
G54D24*
X35700Y-19400D03*
X35700Y-09650D03*
X29000Y-21500D03*
X35000Y-09950D03*
X29000Y-11750D03*
X35000Y-19700D03*
X23500Y-12750D03*
X23500Y-22500D03*
G54D25*
X33250Y-20500D02*
X33700Y-20050D01*
X46100Y-22600D02*
X49000Y-25500D01*
X13050Y-19900D02*
X13450Y-19500D01*
X14500Y-20000D02*
X14000Y-19500D01*
X14000Y-19500D02*
X13450Y-19500D01*
X33250Y-10750D02*
X33700Y-10300D01*
X46100Y-12850D02*
X49000Y-15750D01*
X13050Y-10150D02*
X13450Y-09750D01*
X14500Y-10250D02*
X14000Y-09750D01*
X18000Y-25250D02*
X18500Y-25250D01*
X33700Y-10300D02*
X34500Y-09500D01*
X24430Y-13990D02*
X24430Y-14430D01*
X14500Y-13750D02*
X14500Y-10250D01*
X14000Y-09750D02*
X13450Y-09750D01*
X18500Y-25250D02*
X19250Y-24500D01*
X49000Y-25500D02*
X49000Y-26250D01*
X14810Y-23810D02*
X14500Y-23500D01*
X34500Y-19250D02*
X34650Y-19100D01*
X30750Y-21750D02*
X32000Y-21750D01*
X16560Y-23810D02*
X18000Y-25250D01*
X16560Y-14060D02*
X18000Y-15500D01*
X30750Y-12000D02*
X32000Y-12000D01*
X32000Y-21750D02*
X33250Y-20500D01*
X19250Y-24500D02*
X24000Y-24500D01*
X24000Y-24500D02*
X24430Y-24070D01*
X24430Y-24180D02*
X24750Y-24500D01*
X12200Y-19900D02*
X13050Y-19900D01*
X28000Y-24500D02*
X30750Y-21750D01*
X24750Y-24500D02*
X28000Y-24500D01*
X46100Y-22520D02*
X46100Y-22600D01*
X34650Y-19100D02*
X35400Y-19100D01*
X35400Y-19100D02*
X35700Y-19400D01*
X46100Y-12770D02*
X46100Y-12850D01*
X15540Y-23810D02*
X14810Y-23810D01*
X12200Y-10150D02*
X13050Y-10150D01*
X49000Y-15750D02*
X49000Y-16500D01*
X15540Y-14060D02*
X14810Y-14060D01*
X34500Y-09500D02*
X34650Y-09350D01*
X35400Y-09350D02*
X35700Y-09650D01*
X34650Y-09350D02*
X35400Y-09350D01*
X24750Y-14750D02*
X28000Y-14750D01*
X14500Y-23500D02*
X14500Y-20000D01*
X18500Y-15500D02*
X19250Y-14750D01*
X14810Y-14060D02*
X14500Y-13750D01*
X32000Y-12000D02*
X33250Y-10750D01*
X19250Y-14750D02*
X24000Y-14750D01*
X24000Y-14750D02*
X24430Y-14320D01*
X24430Y-14430D02*
X24750Y-14750D01*
X24430Y-24070D02*
X24430Y-23740D01*
X28000Y-14750D02*
X30750Y-12000D01*
X24430Y-14320D02*
X24430Y-13990D01*
X18000Y-15500D02*
X18500Y-15500D01*
X24430Y-23740D02*
X24430Y-24180D01*
X33700Y-20050D02*
X34500Y-19250D01*
X15540Y-23810D02*
X16560Y-23810D01*
X15540Y-14060D02*
X16560Y-14060D01*
X24000Y-21750D02*
X24250Y-21750D01*
X35000Y-09950D02*
X35640Y-10590D01*
X28750Y-21750D02*
X29000Y-21500D01*
X35640Y-10590D02*
X37740Y-10590D01*
X24000Y-12000D02*
X28750Y-12000D01*
X37740Y-25340D02*
X39590Y-25340D01*
X20750Y-21750D02*
X24000Y-21750D01*
X40250Y-26000D02*
X41250Y-26000D01*
X45750Y-25750D02*
X45250Y-25250D01*
X45250Y-25250D02*
X42000Y-25250D01*
X18300Y-19920D02*
X18300Y-20050D01*
X39590Y-25340D02*
X40250Y-26000D01*
X45750Y-26250D02*
X45750Y-25750D01*
X20000Y-11250D02*
X20750Y-12000D01*
X19250Y-21000D02*
X20000Y-21000D01*
X42000Y-15500D02*
X41250Y-16250D01*
X20000Y-21000D02*
X20750Y-21750D01*
X42000Y-25250D02*
X41250Y-26000D01*
X18300Y-10170D02*
X18300Y-10300D01*
X24430Y-21570D02*
X24430Y-20740D01*
X24250Y-21750D02*
X24430Y-21570D01*
X45750Y-16500D02*
X45750Y-16000D01*
X39590Y-15590D02*
X40250Y-16250D01*
X45250Y-15500D02*
X42000Y-15500D01*
X45750Y-16000D02*
X45250Y-15500D01*
X24000Y-12000D02*
X24250Y-12000D01*
X20750Y-12000D02*
X24000Y-12000D01*
X24250Y-12000D02*
X24430Y-11820D01*
X19250Y-11250D02*
X20000Y-11250D01*
X18300Y-10300D02*
X19250Y-11250D01*
X24430Y-11820D02*
X24430Y-10990D01*
X40250Y-16250D02*
X41250Y-16250D01*
X18300Y-20050D02*
X19250Y-21000D01*
X37740Y-15590D02*
X39590Y-15590D01*
X28750Y-12000D02*
X29000Y-11750D01*
X35000Y-19700D02*
X35640Y-20340D01*
X24000Y-21750D02*
X28750Y-21750D01*
X35640Y-20340D02*
X37740Y-20340D01*
X31450Y-25620D02*
X31450Y-25000D01*
X31450Y-15250D02*
X33570Y-13130D01*
X31450Y-25000D02*
X33570Y-22880D01*
X31450Y-15870D02*
X31450Y-15250D01*
X45000Y-10250D02*
X44520Y-09770D01*
X27750Y-12750D02*
X24250Y-12750D01*
X45000Y-11250D02*
X45000Y-10250D01*
X29000Y-12750D02*
X30500Y-11250D01*
X44520Y-09770D02*
X44000Y-09770D01*
X43100Y-08850D02*
X43500Y-09250D01*
X30500Y-11250D02*
X30750Y-11250D01*
X44000Y-19500D02*
X43500Y-19000D01*
X44000Y-12250D02*
X45000Y-11250D01*
X35850Y-08800D02*
X35900Y-08850D01*
X34250Y-08800D02*
X35850Y-08800D01*
X44000Y-09750D02*
X43500Y-09250D01*
X27750Y-12750D02*
X29000Y-12750D01*
X44000Y-09770D02*
X44000Y-09750D01*
X45000Y-20000D02*
X44520Y-19520D01*
X24250Y-12750D02*
X23500Y-12750D01*
X30750Y-11250D02*
X31800Y-11250D01*
X31800Y-11250D02*
X34250Y-08800D01*
X44000Y-13000D02*
X44000Y-12250D01*
X24250Y-22500D02*
X23500Y-22500D01*
X43100Y-18600D02*
X43500Y-19000D01*
X27750Y-22500D02*
X29000Y-22500D01*
X30500Y-21000D02*
X30750Y-21000D01*
X44000Y-19520D02*
X44000Y-19500D01*
X23500Y-12750D02*
X24250Y-12750D01*
X29000Y-22500D02*
X30500Y-21000D01*
X31800Y-21000D02*
X34250Y-18550D01*
X30750Y-21000D02*
X31800Y-21000D01*
X44000Y-22750D02*
X44000Y-22000D01*
X35900Y-08850D02*
X43100Y-08850D01*
X34250Y-18550D02*
X35850Y-18550D01*
X35850Y-18550D02*
X35900Y-18600D01*
X44000Y-22000D02*
X45000Y-21000D01*
X44520Y-19520D02*
X44000Y-19520D01*
X35900Y-18600D02*
X43100Y-18600D01*
X23500Y-22500D02*
X24250Y-22500D01*
X45000Y-21000D02*
X45000Y-20000D01*
X27750Y-22500D02*
X24250Y-22500D01*
X41650Y-17000D02*
X42040Y-16610D01*
X39500Y-17000D02*
X41650Y-17000D01*
X34750Y-16250D02*
X38750Y-16250D01*
X34070Y-16930D02*
X34750Y-16250D01*
X33560Y-16930D02*
X34070Y-16930D01*
X38750Y-26000D02*
X39500Y-26750D01*
X38750Y-16250D02*
X39500Y-17000D01*
X33560Y-26680D02*
X34070Y-26680D01*
X34070Y-26680D02*
X34750Y-26000D01*
X39500Y-26750D02*
X41650Y-26750D01*
X34750Y-26000D02*
X38750Y-26000D01*
X41650Y-26750D02*
X42040Y-26360D01*
G54D10*
G36*
X49675Y-26925D02*
X49603Y-26925D01*
X49603Y-26654D01*
X49603Y-26555D01*
X49603Y-25847D01*
X49603Y-16904D01*
X49603Y-16805D01*
X49603Y-16097D01*
X49565Y-16005D01*
X49495Y-15935D01*
X49450Y-15916D01*
X49450Y-15750D01*
X49416Y-15578D01*
X49416Y-15577D01*
X49318Y-15432D01*
X47775Y-13889D01*
X47775Y-09885D01*
X47775Y-09656D01*
X47688Y-09445D01*
X47526Y-09283D01*
X47315Y-09195D01*
X47086Y-09195D01*
X46875Y-09282D01*
X46713Y-09444D01*
X46649Y-09595D01*
X46588Y-09445D01*
X46426Y-09283D01*
X46215Y-09195D01*
X45986Y-09195D01*
X45775Y-09282D01*
X45613Y-09444D01*
X45525Y-09655D01*
X45525Y-09884D01*
X45612Y-10095D01*
X45774Y-10257D01*
X45985Y-10345D01*
X46214Y-10345D01*
X46425Y-10258D01*
X46587Y-10096D01*
X46650Y-09944D01*
X46712Y-10095D01*
X46874Y-10257D01*
X47085Y-10345D01*
X47314Y-10345D01*
X47525Y-10258D01*
X47687Y-10096D01*
X47775Y-09885D01*
X47775Y-13889D01*
X47768Y-13882D01*
X47768Y-12854D01*
X47756Y-12631D01*
X47692Y-12474D01*
X47596Y-12445D01*
X47525Y-12516D01*
X47525Y-12374D01*
X47496Y-12278D01*
X47284Y-12202D01*
X47061Y-12214D01*
X46904Y-12278D01*
X46875Y-12374D01*
X47200Y-12699D01*
X47525Y-12374D01*
X47525Y-12516D01*
X47271Y-12770D01*
X47596Y-13095D01*
X47692Y-13066D01*
X47768Y-12854D01*
X47768Y-13882D01*
X47218Y-13332D01*
X47339Y-13326D01*
X47496Y-13262D01*
X47525Y-13166D01*
X47235Y-12876D01*
X47200Y-12841D01*
X47129Y-12770D01*
X47094Y-12735D01*
X46804Y-12445D01*
X46708Y-12474D01*
X46657Y-12614D01*
X46588Y-12445D01*
X46426Y-12283D01*
X46215Y-12195D01*
X45986Y-12195D01*
X45775Y-12282D01*
X45613Y-12444D01*
X45525Y-12655D01*
X45525Y-12884D01*
X45612Y-13095D01*
X45774Y-13257D01*
X45940Y-13326D01*
X48536Y-15922D01*
X48505Y-15935D01*
X48435Y-16005D01*
X48412Y-16059D01*
X48342Y-15989D01*
X48121Y-15897D01*
X47881Y-15897D01*
X47659Y-15988D01*
X47489Y-16158D01*
X47397Y-16379D01*
X47397Y-16619D01*
X47488Y-16841D01*
X47658Y-17011D01*
X47879Y-17103D01*
X48119Y-17103D01*
X48341Y-17012D01*
X48412Y-16940D01*
X48435Y-16995D01*
X48505Y-17065D01*
X48596Y-17103D01*
X48695Y-17103D01*
X49403Y-17103D01*
X49495Y-17065D01*
X49565Y-16995D01*
X49603Y-16904D01*
X49603Y-25847D01*
X49565Y-25755D01*
X49495Y-25685D01*
X49450Y-25666D01*
X49450Y-25500D01*
X49416Y-25328D01*
X49416Y-25327D01*
X49318Y-25182D01*
X47775Y-23639D01*
X47775Y-19635D01*
X47775Y-19406D01*
X47688Y-19195D01*
X47526Y-19033D01*
X47353Y-18960D01*
X47353Y-16904D01*
X47353Y-16805D01*
X47353Y-16097D01*
X47315Y-16005D01*
X47245Y-15935D01*
X47154Y-15897D01*
X47055Y-15897D01*
X46347Y-15897D01*
X46255Y-15935D01*
X46185Y-16005D01*
X46166Y-16048D01*
X46113Y-15995D01*
X46078Y-16030D01*
X46063Y-15985D01*
X45843Y-15904D01*
X45608Y-15914D01*
X45437Y-15985D01*
X45404Y-16084D01*
X45715Y-16394D01*
X45750Y-16429D01*
X45821Y-16500D01*
X45750Y-16571D01*
X45679Y-16641D01*
X45679Y-16500D01*
X45334Y-16154D01*
X45235Y-16187D01*
X45154Y-16407D01*
X45164Y-16642D01*
X45235Y-16813D01*
X45334Y-16846D01*
X45679Y-16500D01*
X45679Y-16641D01*
X45404Y-16916D01*
X45437Y-17015D01*
X45657Y-17096D01*
X45892Y-17086D01*
X46063Y-17015D01*
X46078Y-16969D01*
X46096Y-16987D01*
X46113Y-17005D01*
X46166Y-16951D01*
X46185Y-16995D01*
X46255Y-17065D01*
X46346Y-17103D01*
X46445Y-17103D01*
X47153Y-17103D01*
X47245Y-17065D01*
X47315Y-16995D01*
X47353Y-16904D01*
X47353Y-18960D01*
X47315Y-18945D01*
X47086Y-18945D01*
X46875Y-19032D01*
X46713Y-19194D01*
X46649Y-19345D01*
X46588Y-19195D01*
X46426Y-19033D01*
X46215Y-18945D01*
X46096Y-18945D01*
X45986Y-18945D01*
X45775Y-19032D01*
X45613Y-19194D01*
X45525Y-19405D01*
X45525Y-19634D01*
X45612Y-19845D01*
X45774Y-20007D01*
X45985Y-20095D01*
X46214Y-20095D01*
X46425Y-20008D01*
X46587Y-19846D01*
X46650Y-19694D01*
X46712Y-19845D01*
X46874Y-20007D01*
X47085Y-20095D01*
X47314Y-20095D01*
X47525Y-20008D01*
X47687Y-19846D01*
X47775Y-19635D01*
X47775Y-23639D01*
X47768Y-23632D01*
X47768Y-22604D01*
X47756Y-22381D01*
X47692Y-22224D01*
X47596Y-22195D01*
X47525Y-22266D01*
X47525Y-22124D01*
X47496Y-22028D01*
X47284Y-21952D01*
X47061Y-21964D01*
X46904Y-22028D01*
X46875Y-22124D01*
X47200Y-22449D01*
X47525Y-22124D01*
X47525Y-22266D01*
X47271Y-22520D01*
X47596Y-22845D01*
X47692Y-22816D01*
X47768Y-22604D01*
X47768Y-23632D01*
X47218Y-23082D01*
X47339Y-23076D01*
X47496Y-23012D01*
X47525Y-22916D01*
X47235Y-22626D01*
X47200Y-22591D01*
X47129Y-22520D01*
X47094Y-22485D01*
X46804Y-22195D01*
X46708Y-22224D01*
X46657Y-22364D01*
X46588Y-22195D01*
X46426Y-22033D01*
X46215Y-21945D01*
X45986Y-21945D01*
X45775Y-22032D01*
X45613Y-22194D01*
X45525Y-22405D01*
X45525Y-22634D01*
X45612Y-22845D01*
X45774Y-23007D01*
X45940Y-23076D01*
X48536Y-25672D01*
X48505Y-25685D01*
X48435Y-25755D01*
X48412Y-25809D01*
X48342Y-25739D01*
X48121Y-25647D01*
X47881Y-25647D01*
X47659Y-25738D01*
X47489Y-25908D01*
X47397Y-26129D01*
X47397Y-26369D01*
X47488Y-26591D01*
X47658Y-26761D01*
X47879Y-26853D01*
X48119Y-26853D01*
X48341Y-26762D01*
X48412Y-26690D01*
X48435Y-26745D01*
X48505Y-26815D01*
X48596Y-26853D01*
X48695Y-26853D01*
X49403Y-26853D01*
X49495Y-26815D01*
X49565Y-26745D01*
X49603Y-26654D01*
X49603Y-26925D01*
X47353Y-26925D01*
X47353Y-26654D01*
X47353Y-26555D01*
X47353Y-25847D01*
X47315Y-25755D01*
X47245Y-25685D01*
X47154Y-25647D01*
X47055Y-25647D01*
X46347Y-25647D01*
X46255Y-25685D01*
X46185Y-25755D01*
X46166Y-25798D01*
X46113Y-25745D01*
X46078Y-25780D01*
X46063Y-25735D01*
X45843Y-25654D01*
X45608Y-25664D01*
X45450Y-25729D01*
X45450Y-21000D01*
X45450Y-20000D01*
X45449Y-19999D01*
X45416Y-19828D01*
X45415Y-19827D01*
X45383Y-19779D01*
X45318Y-19682D01*
X45318Y-19681D01*
X45103Y-19466D01*
X45103Y-16904D01*
X45103Y-16805D01*
X45103Y-16097D01*
X45065Y-16005D01*
X44995Y-15935D01*
X44904Y-15897D01*
X44805Y-15897D01*
X44543Y-15897D01*
X44543Y-14079D01*
X44532Y-13866D01*
X44472Y-13719D01*
X44378Y-13692D01*
X44071Y-14000D01*
X44378Y-14308D01*
X44472Y-14281D01*
X44543Y-14079D01*
X44543Y-15897D01*
X44308Y-15897D01*
X44308Y-14378D01*
X44000Y-14071D01*
X43929Y-14141D01*
X43929Y-14000D01*
X43622Y-13692D01*
X43528Y-13719D01*
X43457Y-13921D01*
X43468Y-14134D01*
X43528Y-14281D01*
X43622Y-14308D01*
X43929Y-14000D01*
X43929Y-14141D01*
X43692Y-14378D01*
X43719Y-14472D01*
X43921Y-14543D01*
X44134Y-14532D01*
X44281Y-14472D01*
X44308Y-14378D01*
X44308Y-15897D01*
X44097Y-15897D01*
X44005Y-15935D01*
X43935Y-16005D01*
X43912Y-16059D01*
X43842Y-15989D01*
X43621Y-15897D01*
X43381Y-15897D01*
X43159Y-15988D01*
X42989Y-16158D01*
X42897Y-16379D01*
X42897Y-16619D01*
X42988Y-16841D01*
X43158Y-17011D01*
X43379Y-17103D01*
X43619Y-17103D01*
X43841Y-17012D01*
X43912Y-16940D01*
X43935Y-16995D01*
X44005Y-17065D01*
X44096Y-17103D01*
X44195Y-17103D01*
X44903Y-17103D01*
X44995Y-17065D01*
X45065Y-16995D01*
X45103Y-16904D01*
X45103Y-19466D01*
X44838Y-19202D01*
X44693Y-19104D01*
X44520Y-19070D01*
X44326Y-19070D01*
X44311Y-19055D01*
X44109Y-18971D01*
X44107Y-18971D01*
X43819Y-18683D01*
X43818Y-18682D01*
X43818Y-18681D01*
X43418Y-18282D01*
X43273Y-18184D01*
X43100Y-18150D01*
X42615Y-18150D01*
X42615Y-16725D01*
X42615Y-16496D01*
X42615Y-13725D01*
X42615Y-13496D01*
X42528Y-13285D01*
X42366Y-13123D01*
X42226Y-13064D01*
X42365Y-13008D01*
X42527Y-12846D01*
X42615Y-12635D01*
X42615Y-12406D01*
X42528Y-12195D01*
X42366Y-12033D01*
X42155Y-11945D01*
X41926Y-11945D01*
X41715Y-12032D01*
X41553Y-12194D01*
X41465Y-12405D01*
X41465Y-12634D01*
X41552Y-12845D01*
X41714Y-13007D01*
X41853Y-13065D01*
X41715Y-13122D01*
X41553Y-13284D01*
X41465Y-13495D01*
X41465Y-13724D01*
X41552Y-13935D01*
X41714Y-14097D01*
X41925Y-14185D01*
X42154Y-14185D01*
X42365Y-14098D01*
X42527Y-13936D01*
X42615Y-13725D01*
X42615Y-16496D01*
X42528Y-16285D01*
X42366Y-16123D01*
X42155Y-16035D01*
X41926Y-16035D01*
X41715Y-16122D01*
X41553Y-16284D01*
X41465Y-16495D01*
X41465Y-16548D01*
X41463Y-16550D01*
X39686Y-16550D01*
X39068Y-15932D01*
X38923Y-15834D01*
X38750Y-15800D01*
X38396Y-15800D01*
X38405Y-15786D01*
X38422Y-15727D01*
X38375Y-15640D01*
X37840Y-15640D01*
X37790Y-15640D01*
X37690Y-15640D01*
X37690Y-15540D01*
X37790Y-15540D01*
X37840Y-15540D01*
X38375Y-15540D01*
X38422Y-15453D01*
X38405Y-15394D01*
X38290Y-15208D01*
X38124Y-15088D01*
X38204Y-15055D01*
X38358Y-14901D01*
X38442Y-14699D01*
X38442Y-14481D01*
X38358Y-14279D01*
X38204Y-14125D01*
X38119Y-14090D01*
X38204Y-14055D01*
X38358Y-13901D01*
X38442Y-13699D01*
X38442Y-13481D01*
X38358Y-13279D01*
X38204Y-13125D01*
X38119Y-13090D01*
X38204Y-13055D01*
X38358Y-12901D01*
X38442Y-12699D01*
X38442Y-12481D01*
X38358Y-12279D01*
X38204Y-12125D01*
X38119Y-12090D01*
X38204Y-12055D01*
X38358Y-11901D01*
X38442Y-11699D01*
X38442Y-11481D01*
X38358Y-11279D01*
X38204Y-11125D01*
X38124Y-11091D01*
X38290Y-10972D01*
X38405Y-10786D01*
X38422Y-10727D01*
X38375Y-10640D01*
X37840Y-10640D01*
X37790Y-10640D01*
X37690Y-10640D01*
X37640Y-10640D01*
X37105Y-10640D01*
X37058Y-10727D01*
X37075Y-10786D01*
X37190Y-10972D01*
X37355Y-11091D01*
X37276Y-11125D01*
X37122Y-11279D01*
X37038Y-11481D01*
X37038Y-11699D01*
X37122Y-11901D01*
X37276Y-12055D01*
X37360Y-12090D01*
X37276Y-12125D01*
X37122Y-12279D01*
X37089Y-12358D01*
X37089Y-12104D01*
X37078Y-11900D01*
X37022Y-11763D01*
X36931Y-11740D01*
X36860Y-11811D01*
X36860Y-11669D01*
X36837Y-11578D01*
X36644Y-11511D01*
X36440Y-11522D01*
X36303Y-11578D01*
X36280Y-11669D01*
X36570Y-11959D01*
X36860Y-11669D01*
X36860Y-11811D01*
X36641Y-12030D01*
X36931Y-12320D01*
X37022Y-12297D01*
X37089Y-12104D01*
X37089Y-12358D01*
X37038Y-12481D01*
X37038Y-12699D01*
X37122Y-12901D01*
X37276Y-13055D01*
X37360Y-13090D01*
X37276Y-13125D01*
X37122Y-13279D01*
X37069Y-13406D01*
X37138Y-13214D01*
X37126Y-12991D01*
X37062Y-12834D01*
X36966Y-12805D01*
X36895Y-12876D01*
X36895Y-12734D01*
X36866Y-12638D01*
X36860Y-12635D01*
X36860Y-12391D01*
X36570Y-12101D01*
X36499Y-12172D01*
X36499Y-12030D01*
X36209Y-11740D01*
X36118Y-11763D01*
X36051Y-11956D01*
X36062Y-12160D01*
X36118Y-12297D01*
X36209Y-12320D01*
X36499Y-12030D01*
X36499Y-12172D01*
X36280Y-12391D01*
X36303Y-12482D01*
X36496Y-12549D01*
X36700Y-12538D01*
X36837Y-12482D01*
X36860Y-12391D01*
X36860Y-12635D01*
X36654Y-12562D01*
X36431Y-12574D01*
X36274Y-12638D01*
X36245Y-12734D01*
X36570Y-13059D01*
X36895Y-12734D01*
X36895Y-12876D01*
X36641Y-13130D01*
X36966Y-13455D01*
X37060Y-13426D01*
X37038Y-13481D01*
X37038Y-13699D01*
X37122Y-13901D01*
X37276Y-14055D01*
X37360Y-14090D01*
X37276Y-14125D01*
X37122Y-14279D01*
X37038Y-14481D01*
X37038Y-14699D01*
X37122Y-14901D01*
X37276Y-15055D01*
X37355Y-15088D01*
X37190Y-15208D01*
X37130Y-15303D01*
X37078Y-15175D01*
X36916Y-15013D01*
X36895Y-15004D01*
X36895Y-13526D01*
X36570Y-13201D01*
X36499Y-13272D01*
X36499Y-13130D01*
X36174Y-12805D01*
X36078Y-12834D01*
X36002Y-13046D01*
X36014Y-13269D01*
X36078Y-13426D01*
X36174Y-13455D01*
X36499Y-13130D01*
X36499Y-13272D01*
X36245Y-13526D01*
X36274Y-13622D01*
X36486Y-13698D01*
X36709Y-13686D01*
X36866Y-13622D01*
X36895Y-13526D01*
X36895Y-15004D01*
X36705Y-14925D01*
X36476Y-14925D01*
X36265Y-15012D01*
X36145Y-15132D01*
X36145Y-14415D01*
X36145Y-14206D01*
X36065Y-14013D01*
X35918Y-13865D01*
X35725Y-13785D01*
X35516Y-13785D01*
X35323Y-13865D01*
X35175Y-14012D01*
X35095Y-14205D01*
X35095Y-14414D01*
X35175Y-14607D01*
X35322Y-14755D01*
X35515Y-14835D01*
X35724Y-14835D01*
X35917Y-14755D01*
X36065Y-14608D01*
X36145Y-14415D01*
X36145Y-15132D01*
X36103Y-15174D01*
X36015Y-15385D01*
X36015Y-15614D01*
X36091Y-15800D01*
X34750Y-15800D01*
X34578Y-15834D01*
X34529Y-15866D01*
X34431Y-15932D01*
X34165Y-16198D01*
X34165Y-15615D01*
X34165Y-15386D01*
X34145Y-15337D01*
X34145Y-14415D01*
X34145Y-14206D01*
X34065Y-14013D01*
X33918Y-13865D01*
X33725Y-13785D01*
X33551Y-13785D01*
X33631Y-13705D01*
X33684Y-13705D01*
X33895Y-13618D01*
X34057Y-13456D01*
X34145Y-13245D01*
X34145Y-13016D01*
X34094Y-12892D01*
X34094Y-12355D01*
X34094Y-12256D01*
X34094Y-11706D01*
X34056Y-11614D01*
X33986Y-11544D01*
X33895Y-11506D01*
X33796Y-11506D01*
X33246Y-11506D01*
X33154Y-11544D01*
X33084Y-11614D01*
X33046Y-11705D01*
X33046Y-11804D01*
X33046Y-12354D01*
X33084Y-12446D01*
X33154Y-12516D01*
X33245Y-12554D01*
X33344Y-12554D01*
X33894Y-12554D01*
X33986Y-12516D01*
X34056Y-12446D01*
X34094Y-12355D01*
X34094Y-12892D01*
X34058Y-12805D01*
X33896Y-12643D01*
X33685Y-12555D01*
X33456Y-12555D01*
X33245Y-12642D01*
X33083Y-12804D01*
X32995Y-13015D01*
X32995Y-13069D01*
X31699Y-14365D01*
X31699Y-14170D01*
X31699Y-14071D01*
X31699Y-13471D01*
X31693Y-13456D01*
X31661Y-13379D01*
X31591Y-13309D01*
X31500Y-13271D01*
X31437Y-13271D01*
X31458Y-13198D01*
X31150Y-12891D01*
X30842Y-13198D01*
X30862Y-13271D01*
X30801Y-13271D01*
X30709Y-13309D01*
X30639Y-13379D01*
X30601Y-13470D01*
X30601Y-13569D01*
X30601Y-14169D01*
X30639Y-14261D01*
X30709Y-14331D01*
X30800Y-14369D01*
X30899Y-14369D01*
X31499Y-14369D01*
X31591Y-14331D01*
X31661Y-14261D01*
X31699Y-14170D01*
X31699Y-14365D01*
X31132Y-14932D01*
X31034Y-15077D01*
X31000Y-15250D01*
X31000Y-15584D01*
X30946Y-15712D01*
X30902Y-15603D01*
X30811Y-15580D01*
X30740Y-15651D01*
X30740Y-15509D01*
X30717Y-15418D01*
X30524Y-15351D01*
X30320Y-15362D01*
X30183Y-15418D01*
X30160Y-15509D01*
X30450Y-15799D01*
X30740Y-15509D01*
X30740Y-15651D01*
X30521Y-15870D01*
X30811Y-16160D01*
X30902Y-16137D01*
X30943Y-16018D01*
X31005Y-16167D01*
X31152Y-16315D01*
X31226Y-16346D01*
X31126Y-16346D01*
X31034Y-16384D01*
X30964Y-16454D01*
X30926Y-16545D01*
X30926Y-16644D01*
X30926Y-17194D01*
X30964Y-17286D01*
X31034Y-17356D01*
X31125Y-17394D01*
X31224Y-17394D01*
X31774Y-17394D01*
X31866Y-17356D01*
X31936Y-17286D01*
X31974Y-17195D01*
X31974Y-17096D01*
X31974Y-16546D01*
X31936Y-16454D01*
X31866Y-16384D01*
X31775Y-16346D01*
X31676Y-16346D01*
X31672Y-16346D01*
X31747Y-16315D01*
X31895Y-16168D01*
X31975Y-15975D01*
X31975Y-15766D01*
X31900Y-15585D01*
X31900Y-15436D01*
X33095Y-14241D01*
X33095Y-14414D01*
X33175Y-14607D01*
X33322Y-14755D01*
X33515Y-14835D01*
X33724Y-14835D01*
X33917Y-14755D01*
X34065Y-14608D01*
X34145Y-14415D01*
X34145Y-15337D01*
X34078Y-15175D01*
X33916Y-15013D01*
X33705Y-14925D01*
X33476Y-14925D01*
X33265Y-15012D01*
X33103Y-15174D01*
X33015Y-15385D01*
X33015Y-15614D01*
X33102Y-15825D01*
X33264Y-15987D01*
X33475Y-16075D01*
X33704Y-16075D01*
X33915Y-15988D01*
X34077Y-15826D01*
X34165Y-15615D01*
X34165Y-16198D01*
X33883Y-16480D01*
X33845Y-16480D01*
X33665Y-16405D01*
X33456Y-16405D01*
X33263Y-16485D01*
X33115Y-16632D01*
X33035Y-16825D01*
X33035Y-17034D01*
X33115Y-17227D01*
X33262Y-17375D01*
X33455Y-17455D01*
X33664Y-17455D01*
X33844Y-17380D01*
X34070Y-17380D01*
X34242Y-17346D01*
X34243Y-17346D01*
X34388Y-17248D01*
X34936Y-16700D01*
X36036Y-16700D01*
X36036Y-16704D01*
X36036Y-17254D01*
X36074Y-17346D01*
X36144Y-17416D01*
X36235Y-17454D01*
X36334Y-17454D01*
X36884Y-17454D01*
X36976Y-17416D01*
X37046Y-17346D01*
X37084Y-17255D01*
X37084Y-17156D01*
X37084Y-16700D01*
X38563Y-16700D01*
X39181Y-17318D01*
X39182Y-17318D01*
X39279Y-17383D01*
X39327Y-17415D01*
X39328Y-17416D01*
X39500Y-17450D01*
X41650Y-17450D01*
X41822Y-17416D01*
X41823Y-17416D01*
X41968Y-17318D01*
X42101Y-17185D01*
X42154Y-17185D01*
X42365Y-17098D01*
X42527Y-16936D01*
X42615Y-16725D01*
X42615Y-18150D01*
X36046Y-18150D01*
X36023Y-18134D01*
X35850Y-18100D01*
X34250Y-18100D01*
X34078Y-18134D01*
X34029Y-18166D01*
X33931Y-18232D01*
X33049Y-19114D01*
X33049Y-19021D01*
X32950Y-18782D01*
X32768Y-18600D01*
X32529Y-18501D01*
X32271Y-18501D01*
X32032Y-18600D01*
X31850Y-18782D01*
X31751Y-19021D01*
X31751Y-19279D01*
X31850Y-19518D01*
X32032Y-19700D01*
X32271Y-19799D01*
X32364Y-19799D01*
X32049Y-20114D01*
X32049Y-20021D01*
X31950Y-19782D01*
X31768Y-19600D01*
X31529Y-19501D01*
X31271Y-19501D01*
X31049Y-19592D01*
X31049Y-19279D01*
X31049Y-19021D01*
X30950Y-18782D01*
X30768Y-18600D01*
X30740Y-18588D01*
X30740Y-16231D01*
X30450Y-15941D01*
X30379Y-16012D01*
X30379Y-15870D01*
X30089Y-15580D01*
X29998Y-15603D01*
X29931Y-15796D01*
X29942Y-16000D01*
X29998Y-16137D01*
X30089Y-16160D01*
X30379Y-15870D01*
X30379Y-16012D01*
X30160Y-16231D01*
X30183Y-16322D01*
X30376Y-16389D01*
X30580Y-16378D01*
X30717Y-16322D01*
X30740Y-16231D01*
X30740Y-18588D01*
X30529Y-18501D01*
X30271Y-18501D01*
X30032Y-18600D01*
X29850Y-18782D01*
X29751Y-19021D01*
X29751Y-19279D01*
X29850Y-19518D01*
X30032Y-19700D01*
X30271Y-19799D01*
X30529Y-19799D01*
X30768Y-19700D01*
X30950Y-19518D01*
X31049Y-19279D01*
X31049Y-19592D01*
X31032Y-19600D01*
X30850Y-19782D01*
X30751Y-20021D01*
X30751Y-20279D01*
X30850Y-20518D01*
X30882Y-20550D01*
X30750Y-20550D01*
X30500Y-20550D01*
X30355Y-20578D01*
X30327Y-20584D01*
X30182Y-20682D01*
X29105Y-21759D01*
X29105Y-16675D01*
X29105Y-16446D01*
X29018Y-16235D01*
X28856Y-16073D01*
X28645Y-15985D01*
X28416Y-15985D01*
X28205Y-16072D01*
X28043Y-16234D01*
X27955Y-16445D01*
X27955Y-16674D01*
X28042Y-16885D01*
X28204Y-17047D01*
X28415Y-17135D01*
X28644Y-17135D01*
X28855Y-17048D01*
X29017Y-16886D01*
X29105Y-16675D01*
X29105Y-21759D01*
X28814Y-22050D01*
X28745Y-22050D01*
X28745Y-19755D01*
X28745Y-19526D01*
X28658Y-19315D01*
X28496Y-19153D01*
X28285Y-19065D01*
X28225Y-19065D01*
X28225Y-18675D01*
X28225Y-18466D01*
X28145Y-18273D01*
X27998Y-18125D01*
X27805Y-18045D01*
X27596Y-18045D01*
X27403Y-18125D01*
X27255Y-18272D01*
X27175Y-18465D01*
X27175Y-18674D01*
X27255Y-18867D01*
X27402Y-19015D01*
X27595Y-19095D01*
X27804Y-19095D01*
X27997Y-19015D01*
X28145Y-18868D01*
X28225Y-18675D01*
X28225Y-19065D01*
X28056Y-19065D01*
X27845Y-19152D01*
X27683Y-19314D01*
X27595Y-19525D01*
X27595Y-19754D01*
X27682Y-19965D01*
X27844Y-20127D01*
X28055Y-20215D01*
X28284Y-20215D01*
X28495Y-20128D01*
X28657Y-19966D01*
X28745Y-19755D01*
X28745Y-22050D01*
X27979Y-22050D01*
X27979Y-21002D01*
X27979Y-20784D01*
X27979Y-20478D01*
X27895Y-20276D01*
X27741Y-20122D01*
X27539Y-20038D01*
X27321Y-20038D01*
X27119Y-20122D01*
X26965Y-20276D01*
X26930Y-20360D01*
X26895Y-20276D01*
X26741Y-20122D01*
X26539Y-20038D01*
X26321Y-20038D01*
X26225Y-20077D01*
X26225Y-18675D01*
X26225Y-18466D01*
X26145Y-18273D01*
X26105Y-18232D01*
X26105Y-16675D01*
X26105Y-16446D01*
X26018Y-16235D01*
X25856Y-16073D01*
X25645Y-15985D01*
X25416Y-15985D01*
X25205Y-16072D01*
X25043Y-16234D01*
X24955Y-16445D01*
X24955Y-16674D01*
X25042Y-16885D01*
X25204Y-17047D01*
X25415Y-17135D01*
X25644Y-17135D01*
X25855Y-17048D01*
X26017Y-16886D01*
X26105Y-16675D01*
X26105Y-18232D01*
X25998Y-18125D01*
X25805Y-18045D01*
X25596Y-18045D01*
X25403Y-18125D01*
X25255Y-18272D01*
X25175Y-18465D01*
X25175Y-18674D01*
X25255Y-18867D01*
X25402Y-19015D01*
X25595Y-19095D01*
X25804Y-19095D01*
X25997Y-19015D01*
X26145Y-18868D01*
X26225Y-18675D01*
X26225Y-20077D01*
X26119Y-20122D01*
X25965Y-20276D01*
X25930Y-20360D01*
X25895Y-20276D01*
X25741Y-20122D01*
X25571Y-20051D01*
X25657Y-19966D01*
X25745Y-19755D01*
X25745Y-19526D01*
X25658Y-19315D01*
X25496Y-19153D01*
X25285Y-19065D01*
X25056Y-19065D01*
X24845Y-19152D01*
X24683Y-19314D01*
X24595Y-19525D01*
X24595Y-19754D01*
X24682Y-19965D01*
X24844Y-20127D01*
X25034Y-20206D01*
X24965Y-20276D01*
X24931Y-20355D01*
X24812Y-20190D01*
X24626Y-20075D01*
X24567Y-20058D01*
X24480Y-20105D01*
X24480Y-20640D01*
X24480Y-20690D01*
X24480Y-20790D01*
X24480Y-20840D01*
X24480Y-21375D01*
X24567Y-21422D01*
X24626Y-21405D01*
X24812Y-21290D01*
X24931Y-21124D01*
X24965Y-21204D01*
X25119Y-21358D01*
X25321Y-21442D01*
X25539Y-21442D01*
X25741Y-21358D01*
X25895Y-21204D01*
X25930Y-21119D01*
X25965Y-21204D01*
X26119Y-21358D01*
X26321Y-21442D01*
X26539Y-21442D01*
X26741Y-21358D01*
X26895Y-21204D01*
X26930Y-21119D01*
X26965Y-21204D01*
X27119Y-21358D01*
X27321Y-21442D01*
X27539Y-21442D01*
X27741Y-21358D01*
X27895Y-21204D01*
X27979Y-21002D01*
X27979Y-22050D01*
X27750Y-22050D01*
X24380Y-22050D01*
X24380Y-21375D01*
X24380Y-20840D01*
X24380Y-20790D01*
X24380Y-20690D01*
X24380Y-20640D01*
X24380Y-20105D01*
X24293Y-20058D01*
X24234Y-20075D01*
X24048Y-20190D01*
X23928Y-20355D01*
X23895Y-20276D01*
X23784Y-20165D01*
X23934Y-20165D01*
X24127Y-20085D01*
X24275Y-19938D01*
X24355Y-19745D01*
X24355Y-19536D01*
X24335Y-19487D01*
X24335Y-18675D01*
X24335Y-18466D01*
X24255Y-18273D01*
X24108Y-18125D01*
X23915Y-18045D01*
X23706Y-18045D01*
X23513Y-18125D01*
X23365Y-18272D01*
X23285Y-18465D01*
X23285Y-18674D01*
X23365Y-18867D01*
X23512Y-19015D01*
X23705Y-19095D01*
X23914Y-19095D01*
X24107Y-19015D01*
X24255Y-18868D01*
X24335Y-18675D01*
X24335Y-19487D01*
X24275Y-19343D01*
X24128Y-19195D01*
X23935Y-19115D01*
X23726Y-19115D01*
X23533Y-19195D01*
X23385Y-19342D01*
X23305Y-19535D01*
X23305Y-19744D01*
X23385Y-19937D01*
X23485Y-20038D01*
X23321Y-20038D01*
X23119Y-20122D01*
X22965Y-20276D01*
X22930Y-20360D01*
X22895Y-20276D01*
X22741Y-20122D01*
X22539Y-20038D01*
X22321Y-20038D01*
X22119Y-20122D01*
X21965Y-20276D01*
X21930Y-20360D01*
X21895Y-20276D01*
X21784Y-20165D01*
X21934Y-20165D01*
X22127Y-20085D01*
X22275Y-19938D01*
X22355Y-19745D01*
X22355Y-19536D01*
X22335Y-19487D01*
X22335Y-18675D01*
X22335Y-18466D01*
X22255Y-18273D01*
X22108Y-18125D01*
X22005Y-18082D01*
X22005Y-16685D01*
X22005Y-16476D01*
X21925Y-16283D01*
X21778Y-16135D01*
X21585Y-16055D01*
X21376Y-16055D01*
X21183Y-16135D01*
X21035Y-16282D01*
X20955Y-16475D01*
X20955Y-16684D01*
X21035Y-16877D01*
X21182Y-17025D01*
X21375Y-17105D01*
X21584Y-17105D01*
X21777Y-17025D01*
X21925Y-16878D01*
X22005Y-16685D01*
X22005Y-18082D01*
X21915Y-18045D01*
X21706Y-18045D01*
X21513Y-18125D01*
X21365Y-18272D01*
X21285Y-18465D01*
X21285Y-18674D01*
X21365Y-18867D01*
X21512Y-19015D01*
X21705Y-19095D01*
X21914Y-19095D01*
X22107Y-19015D01*
X22255Y-18868D01*
X22335Y-18675D01*
X22335Y-19487D01*
X22275Y-19343D01*
X22128Y-19195D01*
X21935Y-19115D01*
X21726Y-19115D01*
X21533Y-19195D01*
X21385Y-19342D01*
X21305Y-19535D01*
X21305Y-19744D01*
X21385Y-19937D01*
X21485Y-20038D01*
X21321Y-20038D01*
X21119Y-20122D01*
X20965Y-20276D01*
X20881Y-20478D01*
X20881Y-20696D01*
X20881Y-21002D01*
X20965Y-21204D01*
X21119Y-21358D01*
X21321Y-21442D01*
X21539Y-21442D01*
X21741Y-21358D01*
X21895Y-21204D01*
X21930Y-21119D01*
X21965Y-21204D01*
X22119Y-21358D01*
X22321Y-21442D01*
X22539Y-21442D01*
X22741Y-21358D01*
X22895Y-21204D01*
X22930Y-21119D01*
X22965Y-21204D01*
X23119Y-21358D01*
X23321Y-21442D01*
X23539Y-21442D01*
X23741Y-21358D01*
X23895Y-21204D01*
X23928Y-21124D01*
X24048Y-21290D01*
X24234Y-21405D01*
X24293Y-21422D01*
X24380Y-21375D01*
X24380Y-22050D01*
X24250Y-22050D01*
X23500Y-22050D01*
X23328Y-22084D01*
X23182Y-22182D01*
X23084Y-22328D01*
X23050Y-22500D01*
X23084Y-22672D01*
X23182Y-22818D01*
X23328Y-22916D01*
X23500Y-22950D01*
X24250Y-22950D01*
X27750Y-22950D01*
X28914Y-22950D01*
X27979Y-23885D01*
X27979Y-23784D01*
X27979Y-23478D01*
X27895Y-23276D01*
X27741Y-23122D01*
X27539Y-23038D01*
X27321Y-23038D01*
X27119Y-23122D01*
X26965Y-23276D01*
X26930Y-23360D01*
X26895Y-23276D01*
X26741Y-23122D01*
X26539Y-23038D01*
X26321Y-23038D01*
X26119Y-23122D01*
X25965Y-23276D01*
X25930Y-23360D01*
X25895Y-23276D01*
X25741Y-23122D01*
X25539Y-23038D01*
X25321Y-23038D01*
X25119Y-23122D01*
X24965Y-23276D01*
X24930Y-23360D01*
X24895Y-23276D01*
X24741Y-23122D01*
X24539Y-23038D01*
X24321Y-23038D01*
X24119Y-23122D01*
X23965Y-23276D01*
X23930Y-23360D01*
X23895Y-23276D01*
X23741Y-23122D01*
X23539Y-23038D01*
X23321Y-23038D01*
X23119Y-23122D01*
X22965Y-23276D01*
X22930Y-23360D01*
X22895Y-23276D01*
X22741Y-23122D01*
X22539Y-23038D01*
X22321Y-23038D01*
X22119Y-23122D01*
X21989Y-23252D01*
X21989Y-23241D01*
X21951Y-23149D01*
X21881Y-23079D01*
X21790Y-23041D01*
X21691Y-23041D01*
X21071Y-23041D01*
X20979Y-23079D01*
X20909Y-23149D01*
X20871Y-23240D01*
X20871Y-23339D01*
X20871Y-24050D01*
X20275Y-24050D01*
X20275Y-18685D01*
X20275Y-18456D01*
X20188Y-18245D01*
X20026Y-18083D01*
X20005Y-18074D01*
X20005Y-16685D01*
X20005Y-16476D01*
X19925Y-16283D01*
X19778Y-16135D01*
X19585Y-16055D01*
X19376Y-16055D01*
X19183Y-16135D01*
X19035Y-16282D01*
X18955Y-16475D01*
X18955Y-16684D01*
X19035Y-16877D01*
X19182Y-17025D01*
X19375Y-17105D01*
X19584Y-17105D01*
X19777Y-17025D01*
X19925Y-16878D01*
X20005Y-16685D01*
X20005Y-18074D01*
X19815Y-17995D01*
X19586Y-17995D01*
X19375Y-18082D01*
X19213Y-18244D01*
X19125Y-18455D01*
X19125Y-18684D01*
X19212Y-18895D01*
X19374Y-19057D01*
X19585Y-19145D01*
X19814Y-19145D01*
X20025Y-19058D01*
X20187Y-18896D01*
X20275Y-18685D01*
X20275Y-24050D01*
X19975Y-24050D01*
X19975Y-22025D01*
X19975Y-21816D01*
X19975Y-20025D01*
X19975Y-19816D01*
X19895Y-19623D01*
X19748Y-19475D01*
X19555Y-19395D01*
X19346Y-19395D01*
X19153Y-19475D01*
X19005Y-19622D01*
X18925Y-19815D01*
X18925Y-20024D01*
X19005Y-20217D01*
X19152Y-20365D01*
X19345Y-20445D01*
X19554Y-20445D01*
X19747Y-20365D01*
X19895Y-20218D01*
X19975Y-20025D01*
X19975Y-21816D01*
X19895Y-21623D01*
X19748Y-21475D01*
X19555Y-21395D01*
X19346Y-21395D01*
X19153Y-21475D01*
X19005Y-21622D01*
X18925Y-21815D01*
X18925Y-22024D01*
X19005Y-22217D01*
X19152Y-22365D01*
X19345Y-22445D01*
X19554Y-22445D01*
X19747Y-22365D01*
X19895Y-22218D01*
X19975Y-22025D01*
X19975Y-24050D01*
X19955Y-24050D01*
X19955Y-23305D01*
X19955Y-23096D01*
X19875Y-22903D01*
X19728Y-22755D01*
X19535Y-22675D01*
X19326Y-22675D01*
X19133Y-22755D01*
X18985Y-22902D01*
X18905Y-23095D01*
X18905Y-23304D01*
X18985Y-23497D01*
X19132Y-23645D01*
X19325Y-23725D01*
X19534Y-23725D01*
X19727Y-23645D01*
X19875Y-23498D01*
X19955Y-23305D01*
X19955Y-24050D01*
X19250Y-24050D01*
X19078Y-24084D01*
X19029Y-24116D01*
X18931Y-24182D01*
X18875Y-24238D01*
X18875Y-23035D01*
X18875Y-22806D01*
X18868Y-22789D01*
X18868Y-20004D01*
X18856Y-19781D01*
X18792Y-19624D01*
X18775Y-19618D01*
X18775Y-16675D01*
X18775Y-16466D01*
X18695Y-16273D01*
X18548Y-16125D01*
X18355Y-16045D01*
X18146Y-16045D01*
X17953Y-16125D01*
X17805Y-16272D01*
X17725Y-16465D01*
X17725Y-16674D01*
X17805Y-16867D01*
X17952Y-17015D01*
X18145Y-17095D01*
X18354Y-17095D01*
X18547Y-17015D01*
X18695Y-16868D01*
X18775Y-16675D01*
X18775Y-19618D01*
X18696Y-19595D01*
X18625Y-19666D01*
X18625Y-19524D01*
X18596Y-19428D01*
X18384Y-19352D01*
X18161Y-19364D01*
X18004Y-19428D01*
X17975Y-19524D01*
X18300Y-19849D01*
X18625Y-19524D01*
X18625Y-19666D01*
X18371Y-19920D01*
X18696Y-20245D01*
X18792Y-20216D01*
X18868Y-20004D01*
X18868Y-22789D01*
X18788Y-22595D01*
X18626Y-22433D01*
X18625Y-22432D01*
X18625Y-20316D01*
X18300Y-19991D01*
X18229Y-20062D01*
X18229Y-19920D01*
X17904Y-19595D01*
X17808Y-19624D01*
X17732Y-19836D01*
X17744Y-20059D01*
X17808Y-20216D01*
X17904Y-20245D01*
X18229Y-19920D01*
X18229Y-20062D01*
X17975Y-20316D01*
X18004Y-20412D01*
X18216Y-20488D01*
X18439Y-20476D01*
X18596Y-20412D01*
X18625Y-20316D01*
X18625Y-22432D01*
X18415Y-22345D01*
X18186Y-22345D01*
X17975Y-22432D01*
X17813Y-22594D01*
X17725Y-22805D01*
X17725Y-23034D01*
X17812Y-23245D01*
X17974Y-23407D01*
X18185Y-23495D01*
X18414Y-23495D01*
X18625Y-23408D01*
X18787Y-23246D01*
X18875Y-23035D01*
X18875Y-24238D01*
X18775Y-24338D01*
X18775Y-24216D01*
X18695Y-24023D01*
X18548Y-23875D01*
X18355Y-23795D01*
X18146Y-23795D01*
X17953Y-23875D01*
X17805Y-24022D01*
X17725Y-24215D01*
X17725Y-24338D01*
X17247Y-23860D01*
X17375Y-23808D01*
X17537Y-23646D01*
X17625Y-23435D01*
X17625Y-23206D01*
X17625Y-16685D01*
X17625Y-16456D01*
X17538Y-16245D01*
X17376Y-16083D01*
X17165Y-15995D01*
X16936Y-15995D01*
X16725Y-16082D01*
X16563Y-16244D01*
X16475Y-16455D01*
X16475Y-16684D01*
X16562Y-16895D01*
X16724Y-17057D01*
X16935Y-17145D01*
X17164Y-17145D01*
X17375Y-17058D01*
X17537Y-16896D01*
X17625Y-16685D01*
X17625Y-23206D01*
X17538Y-22995D01*
X17525Y-22982D01*
X17525Y-22045D01*
X17525Y-21836D01*
X17519Y-21821D01*
X17519Y-20014D01*
X17508Y-19810D01*
X17452Y-19673D01*
X17361Y-19650D01*
X17290Y-19721D01*
X17290Y-19579D01*
X17268Y-19491D01*
X17268Y-18654D01*
X17256Y-18431D01*
X17192Y-18274D01*
X17096Y-18245D01*
X17025Y-18316D01*
X17025Y-18174D01*
X16996Y-18078D01*
X16784Y-18002D01*
X16561Y-18014D01*
X16404Y-18078D01*
X16375Y-18174D01*
X16700Y-18499D01*
X17025Y-18174D01*
X17025Y-18316D01*
X16771Y-18570D01*
X17096Y-18895D01*
X17192Y-18866D01*
X17268Y-18654D01*
X17268Y-19491D01*
X17267Y-19488D01*
X17074Y-19421D01*
X17025Y-19423D01*
X17025Y-18966D01*
X16700Y-18641D01*
X16629Y-18712D01*
X16629Y-18570D01*
X16304Y-18245D01*
X16208Y-18274D01*
X16132Y-18486D01*
X16144Y-18709D01*
X16208Y-18866D01*
X16304Y-18895D01*
X16629Y-18570D01*
X16629Y-18712D01*
X16375Y-18966D01*
X16404Y-19062D01*
X16616Y-19138D01*
X16839Y-19126D01*
X16996Y-19062D01*
X17025Y-18966D01*
X17025Y-19423D01*
X16870Y-19432D01*
X16733Y-19488D01*
X16710Y-19579D01*
X17000Y-19869D01*
X17290Y-19579D01*
X17290Y-19721D01*
X17071Y-19940D01*
X17361Y-20230D01*
X17452Y-20207D01*
X17519Y-20014D01*
X17519Y-21821D01*
X17445Y-21643D01*
X17298Y-21495D01*
X17290Y-21491D01*
X17290Y-20301D01*
X17000Y-20011D01*
X16929Y-20082D01*
X16929Y-19940D01*
X16639Y-19650D01*
X16548Y-19673D01*
X16481Y-19866D01*
X16492Y-20070D01*
X16548Y-20207D01*
X16639Y-20230D01*
X16929Y-19940D01*
X16929Y-20082D01*
X16710Y-20301D01*
X16733Y-20392D01*
X16926Y-20459D01*
X17130Y-20448D01*
X17267Y-20392D01*
X17290Y-20301D01*
X17290Y-21491D01*
X17105Y-21415D01*
X16896Y-21415D01*
X16703Y-21495D01*
X16555Y-21642D01*
X16475Y-21835D01*
X16475Y-22044D01*
X16555Y-22237D01*
X16702Y-22385D01*
X16895Y-22465D01*
X17104Y-22465D01*
X17297Y-22385D01*
X17445Y-22238D01*
X17525Y-22045D01*
X17525Y-22982D01*
X17376Y-22833D01*
X17165Y-22745D01*
X16936Y-22745D01*
X16725Y-22832D01*
X16563Y-22994D01*
X16475Y-23205D01*
X16475Y-23360D01*
X16275Y-23360D01*
X16275Y-20605D01*
X16275Y-20396D01*
X16195Y-20203D01*
X16048Y-20055D01*
X15855Y-19975D01*
X15646Y-19975D01*
X15453Y-20055D01*
X15305Y-20202D01*
X15225Y-20395D01*
X15225Y-20604D01*
X15305Y-20797D01*
X15452Y-20945D01*
X15645Y-21025D01*
X15854Y-21025D01*
X16047Y-20945D01*
X16195Y-20798D01*
X16275Y-20605D01*
X16275Y-23360D01*
X16019Y-23360D01*
X16004Y-23345D01*
X15919Y-23310D01*
X16004Y-23275D01*
X16158Y-23121D01*
X16242Y-22919D01*
X16242Y-22701D01*
X16158Y-22499D01*
X16004Y-22345D01*
X15919Y-22310D01*
X16004Y-22275D01*
X16158Y-22121D01*
X16242Y-21919D01*
X16242Y-21701D01*
X16158Y-21499D01*
X16004Y-21345D01*
X15802Y-21261D01*
X15584Y-21261D01*
X15278Y-21261D01*
X15076Y-21345D01*
X14950Y-21471D01*
X14950Y-20000D01*
X14916Y-19828D01*
X14916Y-19827D01*
X14818Y-19682D01*
X14318Y-19182D01*
X14173Y-19084D01*
X14025Y-19054D01*
X14025Y-16685D01*
X14025Y-16476D01*
X13945Y-16283D01*
X13798Y-16135D01*
X13605Y-16055D01*
X13396Y-16055D01*
X13242Y-16118D01*
X13242Y-14169D01*
X13242Y-13951D01*
X13239Y-13943D01*
X13239Y-12420D01*
X13239Y-12321D01*
X13239Y-11701D01*
X13201Y-11609D01*
X13131Y-11539D01*
X13040Y-11501D01*
X12941Y-11501D01*
X12041Y-11501D01*
X11949Y-11539D01*
X11879Y-11609D01*
X11853Y-11669D01*
X11854Y-11612D01*
X11854Y-11388D01*
X11853Y-11097D01*
X11815Y-11005D01*
X11745Y-10935D01*
X11654Y-10897D01*
X11555Y-10897D01*
X11362Y-10896D01*
X11300Y-10958D01*
X11300Y-11450D01*
X11792Y-11450D01*
X11854Y-11388D01*
X11854Y-11612D01*
X11792Y-11550D01*
X11300Y-11550D01*
X11300Y-12042D01*
X11362Y-12104D01*
X11555Y-12103D01*
X11654Y-12103D01*
X11745Y-12065D01*
X11815Y-11995D01*
X11841Y-11932D01*
X11841Y-12419D01*
X11879Y-12511D01*
X11949Y-12581D01*
X12040Y-12619D01*
X12071Y-12619D01*
X11990Y-12678D01*
X11875Y-12864D01*
X11858Y-12923D01*
X11905Y-13010D01*
X12440Y-13010D01*
X12490Y-13010D01*
X12590Y-13010D01*
X12640Y-13010D01*
X13175Y-13010D01*
X13222Y-12923D01*
X13205Y-12864D01*
X13090Y-12678D01*
X13008Y-12619D01*
X13039Y-12619D01*
X13131Y-12581D01*
X13201Y-12511D01*
X13239Y-12420D01*
X13239Y-13943D01*
X13158Y-13749D01*
X13004Y-13595D01*
X12924Y-13561D01*
X13090Y-13442D01*
X13205Y-13256D01*
X13222Y-13197D01*
X13175Y-13110D01*
X12640Y-13110D01*
X12590Y-13110D01*
X12490Y-13110D01*
X12440Y-13110D01*
X11905Y-13110D01*
X11858Y-13197D01*
X11875Y-13256D01*
X11990Y-13442D01*
X12155Y-13561D01*
X12076Y-13595D01*
X11922Y-13749D01*
X11838Y-13951D01*
X11838Y-14169D01*
X11922Y-14371D01*
X12076Y-14525D01*
X12155Y-14558D01*
X11990Y-14678D01*
X11875Y-14864D01*
X11858Y-14923D01*
X11905Y-15010D01*
X12440Y-15010D01*
X12490Y-15010D01*
X12590Y-15010D01*
X12640Y-15010D01*
X13175Y-15010D01*
X13222Y-14923D01*
X13205Y-14864D01*
X13090Y-14678D01*
X12924Y-14558D01*
X13004Y-14525D01*
X13158Y-14371D01*
X13242Y-14169D01*
X13242Y-16118D01*
X13222Y-16127D01*
X13222Y-15197D01*
X13175Y-15110D01*
X12590Y-15110D01*
X12590Y-15620D01*
X12700Y-15620D01*
X12913Y-15570D01*
X13090Y-15442D01*
X13205Y-15256D01*
X13222Y-15197D01*
X13222Y-16127D01*
X13203Y-16135D01*
X13055Y-16282D01*
X12975Y-16475D01*
X12975Y-16684D01*
X13055Y-16877D01*
X13202Y-17025D01*
X13395Y-17105D01*
X13604Y-17105D01*
X13797Y-17025D01*
X13945Y-16878D01*
X14025Y-16685D01*
X14025Y-19054D01*
X14000Y-19050D01*
X13450Y-19050D01*
X13278Y-19084D01*
X13229Y-19116D01*
X13131Y-19182D01*
X12863Y-19450D01*
X12743Y-19450D01*
X12743Y-18979D01*
X12732Y-18766D01*
X12672Y-18619D01*
X12578Y-18592D01*
X12508Y-18662D01*
X12508Y-18522D01*
X12490Y-18459D01*
X12490Y-15620D01*
X12490Y-15110D01*
X11905Y-15110D01*
X11858Y-15197D01*
X11875Y-15256D01*
X11990Y-15442D01*
X12167Y-15570D01*
X12380Y-15620D01*
X12490Y-15620D01*
X12490Y-18459D01*
X12481Y-18428D01*
X12279Y-18357D01*
X12066Y-18368D01*
X12019Y-18387D01*
X12019Y-16654D01*
X12008Y-16450D01*
X11952Y-16313D01*
X11861Y-16290D01*
X11571Y-16580D01*
X11861Y-16870D01*
X11952Y-16847D01*
X12019Y-16654D01*
X12019Y-18387D01*
X11919Y-18428D01*
X11892Y-18522D01*
X12200Y-18829D01*
X12508Y-18522D01*
X12508Y-18662D01*
X12271Y-18900D01*
X12578Y-19208D01*
X12672Y-19181D01*
X12743Y-18979D01*
X12743Y-19450D01*
X12702Y-19450D01*
X12641Y-19389D01*
X12550Y-19351D01*
X12487Y-19351D01*
X12508Y-19278D01*
X12200Y-18971D01*
X12129Y-19041D01*
X12129Y-18900D01*
X11822Y-18592D01*
X11790Y-18601D01*
X11790Y-16941D01*
X11500Y-16651D01*
X11429Y-16722D01*
X11429Y-16580D01*
X11139Y-16290D01*
X11048Y-16313D01*
X10981Y-16506D01*
X10992Y-16710D01*
X11048Y-16847D01*
X11139Y-16870D01*
X11429Y-16580D01*
X11429Y-16722D01*
X11210Y-16941D01*
X11233Y-17032D01*
X11426Y-17099D01*
X11630Y-17088D01*
X11767Y-17032D01*
X11790Y-16941D01*
X11790Y-18601D01*
X11728Y-18619D01*
X11657Y-18821D01*
X11668Y-19034D01*
X11728Y-19181D01*
X11822Y-19208D01*
X12129Y-18900D01*
X12129Y-19041D01*
X11892Y-19278D01*
X11912Y-19351D01*
X11851Y-19351D01*
X11759Y-19389D01*
X11689Y-19459D01*
X11651Y-19550D01*
X11651Y-19649D01*
X11651Y-20249D01*
X11689Y-20341D01*
X11759Y-20411D01*
X11850Y-20449D01*
X11949Y-20449D01*
X12549Y-20449D01*
X12641Y-20411D01*
X12702Y-20350D01*
X13050Y-20350D01*
X13222Y-20316D01*
X13223Y-20316D01*
X13271Y-20283D01*
X13225Y-20395D01*
X13225Y-20604D01*
X13305Y-20797D01*
X13452Y-20945D01*
X13645Y-21025D01*
X13854Y-21025D01*
X14047Y-20945D01*
X14050Y-20942D01*
X14050Y-23500D01*
X14084Y-23673D01*
X14182Y-23818D01*
X14492Y-24128D01*
X14637Y-24225D01*
X14638Y-24226D01*
X14810Y-24260D01*
X15061Y-24260D01*
X15076Y-24275D01*
X15160Y-24310D01*
X15076Y-24345D01*
X14922Y-24499D01*
X14838Y-24701D01*
X14838Y-24919D01*
X14922Y-25121D01*
X15076Y-25275D01*
X15278Y-25359D01*
X15496Y-25359D01*
X15802Y-25359D01*
X16004Y-25275D01*
X16158Y-25121D01*
X16242Y-24919D01*
X16242Y-24701D01*
X16158Y-24499D01*
X16004Y-24345D01*
X15919Y-24310D01*
X16004Y-24275D01*
X16019Y-24260D01*
X16373Y-24260D01*
X17681Y-25568D01*
X17682Y-25568D01*
X17779Y-25633D01*
X17827Y-25665D01*
X17828Y-25666D01*
X18000Y-25700D01*
X18500Y-25700D01*
X18672Y-25666D01*
X18673Y-25666D01*
X18818Y-25568D01*
X18956Y-25429D01*
X18985Y-25497D01*
X19132Y-25645D01*
X19325Y-25725D01*
X19534Y-25725D01*
X19727Y-25645D01*
X19875Y-25498D01*
X19952Y-25311D01*
X20032Y-25505D01*
X20194Y-25667D01*
X20405Y-25755D01*
X20634Y-25755D01*
X20845Y-25668D01*
X21007Y-25506D01*
X21095Y-25295D01*
X21095Y-25066D01*
X21047Y-24950D01*
X22992Y-24950D01*
X22945Y-25065D01*
X22945Y-25294D01*
X23032Y-25505D01*
X23194Y-25667D01*
X23405Y-25755D01*
X23634Y-25755D01*
X23845Y-25668D01*
X24007Y-25506D01*
X24095Y-25295D01*
X24095Y-25066D01*
X24043Y-24941D01*
X24172Y-24916D01*
X24173Y-24916D01*
X24318Y-24818D01*
X24374Y-24761D01*
X24431Y-24818D01*
X24432Y-24818D01*
X24529Y-24883D01*
X24577Y-24915D01*
X24578Y-24916D01*
X24750Y-24950D01*
X26020Y-24950D01*
X25965Y-25085D01*
X25965Y-25294D01*
X26045Y-25487D01*
X26192Y-25635D01*
X26385Y-25715D01*
X26594Y-25715D01*
X26787Y-25635D01*
X26935Y-25488D01*
X27015Y-25295D01*
X27015Y-25086D01*
X26958Y-24950D01*
X28000Y-24950D01*
X28022Y-24945D01*
X27965Y-25085D01*
X27965Y-25294D01*
X28045Y-25487D01*
X28192Y-25635D01*
X28385Y-25715D01*
X28594Y-25715D01*
X28787Y-25635D01*
X28935Y-25488D01*
X29015Y-25295D01*
X29015Y-25086D01*
X28935Y-24893D01*
X28788Y-24745D01*
X28595Y-24665D01*
X28471Y-24665D01*
X30608Y-22527D01*
X30618Y-22704D01*
X30678Y-22851D01*
X30772Y-22878D01*
X31044Y-22605D01*
X31079Y-22570D01*
X31150Y-22499D01*
X31221Y-22570D01*
X31256Y-22605D01*
X31528Y-22878D01*
X31622Y-22851D01*
X31693Y-22649D01*
X31682Y-22436D01*
X31622Y-22289D01*
X31583Y-22277D01*
X31616Y-22245D01*
X31571Y-22200D01*
X32000Y-22200D01*
X32172Y-22166D01*
X32173Y-22166D01*
X32318Y-22068D01*
X33568Y-20819D01*
X33568Y-20818D01*
X33569Y-20816D01*
X34018Y-20368D01*
X34818Y-19568D01*
X34836Y-19550D01*
X35214Y-19550D01*
X35382Y-19718D01*
X35527Y-19816D01*
X35700Y-19850D01*
X35872Y-19816D01*
X36018Y-19718D01*
X36116Y-19572D01*
X36150Y-19400D01*
X36116Y-19227D01*
X36018Y-19082D01*
X35986Y-19050D01*
X37041Y-19050D01*
X37041Y-19079D01*
X37041Y-19699D01*
X37079Y-19791D01*
X37149Y-19861D01*
X37240Y-19899D01*
X37271Y-19899D01*
X37190Y-19958D01*
X37075Y-20144D01*
X37058Y-20203D01*
X37105Y-20290D01*
X37640Y-20290D01*
X37690Y-20290D01*
X37790Y-20290D01*
X37840Y-20290D01*
X38375Y-20290D01*
X38422Y-20203D01*
X38405Y-20144D01*
X38290Y-19958D01*
X38208Y-19899D01*
X38239Y-19899D01*
X38331Y-19861D01*
X38401Y-19791D01*
X38439Y-19700D01*
X38439Y-19601D01*
X38439Y-19050D01*
X40113Y-19050D01*
X40038Y-19231D01*
X40038Y-19449D01*
X40122Y-19651D01*
X40276Y-19805D01*
X40360Y-19840D01*
X40276Y-19875D01*
X40122Y-20029D01*
X40038Y-20231D01*
X40038Y-20449D01*
X40122Y-20651D01*
X40276Y-20805D01*
X40360Y-20840D01*
X40276Y-20875D01*
X40122Y-21029D01*
X40038Y-21231D01*
X40038Y-21449D01*
X40122Y-21651D01*
X40276Y-21805D01*
X40360Y-21840D01*
X40276Y-21875D01*
X40122Y-22029D01*
X40038Y-22231D01*
X40038Y-22449D01*
X40122Y-22651D01*
X40276Y-22805D01*
X40360Y-22840D01*
X40276Y-22875D01*
X40122Y-23029D01*
X40038Y-23231D01*
X40038Y-23449D01*
X40122Y-23651D01*
X40276Y-23805D01*
X40360Y-23840D01*
X40276Y-23875D01*
X40122Y-24029D01*
X40038Y-24231D01*
X40038Y-24449D01*
X40122Y-24651D01*
X40276Y-24805D01*
X40360Y-24840D01*
X40276Y-24875D01*
X40122Y-25029D01*
X40038Y-25231D01*
X40038Y-25449D01*
X40122Y-25651D01*
X40276Y-25805D01*
X40478Y-25889D01*
X40696Y-25889D01*
X41002Y-25889D01*
X41204Y-25805D01*
X41358Y-25651D01*
X41442Y-25449D01*
X41442Y-25231D01*
X41358Y-25029D01*
X41204Y-24875D01*
X41119Y-24840D01*
X41204Y-24805D01*
X41358Y-24651D01*
X41442Y-24449D01*
X41442Y-24231D01*
X41358Y-24029D01*
X41204Y-23875D01*
X41119Y-23840D01*
X41204Y-23805D01*
X41358Y-23651D01*
X41442Y-23449D01*
X41442Y-23231D01*
X41358Y-23029D01*
X41204Y-22875D01*
X41119Y-22840D01*
X41204Y-22805D01*
X41358Y-22651D01*
X41442Y-22449D01*
X41442Y-22231D01*
X41358Y-22029D01*
X41204Y-21875D01*
X41119Y-21840D01*
X41204Y-21805D01*
X41358Y-21651D01*
X41442Y-21449D01*
X41442Y-21231D01*
X41358Y-21029D01*
X41204Y-20875D01*
X41119Y-20840D01*
X41204Y-20805D01*
X41358Y-20651D01*
X41442Y-20449D01*
X41442Y-20231D01*
X41358Y-20029D01*
X41204Y-19875D01*
X41119Y-19840D01*
X41204Y-19805D01*
X41358Y-19651D01*
X41442Y-19449D01*
X41442Y-19231D01*
X41366Y-19050D01*
X41508Y-19050D01*
X41465Y-19155D01*
X41465Y-19384D01*
X41552Y-19595D01*
X41714Y-19757D01*
X41925Y-19845D01*
X42154Y-19845D01*
X42365Y-19758D01*
X42527Y-19596D01*
X42615Y-19385D01*
X42615Y-19156D01*
X42571Y-19050D01*
X42913Y-19050D01*
X43181Y-19318D01*
X43182Y-19318D01*
X43183Y-19319D01*
X43451Y-19587D01*
X43451Y-19629D01*
X43535Y-19831D01*
X43675Y-19971D01*
X43651Y-19971D01*
X43559Y-20009D01*
X43489Y-20079D01*
X43451Y-20170D01*
X43451Y-20269D01*
X43451Y-20869D01*
X43489Y-20961D01*
X43559Y-21031D01*
X43650Y-21069D01*
X43749Y-21069D01*
X44295Y-21069D01*
X43682Y-21682D01*
X43584Y-21827D01*
X43550Y-22000D01*
X43550Y-22248D01*
X43489Y-22309D01*
X43451Y-22400D01*
X43451Y-22499D01*
X43451Y-23099D01*
X43489Y-23191D01*
X43559Y-23261D01*
X43650Y-23299D01*
X43712Y-23299D01*
X43692Y-23372D01*
X44000Y-23679D01*
X44308Y-23372D01*
X44287Y-23299D01*
X44349Y-23299D01*
X44441Y-23261D01*
X44511Y-23191D01*
X44549Y-23100D01*
X44549Y-23001D01*
X44549Y-22401D01*
X44511Y-22309D01*
X44450Y-22248D01*
X44450Y-22186D01*
X45318Y-21318D01*
X45416Y-21173D01*
X45416Y-21172D01*
X45450Y-21000D01*
X45450Y-25729D01*
X45437Y-25735D01*
X45404Y-25834D01*
X45715Y-26144D01*
X45750Y-26179D01*
X45821Y-26250D01*
X45750Y-26321D01*
X45679Y-26391D01*
X45679Y-26250D01*
X45334Y-25904D01*
X45235Y-25937D01*
X45154Y-26157D01*
X45164Y-26392D01*
X45235Y-26563D01*
X45334Y-26596D01*
X45679Y-26250D01*
X45679Y-26391D01*
X45404Y-26666D01*
X45437Y-26765D01*
X45657Y-26846D01*
X45892Y-26836D01*
X46063Y-26765D01*
X46078Y-26719D01*
X46096Y-26737D01*
X46113Y-26755D01*
X46166Y-26701D01*
X46185Y-26745D01*
X46255Y-26815D01*
X46346Y-26853D01*
X46445Y-26853D01*
X47153Y-26853D01*
X47245Y-26815D01*
X47315Y-26745D01*
X47353Y-26654D01*
X47353Y-26925D01*
X46096Y-26925D01*
X45103Y-26925D01*
X45103Y-26654D01*
X45103Y-26555D01*
X45103Y-25847D01*
X45065Y-25755D01*
X44995Y-25685D01*
X44904Y-25647D01*
X44805Y-25647D01*
X44543Y-25647D01*
X44543Y-23829D01*
X44532Y-23616D01*
X44472Y-23469D01*
X44378Y-23442D01*
X44071Y-23750D01*
X44378Y-24058D01*
X44472Y-24031D01*
X44543Y-23829D01*
X44543Y-25647D01*
X44308Y-25647D01*
X44308Y-24128D01*
X44000Y-23821D01*
X43929Y-23891D01*
X43929Y-23750D01*
X43622Y-23442D01*
X43528Y-23469D01*
X43457Y-23671D01*
X43468Y-23884D01*
X43528Y-24031D01*
X43622Y-24058D01*
X43929Y-23750D01*
X43929Y-23891D01*
X43692Y-24128D01*
X43719Y-24222D01*
X43921Y-24293D01*
X44134Y-24282D01*
X44281Y-24222D01*
X44308Y-24128D01*
X44308Y-25647D01*
X44097Y-25647D01*
X44005Y-25685D01*
X43935Y-25755D01*
X43912Y-25809D01*
X43842Y-25739D01*
X43621Y-25647D01*
X43381Y-25647D01*
X43159Y-25738D01*
X42989Y-25908D01*
X42897Y-26129D01*
X42897Y-26369D01*
X42988Y-26591D01*
X43158Y-26761D01*
X43379Y-26853D01*
X43619Y-26853D01*
X43841Y-26762D01*
X43912Y-26690D01*
X43935Y-26745D01*
X44005Y-26815D01*
X44096Y-26853D01*
X44195Y-26853D01*
X44903Y-26853D01*
X44995Y-26815D01*
X45065Y-26745D01*
X45103Y-26654D01*
X45103Y-26925D01*
X42178Y-26925D01*
X42365Y-26848D01*
X42527Y-26686D01*
X42615Y-26475D01*
X42615Y-26246D01*
X42615Y-23475D01*
X42615Y-23246D01*
X42528Y-23035D01*
X42366Y-22873D01*
X42226Y-22814D01*
X42365Y-22758D01*
X42527Y-22596D01*
X42615Y-22385D01*
X42615Y-22156D01*
X42528Y-21945D01*
X42366Y-21783D01*
X42155Y-21695D01*
X41926Y-21695D01*
X41715Y-21782D01*
X41553Y-21944D01*
X41465Y-22155D01*
X41465Y-22384D01*
X41552Y-22595D01*
X41714Y-22757D01*
X41853Y-22815D01*
X41715Y-22872D01*
X41553Y-23034D01*
X41465Y-23245D01*
X41465Y-23474D01*
X41552Y-23685D01*
X41714Y-23847D01*
X41925Y-23935D01*
X42154Y-23935D01*
X42365Y-23848D01*
X42527Y-23686D01*
X42615Y-23475D01*
X42615Y-26246D01*
X42528Y-26035D01*
X42366Y-25873D01*
X42155Y-25785D01*
X41926Y-25785D01*
X41715Y-25872D01*
X41553Y-26034D01*
X41465Y-26245D01*
X41465Y-26298D01*
X41463Y-26300D01*
X39686Y-26300D01*
X39068Y-25682D01*
X38923Y-25584D01*
X38750Y-25550D01*
X38396Y-25550D01*
X38405Y-25536D01*
X38422Y-25477D01*
X38375Y-25390D01*
X37840Y-25390D01*
X37790Y-25390D01*
X37690Y-25390D01*
X37690Y-25290D01*
X37790Y-25290D01*
X37840Y-25290D01*
X38375Y-25290D01*
X38422Y-25203D01*
X38405Y-25144D01*
X38290Y-24958D01*
X38124Y-24838D01*
X38204Y-24805D01*
X38358Y-24651D01*
X38442Y-24449D01*
X38442Y-24231D01*
X38358Y-24029D01*
X38204Y-23875D01*
X38119Y-23840D01*
X38204Y-23805D01*
X38358Y-23651D01*
X38442Y-23449D01*
X38442Y-23231D01*
X38358Y-23029D01*
X38204Y-22875D01*
X38119Y-22840D01*
X38204Y-22805D01*
X38358Y-22651D01*
X38442Y-22449D01*
X38442Y-22231D01*
X38358Y-22029D01*
X38204Y-21875D01*
X38119Y-21840D01*
X38204Y-21805D01*
X38358Y-21651D01*
X38442Y-21449D01*
X38442Y-21231D01*
X38358Y-21029D01*
X38204Y-20875D01*
X38124Y-20841D01*
X38290Y-20722D01*
X38405Y-20536D01*
X38422Y-20477D01*
X38375Y-20390D01*
X37840Y-20390D01*
X37790Y-20390D01*
X37690Y-20390D01*
X37640Y-20390D01*
X37105Y-20390D01*
X37058Y-20477D01*
X37075Y-20536D01*
X37190Y-20722D01*
X37355Y-20841D01*
X37276Y-20875D01*
X37122Y-21029D01*
X37038Y-21231D01*
X37038Y-21449D01*
X37122Y-21651D01*
X37276Y-21805D01*
X37360Y-21840D01*
X37276Y-21875D01*
X37122Y-22029D01*
X37089Y-22108D01*
X37089Y-21854D01*
X37078Y-21650D01*
X37022Y-21513D01*
X36931Y-21490D01*
X36860Y-21561D01*
X36860Y-21419D01*
X36837Y-21328D01*
X36644Y-21261D01*
X36440Y-21272D01*
X36303Y-21328D01*
X36280Y-21419D01*
X36570Y-21709D01*
X36860Y-21419D01*
X36860Y-21561D01*
X36641Y-21780D01*
X36931Y-22070D01*
X37022Y-22047D01*
X37089Y-21854D01*
X37089Y-22108D01*
X37038Y-22231D01*
X37038Y-22449D01*
X37122Y-22651D01*
X37276Y-22805D01*
X37360Y-22840D01*
X37276Y-22875D01*
X37122Y-23029D01*
X37069Y-23156D01*
X37138Y-22964D01*
X37126Y-22741D01*
X37062Y-22584D01*
X36966Y-22555D01*
X36895Y-22626D01*
X36895Y-22484D01*
X36866Y-22388D01*
X36860Y-22385D01*
X36860Y-22141D01*
X36570Y-21851D01*
X36499Y-21922D01*
X36499Y-21780D01*
X36209Y-21490D01*
X36118Y-21513D01*
X36051Y-21706D01*
X36062Y-21910D01*
X36118Y-22047D01*
X36209Y-22070D01*
X36499Y-21780D01*
X36499Y-21922D01*
X36280Y-22141D01*
X36303Y-22232D01*
X36496Y-22299D01*
X36700Y-22288D01*
X36837Y-22232D01*
X36860Y-22141D01*
X36860Y-22385D01*
X36654Y-22312D01*
X36431Y-22324D01*
X36274Y-22388D01*
X36245Y-22484D01*
X36570Y-22809D01*
X36895Y-22484D01*
X36895Y-22626D01*
X36641Y-22880D01*
X36966Y-23205D01*
X37060Y-23176D01*
X37038Y-23231D01*
X37038Y-23449D01*
X37122Y-23651D01*
X37276Y-23805D01*
X37360Y-23840D01*
X37276Y-23875D01*
X37122Y-24029D01*
X37038Y-24231D01*
X37038Y-24449D01*
X37122Y-24651D01*
X37276Y-24805D01*
X37355Y-24838D01*
X37190Y-24958D01*
X37130Y-25053D01*
X37078Y-24925D01*
X36916Y-24763D01*
X36895Y-24754D01*
X36895Y-23276D01*
X36570Y-22951D01*
X36499Y-23022D01*
X36499Y-22880D01*
X36174Y-22555D01*
X36078Y-22584D01*
X36002Y-22796D01*
X36014Y-23019D01*
X36078Y-23176D01*
X36174Y-23205D01*
X36499Y-22880D01*
X36499Y-23022D01*
X36245Y-23276D01*
X36274Y-23372D01*
X36486Y-23448D01*
X36709Y-23436D01*
X36866Y-23372D01*
X36895Y-23276D01*
X36895Y-24754D01*
X36705Y-24675D01*
X36476Y-24675D01*
X36265Y-24762D01*
X36145Y-24882D01*
X36145Y-24165D01*
X36145Y-23956D01*
X36065Y-23763D01*
X35918Y-23615D01*
X35725Y-23535D01*
X35516Y-23535D01*
X35323Y-23615D01*
X35175Y-23762D01*
X35095Y-23955D01*
X35095Y-24164D01*
X35175Y-24357D01*
X35322Y-24505D01*
X35515Y-24585D01*
X35724Y-24585D01*
X35917Y-24505D01*
X36065Y-24358D01*
X36145Y-24165D01*
X36145Y-24882D01*
X36103Y-24924D01*
X36015Y-25135D01*
X36015Y-25364D01*
X36091Y-25550D01*
X34750Y-25550D01*
X34578Y-25584D01*
X34529Y-25616D01*
X34431Y-25682D01*
X34165Y-25948D01*
X34165Y-25365D01*
X34165Y-25136D01*
X34078Y-24925D01*
X33916Y-24763D01*
X33705Y-24675D01*
X33476Y-24675D01*
X33265Y-24762D01*
X33103Y-24924D01*
X33015Y-25135D01*
X33015Y-25364D01*
X33102Y-25575D01*
X33264Y-25737D01*
X33475Y-25825D01*
X33704Y-25825D01*
X33915Y-25738D01*
X34077Y-25576D01*
X34165Y-25365D01*
X34165Y-25948D01*
X33883Y-26230D01*
X33845Y-26230D01*
X33665Y-26155D01*
X33456Y-26155D01*
X33263Y-26235D01*
X33115Y-26382D01*
X33035Y-26575D01*
X33035Y-26784D01*
X33093Y-26925D01*
X31974Y-26925D01*
X31974Y-26846D01*
X31974Y-26296D01*
X31936Y-26204D01*
X31866Y-26134D01*
X31775Y-26096D01*
X31676Y-26096D01*
X31672Y-26096D01*
X31747Y-26065D01*
X31895Y-25918D01*
X31975Y-25725D01*
X31975Y-25516D01*
X31900Y-25335D01*
X31900Y-25186D01*
X33095Y-23991D01*
X33095Y-24164D01*
X33175Y-24357D01*
X33322Y-24505D01*
X33515Y-24585D01*
X33724Y-24585D01*
X33917Y-24505D01*
X34065Y-24358D01*
X34145Y-24165D01*
X34145Y-23956D01*
X34065Y-23763D01*
X33918Y-23615D01*
X33725Y-23535D01*
X33551Y-23535D01*
X33631Y-23455D01*
X33684Y-23455D01*
X33895Y-23368D01*
X34057Y-23206D01*
X34145Y-22995D01*
X34145Y-22766D01*
X34094Y-22642D01*
X34094Y-22105D01*
X34094Y-22006D01*
X34094Y-21456D01*
X34056Y-21364D01*
X33986Y-21294D01*
X33895Y-21256D01*
X33796Y-21256D01*
X33246Y-21256D01*
X33154Y-21294D01*
X33084Y-21364D01*
X33046Y-21455D01*
X33046Y-21554D01*
X33046Y-22104D01*
X33084Y-22196D01*
X33154Y-22266D01*
X33245Y-22304D01*
X33344Y-22304D01*
X33894Y-22304D01*
X33986Y-22266D01*
X34056Y-22196D01*
X34094Y-22105D01*
X34094Y-22642D01*
X34058Y-22555D01*
X33896Y-22393D01*
X33685Y-22305D01*
X33456Y-22305D01*
X33245Y-22392D01*
X33083Y-22554D01*
X32995Y-22765D01*
X32995Y-22819D01*
X31699Y-24115D01*
X31699Y-23920D01*
X31699Y-23821D01*
X31699Y-23221D01*
X31693Y-23206D01*
X31661Y-23129D01*
X31591Y-23059D01*
X31500Y-23021D01*
X31437Y-23021D01*
X31458Y-22948D01*
X31150Y-22641D01*
X30842Y-22948D01*
X30862Y-23021D01*
X30801Y-23021D01*
X30709Y-23059D01*
X30639Y-23129D01*
X30601Y-23220D01*
X30601Y-23319D01*
X30601Y-23919D01*
X30639Y-24011D01*
X30709Y-24081D01*
X30800Y-24119D01*
X30899Y-24119D01*
X31499Y-24119D01*
X31591Y-24081D01*
X31661Y-24011D01*
X31699Y-23920D01*
X31699Y-24115D01*
X31132Y-24682D01*
X31034Y-24827D01*
X31000Y-25000D01*
X31000Y-25334D01*
X30946Y-25462D01*
X30902Y-25353D01*
X30811Y-25330D01*
X30740Y-25401D01*
X30740Y-25259D01*
X30717Y-25168D01*
X30524Y-25101D01*
X30320Y-25112D01*
X30183Y-25168D01*
X30160Y-25259D01*
X30450Y-25549D01*
X30740Y-25259D01*
X30740Y-25401D01*
X30521Y-25620D01*
X30811Y-25910D01*
X30902Y-25887D01*
X30943Y-25768D01*
X31005Y-25917D01*
X31152Y-26065D01*
X31226Y-26096D01*
X31126Y-26096D01*
X31034Y-26134D01*
X30964Y-26204D01*
X30926Y-26295D01*
X30926Y-26394D01*
X30926Y-26925D01*
X30740Y-26925D01*
X30740Y-25981D01*
X30450Y-25691D01*
X30379Y-25762D01*
X30379Y-25620D01*
X30089Y-25330D01*
X29998Y-25353D01*
X29931Y-25546D01*
X29942Y-25750D01*
X29998Y-25887D01*
X30089Y-25910D01*
X30379Y-25620D01*
X30379Y-25762D01*
X30160Y-25981D01*
X30183Y-26072D01*
X30376Y-26139D01*
X30580Y-26128D01*
X30717Y-26072D01*
X30740Y-25981D01*
X30740Y-26925D01*
X29105Y-26925D01*
X29105Y-26425D01*
X29105Y-26196D01*
X29018Y-25985D01*
X28856Y-25823D01*
X28645Y-25735D01*
X28416Y-25735D01*
X28205Y-25822D01*
X28043Y-25984D01*
X27955Y-26195D01*
X27955Y-26424D01*
X28042Y-26635D01*
X28204Y-26797D01*
X28415Y-26885D01*
X28644Y-26885D01*
X28855Y-26798D01*
X29017Y-26636D01*
X29105Y-26425D01*
X29105Y-26925D01*
X26105Y-26925D01*
X26105Y-26425D01*
X26105Y-26196D01*
X26018Y-25985D01*
X25856Y-25823D01*
X25645Y-25735D01*
X25416Y-25735D01*
X25205Y-25822D01*
X25043Y-25984D01*
X24955Y-26195D01*
X24955Y-26424D01*
X25042Y-26635D01*
X25204Y-26797D01*
X25415Y-26885D01*
X25644Y-26885D01*
X25855Y-26798D01*
X26017Y-26636D01*
X26105Y-26425D01*
X26105Y-26925D01*
X22005Y-26925D01*
X22005Y-26435D01*
X22005Y-26226D01*
X21925Y-26033D01*
X21778Y-25885D01*
X21585Y-25805D01*
X21376Y-25805D01*
X21183Y-25885D01*
X21035Y-26032D01*
X20955Y-26225D01*
X20955Y-26434D01*
X21035Y-26627D01*
X21182Y-26775D01*
X21375Y-26855D01*
X21584Y-26855D01*
X21777Y-26775D01*
X21925Y-26628D01*
X22005Y-26435D01*
X22005Y-26925D01*
X20005Y-26925D01*
X20005Y-26435D01*
X20005Y-26226D01*
X19925Y-26033D01*
X19778Y-25885D01*
X19585Y-25805D01*
X19376Y-25805D01*
X19183Y-25885D01*
X19035Y-26032D01*
X18955Y-26225D01*
X18955Y-26434D01*
X19035Y-26627D01*
X19182Y-26775D01*
X19375Y-26855D01*
X19584Y-26855D01*
X19777Y-26775D01*
X19925Y-26628D01*
X20005Y-26435D01*
X20005Y-26925D01*
X18775Y-26925D01*
X18775Y-26425D01*
X18775Y-26216D01*
X18695Y-26023D01*
X18548Y-25875D01*
X18355Y-25795D01*
X18146Y-25795D01*
X17953Y-25875D01*
X17805Y-26022D01*
X17725Y-26215D01*
X17725Y-26424D01*
X17805Y-26617D01*
X17952Y-26765D01*
X18145Y-26845D01*
X18354Y-26845D01*
X18547Y-26765D01*
X18695Y-26618D01*
X18775Y-26425D01*
X18775Y-26925D01*
X17625Y-26925D01*
X17625Y-26435D01*
X17625Y-26206D01*
X17538Y-25995D01*
X17376Y-25833D01*
X17165Y-25745D01*
X16936Y-25745D01*
X16725Y-25832D01*
X16563Y-25994D01*
X16475Y-26205D01*
X16475Y-26434D01*
X16562Y-26645D01*
X16724Y-26807D01*
X16935Y-26895D01*
X17164Y-26895D01*
X17375Y-26808D01*
X17537Y-26646D01*
X17625Y-26435D01*
X17625Y-26925D01*
X14025Y-26925D01*
X14025Y-26435D01*
X14025Y-26226D01*
X13945Y-26033D01*
X13798Y-25885D01*
X13605Y-25805D01*
X13396Y-25805D01*
X13242Y-25868D01*
X13242Y-23919D01*
X13242Y-23701D01*
X13239Y-23693D01*
X13239Y-22170D01*
X13239Y-22071D01*
X13239Y-21451D01*
X13201Y-21359D01*
X13131Y-21289D01*
X13040Y-21251D01*
X12941Y-21251D01*
X12041Y-21251D01*
X11949Y-21289D01*
X11879Y-21359D01*
X11853Y-21419D01*
X11854Y-21362D01*
X11854Y-21138D01*
X11853Y-20847D01*
X11815Y-20755D01*
X11745Y-20685D01*
X11654Y-20647D01*
X11555Y-20647D01*
X11362Y-20646D01*
X11300Y-20708D01*
X11300Y-21200D01*
X11792Y-21200D01*
X11854Y-21138D01*
X11854Y-21362D01*
X11792Y-21300D01*
X11300Y-21300D01*
X11300Y-21792D01*
X11362Y-21854D01*
X11555Y-21853D01*
X11654Y-21853D01*
X11745Y-21815D01*
X11815Y-21745D01*
X11841Y-21682D01*
X11841Y-22169D01*
X11879Y-22261D01*
X11949Y-22331D01*
X12040Y-22369D01*
X12071Y-22369D01*
X11990Y-22428D01*
X11875Y-22614D01*
X11858Y-22673D01*
X11905Y-22760D01*
X12440Y-22760D01*
X12490Y-22760D01*
X12590Y-22760D01*
X12640Y-22760D01*
X13175Y-22760D01*
X13222Y-22673D01*
X13205Y-22614D01*
X13090Y-22428D01*
X13008Y-22369D01*
X13039Y-22369D01*
X13131Y-22331D01*
X13201Y-22261D01*
X13239Y-22170D01*
X13239Y-23693D01*
X13158Y-23499D01*
X13004Y-23345D01*
X12924Y-23311D01*
X13090Y-23192D01*
X13205Y-23006D01*
X13222Y-22947D01*
X13175Y-22860D01*
X12640Y-22860D01*
X12590Y-22860D01*
X12490Y-22860D01*
X12440Y-22860D01*
X11905Y-22860D01*
X11858Y-22947D01*
X11875Y-23006D01*
X11990Y-23192D01*
X12155Y-23311D01*
X12076Y-23345D01*
X11922Y-23499D01*
X11838Y-23701D01*
X11838Y-23919D01*
X11922Y-24121D01*
X12076Y-24275D01*
X12155Y-24308D01*
X11990Y-24428D01*
X11875Y-24614D01*
X11858Y-24673D01*
X11905Y-24760D01*
X12440Y-24760D01*
X12490Y-24760D01*
X12590Y-24760D01*
X12640Y-24760D01*
X13175Y-24760D01*
X13222Y-24673D01*
X13205Y-24614D01*
X13090Y-24428D01*
X12924Y-24308D01*
X13004Y-24275D01*
X13158Y-24121D01*
X13242Y-23919D01*
X13242Y-25868D01*
X13222Y-25877D01*
X13222Y-24947D01*
X13175Y-24860D01*
X12590Y-24860D01*
X12590Y-25370D01*
X12700Y-25370D01*
X12913Y-25320D01*
X13090Y-25192D01*
X13205Y-25006D01*
X13222Y-24947D01*
X13222Y-25877D01*
X13203Y-25885D01*
X13055Y-26032D01*
X12975Y-26225D01*
X12975Y-26434D01*
X13055Y-26627D01*
X13202Y-26775D01*
X13395Y-26855D01*
X13604Y-26855D01*
X13797Y-26775D01*
X13945Y-26628D01*
X14025Y-26435D01*
X14025Y-26925D01*
X12490Y-26925D01*
X12490Y-25370D01*
X12490Y-24860D01*
X11905Y-24860D01*
X11858Y-24947D01*
X11875Y-25006D01*
X11990Y-25192D01*
X12167Y-25320D01*
X12380Y-25370D01*
X12490Y-25370D01*
X12490Y-26925D01*
X12019Y-26925D01*
X12019Y-26404D01*
X12008Y-26200D01*
X11952Y-26063D01*
X11861Y-26040D01*
X11571Y-26330D01*
X11861Y-26620D01*
X11952Y-26597D01*
X12019Y-26404D01*
X12019Y-26925D01*
X11790Y-26925D01*
X11790Y-26691D01*
X11500Y-26401D01*
X11429Y-26472D01*
X11429Y-26330D01*
X11139Y-26040D01*
X11048Y-26063D01*
X10981Y-26256D01*
X10992Y-26460D01*
X11048Y-26597D01*
X11139Y-26620D01*
X11429Y-26330D01*
X11429Y-26472D01*
X11210Y-26691D01*
X11233Y-26782D01*
X11426Y-26849D01*
X11630Y-26838D01*
X11767Y-26782D01*
X11790Y-26691D01*
X11790Y-26925D01*
X10825Y-26925D01*
X10825Y-25678D01*
X10908Y-25761D01*
X11129Y-25853D01*
X11294Y-25853D01*
X11233Y-25878D01*
X11210Y-25969D01*
X11500Y-26259D01*
X11790Y-25969D01*
X11767Y-25878D01*
X11574Y-25811D01*
X11455Y-25817D01*
X11591Y-25762D01*
X11761Y-25592D01*
X11853Y-25371D01*
X11853Y-25131D01*
X11762Y-24909D01*
X11592Y-24739D01*
X11371Y-24647D01*
X11131Y-24647D01*
X10909Y-24738D01*
X10825Y-24822D01*
X10825Y-21844D01*
X10846Y-21853D01*
X10945Y-21853D01*
X11138Y-21854D01*
X11200Y-21792D01*
X11200Y-21350D01*
X11200Y-21300D01*
X11200Y-21200D01*
X11200Y-21150D01*
X11200Y-20708D01*
X11138Y-20646D01*
X10945Y-20647D01*
X10846Y-20647D01*
X10825Y-20655D01*
X10825Y-15928D01*
X10908Y-16011D01*
X11129Y-16103D01*
X11294Y-16103D01*
X11233Y-16128D01*
X11210Y-16219D01*
X11500Y-16509D01*
X11790Y-16219D01*
X11767Y-16128D01*
X11574Y-16061D01*
X11455Y-16067D01*
X11591Y-16012D01*
X11761Y-15842D01*
X11853Y-15621D01*
X11853Y-15381D01*
X11762Y-15159D01*
X11592Y-14989D01*
X11371Y-14897D01*
X11131Y-14897D01*
X10909Y-14988D01*
X10825Y-15072D01*
X10825Y-12094D01*
X10846Y-12103D01*
X10945Y-12103D01*
X11138Y-12104D01*
X11200Y-12042D01*
X11200Y-11600D01*
X11200Y-11550D01*
X11200Y-11450D01*
X11200Y-11400D01*
X11200Y-10958D01*
X11138Y-10896D01*
X10945Y-10897D01*
X10846Y-10897D01*
X10825Y-10905D01*
X10825Y-08575D01*
X16189Y-08575D01*
X16132Y-08736D01*
X16144Y-08959D01*
X16208Y-09116D01*
X16304Y-09145D01*
X16594Y-08855D01*
X16629Y-08820D01*
X16700Y-08749D01*
X16771Y-08820D01*
X16806Y-08855D01*
X17096Y-09145D01*
X17192Y-09116D01*
X17268Y-08904D01*
X17256Y-08681D01*
X17212Y-08575D01*
X19179Y-08575D01*
X19125Y-08705D01*
X19125Y-08934D01*
X19212Y-09145D01*
X19374Y-09307D01*
X19585Y-09395D01*
X19814Y-09395D01*
X20025Y-09308D01*
X20187Y-09146D01*
X20275Y-08935D01*
X20275Y-08706D01*
X20220Y-08575D01*
X21343Y-08575D01*
X21285Y-08715D01*
X21285Y-08924D01*
X21365Y-09117D01*
X21512Y-09265D01*
X21705Y-09345D01*
X21914Y-09345D01*
X22107Y-09265D01*
X22255Y-09118D01*
X22335Y-08925D01*
X22335Y-08716D01*
X22276Y-08575D01*
X23343Y-08575D01*
X23285Y-08715D01*
X23285Y-08924D01*
X23365Y-09117D01*
X23512Y-09265D01*
X23705Y-09345D01*
X23914Y-09345D01*
X24107Y-09265D01*
X24255Y-09118D01*
X24335Y-08925D01*
X24335Y-08716D01*
X24276Y-08575D01*
X25233Y-08575D01*
X25175Y-08715D01*
X25175Y-08924D01*
X25255Y-09117D01*
X25402Y-09265D01*
X25595Y-09345D01*
X25804Y-09345D01*
X25997Y-09265D01*
X26145Y-09118D01*
X26225Y-08925D01*
X26225Y-08716D01*
X26166Y-08575D01*
X27233Y-08575D01*
X27175Y-08715D01*
X27175Y-08924D01*
X27255Y-09117D01*
X27402Y-09265D01*
X27595Y-09345D01*
X27804Y-09345D01*
X27997Y-09265D01*
X28145Y-09118D01*
X28225Y-08925D01*
X28225Y-08716D01*
X28166Y-08575D01*
X33838Y-08575D01*
X33049Y-09364D01*
X33049Y-09241D01*
X32950Y-09002D01*
X32768Y-08820D01*
X32529Y-08721D01*
X32271Y-08721D01*
X32032Y-08820D01*
X31850Y-09002D01*
X31751Y-09241D01*
X31751Y-09499D01*
X31850Y-09738D01*
X32032Y-09920D01*
X32271Y-10019D01*
X32394Y-10019D01*
X32049Y-10364D01*
X32049Y-10241D01*
X31950Y-10002D01*
X31768Y-09820D01*
X31529Y-09721D01*
X31271Y-09721D01*
X31049Y-09812D01*
X31049Y-09499D01*
X31049Y-09241D01*
X30950Y-09002D01*
X30768Y-08820D01*
X30529Y-08721D01*
X30271Y-08721D01*
X30032Y-08820D01*
X29850Y-09002D01*
X29751Y-09241D01*
X29751Y-09499D01*
X29850Y-09738D01*
X30032Y-09920D01*
X30271Y-10019D01*
X30529Y-10019D01*
X30768Y-09920D01*
X30950Y-09738D01*
X31049Y-09499D01*
X31049Y-09812D01*
X31032Y-09820D01*
X30850Y-10002D01*
X30751Y-10241D01*
X30751Y-10499D01*
X30850Y-10738D01*
X30912Y-10800D01*
X30750Y-10800D01*
X30500Y-10800D01*
X30355Y-10828D01*
X30327Y-10834D01*
X30182Y-10932D01*
X28814Y-12300D01*
X28745Y-12300D01*
X28745Y-10005D01*
X28745Y-09776D01*
X28658Y-09565D01*
X28496Y-09403D01*
X28285Y-09315D01*
X28056Y-09315D01*
X27845Y-09402D01*
X27683Y-09564D01*
X27595Y-09775D01*
X27595Y-10004D01*
X27682Y-10215D01*
X27844Y-10377D01*
X28055Y-10465D01*
X28284Y-10465D01*
X28495Y-10378D01*
X28657Y-10216D01*
X28745Y-10005D01*
X28745Y-12300D01*
X27979Y-12300D01*
X27979Y-11252D01*
X27979Y-11034D01*
X27979Y-10728D01*
X27895Y-10526D01*
X27741Y-10372D01*
X27539Y-10288D01*
X27321Y-10288D01*
X27119Y-10372D01*
X26965Y-10526D01*
X26930Y-10610D01*
X26895Y-10526D01*
X26741Y-10372D01*
X26539Y-10288D01*
X26321Y-10288D01*
X26119Y-10372D01*
X25965Y-10526D01*
X25930Y-10610D01*
X25895Y-10526D01*
X25741Y-10372D01*
X25571Y-10301D01*
X25657Y-10216D01*
X25745Y-10005D01*
X25745Y-09776D01*
X25658Y-09565D01*
X25496Y-09403D01*
X25285Y-09315D01*
X25056Y-09315D01*
X24845Y-09402D01*
X24683Y-09564D01*
X24595Y-09775D01*
X24595Y-10004D01*
X24682Y-10215D01*
X24844Y-10377D01*
X25034Y-10456D01*
X24965Y-10526D01*
X24931Y-10605D01*
X24812Y-10440D01*
X24626Y-10325D01*
X24567Y-10308D01*
X24480Y-10355D01*
X24480Y-10890D01*
X24480Y-10940D01*
X24480Y-11040D01*
X24480Y-11090D01*
X24480Y-11625D01*
X24567Y-11672D01*
X24626Y-11655D01*
X24812Y-11540D01*
X24931Y-11374D01*
X24965Y-11454D01*
X25119Y-11608D01*
X25321Y-11692D01*
X25539Y-11692D01*
X25741Y-11608D01*
X25895Y-11454D01*
X25930Y-11369D01*
X25965Y-11454D01*
X26119Y-11608D01*
X26321Y-11692D01*
X26539Y-11692D01*
X26741Y-11608D01*
X26895Y-11454D01*
X26930Y-11369D01*
X26965Y-11454D01*
X27119Y-11608D01*
X27321Y-11692D01*
X27539Y-11692D01*
X27741Y-11608D01*
X27895Y-11454D01*
X27979Y-11252D01*
X27979Y-12300D01*
X27750Y-12300D01*
X24380Y-12300D01*
X24380Y-11625D01*
X24380Y-11090D01*
X24380Y-11040D01*
X24380Y-10940D01*
X24380Y-10890D01*
X24380Y-10355D01*
X24293Y-10308D01*
X24234Y-10325D01*
X24048Y-10440D01*
X23928Y-10605D01*
X23895Y-10526D01*
X23784Y-10415D01*
X23934Y-10415D01*
X24127Y-10335D01*
X24275Y-10188D01*
X24355Y-09995D01*
X24355Y-09786D01*
X24275Y-09593D01*
X24128Y-09445D01*
X23935Y-09365D01*
X23726Y-09365D01*
X23533Y-09445D01*
X23385Y-09592D01*
X23305Y-09785D01*
X23305Y-09994D01*
X23385Y-10187D01*
X23485Y-10288D01*
X23321Y-10288D01*
X23119Y-10372D01*
X22965Y-10526D01*
X22930Y-10610D01*
X22895Y-10526D01*
X22741Y-10372D01*
X22539Y-10288D01*
X22321Y-10288D01*
X22119Y-10372D01*
X21965Y-10526D01*
X21930Y-10610D01*
X21895Y-10526D01*
X21784Y-10415D01*
X21934Y-10415D01*
X22127Y-10335D01*
X22275Y-10188D01*
X22355Y-09995D01*
X22355Y-09786D01*
X22275Y-09593D01*
X22128Y-09445D01*
X21935Y-09365D01*
X21726Y-09365D01*
X21533Y-09445D01*
X21385Y-09592D01*
X21305Y-09785D01*
X21305Y-09994D01*
X21385Y-10187D01*
X21485Y-10288D01*
X21321Y-10288D01*
X21119Y-10372D01*
X20965Y-10526D01*
X20881Y-10728D01*
X20881Y-10946D01*
X20881Y-11252D01*
X20965Y-11454D01*
X21119Y-11608D01*
X21321Y-11692D01*
X21539Y-11692D01*
X21741Y-11608D01*
X21895Y-11454D01*
X21930Y-11369D01*
X21965Y-11454D01*
X22119Y-11608D01*
X22321Y-11692D01*
X22539Y-11692D01*
X22741Y-11608D01*
X22895Y-11454D01*
X22930Y-11369D01*
X22965Y-11454D01*
X23119Y-11608D01*
X23321Y-11692D01*
X23539Y-11692D01*
X23741Y-11608D01*
X23895Y-11454D01*
X23928Y-11374D01*
X24048Y-11540D01*
X24234Y-11655D01*
X24293Y-11672D01*
X24380Y-11625D01*
X24380Y-12300D01*
X24250Y-12300D01*
X23500Y-12300D01*
X23328Y-12334D01*
X23182Y-12432D01*
X23084Y-12578D01*
X23050Y-12750D01*
X23084Y-12922D01*
X23182Y-13068D01*
X23328Y-13166D01*
X23500Y-13200D01*
X24250Y-13200D01*
X27750Y-13200D01*
X28914Y-13200D01*
X27979Y-14135D01*
X27979Y-14034D01*
X27979Y-13728D01*
X27895Y-13526D01*
X27741Y-13372D01*
X27539Y-13288D01*
X27321Y-13288D01*
X27119Y-13372D01*
X26965Y-13526D01*
X26930Y-13610D01*
X26895Y-13526D01*
X26741Y-13372D01*
X26539Y-13288D01*
X26321Y-13288D01*
X26119Y-13372D01*
X25965Y-13526D01*
X25930Y-13610D01*
X25895Y-13526D01*
X25741Y-13372D01*
X25539Y-13288D01*
X25321Y-13288D01*
X25119Y-13372D01*
X24965Y-13526D01*
X24930Y-13610D01*
X24895Y-13526D01*
X24741Y-13372D01*
X24539Y-13288D01*
X24321Y-13288D01*
X24119Y-13372D01*
X23965Y-13526D01*
X23930Y-13610D01*
X23895Y-13526D01*
X23741Y-13372D01*
X23539Y-13288D01*
X23321Y-13288D01*
X23119Y-13372D01*
X22965Y-13526D01*
X22930Y-13610D01*
X22895Y-13526D01*
X22741Y-13372D01*
X22539Y-13288D01*
X22321Y-13288D01*
X22119Y-13372D01*
X21989Y-13502D01*
X21989Y-13491D01*
X21951Y-13399D01*
X21881Y-13329D01*
X21790Y-13291D01*
X21691Y-13291D01*
X21071Y-13291D01*
X20979Y-13329D01*
X20909Y-13399D01*
X20871Y-13490D01*
X20871Y-13589D01*
X20871Y-14300D01*
X19975Y-14300D01*
X19975Y-12275D01*
X19975Y-12066D01*
X19975Y-10275D01*
X19975Y-10066D01*
X19895Y-09873D01*
X19748Y-09725D01*
X19555Y-09645D01*
X19346Y-09645D01*
X19153Y-09725D01*
X19005Y-09872D01*
X18925Y-10065D01*
X18925Y-10274D01*
X19005Y-10467D01*
X19152Y-10615D01*
X19345Y-10695D01*
X19554Y-10695D01*
X19747Y-10615D01*
X19895Y-10468D01*
X19975Y-10275D01*
X19975Y-12066D01*
X19895Y-11873D01*
X19748Y-11725D01*
X19555Y-11645D01*
X19346Y-11645D01*
X19153Y-11725D01*
X19005Y-11872D01*
X18925Y-12065D01*
X18925Y-12274D01*
X19005Y-12467D01*
X19152Y-12615D01*
X19345Y-12695D01*
X19554Y-12695D01*
X19747Y-12615D01*
X19895Y-12468D01*
X19975Y-12275D01*
X19975Y-14300D01*
X19955Y-14300D01*
X19955Y-13555D01*
X19955Y-13346D01*
X19875Y-13153D01*
X19728Y-13005D01*
X19535Y-12925D01*
X19326Y-12925D01*
X19133Y-13005D01*
X18985Y-13152D01*
X18905Y-13345D01*
X18905Y-13554D01*
X18985Y-13747D01*
X19132Y-13895D01*
X19325Y-13975D01*
X19534Y-13975D01*
X19727Y-13895D01*
X19875Y-13748D01*
X19955Y-13555D01*
X19955Y-14300D01*
X19250Y-14300D01*
X19078Y-14334D01*
X19029Y-14366D01*
X18931Y-14432D01*
X18875Y-14488D01*
X18875Y-13285D01*
X18875Y-13056D01*
X18868Y-13039D01*
X18868Y-10254D01*
X18856Y-10031D01*
X18792Y-09874D01*
X18696Y-09845D01*
X18625Y-09916D01*
X18625Y-09774D01*
X18596Y-09678D01*
X18384Y-09602D01*
X18161Y-09614D01*
X18004Y-09678D01*
X17975Y-09774D01*
X18300Y-10099D01*
X18625Y-09774D01*
X18625Y-09916D01*
X18371Y-10170D01*
X18696Y-10495D01*
X18792Y-10466D01*
X18868Y-10254D01*
X18868Y-13039D01*
X18788Y-12845D01*
X18626Y-12683D01*
X18625Y-12682D01*
X18625Y-10566D01*
X18300Y-10241D01*
X18229Y-10312D01*
X18229Y-10170D01*
X17904Y-09845D01*
X17808Y-09874D01*
X17732Y-10086D01*
X17744Y-10309D01*
X17808Y-10466D01*
X17904Y-10495D01*
X18229Y-10170D01*
X18229Y-10312D01*
X17975Y-10566D01*
X18004Y-10662D01*
X18216Y-10738D01*
X18439Y-10726D01*
X18596Y-10662D01*
X18625Y-10566D01*
X18625Y-12682D01*
X18415Y-12595D01*
X18186Y-12595D01*
X17975Y-12682D01*
X17813Y-12844D01*
X17725Y-13055D01*
X17725Y-13284D01*
X17812Y-13495D01*
X17974Y-13657D01*
X18185Y-13745D01*
X18414Y-13745D01*
X18625Y-13658D01*
X18787Y-13496D01*
X18875Y-13285D01*
X18875Y-14488D01*
X18775Y-14588D01*
X18775Y-14466D01*
X18695Y-14273D01*
X18548Y-14125D01*
X18355Y-14045D01*
X18146Y-14045D01*
X17953Y-14125D01*
X17805Y-14272D01*
X17725Y-14465D01*
X17725Y-14588D01*
X17247Y-14110D01*
X17375Y-14058D01*
X17537Y-13896D01*
X17625Y-13685D01*
X17625Y-13456D01*
X17538Y-13245D01*
X17525Y-13232D01*
X17525Y-12295D01*
X17525Y-12086D01*
X17519Y-12071D01*
X17519Y-10264D01*
X17508Y-10060D01*
X17452Y-09923D01*
X17361Y-09900D01*
X17290Y-09971D01*
X17290Y-09829D01*
X17267Y-09738D01*
X17074Y-09671D01*
X17025Y-09673D01*
X17025Y-09216D01*
X16700Y-08891D01*
X16375Y-09216D01*
X16404Y-09312D01*
X16616Y-09388D01*
X16839Y-09376D01*
X16996Y-09312D01*
X17025Y-09216D01*
X17025Y-09673D01*
X16870Y-09682D01*
X16733Y-09738D01*
X16710Y-09829D01*
X17000Y-10119D01*
X17290Y-09829D01*
X17290Y-09971D01*
X17071Y-10190D01*
X17361Y-10480D01*
X17452Y-10457D01*
X17519Y-10264D01*
X17519Y-12071D01*
X17445Y-11893D01*
X17298Y-11745D01*
X17290Y-11741D01*
X17290Y-10551D01*
X17000Y-10261D01*
X16929Y-10332D01*
X16929Y-10190D01*
X16639Y-09900D01*
X16548Y-09923D01*
X16481Y-10116D01*
X16492Y-10320D01*
X16548Y-10457D01*
X16639Y-10480D01*
X16929Y-10190D01*
X16929Y-10332D01*
X16710Y-10551D01*
X16733Y-10642D01*
X16926Y-10709D01*
X17130Y-10698D01*
X17267Y-10642D01*
X17290Y-10551D01*
X17290Y-11741D01*
X17105Y-11665D01*
X16896Y-11665D01*
X16703Y-11745D01*
X16555Y-11892D01*
X16475Y-12085D01*
X16475Y-12294D01*
X16555Y-12487D01*
X16702Y-12635D01*
X16895Y-12715D01*
X17104Y-12715D01*
X17297Y-12635D01*
X17445Y-12488D01*
X17525Y-12295D01*
X17525Y-13232D01*
X17376Y-13083D01*
X17165Y-12995D01*
X16936Y-12995D01*
X16725Y-13082D01*
X16563Y-13244D01*
X16475Y-13455D01*
X16475Y-13610D01*
X16275Y-13610D01*
X16275Y-10855D01*
X16275Y-10646D01*
X16195Y-10453D01*
X16048Y-10305D01*
X15855Y-10225D01*
X15646Y-10225D01*
X15453Y-10305D01*
X15305Y-10452D01*
X15225Y-10645D01*
X15225Y-10854D01*
X15305Y-11047D01*
X15452Y-11195D01*
X15645Y-11275D01*
X15854Y-11275D01*
X16047Y-11195D01*
X16195Y-11048D01*
X16275Y-10855D01*
X16275Y-13610D01*
X16019Y-13610D01*
X16004Y-13595D01*
X15919Y-13560D01*
X16004Y-13525D01*
X16158Y-13371D01*
X16242Y-13169D01*
X16242Y-12951D01*
X16158Y-12749D01*
X16004Y-12595D01*
X15919Y-12560D01*
X16004Y-12525D01*
X16158Y-12371D01*
X16242Y-12169D01*
X16242Y-11951D01*
X16158Y-11749D01*
X16004Y-11595D01*
X15802Y-11511D01*
X15584Y-11511D01*
X15278Y-11511D01*
X15076Y-11595D01*
X14950Y-11721D01*
X14950Y-10250D01*
X14916Y-10078D01*
X14916Y-10077D01*
X14818Y-09932D01*
X14318Y-09432D01*
X14173Y-09334D01*
X14000Y-09300D01*
X13450Y-09300D01*
X13278Y-09334D01*
X13229Y-09366D01*
X13131Y-09432D01*
X12863Y-09700D01*
X12743Y-09700D01*
X12743Y-09229D01*
X12732Y-09016D01*
X12672Y-08869D01*
X12578Y-08842D01*
X12508Y-08912D01*
X12508Y-08772D01*
X12481Y-08678D01*
X12279Y-08607D01*
X12066Y-08618D01*
X11919Y-08678D01*
X11892Y-08772D01*
X12200Y-09079D01*
X12508Y-08772D01*
X12508Y-08912D01*
X12271Y-09150D01*
X12578Y-09458D01*
X12672Y-09431D01*
X12743Y-09229D01*
X12743Y-09700D01*
X12702Y-09700D01*
X12641Y-09639D01*
X12550Y-09601D01*
X12487Y-09601D01*
X12508Y-09528D01*
X12200Y-09221D01*
X12129Y-09291D01*
X12129Y-09150D01*
X11822Y-08842D01*
X11728Y-08869D01*
X11657Y-09071D01*
X11668Y-09284D01*
X11728Y-09431D01*
X11822Y-09458D01*
X12129Y-09150D01*
X12129Y-09291D01*
X11892Y-09528D01*
X11912Y-09601D01*
X11851Y-09601D01*
X11759Y-09639D01*
X11689Y-09709D01*
X11651Y-09800D01*
X11651Y-09899D01*
X11651Y-10499D01*
X11689Y-10591D01*
X11759Y-10661D01*
X11850Y-10699D01*
X11949Y-10699D01*
X12549Y-10699D01*
X12641Y-10661D01*
X12702Y-10600D01*
X13050Y-10600D01*
X13222Y-10566D01*
X13223Y-10566D01*
X13271Y-10533D01*
X13225Y-10645D01*
X13225Y-10854D01*
X13305Y-11047D01*
X13452Y-11195D01*
X13645Y-11275D01*
X13854Y-11275D01*
X14047Y-11195D01*
X14050Y-11192D01*
X14050Y-13750D01*
X14084Y-13923D01*
X14182Y-14068D01*
X14492Y-14378D01*
X14637Y-14475D01*
X14638Y-14476D01*
X14810Y-14510D01*
X15061Y-14510D01*
X15076Y-14525D01*
X15160Y-14560D01*
X15076Y-14595D01*
X14922Y-14749D01*
X14838Y-14951D01*
X14838Y-15169D01*
X14922Y-15371D01*
X15076Y-15525D01*
X15278Y-15609D01*
X15496Y-15609D01*
X15802Y-15609D01*
X16004Y-15525D01*
X16158Y-15371D01*
X16242Y-15169D01*
X16242Y-14951D01*
X16158Y-14749D01*
X16004Y-14595D01*
X15919Y-14560D01*
X16004Y-14525D01*
X16019Y-14510D01*
X16373Y-14510D01*
X17681Y-15818D01*
X17682Y-15818D01*
X17779Y-15883D01*
X17827Y-15915D01*
X17828Y-15916D01*
X18000Y-15950D01*
X18500Y-15950D01*
X18672Y-15916D01*
X18673Y-15916D01*
X18818Y-15818D01*
X18956Y-15679D01*
X18985Y-15747D01*
X19132Y-15895D01*
X19325Y-15975D01*
X19534Y-15975D01*
X19727Y-15895D01*
X19875Y-15748D01*
X19952Y-15561D01*
X20032Y-15755D01*
X20194Y-15917D01*
X20405Y-16005D01*
X20634Y-16005D01*
X20845Y-15918D01*
X21007Y-15756D01*
X21095Y-15545D01*
X21095Y-15316D01*
X21047Y-15200D01*
X22992Y-15200D01*
X22945Y-15315D01*
X22945Y-15544D01*
X23032Y-15755D01*
X23194Y-15917D01*
X23405Y-16005D01*
X23634Y-16005D01*
X23845Y-15918D01*
X24007Y-15756D01*
X24095Y-15545D01*
X24095Y-15316D01*
X24043Y-15191D01*
X24172Y-15166D01*
X24173Y-15166D01*
X24318Y-15068D01*
X24374Y-15011D01*
X24431Y-15068D01*
X24432Y-15068D01*
X24529Y-15133D01*
X24577Y-15165D01*
X24578Y-15166D01*
X24750Y-15200D01*
X26020Y-15200D01*
X25965Y-15335D01*
X25965Y-15544D01*
X26045Y-15737D01*
X26192Y-15885D01*
X26385Y-15965D01*
X26594Y-15965D01*
X26787Y-15885D01*
X26935Y-15738D01*
X27015Y-15545D01*
X27015Y-15336D01*
X26958Y-15200D01*
X28000Y-15200D01*
X28022Y-15195D01*
X27965Y-15335D01*
X27965Y-15544D01*
X28045Y-15737D01*
X28192Y-15885D01*
X28385Y-15965D01*
X28594Y-15965D01*
X28787Y-15885D01*
X28935Y-15738D01*
X29015Y-15545D01*
X29015Y-15336D01*
X28935Y-15143D01*
X28788Y-14995D01*
X28595Y-14915D01*
X28471Y-14915D01*
X30608Y-12777D01*
X30618Y-12954D01*
X30678Y-13101D01*
X30772Y-13128D01*
X31044Y-12855D01*
X31079Y-12820D01*
X31150Y-12749D01*
X31221Y-12820D01*
X31256Y-12855D01*
X31528Y-13128D01*
X31622Y-13101D01*
X31693Y-12899D01*
X31682Y-12686D01*
X31622Y-12539D01*
X31583Y-12527D01*
X31616Y-12495D01*
X31571Y-12450D01*
X32000Y-12450D01*
X32172Y-12416D01*
X32173Y-12416D01*
X32318Y-12318D01*
X33568Y-11069D01*
X33568Y-11068D01*
X33569Y-11066D01*
X34018Y-10618D01*
X34818Y-09818D01*
X34836Y-09800D01*
X35214Y-09800D01*
X35382Y-09968D01*
X35527Y-10066D01*
X35700Y-10100D01*
X35872Y-10066D01*
X36018Y-09968D01*
X36116Y-09822D01*
X36150Y-09650D01*
X36116Y-09477D01*
X36018Y-09332D01*
X35986Y-09300D01*
X37041Y-09300D01*
X37041Y-09329D01*
X37041Y-09949D01*
X37079Y-10041D01*
X37149Y-10111D01*
X37240Y-10149D01*
X37271Y-10149D01*
X37190Y-10208D01*
X37075Y-10394D01*
X37058Y-10453D01*
X37105Y-10540D01*
X37640Y-10540D01*
X37690Y-10540D01*
X37790Y-10540D01*
X37840Y-10540D01*
X38375Y-10540D01*
X38422Y-10453D01*
X38405Y-10394D01*
X38290Y-10208D01*
X38208Y-10149D01*
X38239Y-10149D01*
X38331Y-10111D01*
X38401Y-10041D01*
X38439Y-09950D01*
X38439Y-09851D01*
X38439Y-09300D01*
X40113Y-09300D01*
X40038Y-09481D01*
X40038Y-09699D01*
X40122Y-09901D01*
X40276Y-10055D01*
X40360Y-10090D01*
X40276Y-10125D01*
X40122Y-10279D01*
X40038Y-10481D01*
X40038Y-10699D01*
X40122Y-10901D01*
X40276Y-11055D01*
X40360Y-11090D01*
X40276Y-11125D01*
X40122Y-11279D01*
X40038Y-11481D01*
X40038Y-11699D01*
X40122Y-11901D01*
X40276Y-12055D01*
X40360Y-12090D01*
X40276Y-12125D01*
X40122Y-12279D01*
X40038Y-12481D01*
X40038Y-12699D01*
X40122Y-12901D01*
X40276Y-13055D01*
X40360Y-13090D01*
X40276Y-13125D01*
X40122Y-13279D01*
X40038Y-13481D01*
X40038Y-13699D01*
X40122Y-13901D01*
X40276Y-14055D01*
X40360Y-14090D01*
X40276Y-14125D01*
X40122Y-14279D01*
X40038Y-14481D01*
X40038Y-14699D01*
X40122Y-14901D01*
X40276Y-15055D01*
X40360Y-15090D01*
X40276Y-15125D01*
X40122Y-15279D01*
X40038Y-15481D01*
X40038Y-15699D01*
X40122Y-15901D01*
X40276Y-16055D01*
X40478Y-16139D01*
X40696Y-16139D01*
X41002Y-16139D01*
X41204Y-16055D01*
X41358Y-15901D01*
X41442Y-15699D01*
X41442Y-15481D01*
X41358Y-15279D01*
X41204Y-15125D01*
X41119Y-15090D01*
X41204Y-15055D01*
X41358Y-14901D01*
X41442Y-14699D01*
X41442Y-14481D01*
X41358Y-14279D01*
X41204Y-14125D01*
X41119Y-14090D01*
X41204Y-14055D01*
X41358Y-13901D01*
X41442Y-13699D01*
X41442Y-13481D01*
X41358Y-13279D01*
X41204Y-13125D01*
X41119Y-13090D01*
X41204Y-13055D01*
X41358Y-12901D01*
X41442Y-12699D01*
X41442Y-12481D01*
X41358Y-12279D01*
X41204Y-12125D01*
X41119Y-12090D01*
X41204Y-12055D01*
X41358Y-11901D01*
X41442Y-11699D01*
X41442Y-11481D01*
X41358Y-11279D01*
X41204Y-11125D01*
X41119Y-11090D01*
X41204Y-11055D01*
X41358Y-10901D01*
X41442Y-10699D01*
X41442Y-10481D01*
X41358Y-10279D01*
X41204Y-10125D01*
X41119Y-10090D01*
X41204Y-10055D01*
X41358Y-09901D01*
X41442Y-09699D01*
X41442Y-09481D01*
X41366Y-09300D01*
X41508Y-09300D01*
X41465Y-09405D01*
X41465Y-09634D01*
X41552Y-09845D01*
X41714Y-10007D01*
X41925Y-10095D01*
X42154Y-10095D01*
X42365Y-10008D01*
X42527Y-09846D01*
X42615Y-09635D01*
X42615Y-09406D01*
X42571Y-09300D01*
X42913Y-09300D01*
X43181Y-09568D01*
X43182Y-09568D01*
X43183Y-09569D01*
X43451Y-09837D01*
X43451Y-09879D01*
X43535Y-10081D01*
X43675Y-10221D01*
X43651Y-10221D01*
X43559Y-10259D01*
X43489Y-10329D01*
X43451Y-10420D01*
X43451Y-10519D01*
X43451Y-11119D01*
X43489Y-11211D01*
X43559Y-11281D01*
X43650Y-11319D01*
X43749Y-11319D01*
X44295Y-11319D01*
X43682Y-11932D01*
X43584Y-12077D01*
X43550Y-12250D01*
X43550Y-12498D01*
X43489Y-12559D01*
X43451Y-12650D01*
X43451Y-12749D01*
X43451Y-13349D01*
X43489Y-13441D01*
X43559Y-13511D01*
X43650Y-13549D01*
X43712Y-13549D01*
X43692Y-13622D01*
X44000Y-13929D01*
X44308Y-13622D01*
X44287Y-13549D01*
X44349Y-13549D01*
X44441Y-13511D01*
X44511Y-13441D01*
X44549Y-13350D01*
X44549Y-13251D01*
X44549Y-12651D01*
X44511Y-12559D01*
X44450Y-12498D01*
X44450Y-12436D01*
X45318Y-11568D01*
X45416Y-11423D01*
X45416Y-11422D01*
X45450Y-11250D01*
X45450Y-10250D01*
X45449Y-10249D01*
X45416Y-10078D01*
X45415Y-10077D01*
X45383Y-10029D01*
X45318Y-09932D01*
X45318Y-09931D01*
X44838Y-09452D01*
X44693Y-09354D01*
X44520Y-09320D01*
X44326Y-09320D01*
X44311Y-09305D01*
X44109Y-09221D01*
X44107Y-09221D01*
X43819Y-08933D01*
X43818Y-08932D01*
X43818Y-08931D01*
X43461Y-08575D01*
X49675Y-08575D01*
X49675Y-26925D01*
X49675Y-26925D01*
G37*
G54D26*
X49675Y-26925D02*
X49603Y-26925D01*
X49603Y-26654D01*
X49603Y-26555D01*
X49603Y-25847D01*
X49603Y-16904D01*
X49603Y-16805D01*
X49603Y-16097D01*
X49565Y-16005D01*
X49495Y-15935D01*
X49450Y-15916D01*
X49450Y-15750D01*
X49416Y-15578D01*
X49416Y-15577D01*
X49318Y-15432D01*
X47775Y-13889D01*
X47775Y-09885D01*
X47775Y-09656D01*
X47688Y-09445D01*
X47526Y-09283D01*
X47315Y-09195D01*
X47086Y-09195D01*
X46875Y-09282D01*
X46713Y-09444D01*
X46649Y-09595D01*
X46588Y-09445D01*
X46426Y-09283D01*
X46215Y-09195D01*
X45986Y-09195D01*
X45775Y-09282D01*
X45613Y-09444D01*
X45525Y-09655D01*
X45525Y-09884D01*
X45612Y-10095D01*
X45774Y-10257D01*
X45985Y-10345D01*
X46214Y-10345D01*
X46425Y-10258D01*
X46587Y-10096D01*
X46650Y-09944D01*
X46712Y-10095D01*
X46874Y-10257D01*
X47085Y-10345D01*
X47314Y-10345D01*
X47525Y-10258D01*
X47687Y-10096D01*
X47775Y-09885D01*
X47775Y-13889D01*
X47768Y-13882D01*
X47768Y-12854D01*
X47756Y-12631D01*
X47692Y-12474D01*
X47596Y-12445D01*
X47525Y-12516D01*
X47525Y-12374D01*
X47496Y-12278D01*
X47284Y-12202D01*
X47061Y-12214D01*
X46904Y-12278D01*
X46875Y-12374D01*
X47200Y-12699D01*
X47525Y-12374D01*
X47525Y-12516D01*
X47271Y-12770D01*
X47596Y-13095D01*
X47692Y-13066D01*
X47768Y-12854D01*
X47768Y-13882D01*
X47218Y-13332D01*
X47339Y-13326D01*
X47496Y-13262D01*
X47525Y-13166D01*
X47235Y-12876D01*
X47200Y-12841D01*
X47129Y-12770D01*
X47094Y-12735D01*
X46804Y-12445D01*
X46708Y-12474D01*
X46657Y-12614D01*
X46588Y-12445D01*
X46426Y-12283D01*
X46215Y-12195D01*
X45986Y-12195D01*
X45775Y-12282D01*
X45613Y-12444D01*
X45525Y-12655D01*
X45525Y-12884D01*
X45612Y-13095D01*
X45774Y-13257D01*
X45940Y-13326D01*
X48536Y-15922D01*
X48505Y-15935D01*
X48435Y-16005D01*
X48412Y-16059D01*
X48342Y-15989D01*
X48121Y-15897D01*
X47881Y-15897D01*
X47659Y-15988D01*
X47489Y-16158D01*
X47397Y-16379D01*
X47397Y-16619D01*
X47488Y-16841D01*
X47658Y-17011D01*
X47879Y-17103D01*
X48119Y-17103D01*
X48341Y-17012D01*
X48412Y-16940D01*
X48435Y-16995D01*
X48505Y-17065D01*
X48596Y-17103D01*
X48695Y-17103D01*
X49403Y-17103D01*
X49495Y-17065D01*
X49565Y-16995D01*
X49603Y-16904D01*
X49603Y-25847D01*
X49565Y-25755D01*
X49495Y-25685D01*
X49450Y-25666D01*
X49450Y-25500D01*
X49416Y-25328D01*
X49416Y-25327D01*
X49318Y-25182D01*
X47775Y-23639D01*
X47775Y-19635D01*
X47775Y-19406D01*
X47688Y-19195D01*
X47526Y-19033D01*
X47353Y-18960D01*
X47353Y-16904D01*
X47353Y-16805D01*
X47353Y-16097D01*
X47315Y-16005D01*
X47245Y-15935D01*
X47154Y-15897D01*
X47055Y-15897D01*
X46347Y-15897D01*
X46255Y-15935D01*
X46185Y-16005D01*
X46166Y-16048D01*
X46113Y-15995D01*
X46078Y-16030D01*
X46063Y-15985D01*
X45843Y-15904D01*
X45608Y-15914D01*
X45437Y-15985D01*
X45404Y-16084D01*
X45715Y-16394D01*
X45750Y-16429D01*
X45821Y-16500D01*
X45750Y-16571D01*
X45679Y-16641D01*
X45679Y-16500D01*
X45334Y-16154D01*
X45235Y-16187D01*
X45154Y-16407D01*
X45164Y-16642D01*
X45235Y-16813D01*
X45334Y-16846D01*
X45679Y-16500D01*
X45679Y-16641D01*
X45404Y-16916D01*
X45437Y-17015D01*
X45657Y-17096D01*
X45892Y-17086D01*
X46063Y-17015D01*
X46078Y-16969D01*
X46096Y-16987D01*
X46113Y-17005D01*
X46166Y-16951D01*
X46185Y-16995D01*
X46255Y-17065D01*
X46346Y-17103D01*
X46445Y-17103D01*
X47153Y-17103D01*
X47245Y-17065D01*
X47315Y-16995D01*
X47353Y-16904D01*
X47353Y-18960D01*
X47315Y-18945D01*
X47086Y-18945D01*
X46875Y-19032D01*
X46713Y-19194D01*
X46649Y-19345D01*
X46588Y-19195D01*
X46426Y-19033D01*
X46215Y-18945D01*
X46096Y-18945D01*
X45986Y-18945D01*
X45775Y-19032D01*
X45613Y-19194D01*
X45525Y-19405D01*
X45525Y-19634D01*
X45612Y-19845D01*
X45774Y-20007D01*
X45985Y-20095D01*
X46214Y-20095D01*
X46425Y-20008D01*
X46587Y-19846D01*
X46650Y-19694D01*
X46712Y-19845D01*
X46874Y-20007D01*
X47085Y-20095D01*
X47314Y-20095D01*
X47525Y-20008D01*
X47687Y-19846D01*
X47775Y-19635D01*
X47775Y-23639D01*
X47768Y-23632D01*
X47768Y-22604D01*
X47756Y-22381D01*
X47692Y-22224D01*
X47596Y-22195D01*
X47525Y-22266D01*
X47525Y-22124D01*
X47496Y-22028D01*
X47284Y-21952D01*
X47061Y-21964D01*
X46904Y-22028D01*
X46875Y-22124D01*
X47200Y-22449D01*
X47525Y-22124D01*
X47525Y-22266D01*
X47271Y-22520D01*
X47596Y-22845D01*
X47692Y-22816D01*
X47768Y-22604D01*
X47768Y-23632D01*
X47218Y-23082D01*
X47339Y-23076D01*
X47496Y-23012D01*
X47525Y-22916D01*
X47235Y-22626D01*
X47200Y-22591D01*
X47129Y-22520D01*
X47094Y-22485D01*
X46804Y-22195D01*
X46708Y-22224D01*
X46657Y-22364D01*
X46588Y-22195D01*
X46426Y-22033D01*
X46215Y-21945D01*
X45986Y-21945D01*
X45775Y-22032D01*
X45613Y-22194D01*
X45525Y-22405D01*
X45525Y-22634D01*
X45612Y-22845D01*
X45774Y-23007D01*
X45940Y-23076D01*
X48536Y-25672D01*
X48505Y-25685D01*
X48435Y-25755D01*
X48412Y-25809D01*
X48342Y-25739D01*
X48121Y-25647D01*
X47881Y-25647D01*
X47659Y-25738D01*
X47489Y-25908D01*
X47397Y-26129D01*
X47397Y-26369D01*
X47488Y-26591D01*
X47658Y-26761D01*
X47879Y-26853D01*
X48119Y-26853D01*
X48341Y-26762D01*
X48412Y-26690D01*
X48435Y-26745D01*
X48505Y-26815D01*
X48596Y-26853D01*
X48695Y-26853D01*
X49403Y-26853D01*
X49495Y-26815D01*
X49565Y-26745D01*
X49603Y-26654D01*
X49603Y-26925D01*
X47353Y-26925D01*
X47353Y-26654D01*
X47353Y-26555D01*
X47353Y-25847D01*
X47315Y-25755D01*
X47245Y-25685D01*
X47154Y-25647D01*
X47055Y-25647D01*
X46347Y-25647D01*
X46255Y-25685D01*
X46185Y-25755D01*
X46166Y-25798D01*
X46113Y-25745D01*
X46078Y-25780D01*
X46063Y-25735D01*
X45843Y-25654D01*
X45608Y-25664D01*
X45450Y-25729D01*
X45450Y-21000D01*
X45450Y-20000D01*
X45449Y-19999D01*
X45416Y-19828D01*
X45415Y-19827D01*
X45383Y-19779D01*
X45318Y-19682D01*
X45318Y-19681D01*
X45103Y-19466D01*
X45103Y-16904D01*
X45103Y-16805D01*
X45103Y-16097D01*
X45065Y-16005D01*
X44995Y-15935D01*
X44904Y-15897D01*
X44805Y-15897D01*
X44543Y-15897D01*
X44543Y-14079D01*
X44532Y-13866D01*
X44472Y-13719D01*
X44378Y-13692D01*
X44071Y-14000D01*
X44378Y-14308D01*
X44472Y-14281D01*
X44543Y-14079D01*
X44543Y-15897D01*
X44308Y-15897D01*
X44308Y-14378D01*
X44000Y-14071D01*
X43929Y-14141D01*
X43929Y-14000D01*
X43622Y-13692D01*
X43528Y-13719D01*
X43457Y-13921D01*
X43468Y-14134D01*
X43528Y-14281D01*
X43622Y-14308D01*
X43929Y-14000D01*
X43929Y-14141D01*
X43692Y-14378D01*
X43719Y-14472D01*
X43921Y-14543D01*
X44134Y-14532D01*
X44281Y-14472D01*
X44308Y-14378D01*
X44308Y-15897D01*
X44097Y-15897D01*
X44005Y-15935D01*
X43935Y-16005D01*
X43912Y-16059D01*
X43842Y-15989D01*
X43621Y-15897D01*
X43381Y-15897D01*
X43159Y-15988D01*
X42989Y-16158D01*
X42897Y-16379D01*
X42897Y-16619D01*
X42988Y-16841D01*
X43158Y-17011D01*
X43379Y-17103D01*
X43619Y-17103D01*
X43841Y-17012D01*
X43912Y-16940D01*
X43935Y-16995D01*
X44005Y-17065D01*
X44096Y-17103D01*
X44195Y-17103D01*
X44903Y-17103D01*
X44995Y-17065D01*
X45065Y-16995D01*
X45103Y-16904D01*
X45103Y-19466D01*
X44838Y-19202D01*
X44693Y-19104D01*
X44520Y-19070D01*
X44326Y-19070D01*
X44311Y-19055D01*
X44109Y-18971D01*
X44107Y-18971D01*
X43819Y-18683D01*
X43818Y-18682D01*
X43818Y-18681D01*
X43418Y-18282D01*
X43273Y-18184D01*
X43100Y-18150D01*
X42615Y-18150D01*
X42615Y-16725D01*
X42615Y-16496D01*
X42615Y-13725D01*
X42615Y-13496D01*
X42528Y-13285D01*
X42366Y-13123D01*
X42226Y-13064D01*
X42365Y-13008D01*
X42527Y-12846D01*
X42615Y-12635D01*
X42615Y-12406D01*
X42528Y-12195D01*
X42366Y-12033D01*
X42155Y-11945D01*
X41926Y-11945D01*
X41715Y-12032D01*
X41553Y-12194D01*
X41465Y-12405D01*
X41465Y-12634D01*
X41552Y-12845D01*
X41714Y-13007D01*
X41853Y-13065D01*
X41715Y-13122D01*
X41553Y-13284D01*
X41465Y-13495D01*
X41465Y-13724D01*
X41552Y-13935D01*
X41714Y-14097D01*
X41925Y-14185D01*
X42154Y-14185D01*
X42365Y-14098D01*
X42527Y-13936D01*
X42615Y-13725D01*
X42615Y-16496D01*
X42528Y-16285D01*
X42366Y-16123D01*
X42155Y-16035D01*
X41926Y-16035D01*
X41715Y-16122D01*
X41553Y-16284D01*
X41465Y-16495D01*
X41465Y-16548D01*
X41463Y-16550D01*
X39686Y-16550D01*
X39068Y-15932D01*
X38923Y-15834D01*
X38750Y-15800D01*
X38396Y-15800D01*
X38405Y-15786D01*
X38422Y-15727D01*
X38375Y-15640D01*
X37840Y-15640D01*
X37790Y-15640D01*
X37690Y-15640D01*
X37690Y-15540D01*
X37790Y-15540D01*
X37840Y-15540D01*
X38375Y-15540D01*
X38422Y-15453D01*
X38405Y-15394D01*
X38290Y-15208D01*
X38124Y-15088D01*
X38204Y-15055D01*
X38358Y-14901D01*
X38442Y-14699D01*
X38442Y-14481D01*
X38358Y-14279D01*
X38204Y-14125D01*
X38119Y-14090D01*
X38204Y-14055D01*
X38358Y-13901D01*
X38442Y-13699D01*
X38442Y-13481D01*
X38358Y-13279D01*
X38204Y-13125D01*
X38119Y-13090D01*
X38204Y-13055D01*
X38358Y-12901D01*
X38442Y-12699D01*
X38442Y-12481D01*
X38358Y-12279D01*
X38204Y-12125D01*
X38119Y-12090D01*
X38204Y-12055D01*
X38358Y-11901D01*
X38442Y-11699D01*
X38442Y-11481D01*
X38358Y-11279D01*
X38204Y-11125D01*
X38124Y-11091D01*
X38290Y-10972D01*
X38405Y-10786D01*
X38422Y-10727D01*
X38375Y-10640D01*
X37840Y-10640D01*
X37790Y-10640D01*
X37690Y-10640D01*
X37640Y-10640D01*
X37105Y-10640D01*
X37058Y-10727D01*
X37075Y-10786D01*
X37190Y-10972D01*
X37355Y-11091D01*
X37276Y-11125D01*
X37122Y-11279D01*
X37038Y-11481D01*
X37038Y-11699D01*
X37122Y-11901D01*
X37276Y-12055D01*
X37360Y-12090D01*
X37276Y-12125D01*
X37122Y-12279D01*
X37089Y-12358D01*
X37089Y-12104D01*
X37078Y-11900D01*
X37022Y-11763D01*
X36931Y-11740D01*
X36860Y-11811D01*
X36860Y-11669D01*
X36837Y-11578D01*
X36644Y-11511D01*
X36440Y-11522D01*
X36303Y-11578D01*
X36280Y-11669D01*
X36570Y-11959D01*
X36860Y-11669D01*
X36860Y-11811D01*
X36641Y-12030D01*
X36931Y-12320D01*
X37022Y-12297D01*
X37089Y-12104D01*
X37089Y-12358D01*
X37038Y-12481D01*
X37038Y-12699D01*
X37122Y-12901D01*
X37276Y-13055D01*
X37360Y-13090D01*
X37276Y-13125D01*
X37122Y-13279D01*
X37069Y-13406D01*
X37138Y-13214D01*
X37126Y-12991D01*
X37062Y-12834D01*
X36966Y-12805D01*
X36895Y-12876D01*
X36895Y-12734D01*
X36866Y-12638D01*
X36860Y-12635D01*
X36860Y-12391D01*
X36570Y-12101D01*
X36499Y-12172D01*
X36499Y-12030D01*
X36209Y-11740D01*
X36118Y-11763D01*
X36051Y-11956D01*
X36062Y-12160D01*
X36118Y-12297D01*
X36209Y-12320D01*
X36499Y-12030D01*
X36499Y-12172D01*
X36280Y-12391D01*
X36303Y-12482D01*
X36496Y-12549D01*
X36700Y-12538D01*
X36837Y-12482D01*
X36860Y-12391D01*
X36860Y-12635D01*
X36654Y-12562D01*
X36431Y-12574D01*
X36274Y-12638D01*
X36245Y-12734D01*
X36570Y-13059D01*
X36895Y-12734D01*
X36895Y-12876D01*
X36641Y-13130D01*
X36966Y-13455D01*
X37060Y-13426D01*
X37038Y-13481D01*
X37038Y-13699D01*
X37122Y-13901D01*
X37276Y-14055D01*
X37360Y-14090D01*
X37276Y-14125D01*
X37122Y-14279D01*
X37038Y-14481D01*
X37038Y-14699D01*
X37122Y-14901D01*
X37276Y-15055D01*
X37355Y-15088D01*
X37190Y-15208D01*
X37130Y-15303D01*
X37078Y-15175D01*
X36916Y-15013D01*
X36895Y-15004D01*
X36895Y-13526D01*
X36570Y-13201D01*
X36499Y-13272D01*
X36499Y-13130D01*
X36174Y-12805D01*
X36078Y-12834D01*
X36002Y-13046D01*
X36014Y-13269D01*
X36078Y-13426D01*
X36174Y-13455D01*
X36499Y-13130D01*
X36499Y-13272D01*
X36245Y-13526D01*
X36274Y-13622D01*
X36486Y-13698D01*
X36709Y-13686D01*
X36866Y-13622D01*
X36895Y-13526D01*
X36895Y-15004D01*
X36705Y-14925D01*
X36476Y-14925D01*
X36265Y-15012D01*
X36145Y-15132D01*
X36145Y-14415D01*
X36145Y-14206D01*
X36065Y-14013D01*
X35918Y-13865D01*
X35725Y-13785D01*
X35516Y-13785D01*
X35323Y-13865D01*
X35175Y-14012D01*
X35095Y-14205D01*
X35095Y-14414D01*
X35175Y-14607D01*
X35322Y-14755D01*
X35515Y-14835D01*
X35724Y-14835D01*
X35917Y-14755D01*
X36065Y-14608D01*
X36145Y-14415D01*
X36145Y-15132D01*
X36103Y-15174D01*
X36015Y-15385D01*
X36015Y-15614D01*
X36091Y-15800D01*
X34750Y-15800D01*
X34578Y-15834D01*
X34529Y-15866D01*
X34431Y-15932D01*
X34165Y-16198D01*
X34165Y-15615D01*
X34165Y-15386D01*
X34145Y-15337D01*
X34145Y-14415D01*
X34145Y-14206D01*
X34065Y-14013D01*
X33918Y-13865D01*
X33725Y-13785D01*
X33551Y-13785D01*
X33631Y-13705D01*
X33684Y-13705D01*
X33895Y-13618D01*
X34057Y-13456D01*
X34145Y-13245D01*
X34145Y-13016D01*
X34094Y-12892D01*
X34094Y-12355D01*
X34094Y-12256D01*
X34094Y-11706D01*
X34056Y-11614D01*
X33986Y-11544D01*
X33895Y-11506D01*
X33796Y-11506D01*
X33246Y-11506D01*
X33154Y-11544D01*
X33084Y-11614D01*
X33046Y-11705D01*
X33046Y-11804D01*
X33046Y-12354D01*
X33084Y-12446D01*
X33154Y-12516D01*
X33245Y-12554D01*
X33344Y-12554D01*
X33894Y-12554D01*
X33986Y-12516D01*
X34056Y-12446D01*
X34094Y-12355D01*
X34094Y-12892D01*
X34058Y-12805D01*
X33896Y-12643D01*
X33685Y-12555D01*
X33456Y-12555D01*
X33245Y-12642D01*
X33083Y-12804D01*
X32995Y-13015D01*
X32995Y-13069D01*
X31699Y-14365D01*
X31699Y-14170D01*
X31699Y-14071D01*
X31699Y-13471D01*
X31693Y-13456D01*
X31661Y-13379D01*
X31591Y-13309D01*
X31500Y-13271D01*
X31437Y-13271D01*
X31458Y-13198D01*
X31150Y-12891D01*
X30842Y-13198D01*
X30862Y-13271D01*
X30801Y-13271D01*
X30709Y-13309D01*
X30639Y-13379D01*
X30601Y-13470D01*
X30601Y-13569D01*
X30601Y-14169D01*
X30639Y-14261D01*
X30709Y-14331D01*
X30800Y-14369D01*
X30899Y-14369D01*
X31499Y-14369D01*
X31591Y-14331D01*
X31661Y-14261D01*
X31699Y-14170D01*
X31699Y-14365D01*
X31132Y-14932D01*
X31034Y-15077D01*
X31000Y-15250D01*
X31000Y-15584D01*
X30946Y-15712D01*
X30902Y-15603D01*
X30811Y-15580D01*
X30740Y-15651D01*
X30740Y-15509D01*
X30717Y-15418D01*
X30524Y-15351D01*
X30320Y-15362D01*
X30183Y-15418D01*
X30160Y-15509D01*
X30450Y-15799D01*
X30740Y-15509D01*
X30740Y-15651D01*
X30521Y-15870D01*
X30811Y-16160D01*
X30902Y-16137D01*
X30943Y-16018D01*
X31005Y-16167D01*
X31152Y-16315D01*
X31226Y-16346D01*
X31126Y-16346D01*
X31034Y-16384D01*
X30964Y-16454D01*
X30926Y-16545D01*
X30926Y-16644D01*
X30926Y-17194D01*
X30964Y-17286D01*
X31034Y-17356D01*
X31125Y-17394D01*
X31224Y-17394D01*
X31774Y-17394D01*
X31866Y-17356D01*
X31936Y-17286D01*
X31974Y-17195D01*
X31974Y-17096D01*
X31974Y-16546D01*
X31936Y-16454D01*
X31866Y-16384D01*
X31775Y-16346D01*
X31676Y-16346D01*
X31672Y-16346D01*
X31747Y-16315D01*
X31895Y-16168D01*
X31975Y-15975D01*
X31975Y-15766D01*
X31900Y-15585D01*
X31900Y-15436D01*
X33095Y-14241D01*
X33095Y-14414D01*
X33175Y-14607D01*
X33322Y-14755D01*
X33515Y-14835D01*
X33724Y-14835D01*
X33917Y-14755D01*
X34065Y-14608D01*
X34145Y-14415D01*
X34145Y-15337D01*
X34078Y-15175D01*
X33916Y-15013D01*
X33705Y-14925D01*
X33476Y-14925D01*
X33265Y-15012D01*
X33103Y-15174D01*
X33015Y-15385D01*
X33015Y-15614D01*
X33102Y-15825D01*
X33264Y-15987D01*
X33475Y-16075D01*
X33704Y-16075D01*
X33915Y-15988D01*
X34077Y-15826D01*
X34165Y-15615D01*
X34165Y-16198D01*
X33883Y-16480D01*
X33845Y-16480D01*
X33665Y-16405D01*
X33456Y-16405D01*
X33263Y-16485D01*
X33115Y-16632D01*
X33035Y-16825D01*
X33035Y-17034D01*
X33115Y-17227D01*
X33262Y-17375D01*
X33455Y-17455D01*
X33664Y-17455D01*
X33844Y-17380D01*
X34070Y-17380D01*
X34242Y-17346D01*
X34243Y-17346D01*
X34388Y-17248D01*
X34936Y-16700D01*
X36036Y-16700D01*
X36036Y-16704D01*
X36036Y-17254D01*
X36074Y-17346D01*
X36144Y-17416D01*
X36235Y-17454D01*
X36334Y-17454D01*
X36884Y-17454D01*
X36976Y-17416D01*
X37046Y-17346D01*
X37084Y-17255D01*
X37084Y-17156D01*
X37084Y-16700D01*
X38563Y-16700D01*
X39181Y-17318D01*
X39182Y-17318D01*
X39279Y-17383D01*
X39327Y-17415D01*
X39328Y-17416D01*
X39500Y-17450D01*
X41650Y-17450D01*
X41822Y-17416D01*
X41823Y-17416D01*
X41968Y-17318D01*
X42101Y-17185D01*
X42154Y-17185D01*
X42365Y-17098D01*
X42527Y-16936D01*
X42615Y-16725D01*
X42615Y-18150D01*
X36046Y-18150D01*
X36023Y-18134D01*
X35850Y-18100D01*
X34250Y-18100D01*
X34078Y-18134D01*
X34029Y-18166D01*
X33931Y-18232D01*
X33049Y-19114D01*
X33049Y-19021D01*
X32950Y-18782D01*
X32768Y-18600D01*
X32529Y-18501D01*
X32271Y-18501D01*
X32032Y-18600D01*
X31850Y-18782D01*
X31751Y-19021D01*
X31751Y-19279D01*
X31850Y-19518D01*
X32032Y-19700D01*
X32271Y-19799D01*
X32364Y-19799D01*
X32049Y-20114D01*
X32049Y-20021D01*
X31950Y-19782D01*
X31768Y-19600D01*
X31529Y-19501D01*
X31271Y-19501D01*
X31049Y-19592D01*
X31049Y-19279D01*
X31049Y-19021D01*
X30950Y-18782D01*
X30768Y-18600D01*
X30740Y-18588D01*
X30740Y-16231D01*
X30450Y-15941D01*
X30379Y-16012D01*
X30379Y-15870D01*
X30089Y-15580D01*
X29998Y-15603D01*
X29931Y-15796D01*
X29942Y-16000D01*
X29998Y-16137D01*
X30089Y-16160D01*
X30379Y-15870D01*
X30379Y-16012D01*
X30160Y-16231D01*
X30183Y-16322D01*
X30376Y-16389D01*
X30580Y-16378D01*
X30717Y-16322D01*
X30740Y-16231D01*
X30740Y-18588D01*
X30529Y-18501D01*
X30271Y-18501D01*
X30032Y-18600D01*
X29850Y-18782D01*
X29751Y-19021D01*
X29751Y-19279D01*
X29850Y-19518D01*
X30032Y-19700D01*
X30271Y-19799D01*
X30529Y-19799D01*
X30768Y-19700D01*
X30950Y-19518D01*
X31049Y-19279D01*
X31049Y-19592D01*
X31032Y-19600D01*
X30850Y-19782D01*
X30751Y-20021D01*
X30751Y-20279D01*
X30850Y-20518D01*
X30882Y-20550D01*
X30750Y-20550D01*
X30500Y-20550D01*
X30355Y-20578D01*
X30327Y-20584D01*
X30182Y-20682D01*
X29105Y-21759D01*
X29105Y-16675D01*
X29105Y-16446D01*
X29018Y-16235D01*
X28856Y-16073D01*
X28645Y-15985D01*
X28416Y-15985D01*
X28205Y-16072D01*
X28043Y-16234D01*
X27955Y-16445D01*
X27955Y-16674D01*
X28042Y-16885D01*
X28204Y-17047D01*
X28415Y-17135D01*
X28644Y-17135D01*
X28855Y-17048D01*
X29017Y-16886D01*
X29105Y-16675D01*
X29105Y-21759D01*
X28814Y-22050D01*
X28745Y-22050D01*
X28745Y-19755D01*
X28745Y-19526D01*
X28658Y-19315D01*
X28496Y-19153D01*
X28285Y-19065D01*
X28225Y-19065D01*
X28225Y-18675D01*
X28225Y-18466D01*
X28145Y-18273D01*
X27998Y-18125D01*
X27805Y-18045D01*
X27596Y-18045D01*
X27403Y-18125D01*
X27255Y-18272D01*
X27175Y-18465D01*
X27175Y-18674D01*
X27255Y-18867D01*
X27402Y-19015D01*
X27595Y-19095D01*
X27804Y-19095D01*
X27997Y-19015D01*
X28145Y-18868D01*
X28225Y-18675D01*
X28225Y-19065D01*
X28056Y-19065D01*
X27845Y-19152D01*
X27683Y-19314D01*
X27595Y-19525D01*
X27595Y-19754D01*
X27682Y-19965D01*
X27844Y-20127D01*
X28055Y-20215D01*
X28284Y-20215D01*
X28495Y-20128D01*
X28657Y-19966D01*
X28745Y-19755D01*
X28745Y-22050D01*
X27979Y-22050D01*
X27979Y-21002D01*
X27979Y-20784D01*
X27979Y-20478D01*
X27895Y-20276D01*
X27741Y-20122D01*
X27539Y-20038D01*
X27321Y-20038D01*
X27119Y-20122D01*
X26965Y-20276D01*
X26930Y-20360D01*
X26895Y-20276D01*
X26741Y-20122D01*
X26539Y-20038D01*
X26321Y-20038D01*
X26225Y-20077D01*
X26225Y-18675D01*
X26225Y-18466D01*
X26145Y-18273D01*
X26105Y-18232D01*
X26105Y-16675D01*
X26105Y-16446D01*
X26018Y-16235D01*
X25856Y-16073D01*
X25645Y-15985D01*
X25416Y-15985D01*
X25205Y-16072D01*
X25043Y-16234D01*
X24955Y-16445D01*
X24955Y-16674D01*
X25042Y-16885D01*
X25204Y-17047D01*
X25415Y-17135D01*
X25644Y-17135D01*
X25855Y-17048D01*
X26017Y-16886D01*
X26105Y-16675D01*
X26105Y-18232D01*
X25998Y-18125D01*
X25805Y-18045D01*
X25596Y-18045D01*
X25403Y-18125D01*
X25255Y-18272D01*
X25175Y-18465D01*
X25175Y-18674D01*
X25255Y-18867D01*
X25402Y-19015D01*
X25595Y-19095D01*
X25804Y-19095D01*
X25997Y-19015D01*
X26145Y-18868D01*
X26225Y-18675D01*
X26225Y-20077D01*
X26119Y-20122D01*
X25965Y-20276D01*
X25930Y-20360D01*
X25895Y-20276D01*
X25741Y-20122D01*
X25571Y-20051D01*
X25657Y-19966D01*
X25745Y-19755D01*
X25745Y-19526D01*
X25658Y-19315D01*
X25496Y-19153D01*
X25285Y-19065D01*
X25056Y-19065D01*
X24845Y-19152D01*
X24683Y-19314D01*
X24595Y-19525D01*
X24595Y-19754D01*
X24682Y-19965D01*
X24844Y-20127D01*
X25034Y-20206D01*
X24965Y-20276D01*
X24931Y-20355D01*
X24812Y-20190D01*
X24626Y-20075D01*
X24567Y-20058D01*
X24480Y-20105D01*
X24480Y-20640D01*
X24480Y-20690D01*
X24480Y-20790D01*
X24480Y-20840D01*
X24480Y-21375D01*
X24567Y-21422D01*
X24626Y-21405D01*
X24812Y-21290D01*
X24931Y-21124D01*
X24965Y-21204D01*
X25119Y-21358D01*
X25321Y-21442D01*
X25539Y-21442D01*
X25741Y-21358D01*
X25895Y-21204D01*
X25930Y-21119D01*
X25965Y-21204D01*
X26119Y-21358D01*
X26321Y-21442D01*
X26539Y-21442D01*
X26741Y-21358D01*
X26895Y-21204D01*
X26930Y-21119D01*
X26965Y-21204D01*
X27119Y-21358D01*
X27321Y-21442D01*
X27539Y-21442D01*
X27741Y-21358D01*
X27895Y-21204D01*
X27979Y-21002D01*
X27979Y-22050D01*
X27750Y-22050D01*
X24380Y-22050D01*
X24380Y-21375D01*
X24380Y-20840D01*
X24380Y-20790D01*
X24380Y-20690D01*
X24380Y-20640D01*
X24380Y-20105D01*
X24293Y-20058D01*
X24234Y-20075D01*
X24048Y-20190D01*
X23928Y-20355D01*
X23895Y-20276D01*
X23784Y-20165D01*
X23934Y-20165D01*
X24127Y-20085D01*
X24275Y-19938D01*
X24355Y-19745D01*
X24355Y-19536D01*
X24335Y-19487D01*
X24335Y-18675D01*
X24335Y-18466D01*
X24255Y-18273D01*
X24108Y-18125D01*
X23915Y-18045D01*
X23706Y-18045D01*
X23513Y-18125D01*
X23365Y-18272D01*
X23285Y-18465D01*
X23285Y-18674D01*
X23365Y-18867D01*
X23512Y-19015D01*
X23705Y-19095D01*
X23914Y-19095D01*
X24107Y-19015D01*
X24255Y-18868D01*
X24335Y-18675D01*
X24335Y-19487D01*
X24275Y-19343D01*
X24128Y-19195D01*
X23935Y-19115D01*
X23726Y-19115D01*
X23533Y-19195D01*
X23385Y-19342D01*
X23305Y-19535D01*
X23305Y-19744D01*
X23385Y-19937D01*
X23485Y-20038D01*
X23321Y-20038D01*
X23119Y-20122D01*
X22965Y-20276D01*
X22930Y-20360D01*
X22895Y-20276D01*
X22741Y-20122D01*
X22539Y-20038D01*
X22321Y-20038D01*
X22119Y-20122D01*
X21965Y-20276D01*
X21930Y-20360D01*
X21895Y-20276D01*
X21784Y-20165D01*
X21934Y-20165D01*
X22127Y-20085D01*
X22275Y-19938D01*
X22355Y-19745D01*
X22355Y-19536D01*
X22335Y-19487D01*
X22335Y-18675D01*
X22335Y-18466D01*
X22255Y-18273D01*
X22108Y-18125D01*
X22005Y-18082D01*
X22005Y-16685D01*
X22005Y-16476D01*
X21925Y-16283D01*
X21778Y-16135D01*
X21585Y-16055D01*
X21376Y-16055D01*
X21183Y-16135D01*
X21035Y-16282D01*
X20955Y-16475D01*
X20955Y-16684D01*
X21035Y-16877D01*
X21182Y-17025D01*
X21375Y-17105D01*
X21584Y-17105D01*
X21777Y-17025D01*
X21925Y-16878D01*
X22005Y-16685D01*
X22005Y-18082D01*
X21915Y-18045D01*
X21706Y-18045D01*
X21513Y-18125D01*
X21365Y-18272D01*
X21285Y-18465D01*
X21285Y-18674D01*
X21365Y-18867D01*
X21512Y-19015D01*
X21705Y-19095D01*
X21914Y-19095D01*
X22107Y-19015D01*
X22255Y-18868D01*
X22335Y-18675D01*
X22335Y-19487D01*
X22275Y-19343D01*
X22128Y-19195D01*
X21935Y-19115D01*
X21726Y-19115D01*
X21533Y-19195D01*
X21385Y-19342D01*
X21305Y-19535D01*
X21305Y-19744D01*
X21385Y-19937D01*
X21485Y-20038D01*
X21321Y-20038D01*
X21119Y-20122D01*
X20965Y-20276D01*
X20881Y-20478D01*
X20881Y-20696D01*
X20881Y-21002D01*
X20965Y-21204D01*
X21119Y-21358D01*
X21321Y-21442D01*
X21539Y-21442D01*
X21741Y-21358D01*
X21895Y-21204D01*
X21930Y-21119D01*
X21965Y-21204D01*
X22119Y-21358D01*
X22321Y-21442D01*
X22539Y-21442D01*
X22741Y-21358D01*
X22895Y-21204D01*
X22930Y-21119D01*
X22965Y-21204D01*
X23119Y-21358D01*
X23321Y-21442D01*
X23539Y-21442D01*
X23741Y-21358D01*
X23895Y-21204D01*
X23928Y-21124D01*
X24048Y-21290D01*
X24234Y-21405D01*
X24293Y-21422D01*
X24380Y-21375D01*
X24380Y-22050D01*
X24250Y-22050D01*
X23500Y-22050D01*
X23328Y-22084D01*
X23182Y-22182D01*
X23084Y-22328D01*
X23050Y-22500D01*
X23084Y-22672D01*
X23182Y-22818D01*
X23328Y-22916D01*
X23500Y-22950D01*
X24250Y-22950D01*
X27750Y-22950D01*
X28914Y-22950D01*
X27979Y-23885D01*
X27979Y-23784D01*
X27979Y-23478D01*
X27895Y-23276D01*
X27741Y-23122D01*
X27539Y-23038D01*
X27321Y-23038D01*
X27119Y-23122D01*
X26965Y-23276D01*
X26930Y-23360D01*
X26895Y-23276D01*
X26741Y-23122D01*
X26539Y-23038D01*
X26321Y-23038D01*
X26119Y-23122D01*
X25965Y-23276D01*
X25930Y-23360D01*
X25895Y-23276D01*
X25741Y-23122D01*
X25539Y-23038D01*
X25321Y-23038D01*
X25119Y-23122D01*
X24965Y-23276D01*
X24930Y-23360D01*
X24895Y-23276D01*
X24741Y-23122D01*
X24539Y-23038D01*
X24321Y-23038D01*
X24119Y-23122D01*
X23965Y-23276D01*
X23930Y-23360D01*
X23895Y-23276D01*
X23741Y-23122D01*
X23539Y-23038D01*
X23321Y-23038D01*
X23119Y-23122D01*
X22965Y-23276D01*
X22930Y-23360D01*
X22895Y-23276D01*
X22741Y-23122D01*
X22539Y-23038D01*
X22321Y-23038D01*
X22119Y-23122D01*
X21989Y-23252D01*
X21989Y-23241D01*
X21951Y-23149D01*
X21881Y-23079D01*
X21790Y-23041D01*
X21691Y-23041D01*
X21071Y-23041D01*
X20979Y-23079D01*
X20909Y-23149D01*
X20871Y-23240D01*
X20871Y-23339D01*
X20871Y-24050D01*
X20275Y-24050D01*
X20275Y-18685D01*
X20275Y-18456D01*
X20188Y-18245D01*
X20026Y-18083D01*
X20005Y-18074D01*
X20005Y-16685D01*
X20005Y-16476D01*
X19925Y-16283D01*
X19778Y-16135D01*
X19585Y-16055D01*
X19376Y-16055D01*
X19183Y-16135D01*
X19035Y-16282D01*
X18955Y-16475D01*
X18955Y-16684D01*
X19035Y-16877D01*
X19182Y-17025D01*
X19375Y-17105D01*
X19584Y-17105D01*
X19777Y-17025D01*
X19925Y-16878D01*
X20005Y-16685D01*
X20005Y-18074D01*
X19815Y-17995D01*
X19586Y-17995D01*
X19375Y-18082D01*
X19213Y-18244D01*
X19125Y-18455D01*
X19125Y-18684D01*
X19212Y-18895D01*
X19374Y-19057D01*
X19585Y-19145D01*
X19814Y-19145D01*
X20025Y-19058D01*
X20187Y-18896D01*
X20275Y-18685D01*
X20275Y-24050D01*
X19975Y-24050D01*
X19975Y-22025D01*
X19975Y-21816D01*
X19975Y-20025D01*
X19975Y-19816D01*
X19895Y-19623D01*
X19748Y-19475D01*
X19555Y-19395D01*
X19346Y-19395D01*
X19153Y-19475D01*
X19005Y-19622D01*
X18925Y-19815D01*
X18925Y-20024D01*
X19005Y-20217D01*
X19152Y-20365D01*
X19345Y-20445D01*
X19554Y-20445D01*
X19747Y-20365D01*
X19895Y-20218D01*
X19975Y-20025D01*
X19975Y-21816D01*
X19895Y-21623D01*
X19748Y-21475D01*
X19555Y-21395D01*
X19346Y-21395D01*
X19153Y-21475D01*
X19005Y-21622D01*
X18925Y-21815D01*
X18925Y-22024D01*
X19005Y-22217D01*
X19152Y-22365D01*
X19345Y-22445D01*
X19554Y-22445D01*
X19747Y-22365D01*
X19895Y-22218D01*
X19975Y-22025D01*
X19975Y-24050D01*
X19955Y-24050D01*
X19955Y-23305D01*
X19955Y-23096D01*
X19875Y-22903D01*
X19728Y-22755D01*
X19535Y-22675D01*
X19326Y-22675D01*
X19133Y-22755D01*
X18985Y-22902D01*
X18905Y-23095D01*
X18905Y-23304D01*
X18985Y-23497D01*
X19132Y-23645D01*
X19325Y-23725D01*
X19534Y-23725D01*
X19727Y-23645D01*
X19875Y-23498D01*
X19955Y-23305D01*
X19955Y-24050D01*
X19250Y-24050D01*
X19078Y-24084D01*
X19029Y-24116D01*
X18931Y-24182D01*
X18875Y-24238D01*
X18875Y-23035D01*
X18875Y-22806D01*
X18868Y-22789D01*
X18868Y-20004D01*
X18856Y-19781D01*
X18792Y-19624D01*
X18775Y-19618D01*
X18775Y-16675D01*
X18775Y-16466D01*
X18695Y-16273D01*
X18548Y-16125D01*
X18355Y-16045D01*
X18146Y-16045D01*
X17953Y-16125D01*
X17805Y-16272D01*
X17725Y-16465D01*
X17725Y-16674D01*
X17805Y-16867D01*
X17952Y-17015D01*
X18145Y-17095D01*
X18354Y-17095D01*
X18547Y-17015D01*
X18695Y-16868D01*
X18775Y-16675D01*
X18775Y-19618D01*
X18696Y-19595D01*
X18625Y-19666D01*
X18625Y-19524D01*
X18596Y-19428D01*
X18384Y-19352D01*
X18161Y-19364D01*
X18004Y-19428D01*
X17975Y-19524D01*
X18300Y-19849D01*
X18625Y-19524D01*
X18625Y-19666D01*
X18371Y-19920D01*
X18696Y-20245D01*
X18792Y-20216D01*
X18868Y-20004D01*
X18868Y-22789D01*
X18788Y-22595D01*
X18626Y-22433D01*
X18625Y-22432D01*
X18625Y-20316D01*
X18300Y-19991D01*
X18229Y-20062D01*
X18229Y-19920D01*
X17904Y-19595D01*
X17808Y-19624D01*
X17732Y-19836D01*
X17744Y-20059D01*
X17808Y-20216D01*
X17904Y-20245D01*
X18229Y-19920D01*
X18229Y-20062D01*
X17975Y-20316D01*
X18004Y-20412D01*
X18216Y-20488D01*
X18439Y-20476D01*
X18596Y-20412D01*
X18625Y-20316D01*
X18625Y-22432D01*
X18415Y-22345D01*
X18186Y-22345D01*
X17975Y-22432D01*
X17813Y-22594D01*
X17725Y-22805D01*
X17725Y-23034D01*
X17812Y-23245D01*
X17974Y-23407D01*
X18185Y-23495D01*
X18414Y-23495D01*
X18625Y-23408D01*
X18787Y-23246D01*
X18875Y-23035D01*
X18875Y-24238D01*
X18775Y-24338D01*
X18775Y-24216D01*
X18695Y-24023D01*
X18548Y-23875D01*
X18355Y-23795D01*
X18146Y-23795D01*
X17953Y-23875D01*
X17805Y-24022D01*
X17725Y-24215D01*
X17725Y-24338D01*
X17247Y-23860D01*
X17375Y-23808D01*
X17537Y-23646D01*
X17625Y-23435D01*
X17625Y-23206D01*
X17625Y-16685D01*
X17625Y-16456D01*
X17538Y-16245D01*
X17376Y-16083D01*
X17165Y-15995D01*
X16936Y-15995D01*
X16725Y-16082D01*
X16563Y-16244D01*
X16475Y-16455D01*
X16475Y-16684D01*
X16562Y-16895D01*
X16724Y-17057D01*
X16935Y-17145D01*
X17164Y-17145D01*
X17375Y-17058D01*
X17537Y-16896D01*
X17625Y-16685D01*
X17625Y-23206D01*
X17538Y-22995D01*
X17525Y-22982D01*
X17525Y-22045D01*
X17525Y-21836D01*
X17519Y-21821D01*
X17519Y-20014D01*
X17508Y-19810D01*
X17452Y-19673D01*
X17361Y-19650D01*
X17290Y-19721D01*
X17290Y-19579D01*
X17268Y-19491D01*
X17268Y-18654D01*
X17256Y-18431D01*
X17192Y-18274D01*
X17096Y-18245D01*
X17025Y-18316D01*
X17025Y-18174D01*
X16996Y-18078D01*
X16784Y-18002D01*
X16561Y-18014D01*
X16404Y-18078D01*
X16375Y-18174D01*
X16700Y-18499D01*
X17025Y-18174D01*
X17025Y-18316D01*
X16771Y-18570D01*
X17096Y-18895D01*
X17192Y-18866D01*
X17268Y-18654D01*
X17268Y-19491D01*
X17267Y-19488D01*
X17074Y-19421D01*
X17025Y-19423D01*
X17025Y-18966D01*
X16700Y-18641D01*
X16629Y-18712D01*
X16629Y-18570D01*
X16304Y-18245D01*
X16208Y-18274D01*
X16132Y-18486D01*
X16144Y-18709D01*
X16208Y-18866D01*
X16304Y-18895D01*
X16629Y-18570D01*
X16629Y-18712D01*
X16375Y-18966D01*
X16404Y-19062D01*
X16616Y-19138D01*
X16839Y-19126D01*
X16996Y-19062D01*
X17025Y-18966D01*
X17025Y-19423D01*
X16870Y-19432D01*
X16733Y-19488D01*
X16710Y-19579D01*
X17000Y-19869D01*
X17290Y-19579D01*
X17290Y-19721D01*
X17071Y-19940D01*
X17361Y-20230D01*
X17452Y-20207D01*
X17519Y-20014D01*
X17519Y-21821D01*
X17445Y-21643D01*
X17298Y-21495D01*
X17290Y-21491D01*
X17290Y-20301D01*
X17000Y-20011D01*
X16929Y-20082D01*
X16929Y-19940D01*
X16639Y-19650D01*
X16548Y-19673D01*
X16481Y-19866D01*
X16492Y-20070D01*
X16548Y-20207D01*
X16639Y-20230D01*
X16929Y-19940D01*
X16929Y-20082D01*
X16710Y-20301D01*
X16733Y-20392D01*
X16926Y-20459D01*
X17130Y-20448D01*
X17267Y-20392D01*
X17290Y-20301D01*
X17290Y-21491D01*
X17105Y-21415D01*
X16896Y-21415D01*
X16703Y-21495D01*
X16555Y-21642D01*
X16475Y-21835D01*
X16475Y-22044D01*
X16555Y-22237D01*
X16702Y-22385D01*
X16895Y-22465D01*
X17104Y-22465D01*
X17297Y-22385D01*
X17445Y-22238D01*
X17525Y-22045D01*
X17525Y-22982D01*
X17376Y-22833D01*
X17165Y-22745D01*
X16936Y-22745D01*
X16725Y-22832D01*
X16563Y-22994D01*
X16475Y-23205D01*
X16475Y-23360D01*
X16275Y-23360D01*
X16275Y-20605D01*
X16275Y-20396D01*
X16195Y-20203D01*
X16048Y-20055D01*
X15855Y-19975D01*
X15646Y-19975D01*
X15453Y-20055D01*
X15305Y-20202D01*
X15225Y-20395D01*
X15225Y-20604D01*
X15305Y-20797D01*
X15452Y-20945D01*
X15645Y-21025D01*
X15854Y-21025D01*
X16047Y-20945D01*
X16195Y-20798D01*
X16275Y-20605D01*
X16275Y-23360D01*
X16019Y-23360D01*
X16004Y-23345D01*
X15919Y-23310D01*
X16004Y-23275D01*
X16158Y-23121D01*
X16242Y-22919D01*
X16242Y-22701D01*
X16158Y-22499D01*
X16004Y-22345D01*
X15919Y-22310D01*
X16004Y-22275D01*
X16158Y-22121D01*
X16242Y-21919D01*
X16242Y-21701D01*
X16158Y-21499D01*
X16004Y-21345D01*
X15802Y-21261D01*
X15584Y-21261D01*
X15278Y-21261D01*
X15076Y-21345D01*
X14950Y-21471D01*
X14950Y-20000D01*
X14916Y-19828D01*
X14916Y-19827D01*
X14818Y-19682D01*
X14318Y-19182D01*
X14173Y-19084D01*
X14025Y-19054D01*
X14025Y-16685D01*
X14025Y-16476D01*
X13945Y-16283D01*
X13798Y-16135D01*
X13605Y-16055D01*
X13396Y-16055D01*
X13242Y-16118D01*
X13242Y-14169D01*
X13242Y-13951D01*
X13239Y-13943D01*
X13239Y-12420D01*
X13239Y-12321D01*
X13239Y-11701D01*
X13201Y-11609D01*
X13131Y-11539D01*
X13040Y-11501D01*
X12941Y-11501D01*
X12041Y-11501D01*
X11949Y-11539D01*
X11879Y-11609D01*
X11853Y-11669D01*
X11854Y-11612D01*
X11854Y-11388D01*
X11853Y-11097D01*
X11815Y-11005D01*
X11745Y-10935D01*
X11654Y-10897D01*
X11555Y-10897D01*
X11362Y-10896D01*
X11300Y-10958D01*
X11300Y-11450D01*
X11792Y-11450D01*
X11854Y-11388D01*
X11854Y-11612D01*
X11792Y-11550D01*
X11300Y-11550D01*
X11300Y-12042D01*
X11362Y-12104D01*
X11555Y-12103D01*
X11654Y-12103D01*
X11745Y-12065D01*
X11815Y-11995D01*
X11841Y-11932D01*
X11841Y-12419D01*
X11879Y-12511D01*
X11949Y-12581D01*
X12040Y-12619D01*
X12071Y-12619D01*
X11990Y-12678D01*
X11875Y-12864D01*
X11858Y-12923D01*
X11905Y-13010D01*
X12440Y-13010D01*
X12490Y-13010D01*
X12590Y-13010D01*
X12640Y-13010D01*
X13175Y-13010D01*
X13222Y-12923D01*
X13205Y-12864D01*
X13090Y-12678D01*
X13008Y-12619D01*
X13039Y-12619D01*
X13131Y-12581D01*
X13201Y-12511D01*
X13239Y-12420D01*
X13239Y-13943D01*
X13158Y-13749D01*
X13004Y-13595D01*
X12924Y-13561D01*
X13090Y-13442D01*
X13205Y-13256D01*
X13222Y-13197D01*
X13175Y-13110D01*
X12640Y-13110D01*
X12590Y-13110D01*
X12490Y-13110D01*
X12440Y-13110D01*
X11905Y-13110D01*
X11858Y-13197D01*
X11875Y-13256D01*
X11990Y-13442D01*
X12155Y-13561D01*
X12076Y-13595D01*
X11922Y-13749D01*
X11838Y-13951D01*
X11838Y-14169D01*
X11922Y-14371D01*
X12076Y-14525D01*
X12155Y-14558D01*
X11990Y-14678D01*
X11875Y-14864D01*
X11858Y-14923D01*
X11905Y-15010D01*
X12440Y-15010D01*
X12490Y-15010D01*
X12590Y-15010D01*
X12640Y-15010D01*
X13175Y-15010D01*
X13222Y-14923D01*
X13205Y-14864D01*
X13090Y-14678D01*
X12924Y-14558D01*
X13004Y-14525D01*
X13158Y-14371D01*
X13242Y-14169D01*
X13242Y-16118D01*
X13222Y-16127D01*
X13222Y-15197D01*
X13175Y-15110D01*
X12590Y-15110D01*
X12590Y-15620D01*
X12700Y-15620D01*
X12913Y-15570D01*
X13090Y-15442D01*
X13205Y-15256D01*
X13222Y-15197D01*
X13222Y-16127D01*
X13203Y-16135D01*
X13055Y-16282D01*
X12975Y-16475D01*
X12975Y-16684D01*
X13055Y-16877D01*
X13202Y-17025D01*
X13395Y-17105D01*
X13604Y-17105D01*
X13797Y-17025D01*
X13945Y-16878D01*
X14025Y-16685D01*
X14025Y-19054D01*
X14000Y-19050D01*
X13450Y-19050D01*
X13278Y-19084D01*
X13229Y-19116D01*
X13131Y-19182D01*
X12863Y-19450D01*
X12743Y-19450D01*
X12743Y-18979D01*
X12732Y-18766D01*
X12672Y-18619D01*
X12578Y-18592D01*
X12508Y-18662D01*
X12508Y-18522D01*
X12490Y-18459D01*
X12490Y-15620D01*
X12490Y-15110D01*
X11905Y-15110D01*
X11858Y-15197D01*
X11875Y-15256D01*
X11990Y-15442D01*
X12167Y-15570D01*
X12380Y-15620D01*
X12490Y-15620D01*
X12490Y-18459D01*
X12481Y-18428D01*
X12279Y-18357D01*
X12066Y-18368D01*
X12019Y-18387D01*
X12019Y-16654D01*
X12008Y-16450D01*
X11952Y-16313D01*
X11861Y-16290D01*
X11571Y-16580D01*
X11861Y-16870D01*
X11952Y-16847D01*
X12019Y-16654D01*
X12019Y-18387D01*
X11919Y-18428D01*
X11892Y-18522D01*
X12200Y-18829D01*
X12508Y-18522D01*
X12508Y-18662D01*
X12271Y-18900D01*
X12578Y-19208D01*
X12672Y-19181D01*
X12743Y-18979D01*
X12743Y-19450D01*
X12702Y-19450D01*
X12641Y-19389D01*
X12550Y-19351D01*
X12487Y-19351D01*
X12508Y-19278D01*
X12200Y-18971D01*
X12129Y-19041D01*
X12129Y-18900D01*
X11822Y-18592D01*
X11790Y-18601D01*
X11790Y-16941D01*
X11500Y-16651D01*
X11429Y-16722D01*
X11429Y-16580D01*
X11139Y-16290D01*
X11048Y-16313D01*
X10981Y-16506D01*
X10992Y-16710D01*
X11048Y-16847D01*
X11139Y-16870D01*
X11429Y-16580D01*
X11429Y-16722D01*
X11210Y-16941D01*
X11233Y-17032D01*
X11426Y-17099D01*
X11630Y-17088D01*
X11767Y-17032D01*
X11790Y-16941D01*
X11790Y-18601D01*
X11728Y-18619D01*
X11657Y-18821D01*
X11668Y-19034D01*
X11728Y-19181D01*
X11822Y-19208D01*
X12129Y-18900D01*
X12129Y-19041D01*
X11892Y-19278D01*
X11912Y-19351D01*
X11851Y-19351D01*
X11759Y-19389D01*
X11689Y-19459D01*
X11651Y-19550D01*
X11651Y-19649D01*
X11651Y-20249D01*
X11689Y-20341D01*
X11759Y-20411D01*
X11850Y-20449D01*
X11949Y-20449D01*
X12549Y-20449D01*
X12641Y-20411D01*
X12702Y-20350D01*
X13050Y-20350D01*
X13222Y-20316D01*
X13223Y-20316D01*
X13271Y-20283D01*
X13225Y-20395D01*
X13225Y-20604D01*
X13305Y-20797D01*
X13452Y-20945D01*
X13645Y-21025D01*
X13854Y-21025D01*
X14047Y-20945D01*
X14050Y-20942D01*
X14050Y-23500D01*
X14084Y-23673D01*
X14182Y-23818D01*
X14492Y-24128D01*
X14637Y-24225D01*
X14638Y-24226D01*
X14810Y-24260D01*
X15061Y-24260D01*
X15076Y-24275D01*
X15160Y-24310D01*
X15076Y-24345D01*
X14922Y-24499D01*
X14838Y-24701D01*
X14838Y-24919D01*
X14922Y-25121D01*
X15076Y-25275D01*
X15278Y-25359D01*
X15496Y-25359D01*
X15802Y-25359D01*
X16004Y-25275D01*
X16158Y-25121D01*
X16242Y-24919D01*
X16242Y-24701D01*
X16158Y-24499D01*
X16004Y-24345D01*
X15919Y-24310D01*
X16004Y-24275D01*
X16019Y-24260D01*
X16373Y-24260D01*
X17681Y-25568D01*
X17682Y-25568D01*
X17779Y-25633D01*
X17827Y-25665D01*
X17828Y-25666D01*
X18000Y-25700D01*
X18500Y-25700D01*
X18672Y-25666D01*
X18673Y-25666D01*
X18818Y-25568D01*
X18956Y-25429D01*
X18985Y-25497D01*
X19132Y-25645D01*
X19325Y-25725D01*
X19534Y-25725D01*
X19727Y-25645D01*
X19875Y-25498D01*
X19952Y-25311D01*
X20032Y-25505D01*
X20194Y-25667D01*
X20405Y-25755D01*
X20634Y-25755D01*
X20845Y-25668D01*
X21007Y-25506D01*
X21095Y-25295D01*
X21095Y-25066D01*
X21047Y-24950D01*
X22992Y-24950D01*
X22945Y-25065D01*
X22945Y-25294D01*
X23032Y-25505D01*
X23194Y-25667D01*
X23405Y-25755D01*
X23634Y-25755D01*
X23845Y-25668D01*
X24007Y-25506D01*
X24095Y-25295D01*
X24095Y-25066D01*
X24043Y-24941D01*
X24172Y-24916D01*
X24173Y-24916D01*
X24318Y-24818D01*
X24374Y-24761D01*
X24431Y-24818D01*
X24432Y-24818D01*
X24529Y-24883D01*
X24577Y-24915D01*
X24578Y-24916D01*
X24750Y-24950D01*
X26020Y-24950D01*
X25965Y-25085D01*
X25965Y-25294D01*
X26045Y-25487D01*
X26192Y-25635D01*
X26385Y-25715D01*
X26594Y-25715D01*
X26787Y-25635D01*
X26935Y-25488D01*
X27015Y-25295D01*
X27015Y-25086D01*
X26958Y-24950D01*
X28000Y-24950D01*
X28022Y-24945D01*
X27965Y-25085D01*
X27965Y-25294D01*
X28045Y-25487D01*
X28192Y-25635D01*
X28385Y-25715D01*
X28594Y-25715D01*
X28787Y-25635D01*
X28935Y-25488D01*
X29015Y-25295D01*
X29015Y-25086D01*
X28935Y-24893D01*
X28788Y-24745D01*
X28595Y-24665D01*
X28471Y-24665D01*
X30608Y-22527D01*
X30618Y-22704D01*
X30678Y-22851D01*
X30772Y-22878D01*
X31044Y-22605D01*
X31079Y-22570D01*
X31150Y-22499D01*
X31221Y-22570D01*
X31256Y-22605D01*
X31528Y-22878D01*
X31622Y-22851D01*
X31693Y-22649D01*
X31682Y-22436D01*
X31622Y-22289D01*
X31583Y-22277D01*
X31616Y-22245D01*
X31571Y-22200D01*
X32000Y-22200D01*
X32172Y-22166D01*
X32173Y-22166D01*
X32318Y-22068D01*
X33568Y-20819D01*
X33568Y-20818D01*
X33569Y-20816D01*
X34018Y-20368D01*
X34818Y-19568D01*
X34836Y-19550D01*
X35214Y-19550D01*
X35382Y-19718D01*
X35527Y-19816D01*
X35700Y-19850D01*
X35872Y-19816D01*
X36018Y-19718D01*
X36116Y-19572D01*
X36150Y-19400D01*
X36116Y-19227D01*
X36018Y-19082D01*
X35986Y-19050D01*
X37041Y-19050D01*
X37041Y-19079D01*
X37041Y-19699D01*
X37079Y-19791D01*
X37149Y-19861D01*
X37240Y-19899D01*
X37271Y-19899D01*
X37190Y-19958D01*
X37075Y-20144D01*
X37058Y-20203D01*
X37105Y-20290D01*
X37640Y-20290D01*
X37690Y-20290D01*
X37790Y-20290D01*
X37840Y-20290D01*
X38375Y-20290D01*
X38422Y-20203D01*
X38405Y-20144D01*
X38290Y-19958D01*
X38208Y-19899D01*
X38239Y-19899D01*
X38331Y-19861D01*
X38401Y-19791D01*
X38439Y-19700D01*
X38439Y-19601D01*
X38439Y-19050D01*
X40113Y-19050D01*
X40038Y-19231D01*
X40038Y-19449D01*
X40122Y-19651D01*
X40276Y-19805D01*
X40360Y-19840D01*
X40276Y-19875D01*
X40122Y-20029D01*
X40038Y-20231D01*
X40038Y-20449D01*
X40122Y-20651D01*
X40276Y-20805D01*
X40360Y-20840D01*
X40276Y-20875D01*
X40122Y-21029D01*
X40038Y-21231D01*
X40038Y-21449D01*
X40122Y-21651D01*
X40276Y-21805D01*
X40360Y-21840D01*
X40276Y-21875D01*
X40122Y-22029D01*
X40038Y-22231D01*
X40038Y-22449D01*
X40122Y-22651D01*
X40276Y-22805D01*
X40360Y-22840D01*
X40276Y-22875D01*
X40122Y-23029D01*
X40038Y-23231D01*
X40038Y-23449D01*
X40122Y-23651D01*
X40276Y-23805D01*
X40360Y-23840D01*
X40276Y-23875D01*
X40122Y-24029D01*
X40038Y-24231D01*
X40038Y-24449D01*
X40122Y-24651D01*
X40276Y-24805D01*
X40360Y-24840D01*
X40276Y-24875D01*
X40122Y-25029D01*
X40038Y-25231D01*
X40038Y-25449D01*
X40122Y-25651D01*
X40276Y-25805D01*
X40478Y-25889D01*
X40696Y-25889D01*
X41002Y-25889D01*
X41204Y-25805D01*
X41358Y-25651D01*
X41442Y-25449D01*
X41442Y-25231D01*
X41358Y-25029D01*
X41204Y-24875D01*
X41119Y-24840D01*
X41204Y-24805D01*
X41358Y-24651D01*
X41442Y-24449D01*
X41442Y-24231D01*
X41358Y-24029D01*
X41204Y-23875D01*
X41119Y-23840D01*
X41204Y-23805D01*
X41358Y-23651D01*
X41442Y-23449D01*
X41442Y-23231D01*
X41358Y-23029D01*
X41204Y-22875D01*
X41119Y-22840D01*
X41204Y-22805D01*
X41358Y-22651D01*
X41442Y-22449D01*
X41442Y-22231D01*
X41358Y-22029D01*
X41204Y-21875D01*
X41119Y-21840D01*
X41204Y-21805D01*
X41358Y-21651D01*
X41442Y-21449D01*
X41442Y-21231D01*
X41358Y-21029D01*
X41204Y-20875D01*
X41119Y-20840D01*
X41204Y-20805D01*
X41358Y-20651D01*
X41442Y-20449D01*
X41442Y-20231D01*
X41358Y-20029D01*
X41204Y-19875D01*
X41119Y-19840D01*
X41204Y-19805D01*
X41358Y-19651D01*
X41442Y-19449D01*
X41442Y-19231D01*
X41366Y-19050D01*
X41508Y-19050D01*
X41465Y-19155D01*
X41465Y-19384D01*
X41552Y-19595D01*
X41714Y-19757D01*
X41925Y-19845D01*
X42154Y-19845D01*
X42365Y-19758D01*
X42527Y-19596D01*
X42615Y-19385D01*
X42615Y-19156D01*
X42571Y-19050D01*
X42913Y-19050D01*
X43181Y-19318D01*
X43182Y-19318D01*
X43183Y-19319D01*
X43451Y-19587D01*
X43451Y-19629D01*
X43535Y-19831D01*
X43675Y-19971D01*
X43651Y-19971D01*
X43559Y-20009D01*
X43489Y-20079D01*
X43451Y-20170D01*
X43451Y-20269D01*
X43451Y-20869D01*
X43489Y-20961D01*
X43559Y-21031D01*
X43650Y-21069D01*
X43749Y-21069D01*
X44295Y-21069D01*
X43682Y-21682D01*
X43584Y-21827D01*
X43550Y-22000D01*
X43550Y-22248D01*
X43489Y-22309D01*
X43451Y-22400D01*
X43451Y-22499D01*
X43451Y-23099D01*
X43489Y-23191D01*
X43559Y-23261D01*
X43650Y-23299D01*
X43712Y-23299D01*
X43692Y-23372D01*
X44000Y-23679D01*
X44308Y-23372D01*
X44287Y-23299D01*
X44349Y-23299D01*
X44441Y-23261D01*
X44511Y-23191D01*
X44549Y-23100D01*
X44549Y-23001D01*
X44549Y-22401D01*
X44511Y-22309D01*
X44450Y-22248D01*
X44450Y-22186D01*
X45318Y-21318D01*
X45416Y-21173D01*
X45416Y-21172D01*
X45450Y-21000D01*
X45450Y-25729D01*
X45437Y-25735D01*
X45404Y-25834D01*
X45715Y-26144D01*
X45750Y-26179D01*
X45821Y-26250D01*
X45750Y-26321D01*
X45679Y-26391D01*
X45679Y-26250D01*
X45334Y-25904D01*
X45235Y-25937D01*
X45154Y-26157D01*
X45164Y-26392D01*
X45235Y-26563D01*
X45334Y-26596D01*
X45679Y-26250D01*
X45679Y-26391D01*
X45404Y-26666D01*
X45437Y-26765D01*
X45657Y-26846D01*
X45892Y-26836D01*
X46063Y-26765D01*
X46078Y-26719D01*
X46096Y-26737D01*
X46113Y-26755D01*
X46166Y-26701D01*
X46185Y-26745D01*
X46255Y-26815D01*
X46346Y-26853D01*
X46445Y-26853D01*
X47153Y-26853D01*
X47245Y-26815D01*
X47315Y-26745D01*
X47353Y-26654D01*
X47353Y-26925D01*
X46096Y-26925D01*
X45103Y-26925D01*
X45103Y-26654D01*
X45103Y-26555D01*
X45103Y-25847D01*
X45065Y-25755D01*
X44995Y-25685D01*
X44904Y-25647D01*
X44805Y-25647D01*
X44543Y-25647D01*
X44543Y-23829D01*
X44532Y-23616D01*
X44472Y-23469D01*
X44378Y-23442D01*
X44071Y-23750D01*
X44378Y-24058D01*
X44472Y-24031D01*
X44543Y-23829D01*
X44543Y-25647D01*
X44308Y-25647D01*
X44308Y-24128D01*
X44000Y-23821D01*
X43929Y-23891D01*
X43929Y-23750D01*
X43622Y-23442D01*
X43528Y-23469D01*
X43457Y-23671D01*
X43468Y-23884D01*
X43528Y-24031D01*
X43622Y-24058D01*
X43929Y-23750D01*
X43929Y-23891D01*
X43692Y-24128D01*
X43719Y-24222D01*
X43921Y-24293D01*
X44134Y-24282D01*
X44281Y-24222D01*
X44308Y-24128D01*
X44308Y-25647D01*
X44097Y-25647D01*
X44005Y-25685D01*
X43935Y-25755D01*
X43912Y-25809D01*
X43842Y-25739D01*
X43621Y-25647D01*
X43381Y-25647D01*
X43159Y-25738D01*
X42989Y-25908D01*
X42897Y-26129D01*
X42897Y-26369D01*
X42988Y-26591D01*
X43158Y-26761D01*
X43379Y-26853D01*
X43619Y-26853D01*
X43841Y-26762D01*
X43912Y-26690D01*
X43935Y-26745D01*
X44005Y-26815D01*
X44096Y-26853D01*
X44195Y-26853D01*
X44903Y-26853D01*
X44995Y-26815D01*
X45065Y-26745D01*
X45103Y-26654D01*
X45103Y-26925D01*
X42178Y-26925D01*
X42365Y-26848D01*
X42527Y-26686D01*
X42615Y-26475D01*
X42615Y-26246D01*
X42615Y-23475D01*
X42615Y-23246D01*
X42528Y-23035D01*
X42366Y-22873D01*
X42226Y-22814D01*
X42365Y-22758D01*
X42527Y-22596D01*
X42615Y-22385D01*
X42615Y-22156D01*
X42528Y-21945D01*
X42366Y-21783D01*
X42155Y-21695D01*
X41926Y-21695D01*
X41715Y-21782D01*
X41553Y-21944D01*
X41465Y-22155D01*
X41465Y-22384D01*
X41552Y-22595D01*
X41714Y-22757D01*
X41853Y-22815D01*
X41715Y-22872D01*
X41553Y-23034D01*
X41465Y-23245D01*
X41465Y-23474D01*
X41552Y-23685D01*
X41714Y-23847D01*
X41925Y-23935D01*
X42154Y-23935D01*
X42365Y-23848D01*
X42527Y-23686D01*
X42615Y-23475D01*
X42615Y-26246D01*
X42528Y-26035D01*
X42366Y-25873D01*
X42155Y-25785D01*
X41926Y-25785D01*
X41715Y-25872D01*
X41553Y-26034D01*
X41465Y-26245D01*
X41465Y-26298D01*
X41463Y-26300D01*
X39686Y-26300D01*
X39068Y-25682D01*
X38923Y-25584D01*
X38750Y-25550D01*
X38396Y-25550D01*
X38405Y-25536D01*
X38422Y-25477D01*
X38375Y-25390D01*
X37840Y-25390D01*
X37790Y-25390D01*
X37690Y-25390D01*
X37690Y-25290D01*
X37790Y-25290D01*
X37840Y-25290D01*
X38375Y-25290D01*
X38422Y-25203D01*
X38405Y-25144D01*
X38290Y-24958D01*
X38124Y-24838D01*
X38204Y-24805D01*
X38358Y-24651D01*
X38442Y-24449D01*
X38442Y-24231D01*
X38358Y-24029D01*
X38204Y-23875D01*
X38119Y-23840D01*
X38204Y-23805D01*
X38358Y-23651D01*
X38442Y-23449D01*
X38442Y-23231D01*
X38358Y-23029D01*
X38204Y-22875D01*
X38119Y-22840D01*
X38204Y-22805D01*
X38358Y-22651D01*
X38442Y-22449D01*
X38442Y-22231D01*
X38358Y-22029D01*
X38204Y-21875D01*
X38119Y-21840D01*
X38204Y-21805D01*
X38358Y-21651D01*
X38442Y-21449D01*
X38442Y-21231D01*
X38358Y-21029D01*
X38204Y-20875D01*
X38124Y-20841D01*
X38290Y-20722D01*
X38405Y-20536D01*
X38422Y-20477D01*
X38375Y-20390D01*
X37840Y-20390D01*
X37790Y-20390D01*
X37690Y-20390D01*
X37640Y-20390D01*
X37105Y-20390D01*
X37058Y-20477D01*
X37075Y-20536D01*
X37190Y-20722D01*
X37355Y-20841D01*
X37276Y-20875D01*
X37122Y-21029D01*
X37038Y-21231D01*
X37038Y-21449D01*
X37122Y-21651D01*
X37276Y-21805D01*
X37360Y-21840D01*
X37276Y-21875D01*
X37122Y-22029D01*
X37089Y-22108D01*
X37089Y-21854D01*
X37078Y-21650D01*
X37022Y-21513D01*
X36931Y-21490D01*
X36860Y-21561D01*
X36860Y-21419D01*
X36837Y-21328D01*
X36644Y-21261D01*
X36440Y-21272D01*
X36303Y-21328D01*
X36280Y-21419D01*
X36570Y-21709D01*
X36860Y-21419D01*
X36860Y-21561D01*
X36641Y-21780D01*
X36931Y-22070D01*
X37022Y-22047D01*
X37089Y-21854D01*
X37089Y-22108D01*
X37038Y-22231D01*
X37038Y-22449D01*
X37122Y-22651D01*
X37276Y-22805D01*
X37360Y-22840D01*
X37276Y-22875D01*
X37122Y-23029D01*
X37069Y-23156D01*
X37138Y-22964D01*
X37126Y-22741D01*
X37062Y-22584D01*
X36966Y-22555D01*
X36895Y-22626D01*
X36895Y-22484D01*
X36866Y-22388D01*
X36860Y-22385D01*
X36860Y-22141D01*
X36570Y-21851D01*
X36499Y-21922D01*
X36499Y-21780D01*
X36209Y-21490D01*
X36118Y-21513D01*
X36051Y-21706D01*
X36062Y-21910D01*
X36118Y-22047D01*
X36209Y-22070D01*
X36499Y-21780D01*
X36499Y-21922D01*
X36280Y-22141D01*
X36303Y-22232D01*
X36496Y-22299D01*
X36700Y-22288D01*
X36837Y-22232D01*
X36860Y-22141D01*
X36860Y-22385D01*
X36654Y-22312D01*
X36431Y-22324D01*
X36274Y-22388D01*
X36245Y-22484D01*
X36570Y-22809D01*
X36895Y-22484D01*
X36895Y-22626D01*
X36641Y-22880D01*
X36966Y-23205D01*
X37060Y-23176D01*
X37038Y-23231D01*
X37038Y-23449D01*
X37122Y-23651D01*
X37276Y-23805D01*
X37360Y-23840D01*
X37276Y-23875D01*
X37122Y-24029D01*
X37038Y-24231D01*
X37038Y-24449D01*
X37122Y-24651D01*
X37276Y-24805D01*
X37355Y-24838D01*
X37190Y-24958D01*
X37130Y-25053D01*
X37078Y-24925D01*
X36916Y-24763D01*
X36895Y-24754D01*
X36895Y-23276D01*
X36570Y-22951D01*
X36499Y-23022D01*
X36499Y-22880D01*
X36174Y-22555D01*
X36078Y-22584D01*
X36002Y-22796D01*
X36014Y-23019D01*
X36078Y-23176D01*
X36174Y-23205D01*
X36499Y-22880D01*
X36499Y-23022D01*
X36245Y-23276D01*
X36274Y-23372D01*
X36486Y-23448D01*
X36709Y-23436D01*
X36866Y-23372D01*
X36895Y-23276D01*
X36895Y-24754D01*
X36705Y-24675D01*
X36476Y-24675D01*
X36265Y-24762D01*
X36145Y-24882D01*
X36145Y-24165D01*
X36145Y-23956D01*
X36065Y-23763D01*
X35918Y-23615D01*
X35725Y-23535D01*
X35516Y-23535D01*
X35323Y-23615D01*
X35175Y-23762D01*
X35095Y-23955D01*
X35095Y-24164D01*
X35175Y-24357D01*
X35322Y-24505D01*
X35515Y-24585D01*
X35724Y-24585D01*
X35917Y-24505D01*
X36065Y-24358D01*
X36145Y-24165D01*
X36145Y-24882D01*
X36103Y-24924D01*
X36015Y-25135D01*
X36015Y-25364D01*
X36091Y-25550D01*
X34750Y-25550D01*
X34578Y-25584D01*
X34529Y-25616D01*
X34431Y-25682D01*
X34165Y-25948D01*
X34165Y-25365D01*
X34165Y-25136D01*
X34078Y-24925D01*
X33916Y-24763D01*
X33705Y-24675D01*
X33476Y-24675D01*
X33265Y-24762D01*
X33103Y-24924D01*
X33015Y-25135D01*
X33015Y-25364D01*
X33102Y-25575D01*
X33264Y-25737D01*
X33475Y-25825D01*
X33704Y-25825D01*
X33915Y-25738D01*
X34077Y-25576D01*
X34165Y-25365D01*
X34165Y-25948D01*
X33883Y-26230D01*
X33845Y-26230D01*
X33665Y-26155D01*
X33456Y-26155D01*
X33263Y-26235D01*
X33115Y-26382D01*
X33035Y-26575D01*
X33035Y-26784D01*
X33093Y-26925D01*
X31974Y-26925D01*
X31974Y-26846D01*
X31974Y-26296D01*
X31936Y-26204D01*
X31866Y-26134D01*
X31775Y-26096D01*
X31676Y-26096D01*
X31672Y-26096D01*
X31747Y-26065D01*
X31895Y-25918D01*
X31975Y-25725D01*
X31975Y-25516D01*
X31900Y-25335D01*
X31900Y-25186D01*
X33095Y-23991D01*
X33095Y-24164D01*
X33175Y-24357D01*
X33322Y-24505D01*
X33515Y-24585D01*
X33724Y-24585D01*
X33917Y-24505D01*
X34065Y-24358D01*
X34145Y-24165D01*
X34145Y-23956D01*
X34065Y-23763D01*
X33918Y-23615D01*
X33725Y-23535D01*
X33551Y-23535D01*
X33631Y-23455D01*
X33684Y-23455D01*
X33895Y-23368D01*
X34057Y-23206D01*
X34145Y-22995D01*
X34145Y-22766D01*
X34094Y-22642D01*
X34094Y-22105D01*
X34094Y-22006D01*
X34094Y-21456D01*
X34056Y-21364D01*
X33986Y-21294D01*
X33895Y-21256D01*
X33796Y-21256D01*
X33246Y-21256D01*
X33154Y-21294D01*
X33084Y-21364D01*
X33046Y-21455D01*
X33046Y-21554D01*
X33046Y-22104D01*
X33084Y-22196D01*
X33154Y-22266D01*
X33245Y-22304D01*
X33344Y-22304D01*
X33894Y-22304D01*
X33986Y-22266D01*
X34056Y-22196D01*
X34094Y-22105D01*
X34094Y-22642D01*
X34058Y-22555D01*
X33896Y-22393D01*
X33685Y-22305D01*
X33456Y-22305D01*
X33245Y-22392D01*
X33083Y-22554D01*
X32995Y-22765D01*
X32995Y-22819D01*
X31699Y-24115D01*
X31699Y-23920D01*
X31699Y-23821D01*
X31699Y-23221D01*
X31693Y-23206D01*
X31661Y-23129D01*
X31591Y-23059D01*
X31500Y-23021D01*
X31437Y-23021D01*
X31458Y-22948D01*
X31150Y-22641D01*
X30842Y-22948D01*
X30862Y-23021D01*
X30801Y-23021D01*
X30709Y-23059D01*
X30639Y-23129D01*
X30601Y-23220D01*
X30601Y-23319D01*
X30601Y-23919D01*
X30639Y-24011D01*
X30709Y-24081D01*
X30800Y-24119D01*
X30899Y-24119D01*
X31499Y-24119D01*
X31591Y-24081D01*
X31661Y-24011D01*
X31699Y-23920D01*
X31699Y-24115D01*
X31132Y-24682D01*
X31034Y-24827D01*
X31000Y-25000D01*
X31000Y-25334D01*
X30946Y-25462D01*
X30902Y-25353D01*
X30811Y-25330D01*
X30740Y-25401D01*
X30740Y-25259D01*
X30717Y-25168D01*
X30524Y-25101D01*
X30320Y-25112D01*
X30183Y-25168D01*
X30160Y-25259D01*
X30450Y-25549D01*
X30740Y-25259D01*
X30740Y-25401D01*
X30521Y-25620D01*
X30811Y-25910D01*
X30902Y-25887D01*
X30943Y-25768D01*
X31005Y-25917D01*
X31152Y-26065D01*
X31226Y-26096D01*
X31126Y-26096D01*
X31034Y-26134D01*
X30964Y-26204D01*
X30926Y-26295D01*
X30926Y-26394D01*
X30926Y-26925D01*
X30740Y-26925D01*
X30740Y-25981D01*
X30450Y-25691D01*
X30379Y-25762D01*
X30379Y-25620D01*
X30089Y-25330D01*
X29998Y-25353D01*
X29931Y-25546D01*
X29942Y-25750D01*
X29998Y-25887D01*
X30089Y-25910D01*
X30379Y-25620D01*
X30379Y-25762D01*
X30160Y-25981D01*
X30183Y-26072D01*
X30376Y-26139D01*
X30580Y-26128D01*
X30717Y-26072D01*
X30740Y-25981D01*
X30740Y-26925D01*
X29105Y-26925D01*
X29105Y-26425D01*
X29105Y-26196D01*
X29018Y-25985D01*
X28856Y-25823D01*
X28645Y-25735D01*
X28416Y-25735D01*
X28205Y-25822D01*
X28043Y-25984D01*
X27955Y-26195D01*
X27955Y-26424D01*
X28042Y-26635D01*
X28204Y-26797D01*
X28415Y-26885D01*
X28644Y-26885D01*
X28855Y-26798D01*
X29017Y-26636D01*
X29105Y-26425D01*
X29105Y-26925D01*
X26105Y-26925D01*
X26105Y-26425D01*
X26105Y-26196D01*
X26018Y-25985D01*
X25856Y-25823D01*
X25645Y-25735D01*
X25416Y-25735D01*
X25205Y-25822D01*
X25043Y-25984D01*
X24955Y-26195D01*
X24955Y-26424D01*
X25042Y-26635D01*
X25204Y-26797D01*
X25415Y-26885D01*
X25644Y-26885D01*
X25855Y-26798D01*
X26017Y-26636D01*
X26105Y-26425D01*
X26105Y-26925D01*
X22005Y-26925D01*
X22005Y-26435D01*
X22005Y-26226D01*
X21925Y-26033D01*
X21778Y-25885D01*
X21585Y-25805D01*
X21376Y-25805D01*
X21183Y-25885D01*
X21035Y-26032D01*
X20955Y-26225D01*
X20955Y-26434D01*
X21035Y-26627D01*
X21182Y-26775D01*
X21375Y-26855D01*
X21584Y-26855D01*
X21777Y-26775D01*
X21925Y-26628D01*
X22005Y-26435D01*
X22005Y-26925D01*
X20005Y-26925D01*
X20005Y-26435D01*
X20005Y-26226D01*
X19925Y-26033D01*
X19778Y-25885D01*
X19585Y-25805D01*
X19376Y-25805D01*
X19183Y-25885D01*
X19035Y-26032D01*
X18955Y-26225D01*
X18955Y-26434D01*
X19035Y-26627D01*
X19182Y-26775D01*
X19375Y-26855D01*
X19584Y-26855D01*
X19777Y-26775D01*
X19925Y-26628D01*
X20005Y-26435D01*
X20005Y-26925D01*
X18775Y-26925D01*
X18775Y-26425D01*
X18775Y-26216D01*
X18695Y-26023D01*
X18548Y-25875D01*
X18355Y-25795D01*
X18146Y-25795D01*
X17953Y-25875D01*
X17805Y-26022D01*
X17725Y-26215D01*
X17725Y-26424D01*
X17805Y-26617D01*
X17952Y-26765D01*
X18145Y-26845D01*
X18354Y-26845D01*
X18547Y-26765D01*
X18695Y-26618D01*
X18775Y-26425D01*
X18775Y-26925D01*
X17625Y-26925D01*
X17625Y-26435D01*
X17625Y-26206D01*
X17538Y-25995D01*
X17376Y-25833D01*
X17165Y-25745D01*
X16936Y-25745D01*
X16725Y-25832D01*
X16563Y-25994D01*
X16475Y-26205D01*
X16475Y-26434D01*
X16562Y-26645D01*
X16724Y-26807D01*
X16935Y-26895D01*
X17164Y-26895D01*
X17375Y-26808D01*
X17537Y-26646D01*
X17625Y-26435D01*
X17625Y-26925D01*
X14025Y-26925D01*
X14025Y-26435D01*
X14025Y-26226D01*
X13945Y-26033D01*
X13798Y-25885D01*
X13605Y-25805D01*
X13396Y-25805D01*
X13242Y-25868D01*
X13242Y-23919D01*
X13242Y-23701D01*
X13239Y-23693D01*
X13239Y-22170D01*
X13239Y-22071D01*
X13239Y-21451D01*
X13201Y-21359D01*
X13131Y-21289D01*
X13040Y-21251D01*
X12941Y-21251D01*
X12041Y-21251D01*
X11949Y-21289D01*
X11879Y-21359D01*
X11853Y-21419D01*
X11854Y-21362D01*
X11854Y-21138D01*
X11853Y-20847D01*
X11815Y-20755D01*
X11745Y-20685D01*
X11654Y-20647D01*
X11555Y-20647D01*
X11362Y-20646D01*
X11300Y-20708D01*
X11300Y-21200D01*
X11792Y-21200D01*
X11854Y-21138D01*
X11854Y-21362D01*
X11792Y-21300D01*
X11300Y-21300D01*
X11300Y-21792D01*
X11362Y-21854D01*
X11555Y-21853D01*
X11654Y-21853D01*
X11745Y-21815D01*
X11815Y-21745D01*
X11841Y-21682D01*
X11841Y-22169D01*
X11879Y-22261D01*
X11949Y-22331D01*
X12040Y-22369D01*
X12071Y-22369D01*
X11990Y-22428D01*
X11875Y-22614D01*
X11858Y-22673D01*
X11905Y-22760D01*
X12440Y-22760D01*
X12490Y-22760D01*
X12590Y-22760D01*
X12640Y-22760D01*
X13175Y-22760D01*
X13222Y-22673D01*
X13205Y-22614D01*
X13090Y-22428D01*
X13008Y-22369D01*
X13039Y-22369D01*
X13131Y-22331D01*
X13201Y-22261D01*
X13239Y-22170D01*
X13239Y-23693D01*
X13158Y-23499D01*
X13004Y-23345D01*
X12924Y-23311D01*
X13090Y-23192D01*
X13205Y-23006D01*
X13222Y-22947D01*
X13175Y-22860D01*
X12640Y-22860D01*
X12590Y-22860D01*
X12490Y-22860D01*
X12440Y-22860D01*
X11905Y-22860D01*
X11858Y-22947D01*
X11875Y-23006D01*
X11990Y-23192D01*
X12155Y-23311D01*
X12076Y-23345D01*
X11922Y-23499D01*
X11838Y-23701D01*
X11838Y-23919D01*
X11922Y-24121D01*
X12076Y-24275D01*
X12155Y-24308D01*
X11990Y-24428D01*
X11875Y-24614D01*
X11858Y-24673D01*
X11905Y-24760D01*
X12440Y-24760D01*
X12490Y-24760D01*
X12590Y-24760D01*
X12640Y-24760D01*
X13175Y-24760D01*
X13222Y-24673D01*
X13205Y-24614D01*
X13090Y-24428D01*
X12924Y-24308D01*
X13004Y-24275D01*
X13158Y-24121D01*
X13242Y-23919D01*
X13242Y-25868D01*
X13222Y-25877D01*
X13222Y-24947D01*
X13175Y-24860D01*
X12590Y-24860D01*
X12590Y-25370D01*
X12700Y-25370D01*
X12913Y-25320D01*
X13090Y-25192D01*
X13205Y-25006D01*
X13222Y-24947D01*
X13222Y-25877D01*
X13203Y-25885D01*
X13055Y-26032D01*
X12975Y-26225D01*
X12975Y-26434D01*
X13055Y-26627D01*
X13202Y-26775D01*
X13395Y-26855D01*
X13604Y-26855D01*
X13797Y-26775D01*
X13945Y-26628D01*
X14025Y-26435D01*
X14025Y-26925D01*
X12490Y-26925D01*
X12490Y-25370D01*
X12490Y-24860D01*
X11905Y-24860D01*
X11858Y-24947D01*
X11875Y-25006D01*
X11990Y-25192D01*
X12167Y-25320D01*
X12380Y-25370D01*
X12490Y-25370D01*
X12490Y-26925D01*
X12019Y-26925D01*
X12019Y-26404D01*
X12008Y-26200D01*
X11952Y-26063D01*
X11861Y-26040D01*
X11571Y-26330D01*
X11861Y-26620D01*
X11952Y-26597D01*
X12019Y-26404D01*
X12019Y-26925D01*
X11790Y-26925D01*
X11790Y-26691D01*
X11500Y-26401D01*
X11429Y-26472D01*
X11429Y-26330D01*
X11139Y-26040D01*
X11048Y-26063D01*
X10981Y-26256D01*
X10992Y-26460D01*
X11048Y-26597D01*
X11139Y-26620D01*
X11429Y-26330D01*
X11429Y-26472D01*
X11210Y-26691D01*
X11233Y-26782D01*
X11426Y-26849D01*
X11630Y-26838D01*
X11767Y-26782D01*
X11790Y-26691D01*
X11790Y-26925D01*
X10825Y-26925D01*
X10825Y-25678D01*
X10908Y-25761D01*
X11129Y-25853D01*
X11294Y-25853D01*
X11233Y-25878D01*
X11210Y-25969D01*
X11500Y-26259D01*
X11790Y-25969D01*
X11767Y-25878D01*
X11574Y-25811D01*
X11455Y-25817D01*
X11591Y-25762D01*
X11761Y-25592D01*
X11853Y-25371D01*
X11853Y-25131D01*
X11762Y-24909D01*
X11592Y-24739D01*
X11371Y-24647D01*
X11131Y-24647D01*
X10909Y-24738D01*
X10825Y-24822D01*
X10825Y-21844D01*
X10846Y-21853D01*
X10945Y-21853D01*
X11138Y-21854D01*
X11200Y-21792D01*
X11200Y-21350D01*
X11200Y-21300D01*
X11200Y-21200D01*
X11200Y-21150D01*
X11200Y-20708D01*
X11138Y-20646D01*
X10945Y-20647D01*
X10846Y-20647D01*
X10825Y-20655D01*
X10825Y-15928D01*
X10908Y-16011D01*
X11129Y-16103D01*
X11294Y-16103D01*
X11233Y-16128D01*
X11210Y-16219D01*
X11500Y-16509D01*
X11790Y-16219D01*
X11767Y-16128D01*
X11574Y-16061D01*
X11455Y-16067D01*
X11591Y-16012D01*
X11761Y-15842D01*
X11853Y-15621D01*
X11853Y-15381D01*
X11762Y-15159D01*
X11592Y-14989D01*
X11371Y-14897D01*
X11131Y-14897D01*
X10909Y-14988D01*
X10825Y-15072D01*
X10825Y-12094D01*
X10846Y-12103D01*
X10945Y-12103D01*
X11138Y-12104D01*
X11200Y-12042D01*
X11200Y-11600D01*
X11200Y-11550D01*
X11200Y-11450D01*
X11200Y-11400D01*
X11200Y-10958D01*
X11138Y-10896D01*
X10945Y-10897D01*
X10846Y-10897D01*
X10825Y-10905D01*
X10825Y-08575D01*
X16189Y-08575D01*
X16132Y-08736D01*
X16144Y-08959D01*
X16208Y-09116D01*
X16304Y-09145D01*
X16594Y-08855D01*
X16629Y-08820D01*
X16700Y-08749D01*
X16771Y-08820D01*
X16806Y-08855D01*
X17096Y-09145D01*
X17192Y-09116D01*
X17268Y-08904D01*
X17256Y-08681D01*
X17212Y-08575D01*
X19179Y-08575D01*
X19125Y-08705D01*
X19125Y-08934D01*
X19212Y-09145D01*
X19374Y-09307D01*
X19585Y-09395D01*
X19814Y-09395D01*
X20025Y-09308D01*
X20187Y-09146D01*
X20275Y-08935D01*
X20275Y-08706D01*
X20220Y-08575D01*
X21343Y-08575D01*
X21285Y-08715D01*
X21285Y-08924D01*
X21365Y-09117D01*
X21512Y-09265D01*
X21705Y-09345D01*
X21914Y-09345D01*
X22107Y-09265D01*
X22255Y-09118D01*
X22335Y-08925D01*
X22335Y-08716D01*
X22276Y-08575D01*
X23343Y-08575D01*
X23285Y-08715D01*
X23285Y-08924D01*
X23365Y-09117D01*
X23512Y-09265D01*
X23705Y-09345D01*
X23914Y-09345D01*
X24107Y-09265D01*
X24255Y-09118D01*
X24335Y-08925D01*
X24335Y-08716D01*
X24276Y-08575D01*
X25233Y-08575D01*
X25175Y-08715D01*
X25175Y-08924D01*
X25255Y-09117D01*
X25402Y-09265D01*
X25595Y-09345D01*
X25804Y-09345D01*
X25997Y-09265D01*
X26145Y-09118D01*
X26225Y-08925D01*
X26225Y-08716D01*
X26166Y-08575D01*
X27233Y-08575D01*
X27175Y-08715D01*
X27175Y-08924D01*
X27255Y-09117D01*
X27402Y-09265D01*
X27595Y-09345D01*
X27804Y-09345D01*
X27997Y-09265D01*
X28145Y-09118D01*
X28225Y-08925D01*
X28225Y-08716D01*
X28166Y-08575D01*
X33838Y-08575D01*
X33049Y-09364D01*
X33049Y-09241D01*
X32950Y-09002D01*
X32768Y-08820D01*
X32529Y-08721D01*
X32271Y-08721D01*
X32032Y-08820D01*
X31850Y-09002D01*
X31751Y-09241D01*
X31751Y-09499D01*
X31850Y-09738D01*
X32032Y-09920D01*
X32271Y-10019D01*
X32394Y-10019D01*
X32049Y-10364D01*
X32049Y-10241D01*
X31950Y-10002D01*
X31768Y-09820D01*
X31529Y-09721D01*
X31271Y-09721D01*
X31049Y-09812D01*
X31049Y-09499D01*
X31049Y-09241D01*
X30950Y-09002D01*
X30768Y-08820D01*
X30529Y-08721D01*
X30271Y-08721D01*
X30032Y-08820D01*
X29850Y-09002D01*
X29751Y-09241D01*
X29751Y-09499D01*
X29850Y-09738D01*
X30032Y-09920D01*
X30271Y-10019D01*
X30529Y-10019D01*
X30768Y-09920D01*
X30950Y-09738D01*
X31049Y-09499D01*
X31049Y-09812D01*
X31032Y-09820D01*
X30850Y-10002D01*
X30751Y-10241D01*
X30751Y-10499D01*
X30850Y-10738D01*
X30912Y-10800D01*
X30750Y-10800D01*
X30500Y-10800D01*
X30355Y-10828D01*
X30327Y-10834D01*
X30182Y-10932D01*
X28814Y-12300D01*
X28745Y-12300D01*
X28745Y-10005D01*
X28745Y-09776D01*
X28658Y-09565D01*
X28496Y-09403D01*
X28285Y-09315D01*
X28056Y-09315D01*
X27845Y-09402D01*
X27683Y-09564D01*
X27595Y-09775D01*
X27595Y-10004D01*
X27682Y-10215D01*
X27844Y-10377D01*
X28055Y-10465D01*
X28284Y-10465D01*
X28495Y-10378D01*
X28657Y-10216D01*
X28745Y-10005D01*
X28745Y-12300D01*
X27979Y-12300D01*
X27979Y-11252D01*
X27979Y-11034D01*
X27979Y-10728D01*
X27895Y-10526D01*
X27741Y-10372D01*
X27539Y-10288D01*
X27321Y-10288D01*
X27119Y-10372D01*
X26965Y-10526D01*
X26930Y-10610D01*
X26895Y-10526D01*
X26741Y-10372D01*
X26539Y-10288D01*
X26321Y-10288D01*
X26119Y-10372D01*
X25965Y-10526D01*
X25930Y-10610D01*
X25895Y-10526D01*
X25741Y-10372D01*
X25571Y-10301D01*
X25657Y-10216D01*
X25745Y-10005D01*
X25745Y-09776D01*
X25658Y-09565D01*
X25496Y-09403D01*
X25285Y-09315D01*
X25056Y-09315D01*
X24845Y-09402D01*
X24683Y-09564D01*
X24595Y-09775D01*
X24595Y-10004D01*
X24682Y-10215D01*
X24844Y-10377D01*
X25034Y-10456D01*
X24965Y-10526D01*
X24931Y-10605D01*
X24812Y-10440D01*
X24626Y-10325D01*
X24567Y-10308D01*
X24480Y-10355D01*
X24480Y-10890D01*
X24480Y-10940D01*
X24480Y-11040D01*
X24480Y-11090D01*
X24480Y-11625D01*
X24567Y-11672D01*
X24626Y-11655D01*
X24812Y-11540D01*
X24931Y-11374D01*
X24965Y-11454D01*
X25119Y-11608D01*
X25321Y-11692D01*
X25539Y-11692D01*
X25741Y-11608D01*
X25895Y-11454D01*
X25930Y-11369D01*
X25965Y-11454D01*
X26119Y-11608D01*
X26321Y-11692D01*
X26539Y-11692D01*
X26741Y-11608D01*
X26895Y-11454D01*
X26930Y-11369D01*
X26965Y-11454D01*
X27119Y-11608D01*
X27321Y-11692D01*
X27539Y-11692D01*
X27741Y-11608D01*
X27895Y-11454D01*
X27979Y-11252D01*
X27979Y-12300D01*
X27750Y-12300D01*
X24380Y-12300D01*
X24380Y-11625D01*
X24380Y-11090D01*
X24380Y-11040D01*
X24380Y-10940D01*
X24380Y-10890D01*
X24380Y-10355D01*
X24293Y-10308D01*
X24234Y-10325D01*
X24048Y-10440D01*
X23928Y-10605D01*
X23895Y-10526D01*
X23784Y-10415D01*
X23934Y-10415D01*
X24127Y-10335D01*
X24275Y-10188D01*
X24355Y-09995D01*
X24355Y-09786D01*
X24275Y-09593D01*
X24128Y-09445D01*
X23935Y-09365D01*
X23726Y-09365D01*
X23533Y-09445D01*
X23385Y-09592D01*
X23305Y-09785D01*
X23305Y-09994D01*
X23385Y-10187D01*
X23485Y-10288D01*
X23321Y-10288D01*
X23119Y-10372D01*
X22965Y-10526D01*
X22930Y-10610D01*
X22895Y-10526D01*
X22741Y-10372D01*
X22539Y-10288D01*
X22321Y-10288D01*
X22119Y-10372D01*
X21965Y-10526D01*
X21930Y-10610D01*
X21895Y-10526D01*
X21784Y-10415D01*
X21934Y-10415D01*
X22127Y-10335D01*
X22275Y-10188D01*
X22355Y-09995D01*
X22355Y-09786D01*
X22275Y-09593D01*
X22128Y-09445D01*
X21935Y-09365D01*
X21726Y-09365D01*
X21533Y-09445D01*
X21385Y-09592D01*
X21305Y-09785D01*
X21305Y-09994D01*
X21385Y-10187D01*
X21485Y-10288D01*
X21321Y-10288D01*
X21119Y-10372D01*
X20965Y-10526D01*
X20881Y-10728D01*
X20881Y-10946D01*
X20881Y-11252D01*
X20965Y-11454D01*
X21119Y-11608D01*
X21321Y-11692D01*
X21539Y-11692D01*
X21741Y-11608D01*
X21895Y-11454D01*
X21930Y-11369D01*
X21965Y-11454D01*
X22119Y-11608D01*
X22321Y-11692D01*
X22539Y-11692D01*
X22741Y-11608D01*
X22895Y-11454D01*
X22930Y-11369D01*
X22965Y-11454D01*
X23119Y-11608D01*
X23321Y-11692D01*
X23539Y-11692D01*
X23741Y-11608D01*
X23895Y-11454D01*
X23928Y-11374D01*
X24048Y-11540D01*
X24234Y-11655D01*
X24293Y-11672D01*
X24380Y-11625D01*
X24380Y-12300D01*
X24250Y-12300D01*
X23500Y-12300D01*
X23328Y-12334D01*
X23182Y-12432D01*
X23084Y-12578D01*
X23050Y-12750D01*
X23084Y-12922D01*
X23182Y-13068D01*
X23328Y-13166D01*
X23500Y-13200D01*
X24250Y-13200D01*
X27750Y-13200D01*
X28914Y-13200D01*
X27979Y-14135D01*
X27979Y-14034D01*
X27979Y-13728D01*
X27895Y-13526D01*
X27741Y-13372D01*
X27539Y-13288D01*
X27321Y-13288D01*
X27119Y-13372D01*
X26965Y-13526D01*
X26930Y-13610D01*
X26895Y-13526D01*
X26741Y-13372D01*
X26539Y-13288D01*
X26321Y-13288D01*
X26119Y-13372D01*
X25965Y-13526D01*
X25930Y-13610D01*
X25895Y-13526D01*
X25741Y-13372D01*
X25539Y-13288D01*
X25321Y-13288D01*
X25119Y-13372D01*
X24965Y-13526D01*
X24930Y-13610D01*
X24895Y-13526D01*
X24741Y-13372D01*
X24539Y-13288D01*
X24321Y-13288D01*
X24119Y-13372D01*
X23965Y-13526D01*
X23930Y-13610D01*
X23895Y-13526D01*
X23741Y-13372D01*
X23539Y-13288D01*
X23321Y-13288D01*
X23119Y-13372D01*
X22965Y-13526D01*
X22930Y-13610D01*
X22895Y-13526D01*
X22741Y-13372D01*
X22539Y-13288D01*
X22321Y-13288D01*
X22119Y-13372D01*
X21989Y-13502D01*
X21989Y-13491D01*
X21951Y-13399D01*
X21881Y-13329D01*
X21790Y-13291D01*
X21691Y-13291D01*
X21071Y-13291D01*
X20979Y-13329D01*
X20909Y-13399D01*
X20871Y-13490D01*
X20871Y-13589D01*
X20871Y-14300D01*
X19975Y-14300D01*
X19975Y-12275D01*
X19975Y-12066D01*
X19975Y-10275D01*
X19975Y-10066D01*
X19895Y-09873D01*
X19748Y-09725D01*
X19555Y-09645D01*
X19346Y-09645D01*
X19153Y-09725D01*
X19005Y-09872D01*
X18925Y-10065D01*
X18925Y-10274D01*
X19005Y-10467D01*
X19152Y-10615D01*
X19345Y-10695D01*
X19554Y-10695D01*
X19747Y-10615D01*
X19895Y-10468D01*
X19975Y-10275D01*
X19975Y-12066D01*
X19895Y-11873D01*
X19748Y-11725D01*
X19555Y-11645D01*
X19346Y-11645D01*
X19153Y-11725D01*
X19005Y-11872D01*
X18925Y-12065D01*
X18925Y-12274D01*
X19005Y-12467D01*
X19152Y-12615D01*
X19345Y-12695D01*
X19554Y-12695D01*
X19747Y-12615D01*
X19895Y-12468D01*
X19975Y-12275D01*
X19975Y-14300D01*
X19955Y-14300D01*
X19955Y-13555D01*
X19955Y-13346D01*
X19875Y-13153D01*
X19728Y-13005D01*
X19535Y-12925D01*
X19326Y-12925D01*
X19133Y-13005D01*
X18985Y-13152D01*
X18905Y-13345D01*
X18905Y-13554D01*
X18985Y-13747D01*
X19132Y-13895D01*
X19325Y-13975D01*
X19534Y-13975D01*
X19727Y-13895D01*
X19875Y-13748D01*
X19955Y-13555D01*
X19955Y-14300D01*
X19250Y-14300D01*
X19078Y-14334D01*
X19029Y-14366D01*
X18931Y-14432D01*
X18875Y-14488D01*
X18875Y-13285D01*
X18875Y-13056D01*
X18868Y-13039D01*
X18868Y-10254D01*
X18856Y-10031D01*
X18792Y-09874D01*
X18696Y-09845D01*
X18625Y-09916D01*
X18625Y-09774D01*
X18596Y-09678D01*
X18384Y-09602D01*
X18161Y-09614D01*
X18004Y-09678D01*
X17975Y-09774D01*
X18300Y-10099D01*
X18625Y-09774D01*
X18625Y-09916D01*
X18371Y-10170D01*
X18696Y-10495D01*
X18792Y-10466D01*
X18868Y-10254D01*
X18868Y-13039D01*
X18788Y-12845D01*
X18626Y-12683D01*
X18625Y-12682D01*
X18625Y-10566D01*
X18300Y-10241D01*
X18229Y-10312D01*
X18229Y-10170D01*
X17904Y-09845D01*
X17808Y-09874D01*
X17732Y-10086D01*
X17744Y-10309D01*
X17808Y-10466D01*
X17904Y-10495D01*
X18229Y-10170D01*
X18229Y-10312D01*
X17975Y-10566D01*
X18004Y-10662D01*
X18216Y-10738D01*
X18439Y-10726D01*
X18596Y-10662D01*
X18625Y-10566D01*
X18625Y-12682D01*
X18415Y-12595D01*
X18186Y-12595D01*
X17975Y-12682D01*
X17813Y-12844D01*
X17725Y-13055D01*
X17725Y-13284D01*
X17812Y-13495D01*
X17974Y-13657D01*
X18185Y-13745D01*
X18414Y-13745D01*
X18625Y-13658D01*
X18787Y-13496D01*
X18875Y-13285D01*
X18875Y-14488D01*
X18775Y-14588D01*
X18775Y-14466D01*
X18695Y-14273D01*
X18548Y-14125D01*
X18355Y-14045D01*
X18146Y-14045D01*
X17953Y-14125D01*
X17805Y-14272D01*
X17725Y-14465D01*
X17725Y-14588D01*
X17247Y-14110D01*
X17375Y-14058D01*
X17537Y-13896D01*
X17625Y-13685D01*
X17625Y-13456D01*
X17538Y-13245D01*
X17525Y-13232D01*
X17525Y-12295D01*
X17525Y-12086D01*
X17519Y-12071D01*
X17519Y-10264D01*
X17508Y-10060D01*
X17452Y-09923D01*
X17361Y-09900D01*
X17290Y-09971D01*
X17290Y-09829D01*
X17267Y-09738D01*
X17074Y-09671D01*
X17025Y-09673D01*
X17025Y-09216D01*
X16700Y-08891D01*
X16375Y-09216D01*
X16404Y-09312D01*
X16616Y-09388D01*
X16839Y-09376D01*
X16996Y-09312D01*
X17025Y-09216D01*
X17025Y-09673D01*
X16870Y-09682D01*
X16733Y-09738D01*
X16710Y-09829D01*
X17000Y-10119D01*
X17290Y-09829D01*
X17290Y-09971D01*
X17071Y-10190D01*
X17361Y-10480D01*
X17452Y-10457D01*
X17519Y-10264D01*
X17519Y-12071D01*
X17445Y-11893D01*
X17298Y-11745D01*
X17290Y-11741D01*
X17290Y-10551D01*
X17000Y-10261D01*
X16929Y-10332D01*
X16929Y-10190D01*
X16639Y-09900D01*
X16548Y-09923D01*
X16481Y-10116D01*
X16492Y-10320D01*
X16548Y-10457D01*
X16639Y-10480D01*
X16929Y-10190D01*
X16929Y-10332D01*
X16710Y-10551D01*
X16733Y-10642D01*
X16926Y-10709D01*
X17130Y-10698D01*
X17267Y-10642D01*
X17290Y-10551D01*
X17290Y-11741D01*
X17105Y-11665D01*
X16896Y-11665D01*
X16703Y-11745D01*
X16555Y-11892D01*
X16475Y-12085D01*
X16475Y-12294D01*
X16555Y-12487D01*
X16702Y-12635D01*
X16895Y-12715D01*
X17104Y-12715D01*
X17297Y-12635D01*
X17445Y-12488D01*
X17525Y-12295D01*
X17525Y-13232D01*
X17376Y-13083D01*
X17165Y-12995D01*
X16936Y-12995D01*
X16725Y-13082D01*
X16563Y-13244D01*
X16475Y-13455D01*
X16475Y-13610D01*
X16275Y-13610D01*
X16275Y-10855D01*
X16275Y-10646D01*
X16195Y-10453D01*
X16048Y-10305D01*
X15855Y-10225D01*
X15646Y-10225D01*
X15453Y-10305D01*
X15305Y-10452D01*
X15225Y-10645D01*
X15225Y-10854D01*
X15305Y-11047D01*
X15452Y-11195D01*
X15645Y-11275D01*
X15854Y-11275D01*
X16047Y-11195D01*
X16195Y-11048D01*
X16275Y-10855D01*
X16275Y-13610D01*
X16019Y-13610D01*
X16004Y-13595D01*
X15919Y-13560D01*
X16004Y-13525D01*
X16158Y-13371D01*
X16242Y-13169D01*
X16242Y-12951D01*
X16158Y-12749D01*
X16004Y-12595D01*
X15919Y-12560D01*
X16004Y-12525D01*
X16158Y-12371D01*
X16242Y-12169D01*
X16242Y-11951D01*
X16158Y-11749D01*
X16004Y-11595D01*
X15802Y-11511D01*
X15584Y-11511D01*
X15278Y-11511D01*
X15076Y-11595D01*
X14950Y-11721D01*
X14950Y-10250D01*
X14916Y-10078D01*
X14916Y-10077D01*
X14818Y-09932D01*
X14318Y-09432D01*
X14173Y-09334D01*
X14000Y-09300D01*
X13450Y-09300D01*
X13278Y-09334D01*
X13229Y-09366D01*
X13131Y-09432D01*
X12863Y-09700D01*
X12743Y-09700D01*
X12743Y-09229D01*
X12732Y-09016D01*
X12672Y-08869D01*
X12578Y-08842D01*
X12508Y-08912D01*
X12508Y-08772D01*
X12481Y-08678D01*
X12279Y-08607D01*
X12066Y-08618D01*
X11919Y-08678D01*
X11892Y-08772D01*
X12200Y-09079D01*
X12508Y-08772D01*
X12508Y-08912D01*
X12271Y-09150D01*
X12578Y-09458D01*
X12672Y-09431D01*
X12743Y-09229D01*
X12743Y-09700D01*
X12702Y-09700D01*
X12641Y-09639D01*
X12550Y-09601D01*
X12487Y-09601D01*
X12508Y-09528D01*
X12200Y-09221D01*
X12129Y-09291D01*
X12129Y-09150D01*
X11822Y-08842D01*
X11728Y-08869D01*
X11657Y-09071D01*
X11668Y-09284D01*
X11728Y-09431D01*
X11822Y-09458D01*
X12129Y-09150D01*
X12129Y-09291D01*
X11892Y-09528D01*
X11912Y-09601D01*
X11851Y-09601D01*
X11759Y-09639D01*
X11689Y-09709D01*
X11651Y-09800D01*
X11651Y-09899D01*
X11651Y-10499D01*
X11689Y-10591D01*
X11759Y-10661D01*
X11850Y-10699D01*
X11949Y-10699D01*
X12549Y-10699D01*
X12641Y-10661D01*
X12702Y-10600D01*
X13050Y-10600D01*
X13222Y-10566D01*
X13223Y-10566D01*
X13271Y-10533D01*
X13225Y-10645D01*
X13225Y-10854D01*
X13305Y-11047D01*
X13452Y-11195D01*
X13645Y-11275D01*
X13854Y-11275D01*
X14047Y-11195D01*
X14050Y-11192D01*
X14050Y-13750D01*
X14084Y-13923D01*
X14182Y-14068D01*
X14492Y-14378D01*
X14637Y-14475D01*
X14638Y-14476D01*
X14810Y-14510D01*
X15061Y-14510D01*
X15076Y-14525D01*
X15160Y-14560D01*
X15076Y-14595D01*
X14922Y-14749D01*
X14838Y-14951D01*
X14838Y-15169D01*
X14922Y-15371D01*
X15076Y-15525D01*
X15278Y-15609D01*
X15496Y-15609D01*
X15802Y-15609D01*
X16004Y-15525D01*
X16158Y-15371D01*
X16242Y-15169D01*
X16242Y-14951D01*
X16158Y-14749D01*
X16004Y-14595D01*
X15919Y-14560D01*
X16004Y-14525D01*
X16019Y-14510D01*
X16373Y-14510D01*
X17681Y-15818D01*
X17682Y-15818D01*
X17779Y-15883D01*
X17827Y-15915D01*
X17828Y-15916D01*
X18000Y-15950D01*
X18500Y-15950D01*
X18672Y-15916D01*
X18673Y-15916D01*
X18818Y-15818D01*
X18956Y-15679D01*
X18985Y-15747D01*
X19132Y-15895D01*
X19325Y-15975D01*
X19534Y-15975D01*
X19727Y-15895D01*
X19875Y-15748D01*
X19952Y-15561D01*
X20032Y-15755D01*
X20194Y-15917D01*
X20405Y-16005D01*
X20634Y-16005D01*
X20845Y-15918D01*
X21007Y-15756D01*
X21095Y-15545D01*
X21095Y-15316D01*
X21047Y-15200D01*
X22992Y-15200D01*
X22945Y-15315D01*
X22945Y-15544D01*
X23032Y-15755D01*
X23194Y-15917D01*
X23405Y-16005D01*
X23634Y-16005D01*
X23845Y-15918D01*
X24007Y-15756D01*
X24095Y-15545D01*
X24095Y-15316D01*
X24043Y-15191D01*
X24172Y-15166D01*
X24173Y-15166D01*
X24318Y-15068D01*
X24374Y-15011D01*
X24431Y-15068D01*
X24432Y-15068D01*
X24529Y-15133D01*
X24577Y-15165D01*
X24578Y-15166D01*
X24750Y-15200D01*
X26020Y-15200D01*
X25965Y-15335D01*
X25965Y-15544D01*
X26045Y-15737D01*
X26192Y-15885D01*
X26385Y-15965D01*
X26594Y-15965D01*
X26787Y-15885D01*
X26935Y-15738D01*
X27015Y-15545D01*
X27015Y-15336D01*
X26958Y-15200D01*
X28000Y-15200D01*
X28022Y-15195D01*
X27965Y-15335D01*
X27965Y-15544D01*
X28045Y-15737D01*
X28192Y-15885D01*
X28385Y-15965D01*
X28594Y-15965D01*
X28787Y-15885D01*
X28935Y-15738D01*
X29015Y-15545D01*
X29015Y-15336D01*
X28935Y-15143D01*
X28788Y-14995D01*
X28595Y-14915D01*
X28471Y-14915D01*
X30608Y-12777D01*
X30618Y-12954D01*
X30678Y-13101D01*
X30772Y-13128D01*
X31044Y-12855D01*
X31079Y-12820D01*
X31150Y-12749D01*
X31221Y-12820D01*
X31256Y-12855D01*
X31528Y-13128D01*
X31622Y-13101D01*
X31693Y-12899D01*
X31682Y-12686D01*
X31622Y-12539D01*
X31583Y-12527D01*
X31616Y-12495D01*
X31571Y-12450D01*
X32000Y-12450D01*
X32172Y-12416D01*
X32173Y-12416D01*
X32318Y-12318D01*
X33568Y-11069D01*
X33568Y-11068D01*
X33569Y-11066D01*
X34018Y-10618D01*
X34818Y-09818D01*
X34836Y-09800D01*
X35214Y-09800D01*
X35382Y-09968D01*
X35527Y-10066D01*
X35700Y-10100D01*
X35872Y-10066D01*
X36018Y-09968D01*
X36116Y-09822D01*
X36150Y-09650D01*
X36116Y-09477D01*
X36018Y-09332D01*
X35986Y-09300D01*
X37041Y-09300D01*
X37041Y-09329D01*
X37041Y-09949D01*
X37079Y-10041D01*
X37149Y-10111D01*
X37240Y-10149D01*
X37271Y-10149D01*
X37190Y-10208D01*
X37075Y-10394D01*
X37058Y-10453D01*
X37105Y-10540D01*
X37640Y-10540D01*
X37690Y-10540D01*
X37790Y-10540D01*
X37840Y-10540D01*
X38375Y-10540D01*
X38422Y-10453D01*
X38405Y-10394D01*
X38290Y-10208D01*
X38208Y-10149D01*
X38239Y-10149D01*
X38331Y-10111D01*
X38401Y-10041D01*
X38439Y-09950D01*
X38439Y-09851D01*
X38439Y-09300D01*
X40113Y-09300D01*
X40038Y-09481D01*
X40038Y-09699D01*
X40122Y-09901D01*
X40276Y-10055D01*
X40360Y-10090D01*
X40276Y-10125D01*
X40122Y-10279D01*
X40038Y-10481D01*
X40038Y-10699D01*
X40122Y-10901D01*
X40276Y-11055D01*
X40360Y-11090D01*
X40276Y-11125D01*
X40122Y-11279D01*
X40038Y-11481D01*
X40038Y-11699D01*
X40122Y-11901D01*
X40276Y-12055D01*
X40360Y-12090D01*
X40276Y-12125D01*
X40122Y-12279D01*
X40038Y-12481D01*
X40038Y-12699D01*
X40122Y-12901D01*
X40276Y-13055D01*
X40360Y-13090D01*
X40276Y-13125D01*
X40122Y-13279D01*
X40038Y-13481D01*
X40038Y-13699D01*
X40122Y-13901D01*
X40276Y-14055D01*
X40360Y-14090D01*
X40276Y-14125D01*
X40122Y-14279D01*
X40038Y-14481D01*
X40038Y-14699D01*
X40122Y-14901D01*
X40276Y-15055D01*
X40360Y-15090D01*
X40276Y-15125D01*
X40122Y-15279D01*
X40038Y-15481D01*
X40038Y-15699D01*
X40122Y-15901D01*
X40276Y-16055D01*
X40478Y-16139D01*
X40696Y-16139D01*
X41002Y-16139D01*
X41204Y-16055D01*
X41358Y-15901D01*
X41442Y-15699D01*
X41442Y-15481D01*
X41358Y-15279D01*
X41204Y-15125D01*
X41119Y-15090D01*
X41204Y-15055D01*
X41358Y-14901D01*
X41442Y-14699D01*
X41442Y-14481D01*
X41358Y-14279D01*
X41204Y-14125D01*
X41119Y-14090D01*
X41204Y-14055D01*
X41358Y-13901D01*
X41442Y-13699D01*
X41442Y-13481D01*
X41358Y-13279D01*
X41204Y-13125D01*
X41119Y-13090D01*
X41204Y-13055D01*
X41358Y-12901D01*
X41442Y-12699D01*
X41442Y-12481D01*
X41358Y-12279D01*
X41204Y-12125D01*
X41119Y-12090D01*
X41204Y-12055D01*
X41358Y-11901D01*
X41442Y-11699D01*
X41442Y-11481D01*
X41358Y-11279D01*
X41204Y-11125D01*
X41119Y-11090D01*
X41204Y-11055D01*
X41358Y-10901D01*
X41442Y-10699D01*
X41442Y-10481D01*
X41358Y-10279D01*
X41204Y-10125D01*
X41119Y-10090D01*
X41204Y-10055D01*
X41358Y-09901D01*
X41442Y-09699D01*
X41442Y-09481D01*
X41366Y-09300D01*
X41508Y-09300D01*
X41465Y-09405D01*
X41465Y-09634D01*
X41552Y-09845D01*
X41714Y-10007D01*
X41925Y-10095D01*
X42154Y-10095D01*
X42365Y-10008D01*
X42527Y-09846D01*
X42615Y-09635D01*
X42615Y-09406D01*
X42571Y-09300D01*
X42913Y-09300D01*
X43181Y-09568D01*
X43182Y-09568D01*
X43183Y-09569D01*
X43451Y-09837D01*
X43451Y-09879D01*
X43535Y-10081D01*
X43675Y-10221D01*
X43651Y-10221D01*
X43559Y-10259D01*
X43489Y-10329D01*
X43451Y-10420D01*
X43451Y-10519D01*
X43451Y-11119D01*
X43489Y-11211D01*
X43559Y-11281D01*
X43650Y-11319D01*
X43749Y-11319D01*
X44295Y-11319D01*
X43682Y-11932D01*
X43584Y-12077D01*
X43550Y-12250D01*
X43550Y-12498D01*
X43489Y-12559D01*
X43451Y-12650D01*
X43451Y-12749D01*
X43451Y-13349D01*
X43489Y-13441D01*
X43559Y-13511D01*
X43650Y-13549D01*
X43712Y-13549D01*
X43692Y-13622D01*
X44000Y-13929D01*
X44308Y-13622D01*
X44287Y-13549D01*
X44349Y-13549D01*
X44441Y-13511D01*
X44511Y-13441D01*
X44549Y-13350D01*
X44549Y-13251D01*
X44549Y-12651D01*
X44511Y-12559D01*
X44450Y-12498D01*
X44450Y-12436D01*
X45318Y-11568D01*
X45416Y-11423D01*
X45416Y-11422D01*
X45450Y-11250D01*
X45450Y-10250D01*
X45449Y-10249D01*
X45416Y-10078D01*
X45415Y-10077D01*
X45383Y-10029D01*
X45318Y-09932D01*
X45318Y-09931D01*
X44838Y-09452D01*
X44693Y-09354D01*
X44520Y-09320D01*
X44326Y-09320D01*
X44311Y-09305D01*
X44109Y-09221D01*
X44107Y-09221D01*
X43819Y-08933D01*
X43818Y-08932D01*
X43818Y-08931D01*
X43461Y-08575D01*
X49675Y-08575D01*
X49675Y-26925D01*
M02*
