G04 #@! TF.FileFunction,Copper,L2,Bot,Signal*
%FSLAX46Y46*%
G04 Gerber Fmt 4.6, Leading zero omitted, Abs format (unit mm)*
G04 Created by KiCad (PCBNEW 4.0.2-stable) date 02/09/2016 12:40:18*
%MOMM*%
G01*
G04 APERTURE LIST*
%ADD10C,0.150000*%
%ADD11C,0.304800*%
%ADD12C,0.250190*%
%ADD13C,0.381000*%
%ADD14R,4.000000X5.000000*%
%ADD15R,1.778000X2.286000*%
%ADD16O,1.778000X2.286000*%
%ADD17C,2.032000*%
%ADD18R,2.032000X2.032000*%
%ADD19C,2.000000*%
%ADD20O,3.000000X1.200000*%
%ADD21C,1.905000*%
%ADD22C,2.540000*%
%ADD23R,1.905000X1.905000*%
%ADD24R,1.574800X2.286000*%
%ADD25O,1.574800X2.286000*%
%ADD26R,1.800860X1.800860*%
%ADD27C,1.800860*%
%ADD28R,2.032000X1.727200*%
%ADD29O,2.032000X1.727200*%
%ADD30C,0.889000*%
%ADD31C,0.635000*%
%ADD32C,0.254000*%
G04 APERTURE END LIST*
D10*
D11*
X10467857Y63977429D02*
X10564619Y63759715D01*
X10661381Y63687143D01*
X10854905Y63614572D01*
X11145190Y63614572D01*
X11338714Y63687143D01*
X11435476Y63759715D01*
X11532238Y63904857D01*
X11532238Y64485429D01*
X9500238Y64485429D01*
X9500238Y63977429D01*
X9597000Y63832286D01*
X9693762Y63759715D01*
X9887286Y63687143D01*
X10080810Y63687143D01*
X10274333Y63759715D01*
X10371095Y63832286D01*
X10467857Y63977429D01*
X10467857Y64485429D01*
X10951667Y63034000D02*
X10951667Y62308286D01*
X11532238Y63179143D02*
X9500238Y62671143D01*
X11532238Y62163143D01*
X9500238Y61872857D02*
X9500238Y61002000D01*
X11532238Y61437429D02*
X9500238Y61437429D01*
X11532238Y58607143D02*
X11532238Y59332857D01*
X9500238Y59332857D01*
X11532238Y58099143D02*
X9500238Y58099143D01*
X11435476Y57446000D02*
X11532238Y57228286D01*
X11532238Y56865429D01*
X11435476Y56720286D01*
X11338714Y56647715D01*
X11145190Y56575143D01*
X10951667Y56575143D01*
X10758143Y56647715D01*
X10661381Y56720286D01*
X10564619Y56865429D01*
X10467857Y57155715D01*
X10371095Y57300857D01*
X10274333Y57373429D01*
X10080810Y57446000D01*
X9887286Y57446000D01*
X9693762Y57373429D01*
X9597000Y57300857D01*
X9500238Y57155715D01*
X9500238Y56792857D01*
X9597000Y56575143D01*
X9500238Y56139714D02*
X9500238Y55268857D01*
X11532238Y55704286D02*
X9500238Y55704286D01*
X10467857Y54760857D02*
X10467857Y54252857D01*
X11532238Y54035143D02*
X11532238Y54760857D01*
X9500238Y54760857D01*
X9500238Y54035143D01*
X11532238Y53382000D02*
X9500238Y53382000D01*
X11532238Y52511143D01*
X9500238Y52511143D01*
X10467857Y51785429D02*
X10467857Y51277429D01*
X11532238Y51059715D02*
X11532238Y51785429D01*
X9500238Y51785429D01*
X9500238Y51059715D01*
X11532238Y49535715D02*
X10564619Y50043715D01*
X11532238Y50406572D02*
X9500238Y50406572D01*
X9500238Y49826000D01*
X9597000Y49680858D01*
X9693762Y49608286D01*
X9887286Y49535715D01*
X10177571Y49535715D01*
X10371095Y49608286D01*
X10467857Y49680858D01*
X10564619Y49826000D01*
X10564619Y50406572D01*
X10177571Y47866572D02*
X11532238Y47503715D01*
X10177571Y47140857D01*
X9500238Y46705429D02*
X9500238Y45762000D01*
X10274333Y46270000D01*
X10274333Y46052286D01*
X10371095Y45907143D01*
X10467857Y45834572D01*
X10661381Y45762000D01*
X11145190Y45762000D01*
X11338714Y45834572D01*
X11435476Y45907143D01*
X11532238Y46052286D01*
X11532238Y46487714D01*
X11435476Y46632857D01*
X11338714Y46705429D01*
D12*
X8553604Y62006630D02*
X8625087Y62101940D01*
X8625087Y62292561D01*
X8553604Y62387872D01*
X8482121Y62435527D01*
X8339156Y62483182D01*
X7910259Y62483182D01*
X7767293Y62435527D01*
X7695810Y62387872D01*
X7624327Y62292561D01*
X7624327Y62101940D01*
X7695810Y62006630D01*
X7624327Y61148836D02*
X8625087Y61148836D01*
X7624327Y61577733D02*
X8410639Y61577733D01*
X8553604Y61530078D01*
X8625087Y61434767D01*
X8625087Y61291801D01*
X8553604Y61196491D01*
X8482121Y61148836D01*
X8625087Y60672283D02*
X7624327Y60672283D01*
X7910259Y60672283D02*
X7767293Y60624628D01*
X7695810Y60576972D01*
X7624327Y60481662D01*
X7624327Y60386351D01*
X8625087Y60052765D02*
X7624327Y60052765D01*
X7123947Y60052765D02*
X7195430Y60100420D01*
X7266913Y60052765D01*
X7195430Y60005110D01*
X7123947Y60052765D01*
X7266913Y60052765D01*
X8625087Y59433247D02*
X8553604Y59528558D01*
X8482121Y59576213D01*
X8339156Y59623868D01*
X7910259Y59623868D01*
X7767293Y59576213D01*
X7695810Y59528558D01*
X7624327Y59433247D01*
X7624327Y59290281D01*
X7695810Y59194971D01*
X7767293Y59147316D01*
X7910259Y59099660D01*
X8339156Y59099660D01*
X8482121Y59147316D01*
X8553604Y59194971D01*
X8625087Y59290281D01*
X8625087Y59433247D01*
X7624327Y58241866D02*
X8625087Y58241866D01*
X7624327Y58670763D02*
X8410639Y58670763D01*
X8553604Y58623108D01*
X8625087Y58527797D01*
X8625087Y58384831D01*
X8553604Y58289521D01*
X8482121Y58241866D01*
X8553604Y57812968D02*
X8625087Y57717658D01*
X8625087Y57527037D01*
X8553604Y57431726D01*
X8410639Y57384071D01*
X8339156Y57384071D01*
X8196190Y57431726D01*
X8124707Y57527037D01*
X8124707Y57670002D01*
X8053224Y57765313D01*
X7910259Y57812968D01*
X7838776Y57812968D01*
X7695810Y57765313D01*
X7624327Y57670002D01*
X7624327Y57527037D01*
X7695810Y57431726D01*
X8553604Y56573932D02*
X8625087Y56669242D01*
X8625087Y56859863D01*
X8553604Y56955174D01*
X8410639Y57002829D01*
X7838776Y57002829D01*
X7695810Y56955174D01*
X7624327Y56859863D01*
X7624327Y56669242D01*
X7695810Y56573932D01*
X7838776Y56526277D01*
X7981741Y56526277D01*
X8124707Y57002829D01*
X8625087Y55954414D02*
X8553604Y56049725D01*
X8410639Y56097380D01*
X7123947Y56097380D01*
X8553604Y55191930D02*
X8625087Y55287240D01*
X8625087Y55477861D01*
X8553604Y55573172D01*
X8410639Y55620827D01*
X7838776Y55620827D01*
X7695810Y55573172D01*
X7624327Y55477861D01*
X7624327Y55287240D01*
X7695810Y55191930D01*
X7838776Y55144275D01*
X7981741Y55144275D01*
X8124707Y55620827D01*
X8553604Y54286481D02*
X8625087Y54381791D01*
X8625087Y54572412D01*
X8553604Y54667723D01*
X8482121Y54715378D01*
X8339156Y54763033D01*
X7910259Y54763033D01*
X7767293Y54715378D01*
X7695810Y54667723D01*
X7624327Y54572412D01*
X7624327Y54381791D01*
X7695810Y54286481D01*
X7624327Y54000550D02*
X7624327Y53619308D01*
X7123947Y53857584D02*
X8410639Y53857584D01*
X8553604Y53809929D01*
X8625087Y53714618D01*
X8625087Y53619308D01*
X8625087Y53285721D02*
X7624327Y53285721D01*
X7910259Y53285721D02*
X7767293Y53238066D01*
X7695810Y53190410D01*
X7624327Y53095100D01*
X7624327Y52999789D01*
X8625087Y52666203D02*
X7624327Y52666203D01*
X7123947Y52666203D02*
X7195430Y52713858D01*
X7266913Y52666203D01*
X7195430Y52618548D01*
X7123947Y52666203D01*
X7266913Y52666203D01*
X8553604Y51760754D02*
X8625087Y51856064D01*
X8625087Y52046685D01*
X8553604Y52141996D01*
X8482121Y52189651D01*
X8339156Y52237306D01*
X7910259Y52237306D01*
X7767293Y52189651D01*
X7695810Y52141996D01*
X7624327Y52046685D01*
X7624327Y51856064D01*
X7695810Y51760754D01*
X8482121Y51331857D02*
X8553604Y51284202D01*
X8625087Y51331857D01*
X8553604Y51379512D01*
X8482121Y51331857D01*
X8625087Y51331857D01*
X8553604Y50426408D02*
X8625087Y50521718D01*
X8625087Y50712339D01*
X8553604Y50807650D01*
X8482121Y50855305D01*
X8339156Y50902960D01*
X7910259Y50902960D01*
X7767293Y50855305D01*
X7695810Y50807650D01*
X7624327Y50712339D01*
X7624327Y50521718D01*
X7695810Y50426408D01*
X8625087Y49854545D02*
X8553604Y49949856D01*
X8482121Y49997511D01*
X8339156Y50045166D01*
X7910259Y50045166D01*
X7767293Y49997511D01*
X7695810Y49949856D01*
X7624327Y49854545D01*
X7624327Y49711579D01*
X7695810Y49616269D01*
X7767293Y49568614D01*
X7910259Y49520958D01*
X8339156Y49520958D01*
X8482121Y49568614D01*
X8553604Y49616269D01*
X8625087Y49711579D01*
X8625087Y49854545D01*
X8482121Y49092061D02*
X8553604Y49044406D01*
X8625087Y49092061D01*
X8553604Y49139716D01*
X8482121Y49092061D01*
X8625087Y49092061D01*
X7624327Y48186612D02*
X8625087Y48186612D01*
X7624327Y48615509D02*
X8410639Y48615509D01*
X8553604Y48567854D01*
X8625087Y48472543D01*
X8625087Y48329577D01*
X8553604Y48234267D01*
X8482121Y48186612D01*
X8625087Y47710059D02*
X7123947Y47710059D01*
X8053224Y47614748D02*
X8625087Y47328817D01*
X7624327Y47328817D02*
X8196190Y47710059D01*
D13*
X38750000Y250000D02*
X45250000Y250000D01*
X38750000Y10250000D02*
X38750000Y250000D01*
X11750000Y10250000D02*
X38750000Y10250000D01*
X11750000Y250000D02*
X11750000Y10250000D01*
X5250000Y250000D02*
X11750000Y250000D01*
X250000Y5250000D02*
G75*
G03X5250000Y250000I5000000J0D01*
G01*
X45250000Y250000D02*
G75*
G03X50250000Y5250000I0J5000000D01*
G01*
X50250000Y95250000D02*
G75*
G03X45250000Y100250000I-5000000J0D01*
G01*
X5250000Y100250000D02*
G75*
G03X250000Y95250000I0J-5000000D01*
G01*
X45250000Y100250000D02*
X5250000Y100250000D01*
X50250000Y5250000D02*
X50250000Y95250000D01*
X250000Y95250000D02*
X250000Y5250000D01*
D14*
X13920000Y42145000D03*
X35510000Y42145000D03*
D15*
X19000000Y26270000D03*
D16*
X16460000Y26270000D03*
X13920000Y26270000D03*
X11380000Y26270000D03*
X8840000Y26270000D03*
X6300000Y26270000D03*
X3760000Y26270000D03*
X3760000Y18650000D03*
X6300000Y18650000D03*
X8840000Y18650000D03*
X11380000Y18650000D03*
X13920000Y18650000D03*
X16460000Y18650000D03*
X19000000Y18650000D03*
D17*
X18360000Y32300000D03*
D18*
X15820000Y32300000D03*
X3760000Y14205000D03*
D17*
X8840000Y14205000D03*
D19*
X46965400Y16737380D03*
X46940000Y19745000D03*
X46940000Y13745000D03*
D20*
X46940000Y23045000D03*
X46940000Y10445000D03*
D18*
X43130000Y82150000D03*
D17*
X40590000Y82150000D03*
D18*
X43130000Y74530000D03*
D17*
X40590000Y74530000D03*
D21*
X36775000Y91355000D03*
X36775000Y86275000D03*
X32965000Y86275000D03*
X32965000Y91355000D03*
D18*
X43130000Y89770000D03*
D17*
X40590000Y89770000D03*
D21*
X10745000Y84690000D03*
X10745000Y89770000D03*
X7570000Y89770000D03*
X7570000Y84690000D03*
X36775000Y76750000D03*
X36775000Y81830000D03*
D17*
X32965000Y81830000D03*
X32965000Y79290000D03*
D21*
X3760000Y56115000D03*
X3760000Y61195000D03*
X34875000Y12935000D03*
X34875000Y18015000D03*
D17*
X5665000Y65005000D03*
X3125000Y65005000D03*
X5665000Y68815000D03*
X3125000Y68815000D03*
D21*
X45035000Y49765000D03*
X45035000Y44685000D03*
D18*
X5665000Y45320000D03*
D17*
X3125000Y45320000D03*
X32965000Y74845000D03*
X32965000Y72305000D03*
D22*
X8840000Y30080000D03*
X8840000Y39478000D03*
X23440000Y29760000D03*
X32838000Y29760000D03*
X23440000Y26585000D03*
X32838000Y26585000D03*
D23*
X40590000Y13570000D03*
D21*
X40590000Y16110000D03*
X38050000Y16110000D03*
D17*
X48210000Y71355000D03*
X48210000Y78975000D03*
X48210000Y82785000D03*
X48210000Y90405000D03*
X13666000Y94088000D03*
X13666000Y86468000D03*
X2490000Y83420000D03*
X2490000Y91040000D03*
X6300000Y71990000D03*
X6300000Y79610000D03*
X12015000Y30080000D03*
X12015000Y37700000D03*
X31060000Y13885000D03*
X23440000Y13885000D03*
X2490000Y71990000D03*
X2490000Y79610000D03*
X31060000Y17060000D03*
X23440000Y17060000D03*
X48210000Y44050000D03*
X48210000Y51670000D03*
X45035000Y71355000D03*
X45035000Y63735000D03*
X23440000Y23410000D03*
X31060000Y23410000D03*
X23440000Y20235000D03*
X31060000Y20235000D03*
D24*
X25350000Y94088000D03*
D25*
X22810000Y94088000D03*
X20270000Y94088000D03*
X17730000Y94088000D03*
X17730000Y86468000D03*
X20270000Y86468000D03*
X22810000Y86468000D03*
X25350000Y86468000D03*
D18*
X48210000Y66275000D03*
D17*
X48210000Y63735000D03*
D22*
X47800000Y28255000D03*
D19*
X38050000Y37255000D03*
D22*
X47800000Y38255000D03*
D19*
X38050000Y29255000D03*
X38050000Y33255000D03*
D26*
X30430000Y98025000D03*
D27*
X20270000Y98025000D03*
D28*
X2485000Y33570000D03*
D29*
X2485000Y36110000D03*
D15*
X27255000Y80880000D03*
D16*
X24715000Y80880000D03*
X22175000Y80880000D03*
X19635000Y80880000D03*
X17095000Y80880000D03*
X14555000Y80880000D03*
X12015000Y80880000D03*
X12015000Y73260000D03*
X14555000Y73260000D03*
X17095000Y73260000D03*
X19635000Y73260000D03*
X22175000Y73260000D03*
X24715000Y73260000D03*
X27255000Y73260000D03*
D30*
X43003000Y41891000D03*
X38431000Y66529000D03*
X13031000Y47352000D03*
X38304000Y62465000D03*
D31*
X20270000Y86468000D02*
X20270000Y87677000D01*
X33346000Y87926000D02*
X43130000Y87926000D01*
X31949000Y89323000D02*
X33346000Y87926000D01*
X21916000Y89323000D02*
X31949000Y89323000D01*
X20270000Y87677000D02*
X21916000Y89323000D01*
X41225000Y35287000D02*
X41225000Y23095000D01*
X44501600Y19818400D02*
X46965400Y19818400D01*
X41225000Y23095000D02*
X44501600Y19818400D01*
X45035000Y71355000D02*
X44781000Y71355000D01*
X44781000Y71355000D02*
X41225000Y67799000D01*
X41225000Y67799000D02*
X41225000Y35287000D01*
X41225000Y35287000D02*
X41225000Y33509000D01*
X46559000Y71355000D02*
X46559000Y83039000D01*
X46559000Y83039000D02*
X44273000Y85325000D01*
X45035000Y71355000D02*
X46559000Y71355000D01*
X46559000Y71355000D02*
X48210000Y71355000D01*
X20270000Y86468000D02*
X20270000Y87357000D01*
X43130000Y85325000D02*
X44273000Y85325000D01*
X43130000Y89770000D02*
X43130000Y87926000D01*
X43130000Y87926000D02*
X43130000Y87611000D01*
X43130000Y87611000D02*
X43130000Y85325000D01*
X43130000Y85325000D02*
X43130000Y82150000D01*
X8840000Y30080000D02*
X5284000Y30080000D01*
X3760000Y28556000D02*
X3760000Y26270000D01*
X5284000Y30080000D02*
X3760000Y28556000D01*
X22175000Y73260000D02*
X22175000Y72879000D01*
X22175000Y72879000D02*
X20524000Y71228000D01*
X20524000Y71228000D02*
X18111000Y71228000D01*
X18111000Y71228000D02*
X17095000Y72244000D01*
X17095000Y72244000D02*
X17095000Y73260000D01*
X17095000Y80880000D02*
X17095000Y81642000D01*
X17095000Y81642000D02*
X18238000Y82785000D01*
X23826000Y82785000D02*
X24715000Y81896000D01*
X18238000Y82785000D02*
X23826000Y82785000D01*
X24715000Y81896000D02*
X24715000Y80880000D01*
X17095000Y73260000D02*
X17095000Y80880000D01*
X27255000Y80880000D02*
X24715000Y80880000D01*
X7438000Y15917000D02*
X10486000Y15917000D01*
X10486000Y15917000D02*
X15119000Y11284000D01*
X3760000Y14205000D02*
X5472000Y14205000D01*
X7184000Y15917000D02*
X7438000Y15917000D01*
X5472000Y14205000D02*
X7184000Y15917000D01*
X3760000Y14205000D02*
X4395000Y14205000D01*
X44781000Y14552980D02*
X46965400Y16737380D01*
X44781000Y13062000D02*
X44781000Y14552980D01*
X43003000Y11284000D02*
X44781000Y13062000D01*
X15119000Y11284000D02*
X43003000Y11284000D01*
X22175000Y80880000D02*
X22175000Y78396000D01*
X39381000Y79290000D02*
X40590000Y80499000D01*
X36902000Y79290000D02*
X39381000Y79290000D01*
X34616000Y77004000D02*
X36902000Y79290000D01*
X23567000Y77004000D02*
X34616000Y77004000D01*
X22175000Y78396000D02*
X23567000Y77004000D01*
X40590000Y82150000D02*
X40590000Y80499000D01*
X40590000Y80499000D02*
X40590000Y80372000D01*
X43130000Y77832000D02*
X43130000Y74530000D01*
X40590000Y80372000D02*
X43130000Y77832000D01*
X48210000Y82785000D02*
X48210000Y78975000D01*
X36775000Y91355000D02*
X34042000Y94088000D01*
X25350000Y94088000D02*
X34042000Y94088000D01*
X25350000Y86468000D02*
X29470000Y86468000D01*
X35124000Y84624000D02*
X36775000Y86275000D01*
X31314000Y84624000D02*
X35124000Y84624000D01*
X29470000Y86468000D02*
X31314000Y84624000D01*
X22810000Y86468000D02*
X22810000Y86788000D01*
X22810000Y86788000D02*
X24202000Y88180000D01*
X31060000Y88180000D02*
X32965000Y86275000D01*
X24202000Y88180000D02*
X31060000Y88180000D01*
X22810000Y86468000D02*
X22810000Y87103000D01*
X10745000Y84690000D02*
X11888000Y84690000D01*
X11888000Y84690000D02*
X13666000Y86468000D01*
X13666000Y94088000D02*
X14555000Y94088000D01*
X14555000Y94088000D02*
X17730000Y90913000D01*
X17730000Y90913000D02*
X17730000Y86468000D01*
X7570000Y89770000D02*
X7570000Y92056000D01*
X9602000Y94088000D02*
X13666000Y94088000D01*
X7570000Y92056000D02*
X9602000Y94088000D01*
X26361000Y84624000D02*
X28393000Y84624000D01*
X29409000Y83608000D02*
X33854000Y83608000D01*
X28393000Y84624000D02*
X29409000Y83608000D01*
X36775000Y81830000D02*
X34870000Y81830000D01*
X34870000Y81830000D02*
X34743000Y81830000D01*
X34743000Y81830000D02*
X34870000Y81830000D01*
X32965000Y79290000D02*
X33727000Y79290000D01*
X33727000Y79290000D02*
X34870000Y80433000D01*
X34870000Y80433000D02*
X34870000Y81830000D01*
X34870000Y81830000D02*
X34870000Y82592000D01*
X34870000Y82592000D02*
X33854000Y83608000D01*
X9287000Y82973000D02*
X7570000Y84690000D01*
X12137000Y82973000D02*
X9287000Y82973000D01*
X13788000Y84624000D02*
X12137000Y82973000D01*
X26361000Y84624000D02*
X13788000Y84624000D01*
X7570000Y84690000D02*
X7570000Y84436000D01*
X2490000Y83420000D02*
X4522000Y83420000D01*
X5792000Y84690000D02*
X7570000Y84690000D01*
X4522000Y83420000D02*
X5792000Y84690000D01*
X32965000Y81830000D02*
X29663000Y81830000D01*
X14870000Y83735000D02*
X12015000Y80880000D01*
X27758000Y83735000D02*
X14870000Y83735000D01*
X29663000Y81830000D02*
X27758000Y83735000D01*
X12015000Y80880000D02*
X12015000Y81388000D01*
X6300000Y71990000D02*
X7062000Y71990000D01*
X7062000Y71990000D02*
X12015000Y76943000D01*
X12015000Y76943000D02*
X12015000Y80880000D01*
X3125000Y65005000D02*
X3125000Y63989000D01*
X3125000Y63989000D02*
X1982000Y62846000D01*
X1982000Y57893000D02*
X3760000Y56115000D01*
X1982000Y62846000D02*
X1982000Y57893000D01*
X2490000Y71990000D02*
X2490000Y69450000D01*
X2490000Y69450000D02*
X3125000Y68815000D01*
X3125000Y68815000D02*
X3125000Y65005000D01*
X31060000Y13885000D02*
X32203000Y13885000D01*
X33153000Y12935000D02*
X34875000Y12935000D01*
X32203000Y13885000D02*
X33153000Y12935000D01*
X31060000Y17060000D02*
X30298000Y17060000D01*
X30298000Y17060000D02*
X27123000Y20235000D01*
X25726000Y29760000D02*
X23440000Y29760000D01*
X27123000Y28363000D02*
X25726000Y29760000D01*
X27123000Y20235000D02*
X27123000Y28363000D01*
X31060000Y17060000D02*
X32330000Y17060000D01*
X33285000Y18015000D02*
X34875000Y18015000D01*
X32330000Y17060000D02*
X33285000Y18015000D01*
X40590000Y16110000D02*
X40336000Y16110000D01*
X40336000Y16110000D02*
X38558000Y14332000D01*
X38558000Y14332000D02*
X36399000Y14332000D01*
X36399000Y14332000D02*
X34875000Y15856000D01*
X34875000Y15856000D02*
X34875000Y18015000D01*
X5665000Y65005000D02*
X7824000Y65005000D01*
X14555000Y71736000D02*
X14555000Y73260000D01*
X7824000Y65005000D02*
X14555000Y71736000D01*
X48210000Y44050000D02*
X45670000Y44050000D01*
X45670000Y44050000D02*
X45035000Y44685000D01*
X12015000Y73260000D02*
X12015000Y71863000D01*
X8967000Y68815000D02*
X5665000Y68815000D01*
X12015000Y71863000D02*
X8967000Y68815000D01*
X43003000Y41891000D02*
X43003000Y47860000D01*
X45035000Y49765000D02*
X44908000Y49765000D01*
X44908000Y49765000D02*
X43003000Y47860000D01*
X14555000Y42145000D02*
X14555000Y37629000D01*
X18360000Y33824000D02*
X18360000Y32300000D01*
X14555000Y37629000D02*
X18360000Y33824000D01*
X23440000Y26585000D02*
X22805000Y26585000D01*
X22805000Y26585000D02*
X18360000Y31030000D01*
X18360000Y31030000D02*
X18360000Y32300000D01*
X23440000Y26585000D02*
X23821000Y26585000D01*
X23821000Y26585000D02*
X25345000Y25061000D01*
X25345000Y22140000D02*
X23440000Y20235000D01*
X25345000Y25061000D02*
X25345000Y22140000D01*
X23440000Y26585000D02*
X23059000Y26585000D01*
X20016000Y63735000D02*
X35637000Y63735000D01*
X35637000Y63735000D02*
X38431000Y66529000D01*
X20016000Y63735000D02*
X19508000Y63735000D01*
X14555000Y56369000D02*
X14555000Y58782000D01*
X14555000Y58782000D02*
X19508000Y63735000D01*
X14555000Y42145000D02*
X14555000Y56369000D01*
X14555000Y58782000D02*
X19508000Y63735000D01*
X19508000Y63735000D02*
X20651000Y63735000D01*
X20651000Y63735000D02*
X19508000Y63735000D01*
X19508000Y63735000D02*
X14555000Y58782000D01*
X45035000Y63735000D02*
X45035000Y64751000D01*
X45035000Y64751000D02*
X46559000Y66275000D01*
X46559000Y66275000D02*
X48210000Y66275000D01*
X5665000Y45320000D02*
X7697000Y45320000D01*
X7697000Y45320000D02*
X10872000Y42145000D01*
X10872000Y42145000D02*
X14555000Y42145000D01*
X32965000Y74845000D02*
X35124000Y74845000D01*
X35886000Y74083000D02*
X35886000Y74154000D01*
X35124000Y74845000D02*
X35886000Y74083000D01*
X24715000Y73260000D02*
X24715000Y74342000D01*
X24715000Y74342000D02*
X25472000Y75099000D01*
X29028000Y74845000D02*
X32965000Y74845000D01*
X28774000Y75099000D02*
X29028000Y74845000D01*
X25472000Y75099000D02*
X28774000Y75099000D01*
X31060000Y23410000D02*
X32711000Y23410000D01*
X32711000Y23410000D02*
X36013000Y26712000D01*
X36013000Y27855000D02*
X36018000Y27855000D01*
X36013000Y26712000D02*
X36013000Y27855000D01*
X38050000Y37255000D02*
X38240000Y37255000D01*
X38240000Y37255000D02*
X39701000Y38716000D01*
X39701000Y38716000D02*
X39701000Y70339000D01*
X39701000Y70339000D02*
X35886000Y74154000D01*
X38050000Y33255000D02*
X38050000Y37255000D01*
X36018000Y31223000D02*
X38050000Y33255000D01*
X36018000Y27855000D02*
X36018000Y31223000D01*
X27255000Y73260000D02*
X28327000Y73260000D01*
X29282000Y72305000D02*
X32965000Y72305000D01*
X28327000Y73260000D02*
X29282000Y72305000D01*
X23440000Y23410000D02*
X20392000Y23410000D01*
X19000000Y24802000D02*
X19000000Y26270000D01*
X20392000Y23410000D02*
X19000000Y24802000D01*
X27128000Y73260000D02*
X13031000Y59163000D01*
X13031000Y59163000D02*
X13031000Y47352000D01*
X27255000Y73260000D02*
X27128000Y73260000D01*
X19000000Y26270000D02*
X19000000Y25381000D01*
X2485000Y33570000D02*
X5914000Y33570000D01*
X8840000Y36496000D02*
X8840000Y39478000D01*
X5914000Y33570000D02*
X8840000Y36496000D01*
X12015000Y37700000D02*
X8840000Y37700000D01*
X8840000Y37700000D02*
X8840000Y37385000D01*
X8840000Y37385000D02*
X8840000Y39478000D01*
X32838000Y26585000D02*
X31060000Y26585000D01*
X31060000Y26585000D02*
X29282000Y24807000D01*
X29282000Y24807000D02*
X29282000Y24553000D01*
X29282000Y24553000D02*
X29282000Y22013000D01*
X29282000Y22013000D02*
X31060000Y20235000D01*
X31060000Y20235000D02*
X36394000Y20235000D01*
X38050000Y18579000D02*
X38050000Y16110000D01*
X36394000Y20235000D02*
X38050000Y18579000D01*
X32838000Y26585000D02*
X33346000Y26585000D01*
X33346000Y26585000D02*
X34870000Y28109000D01*
X34870000Y28998000D02*
X34875000Y28998000D01*
X34870000Y28109000D02*
X34870000Y28998000D01*
X34875000Y29760000D02*
X34875000Y28998000D01*
X34875000Y42145000D02*
X34875000Y59036000D01*
X34875000Y59036000D02*
X38304000Y62465000D01*
X34875000Y29760000D02*
X34875000Y42145000D01*
X20270000Y98025000D02*
X20270000Y94088000D01*
X23440000Y13885000D02*
X22043000Y13885000D01*
X21154000Y17314000D02*
X21159000Y17314000D01*
X21154000Y14774000D02*
X21154000Y17314000D01*
X22043000Y13885000D02*
X21154000Y14774000D01*
X21159000Y17314000D02*
X21159000Y19920000D01*
X21159000Y19920000D02*
X19254000Y21825000D01*
X19254000Y21825000D02*
X8078000Y21825000D01*
X8078000Y21825000D02*
X6300000Y23603000D01*
X6300000Y23603000D02*
X6300000Y26270000D01*
X6300000Y26270000D02*
X6300000Y26778000D01*
X6300000Y26778000D02*
X7570000Y28048000D01*
X7570000Y28048000D02*
X9983000Y28048000D01*
X9983000Y28048000D02*
X12015000Y30080000D01*
D32*
G36*
X13675005Y37264494D02*
X13881481Y36955481D01*
X16883050Y33953912D01*
X16836000Y33963440D01*
X14804000Y33963440D01*
X14568683Y33919162D01*
X14352559Y33780090D01*
X14207569Y33567890D01*
X14156560Y33316000D01*
X14156560Y31284000D01*
X14200838Y31048683D01*
X14339910Y30832559D01*
X14552110Y30687569D01*
X14804000Y30636560D01*
X16836000Y30636560D01*
X17071317Y30680838D01*
X17287441Y30819910D01*
X17375713Y30949100D01*
X17423563Y30901166D01*
X17433988Y30896837D01*
X17480005Y30665494D01*
X17686481Y30356481D01*
X20006270Y28036692D01*
X19889000Y28060440D01*
X18111000Y28060440D01*
X17875683Y28016162D01*
X17659559Y27877090D01*
X17514569Y27664890D01*
X17505316Y27619197D01*
X17447829Y27691433D01*
X16925878Y27980593D01*
X16823013Y28004134D01*
X16587000Y27883330D01*
X16587000Y26397000D01*
X16607000Y26397000D01*
X16607000Y26143000D01*
X16587000Y26143000D01*
X16587000Y24656670D01*
X16823013Y24535866D01*
X16925878Y24559407D01*
X17447829Y24848567D01*
X17502924Y24917797D01*
X17507838Y24891683D01*
X17646910Y24675559D01*
X17859110Y24530569D01*
X18111000Y24479560D01*
X18111638Y24479560D01*
X18120005Y24437494D01*
X18326481Y24128481D01*
X19718481Y22736481D01*
X20027494Y22530005D01*
X20392000Y22457500D01*
X22058007Y22457500D01*
X22503563Y22011166D01*
X22958291Y21822346D01*
X22506005Y21635466D01*
X22041166Y21171437D01*
X21810385Y20615653D01*
X19927519Y22498519D01*
X19618506Y22704995D01*
X19254000Y22777500D01*
X8472538Y22777500D01*
X7252500Y23997538D01*
X7252500Y24819926D01*
X7377631Y24903536D01*
X7570000Y25191437D01*
X7762369Y24903536D01*
X8256790Y24573175D01*
X8840000Y24457167D01*
X9423210Y24573175D01*
X9917631Y24903536D01*
X10110000Y25191437D01*
X10302369Y24903536D01*
X10796790Y24573175D01*
X11380000Y24457167D01*
X11963210Y24573175D01*
X12457631Y24903536D01*
X12650000Y25191437D01*
X12842369Y24903536D01*
X13336790Y24573175D01*
X13920000Y24457167D01*
X14503210Y24573175D01*
X14997631Y24903536D01*
X15194248Y25197794D01*
X15472171Y24848567D01*
X15994122Y24559407D01*
X16096987Y24535866D01*
X16333000Y24656670D01*
X16333000Y26143000D01*
X16313000Y26143000D01*
X16313000Y26397000D01*
X16333000Y26397000D01*
X16333000Y27883330D01*
X16096987Y28004134D01*
X15994122Y27980593D01*
X15472171Y27691433D01*
X15194248Y27342206D01*
X14997631Y27636464D01*
X14503210Y27966825D01*
X13920000Y28082833D01*
X13336790Y27966825D01*
X12842369Y27636464D01*
X12650000Y27348563D01*
X12457631Y27636464D01*
X11963210Y27966825D01*
X11380000Y28082833D01*
X11361114Y28079076D01*
X11711302Y28429264D01*
X12341963Y28428714D01*
X12948995Y28679534D01*
X13413834Y29143563D01*
X13665713Y29750155D01*
X13666286Y30406963D01*
X13415466Y31013995D01*
X12951437Y31478834D01*
X12344845Y31730713D01*
X11688037Y31731286D01*
X11081005Y31480466D01*
X10616166Y31016437D01*
X10570074Y30905436D01*
X10482657Y31116480D01*
X10187777Y31248172D01*
X9019605Y30080000D01*
X9033748Y30065857D01*
X8854143Y29886252D01*
X8840000Y29900395D01*
X8825858Y29886252D01*
X8646253Y30065857D01*
X8660395Y30080000D01*
X7492223Y31248172D01*
X7197343Y31116480D01*
X6925739Y30408964D01*
X6945564Y29651368D01*
X7197343Y29043520D01*
X7378822Y28962472D01*
X7205494Y28927995D01*
X6896481Y28721519D01*
X6247315Y28072353D01*
X5716790Y27966825D01*
X5222369Y27636464D01*
X5025752Y27342206D01*
X4747829Y27691433D01*
X4225878Y27980593D01*
X4123013Y28004134D01*
X3887000Y27883330D01*
X3887000Y26397000D01*
X3907000Y26397000D01*
X3907000Y26143000D01*
X3887000Y26143000D01*
X3887000Y24656670D01*
X4123013Y24535866D01*
X4225878Y24559407D01*
X4747829Y24848567D01*
X5025752Y25197794D01*
X5222369Y24903536D01*
X5347500Y24819926D01*
X5347500Y23603000D01*
X5420005Y23238494D01*
X5626481Y22929481D01*
X7404481Y21151481D01*
X7713494Y20945005D01*
X8078000Y20872500D01*
X18859462Y20872500D01*
X19335955Y20396007D01*
X19000000Y20462833D01*
X18416790Y20346825D01*
X17922369Y20016464D01*
X17730000Y19728563D01*
X17537631Y20016464D01*
X17043210Y20346825D01*
X16460000Y20462833D01*
X15876790Y20346825D01*
X15382369Y20016464D01*
X15190000Y19728563D01*
X14997631Y20016464D01*
X14503210Y20346825D01*
X13920000Y20462833D01*
X13336790Y20346825D01*
X12842369Y20016464D01*
X12650000Y19728563D01*
X12457631Y20016464D01*
X11963210Y20346825D01*
X11380000Y20462833D01*
X10796790Y20346825D01*
X10302369Y20016464D01*
X10110000Y19728563D01*
X9917631Y20016464D01*
X9423210Y20346825D01*
X8840000Y20462833D01*
X8256790Y20346825D01*
X7762369Y20016464D01*
X7570000Y19728563D01*
X7377631Y20016464D01*
X6883210Y20346825D01*
X6300000Y20462833D01*
X5716790Y20346825D01*
X5222369Y20016464D01*
X5030000Y19728563D01*
X4837631Y20016464D01*
X4343210Y20346825D01*
X3760000Y20462833D01*
X3176790Y20346825D01*
X2682369Y20016464D01*
X2352008Y19522043D01*
X2236000Y18938833D01*
X2236000Y18361167D01*
X2352008Y17777957D01*
X2682369Y17283536D01*
X3176790Y16953175D01*
X3760000Y16837167D01*
X4343210Y16953175D01*
X4837631Y17283536D01*
X5030000Y17571437D01*
X5222369Y17283536D01*
X5716790Y16953175D01*
X6300000Y16837167D01*
X6883210Y16953175D01*
X7377631Y17283536D01*
X7570000Y17571437D01*
X7762369Y17283536D01*
X8256790Y16953175D01*
X8677451Y16869500D01*
X7184000Y16869500D01*
X6819494Y16796995D01*
X6510481Y16590519D01*
X5378033Y15458071D01*
X5240090Y15672441D01*
X5027890Y15817431D01*
X4776000Y15868440D01*
X2744000Y15868440D01*
X2508683Y15824162D01*
X2292559Y15685090D01*
X2147569Y15472890D01*
X2096560Y15221000D01*
X2096560Y13189000D01*
X2140838Y12953683D01*
X2263160Y12763590D01*
X2205270Y12705801D01*
X1925319Y12031605D01*
X1924682Y11301597D01*
X2203455Y10626914D01*
X2719199Y10110270D01*
X3393395Y9830319D01*
X4123403Y9829682D01*
X4798086Y10108455D01*
X5314730Y10624199D01*
X5594681Y11298395D01*
X5595318Y12028403D01*
X5316545Y12703086D01*
X5254795Y12764944D01*
X5372431Y12937110D01*
X5423440Y13189000D01*
X5423440Y13252500D01*
X5472000Y13252500D01*
X5836506Y13325005D01*
X6145519Y13531481D01*
X7232045Y14618007D01*
X7178184Y14473358D01*
X7201986Y13816981D01*
X7407378Y13321120D01*
X7675891Y13220499D01*
X7561651Y13106259D01*
X7623985Y13043925D01*
X7285270Y12705801D01*
X7005319Y12031605D01*
X7004682Y11301597D01*
X7283455Y10626914D01*
X7799199Y10110270D01*
X8473395Y9830319D01*
X9203403Y9829682D01*
X9878086Y10108455D01*
X10394730Y10624199D01*
X10674681Y11298395D01*
X10675318Y12028403D01*
X10396545Y12703086D01*
X10056157Y13044067D01*
X10118349Y13106259D01*
X10004109Y13220499D01*
X10272622Y13321120D01*
X10501816Y13936642D01*
X10478581Y14577381D01*
X13980461Y11075500D01*
X11750000Y11075500D01*
X11434095Y11012663D01*
X11166283Y10833717D01*
X10987337Y10565905D01*
X10924500Y10250000D01*
X10924500Y1075500D01*
X5331303Y1075500D01*
X3658678Y1408206D01*
X2309618Y2309618D01*
X1408206Y3658677D01*
X1175776Y4827185D01*
X3114630Y4827185D01*
X3438980Y4042200D01*
X4039041Y3441091D01*
X4823459Y3115372D01*
X5672815Y3114630D01*
X6457800Y3438980D01*
X7058909Y4039041D01*
X7384628Y4823459D01*
X7385370Y5672815D01*
X7061020Y6457800D01*
X6460959Y7058909D01*
X5676541Y7384628D01*
X4827185Y7385370D01*
X4042200Y7061020D01*
X3441091Y6460959D01*
X3115372Y5676541D01*
X3114630Y4827185D01*
X1175776Y4827185D01*
X1075500Y5331303D01*
X1075500Y26143000D01*
X2236000Y26143000D01*
X2236000Y25889000D01*
X2400608Y25315458D01*
X2772171Y24848567D01*
X3294122Y24559407D01*
X3396987Y24535866D01*
X3633000Y24656670D01*
X3633000Y26143000D01*
X2236000Y26143000D01*
X1075500Y26143000D01*
X1075500Y26651000D01*
X2236000Y26651000D01*
X2236000Y26397000D01*
X3633000Y26397000D01*
X3633000Y27883330D01*
X3396987Y28004134D01*
X3294122Y27980593D01*
X2772171Y27691433D01*
X2400608Y27224542D01*
X2236000Y26651000D01*
X1075500Y26651000D01*
X1075500Y31427777D01*
X7671828Y31427777D01*
X8840000Y30259605D01*
X10008172Y31427777D01*
X9876480Y31722657D01*
X9168964Y31994261D01*
X8411368Y31974436D01*
X7803520Y31722657D01*
X7671828Y31427777D01*
X1075500Y31427777D01*
X1075500Y32206727D01*
X1217110Y32109969D01*
X1469000Y32058960D01*
X3501000Y32058960D01*
X3736317Y32103238D01*
X3952441Y32242310D01*
X4097431Y32454510D01*
X4130437Y32617500D01*
X5914000Y32617500D01*
X6278506Y32690005D01*
X6587519Y32896481D01*
X9513519Y35822481D01*
X9719995Y36131494D01*
X9792500Y36496000D01*
X9792500Y36747500D01*
X10633007Y36747500D01*
X11078563Y36301166D01*
X11685155Y36049287D01*
X12341963Y36048714D01*
X12948995Y36299534D01*
X13413834Y36763563D01*
X13657785Y37351063D01*
X13675005Y37264494D01*
X13675005Y37264494D01*
G37*
X13675005Y37264494D02*
X13881481Y36955481D01*
X16883050Y33953912D01*
X16836000Y33963440D01*
X14804000Y33963440D01*
X14568683Y33919162D01*
X14352559Y33780090D01*
X14207569Y33567890D01*
X14156560Y33316000D01*
X14156560Y31284000D01*
X14200838Y31048683D01*
X14339910Y30832559D01*
X14552110Y30687569D01*
X14804000Y30636560D01*
X16836000Y30636560D01*
X17071317Y30680838D01*
X17287441Y30819910D01*
X17375713Y30949100D01*
X17423563Y30901166D01*
X17433988Y30896837D01*
X17480005Y30665494D01*
X17686481Y30356481D01*
X20006270Y28036692D01*
X19889000Y28060440D01*
X18111000Y28060440D01*
X17875683Y28016162D01*
X17659559Y27877090D01*
X17514569Y27664890D01*
X17505316Y27619197D01*
X17447829Y27691433D01*
X16925878Y27980593D01*
X16823013Y28004134D01*
X16587000Y27883330D01*
X16587000Y26397000D01*
X16607000Y26397000D01*
X16607000Y26143000D01*
X16587000Y26143000D01*
X16587000Y24656670D01*
X16823013Y24535866D01*
X16925878Y24559407D01*
X17447829Y24848567D01*
X17502924Y24917797D01*
X17507838Y24891683D01*
X17646910Y24675559D01*
X17859110Y24530569D01*
X18111000Y24479560D01*
X18111638Y24479560D01*
X18120005Y24437494D01*
X18326481Y24128481D01*
X19718481Y22736481D01*
X20027494Y22530005D01*
X20392000Y22457500D01*
X22058007Y22457500D01*
X22503563Y22011166D01*
X22958291Y21822346D01*
X22506005Y21635466D01*
X22041166Y21171437D01*
X21810385Y20615653D01*
X19927519Y22498519D01*
X19618506Y22704995D01*
X19254000Y22777500D01*
X8472538Y22777500D01*
X7252500Y23997538D01*
X7252500Y24819926D01*
X7377631Y24903536D01*
X7570000Y25191437D01*
X7762369Y24903536D01*
X8256790Y24573175D01*
X8840000Y24457167D01*
X9423210Y24573175D01*
X9917631Y24903536D01*
X10110000Y25191437D01*
X10302369Y24903536D01*
X10796790Y24573175D01*
X11380000Y24457167D01*
X11963210Y24573175D01*
X12457631Y24903536D01*
X12650000Y25191437D01*
X12842369Y24903536D01*
X13336790Y24573175D01*
X13920000Y24457167D01*
X14503210Y24573175D01*
X14997631Y24903536D01*
X15194248Y25197794D01*
X15472171Y24848567D01*
X15994122Y24559407D01*
X16096987Y24535866D01*
X16333000Y24656670D01*
X16333000Y26143000D01*
X16313000Y26143000D01*
X16313000Y26397000D01*
X16333000Y26397000D01*
X16333000Y27883330D01*
X16096987Y28004134D01*
X15994122Y27980593D01*
X15472171Y27691433D01*
X15194248Y27342206D01*
X14997631Y27636464D01*
X14503210Y27966825D01*
X13920000Y28082833D01*
X13336790Y27966825D01*
X12842369Y27636464D01*
X12650000Y27348563D01*
X12457631Y27636464D01*
X11963210Y27966825D01*
X11380000Y28082833D01*
X11361114Y28079076D01*
X11711302Y28429264D01*
X12341963Y28428714D01*
X12948995Y28679534D01*
X13413834Y29143563D01*
X13665713Y29750155D01*
X13666286Y30406963D01*
X13415466Y31013995D01*
X12951437Y31478834D01*
X12344845Y31730713D01*
X11688037Y31731286D01*
X11081005Y31480466D01*
X10616166Y31016437D01*
X10570074Y30905436D01*
X10482657Y31116480D01*
X10187777Y31248172D01*
X9019605Y30080000D01*
X9033748Y30065857D01*
X8854143Y29886252D01*
X8840000Y29900395D01*
X8825858Y29886252D01*
X8646253Y30065857D01*
X8660395Y30080000D01*
X7492223Y31248172D01*
X7197343Y31116480D01*
X6925739Y30408964D01*
X6945564Y29651368D01*
X7197343Y29043520D01*
X7378822Y28962472D01*
X7205494Y28927995D01*
X6896481Y28721519D01*
X6247315Y28072353D01*
X5716790Y27966825D01*
X5222369Y27636464D01*
X5025752Y27342206D01*
X4747829Y27691433D01*
X4225878Y27980593D01*
X4123013Y28004134D01*
X3887000Y27883330D01*
X3887000Y26397000D01*
X3907000Y26397000D01*
X3907000Y26143000D01*
X3887000Y26143000D01*
X3887000Y24656670D01*
X4123013Y24535866D01*
X4225878Y24559407D01*
X4747829Y24848567D01*
X5025752Y25197794D01*
X5222369Y24903536D01*
X5347500Y24819926D01*
X5347500Y23603000D01*
X5420005Y23238494D01*
X5626481Y22929481D01*
X7404481Y21151481D01*
X7713494Y20945005D01*
X8078000Y20872500D01*
X18859462Y20872500D01*
X19335955Y20396007D01*
X19000000Y20462833D01*
X18416790Y20346825D01*
X17922369Y20016464D01*
X17730000Y19728563D01*
X17537631Y20016464D01*
X17043210Y20346825D01*
X16460000Y20462833D01*
X15876790Y20346825D01*
X15382369Y20016464D01*
X15190000Y19728563D01*
X14997631Y20016464D01*
X14503210Y20346825D01*
X13920000Y20462833D01*
X13336790Y20346825D01*
X12842369Y20016464D01*
X12650000Y19728563D01*
X12457631Y20016464D01*
X11963210Y20346825D01*
X11380000Y20462833D01*
X10796790Y20346825D01*
X10302369Y20016464D01*
X10110000Y19728563D01*
X9917631Y20016464D01*
X9423210Y20346825D01*
X8840000Y20462833D01*
X8256790Y20346825D01*
X7762369Y20016464D01*
X7570000Y19728563D01*
X7377631Y20016464D01*
X6883210Y20346825D01*
X6300000Y20462833D01*
X5716790Y20346825D01*
X5222369Y20016464D01*
X5030000Y19728563D01*
X4837631Y20016464D01*
X4343210Y20346825D01*
X3760000Y20462833D01*
X3176790Y20346825D01*
X2682369Y20016464D01*
X2352008Y19522043D01*
X2236000Y18938833D01*
X2236000Y18361167D01*
X2352008Y17777957D01*
X2682369Y17283536D01*
X3176790Y16953175D01*
X3760000Y16837167D01*
X4343210Y16953175D01*
X4837631Y17283536D01*
X5030000Y17571437D01*
X5222369Y17283536D01*
X5716790Y16953175D01*
X6300000Y16837167D01*
X6883210Y16953175D01*
X7377631Y17283536D01*
X7570000Y17571437D01*
X7762369Y17283536D01*
X8256790Y16953175D01*
X8677451Y16869500D01*
X7184000Y16869500D01*
X6819494Y16796995D01*
X6510481Y16590519D01*
X5378033Y15458071D01*
X5240090Y15672441D01*
X5027890Y15817431D01*
X4776000Y15868440D01*
X2744000Y15868440D01*
X2508683Y15824162D01*
X2292559Y15685090D01*
X2147569Y15472890D01*
X2096560Y15221000D01*
X2096560Y13189000D01*
X2140838Y12953683D01*
X2263160Y12763590D01*
X2205270Y12705801D01*
X1925319Y12031605D01*
X1924682Y11301597D01*
X2203455Y10626914D01*
X2719199Y10110270D01*
X3393395Y9830319D01*
X4123403Y9829682D01*
X4798086Y10108455D01*
X5314730Y10624199D01*
X5594681Y11298395D01*
X5595318Y12028403D01*
X5316545Y12703086D01*
X5254795Y12764944D01*
X5372431Y12937110D01*
X5423440Y13189000D01*
X5423440Y13252500D01*
X5472000Y13252500D01*
X5836506Y13325005D01*
X6145519Y13531481D01*
X7232045Y14618007D01*
X7178184Y14473358D01*
X7201986Y13816981D01*
X7407378Y13321120D01*
X7675891Y13220499D01*
X7561651Y13106259D01*
X7623985Y13043925D01*
X7285270Y12705801D01*
X7005319Y12031605D01*
X7004682Y11301597D01*
X7283455Y10626914D01*
X7799199Y10110270D01*
X8473395Y9830319D01*
X9203403Y9829682D01*
X9878086Y10108455D01*
X10394730Y10624199D01*
X10674681Y11298395D01*
X10675318Y12028403D01*
X10396545Y12703086D01*
X10056157Y13044067D01*
X10118349Y13106259D01*
X10004109Y13220499D01*
X10272622Y13321120D01*
X10501816Y13936642D01*
X10478581Y14577381D01*
X13980461Y11075500D01*
X11750000Y11075500D01*
X11434095Y11012663D01*
X11166283Y10833717D01*
X10987337Y10565905D01*
X10924500Y10250000D01*
X10924500Y1075500D01*
X5331303Y1075500D01*
X3658678Y1408206D01*
X2309618Y2309618D01*
X1408206Y3658677D01*
X1175776Y4827185D01*
X3114630Y4827185D01*
X3438980Y4042200D01*
X4039041Y3441091D01*
X4823459Y3115372D01*
X5672815Y3114630D01*
X6457800Y3438980D01*
X7058909Y4039041D01*
X7384628Y4823459D01*
X7385370Y5672815D01*
X7061020Y6457800D01*
X6460959Y7058909D01*
X5676541Y7384628D01*
X4827185Y7385370D01*
X4042200Y7061020D01*
X3441091Y6460959D01*
X3115372Y5676541D01*
X3114630Y4827185D01*
X1175776Y4827185D01*
X1075500Y5331303D01*
X1075500Y26143000D01*
X2236000Y26143000D01*
X2236000Y25889000D01*
X2400608Y25315458D01*
X2772171Y24848567D01*
X3294122Y24559407D01*
X3396987Y24535866D01*
X3633000Y24656670D01*
X3633000Y26143000D01*
X2236000Y26143000D01*
X1075500Y26143000D01*
X1075500Y26651000D01*
X2236000Y26651000D01*
X2236000Y26397000D01*
X3633000Y26397000D01*
X3633000Y27883330D01*
X3396987Y28004134D01*
X3294122Y27980593D01*
X2772171Y27691433D01*
X2400608Y27224542D01*
X2236000Y26651000D01*
X1075500Y26651000D01*
X1075500Y31427777D01*
X7671828Y31427777D01*
X8840000Y30259605D01*
X10008172Y31427777D01*
X9876480Y31722657D01*
X9168964Y31994261D01*
X8411368Y31974436D01*
X7803520Y31722657D01*
X7671828Y31427777D01*
X1075500Y31427777D01*
X1075500Y32206727D01*
X1217110Y32109969D01*
X1469000Y32058960D01*
X3501000Y32058960D01*
X3736317Y32103238D01*
X3952441Y32242310D01*
X4097431Y32454510D01*
X4130437Y32617500D01*
X5914000Y32617500D01*
X6278506Y32690005D01*
X6587519Y32896481D01*
X9513519Y35822481D01*
X9719995Y36131494D01*
X9792500Y36496000D01*
X9792500Y36747500D01*
X10633007Y36747500D01*
X11078563Y36301166D01*
X11685155Y36049287D01*
X12341963Y36048714D01*
X12948995Y36299534D01*
X13413834Y36763563D01*
X13657785Y37351063D01*
X13675005Y37264494D01*
G36*
X40272500Y23095000D02*
X40345005Y22730494D01*
X40551481Y22421481D01*
X43828081Y19144881D01*
X44137094Y18938405D01*
X44501600Y18865900D01*
X45534164Y18865900D01*
X45553106Y18820057D01*
X46012637Y18359722D01*
X46310723Y18235946D01*
X46040457Y18124274D01*
X45580122Y17664743D01*
X45330684Y17064028D01*
X45330147Y16449165D01*
X44107481Y15226499D01*
X43901005Y14917486D01*
X43828500Y14552980D01*
X43828500Y13456538D01*
X42608462Y12236500D01*
X42059525Y12236500D01*
X42080827Y12257802D01*
X42177500Y12491191D01*
X42177500Y13284250D01*
X42018750Y13443000D01*
X40717000Y13443000D01*
X40717000Y13423000D01*
X40463000Y13423000D01*
X40463000Y13443000D01*
X40443000Y13443000D01*
X40443000Y13697000D01*
X40463000Y13697000D01*
X40463000Y13717000D01*
X40717000Y13717000D01*
X40717000Y13697000D01*
X42018750Y13697000D01*
X42177500Y13855750D01*
X42177500Y14648809D01*
X42080827Y14882198D01*
X41902199Y15060827D01*
X41820090Y15094838D01*
X41935032Y15209579D01*
X42177224Y15792841D01*
X42177775Y16424388D01*
X41936602Y17008072D01*
X41490421Y17455032D01*
X40907159Y17697224D01*
X40275612Y17697775D01*
X39691928Y17456602D01*
X39319743Y17085065D01*
X39002500Y17402862D01*
X39002500Y18579000D01*
X38929995Y18943506D01*
X38723519Y19252519D01*
X37067519Y20908519D01*
X36758506Y21114995D01*
X36394000Y21187500D01*
X32441993Y21187500D01*
X31996437Y21633834D01*
X31541709Y21822654D01*
X31993995Y22009534D01*
X32442743Y22457500D01*
X32711000Y22457500D01*
X33075506Y22530005D01*
X33384519Y22736481D01*
X36686519Y26038481D01*
X36892995Y26347494D01*
X36965500Y26712000D01*
X36965500Y27829863D01*
X36970500Y27855000D01*
X36970500Y28022125D01*
X37122637Y27869722D01*
X37723352Y27620284D01*
X38373795Y27619716D01*
X38974943Y27868106D01*
X39435278Y28327637D01*
X39684716Y28928352D01*
X39685284Y29578795D01*
X39436894Y30179943D01*
X38977363Y30640278D01*
X38376648Y30889716D01*
X37726205Y30890284D01*
X37125057Y30641894D01*
X36970500Y30487607D01*
X36970500Y30828462D01*
X37762288Y31620250D01*
X38373795Y31619716D01*
X38974943Y31868106D01*
X39435278Y32327637D01*
X39684716Y32928352D01*
X39685284Y33578795D01*
X39436894Y34179943D01*
X39002500Y34615097D01*
X39002500Y35895615D01*
X39435278Y36327637D01*
X39684716Y36928352D01*
X39685087Y37353049D01*
X40272500Y37940462D01*
X40272500Y23095000D01*
X40272500Y23095000D01*
G37*
X40272500Y23095000D02*
X40345005Y22730494D01*
X40551481Y22421481D01*
X43828081Y19144881D01*
X44137094Y18938405D01*
X44501600Y18865900D01*
X45534164Y18865900D01*
X45553106Y18820057D01*
X46012637Y18359722D01*
X46310723Y18235946D01*
X46040457Y18124274D01*
X45580122Y17664743D01*
X45330684Y17064028D01*
X45330147Y16449165D01*
X44107481Y15226499D01*
X43901005Y14917486D01*
X43828500Y14552980D01*
X43828500Y13456538D01*
X42608462Y12236500D01*
X42059525Y12236500D01*
X42080827Y12257802D01*
X42177500Y12491191D01*
X42177500Y13284250D01*
X42018750Y13443000D01*
X40717000Y13443000D01*
X40717000Y13423000D01*
X40463000Y13423000D01*
X40463000Y13443000D01*
X40443000Y13443000D01*
X40443000Y13697000D01*
X40463000Y13697000D01*
X40463000Y13717000D01*
X40717000Y13717000D01*
X40717000Y13697000D01*
X42018750Y13697000D01*
X42177500Y13855750D01*
X42177500Y14648809D01*
X42080827Y14882198D01*
X41902199Y15060827D01*
X41820090Y15094838D01*
X41935032Y15209579D01*
X42177224Y15792841D01*
X42177775Y16424388D01*
X41936602Y17008072D01*
X41490421Y17455032D01*
X40907159Y17697224D01*
X40275612Y17697775D01*
X39691928Y17456602D01*
X39319743Y17085065D01*
X39002500Y17402862D01*
X39002500Y18579000D01*
X38929995Y18943506D01*
X38723519Y19252519D01*
X37067519Y20908519D01*
X36758506Y21114995D01*
X36394000Y21187500D01*
X32441993Y21187500D01*
X31996437Y21633834D01*
X31541709Y21822654D01*
X31993995Y22009534D01*
X32442743Y22457500D01*
X32711000Y22457500D01*
X33075506Y22530005D01*
X33384519Y22736481D01*
X36686519Y26038481D01*
X36892995Y26347494D01*
X36965500Y26712000D01*
X36965500Y27829863D01*
X36970500Y27855000D01*
X36970500Y28022125D01*
X37122637Y27869722D01*
X37723352Y27620284D01*
X38373795Y27619716D01*
X38974943Y27868106D01*
X39435278Y28327637D01*
X39684716Y28928352D01*
X39685284Y29578795D01*
X39436894Y30179943D01*
X38977363Y30640278D01*
X38376648Y30889716D01*
X37726205Y30890284D01*
X37125057Y30641894D01*
X36970500Y30487607D01*
X36970500Y30828462D01*
X37762288Y31620250D01*
X38373795Y31619716D01*
X38974943Y31868106D01*
X39435278Y32327637D01*
X39684716Y32928352D01*
X39685284Y33578795D01*
X39436894Y34179943D01*
X39002500Y34615097D01*
X39002500Y35895615D01*
X39435278Y36327637D01*
X39684716Y36928352D01*
X39685087Y37353049D01*
X40272500Y37940462D01*
X40272500Y23095000D01*
G36*
X26170500Y20235000D02*
X26243005Y19870494D01*
X26449481Y19561481D01*
X29500807Y16510155D01*
X29659534Y16126005D01*
X30123563Y15661166D01*
X30578291Y15472346D01*
X30126005Y15285466D01*
X29661166Y14821437D01*
X29409287Y14214845D01*
X29408714Y13558037D01*
X29659534Y12951005D01*
X30123563Y12486166D01*
X30724826Y12236500D01*
X23773706Y12236500D01*
X24373995Y12484534D01*
X24838834Y12948563D01*
X25090713Y13555155D01*
X25091286Y14211963D01*
X24840466Y14818995D01*
X24376437Y15283834D01*
X23936008Y15466716D01*
X24323880Y15627378D01*
X24424502Y15895893D01*
X23440000Y16880395D01*
X22455498Y15895893D01*
X22556120Y15627378D01*
X22965013Y15475124D01*
X22506005Y15285466D01*
X22247563Y15027475D01*
X22106500Y15168538D01*
X22106500Y16138976D01*
X22275893Y16075498D01*
X23260395Y17060000D01*
X23619605Y17060000D01*
X24604107Y16075498D01*
X24872622Y16176120D01*
X25101816Y16791642D01*
X25078014Y17448019D01*
X24872622Y17943880D01*
X24604107Y18044502D01*
X23619605Y17060000D01*
X23260395Y17060000D01*
X22275893Y18044502D01*
X22111500Y17982898D01*
X22111500Y19228913D01*
X22503563Y18836166D01*
X22943992Y18653284D01*
X22556120Y18492622D01*
X22455498Y18224107D01*
X23440000Y17239605D01*
X24424502Y18224107D01*
X24323880Y18492622D01*
X23914987Y18644876D01*
X24373995Y18834534D01*
X24838834Y19298563D01*
X25090713Y19905155D01*
X25091266Y20539228D01*
X26018519Y21466481D01*
X26170500Y21693937D01*
X26170500Y20235000D01*
X26170500Y20235000D01*
G37*
X26170500Y20235000D02*
X26243005Y19870494D01*
X26449481Y19561481D01*
X29500807Y16510155D01*
X29659534Y16126005D01*
X30123563Y15661166D01*
X30578291Y15472346D01*
X30126005Y15285466D01*
X29661166Y14821437D01*
X29409287Y14214845D01*
X29408714Y13558037D01*
X29659534Y12951005D01*
X30123563Y12486166D01*
X30724826Y12236500D01*
X23773706Y12236500D01*
X24373995Y12484534D01*
X24838834Y12948563D01*
X25090713Y13555155D01*
X25091286Y14211963D01*
X24840466Y14818995D01*
X24376437Y15283834D01*
X23936008Y15466716D01*
X24323880Y15627378D01*
X24424502Y15895893D01*
X23440000Y16880395D01*
X22455498Y15895893D01*
X22556120Y15627378D01*
X22965013Y15475124D01*
X22506005Y15285466D01*
X22247563Y15027475D01*
X22106500Y15168538D01*
X22106500Y16138976D01*
X22275893Y16075498D01*
X23260395Y17060000D01*
X23619605Y17060000D01*
X24604107Y16075498D01*
X24872622Y16176120D01*
X25101816Y16791642D01*
X25078014Y17448019D01*
X24872622Y17943880D01*
X24604107Y18044502D01*
X23619605Y17060000D01*
X23260395Y17060000D01*
X22275893Y18044502D01*
X22111500Y17982898D01*
X22111500Y19228913D01*
X22503563Y18836166D01*
X22943992Y18653284D01*
X22556120Y18492622D01*
X22455498Y18224107D01*
X23440000Y17239605D01*
X24424502Y18224107D01*
X24323880Y18492622D01*
X23914987Y18644876D01*
X24373995Y18834534D01*
X24838834Y19298563D01*
X25090713Y19905155D01*
X25091266Y20539228D01*
X26018519Y21466481D01*
X26170500Y21693937D01*
X26170500Y20235000D01*
G36*
X9033748Y14219142D02*
X9019605Y14205000D01*
X9033748Y14190857D01*
X8854143Y14011252D01*
X8840000Y14025395D01*
X8825858Y14011252D01*
X8646253Y14190857D01*
X8660395Y14205000D01*
X8646253Y14219142D01*
X8825858Y14398747D01*
X8840000Y14384605D01*
X8854143Y14398747D01*
X9033748Y14219142D01*
X9033748Y14219142D01*
G37*
X9033748Y14219142D02*
X9019605Y14205000D01*
X9033748Y14190857D01*
X8854143Y14011252D01*
X8840000Y14025395D01*
X8825858Y14011252D01*
X8646253Y14190857D01*
X8660395Y14205000D01*
X8646253Y14219142D01*
X8825858Y14398747D01*
X8840000Y14384605D01*
X8854143Y14398747D01*
X9033748Y14219142D01*
G36*
X33510000Y38997560D02*
X33922500Y38997560D01*
X33922500Y31295132D01*
X33874480Y31402657D01*
X33166964Y31674261D01*
X32409368Y31654436D01*
X31801520Y31402657D01*
X31669828Y31107777D01*
X32838000Y29939605D01*
X32852143Y29953747D01*
X33031748Y29774142D01*
X33017605Y29760000D01*
X33031748Y29745857D01*
X32852143Y29566252D01*
X32838000Y29580395D01*
X31669828Y28412223D01*
X31763590Y28202275D01*
X31760314Y28200922D01*
X31223961Y27665505D01*
X31170809Y27537500D01*
X31060000Y27537500D01*
X30695494Y27464995D01*
X30386481Y27258519D01*
X28608481Y25480519D01*
X28402005Y25171506D01*
X28329500Y24807000D01*
X28329500Y22013000D01*
X28402005Y21648494D01*
X28608481Y21339481D01*
X29409264Y20538698D01*
X29408714Y19908037D01*
X29659534Y19301005D01*
X30123563Y18836166D01*
X30578291Y18647346D01*
X30209905Y18495133D01*
X28075500Y20629538D01*
X28075500Y28363000D01*
X28002995Y28727506D01*
X27796519Y29036519D01*
X26744074Y30088964D01*
X30923739Y30088964D01*
X30943564Y29331368D01*
X31195343Y28723520D01*
X31490223Y28591828D01*
X32658395Y29760000D01*
X31490223Y30928172D01*
X31195343Y30796480D01*
X30923739Y30088964D01*
X26744074Y30088964D01*
X26399519Y30433519D01*
X26090506Y30639995D01*
X25726000Y30712500D01*
X25107648Y30712500D01*
X25055922Y30837686D01*
X24520505Y31374039D01*
X23820590Y31664668D01*
X23062735Y31665330D01*
X22362314Y31375922D01*
X21825961Y30840505D01*
X21535332Y30140590D01*
X21534670Y29382735D01*
X21661672Y29075366D01*
X19565986Y31171052D01*
X19758834Y31363563D01*
X20010713Y31970155D01*
X20011286Y32626963D01*
X19760466Y33233995D01*
X19312500Y33682743D01*
X19312500Y33824000D01*
X19297804Y33897880D01*
X21219187Y32614052D01*
X24715000Y31918692D01*
X28210813Y32614052D01*
X31174420Y34594272D01*
X33154640Y37557879D01*
X33443682Y39010990D01*
X33510000Y38997560D01*
X33510000Y38997560D01*
G37*
X33510000Y38997560D02*
X33922500Y38997560D01*
X33922500Y31295132D01*
X33874480Y31402657D01*
X33166964Y31674261D01*
X32409368Y31654436D01*
X31801520Y31402657D01*
X31669828Y31107777D01*
X32838000Y29939605D01*
X32852143Y29953747D01*
X33031748Y29774142D01*
X33017605Y29760000D01*
X33031748Y29745857D01*
X32852143Y29566252D01*
X32838000Y29580395D01*
X31669828Y28412223D01*
X31763590Y28202275D01*
X31760314Y28200922D01*
X31223961Y27665505D01*
X31170809Y27537500D01*
X31060000Y27537500D01*
X30695494Y27464995D01*
X30386481Y27258519D01*
X28608481Y25480519D01*
X28402005Y25171506D01*
X28329500Y24807000D01*
X28329500Y22013000D01*
X28402005Y21648494D01*
X28608481Y21339481D01*
X29409264Y20538698D01*
X29408714Y19908037D01*
X29659534Y19301005D01*
X30123563Y18836166D01*
X30578291Y18647346D01*
X30209905Y18495133D01*
X28075500Y20629538D01*
X28075500Y28363000D01*
X28002995Y28727506D01*
X27796519Y29036519D01*
X26744074Y30088964D01*
X30923739Y30088964D01*
X30943564Y29331368D01*
X31195343Y28723520D01*
X31490223Y28591828D01*
X32658395Y29760000D01*
X31490223Y30928172D01*
X31195343Y30796480D01*
X30923739Y30088964D01*
X26744074Y30088964D01*
X26399519Y30433519D01*
X26090506Y30639995D01*
X25726000Y30712500D01*
X25107648Y30712500D01*
X25055922Y30837686D01*
X24520505Y31374039D01*
X23820590Y31664668D01*
X23062735Y31665330D01*
X22362314Y31375922D01*
X21825961Y30840505D01*
X21535332Y30140590D01*
X21534670Y29382735D01*
X21661672Y29075366D01*
X19565986Y31171052D01*
X19758834Y31363563D01*
X20010713Y31970155D01*
X20011286Y32626963D01*
X19760466Y33233995D01*
X19312500Y33682743D01*
X19312500Y33824000D01*
X19297804Y33897880D01*
X21219187Y32614052D01*
X24715000Y31918692D01*
X28210813Y32614052D01*
X31174420Y34594272D01*
X33154640Y37557879D01*
X33443682Y39010990D01*
X33510000Y38997560D01*
G36*
X4728563Y63606166D02*
X5335155Y63354287D01*
X5884917Y63353807D01*
X5884917Y46983440D01*
X4649000Y46983440D01*
X4413683Y46939162D01*
X4197559Y46800090D01*
X4064221Y46604943D01*
X4008880Y46752622D01*
X3393358Y46981816D01*
X2736981Y46958014D01*
X2241120Y46752622D01*
X2140498Y46484107D01*
X3125000Y45499605D01*
X3139143Y45513747D01*
X3318748Y45334142D01*
X3304605Y45320000D01*
X3318748Y45305857D01*
X3139143Y45126252D01*
X3125000Y45140395D01*
X2140498Y44155893D01*
X2241120Y43887378D01*
X2856642Y43658184D01*
X3513019Y43681986D01*
X4008880Y43887378D01*
X4065419Y44038254D01*
X4184910Y43852559D01*
X4397110Y43707569D01*
X4649000Y43656560D01*
X6681000Y43656560D01*
X6916317Y43700838D01*
X7132441Y43839910D01*
X7277431Y44052110D01*
X7328440Y44304000D01*
X7328440Y44341522D01*
X10198481Y41471481D01*
X10507494Y41265005D01*
X10872000Y41192500D01*
X11272560Y41192500D01*
X11272560Y39645000D01*
X11316838Y39409683D01*
X11424488Y39242390D01*
X11081005Y39100466D01*
X10632257Y38652500D01*
X10559926Y38652500D01*
X10744668Y39097410D01*
X10745330Y39855265D01*
X10455922Y40555686D01*
X9920505Y41092039D01*
X9220590Y41382668D01*
X8462735Y41383330D01*
X7762314Y41093922D01*
X7225961Y40558505D01*
X6935332Y39858590D01*
X6934670Y39100735D01*
X7224078Y38400314D01*
X7759495Y37863961D01*
X7887500Y37810809D01*
X7887500Y36890538D01*
X5519462Y34522500D01*
X4131712Y34522500D01*
X4104162Y34668917D01*
X3965090Y34885041D01*
X3752890Y35030031D01*
X3658073Y35049232D01*
X3835732Y35207964D01*
X4089709Y35735209D01*
X4092358Y35750974D01*
X3971217Y35983000D01*
X2612000Y35983000D01*
X2612000Y35963000D01*
X2358000Y35963000D01*
X2358000Y35983000D01*
X2338000Y35983000D01*
X2338000Y36237000D01*
X2358000Y36237000D01*
X2358000Y37450924D01*
X2612000Y37450924D01*
X2612000Y36237000D01*
X3971217Y36237000D01*
X4092358Y36469026D01*
X4089709Y36484791D01*
X3835732Y37012036D01*
X3399320Y37401954D01*
X2846913Y37595184D01*
X2612000Y37450924D01*
X2358000Y37450924D01*
X2123087Y37595184D01*
X1570680Y37401954D01*
X1134268Y37012036D01*
X1075500Y36890036D01*
X1075500Y45588358D01*
X1463184Y45588358D01*
X1486986Y44931981D01*
X1692378Y44436120D01*
X1960893Y44335498D01*
X2945395Y45320000D01*
X1960893Y46304502D01*
X1692378Y46203880D01*
X1463184Y45588358D01*
X1075500Y45588358D01*
X1075500Y57661743D01*
X1102005Y57528494D01*
X1308481Y57219481D01*
X2172709Y56355253D01*
X2172225Y55800612D01*
X2413398Y55216928D01*
X2859579Y54769968D01*
X3442841Y54527776D01*
X4074388Y54527225D01*
X4658072Y54768398D01*
X5105032Y55214579D01*
X5347224Y55797841D01*
X5347775Y56429388D01*
X5106602Y57013072D01*
X4660421Y57460032D01*
X4077159Y57702224D01*
X3519327Y57702711D01*
X2934500Y58287538D01*
X2934500Y59818858D01*
X3442841Y59607776D01*
X4074388Y59607225D01*
X4658072Y59848398D01*
X5105032Y60294579D01*
X5347224Y60877841D01*
X5347775Y61509388D01*
X5106602Y62093072D01*
X4660421Y62540032D01*
X4077159Y62782224D01*
X3445612Y62782775D01*
X3139211Y62656173D01*
X3798519Y63315481D01*
X3965977Y63566100D01*
X4058995Y63604534D01*
X4395179Y63940132D01*
X4728563Y63606166D01*
X4728563Y63606166D01*
G37*
X4728563Y63606166D02*
X5335155Y63354287D01*
X5884917Y63353807D01*
X5884917Y46983440D01*
X4649000Y46983440D01*
X4413683Y46939162D01*
X4197559Y46800090D01*
X4064221Y46604943D01*
X4008880Y46752622D01*
X3393358Y46981816D01*
X2736981Y46958014D01*
X2241120Y46752622D01*
X2140498Y46484107D01*
X3125000Y45499605D01*
X3139143Y45513747D01*
X3318748Y45334142D01*
X3304605Y45320000D01*
X3318748Y45305857D01*
X3139143Y45126252D01*
X3125000Y45140395D01*
X2140498Y44155893D01*
X2241120Y43887378D01*
X2856642Y43658184D01*
X3513019Y43681986D01*
X4008880Y43887378D01*
X4065419Y44038254D01*
X4184910Y43852559D01*
X4397110Y43707569D01*
X4649000Y43656560D01*
X6681000Y43656560D01*
X6916317Y43700838D01*
X7132441Y43839910D01*
X7277431Y44052110D01*
X7328440Y44304000D01*
X7328440Y44341522D01*
X10198481Y41471481D01*
X10507494Y41265005D01*
X10872000Y41192500D01*
X11272560Y41192500D01*
X11272560Y39645000D01*
X11316838Y39409683D01*
X11424488Y39242390D01*
X11081005Y39100466D01*
X10632257Y38652500D01*
X10559926Y38652500D01*
X10744668Y39097410D01*
X10745330Y39855265D01*
X10455922Y40555686D01*
X9920505Y41092039D01*
X9220590Y41382668D01*
X8462735Y41383330D01*
X7762314Y41093922D01*
X7225961Y40558505D01*
X6935332Y39858590D01*
X6934670Y39100735D01*
X7224078Y38400314D01*
X7759495Y37863961D01*
X7887500Y37810809D01*
X7887500Y36890538D01*
X5519462Y34522500D01*
X4131712Y34522500D01*
X4104162Y34668917D01*
X3965090Y34885041D01*
X3752890Y35030031D01*
X3658073Y35049232D01*
X3835732Y35207964D01*
X4089709Y35735209D01*
X4092358Y35750974D01*
X3971217Y35983000D01*
X2612000Y35983000D01*
X2612000Y35963000D01*
X2358000Y35963000D01*
X2358000Y35983000D01*
X2338000Y35983000D01*
X2338000Y36237000D01*
X2358000Y36237000D01*
X2358000Y37450924D01*
X2612000Y37450924D01*
X2612000Y36237000D01*
X3971217Y36237000D01*
X4092358Y36469026D01*
X4089709Y36484791D01*
X3835732Y37012036D01*
X3399320Y37401954D01*
X2846913Y37595184D01*
X2612000Y37450924D01*
X2358000Y37450924D01*
X2123087Y37595184D01*
X1570680Y37401954D01*
X1134268Y37012036D01*
X1075500Y36890036D01*
X1075500Y45588358D01*
X1463184Y45588358D01*
X1486986Y44931981D01*
X1692378Y44436120D01*
X1960893Y44335498D01*
X2945395Y45320000D01*
X1960893Y46304502D01*
X1692378Y46203880D01*
X1463184Y45588358D01*
X1075500Y45588358D01*
X1075500Y57661743D01*
X1102005Y57528494D01*
X1308481Y57219481D01*
X2172709Y56355253D01*
X2172225Y55800612D01*
X2413398Y55216928D01*
X2859579Y54769968D01*
X3442841Y54527776D01*
X4074388Y54527225D01*
X4658072Y54768398D01*
X5105032Y55214579D01*
X5347224Y55797841D01*
X5347775Y56429388D01*
X5106602Y57013072D01*
X4660421Y57460032D01*
X4077159Y57702224D01*
X3519327Y57702711D01*
X2934500Y58287538D01*
X2934500Y59818858D01*
X3442841Y59607776D01*
X4074388Y59607225D01*
X4658072Y59848398D01*
X5105032Y60294579D01*
X5347224Y60877841D01*
X5347775Y61509388D01*
X5106602Y62093072D01*
X4660421Y62540032D01*
X4077159Y62782224D01*
X3445612Y62782775D01*
X3139211Y62656173D01*
X3798519Y63315481D01*
X3965977Y63566100D01*
X4058995Y63604534D01*
X4395179Y63940132D01*
X4728563Y63606166D01*
G36*
X45606500Y82644462D02*
X45606500Y72905369D01*
X45364845Y73005713D01*
X44708037Y73006286D01*
X44101005Y72755466D01*
X43636166Y72291437D01*
X43384287Y71684845D01*
X43383956Y71304994D01*
X40653500Y68574538D01*
X40653500Y70339000D01*
X40580995Y70703506D01*
X40374519Y71012519D01*
X36588680Y74798358D01*
X38928184Y74798358D01*
X38951986Y74141981D01*
X39157378Y73646120D01*
X39425893Y73545498D01*
X40410395Y74530000D01*
X39425893Y75514502D01*
X39157378Y75413880D01*
X38928184Y74798358D01*
X36588680Y74798358D01*
X36559519Y74827519D01*
X36345548Y74970490D01*
X35936982Y75379056D01*
X36457841Y75162776D01*
X37089388Y75162225D01*
X37673072Y75403398D01*
X38120032Y75849579D01*
X38362224Y76432841D01*
X38362775Y77064388D01*
X38121602Y77648072D01*
X37675421Y78095032D01*
X37236377Y78277339D01*
X37296538Y78337500D01*
X39381000Y78337500D01*
X39745506Y78410005D01*
X40054519Y78616481D01*
X40526500Y79088462D01*
X42177500Y77437461D01*
X42177500Y76193440D01*
X42114000Y76193440D01*
X41878683Y76149162D01*
X41662559Y76010090D01*
X41529221Y75814943D01*
X41473880Y75962622D01*
X40858358Y76191816D01*
X40201981Y76168014D01*
X39706120Y75962622D01*
X39605498Y75694107D01*
X40590000Y74709605D01*
X40604143Y74723747D01*
X40783748Y74544142D01*
X40769605Y74530000D01*
X40783748Y74515857D01*
X40604143Y74336252D01*
X40590000Y74350395D01*
X39605498Y73365893D01*
X39706120Y73097378D01*
X40321642Y72868184D01*
X40978019Y72891986D01*
X41473880Y73097378D01*
X41530419Y73248254D01*
X41649910Y73062559D01*
X41862110Y72917569D01*
X42114000Y72866560D01*
X44146000Y72866560D01*
X44381317Y72910838D01*
X44597441Y73049910D01*
X44742431Y73262110D01*
X44793440Y73514000D01*
X44793440Y75546000D01*
X44749162Y75781317D01*
X44610090Y75997441D01*
X44397890Y76142431D01*
X44146000Y76193440D01*
X44082500Y76193440D01*
X44082500Y77832000D01*
X44009995Y78196506D01*
X44001290Y78209534D01*
X43803519Y78505520D01*
X41542500Y80766538D01*
X41542500Y80768007D01*
X41574421Y80799872D01*
X41649910Y80682559D01*
X41862110Y80537569D01*
X42114000Y80486560D01*
X44146000Y80486560D01*
X44381317Y80530838D01*
X44597441Y80669910D01*
X44742431Y80882110D01*
X44793440Y81134000D01*
X44793440Y83166000D01*
X44749162Y83401317D01*
X44610090Y83617441D01*
X44397890Y83762431D01*
X44146000Y83813440D01*
X44082500Y83813440D01*
X44082500Y84168462D01*
X45606500Y82644462D01*
X45606500Y82644462D01*
G37*
X45606500Y82644462D02*
X45606500Y72905369D01*
X45364845Y73005713D01*
X44708037Y73006286D01*
X44101005Y72755466D01*
X43636166Y72291437D01*
X43384287Y71684845D01*
X43383956Y71304994D01*
X40653500Y68574538D01*
X40653500Y70339000D01*
X40580995Y70703506D01*
X40374519Y71012519D01*
X36588680Y74798358D01*
X38928184Y74798358D01*
X38951986Y74141981D01*
X39157378Y73646120D01*
X39425893Y73545498D01*
X40410395Y74530000D01*
X39425893Y75514502D01*
X39157378Y75413880D01*
X38928184Y74798358D01*
X36588680Y74798358D01*
X36559519Y74827519D01*
X36345548Y74970490D01*
X35936982Y75379056D01*
X36457841Y75162776D01*
X37089388Y75162225D01*
X37673072Y75403398D01*
X38120032Y75849579D01*
X38362224Y76432841D01*
X38362775Y77064388D01*
X38121602Y77648072D01*
X37675421Y78095032D01*
X37236377Y78277339D01*
X37296538Y78337500D01*
X39381000Y78337500D01*
X39745506Y78410005D01*
X40054519Y78616481D01*
X40526500Y79088462D01*
X42177500Y77437461D01*
X42177500Y76193440D01*
X42114000Y76193440D01*
X41878683Y76149162D01*
X41662559Y76010090D01*
X41529221Y75814943D01*
X41473880Y75962622D01*
X40858358Y76191816D01*
X40201981Y76168014D01*
X39706120Y75962622D01*
X39605498Y75694107D01*
X40590000Y74709605D01*
X40604143Y74723747D01*
X40783748Y74544142D01*
X40769605Y74530000D01*
X40783748Y74515857D01*
X40604143Y74336252D01*
X40590000Y74350395D01*
X39605498Y73365893D01*
X39706120Y73097378D01*
X40321642Y72868184D01*
X40978019Y72891986D01*
X41473880Y73097378D01*
X41530419Y73248254D01*
X41649910Y73062559D01*
X41862110Y72917569D01*
X42114000Y72866560D01*
X44146000Y72866560D01*
X44381317Y72910838D01*
X44597441Y73049910D01*
X44742431Y73262110D01*
X44793440Y73514000D01*
X44793440Y75546000D01*
X44749162Y75781317D01*
X44610090Y75997441D01*
X44397890Y76142431D01*
X44146000Y76193440D01*
X44082500Y76193440D01*
X44082500Y77832000D01*
X44009995Y78196506D01*
X44001290Y78209534D01*
X43803519Y78505520D01*
X41542500Y80766538D01*
X41542500Y80768007D01*
X41574421Y80799872D01*
X41649910Y80682559D01*
X41862110Y80537569D01*
X42114000Y80486560D01*
X44146000Y80486560D01*
X44381317Y80530838D01*
X44597441Y80669910D01*
X44742431Y80882110D01*
X44793440Y81134000D01*
X44793440Y83166000D01*
X44749162Y83401317D01*
X44610090Y83617441D01*
X44397890Y83762431D01*
X44146000Y83813440D01*
X44082500Y83813440D01*
X44082500Y84168462D01*
X45606500Y82644462D01*
G36*
X6669579Y83344968D02*
X7252841Y83102776D01*
X7810673Y83102289D01*
X8613481Y82299481D01*
X8922494Y82093005D01*
X9287000Y82020500D01*
X10786385Y82020500D01*
X10607008Y81752043D01*
X10491000Y81168833D01*
X10491000Y80591167D01*
X10607008Y80007957D01*
X10937369Y79513536D01*
X11062500Y79429926D01*
X11062500Y77337538D01*
X7149779Y73424817D01*
X6629845Y73640713D01*
X5973037Y73641286D01*
X5366005Y73390466D01*
X4901166Y72926437D01*
X4649287Y72319845D01*
X4648714Y71663037D01*
X4899534Y71056005D01*
X5363563Y70591166D01*
X5664994Y70466001D01*
X5338037Y70466286D01*
X4731005Y70215466D01*
X4394821Y69879868D01*
X4061437Y70213834D01*
X3454845Y70465713D01*
X3442500Y70465724D01*
X3442500Y70608007D01*
X3888834Y71053563D01*
X4140713Y71660155D01*
X4141286Y72316963D01*
X3890466Y72923995D01*
X3426437Y73388834D01*
X2819845Y73640713D01*
X2163037Y73641286D01*
X1556005Y73390466D01*
X1091166Y72926437D01*
X1075500Y72888709D01*
X1075500Y78445893D01*
X1505498Y78445893D01*
X1606120Y78177378D01*
X2221642Y77948184D01*
X2878019Y77971986D01*
X3373880Y78177378D01*
X3474502Y78445893D01*
X2490000Y79430395D01*
X1505498Y78445893D01*
X1075500Y78445893D01*
X1075500Y78719329D01*
X1325893Y78625498D01*
X2310395Y79610000D01*
X2669605Y79610000D01*
X3654107Y78625498D01*
X3922622Y78726120D01*
X4129994Y79283037D01*
X4648714Y79283037D01*
X4899534Y78676005D01*
X5363563Y78211166D01*
X5970155Y77959287D01*
X6626963Y77958714D01*
X7233995Y78209534D01*
X7698834Y78673563D01*
X7950713Y79280155D01*
X7951286Y79936963D01*
X7700466Y80543995D01*
X7236437Y81008834D01*
X6629845Y81260713D01*
X5973037Y81261286D01*
X5366005Y81010466D01*
X4901166Y80546437D01*
X4649287Y79939845D01*
X4648714Y79283037D01*
X4129994Y79283037D01*
X4151816Y79341642D01*
X4128014Y79998019D01*
X3922622Y80493880D01*
X3654107Y80594502D01*
X2669605Y79610000D01*
X2310395Y79610000D01*
X1325893Y80594502D01*
X1075500Y80500671D01*
X1075500Y80774107D01*
X1505498Y80774107D01*
X2490000Y79789605D01*
X3474502Y80774107D01*
X3373880Y81042622D01*
X2758358Y81271816D01*
X2101981Y81248014D01*
X1606120Y81042622D01*
X1505498Y80774107D01*
X1075500Y80774107D01*
X1075500Y82519970D01*
X1089534Y82486005D01*
X1553563Y82021166D01*
X2160155Y81769287D01*
X2816963Y81768714D01*
X3423995Y82019534D01*
X3872743Y82467500D01*
X4522000Y82467500D01*
X4886506Y82540005D01*
X5195519Y82746481D01*
X6186538Y83737500D01*
X6277731Y83737500D01*
X6669579Y83344968D01*
X6669579Y83344968D01*
G37*
X6669579Y83344968D02*
X7252841Y83102776D01*
X7810673Y83102289D01*
X8613481Y82299481D01*
X8922494Y82093005D01*
X9287000Y82020500D01*
X10786385Y82020500D01*
X10607008Y81752043D01*
X10491000Y81168833D01*
X10491000Y80591167D01*
X10607008Y80007957D01*
X10937369Y79513536D01*
X11062500Y79429926D01*
X11062500Y77337538D01*
X7149779Y73424817D01*
X6629845Y73640713D01*
X5973037Y73641286D01*
X5366005Y73390466D01*
X4901166Y72926437D01*
X4649287Y72319845D01*
X4648714Y71663037D01*
X4899534Y71056005D01*
X5363563Y70591166D01*
X5664994Y70466001D01*
X5338037Y70466286D01*
X4731005Y70215466D01*
X4394821Y69879868D01*
X4061437Y70213834D01*
X3454845Y70465713D01*
X3442500Y70465724D01*
X3442500Y70608007D01*
X3888834Y71053563D01*
X4140713Y71660155D01*
X4141286Y72316963D01*
X3890466Y72923995D01*
X3426437Y73388834D01*
X2819845Y73640713D01*
X2163037Y73641286D01*
X1556005Y73390466D01*
X1091166Y72926437D01*
X1075500Y72888709D01*
X1075500Y78445893D01*
X1505498Y78445893D01*
X1606120Y78177378D01*
X2221642Y77948184D01*
X2878019Y77971986D01*
X3373880Y78177378D01*
X3474502Y78445893D01*
X2490000Y79430395D01*
X1505498Y78445893D01*
X1075500Y78445893D01*
X1075500Y78719329D01*
X1325893Y78625498D01*
X2310395Y79610000D01*
X2669605Y79610000D01*
X3654107Y78625498D01*
X3922622Y78726120D01*
X4129994Y79283037D01*
X4648714Y79283037D01*
X4899534Y78676005D01*
X5363563Y78211166D01*
X5970155Y77959287D01*
X6626963Y77958714D01*
X7233995Y78209534D01*
X7698834Y78673563D01*
X7950713Y79280155D01*
X7951286Y79936963D01*
X7700466Y80543995D01*
X7236437Y81008834D01*
X6629845Y81260713D01*
X5973037Y81261286D01*
X5366005Y81010466D01*
X4901166Y80546437D01*
X4649287Y79939845D01*
X4648714Y79283037D01*
X4129994Y79283037D01*
X4151816Y79341642D01*
X4128014Y79998019D01*
X3922622Y80493880D01*
X3654107Y80594502D01*
X2669605Y79610000D01*
X2310395Y79610000D01*
X1325893Y80594502D01*
X1075500Y80500671D01*
X1075500Y80774107D01*
X1505498Y80774107D01*
X2490000Y79789605D01*
X3474502Y80774107D01*
X3373880Y81042622D01*
X2758358Y81271816D01*
X2101981Y81248014D01*
X1606120Y81042622D01*
X1505498Y80774107D01*
X1075500Y80774107D01*
X1075500Y82519970D01*
X1089534Y82486005D01*
X1553563Y82021166D01*
X2160155Y81769287D01*
X2816963Y81768714D01*
X3423995Y82019534D01*
X3872743Y82467500D01*
X4522000Y82467500D01*
X4886506Y82540005D01*
X5195519Y82746481D01*
X6186538Y83737500D01*
X6277731Y83737500D01*
X6669579Y83344968D01*
G36*
X21097369Y79513536D02*
X21222500Y79429926D01*
X21222500Y78396000D01*
X21295005Y78031494D01*
X21501481Y77722481D01*
X22893481Y76330481D01*
X23202494Y76124005D01*
X23567000Y76051500D01*
X25472000Y76051500D01*
X25107494Y75978995D01*
X24798481Y75772519D01*
X24041481Y75015519D01*
X23897791Y74800472D01*
X23637369Y74626464D01*
X23445000Y74338563D01*
X23252631Y74626464D01*
X22758210Y74956825D01*
X22175000Y75072833D01*
X21591790Y74956825D01*
X21097369Y74626464D01*
X20900752Y74332206D01*
X20622829Y74681433D01*
X20100878Y74970593D01*
X19998013Y74994134D01*
X19762000Y74873330D01*
X19762000Y73387000D01*
X19782000Y73387000D01*
X19782000Y73133000D01*
X19762000Y73133000D01*
X19762000Y73113000D01*
X19508000Y73113000D01*
X19508000Y73133000D01*
X19488000Y73133000D01*
X19488000Y73387000D01*
X19508000Y73387000D01*
X19508000Y74873330D01*
X19271987Y74994134D01*
X19169122Y74970593D01*
X18647171Y74681433D01*
X18369248Y74332206D01*
X18172631Y74626464D01*
X18047500Y74710074D01*
X18047500Y79429926D01*
X18172631Y79513536D01*
X18365000Y79801437D01*
X18557369Y79513536D01*
X19051790Y79183175D01*
X19635000Y79067167D01*
X20218210Y79183175D01*
X20712631Y79513536D01*
X20905000Y79801437D01*
X21097369Y79513536D01*
X21097369Y79513536D01*
G37*
X21097369Y79513536D02*
X21222500Y79429926D01*
X21222500Y78396000D01*
X21295005Y78031494D01*
X21501481Y77722481D01*
X22893481Y76330481D01*
X23202494Y76124005D01*
X23567000Y76051500D01*
X25472000Y76051500D01*
X25107494Y75978995D01*
X24798481Y75772519D01*
X24041481Y75015519D01*
X23897791Y74800472D01*
X23637369Y74626464D01*
X23445000Y74338563D01*
X23252631Y74626464D01*
X22758210Y74956825D01*
X22175000Y75072833D01*
X21591790Y74956825D01*
X21097369Y74626464D01*
X20900752Y74332206D01*
X20622829Y74681433D01*
X20100878Y74970593D01*
X19998013Y74994134D01*
X19762000Y74873330D01*
X19762000Y73387000D01*
X19782000Y73387000D01*
X19782000Y73133000D01*
X19762000Y73133000D01*
X19762000Y73113000D01*
X19508000Y73113000D01*
X19508000Y73133000D01*
X19488000Y73133000D01*
X19488000Y73387000D01*
X19508000Y73387000D01*
X19508000Y74873330D01*
X19271987Y74994134D01*
X19169122Y74970593D01*
X18647171Y74681433D01*
X18369248Y74332206D01*
X18172631Y74626464D01*
X18047500Y74710074D01*
X18047500Y79429926D01*
X18172631Y79513536D01*
X18365000Y79801437D01*
X18557369Y79513536D01*
X19051790Y79183175D01*
X19635000Y79067167D01*
X20218210Y79183175D01*
X20712631Y79513536D01*
X20905000Y79801437D01*
X21097369Y79513536D01*
G36*
X19401385Y99327433D02*
X18969085Y98895887D01*
X18734837Y98331756D01*
X18734304Y97720924D01*
X18967567Y97156385D01*
X19317500Y96805841D01*
X19317500Y95519828D01*
X19264211Y95484222D01*
X19000246Y95089170D01*
X18995525Y95105262D01*
X18645986Y95539191D01*
X18156996Y95806327D01*
X18077060Y95823010D01*
X17857000Y95700852D01*
X17857000Y94215000D01*
X17877000Y94215000D01*
X17877000Y93961000D01*
X17857000Y93961000D01*
X17857000Y92475148D01*
X18077060Y92352990D01*
X18156996Y92369673D01*
X18645986Y92636809D01*
X18995525Y93070738D01*
X19000246Y93086830D01*
X19264211Y92691778D01*
X19725671Y92383441D01*
X20270000Y92275167D01*
X20814329Y92383441D01*
X21275789Y92691778D01*
X21539754Y93086830D01*
X21544475Y93070738D01*
X21894014Y92636809D01*
X22383004Y92369673D01*
X22462940Y92352990D01*
X22683000Y92475148D01*
X22683000Y93961000D01*
X22663000Y93961000D01*
X22663000Y94215000D01*
X22683000Y94215000D01*
X22683000Y95700852D01*
X22937000Y95700852D01*
X22937000Y94215000D01*
X22957000Y94215000D01*
X22957000Y93961000D01*
X22937000Y93961000D01*
X22937000Y92475148D01*
X23157060Y92352990D01*
X23236996Y92369673D01*
X23725986Y92636809D01*
X23926347Y92885544D01*
X23959438Y92709683D01*
X24098510Y92493559D01*
X24310710Y92348569D01*
X24562600Y92297560D01*
X26137400Y92297560D01*
X26372717Y92341838D01*
X26576795Y92473159D01*
X32026446Y92473159D01*
X32965000Y91534605D01*
X33903554Y92473159D01*
X33810712Y92735088D01*
X33218199Y92953675D01*
X32587139Y92928878D01*
X32119288Y92735088D01*
X32026446Y92473159D01*
X26576795Y92473159D01*
X26588841Y92480910D01*
X26733831Y92693110D01*
X26784840Y92945000D01*
X26784840Y93135500D01*
X33647462Y93135500D01*
X35187709Y91595253D01*
X35187225Y91040612D01*
X35428398Y90456928D01*
X35874579Y90009968D01*
X36457841Y89767776D01*
X37089388Y89767225D01*
X37673072Y90008398D01*
X38120032Y90454579D01*
X38362224Y91037841D01*
X38362687Y91569107D01*
X47225498Y91569107D01*
X48210000Y90584605D01*
X49194502Y91569107D01*
X49093880Y91837622D01*
X48478358Y92066816D01*
X47821981Y92043014D01*
X47326120Y91837622D01*
X47225498Y91569107D01*
X38362687Y91569107D01*
X38362775Y91669388D01*
X38121602Y92253072D01*
X37675421Y92700032D01*
X37092159Y92942224D01*
X36534327Y92942711D01*
X34715519Y94761519D01*
X34617243Y94827185D01*
X43114630Y94827185D01*
X43438980Y94042200D01*
X44039041Y93441091D01*
X44823459Y93115372D01*
X45672815Y93114630D01*
X46457800Y93438980D01*
X47058909Y94039041D01*
X47384628Y94823459D01*
X47385370Y95672815D01*
X47061020Y96457800D01*
X46460959Y97058909D01*
X45676541Y97384628D01*
X44827185Y97385370D01*
X44042200Y97061020D01*
X43441091Y96460959D01*
X43115372Y95676541D01*
X43114630Y94827185D01*
X34617243Y94827185D01*
X34406506Y94967995D01*
X34042000Y95040500D01*
X26784840Y95040500D01*
X26784840Y95231000D01*
X26740562Y95466317D01*
X26601490Y95682441D01*
X26389290Y95827431D01*
X26137400Y95878440D01*
X24562600Y95878440D01*
X24327283Y95834162D01*
X24111159Y95695090D01*
X23966169Y95482890D01*
X23927029Y95289610D01*
X23725986Y95539191D01*
X23236996Y95806327D01*
X23157060Y95823010D01*
X22937000Y95700852D01*
X22683000Y95700852D01*
X22462940Y95823010D01*
X22383004Y95806327D01*
X21894014Y95539191D01*
X21544475Y95105262D01*
X21539754Y95089170D01*
X21275789Y95484222D01*
X21222500Y95519828D01*
X21222500Y96806306D01*
X21570915Y97154113D01*
X21805163Y97718244D01*
X21805181Y97739250D01*
X28894570Y97739250D01*
X28894570Y96998260D01*
X28991243Y96764871D01*
X29169872Y96586243D01*
X29403261Y96489570D01*
X30144250Y96489570D01*
X30303000Y96648320D01*
X30303000Y97898000D01*
X30557000Y97898000D01*
X30557000Y96648320D01*
X30715750Y96489570D01*
X31456739Y96489570D01*
X31690128Y96586243D01*
X31868757Y96764871D01*
X31965430Y96998260D01*
X31965430Y97739250D01*
X31806680Y97898000D01*
X30557000Y97898000D01*
X30303000Y97898000D01*
X29053320Y97898000D01*
X28894570Y97739250D01*
X21805181Y97739250D01*
X21805696Y98329076D01*
X21572433Y98893615D01*
X21140887Y99325915D01*
X20903468Y99424500D01*
X29130615Y99424500D01*
X28991243Y99285129D01*
X28894570Y99051740D01*
X28894570Y98310750D01*
X29053320Y98152000D01*
X30303000Y98152000D01*
X30303000Y98172000D01*
X30557000Y98172000D01*
X30557000Y98152000D01*
X31806680Y98152000D01*
X31965430Y98310750D01*
X31965430Y99051740D01*
X31868757Y99285129D01*
X31729385Y99424500D01*
X45168697Y99424500D01*
X46841323Y99091794D01*
X48190382Y98190382D01*
X49091794Y96841322D01*
X49424500Y95168697D01*
X49424500Y91370618D01*
X49374107Y91389502D01*
X48389605Y90405000D01*
X49374107Y89420498D01*
X49424500Y89439382D01*
X49424500Y83905286D01*
X49146437Y84183834D01*
X48539845Y84435713D01*
X47883037Y84436286D01*
X47276005Y84185466D01*
X47017563Y83927475D01*
X44946519Y85998519D01*
X44637506Y86204995D01*
X44273000Y86277500D01*
X44082500Y86277500D01*
X44082500Y88106560D01*
X44146000Y88106560D01*
X44381317Y88150838D01*
X44597441Y88289910D01*
X44742431Y88502110D01*
X44793440Y88754000D01*
X44793440Y89240893D01*
X47225498Y89240893D01*
X47326120Y88972378D01*
X47941642Y88743184D01*
X48598019Y88766986D01*
X49093880Y88972378D01*
X49194502Y89240893D01*
X48210000Y90225395D01*
X47225498Y89240893D01*
X44793440Y89240893D01*
X44793440Y90673358D01*
X46548184Y90673358D01*
X46571986Y90016981D01*
X46777378Y89521120D01*
X47045893Y89420498D01*
X48030395Y90405000D01*
X47045893Y91389502D01*
X46777378Y91288880D01*
X46548184Y90673358D01*
X44793440Y90673358D01*
X44793440Y90786000D01*
X44749162Y91021317D01*
X44610090Y91237441D01*
X44397890Y91382431D01*
X44146000Y91433440D01*
X42114000Y91433440D01*
X41878683Y91389162D01*
X41662559Y91250090D01*
X41529221Y91054943D01*
X41473880Y91202622D01*
X40858358Y91431816D01*
X40201981Y91408014D01*
X39706120Y91202622D01*
X39605498Y90934107D01*
X40590000Y89949605D01*
X40604143Y89963747D01*
X40783748Y89784142D01*
X40769605Y89770000D01*
X40783748Y89755857D01*
X40604143Y89576252D01*
X40590000Y89590395D01*
X40575858Y89576252D01*
X40396253Y89755857D01*
X40410395Y89770000D01*
X39425893Y90754502D01*
X39157378Y90653880D01*
X38928184Y90038358D01*
X38951986Y89381981D01*
X39157378Y88886120D01*
X39177712Y88878500D01*
X33740538Y88878500D01*
X32857007Y89762031D01*
X33342861Y89781122D01*
X33810712Y89974912D01*
X33903554Y90236841D01*
X32965000Y91175395D01*
X32950858Y91161252D01*
X32771253Y91340857D01*
X32785395Y91355000D01*
X33144605Y91355000D01*
X34083159Y90416446D01*
X34345088Y90509288D01*
X34563675Y91101801D01*
X34538878Y91732861D01*
X34345088Y92200712D01*
X34083159Y92293554D01*
X33144605Y91355000D01*
X32785395Y91355000D01*
X31846841Y92293554D01*
X31584912Y92200712D01*
X31366325Y91608199D01*
X31391122Y90977139D01*
X31584912Y90509288D01*
X31846839Y90416447D01*
X31732432Y90302040D01*
X31758972Y90275500D01*
X21916000Y90275500D01*
X21551494Y90202995D01*
X21452190Y90136642D01*
X21242481Y89996520D01*
X19596481Y88350519D01*
X19390005Y88041506D01*
X19368617Y87933984D01*
X19264211Y87864222D01*
X19000000Y87468801D01*
X18735789Y87864222D01*
X18682500Y87899828D01*
X18682500Y90913000D01*
X18609995Y91277506D01*
X18403519Y91586519D01*
X17546342Y92443696D01*
X17603000Y92475148D01*
X17603000Y93961000D01*
X16307600Y93961000D01*
X16307600Y93682438D01*
X15419438Y94570600D01*
X16307600Y94570600D01*
X16307600Y94215000D01*
X17603000Y94215000D01*
X17603000Y95700852D01*
X17382940Y95823010D01*
X17303004Y95806327D01*
X16814014Y95539191D01*
X16464475Y95105262D01*
X16307600Y94570600D01*
X15419438Y94570600D01*
X15228519Y94761519D01*
X15153335Y94811755D01*
X15066466Y95021995D01*
X14602437Y95486834D01*
X13995845Y95738713D01*
X13339037Y95739286D01*
X12732005Y95488466D01*
X12283257Y95040500D01*
X9602000Y95040500D01*
X9237494Y94967995D01*
X8928481Y94761519D01*
X6896481Y92729519D01*
X6690005Y92420506D01*
X6617500Y92056000D01*
X6617500Y91062269D01*
X6224968Y90670421D01*
X5982776Y90087159D01*
X5982225Y89455612D01*
X6223398Y88871928D01*
X6669579Y88424968D01*
X7252841Y88182776D01*
X7884388Y88182225D01*
X8468072Y88423398D01*
X8696913Y88651841D01*
X9806446Y88651841D01*
X9899288Y88389912D01*
X10491801Y88171325D01*
X11122861Y88196122D01*
X11590712Y88389912D01*
X11683554Y88651841D01*
X10745000Y89590395D01*
X9806446Y88651841D01*
X8696913Y88651841D01*
X8915032Y88869579D01*
X9157224Y89452841D01*
X9157474Y89739466D01*
X9171122Y89392139D01*
X9364912Y88924288D01*
X9626841Y88831446D01*
X10565395Y89770000D01*
X10924605Y89770000D01*
X11863159Y88831446D01*
X12125088Y88924288D01*
X12343675Y89516801D01*
X12318878Y90147861D01*
X12125088Y90615712D01*
X11863159Y90708554D01*
X10924605Y89770000D01*
X10565395Y89770000D01*
X9626841Y90708554D01*
X9364912Y90615712D01*
X9157749Y90054164D01*
X9157775Y90084388D01*
X8916602Y90668072D01*
X8696899Y90888159D01*
X9806446Y90888159D01*
X10745000Y89949605D01*
X11683554Y90888159D01*
X11590712Y91150088D01*
X10998199Y91368675D01*
X10367139Y91343878D01*
X9899288Y91150088D01*
X9806446Y90888159D01*
X8696899Y90888159D01*
X8522500Y91062862D01*
X8522500Y91661462D01*
X9996538Y93135500D01*
X12284007Y93135500D01*
X12729563Y92689166D01*
X13336155Y92437287D01*
X13992963Y92436714D01*
X14599995Y92687534D01*
X14604215Y92691747D01*
X16777500Y90518462D01*
X16777500Y87899828D01*
X16724211Y87864222D01*
X16415874Y87402762D01*
X16307600Y86858433D01*
X16307600Y86077567D01*
X16407269Y85576500D01*
X15083493Y85576500D01*
X15316713Y86138155D01*
X15317286Y86794963D01*
X15066466Y87401995D01*
X14602437Y87866834D01*
X13995845Y88118713D01*
X13339037Y88119286D01*
X12732005Y87868466D01*
X12267166Y87404437D01*
X12015287Y86797845D01*
X12014734Y86163772D01*
X11765603Y85914641D01*
X11645421Y86035032D01*
X11062159Y86277224D01*
X10430612Y86277775D01*
X9846928Y86036602D01*
X9399968Y85590421D01*
X9157776Y85007159D01*
X9157774Y85004391D01*
X8916602Y85588072D01*
X8470421Y86035032D01*
X7887159Y86277224D01*
X7255612Y86277775D01*
X6671928Y86036602D01*
X6277138Y85642500D01*
X5792000Y85642500D01*
X5427494Y85569995D01*
X5118481Y85363519D01*
X4127462Y84372500D01*
X3871993Y84372500D01*
X3426437Y84818834D01*
X2819845Y85070713D01*
X2163037Y85071286D01*
X1556005Y84820466D01*
X1091166Y84356437D01*
X1075500Y84318709D01*
X1075500Y89875893D01*
X1505498Y89875893D01*
X1606120Y89607378D01*
X2221642Y89378184D01*
X2878019Y89401986D01*
X3373880Y89607378D01*
X3474502Y89875893D01*
X2490000Y90860395D01*
X1505498Y89875893D01*
X1075500Y89875893D01*
X1075500Y90149329D01*
X1325893Y90055498D01*
X2310395Y91040000D01*
X2669605Y91040000D01*
X3654107Y90055498D01*
X3922622Y90156120D01*
X4151816Y90771642D01*
X4128014Y91428019D01*
X3922622Y91923880D01*
X3654107Y92024502D01*
X2669605Y91040000D01*
X2310395Y91040000D01*
X1325893Y92024502D01*
X1075500Y91930671D01*
X1075500Y92204107D01*
X1505498Y92204107D01*
X2490000Y91219605D01*
X3474502Y92204107D01*
X3373880Y92472622D01*
X2758358Y92701816D01*
X2101981Y92678014D01*
X1606120Y92472622D01*
X1505498Y92204107D01*
X1075500Y92204107D01*
X1075500Y94827185D01*
X3114630Y94827185D01*
X3438980Y94042200D01*
X4039041Y93441091D01*
X4823459Y93115372D01*
X5672815Y93114630D01*
X6457800Y93438980D01*
X7058909Y94039041D01*
X7384628Y94823459D01*
X7385370Y95672815D01*
X7061020Y96457800D01*
X6460959Y97058909D01*
X5676541Y97384628D01*
X4827185Y97385370D01*
X4042200Y97061020D01*
X3441091Y96460959D01*
X3115372Y95676541D01*
X3114630Y94827185D01*
X1075500Y94827185D01*
X1075500Y95168697D01*
X1408206Y96841323D01*
X2309618Y98190382D01*
X3658678Y99091794D01*
X5331303Y99424500D01*
X19636305Y99424500D01*
X19401385Y99327433D01*
X19401385Y99327433D01*
G37*
X19401385Y99327433D02*
X18969085Y98895887D01*
X18734837Y98331756D01*
X18734304Y97720924D01*
X18967567Y97156385D01*
X19317500Y96805841D01*
X19317500Y95519828D01*
X19264211Y95484222D01*
X19000246Y95089170D01*
X18995525Y95105262D01*
X18645986Y95539191D01*
X18156996Y95806327D01*
X18077060Y95823010D01*
X17857000Y95700852D01*
X17857000Y94215000D01*
X17877000Y94215000D01*
X17877000Y93961000D01*
X17857000Y93961000D01*
X17857000Y92475148D01*
X18077060Y92352990D01*
X18156996Y92369673D01*
X18645986Y92636809D01*
X18995525Y93070738D01*
X19000246Y93086830D01*
X19264211Y92691778D01*
X19725671Y92383441D01*
X20270000Y92275167D01*
X20814329Y92383441D01*
X21275789Y92691778D01*
X21539754Y93086830D01*
X21544475Y93070738D01*
X21894014Y92636809D01*
X22383004Y92369673D01*
X22462940Y92352990D01*
X22683000Y92475148D01*
X22683000Y93961000D01*
X22663000Y93961000D01*
X22663000Y94215000D01*
X22683000Y94215000D01*
X22683000Y95700852D01*
X22937000Y95700852D01*
X22937000Y94215000D01*
X22957000Y94215000D01*
X22957000Y93961000D01*
X22937000Y93961000D01*
X22937000Y92475148D01*
X23157060Y92352990D01*
X23236996Y92369673D01*
X23725986Y92636809D01*
X23926347Y92885544D01*
X23959438Y92709683D01*
X24098510Y92493559D01*
X24310710Y92348569D01*
X24562600Y92297560D01*
X26137400Y92297560D01*
X26372717Y92341838D01*
X26576795Y92473159D01*
X32026446Y92473159D01*
X32965000Y91534605D01*
X33903554Y92473159D01*
X33810712Y92735088D01*
X33218199Y92953675D01*
X32587139Y92928878D01*
X32119288Y92735088D01*
X32026446Y92473159D01*
X26576795Y92473159D01*
X26588841Y92480910D01*
X26733831Y92693110D01*
X26784840Y92945000D01*
X26784840Y93135500D01*
X33647462Y93135500D01*
X35187709Y91595253D01*
X35187225Y91040612D01*
X35428398Y90456928D01*
X35874579Y90009968D01*
X36457841Y89767776D01*
X37089388Y89767225D01*
X37673072Y90008398D01*
X38120032Y90454579D01*
X38362224Y91037841D01*
X38362687Y91569107D01*
X47225498Y91569107D01*
X48210000Y90584605D01*
X49194502Y91569107D01*
X49093880Y91837622D01*
X48478358Y92066816D01*
X47821981Y92043014D01*
X47326120Y91837622D01*
X47225498Y91569107D01*
X38362687Y91569107D01*
X38362775Y91669388D01*
X38121602Y92253072D01*
X37675421Y92700032D01*
X37092159Y92942224D01*
X36534327Y92942711D01*
X34715519Y94761519D01*
X34617243Y94827185D01*
X43114630Y94827185D01*
X43438980Y94042200D01*
X44039041Y93441091D01*
X44823459Y93115372D01*
X45672815Y93114630D01*
X46457800Y93438980D01*
X47058909Y94039041D01*
X47384628Y94823459D01*
X47385370Y95672815D01*
X47061020Y96457800D01*
X46460959Y97058909D01*
X45676541Y97384628D01*
X44827185Y97385370D01*
X44042200Y97061020D01*
X43441091Y96460959D01*
X43115372Y95676541D01*
X43114630Y94827185D01*
X34617243Y94827185D01*
X34406506Y94967995D01*
X34042000Y95040500D01*
X26784840Y95040500D01*
X26784840Y95231000D01*
X26740562Y95466317D01*
X26601490Y95682441D01*
X26389290Y95827431D01*
X26137400Y95878440D01*
X24562600Y95878440D01*
X24327283Y95834162D01*
X24111159Y95695090D01*
X23966169Y95482890D01*
X23927029Y95289610D01*
X23725986Y95539191D01*
X23236996Y95806327D01*
X23157060Y95823010D01*
X22937000Y95700852D01*
X22683000Y95700852D01*
X22462940Y95823010D01*
X22383004Y95806327D01*
X21894014Y95539191D01*
X21544475Y95105262D01*
X21539754Y95089170D01*
X21275789Y95484222D01*
X21222500Y95519828D01*
X21222500Y96806306D01*
X21570915Y97154113D01*
X21805163Y97718244D01*
X21805181Y97739250D01*
X28894570Y97739250D01*
X28894570Y96998260D01*
X28991243Y96764871D01*
X29169872Y96586243D01*
X29403261Y96489570D01*
X30144250Y96489570D01*
X30303000Y96648320D01*
X30303000Y97898000D01*
X30557000Y97898000D01*
X30557000Y96648320D01*
X30715750Y96489570D01*
X31456739Y96489570D01*
X31690128Y96586243D01*
X31868757Y96764871D01*
X31965430Y96998260D01*
X31965430Y97739250D01*
X31806680Y97898000D01*
X30557000Y97898000D01*
X30303000Y97898000D01*
X29053320Y97898000D01*
X28894570Y97739250D01*
X21805181Y97739250D01*
X21805696Y98329076D01*
X21572433Y98893615D01*
X21140887Y99325915D01*
X20903468Y99424500D01*
X29130615Y99424500D01*
X28991243Y99285129D01*
X28894570Y99051740D01*
X28894570Y98310750D01*
X29053320Y98152000D01*
X30303000Y98152000D01*
X30303000Y98172000D01*
X30557000Y98172000D01*
X30557000Y98152000D01*
X31806680Y98152000D01*
X31965430Y98310750D01*
X31965430Y99051740D01*
X31868757Y99285129D01*
X31729385Y99424500D01*
X45168697Y99424500D01*
X46841323Y99091794D01*
X48190382Y98190382D01*
X49091794Y96841322D01*
X49424500Y95168697D01*
X49424500Y91370618D01*
X49374107Y91389502D01*
X48389605Y90405000D01*
X49374107Y89420498D01*
X49424500Y89439382D01*
X49424500Y83905286D01*
X49146437Y84183834D01*
X48539845Y84435713D01*
X47883037Y84436286D01*
X47276005Y84185466D01*
X47017563Y83927475D01*
X44946519Y85998519D01*
X44637506Y86204995D01*
X44273000Y86277500D01*
X44082500Y86277500D01*
X44082500Y88106560D01*
X44146000Y88106560D01*
X44381317Y88150838D01*
X44597441Y88289910D01*
X44742431Y88502110D01*
X44793440Y88754000D01*
X44793440Y89240893D01*
X47225498Y89240893D01*
X47326120Y88972378D01*
X47941642Y88743184D01*
X48598019Y88766986D01*
X49093880Y88972378D01*
X49194502Y89240893D01*
X48210000Y90225395D01*
X47225498Y89240893D01*
X44793440Y89240893D01*
X44793440Y90673358D01*
X46548184Y90673358D01*
X46571986Y90016981D01*
X46777378Y89521120D01*
X47045893Y89420498D01*
X48030395Y90405000D01*
X47045893Y91389502D01*
X46777378Y91288880D01*
X46548184Y90673358D01*
X44793440Y90673358D01*
X44793440Y90786000D01*
X44749162Y91021317D01*
X44610090Y91237441D01*
X44397890Y91382431D01*
X44146000Y91433440D01*
X42114000Y91433440D01*
X41878683Y91389162D01*
X41662559Y91250090D01*
X41529221Y91054943D01*
X41473880Y91202622D01*
X40858358Y91431816D01*
X40201981Y91408014D01*
X39706120Y91202622D01*
X39605498Y90934107D01*
X40590000Y89949605D01*
X40604143Y89963747D01*
X40783748Y89784142D01*
X40769605Y89770000D01*
X40783748Y89755857D01*
X40604143Y89576252D01*
X40590000Y89590395D01*
X40575858Y89576252D01*
X40396253Y89755857D01*
X40410395Y89770000D01*
X39425893Y90754502D01*
X39157378Y90653880D01*
X38928184Y90038358D01*
X38951986Y89381981D01*
X39157378Y88886120D01*
X39177712Y88878500D01*
X33740538Y88878500D01*
X32857007Y89762031D01*
X33342861Y89781122D01*
X33810712Y89974912D01*
X33903554Y90236841D01*
X32965000Y91175395D01*
X32950858Y91161252D01*
X32771253Y91340857D01*
X32785395Y91355000D01*
X33144605Y91355000D01*
X34083159Y90416446D01*
X34345088Y90509288D01*
X34563675Y91101801D01*
X34538878Y91732861D01*
X34345088Y92200712D01*
X34083159Y92293554D01*
X33144605Y91355000D01*
X32785395Y91355000D01*
X31846841Y92293554D01*
X31584912Y92200712D01*
X31366325Y91608199D01*
X31391122Y90977139D01*
X31584912Y90509288D01*
X31846839Y90416447D01*
X31732432Y90302040D01*
X31758972Y90275500D01*
X21916000Y90275500D01*
X21551494Y90202995D01*
X21452190Y90136642D01*
X21242481Y89996520D01*
X19596481Y88350519D01*
X19390005Y88041506D01*
X19368617Y87933984D01*
X19264211Y87864222D01*
X19000000Y87468801D01*
X18735789Y87864222D01*
X18682500Y87899828D01*
X18682500Y90913000D01*
X18609995Y91277506D01*
X18403519Y91586519D01*
X17546342Y92443696D01*
X17603000Y92475148D01*
X17603000Y93961000D01*
X16307600Y93961000D01*
X16307600Y93682438D01*
X15419438Y94570600D01*
X16307600Y94570600D01*
X16307600Y94215000D01*
X17603000Y94215000D01*
X17603000Y95700852D01*
X17382940Y95823010D01*
X17303004Y95806327D01*
X16814014Y95539191D01*
X16464475Y95105262D01*
X16307600Y94570600D01*
X15419438Y94570600D01*
X15228519Y94761519D01*
X15153335Y94811755D01*
X15066466Y95021995D01*
X14602437Y95486834D01*
X13995845Y95738713D01*
X13339037Y95739286D01*
X12732005Y95488466D01*
X12283257Y95040500D01*
X9602000Y95040500D01*
X9237494Y94967995D01*
X8928481Y94761519D01*
X6896481Y92729519D01*
X6690005Y92420506D01*
X6617500Y92056000D01*
X6617500Y91062269D01*
X6224968Y90670421D01*
X5982776Y90087159D01*
X5982225Y89455612D01*
X6223398Y88871928D01*
X6669579Y88424968D01*
X7252841Y88182776D01*
X7884388Y88182225D01*
X8468072Y88423398D01*
X8696913Y88651841D01*
X9806446Y88651841D01*
X9899288Y88389912D01*
X10491801Y88171325D01*
X11122861Y88196122D01*
X11590712Y88389912D01*
X11683554Y88651841D01*
X10745000Y89590395D01*
X9806446Y88651841D01*
X8696913Y88651841D01*
X8915032Y88869579D01*
X9157224Y89452841D01*
X9157474Y89739466D01*
X9171122Y89392139D01*
X9364912Y88924288D01*
X9626841Y88831446D01*
X10565395Y89770000D01*
X10924605Y89770000D01*
X11863159Y88831446D01*
X12125088Y88924288D01*
X12343675Y89516801D01*
X12318878Y90147861D01*
X12125088Y90615712D01*
X11863159Y90708554D01*
X10924605Y89770000D01*
X10565395Y89770000D01*
X9626841Y90708554D01*
X9364912Y90615712D01*
X9157749Y90054164D01*
X9157775Y90084388D01*
X8916602Y90668072D01*
X8696899Y90888159D01*
X9806446Y90888159D01*
X10745000Y89949605D01*
X11683554Y90888159D01*
X11590712Y91150088D01*
X10998199Y91368675D01*
X10367139Y91343878D01*
X9899288Y91150088D01*
X9806446Y90888159D01*
X8696899Y90888159D01*
X8522500Y91062862D01*
X8522500Y91661462D01*
X9996538Y93135500D01*
X12284007Y93135500D01*
X12729563Y92689166D01*
X13336155Y92437287D01*
X13992963Y92436714D01*
X14599995Y92687534D01*
X14604215Y92691747D01*
X16777500Y90518462D01*
X16777500Y87899828D01*
X16724211Y87864222D01*
X16415874Y87402762D01*
X16307600Y86858433D01*
X16307600Y86077567D01*
X16407269Y85576500D01*
X15083493Y85576500D01*
X15316713Y86138155D01*
X15317286Y86794963D01*
X15066466Y87401995D01*
X14602437Y87866834D01*
X13995845Y88118713D01*
X13339037Y88119286D01*
X12732005Y87868466D01*
X12267166Y87404437D01*
X12015287Y86797845D01*
X12014734Y86163772D01*
X11765603Y85914641D01*
X11645421Y86035032D01*
X11062159Y86277224D01*
X10430612Y86277775D01*
X9846928Y86036602D01*
X9399968Y85590421D01*
X9157776Y85007159D01*
X9157774Y85004391D01*
X8916602Y85588072D01*
X8470421Y86035032D01*
X7887159Y86277224D01*
X7255612Y86277775D01*
X6671928Y86036602D01*
X6277138Y85642500D01*
X5792000Y85642500D01*
X5427494Y85569995D01*
X5118481Y85363519D01*
X4127462Y84372500D01*
X3871993Y84372500D01*
X3426437Y84818834D01*
X2819845Y85070713D01*
X2163037Y85071286D01*
X1556005Y84820466D01*
X1091166Y84356437D01*
X1075500Y84318709D01*
X1075500Y89875893D01*
X1505498Y89875893D01*
X1606120Y89607378D01*
X2221642Y89378184D01*
X2878019Y89401986D01*
X3373880Y89607378D01*
X3474502Y89875893D01*
X2490000Y90860395D01*
X1505498Y89875893D01*
X1075500Y89875893D01*
X1075500Y90149329D01*
X1325893Y90055498D01*
X2310395Y91040000D01*
X2669605Y91040000D01*
X3654107Y90055498D01*
X3922622Y90156120D01*
X4151816Y90771642D01*
X4128014Y91428019D01*
X3922622Y91923880D01*
X3654107Y92024502D01*
X2669605Y91040000D01*
X2310395Y91040000D01*
X1325893Y92024502D01*
X1075500Y91930671D01*
X1075500Y92204107D01*
X1505498Y92204107D01*
X2490000Y91219605D01*
X3474502Y92204107D01*
X3373880Y92472622D01*
X2758358Y92701816D01*
X2101981Y92678014D01*
X1606120Y92472622D01*
X1505498Y92204107D01*
X1075500Y92204107D01*
X1075500Y94827185D01*
X3114630Y94827185D01*
X3438980Y94042200D01*
X4039041Y93441091D01*
X4823459Y93115372D01*
X5672815Y93114630D01*
X6457800Y93438980D01*
X7058909Y94039041D01*
X7384628Y94823459D01*
X7385370Y95672815D01*
X7061020Y96457800D01*
X6460959Y97058909D01*
X5676541Y97384628D01*
X4827185Y97385370D01*
X4042200Y97061020D01*
X3441091Y96460959D01*
X3115372Y95676541D01*
X3114630Y94827185D01*
X1075500Y94827185D01*
X1075500Y95168697D01*
X1408206Y96841323D01*
X2309618Y98190382D01*
X3658678Y99091794D01*
X5331303Y99424500D01*
X19636305Y99424500D01*
X19401385Y99327433D01*
M02*
