M48
;DRILL file {KiCad 4.0.2-stable} date 02/09/2016 12:40:27
;FORMAT={-:-/ absolute / inch / decimal}
FMAT,2
INCH,TZ
T1C0.016
T2C0.025
T3C0.031
T4C0.032
T5C0.032
T6C0.039
T7C0.039
T8C0.040
T9C0.094
T10C0.118
T11C0.669
%
G90
G05
M72
T2
X0.513Y1.8643
X1.508Y2.4593
X1.513Y2.6193
X1.693Y1.6493
T3
X0.148Y1.0343
X0.148Y0.7343
X0.248Y1.0343
X0.248Y0.7343
X0.348Y1.0343
X0.348Y0.7343
X0.448Y1.0343
X0.448Y0.7343
X0.473Y3.1843
X0.473Y2.8843
X0.548Y1.0343
X0.548Y0.7343
X0.573Y3.1843
X0.573Y2.8843
X0.648Y1.0343
X0.648Y0.7343
X0.673Y3.1843
X0.673Y2.8843
X0.748Y1.0343
X0.748Y0.7343
X0.773Y3.1843
X0.773Y2.8843
X0.873Y3.1843
X0.873Y2.8843
X0.973Y3.1843
X0.973Y2.8843
X1.073Y3.1843
X1.073Y2.8843
X1.498Y1.4667
X1.498Y1.3093
X1.498Y1.1518
X1.848Y0.7774
X1.848Y0.5411
X1.849Y0.659
T4
X0.098Y3.5843
X0.098Y3.2843
X0.098Y3.1343
X0.098Y2.8343
X0.123Y2.7093
X0.123Y2.5593
X0.123Y1.7843
X0.148Y2.4093
X0.148Y2.2093
X0.148Y0.5593
X0.223Y2.7093
X0.223Y2.5593
X0.223Y1.7843
X0.248Y3.1343
X0.248Y2.8343
X0.298Y3.5343
X0.298Y3.3343
X0.348Y0.5593
X0.423Y3.5343
X0.423Y3.3343
X0.473Y1.4843
X0.473Y1.1843
X0.538Y3.7043
X0.538Y3.4043
X0.9228Y0.9217
X0.9228Y0.7967
X0.9228Y0.6717
X0.9228Y0.5467
X1.2228Y0.9217
X1.2228Y0.7967
X1.2228Y0.6717
X1.2228Y0.5467
X1.2978Y3.5967
X1.2978Y3.3967
X1.2978Y3.2217
X1.2978Y3.1217
X1.2978Y2.9467
X1.2978Y2.8467
X1.373Y0.7093
X1.373Y0.5093
X1.4478Y3.5967
X1.4478Y3.3967
X1.4478Y3.2217
X1.4478Y3.0217
X1.498Y0.6343
X1.598Y3.5343
X1.598Y3.2343
X1.598Y2.9343
X1.598Y0.6343
X1.598Y0.5343
X1.698Y3.5343
X1.698Y3.2343
X1.698Y2.9343
X1.773Y2.8093
X1.773Y2.5093
X1.773Y1.9593
X1.773Y1.7593
X1.898Y3.5593
X1.898Y3.2593
X1.898Y3.1093
X1.898Y2.8093
X1.898Y2.0343
X1.898Y1.7343
T5
X0.6228Y1.2717
X0.698Y3.7043
X0.698Y3.4043
X0.7228Y1.2717
X0.798Y3.7043
X0.798Y3.4043
X0.898Y3.7043
X0.898Y3.4043
X0.998Y3.7043
X0.998Y3.4043
T6
X1.8819Y1.5061
X1.8819Y1.1124
T7
X0.348Y1.5543
X0.348Y1.1843
X0.798Y3.8593
X0.9228Y1.1717
X0.9228Y1.0467
X1.198Y3.8593
X1.2928Y1.1717
X1.2928Y1.0467
X1.898Y2.6093
X1.898Y2.5093
T8
X0.0978Y1.4217
X0.0978Y1.3217
T9
X0.148Y0.4593
X0.348Y0.4593
T10
X0.2067Y3.75
X0.2067Y0.2067
X1.7815Y3.75
X1.7815Y0.2067
T1
X1.8126Y0.9073G85X1.8835Y0.9073
G05
X1.8126Y0.4112G85X1.8835Y0.4112
G05
T11
X0.973Y2.1402G85X0.973Y1.6283
G05
T0
M30
